<?xml version="1.0" standalone="no"?>
<!DOCTYPE svg PUBLIC "-//W3C//DTD SVG 20010904//EN"
 "http://www.w3.org/TR/2001/REC-SVG-20010904/DTD/svg10.dtd">
<svg version="1.0" xmlns="http://www.w3.org/2000/svg"
 width="728.000000pt" height="296.000000pt" viewBox="0 0 728.000000 296.000000"
 preserveAspectRatio="xMidYMid meet">

<g transform="translate(0.000000,296.000000) scale(0.100000,-0.100000)"
fill="#000000" stroke="none">
<path d="M2420 2823 c0 -143 20 -366 50 -572 16 -113 28 -206 27 -208 -2 -1
-12 23 -21 54 -56 176 -164 342 -260 398 -48 28 -223 61 -264 50 -15 -4 -442
-10 -950 -14 l-923 -6 93 -97 93 -98 663 0 662 0 0 -75 c0 -55 -4 -75 -13 -75
-38 0 -319 -114 -502 -204 -224 -110 -398 -210 -588 -339 l-118 -79 17 -27
c10 -14 36 -52 58 -83 23 -31 75 -104 116 -162 l75 -106 47 0 c26 0 82 -8 125
-17 130 -29 451 -202 558 -301 97 -90 242 -305 296 -439 21 -53 111 -197 131
-209 4 -3 8 473 8 1057 l0 1061 163 -4 c152 -3 166 -5 217 -30 64 -32 159
-113 190 -163 49 -80 50 -85 50 -945 l0 -805 100 -105 99 -105 1 1078 0 1077
227 0 227 0 -100 104 -99 103 -132 2 -131 1 -37 50 c-36 49 -57 109 -69 201
-6 38 -14 52 -46 78 l-40 32 0 -78z m-830 -1487 c0 -283 3 -521 6 -530 15 -39
-17 -10 -56 51 -49 77 -212 248 -315 332 -98 81 -173 129 -304 199 l-114 60
74 48 c140 90 304 186 404 235 97 47 267 116 293 118 9 1 12 -108 12 -513z"/>
<path d="M6610 2818 c1 -145 18 -357 44 -538 40 -270 39 -265 13 -185 -39 115
-113 257 -168 318 -65 74 -117 103 -204 117 -48 8 -413 11 -1194 10 -619 0
-1127 -2 -1129 -4 -2 -3 41 -50 96 -105 l99 -101 797 0 c633 0 798 -3 801 -13
3 -7 4 -134 3 -282 l-3 -270 -30 60 c-69 136 -151 240 -209 265 -76 33 -119
35 -181 6 -65 -29 -166 -122 -191 -174 l-17 -36 -16 24 c-26 42 -134 139 -176
159 -92 43 -139 54 -240 55 -91 1 -105 -2 -158 -28 -83 -40 -177 -132 -220
-213 -48 -92 -66 -167 -74 -303 -10 -201 34 -316 171 -448 108 -104 265 -159
426 -150 162 9 290 115 290 240 0 60 -44 197 -77 240 -90 116 -226 125 -339
21 -50 -45 -67 -87 -62 -157 2 -35 13 -80 25 -104 24 -49 19 -51 -60 -22 -60
23 -130 78 -152 120 -60 117 -24 300 81 404 51 51 134 93 199 101 57 7 158
-11 250 -46 85 -32 157 -107 214 -224 24 -49 45 -91 46 -93 2 -2 20 4 42 13
l39 16 -4 84 c-6 112 9 165 59 210 47 42 82 45 165 14 68 -26 132 -85 165
-155 l24 -49 2 -590 3 -590 67 -63 c38 -34 85 -76 106 -93 l37 -31 0 1046 0
1046 26 6 c14 4 93 5 174 2 137 -5 153 -7 206 -33 32 -16 86 -57 125 -94 111
-110 103 -38 107 -997 l2 -822 100 -103 99 -104 1 1077 0 1077 188 0 c103 0
205 1 227 1 l40 0 -105 105 -105 105 -125 0 -126 0 -37 44 c-38 45 -58 103
-72 203 -5 38 -13 56 -29 67 -13 8 -31 22 -40 31 -15 15 -16 10 -16 -67z"/>
<path d="M3429 2407 c-105 -30 -223 -125 -267 -216 -25 -51 -27 -66 -26 -171
0 -101 3 -123 27 -185 64 -162 177 -280 312 -325 126 -42 239 -15 353 86 63
56 125 175 142 276 34 195 -79 414 -263 507 -55 28 -79 34 -149 37 -50 2 -101
-1 -129 -9z m280 -306 c88 -45 109 -96 72 -176 -35 -78 -202 -205 -318 -242
-48 -15 -55 -15 -97 1 -61 23 -81 74 -73 180 7 101 51 185 122 233 43 29 59
32 160 29 69 -2 100 -8 134 -25z"/>
<path d="M3200 1152 l0 -228 97 -64 c54 -36 134 -92 178 -126 117 -88 305
-234 354 -274 164 -134 272 -229 381 -333 l125 -119 3 85 3 86 -88 107 c-48
59 -99 121 -113 138 -13 17 -53 65 -89 106 -35 41 -87 102 -115 135 -148 173
-201 231 -315 345 -70 70 -153 148 -186 175 -33 28 -97 83 -142 123 -45 39
-84 72 -87 72 -4 0 -6 -103 -6 -228z"/>
</g>
</svg>
