<?xml version="1.0" encoding="UTF-8"?>
<svg version="1.1" xmlns="http://www.w3.org/2000/svg" width="256" height="256">
<path d="M0 0 C1.14480835 0.01184326 1.14480835 0.01184326 2.31274414 0.02392578 C16.9324889 0.2449889 16.9324889 0.2449889 19.875 3.1875 C23.36011572 5.51091048 26.12179038 5.90319574 30.1875 6.5625 C33.90217494 7.42637789 37.32186864 8.802381 40.875 10.1875 C40.875 10.8475 40.875 11.5075 40.875 12.1875 C41.968125 12.496875 43.06125 12.80625 44.1875 13.125 C50.235 14.8675 50.235 14.8675 52.875 16.1875 C53.803125 16.331875 54.73125 16.47625 55.6875 16.625 C58.67052927 17.15141693 61.11476546 17.96974947 63.875 19.1875 C63.875 19.8475 63.875 20.5075 63.875 21.1875 C68.58083719 23.53727963 68.58083719 23.53727963 73.6875 24.125 C78.51282318 24.21961418 82.50644579 26.25359458 86.875 28.1875 C86.875 28.8475 86.875 29.5075 86.875 30.1875 C88.855 30.5175 90.835 30.8475 92.875 31.1875 C94.19347027 35.82262318 94.09750057 40.33666125 94.125 45.125 C94.1559375 46.46594727 94.1559375 46.46594727 94.1875 47.83398438 C94.22786168 54.62988144 94.22786168 54.62988144 92.171875 57.87890625 C91.74390625 58.64074219 91.3159375 59.40257812 90.875 60.1875 C91.58144024 61.8455568 92.30192436 63.50006483 93.11523438 65.10839844 C94.66239992 69.34222291 93.93717205 73.88908098 93.625 78.3125 C93.57214844 79.28832031 93.51929688 80.26414062 93.46484375 81.26953125 C93.03922748 88.52480396 93.03922748 88.52480396 92.22363281 91.81591797 C91.56599148 94.44962167 91.56599148 94.44962167 93.875 97.1875 C94.16524072 100.83275289 93.87217725 104.47587098 93.6875 108.125 C93.65591797 109.12724609 93.62433594 110.12949219 93.59179688 111.16210938 C93.54732422 112.12826172 93.50285156 113.09441406 93.45703125 114.08984375 C93.39866089 115.41230103 93.39866089 115.41230103 93.33911133 116.76147461 C92.79366319 119.61266774 91.75676796 121.01206804 89.875 123.1875 C89.441875 123.744375 89.00875 124.30125 88.5625 124.875 C86.16271288 126.74150109 83.8452889 126.8574679 80.875 127.1875 C80.875 127.8475 80.875 128.5075 80.875 129.1875 C79.76125 129.496875 78.6475 129.80625 77.5 130.125 C74.0804845 131.01076483 74.0804845 131.01076483 71.875 132.1875 C70.885 132.5175 69.895 132.8475 68.875 133.1875 C66.35252519 134.33407946 64.85884273 135.20365727 62.875 137.1875 C60.25 137.3125 60.25 137.3125 57.875 137.1875 C57.875 137.8475 57.875 138.5075 57.875 139.1875 C55.565 139.5175 53.255 139.8475 50.875 140.1875 C50.875 140.8475 50.875 141.5075 50.875 142.1875 C48.9598421 143.00354999 47.04281166 143.81520632 45.125 144.625 C44.05765625 145.07746094 42.9903125 145.52992188 41.890625 145.99609375 C39.52243499 146.93171286 37.34545962 147.63433187 34.875 148.1875 C31.24188418 149.39853861 28.59726766 150.46523234 25.875 153.1875 C23.55224823 153.58797444 21.21760643 153.9272104 18.875 154.1875 C18.875 154.8475 18.875 155.5075 18.875 156.1875 C11.27971078 160.30100287 5.47633107 161.92899406 -3.125 161.1875 C-4.0634375 161.13078125 -5.001875 161.0740625 -5.96875 161.015625 C-12.80784161 160.50465839 -12.80784161 160.50465839 -15.125 158.1875 C-16.45576989 157.84407551 -17.78931979 157.51130126 -19.125 157.1875 C-20.61 156.1975 -20.61 156.1975 -22.125 155.1875 C-24.4328491 154.03357545 -26.59730331 153.65312834 -29.125 153.1875 C-29.125 152.5275 -29.125 151.8675 -29.125 151.1875 C-33.10560777 150.01673301 -37.04121717 148.93000597 -41.125 148.1875 C-41.125 147.5275 -41.125 146.8675 -41.125 146.1875 C-42.775 146.1875 -44.425 146.1875 -46.125 146.1875 C-46.125 145.5275 -46.125 144.8675 -46.125 144.1875 C-47.7028125 144.001875 -47.7028125 144.001875 -49.3125 143.8125 C-52.58458771 143.27609218 -55.13036076 142.54869965 -58.125 141.1875 C-58.125 140.5275 -58.125 139.8675 -58.125 139.1875 C-59.7028125 139.001875 -59.7028125 139.001875 -61.3125 138.8125 C-64.58458771 138.27609218 -67.13036076 137.54869965 -70.125 136.1875 C-70.125 135.5275 -70.125 134.8675 -70.125 134.1875 C-72.435 133.8575 -74.745 133.5275 -77.125 133.1875 C-77.125 132.5275 -77.125 131.8675 -77.125 131.1875 C-78.135625 131.105 -79.14625 131.0225 -80.1875 130.9375 C-84.57036945 130.30501274 -87.47693734 128.69107241 -91.125 126.1875 C-92.5 124 -92.5 124 -93.125 122.1875 C-93.455 121.8575 -93.785 121.5275 -94.125 121.1875 C-94.22457162 119.46585029 -94.2558039 117.7401505 -94.2578125 116.015625 C-94.25910156 114.95859375 -94.26039062 113.9015625 -94.26171875 112.8125 C-94.25785156 111.69875 -94.25398438 110.585 -94.25 109.4375 C-94.25386719 108.33921875 -94.25773437 107.2409375 -94.26171875 106.109375 C-94.26042969 105.0471875 -94.25914063 103.985 -94.2578125 102.890625 C-94.25612061 101.43124512 -94.25612061 101.43124512 -94.25439453 99.94238281 C-94.125 97.1875 -94.125 97.1875 -93.55419922 94.45605469 C-92.8836325 92.1654935 -92.8836325 92.1654935 -94.125 90.1875 C-94.36411448 86.92228121 -94.31019344 83.64801071 -94.3125 80.375 C-94.32474609 79.47201172 -94.33699219 78.56902344 -94.34960938 77.63867188 C-94.36477866 70.75687133 -94.36477866 70.75687133 -92.98828125 67.48828125 C-91.6953154 64.0423225 -93.08476078 61.67158891 -94.125 58.1875 C-94.41948442 54.809343 -94.40503577 51.45153623 -94.375 48.0625 C-94.38273437 47.18207031 -94.39046875 46.30164062 -94.3984375 45.39453125 C-94.3723371 36.7422502 -94.3723371 36.7422502 -92.125 33.1875 C-89.49317937 31.93500705 -87.02941332 31.70279914 -84.125 31.1875 C-84.125 30.5275 -84.125 29.8675 -84.125 29.1875 C-77.06717879 26.2718452 -70.73008469 23.90496082 -63.125 23.1875 C-62.465 22.5275 -61.805 21.8675 -61.125 21.1875 C-57.09664579 18.50193053 -53.7322385 17.18260887 -48.9375 16.6875 C-45.11075286 16.5793563 -45.11075286 16.5793563 -43.125 14.1875 C-40.12629727 12.18836485 -38.58659235 11.76443206 -35.125 11.1875 C-33.45833333 10.85416667 -31.79166667 10.52083333 -30.125 10.1875 C-30.125 9.5275 -30.125 8.8675 -30.125 8.1875 C-26.29510894 6.38519832 -23.34378192 5.99127759 -19.125 6.1875 C-19.125 5.5275 -19.125 4.8675 -19.125 4.1875 C-17.9803125 3.9709375 -17.9803125 3.9709375 -16.8125 3.75 C-10.57403394 2.44427455 -6.5905957 -0.11474224 0 0 Z M-88.125 63.1875 C-88.455 63.8475 -88.785 64.5075 -89.125 65.1875 C-88.465 65.1875 -87.805 65.1875 -87.125 65.1875 C-87.455 64.5275 -87.785 63.8675 -88.125 63.1875 Z " fill="#A41E11" transform="translate(128.125,1.8125)"/>
<path d="M0 0 C1.14480835 0.01184326 1.14480835 0.01184326 2.31274414 0.02392578 C16.9324889 0.2449889 16.9324889 0.2449889 19.875 3.1875 C23.36011572 5.51091048 26.12179038 5.90319574 30.1875 6.5625 C33.90217494 7.42637789 37.32186864 8.802381 40.875 10.1875 C40.875 10.8475 40.875 11.5075 40.875 12.1875 C41.968125 12.496875 43.06125 12.80625 44.1875 13.125 C50.235 14.8675 50.235 14.8675 52.875 16.1875 C53.803125 16.331875 54.73125 16.47625 55.6875 16.625 C58.67052927 17.15141693 61.11476546 17.96974947 63.875 19.1875 C63.875 19.8475 63.875 20.5075 63.875 21.1875 C68.58083719 23.53727963 68.58083719 23.53727963 73.6875 24.125 C78.51282318 24.21961418 82.50644579 26.25359458 86.875 28.1875 C86.875 28.8475 86.875 29.5075 86.875 30.1875 C88.855 30.5175 90.835 30.8475 92.875 31.1875 C93.68464839 33.4545155 93.99794244 34.77601918 93.30078125 37.109375 C91.27424444 40.0631218 88.59273663 41.20554283 85.4375 42.6875 C84.39553467 43.19180542 84.39553467 43.19180542 83.33251953 43.70629883 C65.50953934 52.22628392 47.27959443 59.92143047 29.13818359 67.73510742 C22.76149675 70.48545092 16.41055186 73.2788004 10.1003418 76.17871094 C3.37931539 79.22547793 -2.18810802 80.52370332 -9.2878418 78.11401367 C-13.18366313 76.51962702 -17.0310327 74.83947725 -20.875 73.125 C-23.06660733 72.16640733 -25.26037981 71.21288684 -27.45423889 70.25946045 C-28.98390133 69.59421238 -30.51281196 68.92723317 -32.04100037 68.25860596 C-37.58019243 65.83919953 -43.14822779 63.49846524 -48.73828125 61.19921875 C-49.53066193 60.87273849 -50.3230426 60.54625824 -51.13943481 60.20988464 C-54.22968711 58.93758495 -57.32028737 57.66624147 -60.41467285 56.40402222 C-68.38141484 53.15076087 -76.25840204 49.76251923 -83.99609375 45.9921875 C-84.66882828 45.67170441 -85.34156281 45.35122131 -86.03468323 45.02102661 C-89.58662236 43.25071222 -92.21604417 41.74061666 -94.125 38.1875 C-93.8125 35.5625 -93.8125 35.5625 -92.125 33.1875 C-89.45156681 32.13005685 -86.98331043 31.69461959 -84.125 31.1875 C-84.125 30.5275 -84.125 29.8675 -84.125 29.1875 C-77.06717879 26.2718452 -70.73008469 23.90496082 -63.125 23.1875 C-62.465 22.5275 -61.805 21.8675 -61.125 21.1875 C-57.09664579 18.50193053 -53.7322385 17.18260887 -48.9375 16.6875 C-45.11075286 16.5793563 -45.11075286 16.5793563 -43.125 14.1875 C-40.12629727 12.18836485 -38.58659235 11.76443206 -35.125 11.1875 C-33.45833333 10.85416667 -31.79166667 10.52083333 -30.125 10.1875 C-30.125 9.5275 -30.125 8.8675 -30.125 8.1875 C-26.29510894 6.38519832 -23.34378192 5.99127759 -19.125 6.1875 C-19.125 5.5275 -19.125 4.8675 -19.125 4.1875 C-17.9803125 3.9709375 -17.9803125 3.9709375 -16.8125 3.75 C-10.57403394 2.44427455 -6.5905957 -0.11474224 0 0 Z " fill="#D72D20" transform="translate(128.125,1.8125)"/>
<path d="M0 0 C0.08733513 3.08315385 0.14050127 6.16598827 0.1875 9.25 C0.21263672 10.12269531 0.23777344 10.99539062 0.26367188 11.89453125 C0.33824902 18.40760212 0.33824902 18.40760212 -1.4296875 21.50390625 C-1.94789063 21.99761719 -2.46609375 22.49132812 -3 23 C-3.433125 23.556875 -3.86625 24.11375 -4.3125 24.6875 C-6.71228712 26.55400109 -9.0297111 26.6699679 -12 27 C-12 27.66 -12 28.32 -12 29 C-13.11375 29.309375 -14.2275 29.61875 -15.375 29.9375 C-18.7945155 30.82326483 -18.7945155 30.82326483 -21 32 C-21.99 32.33 -22.98 32.66 -24 33 C-26.52247481 34.14657946 -28.01615727 35.01615727 -30 37 C-32.625 37.125 -32.625 37.125 -35 37 C-35 37.66 -35 38.32 -35 39 C-38.465 39.495 -38.465 39.495 -42 40 C-42 40.66 -42 41.32 -42 42 C-43.9151579 42.81604999 -45.83218834 43.62770632 -47.75 44.4375 C-48.81734375 44.88996094 -49.8846875 45.34242188 -50.984375 45.80859375 C-53.35256501 46.74421286 -55.52954038 47.44683187 -58 48 C-61.63311582 49.21103861 -64.27773234 50.27773234 -67 53 C-69.32275177 53.40047444 -71.65739357 53.7397104 -74 54 C-74 54.66 -74 55.32 -74 56 C-81.59528922 60.11350287 -87.39866893 61.74149406 -96 61 C-97.40765625 60.91492188 -97.40765625 60.91492188 -98.84375 60.828125 C-105.68284161 60.31715839 -105.68284161 60.31715839 -108 58 C-109.33076989 57.65657551 -110.66431979 57.32380126 -112 57 C-113.485 56.01 -113.485 56.01 -115 55 C-117.3078491 53.84607545 -119.47230331 53.46562834 -122 53 C-122 52.34 -122 51.68 -122 51 C-125.98060777 49.82923301 -129.91621717 48.74250597 -134 48 C-134 47.34 -134 46.68 -134 46 C-135.65 46 -137.3 46 -139 46 C-139 45.34 -139 44.68 -139 44 C-140.5778125 43.814375 -140.5778125 43.814375 -142.1875 43.625 C-145.45958771 43.08859218 -148.00536076 42.36119965 -151 41 C-151 40.34 -151 39.68 -151 39 C-152.5778125 38.814375 -152.5778125 38.814375 -154.1875 38.625 C-157.45958771 38.08859218 -160.00536076 37.36119965 -163 36 C-163 35.34 -163 34.68 -163 34 C-166.465 33.505 -166.465 33.505 -170 33 C-170 32.34 -170 31.68 -170 31 C-171.010625 30.9175 -172.02125 30.835 -173.0625 30.75 C-177.44536945 30.11751274 -180.35193734 28.50357241 -184 26 C-185.375 23.8125 -185.375 23.8125 -186 22 C-186.33 21.67 -186.66 21.34 -187 21 C-187.08669432 19.5112814 -187.10703494 18.018555 -187.09765625 16.52734375 C-187.09443359 15.62822266 -187.09121094 14.72910156 -187.08789062 13.80273438 C-187.07951172 12.85720703 -187.07113281 11.91167969 -187.0625 10.9375 C-187.05798828 9.98810547 -187.05347656 9.03871094 -187.04882812 8.06054688 C-187.0370011 5.70696935 -187.02052025 3.35351523 -187 1 C-186.01 1.495 -186.01 1.495 -185 2 C-185 2.66 -185 3.32 -185 4 C-184.26813477 4.28866943 -183.53626953 4.57733887 -182.78222656 4.87475586 C-180.32286965 5.86941855 -177.90316164 6.91524719 -175.484375 8.00390625 C-159.95012354 14.94273297 -144.27298687 21.50169343 -128.54394531 27.98461914 C-127.69662842 28.33404572 -126.84931152 28.68347229 -125.97631836 29.04348755 C-124.31259044 29.72933798 -122.64853395 30.41439197 -120.98413086 31.09860229 C-117.25304229 32.63653719 -113.53328551 34.19238027 -109.83886719 35.81665039 C-109.201884 36.09582809 -108.56490082 36.3750058 -107.90861511 36.66264343 C-106.2333815 37.40110805 -104.56194799 38.14817718 -102.89086914 38.89599609 C-95.84105516 41.58827367 -90.47149103 40.84671528 -83.63742065 37.80233765 C-82.65674118 37.35297348 -82.65674118 37.35297348 -81.65625 36.89453125 C-80.95871613 36.58206451 -80.26118225 36.26959778 -79.54251099 35.94766235 C-78.08209644 35.29336372 -76.62288835 34.63636606 -75.16485596 33.97677612 C-71.80423953 32.46047668 -68.42881746 30.97810202 -65.0546875 29.4921875 C-63.71131196 28.89853224 -62.36805166 28.30461613 -61.02490234 27.71044922 C-60.34788269 27.41104431 -59.67086304 27.1116394 -58.97332764 26.80316162 C-57.54719349 26.17233403 -56.12112995 25.5413468 -54.69512939 24.91021729 C-46.61641844 21.33591371 -38.52960809 17.78430767 -30.40625 14.3125 C-29.38170212 13.87346848 -29.38170212 13.87346848 -28.3364563 13.42556763 C-25.10891297 12.04258415 -21.87911337 10.66557667 -18.64404297 9.30029297 C-14.15673818 7.38038592 -4.45826391 0 0 0 Z " fill="#A41C10" transform="translate(221,102)"/>
<path d="M0 0 C0.08120751 2.89640118 0.14059421 5.79050912 0.1875 8.6875 C0.21263672 9.50412109 0.23777344 10.32074219 0.26367188 11.16210938 C0.32252747 16.00788638 0.05237635 19.01639019 -3 23 C-3.99 24.485 -3.99 24.485 -5 26 C-5.99 25.67 -6.98 25.34 -8 25 C-10.49878141 25.84581465 -12.83845637 26.76471728 -15.25 27.81640625 C-15.99233887 28.13138565 -16.73467773 28.44636505 -17.49951172 28.77088928 C-20.00407266 29.83727435 -22.50204091 30.91824858 -25 32 C-26.8097049 32.77632415 -28.61960582 33.55219149 -30.4296875 34.32763672 C-35.29299262 36.41616006 -40.14878268 38.52159052 -45.00195312 40.63354492 C-47.99476161 41.93522164 -50.9895001 43.23238285 -53.984375 44.52929688 C-55.94796165 45.382709 -57.91150379 46.23622355 -59.875 47.08984375 C-61.31081421 47.70984756 -61.31081421 47.70984756 -62.77563477 48.34237671 C-67.16060578 50.25120481 -71.48434301 52.20834439 -75.73046875 54.41064453 C-85.75528976 59.5889614 -94.00996988 62.44075178 -105.35351562 58.97558594 C-108.90078287 57.58311448 -112.31308819 56.02062706 -115.75 54.375 C-117.6885212 53.48400773 -119.63139202 52.60300071 -121.57463074 51.72235107 C-122.93159864 51.10681755 -124.28723037 50.48833046 -125.64155579 49.86700439 C-133.7238506 46.17140666 -141.95493989 42.8435031 -150.1875 39.5 C-152.97368756 38.36709494 -155.75892971 37.23192483 -158.54296875 36.09375 C-159.51449387 35.69743881 -159.51449387 35.69743881 -160.50564575 35.29312134 C-165.29455406 33.32575571 -169.99464322 31.2034362 -174.66137695 28.96289062 C-178.10765107 27.54394239 -180.77738498 26.50434526 -184.3125 27.9375 C-184.869375 28.288125 -185.42625 28.63875 -186 29 C-186.144375 28.05125 -186.28875 27.1025 -186.4375 26.125 C-186.82935399 23.1065506 -186.82935399 23.1065506 -188 21 C-188.08342159 19.55151418 -188.10732861 18.09929131 -188.09765625 16.6484375 C-188.09443359 15.79765625 -188.09121094 14.946875 -188.08789062 14.0703125 C-188.07951172 13.18085937 -188.07113281 12.29140625 -188.0625 11.375 C-188.05798828 10.4778125 -188.05347656 9.580625 -188.04882812 8.65625 C-188.03702591 6.43743352 -188.02056155 4.21874982 -188 2 C-187.43474609 2.36351562 -186.86949219 2.72703125 -186.28710938 3.1015625 C-179.29855623 7.45893377 -172.07246604 10.78803242 -164.5 14 C-163.2003726 14.55702733 -161.90089705 15.11440904 -160.6015625 15.67211914 C-149.04900139 20.61463671 -137.43158337 25.40408418 -125.79882812 30.15429688 C-125.12469376 30.42974838 -124.45055939 30.70519989 -123.7559967 30.98899841 C-122.43216201 31.52988103 -121.1081403 32.07030617 -119.78392029 32.61024475 C-116.51879122 33.9468045 -113.26780258 35.30895789 -110.03344727 36.71850586 C-109.39725464 36.99537735 -108.76106201 37.27224884 -108.10559082 37.55751038 C-106.36735095 38.31758209 -104.63193608 39.08410516 -102.89672852 39.85107422 C-95.62382152 42.73571816 -90.09069092 40.65567545 -83.0703125 37.78515625 C-77.11468381 35.20897967 -71.23715467 32.45570766 -65.35351562 29.72021484 C-59.01741359 26.79058814 -52.64873769 23.96536394 -46.2265625 21.23046875 C-45.46564301 20.9063501 -44.70472351 20.58223145 -43.92074585 20.24829102 C-40.16210351 18.65006965 -36.40008629 17.06025869 -32.63427734 15.47900391 C-24.40241138 12.00426292 -8.19749806 0 0 0 Z " fill="#A41E11" transform="translate(222,39)"/>
<path d="M0 0 C0.80050781 0.05800781 1.60101563 0.11601562 2.42578125 0.17578125 C3.23402344 0.22089844 4.04226562 0.26601562 4.875 0.3125 C5.48988281 0.37050781 6.10476562 0.42851562 6.73828125 0.48828125 C9.62427162 5.32789677 10.1702258 9.37730843 10.12646484 14.89282227 C10.1317218 15.71472046 10.13697876 16.53661865 10.14239502 17.38342285 C10.15554473 20.08654058 10.14687572 22.78906431 10.13671875 25.4921875 C10.13874074 27.37735608 10.14165322 29.26252391 10.14541626 31.14768982 C10.14983263 35.09259511 10.14342994 39.03729622 10.12939453 42.98217773 C10.11229132 48.03515885 10.12215538 53.0876623 10.14011192 58.14062595 C10.15095828 62.03113904 10.1474997 65.92153907 10.13972855 69.81205559 C10.13772951 71.67516067 10.1401754 73.53827606 10.14716721 75.40136909 C10.154797 78.00556725 10.14315682 80.60899398 10.12646484 83.21313477 C10.13253754 83.98054489 10.13861023 84.74795502 10.14486694 85.53862 C10.091924 90.00341205 9.56529852 92.968581 6.73828125 96.48828125 C4.4765625 96.9765625 4.4765625 96.9765625 2.05078125 96.80078125 C1.24253906 96.75566406 0.43429688 96.71054687 -0.3984375 96.6640625 C-1.01332031 96.60605469 -1.62820312 96.54804688 -2.26171875 96.48828125 C-2.92171875 94.50828125 -3.58171875 92.52828125 -4.26171875 90.48828125 C-4.81859375 91.12765625 -5.37546875 91.76703125 -5.94921875 92.42578125 C-11.55497339 97.42550836 -22.79084797 96.59519653 -30.02148438 96.61669922 C-34.87106923 96.33870427 -38.58458741 94.57515723 -42.26171875 91.48828125 C-44.51171875 88.73828125 -44.51171875 88.73828125 -46.26171875 85.48828125 C-47.2759719 84.02536384 -48.29735765 82.56737653 -49.32421875 81.11328125 C-55.64605793 71.43895159 -55.89131063 62.72825169 -56.26171875 51.48828125 C-55.60171875 51.48828125 -54.94171875 51.48828125 -54.26171875 51.48828125 C-53.98199219 50.84761719 -53.70226562 50.20695312 -53.4140625 49.546875 C-50.86070472 44.0378619 -48.27339048 39.99426037 -43.71484375 35.9609375 C-42.0005767 34.44024335 -42.0005767 34.44024335 -41.26171875 31.48828125 C-29.64858601 26.62277908 -17.8744475 27.6847588 -6.26171875 31.48828125 C-6.24713623 30.72684814 -6.23255371 29.96541504 -6.2175293 29.1809082 C-6.14291334 25.72036237 -6.04629616 22.2607668 -5.94921875 18.80078125 C-5.92666016 17.60259766 -5.90410156 16.40441406 -5.88085938 15.16992188 C-5.84541016 14.01298828 -5.80996094 12.85605469 -5.7734375 11.6640625 C-5.74725342 10.60098877 -5.72106934 9.53791504 -5.6940918 8.44262695 C-5.12305786 4.54083043 -4.15858157 0.89779395 0 0 Z M-28.26171875 45.48828125 C-28.88046875 45.77703125 -29.49921875 46.06578125 -30.13671875 46.36328125 C-33.64716085 48.2217506 -36.46583144 50.1997018 -38.57421875 53.61328125 C-39.92660281 59.26870549 -39.99835771 64.5239107 -37.94921875 69.98828125 C-36.34379354 72.70750656 -36.34379354 72.70750656 -33.26171875 74.48828125 C-32.60171875 75.14828125 -31.94171875 75.80828125 -31.26171875 76.48828125 C-29.93651372 77.17096263 -28.60359693 77.83898535 -27.26171875 78.48828125 C-26.93171875 78.81828125 -26.60171875 79.14828125 -26.26171875 79.48828125 C-20.93498839 79.82684953 -20.93498839 79.82684953 -16.26171875 77.48828125 C-15.64296875 77.22015625 -15.02421875 76.95203125 -14.38671875 76.67578125 C-10.4989991 74.50323203 -7.91029427 71.75595158 -5.88671875 67.80078125 C-5.03668611 63.29560824 -5.11875471 58.94507392 -6.26171875 54.48828125 C-8.33186333 51.85587518 -11.02689075 50.22768446 -13.82421875 48.42578125 C-16.23043196 46.87300327 -18.23296439 45.51703561 -20.26171875 43.48828125 C-23.99468201 43.10541322 -25.03798198 43.3391234 -28.26171875 45.48828125 Z M-31.26171875 94.48828125 C-27.26171875 95.48828125 -27.26171875 95.48828125 -27.26171875 95.48828125 Z " fill="#636466" transform="translate(160.26171875,159.51171875)"/>
<path d="M0 0 C0.96035156 -0.04576172 1.92070313 -0.09152344 2.91015625 -0.13867188 C10.21884157 -0.25271513 14.91622267 1.51734822 20.375 6.4375 C21.035 7.4275 21.695 8.4175 22.375 9.4375 C23.035 9.7675 23.695 10.0975 24.375 10.4375 C24.49875 11.0975 24.6225 11.7575 24.75 12.4375 C25.33087465 15.22569832 26.1418104 17.15014586 27.375 19.6875 C29.34531599 24.03378528 31.07933911 28.61277706 30.375 33.4375 C28.96777344 36.04077148 28.96777344 36.04077148 26.375 38.4375 C23.10861872 39.1447435 19.90662177 39.0191545 16.578125 38.92578125 C15.62935486 38.91870651 14.68058472 38.91163177 13.70306396 38.90434265 C10.67623657 38.87637994 7.65126709 38.81363758 4.625 38.75 C2.57164132 38.72491957 0.51825361 38.70210596 -1.53515625 38.68164062 C-6.56581874 38.62654694 -11.59509452 38.54026083 -16.625 38.4375 C-16.625 39.0975 -16.625 39.7575 -16.625 40.4375 C-3.425 40.4375 9.775 40.4375 23.375 40.4375 C23.375 40.7675 23.375 41.0975 23.375 41.4375 C10.505 41.4375 -2.365 41.4375 -15.625 41.4375 C-14.49016076 44.84201771 -14.07222063 45.0380564 -11.0625 46.625 C-9.928125 47.223125 -8.79375 47.82125 -7.625 48.4375 C-7.625 49.0975 -7.625 49.7575 -7.625 50.4375 C-4.325 50.7675 -1.025 51.0975 2.375 51.4375 C2.375 50.7775 2.375 50.1175 2.375 49.4375 C3.426875 49.169375 4.47875 48.90125 5.5625 48.625 C9.30740869 47.65145943 9.30740869 47.65145943 11.9375 45.75 C14.375 44.4375 14.375 44.4375 17.5 44.375 C20.375 45.4375 20.375 45.4375 22.3125 48.125 C23.50974719 51.85759419 23.50908237 53.71122935 22.375 57.4375 C21.0625 59.5625 21.0625 59.5625 19.375 61.4375 C18.818125 62.159375 18.26125 62.88125 17.6875 63.625 C15.01598212 65.71889239 12.92512006 66.02402996 9.5703125 66.26171875 C7.26948946 66.41006961 7.26948946 66.41006961 4.609375 66.93359375 C-4.0318528 68.27987199 -13.8629604 69.28256913 -21.2421875 63.921875 C-22.82488529 62.22293387 -23.6140292 60.51961844 -24.625 58.4375 C-25.55268241 57.3481358 -26.51282927 56.28576203 -27.5 55.25 C-33.5111096 48.41585339 -35.99860086 40.39893325 -35.5625 31.375 C-34.71404692 21.65635563 -30.28741089 13.45056409 -23.625 6.4375 C-22.985625 5.674375 -22.34625 4.91125 -21.6875 4.125 C-19.04440612 1.96246864 -16.97964512 1.79437714 -13.625 1.4375 C-9.13149228 -0.06033591 -4.70880449 0.0894858 0 0 Z M-6.625 14.4375 C-6.625 14.7675 -6.625 15.0975 -6.625 15.4375 C-3.655 15.4375 -0.685 15.4375 2.375 15.4375 C2.375 15.1075 2.375 14.7775 2.375 14.4375 C-0.595 14.4375 -3.565 14.4375 -6.625 14.4375 Z M-16.5 20.0625 C-16.87125 20.51625 -17.2425 20.97 -17.625 21.4375 C-17.295 22.4275 -16.965 23.4175 -16.625 24.4375 C-7.055 24.4375 2.515 24.4375 12.375 24.4375 C12.705 23.4475 13.035 22.4575 13.375 21.4375 C12.67375 21.169375 11.9725 20.90125 11.25 20.625 C8.375 19.4375 8.375 19.4375 5.75 17.8125 C-1.09609071 15.02335193 -10.67833349 15.01705569 -16.5 20.0625 Z M13.375 22.4375 C14.375 24.4375 14.375 24.4375 14.375 24.4375 Z M-18.625 23.4375 C-17.625 25.4375 -17.625 25.4375 -17.625 25.4375 Z M14.375 24.4375 C15.375 26.4375 15.375 26.4375 15.375 26.4375 Z M-17.625 25.4375 C-17.625 25.7675 -17.625 26.0975 -17.625 26.4375 C-7.395 26.4375 2.835 26.4375 13.375 26.4375 C13.375 26.1075 13.375 25.7775 13.375 25.4375 C3.145 25.4375 -7.085 25.4375 -17.625 25.4375 Z M-18.625 38.4375 C-17.625 41.4375 -17.625 41.4375 -17.625 41.4375 Z M-17.625 41.4375 C-16.625 43.4375 -16.625 43.4375 -16.625 43.4375 Z " fill="#636466" transform="translate(73.625,187.5625)"/>
<path d="M0 0 C6.26889074 -0.11978772 11.73953783 -0.13382727 17.6171875 2.1171875 C18.9784375 2.58125 18.9784375 2.58125 20.3671875 3.0546875 C23.70154412 4.62924479 25.12132268 6.19983758 26.8671875 9.4296875 C27.99798017 13.48169456 27.23804404 16.58574136 25.6796875 20.4296875 C24.6171875 22.1171875 24.6171875 22.1171875 22.6171875 23.1171875 C16.42851336 24.04548862 11.85571767 21.0159789 6.6171875 18.1171875 C6.6171875 17.4571875 6.6171875 16.7971875 6.6171875 16.1171875 C4.6371875 16.1171875 2.6571875 16.1171875 0.6171875 16.1171875 C0.6171875 16.7771875 0.6171875 17.4371875 0.6171875 18.1171875 C-0.3728125 18.4471875 -1.3628125 18.7771875 -2.3828125 19.1171875 C-2.7128125 19.7771875 -3.0428125 20.4371875 -3.3828125 21.1171875 C-2.3928125 21.4471875 -1.4028125 21.7771875 -0.3828125 22.1171875 C0.20757812 22.42527344 0.79796875 22.73335937 1.40625 23.05078125 C4.19726353 24.39697682 7.03010435 25.27172961 9.9921875 26.1796875 C11.09304687 26.52128906 12.19390625 26.86289063 13.328125 27.21484375 C16.59299545 28.18193656 16.59299545 28.18193656 19.9296875 28.60546875 C22.6171875 29.1171875 22.6171875 29.1171875 24.2421875 31.2421875 C24.6959375 32.1909375 25.1496875 33.1396875 25.6171875 34.1171875 C26.3390625 35.1690625 27.0609375 36.2209375 27.8046875 37.3046875 C30.30911736 41.76995005 30.54004134 46.12752014 29.6171875 51.1171875 C28.27353417 54.06091655 26.52397512 56.51702256 24.6171875 59.1171875 C24.1428125 60.0865625 23.6684375 61.0559375 23.1796875 62.0546875 C21.6171875 64.1171875 21.6171875 64.1171875 18.4296875 64.9296875 C17.5015625 64.9915625 16.5734375 65.0534375 15.6171875 65.1171875 C15.6171875 65.7771875 15.6171875 66.4371875 15.6171875 67.1171875 C6.21621323 68.80792394 -3.37846805 67.18249625 -12.3828125 64.1171875 C-13.2696875 63.8284375 -14.1565625 63.5396875 -15.0703125 63.2421875 C-17.7953939 61.91647222 -19.42746904 60.42169944 -21.3828125 58.1171875 C-22.57105047 54.55247359 -22.64556102 51.8613539 -22.3828125 48.1171875 C-20.9453125 45.8046875 -20.9453125 45.8046875 -19.3828125 44.1171875 C-19.0528125 43.4571875 -18.7228125 42.7971875 -18.3828125 42.1171875 C-13.11909888 41.61588144 -10.4737191 42.80550121 -6.3828125 46.1171875 C-6.3828125 46.7771875 -6.3828125 47.4371875 -6.3828125 48.1171875 C-4.7328125 48.1171875 -3.0828125 48.1171875 -1.3828125 48.1171875 C-1.3828125 48.7771875 -1.3828125 49.4371875 -1.3828125 50.1171875 C1.9171875 50.1171875 5.2171875 50.1171875 8.6171875 50.1171875 C8.6171875 49.4571875 8.6171875 48.7971875 8.6171875 48.1171875 C10.5971875 47.6221875 10.5971875 47.6221875 12.6171875 47.1171875 C8.10191657 42.38690367 3.57756689 40.11103284 -2.8203125 39.1171875 C-8.78075756 38.18871762 -13.57262215 37.03356214 -17.3828125 32.1171875 C-20.76840459 25.75227437 -21.99813635 21.15538426 -20.3828125 14.1171875 C-20.23199219 13.45203125 -20.08117187 12.786875 -19.92578125 12.1015625 C-19.4453125 10.1796875 -19.4453125 10.1796875 -18.3828125 7.1171875 C-17.7228125 6.7871875 -17.0628125 6.4571875 -16.3828125 6.1171875 C-15.6815625 5.2921875 -14.9803125 4.4671875 -14.2578125 3.6171875 C-9.79050047 -0.26743166 -5.63519735 0.19521469 0 0 Z M17.6171875 21.1171875 C17.6171875 21.4471875 17.6171875 21.7771875 17.6171875 22.1171875 C19.2671875 22.1171875 20.9171875 22.1171875 22.6171875 22.1171875 C22.6171875 21.7871875 22.6171875 21.4571875 22.6171875 21.1171875 C20.9671875 21.1171875 19.3171875 21.1171875 17.6171875 21.1171875 Z M-17.3828125 43.1171875 C-17.3828125 43.4471875 -17.3828125 43.7771875 -17.3828125 44.1171875 C-15.7328125 44.1171875 -14.0828125 44.1171875 -12.3828125 44.1171875 C-12.3828125 43.7871875 -12.3828125 43.4571875 -12.3828125 43.1171875 C-14.0328125 43.1171875 -15.6828125 43.1171875 -17.3828125 43.1171875 Z M13.6171875 44.1171875 C14.6171875 47.1171875 14.6171875 47.1171875 14.6171875 47.1171875 Z " fill="#636466" transform="translate(224.3828125,187.8828125)"/>
<path d="M0 0 C0.99 3.465 0.99 3.465 2 7 C-5.6414109 12.74393251 -14.09580189 16.37529413 -22.8125 20.125 C-24.32444973 20.78321852 -25.83608298 21.44216441 -27.34741211 22.10180664 C-34.50488069 25.21963091 -41.68022654 28.29576716 -48.859375 31.36328125 C-50.06924072 31.88035645 -51.27910645 32.39743164 -52.52563477 32.93017578 C-54.86287434 33.9262493 -57.20188013 34.91818973 -59.54272461 35.90576172 C-64.44149215 37.98372327 -69.28432778 40.08882558 -74.01953125 42.51953125 C-75.14379517 43.09006226 -75.14379517 43.09006226 -76.29077148 43.67211914 C-77.59163299 44.34487345 -78.88150618 45.03987931 -80.15258789 45.76733398 C-86.89032929 49.25822084 -94.88885135 49.46199431 -102.11309814 47.39556885 C-107.76542328 45.42630541 -113.18440084 42.92025914 -118.625 40.4375 C-120.37062123 39.66288763 -122.11747093 38.89103831 -123.86547852 38.12182617 C-126.5564722 36.93718416 -129.24646223 35.75068932 -131.93232727 34.55445862 C-138.01542362 31.84848987 -144.13592025 29.25594947 -150.30078125 26.7421875 C-151.11959778 26.40737869 -151.93841431 26.07256989 -152.78204346 25.72761536 C-155.92541407 24.44386563 -159.06937436 23.16185178 -162.21929932 21.89425659 C-170.32205984 18.6274962 -177.99885772 15.35037738 -185 10 C-184.2734375 5.234375 -184.2734375 5.234375 -181.8125 3.125 C-177.55307571 1.42123028 -174.3162768 2.50689563 -170.10449219 4.0847168 C-169.09547852 4.53500244 -168.08646484 4.98528809 -167.046875 5.44921875 C-165.88631592 5.96105713 -164.72575684 6.47289551 -163.5300293 7.00024414 C-162.91509613 7.27482452 -162.30016296 7.54940491 -161.66659546 7.83230591 C-158.3484745 9.3128674 -155.02007791 10.7699098 -151.69140625 12.2265625 C-150.99259842 12.53269974 -150.29379059 12.83883698 -149.57380676 13.1542511 C-139.90343109 17.37386841 -130.1283506 21.34201859 -120.36035156 25.32885742 C-119.67401642 25.60936447 -118.98768127 25.88987152 -118.2805481 26.17887878 C-116.9540016 26.7209936 -115.62708748 27.26220984 -114.29977417 27.80244446 C-110.79455812 29.23609087 -107.34159402 30.74636645 -103.91015625 32.34765625 C-97.36328845 35.27373837 -90.67134336 35.66826009 -83.87939453 33.24267578 C-79.63386791 31.41088751 -75.54109962 29.29158067 -71.42578125 27.1875 C-63.61586909 23.22392231 -55.56115891 19.85032827 -47.5 16.4375 C-45.21660073 15.46972933 -42.93323335 14.50188368 -40.64994812 13.53384399 C-39.16846112 12.90576574 -37.68678408 12.27813555 -36.20491028 11.65097046 C-31.91283956 9.82967904 -27.64693631 7.96052753 -23.3984375 6.0390625 C-21.97047852 5.40013062 -21.97047852 5.40013062 -20.51367188 4.74829102 C-18.829215 3.99131405 -17.15014561 3.22215221 -15.47851562 2.43725586 C-10.08275016 0.03449087 -5.90497929 -0.33325131 0 0 Z " fill="#D72B1F" transform="translate(220,64)"/>
<path d="M0 0 C2.8125 1.8125 2.8125 1.8125 5 4 C5 4.99 5 5.98 5 7 C-7.02434826 14.50432365 -19.83068068 19.84951997 -32.875 25.3125 C-37.06198731 27.07450218 -41.24661159 28.84201425 -45.4296875 30.61328125 C-46.45688904 31.04754425 -47.48409058 31.48180725 -48.54241943 31.92922974 C-57.26432383 35.63837187 -65.88544483 39.55199971 -74.48092651 43.54450989 C-75.42453033 43.98252426 -76.36813416 44.42053864 -77.34033203 44.87182617 C-78.17017609 45.25940598 -79.00002014 45.64698578 -79.85501099 46.04631042 C-86.63103981 49.05901958 -93.94857718 49.04197049 -100.88769531 46.4621582 C-102.54317664 45.76185431 -104.18983495 45.04040932 -105.828125 44.30078125 C-107.17831726 43.72055962 -107.17831726 43.72055962 -108.55578613 43.12861633 C-111.46221101 41.87490145 -114.35579718 40.59414325 -117.25 39.3125 C-119.25988095 38.43925856 -121.27063178 37.56801665 -123.28222656 36.69873047 C-127.30231086 34.95985656 -131.31838803 33.21218092 -135.33203125 31.45849609 C-140.37769731 29.26085042 -145.44513136 27.12164932 -150.53125 25.01953125 C-151.60303497 24.57589989 -151.60303497 24.57589989 -152.69647217 24.12330627 C-155.34359478 23.02887413 -157.99132914 21.93600512 -160.64172363 20.84951782 C-179.7408332 13.0067666 -179.7408332 13.0067666 -182.26074219 8.99072266 C-183.15530906 6.58177341 -182.85094186 5.38263722 -182 3 C-175.32572186 1.28145289 -171.0822338 3.11223063 -164.90625 5.8203125 C-163.9338739 6.23100983 -162.9614978 6.64170715 -161.95965576 7.06484985 C-159.87833837 7.94654918 -157.80026768 8.83594509 -155.72521973 9.7322998 C-152.48325491 11.13223079 -149.23286172 12.51059231 -145.97949219 13.88378906 C-137.15477321 17.6165824 -128.35027244 21.39423405 -119.5793457 25.25180054 C-116.77572517 26.482836 -113.96621472 27.70004874 -111.15600586 28.91595459 C-109.31045639 29.723545 -107.47625794 30.55692299 -105.64257812 31.39111328 C-96.95278953 35.16933687 -89.71790512 36.95373162 -80.53173828 33.81494141 C-77.28694187 32.48843385 -74.1344087 30.99120754 -70.98907471 29.44549561 C-68.15720144 28.05411766 -65.30214548 26.71373415 -62.44720459 25.3704834 C-60.94498265 24.66363728 -59.44389335 23.95437934 -57.94390869 23.24279785 C-49.4372874 19.22140349 -40.78803823 15.5439109 -32.125 11.875 C-29.9582887 10.9558875 -27.79179232 10.03627862 -25.6257782 9.11552429 C-24.27472925 8.5414837 -22.92311099 7.96878086 -21.57087708 7.39753723 C-16.75418353 5.3534659 -12.02261754 3.1611336 -7.32763672 0.85205078 C-4.6835056 -0.11585541 -2.79525442 -0.28555837 0 0 Z " fill="#D72B1F" transform="translate(217,95)"/>
<path d="M0 0 C1.9375 2.5 1.9375 2.5 3 5 C3.66 4.690625 4.32 4.38125 5 4.0625 C12.22138505 1.50492613 20.41233602 1.59436701 28 1 C30.22334299 6.17303709 30.81285249 10.24880696 29.1875 15.75 C26.12330535 18.90174307 22.92161622 19.34023279 18.69140625 20.2265625 C15.83816588 21.04650676 14.23836598 22.08560804 12 24 C11.319375 24.5775 10.63875 25.155 9.9375 25.75 C3.10335519 33.68642623 4.54119377 43.62177014 4.47265625 53.50585938 C4.45074219 54.76333984 4.42882813 56.02082031 4.40625 57.31640625 C4.39916016 58.45537354 4.39207031 59.59434082 4.38476562 60.76782227 C3.95326603 64.39258318 2.79937166 66.84901424 1 70 C-0.44010481 69.74337755 -1.8770687 69.46909179 -3.3125 69.1875 C-4.51326172 68.96126953 -4.51326172 68.96126953 -5.73828125 68.73046875 C-8.38428111 67.87588848 -9.3171056 67.20321379 -11 65 C-11.3742218 62.43301392 -11.3742218 62.43301392 -11.37231445 59.32275391 C-11.37854324 58.15789459 -11.38477203 56.99303528 -11.39118958 55.7928772 C-11.38197983 54.53349335 -11.37277008 53.2741095 -11.36328125 51.9765625 C-11.36377975 50.68309906 -11.36427826 49.38963562 -11.36479187 48.05697632 C-11.36470217 45.31813913 -11.35427985 42.57959639 -11.33618164 39.84082031 C-11.31353915 36.3381388 -11.31294237 32.83588916 -11.31969929 29.33315468 C-11.32385512 25.98507518 -11.3118567 22.63712717 -11.30078125 19.2890625 C-11.30169266 18.03372711 -11.30260406 16.77839172 -11.30354309 15.48501587 C-11.29401108 14.31385223 -11.28447906 13.1426886 -11.2746582 11.93603516 C-11.27005081 10.90805817 -11.26544342 9.88008118 -11.26069641 8.82095337 C-10.98484947 5.83605862 -10.34974467 3.67004159 -9 1 C-5.88122044 -0.55938978 -3.42744229 -0.3607834 0 0 Z M-7 1 C-7 1.33 -7 1.66 -7 2 C-5.02 2 -3.04 2 -1 2 C-1 1.67 -1 1.34 -1 1 C-2.98 1 -4.96 1 -7 1 Z M19 17 C19 17.33 19 17.66 19 18 C20.98 18 22.96 18 25 18 C25 17.67 25 17.34 25 17 C23.02 17 21.04 17 19 17 Z " fill="#636466" transform="translate(13,186)"/>
<path d="M0 0 C6.44332724 -0.36471664 6.44332724 -0.36471664 8.8125 1.1875 C11.43499662 5.190258 12.25248175 8.79171315 12.29052734 13.53710938 C12.3096669 15.16404724 12.3096669 15.16404724 12.32919312 16.82385254 C12.33141876 17.9854187 12.33364441 19.14698486 12.3359375 20.34375 C12.3425943 21.54559937 12.3492511 22.74744873 12.35610962 23.98571777 C12.36622464 26.52415437 12.370927 29.06261749 12.37060547 31.60107422 C12.37498399 35.48579549 12.41133299 39.3693855 12.44921875 43.25390625 C12.45508599 45.72135028 12.459056 48.18879971 12.4609375 50.65625 C12.47530853 51.81781616 12.48967957 52.97938232 12.50448608 54.17614746 C12.45887367 62.21617517 12.45887367 62.21617517 10.11865234 66.21362305 C7.76686406 68.19657244 6.26751107 68.82437321 3.25 69.3125 C2.45078125 69.45300781 1.6515625 69.59351563 0.828125 69.73828125 C0.22484375 69.82464844 -0.3784375 69.91101563 -1 70 C-3.0779329 65.8441342 -4.12875028 63.32964512 -4.16113281 58.61987305 C-4.17074036 57.49497971 -4.1803479 56.37008636 -4.19024658 55.21110535 C-4.1966214 53.37990898 -4.1966214 53.37990898 -4.203125 51.51171875 C-4.20882507 50.26123245 -4.21452515 49.01074615 -4.22039795 47.72236633 C-4.22985909 45.07179116 -4.23675003 42.42132952 -4.24023438 39.77075195 C-4.24571152 36.3812128 -4.26972237 32.9920769 -4.29820633 29.60266399 C-4.32136206 26.36404621 -4.32328471 23.12540772 -4.328125 19.88671875 C-4.3404718 18.67199387 -4.3528186 17.45726898 -4.36553955 16.20573425 C-4.36253845 15.07138443 -4.35953735 13.93703461 -4.35644531 12.76831055 C-4.36009094 11.77284714 -4.36373657 10.77738373 -4.36749268 9.75175476 C-3.93705753 6.52869198 -2.8145351 4.66778364 -1 2 C-0.67 1.34 -0.34 0.68 0 0 Z M1 1 C1 1.33 1 1.66 1 2 C2.98 2 4.96 2 7 2 C7 1.67 7 1.34 7 1 C5.02 1 3.04 1 1 1 Z " fill="#636466" transform="translate(184,186)"/>
<path d="M0 0 C0.66 0.66 1.32 1.32 2 2 C1.875 4.4375 1.875 4.4375 1 7 C-6.28939268 13.44706286 -16.82300726 13.67053138 -26.10546875 13.359375 C-32.11538203 12.80479925 -38.05684759 11.43659676 -42.79296875 7.515625 C-44 6 -44 6 -44 3.5625 C-42.61348311 0.00955048 -41.29781021 -1.04823477 -38 -3 C-26.61583115 -6.81628387 -10.08793442 -7.33667958 0 0 Z " fill="#FDF8F8" transform="translate(111,36)"/>
<path d="M0 0 C0.97324219 0.40605469 1.94648438 0.81210937 2.94921875 1.23046875 C3.94824219 1.65972656 4.94726562 2.08898438 5.9765625 2.53125 C6.99878906 2.96050781 8.02101562 3.38976563 9.07421875 3.83203125 C11.5874976 4.88901768 14.09621795 5.95562377 16.6015625 7.03125 C14.42581664 9.20699586 12.91018977 9.83888553 10.06640625 10.94140625 C9.17501953 11.29138672 8.28363281 11.64136719 7.36523438 12.00195312 C6.43259766 12.36224609 5.49996094 12.72253906 4.5390625 13.09375 C2.69313001 13.81154206 0.84802995 14.5314798 -0.99609375 15.25390625 C-1.81601807 15.57109619 -2.63594238 15.88828613 -3.48071289 16.21508789 C-5.36969312 16.87792842 -5.36969312 16.87792842 -6.3984375 18.03125 C-13.00037755 18.72901602 -18.19713602 16.56840814 -24.2734375 14.15625 C-25.23507813 13.79144531 -26.19671875 13.42664062 -27.1875 13.05078125 C-34.26274923 10.30262653 -34.26274923 10.30262653 -35.3984375 8.03125 C-31.53086115 6.34696843 -27.65329797 4.68701514 -23.7734375 3.03125 C-22.67902344 2.55429687 -21.58460938 2.07734375 -20.45703125 1.5859375 C-19.39355469 1.13476562 -18.33007812 0.68359375 -17.234375 0.21875 C-16.26032715 -0.20019531 -15.2862793 -0.61914062 -14.28271484 -1.05078125 C-8.97516806 -2.7399954 -5.05522974 -2.14103848 0 0 Z " fill="#AE2115" transform="translate(179.3984375,30.96875)"/>
<path d="M0 0 C0 4.01147876 -1.55660911 5.64918337 -3.8125 8.9375 C-4.87404297 10.49791016 -4.87404297 10.49791016 -5.95703125 12.08984375 C-7.59846895 14.42802939 -9.26611842 16.73009193 -11 19 C-17.46930452 16.94611301 -23.74422678 14.56765738 -30 11.9375 C-30.85722656 11.58623047 -31.71445313 11.23496094 -32.59765625 10.87304688 C-33.41105469 10.53208984 -34.22445312 10.19113281 -35.0625 9.83984375 C-35.79597656 9.53425537 -36.52945313 9.22866699 -37.28515625 8.91381836 C-39 8 -39 8 -40 6 C-35.75039075 5.30331128 -31.50029776 4.60967125 -27.24975586 3.91870117 C-25.80756607 3.68383624 -24.36550534 3.44817728 -22.92358398 3.21166992 C-15.29837776 1.96150613 -7.6946319 0.7479698 0 0 Z " fill="#FDF6F6" transform="translate(143,49)"/>
<path d="M0 0 C0.556875 0.22816406 1.11375 0.45632813 1.6875 0.69140625 C7.41197369 2.8477536 11.00723938 3.15988915 17 2 C18.33225336 1.80497432 19.66557038 1.6170317 21 1.4375 C22.485 1.2209375 22.485 1.2209375 24 1 C23.01 3.64 22.02 6.28 21 9 C26.445 10.485 26.445 10.485 32 12 C32 12.33 32 12.66 32 13 C26.91902274 14.04225175 22.16309352 14.07822869 17 14 C16.01 16.97 15.02 19.94 14 23 C11.25722422 19.80009492 9.3697164 16.99500618 8 13 C7.35933594 13.01160156 6.71867187 13.02320313 6.05859375 13.03515625 C0.91346778 13.08883119 -3.93024924 12.88169578 -9 12 C-6.84733158 9.84733158 -5.15226256 9.06525538 -2.375 7.875 C-1.55773437 7.52179687 -0.74046875 7.16859375 0.1015625 6.8046875 C0.72804688 6.53914063 1.35453125 6.27359375 2 6 C1.34 4.02 0.68 2.04 0 0 Z " fill="#FDF6F6" transform="translate(119,13)"/>
<path d="M0 0 C0 0.66 0 1.32 0 2 C1.65002828 3.35386936 3.3174387 4.68678142 5 6 C6.7440818 9.4881636 5.71531514 13.26876159 5 17 C3.8125 20 3.8125 20 2 22 C-1.1875 22.8125 -1.1875 22.8125 -4 23 C-4 22.34 -4 21.68 -4 21 C-5.65 20.67 -7.3 20.34 -9 20 C-10.49931351 14.71042194 -10.65560541 9.3702657 -9.1875 4.0625 C-6.86626327 0.03087831 -4.29948592 -0.23240464 0 0 Z " fill="#626365" transform="translate(190,159)"/>
<path d="M0 0 C3.68655088 0.73731018 6.46197446 1.46518962 9.86328125 2.84765625 C11.19262695 3.38422852 11.19262695 3.38422852 12.54882812 3.93164062 C13.46083984 4.30482422 14.37285156 4.67800781 15.3125 5.0625 C16.24384766 5.43955078 17.17519531 5.81660156 18.13476562 6.20507812 C20.42478917 7.13283125 22.71309996 8.06458001 25 9 C22.84842642 11.15157358 21.33360159 11.82124844 18.53515625 12.9453125 C17.21161133 13.47705078 17.21161133 13.47705078 15.86132812 14.01953125 C14.93771484 14.38433594 14.01410156 14.74914063 13.0625 15.125 C11.68288086 15.68380859 11.68288086 15.68380859 10.27539062 16.25390625 C8.94991211 16.78177734 8.94991211 16.78177734 7.59765625 17.3203125 C6.78820557 17.64273926 5.97875488 17.96516602 5.14477539 18.29736328 C3 19 3 19 0 19 C0 12.73 0 6.46 0 0 Z " fill="#7C0C01" transform="translate(171,29)"/>
<path d="M0 0 C14.52 0 29.04 0 44 0 C40.06695528 2.62202981 36.73374931 2.25148527 32.17578125 2.1953125 C31.31438034 2.1924826 30.45297943 2.18965271 29.56547546 2.18673706 C26.81434231 2.17554237 24.06353475 2.15043921 21.3125 2.125 C19.44727033 2.11496927 17.58203555 2.10584359 15.71679688 2.09765625 C11.1444058 2.07560538 6.57225811 2.04108049 2 2 C2 2.66 2 3.32 2 4 C15.2 4 28.4 4 42 4 C42 4.33 42 4.66 42 5 C29.13 5 16.26 5 3 5 C2.67 5.66 2.34 6.32 2 7 C1.34 4.69 0.68 2.38 0 0 Z " fill="#444546" transform="translate(55,224)"/>
<path d="M0 0 C0.33 0 0.66 0 1 0 C1 24.42 1 48.84 1 74 C0.67 74 0.34 74 0 74 C0 49.58 0 25.16 0 0 Z " fill="#555559" transform="translate(171,166)"/>
<path d="M0 0 C0.33 0 0.66 0 1 0 C1 18.81 1 37.62 1 57 C0.67 57 0.34 57 0 57 C0 38.19 0 19.38 0 0 Z " fill="#7A7A7B" transform="translate(178,193)"/>
<path d="M0 0 C0.33 0 0.66 0 1 0 C1 18.15 1 36.3 1 55 C0.67 55 0.34 55 0 55 C0 36.85 0 18.7 0 0 Z " fill="#000000" transform="translate(197,194)"/>
<path d="M0 0 C0.33 0 0.66 0 1 0 C1 9.57 1 19.14 1 29 C0.67 29 0.34 29 0 29 C0 19.43 0 9.86 0 0 Z " fill="#767979" transform="translate(18,221)"/>
<path d="M0 0 C0.33 0 0.66 0 1 0 C1.33 7.59 1.66 15.18 2 23 C0.68 22.34 -0.64 21.68 -2 21 C-1.34 21 -0.68 21 0 21 C0 14.07 0 7.14 0 0 Z " fill="#131313" transform="translate(152,168)"/>
<path d="M0 0 C0.67675781 -0.00773438 1.35351562 -0.01546875 2.05078125 -0.0234375 C5.74919257 -0.00884811 7.34603337 0.14735558 10.5 2.25 C3.57 2.25 -3.36 2.25 -10.5 2.25 C-6.87653931 -0.16564046 -4.18396018 -0.04781669 0 0 Z " fill="#556060" transform="translate(137.5,185.75)"/>
<path d="M0 0 C0.33 0 0.66 0 1 0 C1 6.93 1 13.86 1 21 C0.67 21 0.34 21 0 21 C0 14.07 0 7.14 0 0 Z " fill="#FF0000" transform="translate(32,102)"/>
<path d="M0 0 C0.33 0 0.66 0 1 0 C1 6.93 1 13.86 1 21 C0.67 21 0.34 21 0 21 C0 14.07 0 7.14 0 0 Z " fill="#120000" transform="translate(223,68)"/>
<path d="M0 0 C0.33 0 0.66 0 1 0 C1 6.6 1 13.2 1 20 C0.67 20 0.34 20 0 20 C0 13.4 0 6.8 0 0 Z " fill="#260000" transform="translate(223,99)"/>
<path d="M0 0 C0.33 0 0.66 0 1 0 C1 6.6 1 13.2 1 20 C0.67 20 0.34 20 0 20 C0 13.4 0 6.8 0 0 Z " fill="#E90000" transform="translate(32,72)"/>
<path d="M0 0 C0.33 0 0.66 0 1 0 C1 6.6 1 13.2 1 20 C0.67 20 0.34 20 0 20 C0 13.4 0 6.8 0 0 Z " fill="#FF0000" transform="translate(32,40)"/>
<path d="M0 0 C0.33 0 0.66 0 1 0 C1 6.6 1 13.2 1 20 C0.67 20 0.34 20 0 20 C0 13.4 0 6.8 0 0 Z " fill="#F80000" transform="translate(223,37)"/>
<path d="M0 0 C1.43836751 0.11458693 2.87570966 0.24209116 4.3125 0.375 C5.51326172 0.47941406 5.51326172 0.47941406 6.73828125 0.5859375 C9 1 9 1 12 3 C3.96428571 2.19642857 3.96428571 2.19642857 0 0 Z " fill="#6B6B6B" transform="translate(224,210)"/>
<path d="M0 0 C4.62 0 9.24 0 14 0 C14 0.33 14 0.66 14 1 C9.38 1 4.76 1 0 1 C0 0.67 0 0.34 0 0 Z " fill="#5A5A5A" transform="translate(221,186)"/>
<path d="M0 0 C3.63 0 7.26 0 11 0 C11 0.33 11 0.66 11 1 C7.37 1 3.74 1 0 1 C0 0.67 0 0.34 0 0 Z " fill="#E12805" transform="translate(126,0)"/>
<path d="M0 0 C3.3 0 6.6 0 10 0 C10 0.33 10 0.66 10 1 C6.7 1 3.4 1 0 1 C0 0.67 0 0.34 0 0 Z " fill="#7C7C7C" transform="translate(223,237)"/>
<path d="M0 0 C0.33 0 0.66 0 1 0 C1 3.3 1 6.6 1 10 C0.67 10 0.34 10 0 10 C0 6.7 0 3.4 0 0 Z " fill="#56565D" transform="translate(255,229)"/>
<path d="M0 0 C3.375 -0.125 3.375 -0.125 7 0 C7.66 0.66 8.32 1.32 9 2 C6.03 1.67 3.06 1.34 0 1 C0 0.67 0 0.34 0 0 Z " fill="#747474" transform="translate(73,186)"/>
<path d="M0 0 C3.3 0 6.6 0 10 0 C10 0.33 10 0.66 10 1 C6.7 1 3.4 1 0 1 C0 0.67 0 0.34 0 0 Z " fill="#5E5E64" transform="translate(29,186)"/>
<path d="M0 0 C2.97 0.33 5.94 0.66 9 1 C9 1.33 9 1.66 9 2 C6.03 1.67 3.06 1.34 0 1 C0 0.67 0 0.34 0 0 Z " fill="#320C00" transform="translate(120,163)"/>
<path d="M0 0 C1.65 1.65 3.3 3.3 5 5 C3.0625 4.1875 3.0625 4.1875 1 3 C0.67 2.01 0.34 1.02 0 0 Z " fill="#3F3F3F" transform="translate(46,244)"/>
<path d="M0 0 C0.33 0 0.66 0 1 0 C1 2.97 1 5.94 1 9 C0.67 9 0.34 9 0 9 C0 6.03 0 3.06 0 0 Z " fill="#484850" transform="translate(122,217)"/>
<path d="M0 0 C0.66 0.99 1.32 1.98 2 3 C1.01 3.99 0.02 4.98 -1 6 C-1 3 -1 3 0 0 Z " fill="#575E5E" transform="translate(44,196)"/>
<path d="M0 0 C0.33 0 0.66 0 1 0 C1 2.97 1 5.94 1 9 C0.67 9 0.34 9 0 9 C0 6.03 0 3.06 0 0 Z " fill="#4F4F57" transform="translate(178,166)"/>
<path d="M0 0 C0.33 0 0.66 0 1 0 C1 2.31 1 4.62 1 7 C0.67 7 0.34 7 0 7 C0 4.69 0 2.38 0 0 Z " fill="#666666" transform="translate(200,236)"/>
<path d="M0 0 C2.31 0 4.62 0 7 0 C7 0.33 7 0.66 7 1 C4.69 1 2.38 1 0 1 C0 0.67 0 0.34 0 0 Z " fill="#5F5F5F" transform="translate(134,237)"/>
<path d="M0 0 C0.33 0 0.66 0 1 0 C1 2.31 1 4.62 1 7 C0.67 7 0.34 7 0 7 C0 4.69 0 2.38 0 0 Z " fill="#000000" transform="translate(36,218)"/>
<path d="M0 0 C0.33 0 0.66 0 1 0 C1 2.31 1 4.62 1 7 C0.67 7 0.34 7 0 7 C0 4.69 0 2.38 0 0 Z " fill="#000000" transform="translate(197,167)"/>
<path d="M0 0 C1.98 0 3.96 0 6 0 C6 0.33 6 0.66 6 1 C4.02 1 2.04 1 0 1 C0 0.67 0 0.34 0 0 Z " fill="#82628D" transform="translate(70,238)"/>
<path d="M0 0 C0.33 0 0.66 0 1 0 C1 1.65 1 3.3 1 5 C0.34 3.68 -0.32 2.36 -1 1 C-0.67 0.67 -0.34 0.34 0 0 Z " fill="#5E3434" transform="translate(103,223)"/>
<path d="M0 0 C1.98 0 3.96 0 6 0 C6 0.33 6 0.66 6 1 C4.02 1 2.04 1 0 1 C0 0.67 0 0.34 0 0 Z " fill="#686868" transform="translate(225,204)"/>
<path d="M0 0 C1.98 0 3.96 0 6 0 C6 0.33 6 0.66 6 1 C4.02 1 2.04 1 0 1 C0 0.67 0 0.34 0 0 Z " fill="#5E5E5E" transform="translate(63,186)"/>
<path d="M0 0 C1.65 0 3.3 0 5 0 C5 0.33 5 0.66 5 1 C3.35 1 1.7 1 0 1 C0 0.67 0 0.34 0 0 Z " fill="#606060" transform="translate(76,255)"/>
<path d="M0 0 C1.65 0 3.3 0 5 0 C5 0.33 5 0.66 5 1 C3.35 1 1.7 1 0 1 C0 0.67 0 0.34 0 0 Z " fill="#4C4C4C" transform="translate(62,255)"/>
<path d="M0 0 C0.33 0 0.66 0 1 0 C1 1.65 1 3.3 1 5 C0.67 5 0.34 5 0 5 C0 3.35 0 1.7 0 0 Z " fill="#000000" transform="translate(172,243)"/>
<path d="M0 0 C0.33 0 0.66 0 1 0 C1 1.65 1 3.3 1 5 C0.67 5 0.34 5 0 5 C0 3.35 0 1.7 0 0 Z " fill="#434343" transform="translate(37,225)"/>
<path d="M0 0 C0.33 0 0.66 0 1 0 C1 1.65 1 3.3 1 5 C0.67 5 0.34 5 0 5 C0 3.35 0 1.7 0 0 Z " fill="#767676" transform="translate(37,212)"/>
<path d="M0 0 C0.33 0 0.66 0 1 0 C1 1.65 1 3.3 1 5 C0.67 5 0.34 5 0 5 C0 3.35 0 1.7 0 0 Z " fill="#000000" transform="translate(201,205)"/>
<path d="M0 0 C0.66 0.33 1.32 0.66 2 1 C1.01 1.66 0.02 2.32 -1 3 C-0.67 2.01 -0.34 1.02 0 0 Z " fill="#3B2E4C" transform="translate(115,194)"/>
<path d="M0 0 C1.65 0 3.3 0 5 0 C5 0.33 5 0.66 5 1 C3.35 1 1.7 1 0 1 C0 0.67 0 0.34 0 0 Z " fill="#4C4C4C" transform="translate(160,159)"/>
<path d="M0 0 C0 0.99 0 1.98 0 3 C-0.66 2.67 -1.32 2.34 -2 2 C-1.34 1.34 -0.68 0.68 0 0 Z " fill="#DD0000" transform="translate(220,122)"/>
<path d="M0 0 C4 1 4 1 4 1 Z " fill="#63634E" transform="translate(219,255)"/>
<path d="M0 0 C4 1 4 1 4 1 Z " fill="#63634E" transform="translate(143,255)"/>
<path d="M0 0 C1 4 1 4 1 4 Z " fill="#545454" transform="translate(98,239)"/>
<path d="M0 0 C4 1 4 1 4 1 Z " fill="#252525" transform="translate(66,237)"/>
<path d="M0 0 C4 1 4 1 4 1 Z " fill="#5F5F5F" transform="translate(227,229)"/>
<path d="M0 0 C1 4 1 4 1 4 Z " fill="#5F5F5F" transform="translate(104,228)"/>
<path d="M0 0 C4 1 4 1 4 1 Z " fill="#5F5F5F" transform="translate(222,228)"/>
<path d="M0 0 C1 4 1 4 1 4 Z " fill="#4F4F4F" transform="translate(152,224)"/>
<path d="M0 0 C1 4 1 4 1 4 Z " fill="#6A6A6A" transform="translate(153,219)"/>
<path d="M0 0 C1 4 1 4 1 4 Z " fill="#2F2F3F" transform="translate(152,215)"/>
<path d="M0 0 C1 4 1 4 1 4 Z " fill="#353535" transform="translate(202,210)"/>
<path d="M0 0 C1 4 1 4 1 4 Z " fill="#5F5F5F" transform="translate(202,201)"/>
<path d="M0 0 C4 1 4 1 4 1 Z " fill="#5F5F5F" transform="translate(136,204)"/>
<path d="M0 0 C4 1 4 1 4 1 Z " fill="#B50000" transform="translate(129,163)"/>
<path d="M0 0 C3 1 3 1 3 1 Z " fill="#636363" transform="translate(216,254)"/>
<path d="M0 0 C0.33 0.66 0.66 1.32 1 2 C0.34 1.67 -0.32 1.34 -1 1 C-0.67 0.67 -0.34 0.34 0 0 Z " fill="#545454" transform="translate(193,253)"/>
<path d="M0 0 C3 1 3 1 3 1 Z " fill="#636363" transform="translate(81,254)"/>
<path d="" fill="#383838" transform="translate(0,0)"/>
<path d="" fill="#3F3F54" transform="translate(0,0)"/>
<path d="" fill="#94A9A9" transform="translate(0,0)"/>
<path d="M0 0 C3 1 3 1 3 1 Z " fill="#636363" transform="translate(219,227)"/>
<path d="" fill="#464646" transform="translate(0,0)"/>
<path d="M0 0 C3 1 3 1 3 1 Z " fill="#767676" transform="translate(97,227)"/>
<path d="M0 0 C3 1 3 1 3 1 Z " fill="#545454" transform="translate(216,226)"/>
<path d="M0 0 C0.33 0.66 0.66 1.32 1 2 C0.34 1.67 -0.32 1.34 -1 1 C-0.67 0.67 -0.34 0.34 0 0 Z " fill="#385555" transform="translate(101,225)"/>
<path d="" fill="#1C1C1C" transform="translate(0,0)"/>
<path d="" fill="#1C1C71" transform="translate(0,0)"/>
<path d="M0 0 C3 1 3 1 3 1 Z " fill="#636363" transform="translate(236,213)"/>
<path d="" fill="#464646" transform="translate(0,0)"/>
<path d="" fill="#383838" transform="translate(0,0)"/>
<path d="" fill="#6A6A6A" transform="translate(0,0)"/>
<path d="" fill="#000000" transform="translate(0,0)"/>
<path d="" fill="#151515" transform="translate(0,0)"/>
<path d="M0 0 C3 1 3 1 3 1 Z " fill="#7F7F7F" transform="translate(215,188)"/>
<path d="M0 0 C3 1 3 1 3 1 Z " fill="#2A2A54" transform="translate(235,187)"/>
<path d="M0 0 C3 1 3 1 3 1 Z " fill="#767676" transform="translate(218,187)"/>
<path d="M0 0 C3 1 3 1 3 1 Z " fill="#636363" transform="translate(60,187)"/>
<path d="M0 0 C3 1 3 1 3 1 Z " fill="#636363" transform="translate(26,187)"/>
<path d="" fill="#383838" transform="translate(0,0)"/>
<path d="M0 0 C0.66 0 1.32 0 2 0 C1.67 0.66 1.34 1.32 1 2 C0.67 1.34 0.34 0.68 0 0 Z " fill="#464646" transform="translate(192,161)"/>
<path d="M0 0 C3 1 3 1 3 1 Z " fill="#940000" transform="translate(94,152)"/>
<path d="M0 0 C0.66 0.66 1.32 1.32 2 2 C1.34 2 0.68 2 0 2 C0 1.34 0 0.68 0 0 Z " fill="#710000" transform="translate(35,125)"/>
<path d="M0 0 C3 1 3 1 3 1 Z " fill="#FF1500" transform="translate(199,25)"/>
<path d="M0 0 C3 1 3 1 3 1 Z " fill="#BF3F00" transform="translate(62,24)"/>
<path d="M0 0 C3 1 3 1 3 1 Z " fill="#BF3F00" transform="translate(194,23)"/>
<path d="M0 0 C3 1 3 1 3 1 Z " fill="#FF6A00" transform="translate(80,17)"/>
<path d="M0 0 C3 1 3 1 3 1 Z " fill="#BF3F00" transform="translate(171,14)"/>
<path d="M0 0 C3 1 3 1 3 1 Z " fill="#FF1500" transform="translate(93,12)"/>
<path d="M0 0 C3 1 3 1 3 1 Z " fill="#FF1500" transform="translate(153,7)"/>
<path d="M0 0 C3 1 3 1 3 1 Z " fill="#FF6A00" transform="translate(106,7)"/>
<path d="M0 0 C3 1 3 1 3 1 Z " fill="#FF3F00" transform="translate(148,5)"/>
<path d="M0 0 C3 1 3 1 3 1 Z " fill="#FF3F00" transform="translate(114,4)"/>
<path d="M0 0 C3 1 3 1 3 1 Z " fill="#FF3F00" transform="translate(140,2)"/>
<path d="M0 0 C3 1 3 1 3 1 Z " fill="#FF3131" transform="translate(137,1)"/>
<path d="M0 0 C3 1 3 1 3 1 Z " fill="#FF3131" transform="translate(123,1)"/>
<path d="M0 0 C2 1 2 1 2 1 Z " fill="#6A9494" transform="translate(190,255)"/>
<path d="M0 0 C2 1 2 1 2 1 Z " fill="#6A6A6A" transform="translate(5,255)"/>
<path d="M0 0 C2 1 2 1 2 1 Z " fill="#557F7F" transform="translate(240,253)"/>
<path d="M0 0 C2 1 2 1 2 1 Z " fill="#555555" transform="translate(214,253)"/>
<path d="M0 0 C2 1 2 1 2 1 Z " fill="#AAAAAA" transform="translate(84,253)"/>
<path d="M0 0 C2 1 2 1 2 1 Z " fill="#6A6A94" transform="translate(242,252)"/>
<path d="M0 0 C2 1 2 1 2 1 Z " fill="#55557F" transform="translate(212,252)"/>
<path d="" fill="#2A2A2A" transform="translate(0,0)"/>
<path d="" fill="#2A2A2A" transform="translate(0,0)"/>
<path d="" fill="#6A6A6A" transform="translate(0,0)"/>
<path d="" fill="#3F3F3F" transform="translate(0,0)"/>
<path d="" fill="#3F3F3F" transform="translate(0,0)"/>
<path d="" fill="#2A2A2A" transform="translate(0,0)"/>
<path d="" fill="#2A2A2A" transform="translate(0,0)"/>
<path d="" fill="#555555" transform="translate(0,0)"/>
<path d="" fill="#2A2A2A" transform="translate(0,0)"/>
<path d="" fill="#7F7F7F" transform="translate(0,0)"/>
<path d="" fill="#AAAAAA" transform="translate(0,0)"/>
<path d="" fill="#3F3F3F" transform="translate(0,0)"/>
<path d="M0 0 C2 1 2 1 2 1 Z " fill="#6A6A94" transform="translate(218,235)"/>
<path d="" fill="#AAAAAA" transform="translate(0,0)"/>
<path d="" fill="#6A6A6A" transform="translate(0,0)"/>
<path d="" fill="#6A6A6A" transform="translate(0,0)"/>
<path d="" fill="#5F5F5F" transform="translate(0,0)"/>
<path d="" fill="#6A6A6A" transform="translate(0,0)"/>
<path d="" fill="#9F9F9F" transform="translate(0,0)"/>
<path d="" fill="#6A6A6A" transform="translate(0,0)"/>
<path d="" fill="#BF3FBF" transform="translate(0,0)"/>
<path d="" fill="#3F3F3F" transform="translate(0,0)"/>
<path d="" fill="#3F3F3F" transform="translate(0,0)"/>
<path d="" fill="#7F7F7F" transform="translate(0,0)"/>
<path d="M0 0 C2 1 2 1 2 1 Z " fill="#555555" transform="translate(241,215)"/>
<path d="" fill="#2A2A2A" transform="translate(0,0)"/>
<path d="" fill="#6A6A6A" transform="translate(0,0)"/>
<path d="M0 0 C2 1 2 1 2 1 Z " fill="#6A6A6A" transform="translate(239,214)"/>
<path d="" fill="#6A6A6A" transform="translate(0,0)"/>
<path d="" fill="#6A6A6A" transform="translate(0,0)"/>
<path d="" fill="#2A2A2A" transform="translate(0,0)"/>
<path d="" fill="#5F5F5F" transform="translate(0,0)"/>
<path d="" fill="#3F3F3F" transform="translate(0,0)"/>
<path d="" fill="#AAAAAA" transform="translate(0,0)"/>
<path d="" fill="#2A2A2A" transform="translate(0,0)"/>
<path d="" fill="#2A2A2A" transform="translate(0,0)"/>
<path d="" fill="#6A6A6A" transform="translate(0,0)"/>
<path d="" fill="#2A2A2A" transform="translate(0,0)"/>
<path d="" fill="#2A2A2A" transform="translate(0,0)"/>
<path d="" fill="#2A2A2A" transform="translate(0,0)"/>
<path d="" fill="#3F3F3F" transform="translate(0,0)"/>
<path d="" fill="#BFBFBF" transform="translate(0,0)"/>
<path d="" fill="#2A2A2A" transform="translate(0,0)"/>
<path d="" fill="#555555" transform="translate(0,0)"/>
<path d="" fill="#7F7F7F" transform="translate(0,0)"/>
<path d="" fill="#555555" transform="translate(0,0)"/>
<path d="" fill="#555555" transform="translate(0,0)"/>
<path d="" fill="#3F3F3F" transform="translate(0,0)"/>
<path d="" fill="#000000" transform="translate(0,0)"/>
<path d="" fill="#7F7F7F" transform="translate(0,0)"/>
<path d="M0 0 C2 1 2 1 2 1 Z " fill="#55557F" transform="translate(240,189)"/>
<path d="M0 0 C2 1 2 1 2 1 Z " fill="#949494" transform="translate(123,189)"/>
<path d="M0 0 C2 1 2 1 2 1 Z " fill="#949494" transform="translate(56,189)"/>
<path d="M0 0 C2 1 2 1 2 1 Z " fill="#555555" transform="translate(238,188)"/>
<path d="M0 0 C2 1 2 1 2 1 Z " fill="#555555" transform="translate(148,188)"/>
<path d="M0 0 C2 1 2 1 2 1 Z " fill="#555555" transform="translate(125,188)"/>
<path d="M0 0 C2 1 2 1 2 1 Z " fill="#555555" transform="translate(58,188)"/>
<path d="M0 0 C2 1 2 1 2 1 Z " fill="#555555" transform="translate(24,188)"/>
<path d="M0 0 C2 1 2 1 2 1 Z " fill="#000000" transform="translate(70,185)"/>
<path d="M0 0 C2 1 2 1 2 1 Z " fill="#5555AA" transform="translate(184,180)"/>
<path d="" fill="#AAAAAA" transform="translate(0,0)"/>
<path d="" fill="#6A6A6A" transform="translate(0,0)"/>
<path d="" fill="#2A2A2A" transform="translate(0,0)"/>
<path d="" fill="#3F3FBF" transform="translate(0,0)"/>
<path d="M0 0 C2 1 2 1 2 1 Z " fill="#940000" transform="translate(118,162)"/>
<path d="M0 0 C2 1 2 1 2 1 Z " fill="#949494" transform="translate(190,160)"/>
<path d="M0 0 C2 1 2 1 2 1 Z " fill="#D40000" transform="translate(111,159)"/>
<path d="M0 0 C2 1 2 1 2 1 Z " fill="#D40000" transform="translate(147,156)"/>
<path d="M0 0 C2 1 2 1 2 1 Z " fill="#D40000" transform="translate(104,156)"/>
<path d="M0 0 C2 1 2 1 2 1 Z " fill="#D40000" transform="translate(97,153)"/>
<path d="M0 0 C2 1 2 1 2 1 Z " fill="#D40000" transform="translate(156,152)"/>
<path d="M0 0 C2 1 2 1 2 1 Z " fill="#AA0000" transform="translate(158,151)"/>
<path d="M0 0 C2 1 2 1 2 1 Z " fill="#D40000" transform="translate(92,151)"/>
<path d="M0 0 C2 1 2 1 2 1 Z " fill="#D40000" transform="translate(163,149)"/>
<path d="M0 0 C2 1 2 1 2 1 Z " fill="#AA0000" transform="translate(85,148)"/>
<path d="M0 0 C2 1 2 1 2 1 Z " fill="#D40000" transform="translate(80,146)"/>
<path d="M0 0 C2 1 2 1 2 1 Z " fill="#D40000" transform="translate(179,142)"/>
<path d="M0 0 C2 1 2 1 2 1 Z " fill="#AA0000" transform="translate(68,141)"/>
<path d="M0 0 C2 1 2 1 2 1 Z " fill="#D40000" transform="translate(186,139)"/>
<path d="M0 0 C2 1 2 1 2 1 Z " fill="#D40000" transform="translate(193,136)"/>
<path d="M0 0 C2 1 2 1 2 1 Z " fill="#D40000" transform="translate(56,136)"/>
<path d="M0 0 C2 1 2 1 2 1 Z " fill="#FF0000" transform="translate(195,135)"/>
<path d="M0 0 C2 1 2 1 2 1 Z " fill="#D40000" transform="translate(200,133)"/>
<path d="M0 0 C2 1 2 1 2 1 Z " fill="#AA0000" transform="translate(49,133)"/>
<path d="M0 0 C2 1 2 1 2 1 Z " fill="#940000" transform="translate(209,129)"/>
<path d="" fill="#BF0000" transform="translate(0,0)"/>
<path d="" fill="#BF0000" transform="translate(0,0)"/>
<path d="" fill="#FF0000" transform="translate(0,0)"/>
<path d="" fill="#FF0000" transform="translate(0,0)"/>
<path d="" fill="#FF0000" transform="translate(0,0)"/>
<path d="" fill="#FF0000" transform="translate(0,0)"/>
<path d="M0 0 C2 1 2 1 2 1 Z " fill="#DF5F00" transform="translate(40,33)"/>
<path d="M0 0 C2 1 2 1 2 1 Z " fill="#FF2A00" transform="translate(42,32)"/>
<path d="M0 0 C2 1 2 1 2 1 Z " fill="#DF5F00" transform="translate(215,31)"/>
<path d="M0 0 C2 1 2 1 2 1 Z " fill="#FF5500" transform="translate(60,25)"/>
<path d="M0 0 C2 1 2 1 2 1 Z " fill="#FF5500" transform="translate(197,24)"/>
<path d="M0 0 C2 1 2 1 2 1 Z " fill="#D45500" transform="translate(65,23)"/>
<path d="M0 0 C2 1 2 1 2 1 Z " fill="#FF2A00" transform="translate(192,22)"/>
<path d="M0 0 C2 1 2 1 2 1 Z " fill="#FF5500" transform="translate(78,18)"/>
<path d="M0 0 C2 1 2 1 2 1 Z " fill="#FF5500" transform="translate(179,17)"/>
<path d="M0 0 C2 1 2 1 2 1 Z " fill="#D45500" transform="translate(83,16)"/>
<path d="M0 0 C2 1 2 1 2 1 Z " fill="#FF5500" transform="translate(174,15)"/>
<path d="M0 0 C2 1 2 1 2 1 Z " fill="#FF2A00" transform="translate(169,13)"/>
<path d="M0 0 C2 1 2 1 2 1 Z " fill="#D45500" transform="translate(96,11)"/>
<path d="M0 0 C2 1 2 1 2 1 Z " fill="#FF5500" transform="translate(151,6)"/>
<path d="" fill="#7F7F7F" transform="translate(0,0)"/>
<path d="" fill="#555555" transform="translate(0,0)"/>
<path d="" fill="#7F7F7F" transform="translate(0,0)"/>
<path d="" fill="#FFFFFF" transform="translate(0,0)"/>
<path d="" fill="#555555" transform="translate(0,0)"/>
<path d="" fill="#FFFFFF" transform="translate(0,0)"/>
<path d="" fill="#FFFFFF" transform="translate(0,0)"/>
<path d="" fill="#7F7F7F" transform="translate(0,0)"/>
<path d="" fill="#7F7F7F" transform="translate(0,0)"/>
<path d="" fill="#7F7F7F" transform="translate(0,0)"/>
<path d="" fill="#7F7F7F" transform="translate(0,0)"/>
<path d="" fill="#7F7F7F" transform="translate(0,0)"/>
<path d="" fill="#7F7F7F" transform="translate(0,0)"/>
<path d="" fill="#555555" transform="translate(0,0)"/>
<path d="" fill="#3F3F3F" transform="translate(0,0)"/>
<path d="" fill="#7F7F7F" transform="translate(0,0)"/>
<path d="" fill="#AAAAAA" transform="translate(0,0)"/>
<path d="" fill="#3F7F7F" transform="translate(0,0)"/>
<path d="" fill="#555555" transform="translate(0,0)"/>
<path d="" fill="#7F7F7F" transform="translate(0,0)"/>
<path d="" fill="#555555" transform="translate(0,0)"/>
<path d="" fill="#AAAAAA" transform="translate(0,0)"/>
<path d="" fill="#555555" transform="translate(0,0)"/>
<path d="" fill="#555555" transform="translate(0,0)"/>
<path d="" fill="#FFFFFF" transform="translate(0,0)"/>
<path d="" fill="#555555" transform="translate(0,0)"/>
<path d="" fill="#7F7F7F" transform="translate(0,0)"/>
<path d="" fill="#555555" transform="translate(0,0)"/>
<path d="" fill="#7F7F7F" transform="translate(0,0)"/>
<path d="" fill="#7F7F7F" transform="translate(0,0)"/>
<path d="" fill="#555555" transform="translate(0,0)"/>
<path d="" fill="#555555" transform="translate(0,0)"/>
<path d="" fill="#555555" transform="translate(0,0)"/>
<path d="" fill="#555555" transform="translate(0,0)"/>
<path d="" fill="#555555" transform="translate(0,0)"/>
<path d="" fill="#7F7F7F" transform="translate(0,0)"/>
<path d="" fill="#555555" transform="translate(0,0)"/>
<path d="" fill="#666666" transform="translate(0,0)"/>
<path d="" fill="#7F7F7F" transform="translate(0,0)"/>
<path d="" fill="#7F7F7F" transform="translate(0,0)"/>
<path d="" fill="#555555" transform="translate(0,0)"/>
<path d="" fill="#7F7F7F" transform="translate(0,0)"/>
<path d="" fill="#555555" transform="translate(0,0)"/>
<path d="" fill="#666666" transform="translate(0,0)"/>
<path d="" fill="#7F7F7F" transform="translate(0,0)"/>
<path d="" fill="#666666" transform="translate(0,0)"/>
<path d="" fill="#7F7F7F" transform="translate(0,0)"/>
<path d="" fill="#555555" transform="translate(0,0)"/>
<path d="" fill="#7F7F7F" transform="translate(0,0)"/>
<path d="" fill="#555555" transform="translate(0,0)"/>
<path d="" fill="#5555AA" transform="translate(0,0)"/>
<path d="" fill="#7F7F7F" transform="translate(0,0)"/>
<path d="" fill="#7F7F7F" transform="translate(0,0)"/>
<path d="" fill="#555555" transform="translate(0,0)"/>
<path d="" fill="#555555" transform="translate(0,0)"/>
<path d="" fill="#7F7F7F" transform="translate(0,0)"/>
<path d="" fill="#555555" transform="translate(0,0)"/>
<path d="" fill="#3F3F3F" transform="translate(0,0)"/>
<path d="" fill="#666666" transform="translate(0,0)"/>
<path d="" fill="#7F7F7F" transform="translate(0,0)"/>
<path d="" fill="#AAAAAA" transform="translate(0,0)"/>
<path d="" fill="#7F7F7F" transform="translate(0,0)"/>
<path d="" fill="#555555" transform="translate(0,0)"/>
<path d="" fill="#7F7F7F" transform="translate(0,0)"/>
<path d="" fill="#7F7F7F" transform="translate(0,0)"/>
<path d="" fill="#555555" transform="translate(0,0)"/>
<path d="" fill="#555555" transform="translate(0,0)"/>
<path d="" fill="#555555" transform="translate(0,0)"/>
<path d="" fill="#555555" transform="translate(0,0)"/>
<path d="" fill="#555555" transform="translate(0,0)"/>
<path d="" fill="#555555" transform="translate(0,0)"/>
<path d="" fill="#5555AA" transform="translate(0,0)"/>
<path d="" fill="#555555" transform="translate(0,0)"/>
<path d="" fill="#3F3F3F" transform="translate(0,0)"/>
<path d="" fill="#3F7F3F" transform="translate(0,0)"/>
<path d="" fill="#3F3F7F" transform="translate(0,0)"/>
<path d="" fill="#7F7F7F" transform="translate(0,0)"/>
<path d="" fill="#3F3F3F" transform="translate(0,0)"/>
<path d="" fill="#000000" transform="translate(0,0)"/>
<path d="" fill="#7F7F7F" transform="translate(0,0)"/>
<path d="" fill="#000000" transform="translate(0,0)"/>
<path d="" fill="#7F7F7F" transform="translate(0,0)"/>
<path d="" fill="#7F7F7F" transform="translate(0,0)"/>
<path d="" fill="#555555" transform="translate(0,0)"/>
<path d="" fill="#7F7F7F" transform="translate(0,0)"/>
<path d="" fill="#7F7F7F" transform="translate(0,0)"/>
<path d="" fill="#7F7F7F" transform="translate(0,0)"/>
<path d="" fill="#7F7F7F" transform="translate(0,0)"/>
<path d="" fill="#555555" transform="translate(0,0)"/>
<path d="" fill="#7F7F7F" transform="translate(0,0)"/>
<path d="" fill="#555555" transform="translate(0,0)"/>
<path d="" fill="#000000" transform="translate(0,0)"/>
<path d="" fill="#555555" transform="translate(0,0)"/>
<path d="" fill="#7F7F7F" transform="translate(0,0)"/>
<path d="" fill="#555555" transform="translate(0,0)"/>
<path d="" fill="#7F7F7F" transform="translate(0,0)"/>
<path d="" fill="#555555" transform="translate(0,0)"/>
<path d="" fill="#555555" transform="translate(0,0)"/>
<path d="" fill="#555555" transform="translate(0,0)"/>
<path d="" fill="#7F7F7F" transform="translate(0,0)"/>
<path d="" fill="#7F7F7F" transform="translate(0,0)"/>
<path d="" fill="#FFFFFF" transform="translate(0,0)"/>
<path d="" fill="#7F7F7F" transform="translate(0,0)"/>
<path d="" fill="#555555" transform="translate(0,0)"/>
<path d="" fill="#7F7F7F" transform="translate(0,0)"/>
<path d="" fill="#555555" transform="translate(0,0)"/>
<path d="" fill="#FF0000" transform="translate(0,0)"/>
<path d="" fill="#7F0000" transform="translate(0,0)"/>
<path d="" fill="#AA0000" transform="translate(0,0)"/>
<path d="" fill="#FF0000" transform="translate(0,0)"/>
<path d="" fill="#FF0000" transform="translate(0,0)"/>
<path d="" fill="#FF0000" transform="translate(0,0)"/>
<path d="" fill="#FF0000" transform="translate(0,0)"/>
<path d="" fill="#FF0000" transform="translate(0,0)"/>
<path d="" fill="#FF0000" transform="translate(0,0)"/>
<path d="" fill="#7F0000" transform="translate(0,0)"/>
<path d="" fill="#7F0000" transform="translate(0,0)"/>
<path d="" fill="#AA5500" transform="translate(0,0)"/>
<path d="" fill="#7F0000" transform="translate(0,0)"/>
<path d="" fill="#FF0000" transform="translate(0,0)"/>
<path d="" fill="#7F0000" transform="translate(0,0)"/>
<path d="" fill="#AA0000" transform="translate(0,0)"/>
<path d="" fill="#AA0000" transform="translate(0,0)"/>
<path d="" fill="#7F0000" transform="translate(0,0)"/>
<path d="" fill="#7F0000" transform="translate(0,0)"/>
<path d="" fill="#FF0000" transform="translate(0,0)"/>
</svg>
