<svg xmlns="http://www.w3.org/2000/svg" width="1200" height="628" viewBox="0 0 1200 628">
<g>
<path d="M 432.50 519.98 C420.00,522.40 395.76,523.38 381.88,522.03 C322.95,516.28 267.21,485.02 232.06,438.00 C221.24,423.52 206.89,398.78 208.42,397.25 C208.72,396.94 221.24,401.04 236.24,406.35 C251.23,411.67 264.67,416.01 266.10,416.01 C267.52,416.00 269.42,415.20 270.31,414.21 C271.75,412.62 279.61,391.98 282.19,383.00 C282.74,381.08 284.01,377.48 284.99,375.00 C285.98,372.52 287.34,369.03 288.02,367.24 L 289.25 363.98 L 294.90 373.24 C301.21,383.57 302.70,385.50 311.99,395.30 C342.74,427.78 393.37,440.61 433.03,425.99 C457.70,416.89 482.07,398.34 503.28,372.52 C508.26,366.46 512.40,361.39 512.49,361.26 C512.58,361.13 522.29,362.11 534.07,363.44 C570.55,367.57 569.41,367.32 570.95,371.36 C571.49,372.79 570.39,386.05 567.93,407.87 C563.53,446.84 565.14,442.19 551.50,455.09 C515.42,489.18 473.49,512.04 432.50,519.98 ZM 865.73 355.59 C862.08,356.38 852.98,356.94 843.75,356.96 L 828.00 357.00 L 828.00 272.00 L 846.75 272.01 C860.29,272.02 866.84,272.43 870.31,273.48 C882.29,277.11 890.31,284.11 895.00,295.00 C897.91,301.77 898.92,317.29 897.00,325.91 C893.48,341.74 882.73,351.95 865.73,355.59 ZM 802.00 356.18 C794.27,358.18 779.26,358.36 773.45,356.52 C757.10,351.36 749.26,340.03 747.48,319.00 C745.97,301.15 752.01,285.62 763.69,277.32 C770.52,272.46 777.08,270.61 787.50,270.60 C796.34,270.60 810.05,273.65 811.47,275.94 C811.78,276.45 810.79,280.00 809.26,283.84 L 806.49 290.82 L 800.53 288.30 C789.67,283.73 778.82,285.14 772.69,291.93 C767.70,297.45 766.50,301.82 766.50,314.50 C766.50,326.55 767.64,331.23 771.79,336.17 C777.54,343.00 786.67,344.54 800.50,341.00 C804.80,339.90 808.49,339.00 808.70,339.00 C808.91,339.00 808.95,342.49 808.79,346.75 L 808.50 354.50 ZM 395.00 356.95 C388.83,358.32 374.37,358.08 369.45,356.52 C352.95,351.31 345.16,339.91 343.46,318.50 C342.25,303.18 346.97,289.10 356.28,280.30 C363.85,273.14 370.69,270.74 383.50,270.77 C393.24,270.78 405.97,273.53 407.46,275.94 C407.76,276.42 406.80,279.93 405.33,283.72 L 402.65 290.63 L 396.08 288.20 C387.94,285.20 378.37,285.01 373.67,287.76 C365.27,292.67 361.37,302.98 362.25,318.00 C363.00,330.93 366.42,337.38 374.50,341.11 C380.54,343.90 393.69,343.15 403.25,339.46 C404.82,338.86 405.00,339.55 405.00,346.27 C405.00,354.68 404.94,354.74 395.00,356.95 ZM 846.00 314.61 L 846.00 342.00 L 852.25 341.99 C864.01,341.98 872.41,337.92 876.00,330.50 C883.26,315.50 878.96,293.94 867.73,289.02 C863.56,287.19 850.09,285.64 847.39,286.68 C846.25,287.12 846.00,292.17 846.00,314.61 ZM 442.00 272.00 L 442.00 357.00 L 433.17 357.00 C428.31,357.00 424.15,356.81 423.92,356.58 C423.69,356.36 423.62,337.23 423.77,314.08 L 424.04 272.00 ZM 375.72 482.30 C379.19,483.21 388.00,482.99 388.00,482.00 C388.00,481.45 388.01,480.66 388.03,480.25 C388.05,479.84 386.36,479.27 384.28,479.00 C380.85,478.55 380.47,478.19 380.18,475.17 L 379.86 471.84 L 384.18 472.15 C388.00,472.43 388.54,472.21 388.82,470.23 C389.11,468.24 388.71,468.00 385.07,468.00 C381.40,468.00 381.00,467.76 381.00,465.50 C381.00,463.20 381.37,463.00 385.50,463.00 C389.23,463.00 390.00,462.68 390.00,461.12 C390.00,459.06 386.57,458.00 379.94,458.00 C379.84,458.00 379.74,458.00 379.65,458.00 C378.53,458.00 377.73,458.00 377.14,458.34 C375.58,459.24 375.39,462.49 374.51,474.17 C374.00,480.97 374.13,481.89 375.72,482.30 ZM 396.50 483.12 C398.15,483.47 400.10,483.59 400.83,483.38 C401.56,483.17 402.80,483.00 403.58,483.00 C405.96,483.00 409.00,479.17 409.00,476.17 C409.00,473.08 406.30,470.10 401.50,467.87 C397.00,465.78 397.62,463.56 402.80,463.19 C407.31,462.87 409.51,460.57 406.90,458.91 C404.25,457.24 397.50,457.89 395.19,460.04 C390.81,464.11 392.78,469.14 400.18,472.84 C402.28,473.89 403.50,475.23 403.50,476.50 C403.50,478.29 402.93,478.47 398.18,478.21 C393.14,477.94 392.87,478.05 393.18,480.21 C393.40,481.82 394.38,482.67 396.50,483.12 ZM 357.00 478.61 C357.00,480.68 361.76,480.36 362.37,478.25 C362.65,477.29 363.45,472.97 364.15,468.67 L 365.42 460.83 L 368.71 461.21 C371.25,461.51 372.13,461.17 372.59,459.72 C372.91,458.69 373.03,457.72 372.84,457.55 C372.65,457.39 368.68,456.56 364.01,455.71 C357.62,454.55 355.33,454.46 354.77,455.34 C353.63,457.14 354.44,458.47 356.89,458.83 C360.10,459.30 360.36,460.95 358.58,469.55 C357.71,473.77 357.00,477.84 357.00,478.61 ZM 419.59 480.38 C419.90,481.19 421.07,481.52 422.60,481.23 C424.70,480.82 425.02,480.32 424.57,478.12 C421.48,462.97 421.75,460.05 426.25,460.02 C427.36,460.01 428.00,459.23 428.00,457.87 C428.00,455.85 427.68,455.78 421.75,456.45 C411.48,457.61 410.00,458.07 410.00,460.12 C410.00,461.59 410.74,462.00 413.35,462.00 L 416.70 462.00 L 417.89 470.53 C418.55,475.21 419.31,479.65 419.59,480.38 Z" fill="rgb(34,98,173)"/>
<path d="M 274.00 244.80 C259.98,246.57 247.57,248.02 246.42,248.01 C245.28,248.01 243.43,246.99 242.31,245.75 C240.58,243.84 239.72,239.13 236.62,214.50 C234.61,198.55 232.98,184.49 232.99,183.26 C233.00,180.76 234.36,178.98 244.50,168.18 C260.96,150.64 283.47,134.88 305.34,125.57 C320.16,119.27 324.36,117.86 338.60,114.43 C402.54,99.00 470.47,113.65 521.50,153.86 C528.88,159.67 553.67,183.64 555.75,186.98 C556.96,188.91 556.60,188.93 527.74,188.36 C503.06,187.87 498.20,188.01 496.60,189.23 C493.91,191.30 493.13,198.77 492.95,224.00 C492.86,235.82 492.58,245.85 492.33,246.27 C492.07,246.69 486.38,241.49 479.68,234.72 C466.77,221.68 458.04,215.22 444.00,208.36 C399.41,186.57 343.23,195.17 310.87,228.76 C306.77,233.02 302.53,237.64 301.46,239.03 C299.59,241.45 298.31,241.72 274.00,244.80 ZM 260.76 401.94 C259.40,402.41 258.65,402.72 257.88,402.79 C256.68,402.89 255.43,402.41 251.83,401.03 C251.42,400.87 250.98,400.70 250.50,400.52 C241.41,397.03 214.25,387.45 207.74,385.42 L 201.97 383.63 L 198.96 373.86 C191.39,349.34 188.50,324.71 190.11,298.44 C192.15,265.18 200.22,236.07 215.06,208.50 C220.42,198.55 222.60,195.25 223.31,196.00 C223.57,196.28 225.46,209.77 227.51,226.00 C231.60,258.35 232.13,260.00 238.29,260.00 C239.91,260.00 252.24,258.61 265.70,256.91 C279.15,255.22 290.35,254.01 290.57,254.24 C290.80,254.47 289.41,258.55 287.49,263.31 C285.57,268.07 282.80,276.36 281.33,281.73 C278.88,290.70 278.66,293.10 278.59,311.00 C278.52,328.07 278.79,331.60 280.76,339.33 L 283.00 348.16 L 279.88 356.83 C278.16,361.60 275.45,369.10 273.85,373.50 C272.25,377.90 270.24,383.75 269.37,386.50 C266.07,397.04 263.96,400.82 260.76,401.94 ZM 679.66 461.25 C679.97,464.96 680.06,467.99 679.86,467.98 C679.02,467.93 665.81,455.84 656.94,447.02 C645.62,435.74 642.40,432.06 623.43,408.81 C610.14,392.52 607.68,388.74 609.77,387.83 C610.19,387.65 613.45,383.74 617.02,379.14 C620.58,374.54 625.15,368.92 627.16,366.64 C629.17,364.36 634.97,357.33 640.05,351.00 C645.13,344.67 651.25,337.14 653.65,334.25 L 654.27 333.50 C664.96,320.61 666.77,318.43 667.73,318.75 C667.95,318.83 668.12,319.02 668.34,319.25 C669.66,320.63 684.20,337.80 690.50,345.41 C692.70,348.07 695.54,351.43 696.82,352.87 C698.09,354.32 700.79,357.52 702.82,360.00 C704.84,362.47 706.95,364.99 707.50,365.58 C708.05,366.18 710.52,369.11 712.98,372.08 C720.19,380.81 735.99,396.77 742.75,402.18 C746.19,404.92 749.00,407.51 749.00,407.91 C749.00,408.32 746.41,408.75 743.25,408.87 C740.09,408.98 726.25,409.73 712.50,410.53 C698.75,411.32 686.26,411.98 684.75,411.99 C683.24,412.00 681.03,412.97 679.85,414.15 C677.76,416.24 677.72,416.73 678.40,435.40 C678.78,445.90 679.35,457.54 679.66,461.25 ZM 576.50 285.40 C564.95,298.99 554.33,311.46 552.90,313.09 L 550.29 316.07 L 547.45 312.29 C543.01,306.37 530.20,291.32 522.50,282.97 C514.04,273.80 509.42,268.62 505.69,264.11 L 502.89 260.71 L 503.53 233.61 C503.88,218.70 504.61,205.06 505.15,203.30 C505.71,201.45 507.05,199.77 508.31,199.34 C510.92,198.44 565.01,198.91 566.59,199.85 C567.96,200.66 573.99,207.62 584.99,221.10 C593.86,231.95 594.57,232.80 602.86,242.37 L 607.95 248.25 L 602.72 254.47 C599.85,257.88 588.05,271.80 576.50,285.40 ZM 358.99 155.75 C360.68,158.52 361.54,159.00 364.87,159.00 C370.64,159.00 373.50,156.28 373.50,150.79 C373.50,144.28 370.96,141.00 365.93,141.00 C358.06,141.00 354.55,148.47 358.99,155.75 ZM 225.25 290.26 C234.54,292.60 235.86,292.48 236.56,289.25 C236.90,287.74 237.31,286.03 237.48,285.45 C237.65,284.87 237.21,283.03 236.51,281.37 C235.07,277.94 230.66,275.68 226.39,276.17 C223.03,276.56 219.00,281.92 219.00,285.99 C219.00,288.47 219.52,288.82 225.25,290.26 ZM 378.63 156.21 C379.39,157.44 383.73,157.14 387.40,155.61 C391.52,153.89 393.29,149.63 391.93,144.71 C390.77,140.51 387.66,138.77 382.02,139.18 L 377.67 139.50 L 377.91 147.46 C378.04,151.84 378.36,155.78 378.63,156.21 ZM 216.87 347.32 C216.97,349.49 217.40,350.02 218.75,349.64 C219.71,349.37 223.81,348.84 227.85,348.46 L 235.19 347.78 L 234.51 343.14 C233.40,335.64 229.91,333.09 226.04,336.96 C224.94,338.06 223.81,338.50 223.48,337.96 C222.59,336.53 219.35,336.80 217.70,338.44 C216.91,339.23 216.37,340.92 216.51,342.19 C216.64,343.46 216.80,345.77 216.87,347.32 ZM 526.26 227.81 C528.70,230.26 529.73,230.43 533.43,229.02 C536.90,227.71 536.89,223.21 533.42,219.09 L 530.84 216.02 L 525.70 220.26 L 525.17 220.69 C518.80,225.96 517.10,227.36 517.36,228.00 C517.45,228.25 517.85,228.39 518.38,228.59 C519.38,228.98 520.89,228.51 522.07,227.43 C524.01,225.68 524.14,225.70 526.26,227.81 ZM 555.13 272.65 C556.35,274.13 556.90,273.79 565.36,266.34 C571.69,260.76 569.43,259.48 562.93,264.96 C560.22,267.25 558.00,268.66 558.00,268.11 C558.00,267.55 559.11,264.03 560.47,260.30 C562.51,254.66 562.71,253.28 561.61,252.18 C560.51,251.08 559.15,251.81 553.64,256.49 C549.99,259.59 547.00,262.30 547.00,262.50 C547.00,264.31 549.59,263.33 553.59,260.02 C556.23,257.84 558.50,256.17 558.63,256.30 C558.77,256.43 557.79,259.87 556.45,263.94 C554.66,269.41 554.32,271.68 555.13,272.65 ZM 543.75 259.41 C544.94,260.60 545.59,259.84 549.75,252.37 C556.20,240.78 555.62,240.12 543.10,244.76 C535.74,247.48 533.57,249.76 538.85,249.21 C542.96,248.78 545.54,252.00 544.20,255.87 C543.63,257.50 543.43,259.09 543.75,259.41 ZM 369.00 155.00 C365.22,158.78 361.16,156.59 360.32,150.32 C359.84,146.76 360.09,145.99 362.15,144.63 C365.20,142.64 368.44,143.48 369.88,146.63 C371.52,150.24 371.26,152.74 369.00,155.00 ZM 215.00 330.50 C215.00,332.66 227.68,332.61 230.78,330.44 C233.50,328.53 233.82,322.57 231.35,319.83 C229.07,317.32 215.00,317.10 215.00,319.57 C215.00,320.82 216.08,321.11 220.25,320.99 C229.46,320.71 229.92,320.82 230.59,323.51 C231.64,327.71 229.59,329.00 221.88,329.00 C216.43,329.00 215.00,329.31 215.00,330.50 ZM 397.00 138.00 L 397.00 156.00 L 402.00 156.00 C404.75,156.00 407.00,155.55 407.00,155.00 C407.00,154.45 405.42,154.00 403.50,154.00 C400.28,154.00 400.00,153.76 400.00,151.00 C400.00,148.24 400.28,148.00 403.50,148.00 C405.42,148.00 407.00,147.55 407.00,147.00 C407.00,146.45 405.42,146.00 403.50,146.00 C400.43,146.00 400.00,145.69 400.00,143.50 C400.00,141.31 400.43,141.00 403.50,141.00 C405.94,141.00 407.00,140.55 407.00,139.50 C407.00,138.37 405.78,138.00 402.00,138.00 ZM 234.81 285.80 C234.45,288.89 233.32,289.17 226.75,287.78 C221.56,286.69 220.81,285.15 223.56,281.22 C226.88,276.48 235.48,279.99 234.81,285.80 ZM 388.75 150.84 C387.83,152.77 386.60,153.59 384.24,153.81 L 381.00 154.13 L 381.00 147.56 C381.00,141.42 381.14,141.00 383.25,141.02 C386.35,141.04 387.69,142.06 388.95,145.36 C389.75,147.46 389.70,148.86 388.75,150.84 ZM 346.30 161.98 C348.47,162.84 349.31,162.79 353.75,161.51 C357.67,160.39 356.18,159.01 351.71,159.63 C346.70,160.31 345.22,159.10 344.32,153.60 C343.61,149.20 345.21,147.00 349.12,147.00 C351.12,147.00 352.00,146.50 352.00,145.37 C352.00,143.00 345.03,144.29 342.75,147.08 C339.44,151.13 341.57,160.09 346.30,161.98 ZM 530.75 243.54 C532.26,245.36 533.81,246.89 534.19,246.93 C535.91,247.11 535.62,245.26 533.51,242.62 L 531.21 239.74 L 537.20 234.76 C541.20,231.42 542.85,229.45 542.17,228.77 C541.05,227.65 540.04,228.26 532.69,234.46 C530.11,236.64 528.00,238.83 528.00,239.32 C528.00,239.82 529.24,241.72 530.75,243.54 ZM 224.58 304.62 C228.93,305.24 232.78,305.80 233.12,305.87 C233.85,306.02 235.00,300.82 235.00,297.38 C235.00,293.69 233.17,294.58 232.41,298.63 L 231.73 302.26 L 223.77 301.60 C217.52,301.08 215.90,301.21 216.23,302.22 C216.48,302.98 219.88,303.96 224.58,304.62 ZM 219.25 312.28 C227.63,313.32 233.00,313.01 233.00,311.50 C233.00,310.43 231.90,310.00 229.14,310.00 C227.02,310.00 223.19,309.71 220.64,309.36 C216.82,308.84 216.00,309.01 216.00,310.30 C216.00,311.33 217.13,312.01 219.25,312.28 ZM 532.93 225.13 C531.72,227.39 528.17,227.60 527.35,225.46 C527.02,224.62 527.56,223.04 528.54,221.95 C530.20,220.12 530.45,220.10 532.13,221.62 C533.50,222.86 533.70,223.70 532.93,225.13 ZM 231.80 342.12 C232.03,344.05 231.58,344.88 230.09,345.27 C227.71,345.89 225.69,343.84 226.18,341.30 C226.40,340.14 227.42,339.50 229.01,339.50 C230.95,339.50 231.57,340.08 231.80,342.12 ZM 223.82 343.25 C224.09,345.63 223.78,346.00 221.50,346.00 C219.22,346.00 218.91,345.63 219.18,343.25 C219.41,341.27 220.06,340.50 221.50,340.50 C222.94,340.50 223.59,341.27 223.82,343.25 ZM 549.27 247.88 C547.22,251.49 546.45,251.71 545.06,249.11 C544.27,247.63 544.42,247.11 545.77,246.72 C546.72,246.45 548.30,245.90 549.27,245.50 C550.96,244.80 550.96,244.91 549.27,247.88 Z" fill="rgb(130,175,219)"/>
<path d="M 0.00 0.00 L 1200.00 0.00 L 1200.00 628.00 L 0.00 628.00 ZM 679.66 461.25 C679.35,457.54 678.78,445.90 678.40,435.40 C677.72,416.73 677.76,416.24 679.85,414.15 C681.03,412.97 683.24,412.00 684.75,411.99 C686.26,411.98 698.75,411.32 712.50,410.53 C726.25,409.73 740.09,408.98 743.25,408.87 C746.41,408.75 749.00,408.32 749.00,407.91 C749.00,407.51 746.19,404.92 742.75,402.18 C735.99,396.77 720.19,380.81 712.98,372.08 C710.52,369.11 708.05,366.18 707.50,365.58 C706.95,364.99 704.84,362.47 702.82,360.00 C700.79,357.52 698.09,354.32 696.82,352.87 C695.54,351.43 692.70,348.07 690.50,345.41 C684.20,337.80 669.66,320.63 668.34,319.25 C668.12,319.02 667.95,318.83 667.73,318.75 C666.81,318.44 665.13,320.41 655.73,331.74 C660.77,325.54 666.30,318.75 671.46,312.42 C712.29,262.38 718.50,254.76 720.28,252.45 C721.74,250.56 722.32,246.21 723.52,228.32 C724.32,216.32 724.98,203.72 724.98,200.32 C724.99,200.10 724.99,199.89 724.99,199.68 C725.00,197.02 725.01,195.15 724.18,193.78 C722.14,190.40 715.03,190.08 690.38,188.59 L 660.53 186.78 L 656.70 191.14 C654.59,193.54 644.14,205.85 633.48,218.50 C622.81,231.15 610.19,246.00 605.43,251.50 C601.89,255.59 595.03,263.61 587.19,272.81 C594.59,264.09 600.75,256.81 602.72,254.47 L 607.95 248.25 L 602.86 242.37 C594.57,232.80 593.86,231.95 584.99,221.10 C573.99,207.62 567.96,200.66 566.59,199.85 C565.01,198.91 510.92,198.44 508.31,199.34 C507.05,199.77 505.71,201.45 505.15,203.30 C504.61,205.06 503.88,218.70 503.53,233.61 L 502.89 260.71 L 505.69 264.11 C509.42,268.62 514.04,273.80 522.50,282.97 C530.20,291.32 543.01,306.37 547.45,312.29 L 550.29 316.07 L 552.90 313.09 C553.65,312.23 556.99,308.33 561.67,302.83 C556.04,309.48 551.29,315.10 548.50,318.43 C544.65,323.04 537.06,332.04 531.63,338.45 C526.20,344.85 522.00,350.34 522.30,350.63 C522.59,350.93 524.56,351.36 526.67,351.59 C528.78,351.82 538.38,352.88 548.00,353.95 C557.62,355.03 568.39,356.20 571.91,356.57 C576.72,357.07 578.91,357.82 580.66,359.57 C583.27,362.18 583.35,362.98 582.04,375.00 C579.72,396.42 576.94,420.88 576.38,424.75 C576.05,427.09 576.00,429.00 576.28,429.00 C576.56,429.00 583.77,420.34 592.30,409.75 C599.88,400.34 606.91,391.67 609.12,389.02 C609.36,391.11 613.17,396.23 623.43,408.81 C642.40,432.06 645.62,435.74 656.94,447.02 C665.81,455.84 679.02,467.93 679.86,467.98 C680.06,467.99 679.97,464.96 679.66,461.25 ZM 432.50 519.98 C473.49,512.04 515.42,489.18 551.50,455.09 C565.14,442.19 563.53,446.84 567.93,407.87 C570.39,386.05 571.49,372.79 570.95,371.36 C569.41,367.32 570.55,367.57 534.07,363.44 C522.29,362.11 512.58,361.13 512.49,361.26 C512.40,361.39 508.26,366.46 503.28,372.52 C482.07,398.34 457.70,416.89 433.03,425.99 C393.37,440.61 342.74,427.78 311.99,395.30 C302.70,385.50 301.21,383.57 294.90,373.24 L 289.25 363.98 L 288.02 367.24 C287.34,369.03 285.98,372.52 284.99,375.00 C284.01,377.48 282.74,381.08 282.19,383.00 C279.61,391.98 271.75,412.62 270.31,414.21 C269.42,415.20 267.52,416.00 266.10,416.01 C264.67,416.01 251.23,411.67 236.24,406.35 C221.24,401.04 208.72,396.94 208.42,397.25 C206.89,398.78 221.24,423.52 232.06,438.00 C267.21,485.02 322.95,516.28 381.88,522.03 C395.76,523.38 420.00,522.40 432.50,519.98 ZM 931.00 483.02 C936.18,484.72 937.93,484.00 947.72,476.13 C966.14,461.30 985.35,439.57 996.20,421.27 C1011.28,395.86 1020.24,371.13 1024.71,342.62 C1027.10,327.40 1027.04,294.93 1024.61,279.15 C1019.19,244.12 1007.04,213.72 987.68,186.73 C982.32,179.26 968.44,163.94 961.50,157.83 C949.36,147.14 931.70,134.96 930.33,136.34 C929.71,136.96 930.31,140.83 936.95,179.18 C940.24,198.20 940.09,201.17 935.77,202.97 C934.52,203.49 922.97,205.72 910.11,207.93 C897.25,210.14 886.56,212.11 886.36,212.31 C886.16,212.51 890.07,215.71 895.05,219.43 C920.90,238.73 936.44,269.51 938.52,305.50 C940.69,343.04 923.60,381.79 894.71,404.84 L 888.50 409.80 L 884.11 425.65 C881.70,434.37 878.42,446.10 876.82,451.72 C874.14,461.15 874.03,462.16 875.40,464.81 C877.08,468.06 876.25,467.76 908.00,476.53 C919.28,479.65 929.62,482.57 931.00,483.02 ZM 274.00 244.80 C298.31,241.72 299.59,241.45 301.46,239.03 C302.53,237.64 306.77,233.02 310.87,228.76 C343.23,195.17 399.41,186.57 444.00,208.36 C458.04,215.22 466.77,221.68 479.68,234.72 C486.38,241.49 492.07,246.69 492.33,246.27 C492.58,245.85 492.86,235.82 492.95,224.00 C493.13,198.77 493.91,191.30 496.60,189.23 C498.20,188.01 503.06,187.87 527.74,188.36 C556.60,188.93 556.96,188.91 555.75,186.98 C553.67,183.64 528.88,159.67 521.50,153.86 C470.47,113.65 402.54,99.00 338.60,114.43 C324.36,117.86 320.16,119.27 305.34,125.57 C283.47,134.88 260.96,150.64 244.50,168.18 C234.36,178.98 233.00,180.76 232.99,183.26 C232.98,184.49 234.61,198.55 236.62,214.50 C239.72,239.13 240.58,243.84 242.31,245.75 C243.43,246.99 245.28,248.01 246.42,248.01 C247.57,248.02 259.98,246.57 274.00,244.80 ZM 734.34 224.92 L 733.68 236.34 L 743.52 227.76 C764.00,209.91 786.17,200.01 812.50,196.96 C827.96,195.17 851.86,197.76 863.74,202.51 C867.16,203.88 868.95,203.97 875.15,203.07 C881.54,202.14 908.44,197.52 919.16,195.50 C923.70,194.65 927.00,191.70 927.00,188.51 C927.00,186.36 918.75,135.89 917.48,130.29 C916.72,126.92 900.68,120.24 881.81,115.45 C831.06,102.56 780.19,107.36 734.56,129.36 C720.24,136.26 711.76,141.44 697.73,151.87 C686.74,160.03 672.00,173.63 672.00,175.60 C672.00,176.62 673.43,177.01 677.25,177.03 C682.49,177.05 705.27,178.34 722.70,179.60 C728.93,180.05 732.34,180.30 734.13,182.13 C736.30,184.34 736.09,188.88 735.65,198.91 L 735.65 198.93 C735.29,206.94 734.70,218.64 734.34,224.92 ZM 798.50 522.01 C810.24,523.27 834.69,522.24 849.00,519.89 C868.78,516.64 887.35,510.95 905.21,502.66 C914.80,498.20 923.49,493.16 922.79,492.45 C922.56,492.23 916.78,490.50 909.94,488.60 C897.03,485.01 883.24,481.13 871.91,477.89 C864.40,475.75 861.66,473.33 861.78,468.96 C861.85,466.43 870.83,432.52 874.06,422.60 C875.55,418.02 875.35,417.97 868.69,420.99 C848.10,430.32 822.93,434.14 803.00,430.94 C794.22,429.54 782.05,425.63 773.19,421.38 L 765.88 417.87 L 748.69 418.93 C739.24,419.51 722.95,420.47 712.50,421.06 C694.78,422.07 693.34,422.30 691.15,424.45 L 688.80 426.74 L 689.96 450.62 C690.60,463.76 691.35,475.28 691.62,476.23 C692.34,478.71 711.03,491.07 727.50,499.97 C747.43,510.73 776.02,519.60 798.50,522.01 ZM 260.76 401.94 C263.96,400.82 266.07,397.04 269.37,386.50 C270.24,383.75 272.25,377.90 273.85,373.50 C275.45,369.10 278.16,361.60 279.88,356.83 L 283.00 348.16 L 280.76 339.33 C278.79,331.60 278.52,328.07 278.59,311.00 C278.66,293.10 278.88,290.70 281.33,281.73 C282.80,276.36 285.57,268.07 287.49,263.31 C289.41,258.55 290.80,254.47 290.57,254.24 C290.35,254.01 279.15,255.22 265.70,256.91 C252.24,258.61 239.91,260.00 238.29,260.00 C232.13,260.00 231.60,258.35 227.51,226.00 C225.46,209.77 223.57,196.28 223.31,196.00 C222.60,195.25 220.42,198.55 215.06,208.50 C200.22,236.07 192.15,265.18 190.11,298.44 C188.50,324.71 191.39,349.34 198.96,373.86 L 201.97 383.63 L 207.74 385.42 C214.25,387.45 241.41,397.03 250.50,400.52 C250.98,400.70 251.42,400.87 251.83,401.03 C255.43,402.41 256.68,402.89 257.88,402.79 C258.65,402.72 259.40,402.41 260.76,401.94 ZM 865.73 355.59 C882.73,351.95 893.48,341.74 897.00,325.91 C898.92,317.29 897.91,301.77 895.00,295.00 C890.31,284.11 882.29,277.11 870.31,273.48 C866.84,272.43 860.29,272.02 846.75,272.01 L 828.00 272.00 L 828.00 357.00 L 843.75 356.96 C852.98,356.94 862.08,356.38 865.73,355.59 ZM 802.00 356.18 L 808.50 354.50 L 808.79 346.75 C808.95,342.49 808.91,339.00 808.70,339.00 C808.49,339.00 804.80,339.90 800.50,341.00 C786.67,344.54 777.54,343.00 771.79,336.17 C767.64,331.23 766.50,326.55 766.50,314.50 C766.50,301.82 767.70,297.45 772.69,291.93 C778.82,285.14 789.67,283.73 800.53,288.30 L 806.49 290.82 L 809.26 283.84 C810.79,280.00 811.78,276.45 811.47,275.94 C810.05,273.65 796.34,270.60 787.50,270.60 C777.08,270.61 770.52,272.46 763.69,277.32 C752.01,285.62 745.97,301.15 747.48,319.00 C749.26,340.03 757.10,351.36 773.45,356.52 C779.26,358.36 794.27,358.18 802.00,356.18 ZM 395.00 356.95 C404.94,354.74 405.00,354.68 405.00,346.27 C405.00,339.55 404.82,338.86 403.25,339.46 C393.69,343.15 380.54,343.90 374.50,341.11 C366.42,337.38 363.00,330.93 362.25,318.00 C361.37,302.98 365.27,292.67 373.67,287.76 C378.37,285.01 387.94,285.20 396.08,288.20 L 402.65 290.63 L 405.33 283.72 C406.80,279.93 407.76,276.42 407.46,275.94 C405.97,273.53 393.24,270.78 383.50,270.77 C370.69,270.74 363.85,273.14 356.28,280.30 C346.97,289.10 342.25,303.18 343.46,318.50 C345.16,339.91 352.95,351.31 369.45,356.52 C374.37,358.08 388.83,358.32 395.00,356.95 ZM 846.00 314.61 C846.00,292.17 846.25,287.12 847.39,286.68 C850.09,285.64 863.56,287.19 867.73,289.02 C878.96,293.94 883.26,315.50 876.00,330.50 C872.41,337.92 864.01,341.98 852.25,341.99 L 846.00 342.00 ZM 442.00 272.00 L 424.04 272.00 L 423.77 314.08 C423.62,337.23 423.69,356.36 423.92,356.58 C424.15,356.81 428.31,357.00 433.17,357.00 L 442.00 357.00 ZM 992.50 376.15 C992.50,377.16 990.46,377.55 984.50,377.69 C980.10,377.79 975.94,377.64 975.25,377.36 C973.12,376.46 973.88,375.00 976.47,375.00 C978.23,375.00 979.42,374.10 980.57,371.87 C982.10,368.91 982.08,368.63 980.22,366.77 C978.54,365.10 978.41,364.37 979.36,361.86 C980.23,359.55 981.40,358.68 984.74,357.84 C987.18,357.22 989.00,356.17 989.00,355.38 C989.00,354.62 988.58,354.00 988.07,354.00 C987.55,354.00 985.90,353.53 984.40,352.96 C982.40,352.20 981.97,351.63 982.79,350.81 C983.61,349.99 986.03,350.30 991.95,351.99 C996.38,353.25 1000.00,354.66 1000.00,355.12 C1000.00,357.15 996.68,364.01 995.64,364.12 C992.58,364.42 990.35,363.66 988.90,361.79 C987.44,359.93 986.96,359.86 983.50,361.00 L 979.70 362.25 L 986.10 368.52 C989.62,371.97 992.50,375.40 992.50,376.15 ZM 754.33 473.96 C751.07,476.52 748.39,476.54 744.25,474.01 C741.51,472.34 741.00,471.44 741.00,468.26 C741.01,463.58 744.15,458.25 747.38,457.44 C750.81,456.58 756.87,459.65 757.62,462.63 C758.62,466.59 757.11,471.77 754.33,473.96 ZM 848.95 160.34 C847.32,162.41 845.99,163.00 842.93,163.00 C837.53,163.00 835.00,160.33 835.00,154.63 C835.00,148.68 837.91,145.00 842.64,145.00 C847.28,145.00 849.47,146.30 850.98,149.94 C852.45,153.50 851.83,156.67 848.95,160.34 ZM 358.99 155.75 C354.55,148.47 358.06,141.00 365.93,141.00 C370.96,141.00 373.50,144.28 373.50,150.79 C373.50,156.28 370.64,159.00 364.87,159.00 C361.54,159.00 360.68,158.52 358.99,155.75 ZM 1003.55 314.55 C1001.69,316.40 1000.03,317.00 996.74,317.00 C994.34,317.00 991.64,316.44 990.74,315.75 C986.76,312.73 986.54,305.14 990.34,302.47 C993.74,300.09 1001.24,300.56 1003.83,303.31 C1006.81,306.49 1006.68,311.41 1003.55,314.55 ZM 375.72 482.30 C374.13,481.89 374.00,480.97 374.51,474.17 C375.39,462.49 375.58,459.24 377.14,458.34 C377.73,458.00 378.53,458.00 379.65,458.00 C379.74,458.00 379.84,458.00 379.94,458.00 C386.57,458.00 390.00,459.06 390.00,461.12 C390.00,462.68 389.23,463.00 385.50,463.00 C381.37,463.00 381.00,463.20 381.00,465.50 C381.00,467.76 381.40,468.00 385.07,468.00 C388.71,468.00 389.11,468.24 388.82,470.23 C388.54,472.21 388.00,472.43 384.18,472.15 L 379.86 471.84 L 380.18 475.17 C380.47,478.19 380.85,478.55 384.28,479.00 C386.36,479.27 388.05,479.84 388.03,480.25 C388.01,480.66 388.00,481.45 388.00,482.00 C388.00,482.99 379.19,483.21 375.72,482.30 ZM 816.44 484.78 C815.23,486.51 813.90,487.00 810.44,487.00 C804.50,487.00 802.00,484.53 802.00,478.63 C802.00,470.10 809.06,466.11 815.37,471.07 C817.54,472.79 818.00,473.96 818.00,477.85 C818.00,480.49 817.32,483.53 816.44,484.78 ZM 396.50 483.12 C394.38,482.67 393.40,481.82 393.18,480.21 C392.87,478.05 393.14,477.94 398.18,478.21 C402.93,478.47 403.50,478.29 403.50,476.50 C403.50,475.23 402.28,473.89 400.18,472.84 C392.78,469.14 390.81,464.11 395.19,460.04 C397.50,457.89 404.25,457.24 406.90,458.91 C409.51,460.57 407.31,462.87 402.80,463.19 C397.62,463.56 397.00,465.78 401.50,467.87 C406.30,470.10 409.00,473.08 409.00,476.17 C409.00,479.17 405.96,483.00 403.58,483.00 C402.80,483.00 401.56,483.17 400.83,483.38 C400.10,483.59 398.15,483.47 396.50,483.12 ZM 225.25 290.26 C219.52,288.82 219.00,288.47 219.00,285.99 C219.00,281.92 223.03,276.56 226.39,276.17 C230.66,275.68 235.07,277.94 236.51,281.37 C237.21,283.03 237.65,284.87 237.48,285.45 C237.31,286.03 236.90,287.74 236.56,289.25 C235.86,292.48 234.54,292.60 225.25,290.26 ZM 378.63 156.21 C378.36,155.78 378.04,151.84 377.91,147.46 L 377.67 139.50 L 382.02 139.18 C387.66,138.77 390.77,140.51 391.93,144.71 C393.29,149.63 391.52,153.89 387.40,155.61 C383.73,157.14 379.39,157.44 378.63,156.21 ZM 785.75 161.33 C784.40,163.18 775.31,166.34 774.66,165.19 C774.21,164.41 772.35,155.93 771.69,151.68 C771.33,149.40 771.72,148.68 773.69,147.93 C780.85,145.21 787.00,148.83 787.00,155.76 C787.00,157.88 786.44,160.39 785.75,161.33 ZM 216.87 347.32 C216.80,345.77 216.64,343.46 216.51,342.19 C216.37,340.92 216.91,339.23 217.70,338.44 C219.35,336.80 222.59,336.53 223.48,337.96 C223.81,338.50 224.94,338.06 226.04,336.96 C229.91,333.09 233.40,335.64 234.51,343.14 L 235.19 347.78 L 227.85 348.46 C223.81,348.84 219.71,349.37 218.75,349.64 C217.40,350.02 216.97,349.49 216.87,347.32 ZM 357.00 478.61 C357.00,477.84 357.71,473.77 358.58,469.55 C360.36,460.95 360.10,459.30 356.89,458.83 C354.44,458.47 353.63,457.14 354.77,455.34 C355.33,454.46 357.62,454.55 364.01,455.71 C368.68,456.56 372.65,457.39 372.84,457.55 C373.03,457.72 372.91,458.69 372.59,459.72 C372.13,461.17 371.25,461.51 368.71,461.21 L 365.42 460.83 L 364.15 468.67 C363.45,472.97 362.65,477.29 362.37,478.25 C361.76,480.36 357.00,480.68 357.00,478.61 ZM 419.59 480.38 C419.31,479.65 418.55,475.21 417.89,470.53 L 416.70 462.00 L 413.35 462.00 C410.74,462.00 410.00,461.59 410.00,460.12 C410.00,458.07 411.48,457.61 421.75,456.45 C427.68,455.78 428.00,455.85 428.00,457.87 C428.00,459.23 427.36,460.01 426.25,460.02 C421.75,460.05 421.48,462.97 424.57,478.12 C425.02,480.32 424.70,480.82 422.60,481.23 C421.07,481.52 419.90,481.19 419.59,480.38 ZM 738.27 461.48 C734.69,468.01 732.00,470.74 732.00,467.83 C732.01,467.10 732.93,464.99 734.05,463.15 C737.18,458.02 735.99,457.61 730.82,462.03 C725.29,466.76 724.50,466.16 725.43,457.90 C725.80,454.66 725.88,452.00 725.62,452.00 C725.36,452.00 724.11,454.06 722.86,456.57 C720.37,461.54 719.44,462.53 718.57,461.12 C718.26,460.61 719.66,456.99 721.68,453.06 C724.20,448.16 725.84,446.02 726.92,446.24 C728.21,446.51 728.44,447.81 728.19,453.28 C728.02,456.98 728.21,460.00 728.62,460.00 C729.03,460.00 731.58,458.14 734.27,455.87 C738.53,452.28 739.36,451.93 740.61,453.18 C741.86,454.43 741.55,455.51 738.27,461.48 ZM 826.00 483.50 C826.00,486.68 824.77,488.14 823.69,486.25 C823.45,485.84 822.94,481.79 822.56,477.25 L 821.86 469.00 L 826.73 469.00 C829.41,469.00 832.14,469.54 832.80,470.20 C834.31,471.71 834.36,476.24 832.87,477.73 C832.04,478.56 832.32,479.78 833.95,482.43 C835.74,485.31 835.87,486.00 834.65,486.00 C833.82,486.00 832.17,484.65 831.00,483.00 C828.06,478.88 826.00,479.08 826.00,483.50 ZM 598.41 344.15 C598.12,344.62 597.57,344.98 597.19,344.95 C595.90,344.87 585.00,334.46 585.00,333.32 C585.00,331.37 591.16,326.88 593.39,327.20 C594.68,327.38 596.21,328.96 597.33,331.25 C598.83,334.31 599.70,335.00 602.08,335.00 C604.09,335.00 605.00,335.50 605.00,336.59 C605.00,337.93 604.20,338.08 600.11,337.51 C594.30,336.72 593.14,337.84 596.50,341.00 C597.84,342.26 598.70,343.68 598.41,344.15 ZM 526.26 227.81 C524.14,225.70 524.01,225.68 522.07,227.43 C520.89,228.51 519.38,228.98 518.38,228.59 C517.85,228.39 517.45,228.25 517.36,228.00 C517.10,227.36 518.80,225.96 525.17,220.69 L 525.70 220.26 L 530.84 216.02 L 533.42 219.09 C536.89,223.21 536.90,227.71 533.43,229.02 C529.73,230.43 528.70,230.26 526.26,227.81 ZM 774.01 480.47 C773.48,481.86 772.60,483.00 772.05,483.00 C770.75,483.00 768.63,478.69 767.03,472.75 C766.32,470.14 765.41,468.00 765.01,468.00 C764.60,468.00 763.70,470.70 763.00,474.00 C761.72,480.05 760.00,482.08 760.00,477.55 C760.00,476.20 760.67,472.51 761.50,469.35 C764.06,459.50 765.80,459.64 769.13,469.98 C771.46,477.20 772.37,477.92 773.30,473.27 C774.23,468.62 775.95,464.85 776.87,465.42 C777.72,465.95 775.92,475.45 774.01,480.47 ZM 555.13 272.65 C554.32,271.68 554.66,269.41 556.45,263.94 C557.79,259.87 558.77,256.43 558.63,256.30 C558.50,256.17 556.23,257.84 553.59,260.02 C549.59,263.33 547.00,264.31 547.00,262.50 C547.00,262.30 549.99,259.59 553.64,256.49 C559.15,251.81 560.51,251.08 561.61,252.18 C562.71,253.28 562.51,254.66 560.47,260.30 C559.11,264.03 558.00,267.55 558.00,268.11 C558.00,268.66 560.22,267.25 562.93,264.96 C569.43,259.48 571.69,260.76 565.36,266.34 C556.90,273.79 556.35,274.13 555.13,272.65 ZM 543.75 259.41 C543.43,259.09 543.63,257.50 544.20,255.87 C545.54,252.00 542.96,248.78 538.85,249.21 C533.57,249.76 535.74,247.48 543.10,244.76 C555.62,240.12 556.20,240.78 549.75,252.37 C545.59,259.84 544.94,260.60 543.75,259.41 ZM 635.01 299.01 C636.38,301.58 634.95,303.87 633.27,301.79 C631.43,299.50 626.00,288.11 626.00,286.53 C626.00,284.40 627.47,284.59 635.97,287.86 C643.66,290.81 646.98,293.85 641.26,292.70 C638.91,292.23 637.77,292.62 636.04,294.46 C634.17,296.45 634.01,297.15 635.01,299.01 ZM 808.81 158.27 C808.64,159.96 807.94,161.53 807.25,161.76 C806.31,162.06 806.00,159.90 806.00,153.08 L 806.00 144.00 L 810.30 144.00 C815.27,144.00 817.00,145.31 817.00,149.08 C817.00,152.13 815.65,153.55 811.80,154.51 C809.72,155.04 809.04,155.88 808.81,158.27 ZM 1002.97 332.54 C1001.37,334.46 997.55,334.40 995.57,332.43 C994.71,331.56 994.00,329.34 994.00,327.49 C994.00,324.43 993.71,324.10 990.75,323.81 C985.03,323.26 988.27,321.49 994.50,321.76 C1004.80,322.20 1005.33,322.48 1004.71,327.09 C1004.42,329.28 1003.63,331.74 1002.97,332.54 ZM 369.00 155.00 C371.26,152.74 371.52,150.24 369.88,146.63 C368.44,143.48 365.20,142.64 362.15,144.63 C360.09,145.99 359.84,146.76 360.32,150.32 C361.16,156.59 365.22,158.78 369.00,155.00 ZM 839.75 159.92 C844.11,162.46 847.96,159.58 848.19,153.61 C848.34,149.61 847.67,148.58 844.30,147.56 C840.98,146.56 838.00,150.06 838.00,154.95 C838.00,157.66 838.55,159.22 839.75,159.92 ZM 745.20 471.80 C745.86,472.46 747.65,473.00 749.17,473.00 C754.20,473.00 757.22,463.26 752.91,460.95 C751.76,460.33 749.81,460.08 748.58,460.39 C744.80,461.34 742.50,469.10 745.20,471.80 ZM 806.04 483.07 C807.47,485.75 812.57,485.67 814.03,482.94 C815.56,480.09 815.56,475.38 814.03,473.53 C813.33,472.69 811.48,472.00 809.91,472.00 C805.55,472.00 803.40,478.14 806.04,483.07 ZM 990.82 311.50 C991.78,313.61 992.64,314.00 996.28,314.00 C1001.24,314.00 1003.00,312.69 1003.00,309.00 C1003.00,305.31 1001.24,304.00 996.28,304.00 C992.64,304.00 991.78,304.39 990.82,306.50 C989.97,308.37 989.97,309.63 990.82,311.50 ZM 215.00 330.50 C215.00,329.31 216.43,329.00 221.88,329.00 C229.59,329.00 231.64,327.71 230.59,323.51 C229.92,320.82 229.46,320.71 220.25,320.99 C216.08,321.11 215.00,320.82 215.00,319.57 C215.00,317.10 229.07,317.32 231.35,319.83 C233.82,322.57 233.50,328.53 230.78,330.44 C227.68,332.61 215.00,332.66 215.00,330.50 ZM 397.00 138.00 L 402.00 138.00 C405.78,138.00 407.00,138.37 407.00,139.50 C407.00,140.55 405.94,141.00 403.50,141.00 C400.43,141.00 400.00,141.31 400.00,143.50 C400.00,145.69 400.43,146.00 403.50,146.00 C405.42,146.00 407.00,146.45 407.00,147.00 C407.00,147.55 405.42,148.00 403.50,148.00 C400.28,148.00 400.00,148.24 400.00,151.00 C400.00,153.76 400.28,154.00 403.50,154.00 C405.42,154.00 407.00,154.45 407.00,155.00 C407.00,155.55 404.75,156.00 402.00,156.00 L 397.00 156.00 ZM 977.75 405.50 C976.51,407.41 975.16,408.98 974.75,408.99 C973.64,409.01 973.84,406.22 975.00,405.50 C976.55,404.54 976.18,401.28 974.44,400.62 C973.48,400.25 971.97,401.06 970.48,402.76 C968.53,404.97 968.06,405.16 968.03,403.74 C968.01,402.77 968.56,401.07 969.25,399.96 C970.28,398.29 970.24,397.77 969.00,396.98 C966.53,395.42 965.02,395.86 963.82,398.50 C962.62,401.14 961.00,401.86 961.00,399.75 C961.01,399.06 961.92,397.00 963.04,395.16 C964.43,392.88 965.58,392.01 966.66,392.42 C969.44,393.49 979.96,400.47 979.98,401.26 C979.99,401.68 978.99,403.59 977.75,405.50 ZM 629.81 309.04 C628.61,310.67 627.15,311.99 626.56,311.99 C624.97,311.96 614.00,302.02 614.00,300.60 C614.00,299.02 619.78,293.45 620.59,294.26 C620.93,294.60 620.48,295.90 619.60,297.16 C617.56,300.07 617.57,301.62 619.64,302.42 C620.67,302.81 621.81,302.29 622.70,301.02 C623.48,299.91 624.54,299.00 625.06,299.00 C626.53,299.00 626.16,301.16 624.35,303.17 C622.80,304.88 622.81,305.14 624.52,307.02 C626.35,309.04 626.35,309.04 629.17,306.33 C632.52,303.13 632.92,304.83 629.81,309.04 ZM 611.41 329.92 C609.99,331.62 608.52,333.00 608.14,333.00 C607.76,333.00 604.65,330.41 601.22,327.25 L 594.98 321.50 L 597.83 318.11 C601.33,313.94 604.23,314.17 600.94,318.35 C598.91,320.94 598.86,321.29 600.34,322.77 C601.83,324.26 602.16,324.20 604.48,322.02 C607.64,319.05 609.11,320.19 606.16,323.33 L 603.97 325.66 L 605.99 327.50 C607.97,329.28 608.08,329.27 610.32,327.16 C614.65,323.10 615.44,325.13 611.41,329.92 ZM 234.81 285.80 C235.48,279.99 226.88,276.48 223.56,281.22 C220.81,285.15 221.56,286.69 226.75,287.78 C233.32,289.17 234.45,288.89 234.81,285.80 ZM 1002.51 343.93 C1001.59,349.39 1000.00,350.10 1000.00,345.06 C1000.00,341.45 999.73,341.00 997.62,341.00 C995.79,341.00 995.11,341.68 994.65,344.00 C994.32,345.65 993.57,347.00 992.98,347.00 C992.31,347.00 992.14,345.75 992.54,343.63 C993.11,340.60 992.92,340.22 990.61,339.78 C987.54,339.19 987.00,339.62 987.00,342.61 C987.00,344.78 985.39,346.72 984.40,345.73 C983.91,345.25 985.51,337.16 986.23,336.44 C986.68,335.98 1002.13,338.80 1002.78,339.45 C1003.01,339.68 1002.89,341.69 1002.51,343.93 ZM 659.48 275.43 C657.99,277.40 656.43,279.00 656.02,279.00 C655.61,279.00 652.48,276.41 649.07,273.25 L 642.86 267.50 L 645.83 264.00 C649.18,260.06 651.09,260.41 648.43,264.47 C646.83,266.90 646.82,267.25 648.30,268.73 C649.78,270.21 650.07,270.14 651.87,267.92 C654.32,264.89 655.83,266.08 653.68,269.36 C652.21,271.61 652.23,271.90 654.06,273.55 C655.95,275.26 656.12,275.24 658.51,272.99 C662.06,269.65 662.69,271.23 659.48,275.43 ZM 388.75 150.84 C389.70,148.86 389.75,147.46 388.95,145.36 C387.69,142.06 386.35,141.04 383.25,141.02 C381.14,141.00 381.00,141.42 381.00,147.56 L 381.00 154.13 L 384.24 153.81 C386.60,153.59 387.83,152.77 388.75,150.84 ZM 801.77 160.80 C802.04,161.62 800.62,162.00 797.22,162.00 L 792.28 162.00 L 791.65 156.75 C790.51,147.26 790.77,145.30 793.25,144.63 C794.49,144.30 796.55,144.02 797.83,144.01 C801.06,143.99 800.06,146.42 796.67,146.82 C794.57,147.06 794.00,147.67 794.00,149.63 C794.00,151.83 794.37,152.09 797.15,151.81 C799.02,151.63 800.48,152.01 800.73,152.75 C801.03,153.60 800.00,154.00 797.52,154.00 C794.13,154.00 793.89,154.19 794.18,156.75 C794.46,159.14 794.95,159.51 797.93,159.55 C799.82,159.58 801.55,160.15 801.77,160.80 ZM 649.41 286.92 C646.76,290.07 645.52,290.65 644.59,289.15 C644.30,288.68 645.18,287.34 646.53,286.16 C649.17,283.86 649.40,283.19 648.20,281.29 C647.61,280.36 646.46,280.42 643.17,281.55 C637.78,283.41 635.00,282.21 635.00,278.04 C635.00,274.86 640.07,269.72 640.86,272.09 C641.09,272.77 640.54,273.86 639.64,274.52 C638.74,275.18 638.00,276.74 638.00,277.98 C638.00,279.86 638.37,280.12 640.25,279.51 C645.88,277.71 649.33,277.72 650.67,279.56 C652.56,282.15 652.34,283.44 649.41,286.92 ZM 775.61 156.36 C776.22,161.53 776.48,162.00 778.78,162.00 C783.30,162.00 785.66,155.66 782.67,151.57 C781.47,149.93 776.63,149.03 775.43,150.23 C775.17,150.50 775.25,153.26 775.61,156.36 ZM 346.30 161.98 C341.57,160.09 339.44,151.13 342.75,147.08 C345.03,144.29 352.00,143.00 352.00,145.37 C352.00,146.50 351.12,147.00 349.12,147.00 C345.21,147.00 343.61,149.20 344.32,153.60 C345.22,159.10 346.70,160.31 351.71,159.63 C356.18,159.01 357.67,160.39 353.75,161.51 C349.31,162.79 348.47,162.84 346.30,161.98 ZM 860.50 163.02 C860.14,164.66 859.43,166.00 858.92,166.00 C858.41,166.00 857.98,165.89 857.96,165.75 C857.94,165.61 857.78,162.80 857.61,159.50 C857.44,156.20 856.94,151.98 856.50,150.12 C855.87,147.45 855.99,146.83 857.07,147.19 C857.82,147.44 858.92,149.60 859.50,151.98 L 860.55 156.32 L 863.27 153.09 C864.77,151.31 866.68,150.00 867.52,150.18 C868.66,150.42 868.05,151.70 865.10,155.27 C862.93,157.89 860.86,161.38 860.50,163.02 ZM 530.75 243.54 C529.24,241.72 528.00,239.82 528.00,239.32 C528.00,238.83 530.11,236.64 532.69,234.46 C540.04,228.26 541.05,227.65 542.17,228.77 C542.85,229.45 541.20,231.42 537.20,234.76 L 531.21 239.74 L 533.51 242.62 C535.62,245.26 535.91,247.11 534.19,246.93 C533.81,246.89 532.26,245.36 530.75,243.54 ZM 985.71 391.53 C982.82,397.40 980.69,398.79 981.61,394.19 C982.13,391.58 981.72,391.13 976.09,388.13 C972.74,386.34 970.00,384.46 970.00,383.94 C970.00,382.39 971.74,382.84 977.98,385.99 L 983.90 388.98 L 985.43 386.80 C988.23,382.79 988.42,385.99 985.71,391.53 ZM 224.58 304.62 C219.88,303.96 216.48,302.98 216.23,302.22 C215.90,301.21 217.52,301.08 223.77,301.60 L 231.73 302.26 L 232.41 298.63 C233.17,294.58 235.00,293.69 235.00,297.38 C235.00,300.82 233.85,306.02 233.12,305.87 C232.78,305.80 228.93,305.24 224.58,304.62 ZM 794.24 479.42 C793.82,482.76 792.94,485.52 792.22,485.76 C791.21,486.10 791.08,484.46 791.61,478.09 L 792.29 470.00 L 789.64 470.00 C788.19,470.00 787.00,469.53 787.00,468.95 C787.00,467.41 799.24,468.18 799.75,469.75 C800.00,470.49 799.30,471.00 798.05,471.00 C795.53,471.00 795.21,471.72 794.24,479.42 ZM 832.00 161.11 C832.00,162.20 822.31,162.31 821.64,161.22 C821.37,160.80 821.41,156.75 821.72,152.22 C822.14,146.11 822.65,144.00 823.68,144.00 C824.82,144.00 824.95,145.42 824.40,151.50 L 823.72 159.00 L 826.28 159.00 C829.47,159.00 832.00,159.93 832.00,161.11 ZM 621.06 318.78 C619.44,320.55 617.64,322.00 617.07,322.00 C615.53,322.00 605.18,312.71 605.08,311.25 C604.94,309.12 606.42,309.83 611.95,314.55 L 617.28 319.10 L 619.95 316.55 C624.73,311.97 625.63,313.77 621.06,318.78 ZM 782.00 483.59 C782.00,483.81 781.29,484.00 780.43,484.00 C779.42,484.00 779.04,483.38 779.35,482.25 C779.61,481.29 780.11,478.70 780.45,476.50 C781.69,468.50 782.18,467.00 783.58,467.00 C784.36,467.00 785.00,467.11 785.00,467.25 C785.00,467.39 784.32,471.03 783.50,475.34 C782.67,479.65 782.00,483.36 782.00,483.59 ZM 219.25 312.28 C217.13,312.01 216.00,311.33 216.00,310.30 C216.00,309.01 216.82,308.84 220.64,309.36 C223.19,309.71 227.02,310.00 229.14,310.00 C231.90,310.00 233.00,310.43 233.00,311.50 C233.00,313.01 227.63,313.32 219.25,312.28 ZM 532.93 225.13 C533.70,223.70 533.50,222.86 532.13,221.62 C530.45,220.10 530.20,220.12 528.54,221.95 C527.56,223.04 527.02,224.62 527.35,225.46 C528.17,227.60 531.72,227.39 532.93,225.13 ZM 808.00 149.00 C808.00,151.83 808.27,152.10 810.75,151.82 C812.93,151.57 813.50,150.98 813.50,149.00 C813.50,147.02 812.93,146.43 810.75,146.18 C808.27,145.90 808.00,146.17 808.00,149.00 ZM 231.80 342.12 C231.57,340.08 230.95,339.50 229.01,339.50 C227.42,339.50 226.40,340.14 226.18,341.30 C225.69,343.84 227.71,345.89 230.09,345.27 C231.58,344.88 232.03,344.05 231.80,342.12 ZM 997.23 329.83 C999.18,331.78 1001.47,330.73 1001.82,327.74 C1002.10,325.28 1001.82,325.00 999.07,325.00 C996.78,325.00 996.00,325.46 996.00,326.80 C996.00,327.79 996.55,329.15 997.23,329.83 ZM 825.00 474.63 C825.00,476.77 825.40,477.09 827.75,476.82 C831.24,476.41 832.21,472.52 829.07,471.52 C826.29,470.64 825.00,471.63 825.00,474.63 ZM 590.29 335.03 C592.80,337.07 595.00,336.05 595.00,332.85 C595.00,330.16 592.29,329.43 590.00,331.50 C588.11,333.21 588.11,333.27 590.29,335.03 ZM 991.00 358.07 C991.00,360.68 991.34,361.09 993.24,360.82 C995.80,360.45 996.87,357.17 994.85,355.89 C992.27,354.25 991.00,354.97 991.00,358.07 ZM 223.82 343.25 C223.59,341.27 222.94,340.50 221.50,340.50 C220.06,340.50 219.41,341.27 219.18,343.25 C218.91,345.63 219.22,346.00 221.50,346.00 C223.78,346.00 224.09,345.63 223.82,343.25 ZM 549.27 247.88 C550.96,244.91 550.96,244.80 549.27,245.50 C548.30,245.90 546.72,246.45 545.77,246.72 C544.42,247.11 544.27,247.63 545.06,249.11 C546.45,251.71 547.22,251.49 549.27,247.88 ZM 630.54 291.07 C631.83,293.57 632.39,293.92 633.56,292.95 C635.59,291.26 635.37,290.49 632.45,289.16 C628.86,287.53 628.76,287.63 630.54,291.07 ZM 983.02 374.25 C983.01,374.66 984.12,375.00 985.50,375.00 C988.36,375.00 988.71,373.84 986.42,371.94 C985.12,370.85 984.69,370.87 983.94,372.06 C983.44,372.85 983.02,373.84 983.02,374.25 ZM 628.56 365.01 C627.99,365.68 627.51,366.24 627.16,366.64 C625.26,368.79 621.10,373.91 617.64,378.34 C620.89,374.13 625.16,368.88 627.16,366.63 C627.52,366.23 627.99,365.68 628.56,365.01 Z" fill="rgb(242,247,253)"/>
<path d="M 798.50 522.01 C776.02,519.60 747.43,510.73 727.50,499.97 C711.03,491.07 692.34,478.71 691.62,476.23 C691.35,475.28 690.60,463.76 689.96,450.62 L 688.80 426.74 L 691.15 424.45 C693.34,422.30 694.78,422.07 712.50,421.06 C722.95,420.47 739.24,419.51 748.69,418.93 L 765.88 417.87 L 773.19 421.38 C782.05,425.63 794.22,429.54 803.00,430.94 C822.93,434.14 848.10,430.32 868.69,420.99 C875.35,417.97 875.55,418.02 874.06,422.60 C870.83,432.52 861.85,466.43 861.78,468.96 C861.66,473.33 864.40,475.75 871.91,477.89 C883.24,481.13 897.03,485.01 909.94,488.60 C916.78,490.50 922.56,492.23 922.79,492.45 C923.49,493.16 914.80,498.20 905.21,502.66 C887.35,510.95 868.78,516.64 849.00,519.89 C834.69,522.24 810.24,523.27 798.50,522.01 ZM 816.44 484.78 C817.32,483.53 818.00,480.49 818.00,477.85 C818.00,473.96 817.54,472.79 815.37,471.07 C809.06,466.11 802.00,470.10 802.00,478.63 C802.00,484.53 804.50,487.00 810.44,487.00 C813.90,487.00 815.23,486.51 816.44,484.78 ZM 826.00 483.50 C826.00,479.08 828.06,478.88 831.00,483.00 C832.17,484.65 833.82,486.00 834.65,486.00 C835.87,486.00 835.74,485.31 833.95,482.43 C832.32,479.78 832.04,478.56 832.87,477.73 C834.36,476.24 834.31,471.71 832.80,470.20 C832.14,469.54 829.41,469.00 826.73,469.00 L 821.86 469.00 L 822.56 477.25 C822.94,481.79 823.45,485.84 823.69,486.25 C824.77,488.14 826.00,486.68 826.00,483.50 ZM 794.24 479.42 C795.21,471.72 795.53,471.00 798.05,471.00 C799.30,471.00 800.00,470.49 799.75,469.75 C799.24,468.18 787.00,467.41 787.00,468.95 C787.00,469.53 788.19,470.00 789.64,470.00 L 792.29 470.00 L 791.61 478.09 C791.08,484.46 791.21,486.10 792.22,485.76 C792.94,485.52 793.82,482.76 794.24,479.42 ZM 782.00 483.59 C782.00,483.36 782.67,479.65 783.50,475.34 C784.32,471.03 785.00,467.39 785.00,467.25 C785.00,467.11 784.36,467.00 783.58,467.00 C782.18,467.00 781.69,468.50 780.45,476.50 C780.11,478.70 779.61,481.29 779.35,482.25 C779.04,483.38 779.42,484.00 780.43,484.00 C781.29,484.00 782.00,483.81 782.00,483.59 ZM 774.01 480.47 C775.92,475.45 777.72,465.95 776.87,465.42 C775.95,464.85 774.23,468.62 773.30,473.27 C772.37,477.92 771.46,477.20 769.13,469.98 C765.80,459.64 764.06,459.50 761.50,469.35 C760.67,472.51 760.00,476.20 760.00,477.55 C760.00,482.08 761.72,480.05 763.00,474.00 C763.70,470.70 764.60,468.00 765.01,468.00 C765.41,468.00 766.32,470.14 767.03,472.75 C768.63,478.69 770.75,483.00 772.05,483.00 C772.60,483.00 773.48,481.86 774.01,480.47 ZM 754.33 473.96 C757.11,471.77 758.62,466.59 757.62,462.63 C756.87,459.65 750.81,456.58 747.38,457.44 C744.15,458.25 741.01,463.58 741.00,468.26 C741.00,471.44 741.51,472.34 744.25,474.01 C748.39,476.54 751.07,476.52 754.33,473.96 ZM 738.27 461.48 C741.55,455.51 741.86,454.43 740.61,453.18 C739.36,451.93 738.53,452.28 734.27,455.87 C731.58,458.14 729.03,460.00 728.62,460.00 C728.21,460.00 728.02,456.98 728.19,453.28 C728.44,447.81 728.21,446.51 726.92,446.24 C725.84,446.02 724.20,448.16 721.68,453.06 C719.66,456.99 718.26,460.61 718.57,461.12 C719.44,462.53 720.37,461.54 722.86,456.57 C724.11,454.06 725.36,452.00 725.62,452.00 C725.88,452.00 725.80,454.66 725.43,457.90 C724.50,466.16 725.29,466.76 730.82,462.03 C735.99,457.61 737.18,458.02 734.05,463.15 C732.93,464.99 732.01,467.10 732.00,467.83 C732.00,470.74 734.69,468.01 738.27,461.48 ZM 931.00 483.02 C929.62,482.57 919.28,479.65 908.00,476.53 C876.25,467.76 877.08,468.06 875.40,464.81 C874.03,462.16 874.14,461.15 876.82,451.72 C878.42,446.10 881.70,434.37 884.11,425.65 L 888.50 409.80 L 894.71 404.84 C923.60,381.79 940.69,343.04 938.52,305.50 C936.44,269.51 920.90,238.73 895.05,219.43 C890.07,215.71 886.16,212.51 886.36,212.31 C886.56,212.11 897.25,210.14 910.11,207.93 C922.97,205.72 934.52,203.49 935.77,202.97 C940.09,201.17 940.24,198.20 936.95,179.18 C930.31,140.83 929.71,136.96 930.33,136.34 C931.70,134.96 949.36,147.14 961.50,157.83 C968.44,163.94 982.32,179.26 987.68,186.73 C1007.04,213.72 1019.19,244.12 1024.61,279.15 C1027.04,294.93 1027.10,327.40 1024.71,342.62 C1020.24,371.13 1011.28,395.86 996.20,421.27 C985.35,439.57 966.14,461.30 947.72,476.13 C937.93,484.00 936.18,484.72 931.00,483.02 ZM 977.75 405.50 C978.99,403.59 979.99,401.68 979.98,401.26 C979.96,400.47 969.44,393.49 966.66,392.42 C965.58,392.01 964.43,392.88 963.04,395.16 C961.92,397.00 961.01,399.06 961.00,399.75 C961.00,401.86 962.62,401.14 963.82,398.50 C965.02,395.86 966.53,395.42 969.00,396.98 C970.24,397.77 970.28,398.29 969.25,399.96 C968.56,401.07 968.01,402.77 968.03,403.74 C968.06,405.16 968.53,404.97 970.48,402.76 C971.97,401.06 973.48,400.25 974.44,400.62 C976.18,401.28 976.55,404.54 975.00,405.50 C973.84,406.22 973.64,409.01 974.75,408.99 C975.16,408.98 976.51,407.41 977.75,405.50 ZM 985.71 391.53 C988.42,385.99 988.23,382.79 985.43,386.80 L 983.90 388.98 L 977.98 385.99 C971.74,382.84 970.00,382.39 970.00,383.94 C970.00,384.46 972.74,386.34 976.09,388.13 C981.72,391.13 982.13,391.58 981.61,394.19 C980.69,398.79 982.82,397.40 985.71,391.53 ZM 992.50 376.15 C992.50,375.40 989.62,371.97 986.10,368.52 L 979.70 362.25 L 983.50 361.00 C986.96,359.86 987.44,359.93 988.90,361.79 C990.35,363.66 992.58,364.42 995.64,364.12 C996.68,364.01 1000.00,357.15 1000.00,355.12 C1000.00,354.66 996.38,353.25 991.95,351.99 C986.03,350.30 983.61,349.99 982.79,350.81 C981.97,351.63 982.40,352.20 984.40,352.96 C985.90,353.53 987.55,354.00 988.07,354.00 C988.58,354.00 989.00,354.62 989.00,355.38 C989.00,356.17 987.18,357.22 984.74,357.84 C981.40,358.68 980.23,359.55 979.36,361.86 C978.41,364.37 978.54,365.10 980.22,366.77 C982.08,368.63 982.10,368.91 980.57,371.87 C979.42,374.10 978.23,375.00 976.47,375.00 C973.88,375.00 973.12,376.46 975.25,377.36 C975.94,377.64 980.10,377.79 984.50,377.69 C990.46,377.55 992.50,377.16 992.50,376.15 ZM 1002.51 343.93 C1002.89,341.69 1003.01,339.68 1002.78,339.45 C1002.13,338.80 986.68,335.98 986.23,336.44 C985.51,337.16 983.91,345.25 984.40,345.73 C985.39,346.72 987.00,344.78 987.00,342.61 C987.00,339.62 987.54,339.19 990.61,339.78 C992.92,340.22 993.11,340.60 992.54,343.63 C992.14,345.75 992.31,347.00 992.98,347.00 C993.57,347.00 994.32,345.65 994.65,344.00 C995.11,341.68 995.79,341.00 997.62,341.00 C999.73,341.00 1000.00,341.45 1000.00,345.06 C1000.00,350.10 1001.59,349.39 1002.51,343.93 ZM 1002.97 332.54 C1003.63,331.74 1004.42,329.28 1004.71,327.09 C1005.33,322.48 1004.80,322.20 994.50,321.76 C988.27,321.49 985.03,323.26 990.75,323.81 C993.71,324.10 994.00,324.43 994.00,327.49 C994.00,329.34 994.71,331.56 995.57,332.43 C997.55,334.40 1001.37,334.46 1002.97,332.54 ZM 1003.55 314.55 C1006.68,311.41 1006.81,306.49 1003.83,303.31 C1001.24,300.56 993.74,300.09 990.34,302.47 C986.54,305.14 986.76,312.73 990.74,315.75 C991.64,316.44 994.34,317.00 996.74,317.00 C1000.03,317.00 1001.69,316.40 1003.55,314.55 ZM 576.38 424.75 C576.94,420.88 579.72,396.42 582.04,375.00 C583.35,362.98 583.27,362.18 580.66,359.57 C578.91,357.82 576.72,357.07 571.91,356.57 C568.39,356.20 557.62,355.03 548.00,353.95 C538.38,352.88 528.78,351.82 526.67,351.59 C524.56,351.36 522.59,350.93 522.30,350.63 C522.00,350.34 526.20,344.85 531.63,338.45 C537.06,332.04 544.65,323.04 548.50,318.43 C558.75,306.18 595.40,263.09 605.43,251.50 C610.19,246.00 622.81,231.15 633.48,218.50 C644.14,205.85 654.59,193.54 656.70,191.14 L 660.53 186.78 L 690.38 188.59 C725.81,190.73 725.01,190.46 724.98,200.32 C724.98,203.72 724.32,216.32 723.52,228.32 C722.32,246.21 721.74,250.56 720.28,252.45 C718.50,254.76 712.29,262.38 671.46,312.42 C659.38,327.23 645.30,344.55 640.16,350.92 C635.02,357.29 629.17,364.36 627.16,366.63 C625.15,368.90 620.83,374.21 617.56,378.44 C614.30,382.66 610.77,387.11 609.72,388.31 C608.67,389.51 600.83,399.16 592.30,409.75 C583.77,420.34 576.56,429.00 576.28,429.00 C576.00,429.00 576.05,427.09 576.38,424.75 ZM 598.41 344.15 C598.70,343.68 597.84,342.26 596.50,341.00 C593.14,337.84 594.30,336.72 600.11,337.51 C604.20,338.08 605.00,337.93 605.00,336.59 C605.00,335.50 604.09,335.00 602.08,335.00 C599.70,335.00 598.83,334.31 597.33,331.25 C596.21,328.96 594.68,327.38 593.39,327.20 C591.16,326.88 585.00,331.37 585.00,333.32 C585.00,334.46 595.90,344.87 597.19,344.95 C597.57,344.98 598.12,344.62 598.41,344.15 ZM 611.41 329.92 C615.44,325.13 614.65,323.10 610.32,327.16 C608.08,329.27 607.97,329.28 605.99,327.50 L 603.97 325.66 L 606.16 323.33 C609.11,320.19 607.64,319.05 604.48,322.02 C602.16,324.20 601.83,324.26 600.34,322.77 C598.86,321.29 598.91,320.94 600.94,318.35 C604.23,314.17 601.33,313.94 597.83,318.11 L 594.98 321.50 L 601.22 327.25 C604.65,330.41 607.76,333.00 608.14,333.00 C608.52,333.00 609.99,331.62 611.41,329.92 ZM 621.06 318.78 C625.63,313.77 624.73,311.97 619.95,316.55 L 617.28 319.10 L 611.95 314.55 C606.42,309.83 604.94,309.12 605.08,311.25 C605.18,312.71 615.53,322.00 617.07,322.00 C617.64,322.00 619.44,320.55 621.06,318.78 ZM 629.81 309.04 C632.92,304.83 632.52,303.13 629.17,306.33 C626.35,309.04 626.35,309.04 624.52,307.02 C622.81,305.14 622.80,304.88 624.35,303.17 C626.16,301.16 626.53,299.00 625.06,299.00 C624.54,299.00 623.48,299.91 622.70,301.02 C621.81,302.29 620.67,302.81 619.64,302.42 C617.57,301.62 617.56,300.07 619.60,297.16 C620.48,295.90 620.93,294.60 620.59,294.26 C619.78,293.45 614.00,299.02 614.00,300.60 C614.00,302.02 624.97,311.96 626.56,311.99 C627.15,311.99 628.61,310.67 629.81,309.04 ZM 635.01 299.01 C634.01,297.15 634.17,296.45 636.04,294.46 C637.77,292.62 638.91,292.23 641.26,292.70 C646.98,293.85 643.66,290.81 635.97,287.86 C627.47,284.59 626.00,284.40 626.00,286.53 C626.00,288.11 631.43,299.50 633.27,301.79 C634.95,303.87 636.38,301.58 635.01,299.01 ZM 649.41 286.92 C652.34,283.44 652.56,282.15 650.67,279.56 C649.33,277.72 645.88,277.71 640.25,279.51 C638.37,280.12 638.00,279.86 638.00,277.98 C638.00,276.74 638.74,275.18 639.64,274.52 C640.54,273.86 641.09,272.77 640.86,272.09 C640.07,269.72 635.00,274.86 635.00,278.04 C635.00,282.21 637.78,283.41 643.17,281.55 C646.46,280.42 647.61,280.36 648.20,281.29 C649.40,283.19 649.17,283.86 646.53,286.16 C645.18,287.34 644.30,288.68 644.59,289.15 C645.52,290.65 646.76,290.07 649.41,286.92 ZM 659.48 275.43 C662.69,271.23 662.06,269.65 658.51,272.99 C656.12,275.24 655.95,275.26 654.06,273.55 C652.23,271.90 652.21,271.61 653.68,269.36 C655.83,266.08 654.32,264.89 651.87,267.92 C650.07,270.14 649.78,270.21 648.30,268.73 C646.82,267.25 646.83,266.90 648.43,264.47 C651.09,260.41 649.18,260.06 645.83,264.00 L 642.86 267.50 L 649.07 273.25 C652.48,276.41 655.61,279.00 656.02,279.00 C656.43,279.00 657.99,277.40 659.48,275.43 ZM 734.34 224.92 C734.70,218.64 735.29,206.94 735.65,198.93 C736.46,180.59 736.47,180.60 722.70,179.60 C705.27,178.34 682.49,177.05 677.25,177.03 C673.43,177.01 672.00,176.62 672.00,175.60 C672.00,173.63 686.74,160.03 697.73,151.87 C711.76,141.44 720.24,136.26 734.56,129.36 C780.19,107.36 831.06,102.56 881.81,115.45 C900.68,120.24 916.72,126.92 917.48,130.29 C918.75,135.89 927.00,186.36 927.00,188.51 C927.00,191.70 923.70,194.65 919.16,195.50 C908.44,197.52 881.54,202.14 875.15,203.07 C868.95,203.97 867.16,203.88 863.74,202.51 C851.86,197.76 827.96,195.17 812.50,196.96 C786.17,200.01 764.00,209.91 743.52,227.76 L 733.68 236.34 L 734.34 224.92 ZM 785.75 161.33 C786.44,160.39 787.00,157.88 787.00,155.76 C787.00,148.83 780.85,145.21 773.69,147.93 C771.72,148.68 771.33,149.40 771.69,151.68 C772.35,155.93 774.21,164.41 774.66,165.19 C775.31,166.34 784.40,163.18 785.75,161.33 ZM 860.50 163.02 C860.86,161.38 862.93,157.89 865.10,155.27 C868.05,151.70 868.66,150.42 867.52,150.18 C866.68,150.00 864.77,151.31 863.27,153.09 L 860.55 156.32 L 859.50 151.98 C858.92,149.60 857.82,147.44 857.07,147.19 C855.99,146.83 855.87,147.45 856.50,150.12 C856.94,151.98 857.44,156.20 857.61,159.50 C857.78,162.80 857.94,165.61 857.96,165.75 C857.98,165.89 858.41,166.00 858.92,166.00 C859.43,166.00 860.14,164.66 860.50,163.02 ZM 848.95 160.34 C851.83,156.67 852.45,153.50 850.98,149.94 C849.47,146.30 847.28,145.00 842.64,145.00 C837.91,145.00 835.00,148.68 835.00,154.63 C835.00,160.33 837.53,163.00 842.93,163.00 C845.99,163.00 847.32,162.41 848.95,160.34 ZM 801.77 160.80 C801.55,160.15 799.82,159.58 797.93,159.55 C794.95,159.51 794.46,159.14 794.18,156.75 C793.89,154.19 794.13,154.00 797.52,154.00 C800.00,154.00 801.03,153.60 800.73,152.75 C800.48,152.01 799.02,151.63 797.15,151.81 C794.37,152.09 794.00,151.83 794.00,149.63 C794.00,147.67 794.57,147.06 796.67,146.82 C800.06,146.42 801.06,143.99 797.83,144.01 C796.55,144.02 794.49,144.30 793.25,144.63 C790.77,145.30 790.51,147.26 791.65,156.75 L 792.28 162.00 L 797.22 162.00 C800.62,162.00 802.04,161.62 801.77,160.80 ZM 808.81 158.27 C809.04,155.88 809.72,155.04 811.80,154.51 C815.65,153.55 817.00,152.13 817.00,149.08 C817.00,145.31 815.27,144.00 810.30,144.00 L 806.00 144.00 L 806.00 153.08 C806.00,159.90 806.31,162.06 807.25,161.76 C807.94,161.53 808.64,159.96 808.81,158.27 ZM 832.00 161.11 C832.00,159.93 829.47,159.00 826.28,159.00 L 823.72 159.00 L 824.40 151.50 C824.95,145.42 824.82,144.00 823.68,144.00 C822.65,144.00 822.14,146.11 821.72,152.22 C821.41,156.75 821.37,160.80 821.64,161.22 C822.31,162.31 832.00,162.20 832.00,161.11 ZM 806.04 483.07 C803.40,478.14 805.55,472.00 809.91,472.00 C811.48,472.00 813.33,472.69 814.03,473.53 C815.56,475.38 815.56,480.09 814.03,482.94 C812.57,485.67 807.47,485.75 806.04,483.07 ZM 825.00 474.63 C825.00,471.63 826.29,470.64 829.07,471.52 C832.21,472.52 831.24,476.41 827.75,476.82 C825.40,477.09 825.00,476.77 825.00,474.63 ZM 745.20 471.80 C742.50,469.10 744.80,461.34 748.58,460.39 C749.81,460.08 751.76,460.33 752.91,460.95 C757.22,463.26 754.20,473.00 749.17,473.00 C747.65,473.00 745.86,472.46 745.20,471.80 ZM 983.02 374.25 C983.02,373.84 983.44,372.85 983.94,372.06 C984.69,370.87 985.12,370.85 986.42,371.94 C988.71,373.84 988.36,375.00 985.50,375.00 C984.12,375.00 983.01,374.66 983.02,374.25 ZM 991.00 358.07 C991.00,354.97 992.27,354.25 994.85,355.89 C996.87,357.17 995.80,360.45 993.24,360.82 C991.34,361.09 991.00,360.68 991.00,358.07 ZM 997.23 329.83 C996.55,329.15 996.00,327.79 996.00,326.80 C996.00,325.46 996.78,325.00 999.07,325.00 C1001.82,325.00 1002.10,325.28 1001.82,327.74 C1001.47,330.73 999.18,331.78 997.23,329.83 ZM 990.82 311.50 C989.97,309.63 989.97,308.37 990.82,306.50 C991.78,304.39 992.64,304.00 996.28,304.00 C1001.24,304.00 1003.00,305.31 1003.00,309.00 C1003.00,312.69 1001.24,314.00 996.28,314.00 C992.64,314.00 991.78,313.61 990.82,311.50 ZM 590.29 335.03 C588.11,333.27 588.11,333.21 590.00,331.50 C592.29,329.43 595.00,330.16 595.00,332.85 C595.00,336.05 592.80,337.07 590.29,335.03 ZM 630.54 291.07 C628.76,287.63 628.86,287.53 632.45,289.16 C635.37,290.49 635.59,291.26 633.56,292.95 C632.39,293.92 631.83,293.57 630.54,291.07 ZM 775.61 156.36 C775.25,153.26 775.17,150.50 775.43,150.23 C776.63,149.03 781.47,149.93 782.67,151.57 C785.66,155.66 783.30,162.00 778.78,162.00 C776.48,162.00 776.22,161.53 775.61,156.36 ZM 839.75 159.92 C838.55,159.22 838.00,157.66 838.00,154.95 C838.00,150.06 840.98,146.56 844.30,147.56 C847.67,148.58 848.34,149.61 848.19,153.61 C847.96,159.58 844.11,162.46 839.75,159.92 ZM 808.00 149.00 C808.00,146.17 808.27,145.90 810.75,146.18 C812.93,146.43 813.50,147.02 813.50,149.00 C813.50,150.98 812.93,151.57 810.75,151.82 C808.27,152.10 808.00,151.83 808.00,149.00 Z" fill="rgb(250,177,46)"/>
</g>
</svg>