<?xml version="1.0" standalone="no"?>
<!DOCTYPE svg PUBLIC "-//W3C//DTD SVG 20010904//EN"
 "http://www.w3.org/TR/2001/REC-SVG-20010904/DTD/svg10.dtd">
<svg version="1.0" xmlns="http://www.w3.org/2000/svg"
 width="280.000000pt" height="180.000000pt" viewBox="0 0 280.000000 180.000000"
 preserveAspectRatio="xMidYMid meet">

<g transform="translate(0.000000,180.000000) scale(0.100000,-0.100000)"
fill="#000000" stroke="none">
<path d="M1588 1728 l-98 -51 -1 -134 c-1 -73 -3 -137 -4 -143 -1 -5 -3 -45
-4 -87 -1 -61 -4 -74 -13 -65 -8 8 -14 53 -16 116 l-4 104 -38 17 -38 17 -71
-36 c-53 -27 -71 -32 -71 -21 0 9 -42 35 -106 65 -58 28 -108 50 -110 50 -2 0
-4 -36 -4 -79 0 -86 6 -99 59 -121 35 -14 41 -30 12 -30 -47 0 -31 -44 19 -55
38 -8 70 2 70 22 0 31 45 -12 50 -48 4 -27 13 -38 40 -51 30 -15 40 -16 73 -4
21 7 43 18 49 24 7 7 19 12 28 12 9 0 21 5 28 12 9 9 18 6 39 -14 24 -22 231
-128 251 -128 4 0 20 -11 36 -24 l30 -23 -22 -12 c-19 -10 -22 -9 -22 7 0 14
-34 35 -135 85 -75 37 -138 67 -140 67 -3 0 -5 -45 -5 -99 0 -99 0 -99 28
-109 15 -6 36 -17 46 -25 19 -14 19 -15 -2 -21 -28 -9 -28 -40 0 -60 29 -20
104 -21 111 -2 5 12 12 13 36 3 26 -9 30 -17 33 -52 3 -36 7 -42 48 -63 45
-23 76 -22 96 4 6 7 13 11 16 8 3 -3 -15 -25 -41 -49 -30 -29 -43 -47 -36 -53
6 -5 39 -24 74 -43 62 -32 64 -32 95 -15 46 24 157 126 150 137 -10 17 -125
70 -147 68 -38 -2 -41 1 -20 20 15 14 22 38 27 83 8 74 9 76 56 108 19 14 44
32 54 42 11 10 23 18 28 18 4 0 12 17 17 38 9 37 54 376 55 421 1 22 -18 31
-254 122 -140 54 -255 99 -255 99 0 0 -44 -24 -97 -52z m-555 -258 c-3 -12 -8
-19 -11 -16 -5 6 5 36 12 36 2 0 2 -9 -1 -20z m142 0 c3 -5 2 -10 -4 -10 -5 0
-13 5 -16 10 -3 6 -2 10 4 10 5 0 13 -4 16 -10z m-31 -9 c3 -5 -6 -8 -20 -8
-13 0 -32 -7 -42 -15 -9 -9 -22 -13 -29 -11 -6 2 -13 -4 -16 -14 -4 -15 -5
-15 -6 -2 -1 22 21 40 62 49 45 11 45 11 51 1z m460 -350 c3 -4 -6 -6 -19 -3
-14 2 -25 6 -25 8 0 8 39 4 44 -5z m-21 -18 c-7 -2 -19 -2 -25 0 -7 3 -2 5 12
5 14 0 19 -2 13 -5z m-56 -25 c2 -18 0 -20 -7 -8 -12 18 -13 30 -2 30 4 0 9
-10 9 -22z m412 -252 c-2 -2 -15 -9 -29 -15 -24 -11 -24 -11 -6 3 16 13 49 24
35 12z m77 -71 c19 18 44 19 67 3 16 -12 14 -16 -18 -41 -35 -28 -37 -28 -70
-13 -32 15 -57 38 -38 35 21 -4 33 3 34 19 1 16 2 16 6 0 4 -16 6 -16 19 -3z"/>
<path d="M2056 739 c4 -7 0 -9 -14 -5 -11 4 -23 2 -27 -4 -3 -6 -10 -8 -14 -6
-4 3 -13 0 -21 -6 -12 -8 -12 -9 3 -4 9 3 17 0 17 -6 0 -6 9 -3 20 7 20 18 21
18 14 -1 -7 -19 -7 -19 14 0 24 21 28 36 11 36 -5 0 -7 -5 -3 -11z"/>
<path d="M247 1321 c4 -16 16 -25 66 -49 4 -2 7 4 7 12 0 9 -15 25 -32 36 -41
25 -47 25 -41 1z"/>
<path d="M867 1301 c-15 -10 -30 -20 -33 -23 -3 -3 41 -32 98 -63 l103 -57 35
20 c19 11 35 23 37 28 2 7 -200 116 -210 113 -1 0 -14 -8 -30 -18z"/>
<path d="M728 1198 c2 -57 8 -109 14 -116 9 -11 7 -11 -14 -2 -20 10 -30 8
-56 -7 l-31 -19 83 -51 c79 -49 83 -50 111 -36 15 9 33 16 39 17 6 1 21 8 34
14 20 12 22 20 22 106 l0 94 -95 51 c-53 28 -99 51 -103 51 -4 0 -6 -46 -4
-102z m19 50 c-3 -7 -5 -2 -5 12 0 14 2 19 5 13 2 -7 2 -19 0 -25z m115 -47
c-14 -8 -3 -23 28 -34 13 -5 13 -5 0 -6 -22 -1 -53 26 -45 38 3 6 12 11 18 11
8 0 8 -3 -1 -9z m38 -12 c0 -6 -4 -7 -10 -4 -5 3 -10 11 -10 16 0 6 5 7 10 4
6 -3 10 -11 10 -16z m17 -61 c-3 -7 -5 -2 -5 12 0 14 2 19 5 13 2 -7 2 -19 0
-25z"/>
<path d="M1097 1163 c-4 -3 -7 -12 -7 -20 0 -11 4 -11 20 -3 11 6 18 15 15 21
-7 11 -19 12 -28 2z"/>
<path d="M2290 1158 c0 -7 -6 -52 -13 -99 l-13 -86 72 -32 c62 -28 71 -35 67
-54 -3 -12 -12 -27 -21 -34 -12 -10 -11 -13 11 -18 32 -8 47 0 47 26 0 26 21
24 81 -7 28 -14 52 -24 54 -22 1 2 7 18 14 37 14 44 14 84 -1 101 -11 12 -10
12 5 1 15 -12 17 -11 17 8 0 17 -5 21 -24 17 -19 -3 -23 -1 -19 10 4 10 0 13
-13 8 -16 -5 -16 -4 -4 5 21 15 30 14 31 -6 0 -10 3 -13 5 -6 3 7 12 9 20 6 8
-3 14 -2 14 1 0 4 -24 18 -52 31 -29 12 -102 46 -161 74 -60 28 -110 51 -113
51 -2 0 -4 -6 -4 -12z"/>
<path d="M300 1150 c0 -5 5 -10 11 -10 6 0 8 -7 5 -16 -3 -8 -2 -12 3 -9 14 8
9 45 -6 45 -7 0 -13 -4 -13 -10z"/>
<path d="M565 1071 c3 -5 1 -12 -5 -16 -5 -3 -10 -11 -10 -17 0 -7 6 -6 15 2
17 14 20 40 4 40 -5 0 -8 -4 -4 -9z"/>
<path d="M1037 988 c-48 -28 -87 -57 -87 -63 0 -18 79 -67 106 -67 13 0 43 12
68 26 45 26 60 41 32 30 -11 -4 -116 51 -116 61 0 7 72 45 84 45 8 0 34 -12
60 -26 41 -23 45 -28 34 -42 -12 -15 -11 -16 11 -1 14 9 26 20 28 26 5 14 -83
63 -111 63 -12 0 -61 -23 -109 -52z"/>
<path d="M673 1003 c-19 -7 -16 -21 6 -32 14 -8 22 -7 31 4 9 11 7 16 -7 23
-10 5 -24 7 -30 5z"/>
<path d="M1308 902 c-21 -13 -38 -28 -38 -32 0 -5 153 -96 183 -109 5 -2 24 5
42 15 31 17 34 17 59 0 25 -16 46 -15 46 4 0 7 -149 94 -235 137 -16 8 -28 5
-57 -15z"/>
<path d="M2149 861 c-19 -16 -32 -31 -29 -33 3 -2 76 -39 164 -82 l158 -78 26
25 25 26 -26 12 c-15 7 -27 17 -27 24 0 16 -216 119 -235 111 -9 -3 -13 -2
-10 3 14 23 -15 18 -46 -8z m221 -115 c0 -3 -4 -8 -10 -11 -5 -3 -10 -1 -10 4
0 6 5 11 10 11 6 0 10 -2 10 -4z"/>
<path d="M917 813 c-11 -116 -9 -147 13 -171 12 -12 25 -22 30 -22 5 0 15 -6
22 -13 24 -22 93 -63 126 -75 40 -14 38 -17 47 109 l6 96 -98 58 c-54 32 -107
64 -119 72 -21 13 -21 12 -27 -54z m113 -20 c0 -3 -7 -2 -16 1 -9 3 -12 2 -9
-5 4 -5 15 -7 26 -4 10 4 19 2 19 -3 0 -5 6 -9 13 -9 6 0 29 -10 50 -23 30
-18 37 -27 33 -44 -3 -12 -6 -34 -7 -51 -1 -17 -3 -22 -6 -12 -2 9 -13 17 -23
17 -9 0 -23 7 -30 15 -7 8 -19 15 -26 15 -15 0 -19 15 -6 23 4 2 0 1 -8 -1 -8
-3 -31 -6 -50 -6 -19 -1 -38 -5 -41 -10 -11 -15 -29 4 -29 30 0 14 6 24 15 24
9 0 12 6 8 16 -4 10 -1 15 8 14 29 -5 38 0 32 17 -6 15 -7 15 -14 -3 -7 -18
-8 -18 -8 0 -1 12 -6 16 -16 12 -11 -4 -15 2 -15 24 l0 30 50 -31 c28 -17 50
-33 50 -36z"/>
<path d="M2330 871 c0 -5 7 -11 15 -15 8 -3 15 -1 15 3 0 5 -7 11 -15 15 -8 3
-15 1 -15 -3z"/>
<path d="M437 654 c-60 -37 -111 -73 -114 -81 -8 -21 56 -72 92 -72 31 -1 64
14 54 24 -4 3 -27 20 -53 39 -35 25 -43 35 -34 43 27 20 155 93 163 93 4 0 30
-14 57 -31 45 -29 47 -32 31 -46 -17 -13 -16 -13 3 -4 22 10 50 39 43 45 -34
28 -89 56 -109 56 -14 -1 -74 -30 -133 -66z"/>
<path d="M847 617 l-29 -23 84 -56 c107 -73 110 -74 153 -48 27 17 33 25 25
35 -14 17 -179 115 -193 115 -7 0 -25 -10 -40 -23z"/>
<path d="M1785 617 c-19 -92 -35 -183 -35 -201 0 -13 -14 -30 -35 -45 -20 -13
-34 -29 -32 -35 2 -6 55 -43 118 -83 l114 -72 29 23 c42 32 42 42 4 66 -18 11
-28 20 -23 20 6 0 24 -9 40 -20 61 -40 70 -32 99 87 15 62 22 111 17 116 -5 5
-72 44 -150 87 -132 73 -141 77 -146 57z m81 -38 c30 -17 54 -35 54 -40 0 -6
5 -7 10 -4 6 3 23 -3 39 -14 16 -12 34 -21 40 -21 6 0 11 -5 11 -11 0 -5 3 -8
8 -5 4 2 16 -2 26 -9 17 -13 17 -19 6 -64 -11 -49 -30 -61 -30 -20 0 10 -7 19
-15 19 -8 0 -15 5 -15 10 0 6 -13 10 -30 10 -16 0 -30 4 -30 8 0 11 -69 42
-98 45 -15 1 -22 8 -22 22 0 15 -3 17 -9 7 -14 -24 -22 33 -12 91 2 12 11 9
67 -24z m-86 -106 c-11 -17 -11 -17 -6 0 3 10 6 24 7 30 0 9 2 9 5 0 3 -7 0
-20 -6 -30z m75 -138 c39 -32 29 -32 -15 0 -19 14 -30 25 -24 25 5 -1 23 -12
39 -25z"/>
<path d="M579 589 l-24 -20 28 17 c15 9 27 18 27 20 0 8 -8 4 -31 -17z"/>
<path d="M1364 578 c-4 -7 -3 -8 4 -4 16 10 15 -7 0 -23 -10 -11 -8 -10 10 0
12 8 22 17 22 20 0 13 -29 18 -36 7z"/>
<path d="M2177 475 c-99 -88 -108 -114 -48 -144 20 -11 58 -22 84 -26 l47 -7
85 83 c47 46 84 88 82 93 -6 19 -110 76 -139 76 -20 0 -50 -20 -111 -75z m166
16 l68 -38 -66 -61 -65 -61 -70 40 c-38 23 -70 44 -70 47 -1 10 114 112 125
111 6 0 41 -17 78 -38z"/>
<path d="M849 524 c-10 -12 -8 -17 7 -29 24 -18 39 -19 52 -2 8 9 3 17 -18 29
-25 14 -30 15 -41 2z"/>
<path d="M1724 248 c-8 -13 30 -48 52 -48 24 0 28 30 8 45 -23 18 -50 19 -60
3z"/>
</g>
</svg>
