<?xml version="1.0" standalone="no"?>
<!DOCTYPE svg PUBLIC "-//W3C//DTD SVG 20010904//EN"
 "http://www.w3.org/TR/2001/REC-SVG-20010904/DTD/svg10.dtd">
<svg version="1.0" xmlns="http://www.w3.org/2000/svg"
 width="600.000000pt" height="600.000000pt" viewBox="0 0 600.000000 600.000000"
 preserveAspectRatio="xMidYMid meet">

<g transform="translate(0.000000,600.000000) scale(0.100000,-0.100000)"
fill="#000000" stroke="none">
<path d="M2760 5031 c0 -6 5 -13 10 -16 6 -3 10 1 10 9 0 9 -4 16 -10 16 -5 0
-10 -4 -10 -9z"/>
<path d="M3303 5024 c0 -6 11 -9 24 -6 13 2 23 7 23 11 0 3 -10 6 -23 6 -13 0
-24 -5 -24 -11z"/>
<path d="M1853 5005 c0 -8 6 -15 13 -15 8 0 11 6 8 15 -4 8 -9 15 -13 15 -4 0
-8 -7 -8 -15z"/>
<path d="M1820 5001 c0 -6 4 -13 10 -16 6 -3 7 1 4 9 -7 18 -14 21 -14 7z"/>
<path d="M2000 4995 c-7 -8 -17 -12 -24 -8 -6 3 -4 -2 6 -13 9 -10 18 -28 21
-39 2 -12 4 -9 2 7 -1 22 4 29 27 37 15 6 28 12 28 15 0 3 -7 3 -15 0 -8 -4
-15 -1 -15 5 0 16 -15 14 -30 -4z m20 -4 c0 -5 -7 -12 -16 -15 -14 -5 -15 -4
-4 9 14 17 20 19 20 6z"/>
<path d="M2455 5000 c-3 -5 -2 -10 4 -10 5 0 13 5 16 10 3 6 2 10 -4 10 -5 0
-13 -4 -16 -10z"/>
<path d="M3000 5003 c0 -6 6 -14 13 -16 10 -4 10 -6 0 -6 -7 -1 -13 -6 -13
-12 0 -8 4 -8 14 0 8 7 27 17 43 22 l28 9 -31 -4 c-17 -3 -36 0 -43 7 -8 8
-11 8 -11 0z"/>
<path d="M1763 4985 c0 -8 4 -12 9 -9 4 3 9 -28 10 -68 2 -73 2 -73 5 -13 4
63 -2 105 -16 105 -4 0 -8 -7 -8 -15z"/>
<path d="M1895 4991 c-3 -5 -2 -12 3 -15 5 -3 9 1 9 9 0 17 -3 19 -12 6z"/>
<path d="M1928 4993 c6 -2 18 -2 25 0 6 3 1 5 -13 5 -14 0 -19 -2 -12 -5z"/>
<path d="M2078 4993 c7 -3 16 -2 19 1 4 3 -2 6 -13 5 -11 0 -14 -3 -6 -6z"/>
<path d="M2136 4987 c-16 -12 -16 -13 3 -13 11 0 18 3 15 7 -2 4 4 10 13 12
14 4 14 5 2 6 -8 0 -23 -5 -33 -12z"/>
<path d="M2250 4993 c8 -3 22 -11 30 -17 13 -10 13 -9 1 7 -7 9 -21 17 -30 16
-13 0 -14 -1 -1 -6z"/>
<path d="M2320 4990 c0 -6 7 -10 15 -10 8 0 15 2 15 4 0 2 -7 6 -15 10 -8 3
-15 1 -15 -4z"/>
<path d="M2368 4993 c6 -2 18 -2 25 0 6 3 1 5 -13 5 -14 0 -19 -2 -12 -5z"/>
<path d="M2416 4991 c-3 -5 1 -14 9 -21 10 -9 15 -9 15 -1 0 6 -6 11 -12 11
-9 0 -8 4 2 10 9 6 10 10 3 10 -6 0 -14 -4 -17 -9z"/>
<path d="M2518 4993 c7 -3 16 -2 19 1 4 3 -2 6 -13 5 -11 0 -14 -3 -6 -6z"/>
<path d="M2640 4990 c0 -5 5 -10 11 -10 5 0 7 5 4 10 -3 6 -8 10 -11 10 -2 0
-4 -4 -4 -10z"/>
<path d="M2838 4993 c7 -3 16 -2 19 1 4 3 -2 6 -13 5 -11 0 -14 -3 -6 -6z"/>
<path d="M2918 4993 c7 -3 16 -2 19 1 4 3 -2 6 -13 5 -11 0 -14 -3 -6 -6z"/>
<path d="M3097 4993 c-4 -3 1 -16 12 -27 11 -12 21 -34 24 -51 3 -16 4 -4 4
27 0 31 -4 55 -8 52 -5 -2 -5 -12 -2 -22 6 -15 5 -15 -10 -3 -9 7 -14 17 -11
22 6 11 0 12 -9 2z"/>
<path d="M3190 4990 c-11 -8 -7 -9 15 -4 37 8 45 14 19 14 -10 0 -26 -5 -34
-10z"/>
<path d="M2616 4977 c3 -10 9 -15 12 -12 3 3 0 11 -7 18 -10 9 -11 8 -5 -6z"/>
<path d="M2730 4980 c0 -5 5 -10 11 -10 5 0 7 5 4 10 -3 6 -8 10 -11 10 -2 0
-4 -4 -4 -10z"/>
<path d="M3381 4958 l-1 -38 25 22 c14 12 25 26 25 31 0 6 -9 2 -19 -7 -19
-17 -20 -17 -24 6 -3 15 -5 10 -6 -14z"/>
<path d="M2316 4957 c3 -10 9 -15 12 -12 3 3 0 11 -7 18 -10 9 -11 8 -5 -6z"/>
<path d="M2602 4914 c-1 -31 1 -53 6 -50 8 5 9 92 1 101 -3 2 -6 -21 -7 -51z"/>
<path d="M1926 4942 c-3 -5 1 -9 9 -9 8 0 15 4 15 9 0 4 -4 8 -9 8 -6 0 -12
-4 -15 -8z"/>
<path d="M2035 4940 c-4 -7 3 -8 22 -4 38 9 42 14 10 14 -14 0 -29 -5 -32 -10z"/>
<path d="M2140 4902 c0 -29 4 -52 8 -52 10 0 8 88 -2 97 -3 4 -6 -17 -6 -45z"/>
<path d="M2214 4937 c-3 -8 -4 -34 -1 -58 3 -44 4 -43 5 9 1 28 6 52 11 52 6
0 9 -25 8 -55 -3 -68 1 -75 33 -57 l25 14 -25 -6 c-24 -5 -25 -4 -25 51 0 36
-4 58 -12 60 -7 3 -16 -2 -19 -10z"/>
<path d="M2368 4943 c7 -3 16 -2 19 1 4 3 -2 6 -13 5 -11 0 -14 -3 -6 -6z"/>
<path d="M2440 4896 c0 -52 -1 -55 -27 -59 l-28 -4 28 -2 c20 -1 30 5 36 20
l7 22 20 -24 c20 -26 65 -33 70 -11 1 7 0 9 -2 4 -8 -16 -54 0 -75 27 -13 16
-19 36 -17 53 3 16 1 28 -4 28 -4 0 -8 -24 -8 -54z"/>
<path d="M2533 4943 c4 -6 1 -16 -7 -22 -11 -9 -15 -9 -19 1 -3 7 -6 3 -6 -9
-1 -12 4 -25 11 -29 6 -4 8 -3 5 3 -4 6 0 16 7 22 11 10 15 8 19 -6 3 -12 5
-9 6 9 0 15 -4 30 -11 34 -6 4 -8 3 -5 -3z"/>
<path d="M2665 4940 c-2 -3 5 -7 16 -7 10 -1 19 2 19 6 0 9 -29 10 -35 1z"/>
<path d="M2817 4943 c-4 -3 -7 -28 -7 -55 0 -47 -1 -48 -30 -48 -18 0 -33 -6
-37 -15 -7 -19 5 -34 15 -19 4 6 19 14 35 18 24 6 27 11 27 51 0 25 0 48 -1
51 0 4 5 11 13 15 7 5 8 9 2 9 -6 0 -14 -3 -17 -7z"/>
<path d="M2907 4943 c6 -5 14 -31 16 -58 l4 -50 -1 54 c-1 39 -5 56 -16 58
-10 3 -11 2 -3 -4z"/>
<path d="M3040 4938 c0 -4 9 -8 20 -8 11 0 20 4 20 9 0 6 -9 9 -20 8 -11 -1
-20 -5 -20 -9z"/>
<path d="M3197 4944 c-4 -4 -7 -30 -7 -57 0 -62 8 -58 11 6 2 26 7 47 11 47 5
0 8 -20 7 -45 -2 -24 1 -48 5 -52 4 -4 6 17 4 46 -3 51 -15 71 -31 55z"/>
<path d="M2751 4924 c0 -11 3 -14 6 -6 3 7 2 16 -1 19 -3 4 -6 -2 -5 -13z"/>
<path d="M2892 4896 c1 -19 5 -33 8 -31 7 4 1 65 -6 65 -3 0 -4 -15 -2 -34z"/>
<path d="M2982 4910 c0 -14 2 -19 5 -12 2 6 2 18 0 25 -3 6 -5 1 -5 -13z"/>
<path d="M3352 4905 c0 -16 2 -22 5 -12 2 9 2 23 0 30 -3 6 -5 -1 -5 -18z"/>
<path d="M1858 4890 c-3 -16 -1 -35 4 -42 4 -8 8 4 8 30 0 49 -6 55 -12 12z"/>
<path d="M1943 4880 c0 -25 2 -35 4 -22 2 12 2 32 0 45 -2 12 -4 2 -4 -23z"/>
<path d="M3281 4904 c0 -11 3 -14 6 -6 3 7 2 16 -1 19 -3 4 -6 -2 -5 -13z"/>
<path d="M2300 4875 c0 -19 2 -35 4 -35 2 0 6 16 8 35 2 19 0 35 -4 35 -4 0
-8 -16 -8 -35z"/>
<path d="M2001 4873 c-1 -27 -5 -33 -23 -34 -16 0 -18 -2 -8 -6 8 -3 17 -10
20 -14 3 -4 12 -4 20 1 11 7 11 10 2 10 -9 0 -10 5 -4 18 5 9 6 26 1 37 -6 16
-8 14 -8 -12z"/>
<path d="M2060 4885 c0 -8 4 -15 8 -15 5 0 9 7 9 15 0 8 -4 15 -9 15 -4 0 -8
-7 -8 -15z"/>
<path d="M2360 4896 c0 -2 7 -7 16 -10 8 -3 12 -2 9 4 -6 10 -25 14 -25 6z"/>
<path d="M2842 4868 c-2 -34 1 -38 21 -37 15 1 17 3 5 6 -10 2 -18 17 -21 36
-4 31 -4 31 -5 -5z"/>
<path d="M2985 4861 c-3 -11 -14 -22 -23 -24 -9 -2 -5 -3 10 -1 15 2 30 -1 33
-6 4 -6 11 -7 17 -4 7 5 3 10 -10 15 -14 5 -20 14 -16 24 3 8 4 15 1 15 -3 0
-8 -9 -12 -19z"/>
<path d="M3125 4863 c-4 -14 -17 -23 -34 -26 l-26 -4 26 -2 c29 -1 54 21 46
41 -4 8 -8 5 -12 -9z"/>
<path d="M3300 4866 c0 -8 4 -17 9 -20 5 -4 7 3 4 14 -6 23 -13 26 -13 6z"/>
<path d="M1815 4840 c-19 -8 -19 -9 3 -9 12 -1 22 4 22 9 0 6 -1 10 -2 9 -2 0
-12 -4 -23 -9z"/>
<path d="M1900 4840 c-23 -7 -23 -8 -3 -9 12 -1 25 4 28 9 3 6 5 10 3 9 -2 -1
-14 -5 -28 -9z"/>
<path d="M2320 4840 c0 -5 5 -10 11 -10 5 0 7 5 4 10 -3 6 -8 10 -11 10 -2 0
-4 -4 -4 -10z"/>
<path d="M3260 4840 c-23 -7 -23 -8 -3 -9 12 -1 25 4 28 9 3 6 5 10 3 9 -2 -1
-14 -5 -28 -9z"/>
<path d="M2063 4833 c9 -2 23 -2 30 0 6 3 -1 5 -18 5 -16 0 -22 -2 -12 -5z"/>
<path d="M2145 4830 c-8 -13 25 -13 45 0 12 8 9 10 -12 10 -15 0 -30 -4 -33
-10z"/>
<path d="M2708 4833 c7 -3 16 -2 19 1 4 3 -2 6 -13 5 -11 0 -14 -3 -6 -6z"/>
<path d="M2578 4806 c-16 -22 -16 -24 -1 -22 9 2 18 12 20 24 4 27 2 27 -19
-2z"/>
<path d="M2195 4810 c-3 -5 1 -10 10 -10 9 0 13 5 10 10 -3 6 -8 10 -10 10 -2
0 -7 -4 -10 -10z"/>
<path d="M2444 4808 c-4 -6 -3 -8 3 -5 16 10 23 -18 10 -34 -10 -11 -9 -11 4
-1 10 8 15 21 12 32 -6 22 -18 26 -29 8z"/>
<path d="M2058 4803 c7 -3 16 -2 19 1 4 3 -2 6 -13 5 -11 0 -14 -3 -6 -6z"/>
<path d="M2658 4803 c7 -3 16 -2 19 1 4 3 -2 6 -13 5 -11 0 -14 -3 -6 -6z"/>
<path d="M3160 4806 c0 -2 7 -7 16 -10 8 -3 12 -2 9 4 -6 10 -25 14 -25 6z"/>
<path d="M3967 4749 c7 -7 15 -10 18 -7 3 3 -2 9 -12 12 -14 6 -15 5 -6 -5z"/>
<path d="M4017 4743 c-4 -3 -7 -53 -7 -109 0 -89 -2 -103 -17 -107 -17 -4 -17
-5 0 -6 10 0 20 5 23 13 4 11 12 216 8 216 0 0 -4 -3 -7 -7z"/>
<path d="M4400 4705 c0 -24 -8 -29 -40 -26 -13 2 -13 0 -1 -8 8 -5 20 -7 27
-4 10 4 12 -11 7 -68 -4 -49 -3 -70 4 -66 11 7 18 197 8 197 -3 0 -5 -11 -5
-25z"/>
<path d="M4198 4713 c7 -3 16 -2 19 1 4 3 -2 6 -13 5 -11 0 -14 -3 -6 -6z"/>
<path d="M4230 4701 c0 -25 6 -27 13 -6 4 8 2 17 -3 20 -6 4 -10 -3 -10 -14z"/>
<path d="M4506 4705 c-3 -8 -1 -15 4 -15 6 0 10 7 10 15 0 8 -2 15 -4 15 -2 0
-6 -7 -10 -15z"/>
<path d="M4930 4710 c0 -5 5 -10 10 -10 6 0 10 5 10 10 0 6 -4 10 -10 10 -5 0
-10 -4 -10 -10z"/>
<path d="M4160 4701 c0 -6 5 -13 10 -16 6 -3 10 1 10 9 0 9 -4 16 -10 16 -5 0
-10 -4 -10 -9z"/>
<path d="M4320 4700 c0 -5 5 -10 11 -10 5 0 7 5 4 10 -3 6 -8 10 -11 10 -2 0
-4 -4 -4 -10z"/>
<path d="M4462 4690 c0 -14 2 -19 5 -12 2 6 2 18 0 25 -3 6 -5 1 -5 -13z"/>
<path d="M4536 4695 c5 -12 10 -13 20 -4 7 6 19 7 25 3 8 -4 9 -3 5 4 -4 7
-18 12 -31 12 -18 0 -23 -4 -19 -15z"/>
<path d="M4811 4686 c-7 -9 -8 -17 -3 -20 6 -3 13 1 16 10 3 8 10 12 16 9 5
-3 10 -1 10 4 0 16 -26 13 -39 -3z"/>
<path d="M4030 4641 l0 -38 34 16 c19 9 27 17 19 19 -8 2 -20 -2 -28 -8 -13
-10 -15 -8 -15 13 0 14 6 28 13 30 7 3 5 6 -5 6 -14 1 -18 -7 -18 -38z"/>
<path d="M4127 4665 c17 -12 23 -28 26 -73 l3 -57 2 68 c1 40 -2 66 -7 62 -5
-3 -12 -1 -16 5 -3 5 -11 10 -18 10 -6 0 -2 -7 10 -15z"/>
<path d="M4520 4676 c0 -2 8 -10 18 -17 15 -13 16 -12 3 4 -13 16 -21 21 -21
13z"/>
<path d="M4568 4673 c6 -2 18 -2 25 0 6 3 1 5 -13 5 -14 0 -19 -2 -12 -5z"/>
<path d="M4678 4655 c12 -15 16 -34 14 -72 -3 -44 -6 -52 -25 -56 -18 -4 -17
-5 6 -6 15 0 27 4 28 12 3 38 1 109 -4 113 -3 3 -3 12 0 19 3 9 -2 13 -16 12
-20 -1 -20 -2 -3 -22z"/>
<path d="M4719 4663 c-13 -16 -12 -17 4 -4 16 13 21 21 13 21 -2 0 -10 -8 -17
-17z"/>
<path d="M4939 4654 c9 -12 18 -20 20 -18 2 2 -1 10 -8 18 -9 11 -9 15 1 19 7
3 3 4 -8 4 -21 -1 -21 -2 -5 -23z"/>
<path d="M4566 4647 c3 -10 9 -15 12 -12 3 3 0 11 -7 18 -10 9 -11 8 -5 -6z"/>
<path d="M1159 4622 c6 -10 8 -30 5 -43 -2 -13 -1 -17 2 -9 4 8 11 23 16 34 8
14 7 17 -3 11 -9 -6 -11 -3 -6 8 4 11 1 17 -9 17 -11 0 -12 -4 -5 -18z"/>
<path d="M1276 4625 c4 -8 7 -15 9 -15 2 0 5 7 9 15 3 9 0 15 -9 15 -9 0 -12
-6 -9 -15z"/>
<path d="M3919 4623 c-13 -16 -12 -17 3 -5 9 8 23 10 29 6 8 -4 9 -3 5 4 -10
17 -21 15 -37 -5z"/>
<path d="M4170 4594 c0 -27 5 -56 10 -64 6 -9 7 6 3 45 -7 75 -13 84 -13 19z"/>
<path d="M4296 4631 c-3 -4 6 -6 19 -3 14 2 25 6 25 8 0 8 -39 4 -44 -5z"/>
<path d="M4467 4633 c-4 -3 -7 -20 -6 -37 0 -26 2 -28 8 -11 5 11 6 25 4 32
-3 6 4 13 14 16 14 4 14 5 2 6 -9 0 -19 -2 -22 -6z"/>
<path d="M4590 4625 c-7 -8 -17 -12 -24 -8 -6 3 -8 3 -4 -2 4 -4 3 -17 -3 -27
-8 -15 -8 -23 1 -32 8 -8 10 -7 5 6 -5 11 2 26 20 44 14 14 24 28 22 30 -2 3
-10 -2 -17 -11z"/>
<path d="M4797 4628 c-2 -8 2 -23 10 -33 13 -19 14 -18 9 9 -6 34 -12 41 -19
24z"/>
<path d="M4874 4628 c-3 -4 4 -8 15 -8 12 0 21 4 21 8 0 5 -7 9 -15 9 -9 0
-18 -4 -21 -9z"/>
<path d="M4498 4597 c-3 -19 -2 -25 4 -19 6 6 8 18 6 28 -3 14 -5 12 -10 -9z"/>
<path d="M1258 4593 c6 -2 18 -2 25 0 6 3 1 5 -13 5 -14 0 -19 -2 -12 -5z"/>
<path d="M1311 4583 c-1 -20 3 -23 37 -21 36 1 36 1 5 5 -19 3 -34 11 -36 21
-3 12 -5 10 -6 -5z"/>
<path d="M4231 4584 c0 -11 3 -14 6 -6 3 7 2 16 -1 19 -3 4 -6 -2 -5 -13z"/>
<path d="M1115 4580 c4 -6 11 -8 16 -5 14 9 11 15 -7 15 -8 0 -12 -5 -9 -10z"/>
<path d="M4075 4581 c-6 -11 13 -26 22 -17 4 3 1 6 -6 6 -7 0 -9 5 -6 10 3 6
4 10 1 10 -3 0 -7 -4 -11 -9z"/>
<path d="M4310 4574 c0 -9 5 -14 12 -12 18 6 21 28 4 28 -9 0 -16 -7 -16 -16z"/>
<path d="M4617 4583 c-10 -9 -9 -23 1 -23 5 0 9 7 9 15 0 17 -1 18 -10 8z"/>
<path d="M4726 4582 c-3 -5 1 -13 10 -16 23 -9 34 -7 34 5 0 5 -5 7 -11 3 -6
-3 -15 -1 -19 6 -5 8 -10 8 -14 2z"/>
<path d="M1220 4570 c0 -5 5 -10 10 -10 6 0 10 5 10 10 0 6 -4 10 -10 10 -5 0
-10 -4 -10 -10z"/>
<path d="M928 4563 c6 -2 18 -2 25 0 6 3 1 5 -13 5 -14 0 -19 -2 -12 -5z"/>
<path d="M1036 4562 c-2 -4 11 -6 30 -4 19 2 34 6 34 8 0 8 -59 4 -64 -4z"/>
<path d="M1390 4551 c0 -25 6 -27 13 -6 4 8 2 17 -3 20 -6 4 -10 -3 -10 -14z"/>
<path d="M1528 4563 c6 -2 18 -2 25 0 6 3 1 5 -13 5 -14 0 -19 -2 -12 -5z"/>
<path d="M1603 4563 c9 -2 23 -2 30 0 6 3 -1 5 -18 5 -16 0 -22 -2 -12 -5z"/>
<path d="M1733 4563 c9 -2 25 -2 35 0 9 3 1 5 -18 5 -19 0 -27 -2 -17 -5z"/>
<path d="M1848 4563 c6 -2 18 -2 25 0 6 3 1 5 -13 5 -14 0 -19 -2 -12 -5z"/>
<path d="M4898 4563 c6 -2 18 -2 25 0 6 3 1 5 -13 5 -14 0 -19 -2 -12 -5z"/>
<path d="M997 4540 c6 -22 15 -19 19 5 1 8 -4 15 -11 15 -8 0 -11 -7 -8 -20z"/>
<path d="M1125 4540 c23 -25 25 -25 25 3 0 18 -2 19 -10 7 -6 -10 -10 -11 -10
-2 0 6 -5 12 -12 12 -6 0 -3 -9 7 -20z"/>
<path d="M1662 4543 c8 -10 13 -11 18 -2 4 6 5 -21 2 -60 -3 -51 -1 -71 7 -71
8 0 11 22 9 73 -3 67 -5 72 -26 73 -18 1 -20 -1 -10 -13z"/>
<path d="M4806 4544 c-4 -9 -4 -19 -1 -22 3 -3 5 0 5 7 0 7 4 9 10 6 6 -3 7 1
4 9 -8 20 -10 20 -18 0z"/>
<path d="M4950 4546 c0 -8 -8 -17 -17 -19 -14 -4 -12 -5 5 -6 16 -1 22 5 22
19 0 11 -2 20 -5 20 -3 0 -5 -6 -5 -14z"/>
<path d="M884 4536 c-3 -8 -4 -23 -2 -33 3 -11 6 -6 9 15 6 34 2 42 -7 18z"/>
<path d="M972 4524 c-6 -7 -20 -11 -30 -7 -9 3 -14 3 -10 -2 4 -4 18 -8 30 -9
13 0 24 -7 24 -13 1 -7 2 -22 3 -33 0 -11 5 -20 10 -20 7 0 -3 88 -12 96 -1 1
-8 -4 -15 -12z"/>
<path d="M1337 4528 c-2 -8 2 -23 10 -33 13 -19 14 -18 7 10 -8 37 -10 39 -17
23z"/>
<path d="M1485 4520 c-4 -12 -5 -24 -2 -27 3 -2 8 5 12 17 4 12 5 24 2 27 -3
2 -8 -5 -12 -17z"/>
<path d="M1790 4524 c0 -8 -4 -13 -9 -10 -10 7 -4 -55 7 -65 4 -4 7 14 8 42 1
27 -1 49 -2 49 -2 0 -4 -7 -4 -16z"/>
<path d="M4457 4529 c7 -7 15 -10 18 -7 3 3 -2 9 -12 12 -14 6 -15 5 -6 -5z"/>
<path d="M1406 4515 c-3 -9 -6 -22 -5 -28 0 -7 5 -1 10 12 5 13 8 26 5 28 -2
2 -6 -3 -10 -12z"/>
<path d="M4128 4523 c7 -3 16 -2 19 1 4 3 -2 6 -13 5 -11 0 -14 -3 -6 -6z"/>
<path d="M4338 4523 c6 -2 18 -2 25 0 6 3 1 5 -13 5 -14 0 -19 -2 -12 -5z"/>
<path d="M4718 4523 c7 -3 16 -2 19 1 4 3 -2 6 -13 5 -11 0 -14 -3 -6 -6z"/>
<path d="M1074 4509 c-4 -8 -3 -9 4 -5 8 5 11 -2 8 -23 -2 -17 1 -28 5 -25 12
7 11 51 0 59 -5 3 -13 0 -17 -6z"/>
<path d="M1157 4500 c-10 -37 5 -94 27 -98 10 -2 22 0 28 6 6 6 1 8 -16 5 -24
-5 -25 -3 -28 53 -3 44 -5 53 -11 34z"/>
<path d="M1253 4485 c0 -22 2 -30 4 -17 2 12 2 30 0 40 -3 9 -5 -1 -4 -23z"/>
<path d="M1312 4495 c0 -16 2 -22 5 -12 2 9 2 23 0 30 -3 6 -5 -1 -5 -18z"/>
<path d="M1541 4504 c0 -11 3 -14 6 -6 3 7 2 16 -1 19 -3 4 -6 -2 -5 -13z"/>
<path d="M1563 4504 c0 -7 6 -10 14 -7 7 3 13 8 13 12 0 4 -6 8 -13 8 -8 0
-14 -6 -14 -13z"/>
<path d="M1608 4513 c7 -3 16 -2 19 1 4 3 -2 6 -13 5 -11 0 -14 -3 -6 -6z"/>
<path d="M1927 4499 c4 -13 8 -18 11 -10 2 7 -1 18 -6 23 -8 8 -9 4 -5 -13z"/>
<path d="M4260 4510 c0 -5 5 -10 11 -10 5 0 7 5 4 10 -3 6 -8 10 -11 10 -2 0
-4 -4 -4 -10z"/>
<path d="M1751 4463 c-1 -45 -4 -52 -23 -56 -21 -4 -20 -4 3 -6 24 -1 27 3 31
37 3 20 1 46 -3 57 -5 14 -8 4 -8 -32z"/>
<path d="M4300 4495 c0 -8 7 -15 15 -15 9 0 12 6 9 15 -4 8 -10 15 -15 15 -5
0 -9 -7 -9 -15z"/>
<path d="M4420 4500 c0 -5 5 -10 11 -10 5 0 7 5 4 10 -3 6 -8 10 -11 10 -2 0
-4 -4 -4 -10z"/>
<path d="M1050 4471 c0 -6 4 -13 10 -16 6 -3 7 1 4 9 -7 18 -14 21 -14 7z"/>
<path d="M1441 4470 c0 -8 4 -22 9 -30 12 -18 12 -2 0 25 -6 13 -9 15 -9 5z"/>
<path d="M1527 4466 c-10 -26 -8 -33 4 -16 9 12 10 10 5 -9 -3 -18 -2 -21 6
-13 8 8 8 18 1 34 -8 19 -10 20 -16 4z"/>
<path d="M1621 4464 c0 -11 3 -14 6 -6 3 7 2 16 -1 19 -3 4 -6 -2 -5 -13z"/>
<path d="M911 4461 c-10 -7 -7 -9 12 -8 14 1 23 5 20 10 -6 9 -15 9 -32 -2z"/>
<path d="M1340 4465 c-1 -5 -1 -20 0 -32 1 -16 -5 -23 -27 -26 -21 -3 -18 -4
10 -4 20 1 37 6 36 12 -2 20 -17 60 -19 50z"/>
<path d="M1360 4454 c0 -10 5 -26 10 -34 8 -11 9 -7 4 15 -8 37 -14 45 -14 19z"/>
<path d="M1873 4463 c9 -2 23 -2 30 0 6 3 -1 5 -18 5 -16 0 -22 -2 -12 -5z"/>
<path d="M1124 4428 l-19 -23 23 19 c21 18 27 26 19 26 -2 0 -12 -10 -23 -22z"/>
<path d="M4481 4435 c3 -2 22 -5 43 -7 24 -1 43 -9 52 -22 8 -11 14 -16 14
-10 0 22 -38 44 -75 44 -21 0 -36 -2 -34 -5z"/>
<path d="M1025 4410 c-2 -3 14 -7 36 -8 21 -2 39 -1 39 2 0 7 -71 13 -75 6z"/>
<path d="M1467 4408 c2 -5 13 -8 23 -8 10 0 21 3 23 8 3 4 -8 7 -23 7 -15 0
-26 -3 -23 -7z"/>
<path d="M1638 4408 c5 -5 16 -8 23 -6 8 3 3 7 -10 11 -17 4 -21 3 -13 -5z"/>
<path d="M1827 4408 c2 -5 22 -8 43 -8 21 0 41 3 43 8 3 4 -17 7 -43 7 -26 0
-46 -3 -43 -7z"/>
<path d="M913 4403 c9 -2 25 -2 35 0 9 3 1 5 -18 5 -19 0 -27 -2 -17 -5z"/>
<path d="M1398 4403 c7 -3 16 -2 19 1 4 3 -2 6 -13 5 -11 0 -14 -3 -6 -6z"/>
<path d="M1588 4403 c6 -2 18 -2 25 0 6 3 1 5 -13 5 -14 0 -19 -2 -12 -5z"/>
<path d="M2315 4380 c-10 -15 17 -22 76 -17 l54 3 -65 3 c-53 3 -59 5 -35 11
l30 8 -27 1 c-15 0 -30 -4 -33 -9z"/>
<path d="M3900 4380 l-505 -5 502 -3 c326 -1 504 1 508 8 3 6 5 9 3 8 -2 -2
-230 -5 -508 -8z"/>
<path d="M1280 4372 c0 -8 44 -22 71 -22 14 0 10 17 -3 18 -7 1 -25 4 -40 8
-16 4 -28 2 -28 -4z"/>
<path d="M2207 4348 c2 -5 10 -8 18 -8 8 0 16 3 18 8 3 4 -5 7 -18 7 -13 0
-21 -3 -18 -7z"/>
<path d="M2458 4353 c6 -2 18 -2 25 0 6 3 1 5 -13 5 -14 0 -19 -2 -12 -5z"/>
<path d="M4610 4326 c0 -31 6 -34 13 -6 3 11 1 23 -4 26 -5 3 -9 -6 -9 -20z"/>
<path d="M2160 4325 c-14 -8 -34 -12 -45 -9 -18 4 -18 4 -3 -6 13 -8 26 -6 55
9 21 11 34 20 28 20 -5 0 -21 -6 -35 -14z"/>
<path d="M1242 4286 c-17 -19 -32 -33 -35 -30 -2 2 -4 -20 -3 -50 0 -30 4 -52
8 -50 4 3 8 1 8 -5 0 -5 -5 -11 -12 -13 -9 -3 -9 -6 0 -12 7 -4 12 -2 12 5 0
9 3 9 14 0 9 -7 7 3 -6 28 -17 34 -18 46 -8 75 6 20 25 47 41 61 17 14 26 25
21 25 -6 0 -23 -15 -40 -34z"/>
<path d="M1370 4316 c0 -2 7 -7 16 -10 8 -3 12 -2 9 4 -6 10 -25 14 -25 6z"/>
<path d="M2607 4313 c-4 -6 0 -13 8 -17 8 -3 17 0 21 6 4 6 3 8 -4 4 -5 -3
-12 -1 -14 6 -3 8 -6 9 -11 1z"/>
<path d="M3242 4301 c2 -9 -5 -30 -15 -47 l-18 -29 25 29 c14 17 24 35 23 40
-1 6 5 10 13 8 8 -2 11 0 7 4 -15 16 -38 13 -35 -5z"/>
<path d="M2000 4290 c0 -5 5 -10 10 -10 6 0 10 5 10 10 0 6 -4 10 -10 10 -5 0
-10 -4 -10 -10z"/>
<path d="M2084 4292 c3 -2 -7 -15 -22 -29 -25 -23 -24 -22 11 2 42 31 43 32
22 32 -8 0 -13 -2 -11 -5z"/>
<path d="M2245 4287 c-154 -51 -256 -150 -305 -298 -18 -53 -21 -81 -18 -159
3 -84 8 -104 39 -171 47 -97 115 -166 213 -215 64 -31 87 -37 163 -41 140 -8
243 28 341 120 93 89 142 201 142 327 0 176 -96 327 -259 408 -69 34 -82 37
-175 39 -64 2 -116 -2 -141 -10z m205 -131 c0 -17 24 -27 45 -19 24 9 56 -26
49 -53 -4 -16 0 -25 15 -34 27 -14 28 -56 1 -70 -14 -8 -20 -20 -18 -39 2 -34
-19 -64 -40 -56 -21 8 -52 -4 -52 -21 0 -23 -57 -18 -70 7 -9 15 -18 19 -34
15 -25 -6 -59 22 -55 46 4 30 -2 48 -16 48 -10 0 -15 11 -15 35 0 23 5 35 14
35 16 0 29 27 20 42 -10 15 27 49 47 43 11 -4 25 2 36 14 20 24 73 29 73 7z
m-151 -302 c16 -19 25 -23 35 -15 9 8 19 4 35 -13 13 -14 20 -29 17 -34 -9
-15 4 -42 20 -42 23 0 18 -57 -7 -70 -15 -9 -19 -18 -15 -34 7 -28 -25 -62
-49 -52 -9 3 -23 -3 -32 -14 -22 -26 -57 -26 -83 0 -11 11 -26 17 -35 14 -22
-9 -57 25 -50 47 4 11 -2 25 -14 36 -24 20 -29 73 -7 73 16 0 28 24 20 44 -8
21 33 54 60 49 17 -4 27 1 35 16 16 28 43 26 70 -5z m274 -21 c-7 -3 -13 -12
-13 -20 0 -11 -7 -14 -25 -11 -13 3 -26 0 -28 -6 -2 -6 -8 -8 -12 -4 -9 9 4
50 15 43 5 -3 11 -1 14 3 3 5 18 7 33 4 16 -3 22 -7 16 -9z m-84 -57 c1 -5 -5
-3 -12 3 -10 8 -14 7 -14 -4 0 -8 4 -15 9 -15 4 0 8 -8 8 -19 0 -28 48 -57 72
-42 18 11 58 0 58 -16 0 -3 -3 -3 -7 0 -3 4 -15 0 -25 -10 -13 -12 -18 -13
-18 -3 0 9 -6 7 -16 -6 -14 -17 -15 -17 -10 -1 4 14 2 16 -12 9 -11 -6 -26 -4
-42 4 -14 8 -19 14 -12 14 10 0 10 3 0 14 -7 8 -16 12 -20 9 -14 -8 -9 5 8 21
13 14 13 16 1 16 -19 0 -17 29 3 50 13 14 16 14 22 0 4 -8 7 -19 7 -24z m118
37 c-4 -3 -2 -12 4 -19 15 -18 19 -82 5 -87 -23 -8 -36 5 -30 29 4 13 1 31 -5
38 -9 11 -9 16 0 21 8 6 7 10 -2 16 -10 6 -7 9 10 9 13 0 21 -3 18 -7z m-39
-59 c4 -25 -22 -49 -43 -40 -20 7 -32 39 -17 44 7 2 10 7 7 11 -2 5 8 8 23 7
19 -1 28 -7 30 -22z"/>
<path d="M2371 4097 c-46 -27 -65 -94 -38 -131 13 -18 15 -17 34 10 11 16 23
37 26 47 4 9 12 17 20 17 16 0 63 47 55 55 -13 13 -75 14 -97 2z"/>
<path d="M2470 4048 c-8 -13 -17 -32 -20 -43 -3 -11 -15 -22 -25 -23 -25 -5
-55 -31 -55 -48 0 -7 14 -15 30 -19 66 -14 127 55 108 123 -10 38 -18 40 -38
10z"/>
<path d="M2410 4010 c0 -5 5 -10 10 -10 6 0 10 5 10 10 0 6 -4 10 -10 10 -5 0
-10 -4 -10 -10z"/>
<path d="M2197 3790 c-69 -55 -26 -169 63 -170 46 0 76 21 90 66 14 41 0 86
-34 109 -30 22 -89 19 -119 -5z"/>
<path d="M2600 3770 c6 -11 13 -20 16 -20 2 0 0 9 -6 20 -6 11 -13 20 -16 20
-2 0 0 -9 6 -20z"/>
<path d="M2535 3760 c3 -5 8 -10 11 -10 2 0 4 5 4 10 0 6 -5 10 -11 10 -5 0
-7 -4 -4 -10z"/>
<path d="M2704 4285 c5 -14 -6 -20 -29 -15 -5 1 -4 -4 2 -11 23 -23 40 -18 41
12 0 16 -4 29 -10 29 -5 0 -8 -7 -4 -15z"/>
<path d="M3858 4283 c474 -3 482 -4 482 -23 0 -17 6 -20 34 -17 19 1 32 5 29
10 -2 4 -16 4 -31 0 -23 -5 -25 -4 -15 9 7 8 10 18 6 21 -3 4 -227 6 -497 5
l-491 -3 483 -2z"/>
<path d="M3319 4243 c-13 -16 -12 -17 4 -4 16 13 21 21 13 21 -2 0 -10 -8 -17
-17z"/>
<path d="M1957 4226 c-4 -10 -1 -13 9 -9 15 6 19 23 5 23 -5 0 -11 -7 -14 -14z"/>
<path d="M2003 4223 c0 -9 4 -10 14 -2 7 6 13 12 13 14 0 1 -6 2 -13 2 -8 0
-14 -6 -14 -14z"/>
<path d="M4401 4214 c0 -11 3 -14 6 -6 3 7 2 16 -1 19 -3 4 -6 -2 -5 -13z"/>
<path d="M3296 4204 c-4 -9 -4 -19 -1 -22 3 -3 5 0 5 7 0 7 5 9 10 6 6 -3 10
-2 10 4 0 18 -18 21 -24 5z"/>
<path d="M2755 4180 c20 -23 34 -28 16 -6 -9 11 -9 15 1 19 7 3 2 6 -11 6 -23
1 -24 0 -6 -19z"/>
<path d="M3203 4115 c0 -44 2 -61 4 -37 2 23 2 59 0 80 -2 20 -4 1 -4 -43z"/>
<path d="M2790 4170 c0 -5 5 -10 11 -10 5 0 7 5 4 10 -3 6 -8 10 -11 10 -2 0
-4 -4 -4 -10z"/>
<path d="M2816 4154 c-8 -20 -4 -25 11 -16 7 4 9 13 4 21 -6 10 -10 9 -15 -5z"/>
<path d="M1924 4149 c-3 -6 -2 -15 4 -21 6 -6 12 -6 17 3 6 8 4 10 -5 4 -10
-6 -12 -4 -7 8 7 19 2 23 -9 6z"/>
<path d="M1419 4133 c-13 -16 -12 -17 4 -4 9 7 17 15 17 17 0 8 -8 3 -21 -13z"/>
<path d="M2827 4097 c-3 -8 -2 -20 3 -26 5 -9 8 -4 8 13 0 29 -3 32 -11 13z"/>
<path d="M1375 3605 c0 -275 1 -386 2 -247 2 139 2 364 0 500 -1 136 -2 22 -2
-253z"/>
<path d="M1892 4055 c-17 -37 -14 -45 4 -12 9 16 14 31 11 33 -2 2 -9 -7 -15
-21z"/>
<path d="M2856 4015 c2 -11 4 -26 4 -34 0 -8 3 -11 7 -7 9 9 11 46 2 40 -4 -2
-9 1 -12 8 -2 7 -3 4 -1 -7z"/>
<path d="M3378 4033 c12 -2 32 -2 45 0 12 2 2 4 -23 4 -25 0 -35 -2 -22 -4z"/>
<path d="M3807 3979 c7 -7 15 -10 18 -7 3 3 -2 9 -12 12 -14 6 -15 5 -6 -5z"/>
<path d="M2872 3940 c0 -14 2 -19 5 -12 2 6 2 18 0 25 -3 6 -5 1 -5 -13z"/>
<path d="M1852 3900 c0 -14 2 -19 5 -12 2 6 2 18 0 25 -3 6 -5 1 -5 -13z"/>
<path d="M1689 3873 c-1 -2 -2 -6 -3 -10 -3 -17 -18 -33 -26 -28 -4 3 -8 -1
-7 -8 0 -6 -1 -126 -1 -265 l-2 -252 -26 6 c-19 5 -25 4 -20 -5 5 -7 -2 -11
-18 -11 -14 0 -26 -4 -26 -10 0 -5 -6 -10 -14 -10 -8 0 -36 -24 -63 -54 -53
-58 -96 -150 -82 -177 4 -8 9 -50 10 -92 1 -57 5 -77 15 -77 13 0 19 -13 14
-35 -1 -5 2 -7 6 -3 4 4 20 -10 37 -33 16 -22 32 -38 35 -35 2 3 18 -4 34 -16
17 -11 40 -22 52 -23 11 -1 27 -3 34 -4 9 -1 12 -72 12 -321 l0 -320 -207 -2
-208 -1 300 -9 c165 -4 374 -7 465 -5 l165 2 3 273 2 272 -36 0 c-31 0 -35 3
-32 23 2 17 11 23 36 25 28 3 32 7 32 33 l0 29 -110 0 -110 0 0 25 0 25 205 0
c130 0 205 -4 205 -10 0 -5 18 -10 40 -10 l40 0 0 234 c0 128 3 261 6 295 l7
61 -86 0 c-105 0 -191 25 -273 79 -134 87 -218 229 -226 380 -2 29 -7 55 -13
57 -13 4 -165 10 -166 7z m46 -794 c47 -34 85 -64 85 -67 -1 -4 -17 -19 -38
-33 -20 -14 -61 -42 -89 -63 l-53 -38 0 131 c0 72 2 131 5 131 2 0 43 -27 90
-61z m625 16 l0 -25 -130 0 -130 0 0 25 0 25 130 0 130 0 0 -25z m0 -110 l0
-25 -185 0 -185 0 0 25 0 25 185 0 185 0 0 -25z m0 -120 l0 -25 -155 0 -155 0
0 25 0 25 155 0 155 0 0 -25z"/>
<path d="M2875 3860 c-11 -38 -9 -115 3 -114 7 1 55 2 107 3 l95 1 0 59 0 60
-100 3 c-82 2 -101 0 -105 -12z"/>
<path d="M4083 3873 l-253 -3 0 -60 0 -60 230 0 230 0 0 -155 0 -155 118 2
c64 1 100 3 80 5 l-37 4 -3 156 -3 155 -34 28 c-18 16 -30 33 -26 39 3 7 3 10
-2 9 -4 -2 -18 5 -31 14 -17 11 -20 17 -10 21 7 3 9 5 3 4 -5 -1 -124 -3 -262
-4z"/>
<path d="M5058 3783 c7 -3 16 -2 19 1 4 3 -2 6 -13 5 -11 0 -14 -3 -6 -6z"/>
<path d="M4670 3735 c-12 -18 -11 -19 3 -7 9 7 28 17 44 22 l28 9 -31 -2 c-20
-1 -36 -9 -44 -22z"/>
<path d="M4756 3751 c-2 -3 0 -15 5 -26 6 -17 8 -17 8 -2 1 9 6 17 11 17 6 0
10 4 10 8 0 10 -29 12 -34 3z"/>
<path d="M4890 3753 c0 -3 6 -11 14 -19 13 -12 15 -12 13 4 -1 15 -27 29 -27
15z"/>
<path d="M4940 3749 c0 -5 5 -7 10 -4 6 3 10 8 10 11 0 2 -4 4 -10 4 -5 0 -10
-5 -10 -11z"/>
<path d="M4991 3747 c9 -7 18 -19 22 -27 4 -10 6 -9 6 6 1 12 -6 25 -15 28
-25 9 -30 6 -13 -7z"/>
<path d="M5207 3745 c41 -17 56 -47 51 -101 -2 -24 0 -44 4 -44 5 0 8 34 8 76
0 54 3 73 12 68 7 -4 8 -3 4 5 -9 14 -26 5 -26 -15 0 -8 -5 -12 -10 -9 -6 4
-7 11 -4 17 4 6 2 8 -4 4 -6 -3 -13 -2 -17 4 -3 5 -16 10 -28 10 -18 -1 -16
-3 10 -15z"/>
<path d="M5319 3743 c-13 -17 -13 -17 6 -3 11 8 22 16 24 17 2 2 0 3 -6 3 -6
0 -17 -8 -24 -17z"/>
<path d="M4820 3733 c0 -10 7 -26 14 -35 12 -16 14 -14 23 17 6 19 7 33 2 29
-5 -3 -9 -12 -9 -20 0 -8 -5 -14 -11 -14 -6 0 -9 7 -6 15 4 8 2 17 -3 20 -6 4
-10 -2 -10 -12z"/>
<path d="M5123 3721 c-9 -11 -21 -17 -27 -14 -6 3 -5 0 2 -8 6 -7 12 -23 12
-35 0 -12 8 -30 18 -41 9 -10 13 -13 9 -6 -12 17 -26 83 -18 83 3 0 12 9 19
20 16 26 7 26 -15 1z"/>
<path d="M5474 3727 c3 -10 6 -45 6 -78 0 -32 4 -59 10 -59 12 0 2 118 -12
140 -8 12 -8 11 -4 -3z"/>
<path d="M4716 3698 c3 -5 10 -6 15 -3 13 9 11 12 -6 12 -8 0 -12 -4 -9 -9z"/>
<path d="M4966 3698 c3 -5 10 -6 15 -3 13 9 11 12 -6 12 -8 0 -12 -4 -9 -9z"/>
<path d="M5029 3708 c-5 -16 -2 -68 4 -68 4 0 7 16 7 35 0 19 -2 35 -5 35 -3
0 -5 -1 -6 -2z"/>
<path d="M5407 3703 c-4 -3 -7 -29 -7 -56 0 -28 3 -48 6 -45 3 3 5 25 6 49 0
24 5 47 12 51 7 5 7 8 0 8 -6 0 -14 -3 -17 -7z"/>
<path d="M4765 3690 c-4 -6 -12 -7 -18 -3 -6 4 -2 -6 11 -22 13 -17 20 -35 17
-47 -4 -10 -2 -18 4 -18 6 0 11 8 11 18 0 14 2 15 10 2 11 -17 13 -1 4 25 -5
13 -8 14 -15 3 -7 -10 -9 -9 -9 5 0 9 -5 17 -11 17 -8 0 -8 5 1 15 7 8 10 15
7 15 -3 0 -9 -5 -12 -10z"/>
<path d="M4996 3691 c-3 -5 1 -14 9 -21 10 -9 15 -9 15 -1 0 6 -5 11 -11 11
-5 0 -7 5 -4 10 3 6 4 10 1 10 -3 0 -7 -4 -10 -9z"/>
<path d="M5323 3650 c0 -30 2 -43 4 -27 2 15 9 27 14 27 5 0 9 8 9 18 0 14 -2
14 -9 3 -7 -11 -10 -9 -14 10 -2 13 -4 -1 -4 -31z"/>
<path d="M4664 3668 c3 -21 16 -38 29 -38 7 0 4 5 -6 11 -9 6 -15 14 -12 19 3
5 1 11 -4 14 -5 4 -8 0 -7 -6z"/>
<path d="M5432 3650 c0 -19 2 -27 5 -17 2 9 2 25 0 35 -3 9 -5 1 -5 -18z"/>
<path d="M4641 3655 c1 -19 18 -51 18 -35 0 8 -4 22 -9 30 -5 8 -9 11 -9 5z"/>
<path d="M5198 3633 c7 -3 16 -2 19 1 4 3 -2 6 -13 5 -11 0 -14 -3 -6 -6z"/>
<path d="M4896 3615 c4 -8 8 -15 10 -15 2 0 4 7 4 15 0 8 -4 15 -10 15 -5 0
-7 -7 -4 -15z"/>
<path d="M5341 3614 c0 -11 3 -14 6 -6 3 7 2 16 -1 19 -3 4 -6 -2 -5 -13z"/>
<path d="M5047 3599 c7 -7 15 -10 18 -7 3 3 -2 9 -12 12 -14 6 -15 5 -6 -5z"/>
<path d="M4790 3590 c-9 -6 -10 -10 -3 -10 6 0 15 5 18 10 8 12 4 12 -15 0z"/>
<path d="M4765 3550 c2 -29 10 -33 13 -5 1 14 -2 25 -6 25 -5 0 -8 -9 -7 -20z"/>
<path d="M4825 3551 c-3 -5 -2 -12 3 -15 5 -3 9 1 9 9 0 17 -3 19 -12 6z"/>
<path d="M4850 3539 c0 -5 5 -7 10 -4 6 3 10 8 10 11 0 2 -4 4 -10 4 -5 0 -10
-5 -10 -11z"/>
<path d="M4573 3433 c9 -2 23 -2 30 0 6 3 -1 5 -18 5 -16 0 -22 -2 -12 -5z"/>
<path d="M4678 3433 c7 -3 16 -2 19 1 4 3 -2 6 -13 5 -11 0 -14 -3 -6 -6z"/>
<path d="M4628 3423 c6 -2 18 -2 25 0 6 3 1 5 -13 5 -14 0 -19 -2 -12 -5z"/>
<path d="M1600 3350 c0 -5 5 -10 10 -10 6 0 10 5 10 10 0 6 -4 10 -10 10 -5 0
-10 -4 -10 -10z"/>
<path d="M4868 3295 c2 -14 6 -25 8 -25 2 0 4 11 4 25 0 14 -4 25 -9 25 -4 0
-6 -11 -3 -25z"/>
<path d="M4874 3150 c0 -63 1 -89 3 -57 2 31 2 83 0 115 -2 31 -3 5 -3 -58z"/>
<path d="M2624 3157 c-2 -7 -3 -71 -2 -143 l3 -129 75 1 c118 1 172 44 174
139 2 98 -55 145 -173 145 -50 0 -73 -4 -77 -13z m141 -49 c16 -7 29 -25 36
-48 20 -67 -24 -130 -92 -130 -17 0 -19 8 -19 95 0 94 0 95 25 95 13 0 36 -5
50 -12z"/>
<path d="M2920 3026 l0 -146 60 0 c33 0 76 6 95 14 58 25 72 80 31 121 -23 23
-23 24 -5 41 24 22 24 55 0 85 -17 21 -30 24 -100 27 l-81 4 0 -146z m125 64
c0 -21 -5 -26 -32 -28 -31 -3 -33 -1 -33 28 0 29 2 31 33 28 27 -2 32 -7 32
-28z m-4 -90 c39 -21 16 -70 -33 -70 -26 0 -28 3 -28 40 0 34 3 40 21 40 11 0
29 -5 40 -10z"/>
<path d="M3177 3064 c-4 -59 -7 -125 -7 -146 0 -37 2 -39 28 -36 l27 3 3 93
c1 50 7 92 12 92 6 0 10 -5 10 -12 0 -6 9 -47 21 -90 20 -73 23 -78 48 -78 26
0 29 5 59 103 29 96 31 99 31 56 1 -25 4 -74 7 -108 7 -60 7 -61 37 -61 l30 0
-6 107 c-4 58 -7 123 -7 145 l0 38 -45 0 -44 0 -26 -87 c-15 -49 -27 -92 -29
-97 -1 -5 -13 33 -27 85 l-25 94 -45 3 -46 3 -6 -107z"/>
<path d="M3556 3148 c-56 -50 -36 -109 50 -147 49 -22 57 -46 20 -62 -18 -9
-33 -8 -57 0 -37 13 -35 14 -44 -20 -5 -22 -3 -27 17 -33 75 -20 147 3 168 55
18 44 -1 76 -65 111 -69 37 -69 63 0 63 47 0 50 2 50 25 0 23 -4 25 -56 28
-48 2 -61 -1 -83 -20z"/>
<path d="M4874 2825 c0 -60 1 -84 3 -52 2 32 2 81 0 110 -2 29 -3 3 -3 -58z"/>
<path d="M912 2709 c2 -6 8 -10 13 -10 5 0 11 4 13 10 2 6 -4 11 -13 11 -9 0
-15 -5 -13 -11z"/>
<path d="M944 2697 c-3 -10 -3 -21 0 -24 3 -4 6 1 6 10 0 10 6 17 14 17 8 0
17 4 20 8 2 4 -4 8 -15 8 -10 0 -22 -9 -25 -19z"/>
<path d="M1200 2704 c0 -8 5 -12 10 -9 6 3 10 10 10 16 0 5 -4 9 -10 9 -5 0
-10 -7 -10 -16z"/>
<path d="M4866 2697 c3 -10 9 -15 12 -12 3 3 0 11 -7 18 -10 9 -11 8 -5 -6z"/>
<path d="M3292 2679 c-24 -12 -54 -36 -66 -53 -23 -30 -50 -105 -41 -114 2 -2
47 -5 99 -6 l96 -1 0 98 c0 94 -1 97 -22 97 -13 0 -42 -10 -66 -21z"/>
<path d="M736 2675 c-3 -9 -6 -22 -5 -28 0 -7 5 -1 10 12 5 13 8 26 5 28 -2 2
-6 -3 -10 -12z"/>
<path d="M1030 2680 c0 -5 7 -10 17 -10 14 0 14 -3 -3 -22 l-19 -23 23 19 c27
23 27 23 2 36 -14 7 -20 7 -20 0z"/>
<path d="M596 2672 c-3 -5 9 -6 26 -4 22 3 35 0 45 -14 7 -10 13 -13 13 -8 0
27 -70 49 -84 26z"/>
<path d="M688 2673 c6 -2 18 -2 25 0 6 3 1 5 -13 5 -14 0 -19 -2 -12 -5z"/>
<path d="M788 2673 c6 -2 18 -2 25 0 6 3 1 5 -13 5 -14 0 -19 -2 -12 -5z"/>
<path d="M846 2672 c-2 -4 11 -6 30 -4 19 2 34 6 34 8 0 8 -59 4 -64 -4z"/>
<path d="M998 2673 c7 -3 16 -2 19 1 4 3 -2 6 -13 5 -11 0 -14 -3 -6 -6z"/>
<path d="M1102 2673 c15 -2 36 -15 46 -28 11 -14 22 -21 26 -18 10 11 7 25 -5
18 -6 -4 -13 2 -15 12 -4 14 -15 19 -42 20 -26 0 -29 -1 -10 -4z"/>
<path d="M1190 2676 c0 -2 9 -6 20 -9 11 -3 18 -1 14 4 -5 9 -34 13 -34 5z"/>
<path d="M1255 2673 c11 -3 26 -10 34 -17 11 -8 13 -8 8 1 -4 6 -2 13 5 15 7
3 -5 5 -27 5 -22 0 -31 -2 -20 -4z"/>
<path d="M1344 2670 c39 -12 46 -25 46 -93 l0 -58 -32 3 c-31 3 -33 5 -36 47
-2 28 1 47 10 53 10 8 10 9 -2 5 -10 -2 -16 -20 -18 -55 -3 -44 -6 -52 -23
-52 -11 0 -27 6 -35 14 -16 16 -20 91 -4 81 6 -3 10 -1 10 4 0 6 -7 11 -15 11
-11 0 -15 -13 -15 -54 0 -44 -4 -55 -17 -59 -10 -3 28 -5 85 -6 l102 -1 0 65
c0 72 -20 106 -62 104 -19 -1 -18 -2 6 -9z"/>
<path d="M4866 2655 c-3 -8 -1 -15 4 -15 6 0 10 7 10 15 0 8 -2 15 -4 15 -2 0
-6 -7 -10 -15z"/>
<path d="M807 2617 c-10 -31 -11 -44 -3 -45 53 -8 74 -7 70 0 -4 5 -12 7 -20
4 -21 -8 -44 4 -44 23 0 11 3 13 8 4 5 -8 8 1 8 22 0 19 -1 35 -2 35 -1 0 -9
-19 -17 -43z"/>
<path d="M563 2635 c-3 -9 -3 -18 -1 -21 3 -3 8 4 11 16 6 23 -1 27 -10 5z"/>
<path d="M620 2623 c0 -1 10 -7 21 -14 13 -6 19 -7 15 -1 -3 6 0 12 6 15 7 2
1 4 -14 3 -16 0 -28 -2 -28 -3z"/>
<path d="M745 2621 c-3 -5 -1 -12 5 -16 5 -3 10 1 10 9 0 18 -6 21 -15 7z"/>
<path d="M876 2618 c3 -4 11 -5 19 -1 21 7 19 12 -4 10 -11 0 -18 -5 -15 -9z"/>
<path d="M938 2595 c-2 -19 0 -41 4 -48 4 -7 8 9 8 36 0 55 -6 62 -12 12z"/>
<path d="M1001 2624 c9 -3 17 -16 17 -29 0 -14 -7 -25 -17 -28 -10 -2 -7 -5
10 -8 24 -5 25 -4 19 30 -4 26 -11 36 -25 38 -13 1 -15 0 -4 -3z"/>
<path d="M4872 2605 c0 -16 2 -22 5 -12 2 9 2 23 0 30 -3 6 -5 -1 -5 -18z"/>
<path d="M678 2603 c7 -3 16 -2 19 1 4 3 -2 6 -13 5 -11 0 -14 -3 -6 -6z"/>
<path d="M1168 2570 c-2 -22 0 -40 4 -40 5 0 8 18 8 40 0 22 -2 40 -4 40 -2 0
-6 -18 -8 -40z"/>
<path d="M1252 2580 c0 -14 2 -19 5 -12 2 6 2 18 0 25 -3 6 -5 1 -5 -13z"/>
<path d="M565 2548 c1 -15 -3 -30 -9 -32 -6 -2 0 -5 13 -5 18 -1 21 2 13 12
-5 6 -12 21 -15 32 -2 12 -4 9 -2 -7z"/>
<path d="M1080 2569 c0 -6 8 -8 20 -4 10 3 28 2 38 -4 14 -8 19 -6 19 5 0 10
-12 14 -39 14 -21 0 -38 -5 -38 -11z"/>
<path d="M4870 2473 c-3 -56 -1 -99 3 -94 4 4 6 50 5 102 l-3 94 -5 -102z"/>
<path d="M695 2550 c-4 -6 -11 -8 -16 -5 -5 4 -6 -3 -1 -17 4 -13 7 -37 6 -55
-1 -29 1 -31 23 -22 14 5 29 6 35 3 7 -4 8 -2 4 4 -4 7 -18 9 -32 6 -22 -6
-24 -4 -22 25 1 19 7 30 14 27 7 -3 9 5 6 20 -5 27 -8 29 -17 14z"/>
<path d="M800 2531 c-8 -6 -18 -7 -24 -4 -5 3 -6 1 -3 -5 8 -12 47 -4 47 9 0
11 -1 11 -20 0z"/>
<path d="M1036 2529 c4 -7 -7 -10 -32 -9 -63 3 -73 -2 -19 -10 33 -4 53 -3 57
4 11 16 10 26 -3 26 -5 0 -7 -5 -3 -11z"/>
<path d="M870 2520 c-32 -7 -33 -7 -7 -9 16 0 26 -5 22 -11 -3 -5 -4 -10 -1
-10 3 0 10 9 16 20 6 11 9 19 8 19 -2 -1 -19 -5 -38 -9z"/>
<path d="M608 2513 c6 -2 18 -2 25 0 6 3 1 5 -13 5 -14 0 -19 -2 -12 -5z"/>
<path d="M1098 2513 c12 -2 32 -2 45 0 12 2 2 4 -23 4 -25 0 -35 -2 -22 -4z"/>
<path d="M757 2503 c-4 -3 -7 -11 -7 -17 0 -6 5 -5 12 2 6 6 9 14 7 17 -3 3
-9 2 -12 -2z"/>
<path d="M605 2490 c-16 -7 -17 -9 -3 -9 9 -1 20 4 23 9 7 11 7 11 -20 0z"/>
<path d="M558 2483 c7 -3 16 -2 19 1 4 3 -2 6 -13 5 -11 0 -14 -3 -6 -6z"/>
<path d="M1178 2483 c7 -3 16 -2 19 1 4 3 -2 6 -13 5 -11 0 -14 -3 -6 -6z"/>
<path d="M4851 2353 c-1 -17 16 -25 25 -12 4 7 3 9 -4 5 -5 -3 -13 0 -15 6 -4
9 -6 10 -6 1z"/>
<path d="M4731 2290 c-75 -27 -250 -51 -351 -49 -72 2 -85 -1 -88 -14 -3 -15
-61 -17 -670 -19 l-667 -3 -3 -50 c-2 -27 -1 -65 3 -82 l6 -33 154 0 c209 0
216 19 8 23 -87 1 148 4 522 6 374 2 786 7 915 10 l235 7 -172 2 -173 2 0 38
0 38 68 13 c117 23 196 43 218 57 12 7 32 10 44 7 16 -4 21 -3 16 6 -4 6 -13
8 -19 4 -7 -3 -4 3 6 14 17 20 23 44 10 42 -5 0 -32 -9 -62 -19z"/>
<path d="M4545 2170 c-3 -5 -1 -10 4 -10 6 0 11 5 11 10 0 6 -2 10 -4 10 -3 0
-8 -4 -11 -10z"/>
<path d="M1601 2133 c-1 -18 -8 -22 -43 -26 -35 -3 -32 -4 17 -5 33 -1 55 2
49 6 -7 4 -14 16 -17 27 -4 19 -5 18 -6 -2z"/>
<path d="M1378 2103 c12 -2 32 -2 45 0 12 2 2 4 -23 4 -25 0 -35 -2 -22 -4z"/>
<path d="M4808 2026 c3 -45 0 -66 -11 -74 -10 -9 -194 -13 -713 -14 l-699 -3
0 -28 0 -28 730 1 c830 0 761 -8 759 86 -1 45 -3 49 -28 52 -21 3 -26 8 -26
32 0 16 -3 31 -7 33 -5 3 -7 -23 -5 -57z"/>
<path d="M1203 1965 c0 -8 4 -15 9 -15 4 0 8 4 8 9 0 6 -4 12 -8 15 -5 3 -9
-1 -9 -9z"/>
<path d="M1268 1933 c-15 -4 -14 -8 9 -29 l26 -24 423 0 423 0 4 -42 c2 -29 4
-19 5 29 l2 71 -437 0 c-241 0 -446 -2 -455 -5z"/>
<path d="M2962 1862 c1 -55 3 -63 5 -29 l4 47 175 0 175 0 -3 28 -3 27 -177 2
-178 1 2 -76z"/>
<path d="M3415 1830 c-3 -6 1 -7 9 -4 18 7 21 14 7 14 -6 0 -13 -4 -16 -10z"/>
<path d="M4278 1813 c12 -2 32 -2 45 0 12 2 2 4 -23 4 -25 0 -35 -2 -22 -4z"/>
<path d="M3447 1796 c-3 -8 -2 -18 3 -21 13 -8 20 9 11 24 -6 10 -10 9 -14 -3z"/>
<path d="M3491 1801 c-7 -5 -12 -14 -10 -20 3 -7 11 -3 21 9 18 21 13 26 -11
11z"/>
<path d="M3333 1782 c0 -12 5 -22 9 -22 11 0 10 12 -2 30 -7 12 -9 10 -7 -8z"/>
<path d="M4370 1796 c0 -2 8 -10 18 -17 15 -13 16 -12 3 4 -13 16 -21 21 -21
13z"/>
<path d="M2307 1763 c79 -2 207 -2 286 0 78 1 14 3 -143 3 -157 0 -221 -2
-143 -3z"/>
<path d="M2858 1763 c18 -2 45 -2 60 0 15 2 0 4 -33 4 -33 0 -45 -2 -27 -4z"/>
<path d="M4406 1745 c4 -8 8 -15 10 -15 2 0 4 7 4 15 0 8 -4 15 -10 15 -5 0
-7 -7 -4 -15z"/>
<path d="M2743 1670 c0 -47 2 -66 4 -42 2 23 2 61 0 85 -2 23 -4 4 -4 -43z"/>
<path d="M3360 1746 c0 -2 8 -10 18 -17 15 -13 16 -12 3 4 -13 16 -21 21 -21
13z"/>
<path d="M3844 1663 c241 -3 322 -6 328 -16 6 -9 8 -8 8 2 0 11 4 9 16 -5 15
-18 15 -18 4 3 l-10 22 -333 -2 -332 -1 319 -3z"/>
<path d="M4379 1613 c-13 -16 -12 -17 4 -4 16 13 21 21 13 21 -2 0 -10 -8 -17
-17z"/>
<path d="M2723 1573 c1 -30 4 -38 10 -28 5 9 4 27 -1 43 -9 25 -10 23 -9 -15z"/>
<path d="M2821 1573 c-1 -12 4 -25 9 -28 12 -7 12 2 0 30 -8 19 -9 19 -9 -2z"/>
<path d="M2850 1575 c0 -8 4 -15 10 -15 5 0 7 7 4 15 -4 8 -8 15 -10 15 -2 0
-4 -7 -4 -15z"/>
<path d="M1228 1535 c-3 -14 -1 -25 3 -25 5 0 9 9 9 19 0 12 8 21 23 24 20 4
19 4 -4 6 -21 1 -28 -4 -31 -24z"/>
<path d="M1833 1543 c9 -2 25 -2 35 0 9 3 1 5 -18 5 -19 0 -27 -2 -17 -5z"/>
<path d="M4133 1523 c9 -2 23 -2 30 0 6 3 -1 5 -18 5 -16 0 -22 -2 -12 -5z"/>
<path d="M1441 1504 c0 -11 3 -14 6 -6 3 7 2 16 -1 19 -3 4 -6 -2 -5 -13z"/>
<path d="M3787 1514 c-4 -4 -4 -10 -1 -15 6 -10 34 0 34 12 0 10 -24 12 -33 3z"/>
<path d="M3955 1510 c-4 -6 5 -10 19 -10 14 0 26 5 26 10 0 6 -9 10 -19 10
-11 0 -23 -4 -26 -10z"/>
<path d="M4080 1509 c0 -5 5 -7 10 -4 6 3 10 8 10 11 0 2 -4 4 -10 4 -5 0 -10
-5 -10 -11z"/>
<path d="M4196 1508 c3 -5 10 -6 15 -3 13 9 11 12 -6 12 -8 0 -12 -4 -9 -9z"/>
<path d="M4786 1504 c-4 -11 -1 -14 11 -12 9 2 18 9 21 16 6 18 -25 15 -32 -4z"/>
<path d="M1300 1501 c0 -5 7 -12 16 -15 14 -5 15 -4 4 9 -14 17 -20 19 -20 6z"/>
<path d="M1560 1497 c0 -9 10 -12 31 -9 22 3 27 7 18 13 -21 13 -49 11 -49 -4z"/>
<path d="M4160 1499 c0 -7 -7 -17 -16 -23 -14 -10 -13 -12 3 -12 13 0 20 8 21
23 1 13 0 23 -3 23 -3 0 -5 -5 -5 -11z"/>
<path d="M1176 1491 c-4 -5 3 -7 14 -4 23 6 26 13 6 13 -8 0 -17 -4 -20 -9z"/>
<path d="M1225 1490 c3 -5 8 -10 11 -10 2 0 4 5 4 10 0 6 -5 10 -11 10 -5 0
-7 -4 -4 -10z"/>
<path d="M1348 1493 c7 -3 16 -2 19 1 4 3 -2 6 -13 5 -11 0 -14 -3 -6 -6z"/>
<path d="M2787 1493 c-4 -3 -7 -13 -7 -21 0 -18 13 -7 16 13 2 17 1 18 -9 8z"/>
<path d="M1643 1474 c12 -14 17 -38 17 -77 0 -31 3 -58 8 -60 4 -3 5 22 4 55
-3 46 -1 59 8 53 8 -5 11 -3 9 4 -3 7 -7 11 -11 9 -3 -2 -16 6 -29 17 l-24 20
18 -21z"/>
<path d="M1288 1473 c6 -2 9 -10 6 -15 -4 -7 -2 -8 4 -4 18 11 14 26 -5 25
-11 0 -13 -3 -5 -6z"/>
<path d="M1421 1464 c0 -11 3 -14 6 -6 3 7 2 16 -1 19 -3 4 -6 -2 -5 -13z"/>
<path d="M1530 1465 c0 -8 4 -15 10 -15 5 0 7 7 4 15 -4 8 -8 15 -10 15 -2 0
-4 -7 -4 -15z"/>
<path d="M1979 1469 c-13 -4 122 -7 301 -7 179 1 314 2 300 4 -53 7 -579 9
-601 3z"/>
<path d="M3804 1468 c3 -10 1 -20 -4 -23 -6 -4 -9 -16 -9 -28 1 -20 2 -21 6
-2 3 11 9 25 14 30 4 6 3 17 -3 25 -8 12 -9 12 -4 -2z"/>
<path d="M3855 1470 l-30 -8 33 -1 c17 0 32 4 32 9 0 6 -1 9 -2 9 -2 -1 -16
-5 -33 -9z"/>
<path d="M3926 1464 c-3 -9 -4 -19 -1 -22 3 -3 5 -1 5 4 0 6 19 11 41 13 32 1
47 -3 65 -20 l24 -22 -1 24 c0 13 -3 18 -6 12 -3 -10 -8 -9 -20 2 -8 8 -24 15
-36 15 -12 0 -32 3 -43 6 -15 4 -23 0 -28 -12z"/>
<path d="M4328 1474 c6 -3 10 -9 7 -13 -2 -5 7 -6 21 -3 30 5 28 7 -11 15 -16
4 -24 4 -17 1z"/>
<path d="M4454 1468 c-4 -7 -3 -8 4 -4 15 9 15 7 -3 -44 -8 -24 -13 -45 -10
-48 3 -3 5 1 5 8 0 7 3 10 7 7 3 -4 13 -1 22 7 9 8 27 16 41 19 23 4 23 4 -4
6 -17 0 -35 -6 -43 -16 -13 -17 -14 -16 -9 7 3 14 9 35 12 48 7 23 -9 31 -22
10z"/>
<path d="M4821 1464 c0 -11 3 -14 6 -6 3 7 2 16 -1 19 -3 4 -6 -2 -5 -13z"/>
<path d="M1142 1458 c-15 -20 -25 -78 -13 -78 6 0 11 15 11 33 0 18 5 38 12
45 7 7 9 12 6 12 -3 0 -10 -6 -16 -12z"/>
<path d="M1732 1445 c0 -16 2 -22 5 -12 2 9 2 23 0 30 -3 6 -5 -1 -5 -18z"/>
<path d="M4268 1463 c7 -3 16 -2 19 1 4 3 -2 6 -13 5 -11 0 -14 -3 -6 -6z"/>
<path d="M4415 1460 c-3 -6 1 -7 9 -4 18 7 21 14 7 14 -6 0 -13 -4 -16 -10z"/>
<path d="M4503 1463 c9 -2 25 -2 35 0 9 3 1 5 -18 5 -19 0 -27 -2 -17 -5z"/>
<path d="M4620 1466 c0 -2 9 -6 20 -9 11 -3 18 -1 14 4 -5 9 -34 13 -34 5z"/>
<path d="M4682 1464 c9 -3 19 -15 21 -27 l4 -22 2 22 c1 17 5 21 19 16 9 -3
14 -3 10 1 -3 4 -21 9 -40 11 -18 2 -25 1 -16 -1z"/>
<path d="M4750 1466 c0 -2 13 -6 29 -8 17 -2 28 -1 25 4 -5 8 -54 12 -54 4z"/>
<path d="M4601 1444 c0 -11 3 -14 6 -6 3 7 2 16 -1 19 -3 4 -6 -2 -5 -13z"/>
<path d="M1195 1439 c-4 -6 -4 -13 -1 -16 3 -4 6 -1 6 5 0 6 8 13 18 15 15 4
15 5 0 6 -9 0 -20 -4 -23 -10z"/>
<path d="M1348 1443 c6 -2 18 -2 25 0 6 3 1 5 -13 5 -14 0 -19 -2 -12 -5z"/>
<path d="M1443 1415 c0 -22 2 -30 4 -17 2 12 2 30 0 40 -3 9 -5 -1 -4 -23z"/>
<path d="M1500 1439 c0 -5 5 -7 10 -4 6 3 10 8 10 11 0 2 -4 4 -10 4 -5 0 -10
-5 -10 -11z"/>
<path d="M4380 1439 c0 -5 5 -7 10 -4 7 4 9 -3 5 -22 -5 -24 -5 -25 5 -10 7
10 9 25 6 33 -6 16 -26 19 -26 3z"/>
<path d="M3878 1422 c-16 -17 -16 -19 4 -31 14 -9 19 -20 16 -40 -3 -22 0 -27
16 -29 15 -1 17 1 8 7 -8 5 -13 11 -13 15 1 3 1 19 1 36 0 24 -3 28 -17 23
-16 -6 -16 -4 1 15 23 26 9 29 -16 4z"/>
<path d="M4250 1431 c0 -5 -8 -11 -17 -13 -15 -3 -14 -5 5 -10 17 -5 22 -2 22
13 0 10 -2 19 -5 19 -3 0 -5 -4 -5 -9z"/>
<path d="M4826 1427 c3 -10 9 -15 12 -12 3 3 0 11 -7 18 -10 9 -11 8 -5 -6z"/>
<path d="M1230 1425 c-8 -45 -8 -47 2 -37 5 5 8 18 5 28 -3 11 -6 15 -7 9z"/>
<path d="M1294 1414 c-18 -14 -18 -15 4 -4 12 6 22 13 22 15 0 8 -5 6 -26 -11z"/>
<path d="M1502 1400 c0 -14 2 -19 5 -12 2 6 2 18 0 25 -3 6 -5 1 -5 -13z"/>
<path d="M1692 1412 c-9 -6 -6 -14 13 -32 21 -20 27 -21 38 -10 7 8 8 10 1 7
-7 -4 -14 3 -18 18 -7 26 -13 30 -34 17z"/>
<path d="M3965 1409 c-4 -6 -5 -12 -2 -15 2 -3 7 2 10 11 7 17 1 20 -8 4z"/>
<path d="M3995 1385 c0 -18 3 -31 8 -28 4 2 7 15 7 28 0 13 -3 26 -7 28 -5 3
-8 -10 -8 -28z"/>
<path d="M4128 1413 c7 -3 16 -2 19 1 4 3 -2 6 -13 5 -11 0 -14 -3 -6 -6z"/>
<path d="M4590 1360 c0 -58 -1 -59 -23 -51 -19 7 -23 6 -23 -10 0 -10 4 -19 8
-19 4 0 8 4 8 10 0 5 7 7 16 3 9 -3 20 0 25 8 12 19 11 119 -1 119 -6 0 -10
-27 -10 -60z"/>
<path d="M1526 1393 c-6 -14 -5 -15 5 -6 7 7 10 15 7 18 -3 3 -9 -2 -12 -12z"/>
<path d="M4311 1394 c0 -11 3 -14 6 -6 3 7 2 16 -1 19 -3 4 -6 -2 -5 -13z"/>
<path d="M4690 1394 c0 -10 -6 -14 -15 -10 -12 4 -15 -3 -15 -34 0 -45 2 -47
21 -23 10 11 10 14 2 9 -9 -5 -13 0 -13 15 0 21 1 21 18 6 17 -16 18 -15 14
18 -4 36 -12 48 -12 19z"/>
<path d="M1362 1384 c-7 -8 -8 -14 -3 -14 10 0 25 19 20 25 -2 1 -10 -3 -17
-11z"/>
<path d="M1587 1393 c-10 -10 -8 -23 4 -23 5 0 8 4 4 9 -3 5 3 12 12 14 14 4
15 5 2 6 -9 0 -19 -2 -22 -6z"/>
<path d="M4060 1393 c0 -5 5 -15 10 -23 8 -12 10 -11 10 8 0 12 -4 22 -10 22
-5 0 -10 -3 -10 -7z"/>
<path d="M4162 1365 c-2 -49 12 -66 53 -64 29 2 29 2 3 6 -34 5 -45 19 -51 63
-4 35 -4 35 -5 -5z"/>
<path d="M1286 1375 c-3 -8 -1 -15 5 -15 6 0 7 -5 3 -12 -4 -6 -3 -8 4 -5 5 4
8 16 5 27 -6 24 -9 25 -17 5z"/>
<path d="M4261 1380 c0 -8 4 -22 9 -30 12 -18 12 -2 0 25 -6 13 -9 15 -9 5z"/>
<path d="M4130 1369 c0 -5 5 -7 10 -4 6 3 10 8 10 11 0 2 -4 4 -10 4 -5 0 -10
-5 -10 -11z"/>
<path d="M4351 1370 c0 -8 4 -22 9 -30 12 -18 12 -2 0 25 -6 13 -9 15 -9 5z"/>
<path d="M1530 1361 c0 -6 4 -13 10 -16 6 -3 7 1 4 9 -7 18 -14 21 -14 7z"/>
<path d="M3815 1360 c-16 -7 -14 -8 12 -7 17 1 29 5 26 10 -5 9 -12 8 -38 -3z"/>
<path d="M4800 1358 c0 -4 4 -8 9 -8 6 0 12 4 15 8 3 5 -1 9 -9 9 -8 0 -15 -4
-15 -9z"/>
<path d="M4048 1348 c-4 -9 -1 -22 7 -28 12 -10 16 -9 21 4 4 9 4 20 0 23 -3
4 -6 -2 -7 -13 -1 -14 -3 -13 -8 6 -6 20 -8 22 -13 8z"/>
<path d="M4232 1354 c9 -3 19 -13 22 -22 3 -12 4 -12 3 3 -1 12 -10 21 -22 22
-15 1 -15 0 -3 -3z"/>
<path d="M4450 1351 c0 -6 4 -13 10 -16 6 -3 7 1 4 9 -7 18 -14 21 -14 7z"/>
<path d="M1415 1343 c-31 -8 -37 -18 -10 -18 14 0 27 6 30 13 2 6 3 11 2 11
-1 -1 -11 -3 -22 -6z"/>
<path d="M1916 1335 c-11 -8 -15 -15 -9 -15 7 0 15 5 18 10 4 6 11 8 16 5 5
-4 9 -1 9 4 0 15 -11 13 -34 -4z"/>
<path d="M1205 1330 c-3 -6 1 -7 9 -4 18 7 21 14 7 14 -6 0 -13 -4 -16 -10z"/>
<path d="M1245 1330 c-4 -6 1 -7 11 -3 11 4 22 -1 31 -13 13 -17 15 -17 26 -3
7 9 19 14 27 12 9 -3 7 1 -4 8 -14 9 -20 8 -27 -2 -6 -11 -11 -11 -21 -1 -15
15 -35 16 -43 2z"/>
<path d="M1460 1330 c-23 -7 -23 -8 -3 -9 12 -1 25 4 28 9 3 6 5 10 3 9 -2 -1
-14 -5 -28 -9z"/>
<path d="M4275 1320 c3 -5 8 -10 11 -10 2 0 4 5 4 10 0 6 -5 10 -11 10 -5 0
-7 -4 -4 -10z"/>
<path d="M4425 1320 c4 -6 11 -8 16 -5 14 9 11 15 -7 15 -8 0 -12 -5 -9 -10z"/>
<path d="M4724 1316 c11 -9 25 -16 32 -16 7 0 15 -6 17 -12 4 -10 8 -9 16 2 8
12 4 16 -22 21 -18 3 -39 9 -47 13 -8 4 -6 0 4 -8z"/>
<path d="M3935 1310 c-4 -6 -11 -8 -16 -5 -5 4 -9 1 -9 -4 0 -6 4 -11 9 -11 5
0 18 -3 28 -6 14 -4 15 -4 4 4 -7 5 -10 15 -7 21 4 6 5 11 2 11 -3 0 -8 -5
-11 -10z"/>
<path d="M4023 1300 c-1 -11 2 -20 7 -20 4 0 7 7 6 15 -3 23 -12 26 -13 5z"/>
<path d="M4320 1309 c-23 -6 -23 -7 -3 -8 12 -1 23 -6 25 -13 3 -8 7 -6 11 5
8 21 -2 26 -33 16z"/>
<path d="M1820 1300 c0 -5 -8 -10 -17 -10 -15 0 -15 -2 -4 -9 9 -6 19 -4 28 4
16 16 17 25 3 25 -5 0 -10 -4 -10 -10z"/>
<path d="M3848 1303 c7 -3 16 -2 19 1 4 3 -2 6 -13 5 -11 0 -14 -3 -6 -6z"/>
<path d="M3973 1303 c9 -2 23 -2 30 0 6 3 -1 5 -18 5 -16 0 -22 -2 -12 -5z"/>
<path d="M4088 1303 c6 -2 18 -2 25 0 6 3 1 5 -13 5 -14 0 -19 -2 -12 -5z"/>
<path d="M4388 1303 c6 -2 18 -2 25 0 6 3 1 5 -13 5 -14 0 -19 -2 -12 -5z"/>
<path d="M4480 1295 c7 -8 18 -15 24 -15 6 0 5 4 -3 9 -11 7 -9 10 10 14 19 3
17 5 -10 6 -29 1 -32 -1 -21 -14z"/>
<path d="M4620 1306 c0 -2 7 -7 16 -10 8 -3 12 -2 9 4 -6 10 -25 14 -25 6z"/>
<path d="M3838 1283 c7 -3 16 -2 19 1 4 3 -2 6 -13 5 -11 0 -14 -3 -6 -6z"/>
<path d="M3080 1270 c0 -5 5 -10 10 -10 6 0 10 5 10 10 0 6 -4 10 -10 10 -5 0
-10 -4 -10 -10z"/>
<path d="M2632 1190 c0 -19 2 -27 5 -17 2 9 2 25 0 35 -3 9 -5 1 -5 -18z"/>
<path d="M2980 1206 c0 -2 7 -7 16 -10 8 -3 12 -2 9 4 -6 10 -25 14 -25 6z"/>
<path d="M3051 1165 c-2 -27 -4 -70 -5 -95 -1 -35 -5 -45 -18 -45 -9 0 -20 -3
-23 -7 -4 -3 5 -5 19 -4 15 2 29 6 32 8 3 3 3 48 1 99 -2 58 -4 75 -6 44z"/>
<path d="M2220 1180 c0 -11 2 -20 4 -20 2 0 6 9 9 20 3 11 1 20 -4 20 -5 0 -9
-9 -9 -20z"/>
<path d="M2340 1190 c0 -5 5 -10 10 -10 6 0 10 5 10 10 0 6 -4 10 -10 10 -5 0
-10 -4 -10 -10z"/>
<path d="M2920 1185 c0 -8 4 -15 10 -15 5 0 7 7 4 15 -4 8 -8 15 -10 15 -2 0
-4 -7 -4 -15z"/>
<path d="M3110 1169 c0 -16 4 -28 9 -25 8 5 3 56 -5 56 -2 0 -4 -14 -4 -31z"/>
<path d="M3396 1191 c-3 -5 1 -11 9 -15 8 -3 15 -1 15 4 0 13 -18 22 -24 11z"/>
<path d="M2284 1182 c3 -6 0 -13 -6 -16 -7 -3 -4 -5 6 -3 21 2 25 19 5 26 -6
2 -9 -1 -5 -7z"/>
<path d="M2202 1155 c0 -16 2 -22 5 -12 2 9 2 23 0 30 -3 6 -5 -1 -5 -18z"/>
<path d="M2880 1169 c0 -5 5 -7 10 -4 6 3 10 8 10 11 0 2 -4 4 -10 4 -5 0 -10
-5 -10 -11z"/>
<path d="M3150 1160 c-9 -6 -10 -10 -3 -10 6 0 15 5 18 10 8 12 4 12 -15 0z"/>
<path d="M3368 1163 c6 -2 18 -2 25 0 6 3 1 5 -13 5 -14 0 -19 -2 -12 -5z"/>
<path d="M3448 1163 c6 -2 18 -2 25 0 6 3 1 5 -13 5 -14 0 -19 -2 -12 -5z"/>
<path d="M3523 1163 c9 -2 23 -2 30 0 6 3 -1 5 -18 5 -16 0 -22 -2 -12 -5z"/>
<path d="M2315 1152 c2 -3 0 -13 -6 -23 -14 -27 -4 -24 14 4 13 20 13 24 1 24
-8 0 -12 -2 -9 -5z"/>
<path d="M2571 1144 c0 -11 3 -14 6 -6 3 7 2 16 -1 19 -3 4 -6 -2 -5 -13z"/>
<path d="M2711 1144 c0 -11 3 -14 6 -6 3 7 2 16 -1 19 -3 4 -6 -2 -5 -13z"/>
<path d="M2895 1151 c-10 -17 12 -21 25 -6 10 12 10 15 -3 15 -9 0 -18 -4 -22
-9z"/>
<path d="M3010 1155 c0 -2 6 -8 13 -14 10 -8 14 -7 14 2 0 8 -6 14 -14 14 -7
0 -13 -1 -13 -2z"/>
<path d="M3255 1137 c12 -20 16 -38 12 -65 -5 -29 -4 -33 5 -18 5 10 8 34 5
52 -3 19 -2 32 2 29 5 -2 14 2 21 10 9 10 9 15 1 15 -6 0 -11 -6 -11 -12 0 -9
-4 -8 -10 2 -8 12 -10 12 -10 1 0 -11 -3 -11 -17 0 -14 12 -14 10 2 -14z"/>
<path d="M3420 1090 c0 -40 2 -71 5 -69 7 8 9 129 2 136 -4 3 -7 -27 -7 -67z"/>
<path d="M3577 1153 c-11 -11 -8 -45 4 -38 6 4 8 13 5 20 -3 8 0 16 7 19 7 3
8 5 1 5 -6 1 -14 -2 -17 -6z"/>
<path d="M3485 1140 c3 -5 8 -10 11 -10 2 0 4 5 4 10 0 6 -5 10 -11 10 -5 0
-7 -4 -4 -10z"/>
<path d="M2451 1131 c-8 -5 -9 -11 -3 -15 5 -3 12 1 16 9 6 17 6 18 -13 6z"/>
<path d="M2366 1122 c-2 -4 4 -8 14 -8 10 0 16 4 14 8 -3 4 -9 8 -14 8 -5 0
-11 -4 -14 -8z"/>
<path d="M2727 1123 c-9 -8 -9 -86 -1 -107 3 -9 11 -16 16 -16 6 0 5 6 -2 15
-7 8 -11 35 -8 65 1 27 3 50 2 50 0 0 -4 -3 -7 -7z"/>
<path d="M2970 1119 c11 -8 12 -12 3 -16 -16 -6 -17 -29 -3 -36 6 -3 5 -4 -2
-3 -7 1 -15 13 -19 27 -6 20 -7 21 -8 4 -1 -29 15 -49 33 -42 18 7 22 27 5 27
-8 0 -8 4 1 15 13 15 6 35 -13 35 -7 0 -6 -4 3 -11z"/>
<path d="M3112 1078 c2 -30 7 -51 13 -49 6 1 8 8 5 15 -2 6 -4 28 -5 49 0 20
-4 37 -8 37 -4 0 -7 -24 -5 -52z"/>
<path d="M3196 1123 c6 -4 14 -15 17 -23 5 -11 6 -9 4 4 -1 11 -9 21 -17 23
-10 3 -11 2 -4 -4z"/>
<path d="M2223 1080 c0 -25 2 -35 4 -22 2 12 2 32 0 45 -2 12 -4 2 -4 -23z"/>
<path d="M2507 1113 c-12 -11 -8 -40 8 -53 16 -13 58 -4 49 12 -4 7 -9 6 -14
-2 -14 -22 -43 -3 -38 25 6 27 5 29 -5 18z"/>
<path d="M2634 1106 c-3 -8 -4 -31 -2 -52 3 -36 4 -35 8 14 5 53 4 63 -6 38z"/>
<path d="M2880 1085 c0 -19 4 -35 8 -35 5 0 8 16 8 35 -1 46 -16 46 -16 0z"/>
<path d="M3497 1099 c4 -13 8 -18 11 -10 2 7 -1 18 -6 23 -8 8 -9 4 -5 -13z"/>
<path d="M3440 1098 c0 -9 5 -20 10 -23 13 -8 13 5 0 25 -8 13 -10 13 -10 -2z"/>
<path d="M2792 1065 c-2 -49 8 -68 28 -55 13 8 12 10 -2 10 -13 0 -18 11 -21
43 l-4 42 -1 -40z"/>
<path d="M3348 1093 c-19 -5 -25 -33 -7 -33 5 0 7 5 4 10 -3 6 -2 10 4 10 5 0
11 -6 14 -12 3 -7 4 -3 4 10 -1 12 -1 21 -2 21 0 -1 -8 -3 -17 -6z"/>
<path d="M3547 1078 c-3 -12 -3 -28 1 -35 5 -8 8 0 9 22 1 40 -2 44 -10 13z"/>
<path d="M2300 1078 c0 -9 -6 -19 -12 -21 -10 -4 -10 -6 0 -6 14 -1 28 26 18
36 -3 4 -6 -1 -6 -9z"/>
<path d="M2663 1055 c0 -22 2 -30 4 -17 2 12 2 30 0 40 -3 9 -5 -1 -4 -23z"/>
<path d="M2822 1060 c0 -19 2 -27 5 -17 2 9 2 25 0 35 -3 9 -5 1 -5 -18z"/>
<path d="M3172 1073 c4 -21 40 -24 44 -5 1 7 0 8 -3 2 -6 -12 -33 -13 -33 -1
0 5 6 12 13 14 7 3 4 6 -6 6 -12 1 -17 -5 -15 -16z"/>
<path d="M2368 1058 c6 -6 18 -8 28 -6 14 3 12 5 -9 10 -19 3 -25 2 -19 -4z"/>
<path d="M2567 1031 c-4 -17 -3 -21 5 -13 5 5 8 16 6 23 -3 8 -7 3 -11 -10z"/>
<path d="M2883 1022 c2 -26 10 -28 28 -5 12 14 12 15 0 9 -8 -5 -16 -3 -22 5
-6 10 -8 7 -6 -9z"/>
<path d="M3517 1007 c-17 -31 -17 -31 1 -11 9 11 24 19 32 17 9 -3 11 -1 5 4
-5 4 -12 11 -15 15 -3 4 -13 -8 -23 -25z"/>
<path d="M3298 1023 c6 -2 10 -9 6 -14 -3 -5 2 -9 10 -9 9 0 16 4 16 9 0 9
-25 22 -38 20 -4 0 -1 -3 6 -6z"/>
<path d="M2498 1008 c6 -6 18 -8 28 -6 14 3 12 5 -9 10 -19 3 -25 2 -19 -4z"/>
<path d="M3355 1010 c3 -5 8 -10 11 -10 2 0 4 5 4 10 0 6 -5 10 -11 10 -5 0
-7 -4 -4 -10z"/>
<path d="M2373 1003 c9 -2 23 -2 30 0 6 3 -1 5 -18 5 -16 0 -22 -2 -12 -5z"/>
<path d="M2958 1003 c7 -3 16 -2 19 1 4 3 -2 6 -13 5 -11 0 -14 -3 -6 -6z"/>
<path d="M3188 1003 c7 -3 16 -2 19 1 4 3 -2 6 -13 5 -11 0 -14 -3 -6 -6z"/>
<path d="M3416 993 c6 -4 14 -15 17 -23 5 -11 6 -9 4 4 -1 11 -9 21 -17 23
-10 3 -11 2 -4 -4z"/>
<path d="M3278 972 c-3 -11 0 -19 7 -19 7 0 10 8 7 19 -2 10 -6 18 -7 18 -1 0
-5 -8 -7 -18z"/>
<path d="M3160 970 c0 -5 4 -10 9 -10 6 0 13 5 16 10 3 6 -1 10 -9 10 -9 0
-16 -4 -16 -10z"/>
<path d="M3333 953 c9 -2 23 -2 30 0 6 3 -1 5 -18 5 -16 0 -22 -2 -12 -5z"/>
</g>
</svg>
