<?xml version="1.0" encoding="UTF-8"?>
<svg version="1.1" xmlns="http://www.w3.org/2000/svg" width="284" height="177">
<path d="M0 0 C93.72 0 187.44 0 284 0 C284 58.41 284 116.82 284 177 C190.28 177 96.56 177 0 177 C0 118.59 0 60.18 0 0 Z " fill="#013D2A" transform="translate(0,0)"/>
<path d="M0 0 C0.99 1.32 1.98 2.64 3 4 C7.72856121 9.13554068 7.72856121 9.13554068 14.15471625 11.25415033 C14.93867908 11.25610125 15.7226419 11.25805218 16.53036118 11.26006222 C17.89343135 11.2706606 17.89343135 11.2706606 19.28403831 11.2814731 C20.27857654 11.27905802 21.27311477 11.27664293 22.29779053 11.27415466 C23.35728731 11.27939134 24.4167841 11.28462802 25.50838685 11.29002339 C29.07040771 11.30506496 32.63228545 11.30572946 36.19433594 11.30639648 C38.74349206 11.3140152 41.29264588 11.3224422 43.84179688 11.33161926 C50.7757669 11.35360039 57.70968714 11.36238977 64.64368725 11.36744571 C68.97423699 11.3707031 73.30477785 11.37722587 77.63532257 11.3844471 C89.62801197 11.40401329 101.62069312 11.42041723 113.61339951 11.42332363 C114.76453842 11.42360499 114.76453842 11.42360499 115.93893267 11.42389202 C117.49466213 11.42425827 119.05039158 11.42462197 120.60612103 11.42498314 C121.37837648 11.42516595 122.15063193 11.42534876 122.94628906 11.42553711 C123.71948841 11.42571766 124.49268776 11.42589821 125.2893174 11.42608423 C137.81586405 11.42962531 150.34223873 11.45664343 162.86872575 11.494035 C175.7329614 11.53212707 188.59711174 11.55148118 201.46140504 11.55178314 C208.68284956 11.55236754 215.90408896 11.56084749 223.12548065 11.58978081 C229.91843851 11.61687255 236.71092182 11.61819193 243.50393677 11.60212517 C245.99682754 11.600307 248.48974143 11.60703432 250.98258209 11.62294388 C254.3869624 11.64334576 257.78991313 11.63288528 261.1942749 11.61473083 C262.17989025 11.6279308 263.1655056 11.64113077 264.18098807 11.65473074 C270.56254694 11.57704875 275.15682574 10.31784283 280 6 C282.02212048 2.88279249 282.02212048 2.88279249 283 0 C283.33 0 283.66 0 284 0 C284 13.53 284 27.06 284 41 C190.28 41 96.56 41 0 41 C0 27.47 0 13.94 0 0 Z " fill="#FEFEFE" transform="translate(0,136)"/>
<path d="M0 0 C93.72 0 187.44 0 284 0 C284 12.54 284 25.08 284 38 C283.01 36.68 282.02 35.36 281 34 C276.81034435 29.37771323 276.81034435 29.37771323 270.94794482 27.87119883 C270.15340484 27.86941026 269.35886486 27.86762169 268.54024792 27.86577892 C267.62184193 27.86132108 266.70343594 27.85686324 265.75719947 27.85227031 C264.74671131 27.85245467 263.73622315 27.85263903 262.69511414 27.85282898 C261.62280999 27.84915229 260.55050583 27.8454756 259.44570762 27.8416875 C255.83448715 27.83063005 252.22329543 27.82680335 248.61206055 27.82299805 C246.03025216 27.81673505 243.44844467 27.81008839 240.86663818 27.80308533 C233.10658188 27.78332509 225.34652429 27.77325591 217.58644912 27.76435754 C213.93267575 27.75997449 210.27890383 27.75460777 206.62513161 27.74936867 C194.48064188 27.7323579 182.33615306 27.71786299 170.19165325 27.71061993 C167.0402851 27.70871002 163.88891695 27.70678969 160.73754883 27.70483398 C159.95428751 27.70435024 159.17102619 27.7038665 158.36402968 27.7033681 C145.67120401 27.69506495 132.97847249 27.66972259 120.28568795 27.63725331 C107.25651912 27.60419498 94.22739817 27.58617234 81.19818717 27.58297569 C73.8818028 27.5808096 66.56555579 27.57204648 59.24921227 27.54651451 C52.36851733 27.52255829 45.48807358 27.5189741 38.60734558 27.52927589 C36.07975251 27.52977294 33.55214753 27.52340313 31.02459145 27.50971985 C27.57804032 27.492103 24.13238757 27.49905759 20.68583679 27.51225281 C19.6820408 27.50128356 18.6782448 27.49031432 17.64403075 27.47901267 C11.94249178 27.5318336 8.44767405 28.05474685 4 32 C2.11431306 35.10014929 2.11431306 35.10014929 1 38 C0.67 38 0.34 38 0 38 C0 25.46 0 12.92 0 0 Z " fill="#FBFCFC" transform="translate(0,0)"/>
<path d="M0 0 C0.70576172 -0.00064453 1.41152344 -0.00128906 2.13867188 -0.00195312 C7.46713157 0.0518697 12.14342703 0.72847915 17.25 2.1875 C16.85404157 3.67234412 16.43249294 5.1503831 16 6.625 C15.76796875 7.44871094 15.5359375 8.27242187 15.296875 9.12109375 C14.95140625 9.80300781 14.6059375 10.48492187 14.25 11.1875 C12.18457031 11.81665039 12.18457031 11.81665039 10.25 12.1875 C10.27094727 13.2612085 10.29189453 14.33491699 10.31347656 15.44116211 C10.38639829 19.46104361 10.4319874 23.48086778 10.46972656 27.5012207 C10.4897241 29.23439395 10.51693148 30.96750075 10.55175781 32.70043945 C10.95169118 53.12644813 10.95169118 53.12644813 4.52832031 60.04077148 C-1.3013019 65.62677541 -7.46159072 66.51962734 -15.25 66.4375 C-16.35021484 66.44910156 -16.35021484 66.44910156 -17.47265625 66.4609375 C-18.19324219 66.45835937 -18.91382813 66.45578125 -19.65625 66.453125 C-20.29884766 66.45086914 -20.94144531 66.44861328 -21.60351562 66.44628906 C-23.75 66.1875 -23.75 66.1875 -29.75 64.1875 C-29.75 59.8975 -29.75 55.6075 -29.75 51.1875 C-28.47125 51.6825 -27.1925 52.1775 -25.875 52.6875 C-19.78821721 54.70362679 -13.94532364 55.27526975 -7.8125 53.1875 C-4.77078459 50.23795778 -4.0045687 47.21532582 -2.75 43.1875 C-4.235 43.6825 -4.235 43.6825 -5.75 44.1875 C-13.20399418 44.85225679 -18.72491487 44.83183645 -24.75 40.1875 C-30.2510136 34.38913431 -31.22091899 28.97346917 -31.05859375 21.19140625 C-30.42815408 15.05459475 -27.92642955 11.01007249 -23.4375 6.875 C-16.36322676 1.30041209 -8.84578092 -0.00832152 0 0 Z " fill="#FAFBFB" transform="translate(205.75,64.8125)"/>
<path d="M0 0 C4.62 0 9.24 0 14 0 C14 20.79 14 41.58 14 63 C8.45870158 64.10825968 3.31638823 64.25909499 -2.3125 64.3125 C-3.31990234 64.34150391 -4.32730469 64.37050781 -5.36523438 64.40039062 C-12.45577921 64.46044084 -18.18126359 63.54829113 -23.52026367 58.58740234 C-28.8610124 52.57581169 -29.45304338 47.00427464 -29.3125 39.23046875 C-28.71595354 33.06366976 -26.51019109 29.51019109 -22.1875 25.1875 C-14.91153756 20.19419244 -9.63249976 19.68027779 -1 20 C-0.67 13.4 -0.34 6.8 0 0 Z " fill="#F7F8F7" transform="translate(49,45)"/>
<path d="M0 0 C5.96427824 3.52987896 10.06648247 8.15199229 12.0625 14.8125 C13.00453703 22.42492048 12.91713887 29.58096063 8.0625 35.8125 C3.70249624 40.43079782 -0.53859132 43.43822837 -6.98828125 44.1484375 C-13.75217738 44.22944224 -19.53147692 44.24789621 -24.9375 39.8125 C-31.23676157 32.94685745 -32.30613012 27.57523429 -32.2109375 18.33203125 C-31.69915881 11.74470837 -29.31720645 7.83398973 -24.5 3.4375 C-17.78550027 -2.13974107 -8.12811299 -3.14406129 0 0 Z " fill="#FAFBFA" transform="translate(253.9375,66.1875)"/>
<path d="M0 0 C3.0937903 2.98469202 3.9471075 4.54896347 4.45410156 8.87231445 C4.45347366 10.36945278 4.43119127 11.86669248 4.390625 13.36328125 C4.38496521 14.15526413 4.37930542 14.94724701 4.37347412 15.76322937 C4.35117308 18.28028094 4.30099139 20.79588243 4.25 23.3125 C4.22992675 25.02406791 4.21167742 26.73565824 4.1953125 28.44726562 C4.15132925 32.63206485 4.08234769 36.815787 4 41 C-22.29250531 43.56599575 -22.29250531 43.56599575 -29.875 37.5 C-32.62107551 33.83856598 -32.57195755 29.36842939 -32 25 C-29.38934636 19.34358378 -25.61095159 17.13698352 -20 15 C-16.29152516 13.89320712 -12.86563889 13.92566079 -9 14 C-9.33 12.35 -9.66 10.7 -10 9 C-17.12600133 8.64631979 -22.47059106 9.04328652 -29 12 C-29 8.37 -29 4.74 -29 1 C-19.49112717 -3.2058476 -9.51532014 -5.631516 0 0 Z " fill="#F7F8F8" transform="translate(121,68)"/>
<path d="M0 0 C3.63696751 3.29352506 5.4836812 6.37578092 6.06738281 11.26318359 C6.06675782 12.67040634 6.04465057 14.07774209 6.00390625 15.484375 C5.99824646 16.23055084 5.99258667 16.97672668 5.98675537 17.74551392 C5.96451023 20.10966387 5.91434109 22.47225209 5.86328125 24.8359375 C5.84320069 26.44659257 5.82495265 28.05727159 5.80859375 29.66796875 C5.76468506 33.59955257 5.69574443 37.52998102 5.61328125 41.4609375 C0.99328125 41.4609375 -3.62671875 41.4609375 -8.38671875 41.4609375 C-8.71671875 30.9009375 -9.04671875 20.3409375 -9.38671875 9.4609375 C-12.68671875 9.4609375 -15.98671875 9.4609375 -19.38671875 9.4609375 C-19.71671875 20.0209375 -20.04671875 30.5809375 -20.38671875 41.4609375 C-25.00671875 41.4609375 -29.62671875 41.4609375 -34.38671875 41.4609375 C-34.38671875 27.9309375 -34.38671875 14.4009375 -34.38671875 0.4609375 C-9.72350274 -5.23057389 -9.72350274 -5.23057389 0 0 Z " fill="#F8F9F8" transform="translate(165.38671875,67.5390625)"/>
<path d="M0 0 C4.62 0 9.24 0 14 0 C14.09964557 5.92239601 14.17183264 11.84429294 14.21972656 17.76733398 C14.23971393 19.77783724 14.26691326 21.78828333 14.30175781 23.79858398 C14.71613875 48.33846709 14.71613875 48.33846709 8.08666992 56.296875 C4.92552803 59.54782437 3.02859454 60.94586345 -1.5625 61.1875 C-5.44827748 59.84514051 -8.52997676 58.19532082 -12 56 C-10.25337575 54.16144816 -8.59014492 52.71310144 -6.5 51.25 C-2.19903826 47.37913444 -0.88399124 42.97405186 -0.56762695 37.34985352 C-0.52664069 35.60981944 -0.50088249 33.86937735 -0.48828125 32.12890625 C-0.47033005 31.206577 -0.45237885 30.28424774 -0.43388367 29.33396912 C-0.38003264 26.41019152 -0.34596615 23.4865748 -0.3125 20.5625 C-0.27930466 18.57094128 -0.24481296 16.57940371 -0.20898438 14.58789062 C-0.12432074 9.72537697 -0.05738974 4.86290893 0 0 Z " fill="#F9F9F9" transform="translate(70,66)"/>
<path d="M0 0 C2.30275556 1.8670991 3.67823871 3.35647741 5 6 C5.56057057 11.99379306 5.43586934 16.84619599 2 22 C-0.84083641 23.42041821 -2.85477278 23.31452272 -6 23 C-8.30275556 21.1329009 -9.67823871 19.64352259 -11 17 C-11.41676403 12.02287573 -11.65548795 7.48974534 -9.625 2.875 C-6.74757356 -0.44510743 -4.26062514 -0.42606251 0 0 Z " fill="#043D29" transform="translate(247,76)"/>
<path d="M0 0 C0 6.93 0 13.86 0 21 C-10 21 -10 21 -12.5625 19.125 C-15.6183275 14.60768978 -15.76647564 10.35690668 -15 5 C-10.31999854 -1.19783978 -7.75238347 -1.10748335 0 0 Z " fill="#033C28" transform="translate(49,77)"/>
<path d="M0 0 C0 7.26 0 14.52 0 22 C-9 22 -9 22 -11.5 20.6875 C-14.48340932 17.33116452 -14.33370537 13.48804316 -14.28515625 9.22265625 C-13.85531195 5.872226 -12.44879327 4.24472716 -10 2 C-6.38424764 -0.53102666 -4.91446204 0 0 0 Z " fill="#053D29" transform="translate(203,76)"/>
<path d="M0 0 C4.62 0 9.24 0 14 0 C14 4.95 14 9.9 14 15 C9.38 15 4.76 15 0 15 C0 10.05 0 5.1 0 0 Z " fill="#E8EBEA" transform="translate(70,45)"/>
<path d="M0 0 C0 2.97 0 5.94 0 9 C-1.62463842 9.05395478 -3.24978541 9.09277195 -4.875 9.125 C-5.77992187 9.14820312 -6.68484375 9.17140625 -7.6171875 9.1953125 C-10 9 -10 9 -12 7 C-11.625 4.375 -11.625 4.375 -11 2 C-7.17679443 0.57741188 -4.08718695 -0.24042276 0 0 Z " fill="#083B26" transform="translate(113,91)"/>
</svg>
