<?xml version="1.0" encoding="UTF-8"?>
<svg version="1.1" xmlns="http://www.w3.org/2000/svg" width="237" height="213">
<path d="M0 0 C78.21 0 156.42 0 237 0 C237 70.29 237 140.58 237 213 C158.79 213 80.58 213 0 213 C0 142.71 0 72.42 0 0 Z " fill="#FCFCFC" transform="translate(0,0)"/>
<path d="M0 0 C78.21 0 156.42 0 237 0 C237 70.29 237 140.58 237 213 C158.79 213 80.58 213 0 213 C0 142.71 0 72.42 0 0 Z M56.25437927 16.11938477 C54.65948944 18.33614883 53.33157852 20.61603749 52 23 C51.4652002 23.90347168 50.93040039 24.80694336 50.37939453 25.73779297 C48.57945617 28.78915113 46.81819554 31.86048861 45.0625 34.9375 C44.07217215 36.66312721 43.08183993 38.38875192 42.09124756 40.11422729 C41.06942484 41.89507364 40.04894399 43.67668273 39.02880859 45.45849609 C35.82040993 51.06115338 32.598756 56.65616848 29.375 62.25 C28.45545532 63.84714844 28.45545532 63.84714844 27.51733398 65.4765625 C22.73175994 73.77265487 17.87074276 82.0225774 12.94677734 90.23730469 C12.1880835 91.51009277 12.1880835 91.51009277 11.4140625 92.80859375 C10.9701416 93.54907959 10.5262207 94.28956543 10.06884766 95.05249023 C6.96123455 100.71476291 7.03716934 106.7542695 8 113 C10.19686324 119.03842113 13.70526502 124.51334414 17 130 C17.76770552 131.31519401 18.53338541 132.63157286 19.296875 133.94921875 C20.89741441 136.69945575 22.51579789 139.4382483 24.14453125 142.171875 C27.59292805 147.97632696 30.9470442 153.83471927 34.3125 159.6875 C36.23865924 163.02653417 38.1664757 166.36460389 40.09521484 169.70214844 C41.35246618 171.87889172 42.60803563 174.05660742 43.86181641 176.23535156 C45.60830515 179.26573284 47.36519682 182.28983618 49.125 185.3125 C49.64489502 186.21895264 50.16479004 187.12540527 50.70043945 188.05932617 C55.07730627 195.53709912 60.03798243 201.26659554 68 205 C71.30711019 205.6670147 74.50378106 205.66570471 77.86914062 205.61523438 C78.82306198 205.62078339 79.77698334 205.6263324 80.7598114 205.63204956 C83.89247923 205.64379708 87.02368475 205.61961959 90.15625 205.59375 C92.34525486 205.59203751 94.53426178 205.59210599 96.7232666 205.59387207 C101.30285358 205.59222159 105.88194944 205.57357299 110.46142578 205.54199219 C116.31894674 205.50231605 122.17582505 205.49794886 128.0334549 205.50545502 C132.55118654 205.50853084 137.06877489 205.49638231 141.58647156 205.47932434 C143.74573365 205.47231457 145.90501198 205.46916734 148.06428528 205.47001648 C151.08677279 205.46821013 154.10850349 205.44675635 157.13085938 205.41992188 C158.4574482 205.42431778 158.4574482 205.42431778 159.81083679 205.42880249 C166.52625273 205.33724175 172.18262351 204.26764449 177.5625 199.9375 C183.60761989 192.65235552 188.29938023 184.84330658 192.82617188 176.5637207 C196.34014513 170.14500995 199.98735707 163.81304008 203.6875 157.5 C208.54116232 149.20939098 213.38471134 140.91336081 218.19229126 132.59594727 C219.16488097 130.91411356 220.1394243 129.2334101 221.11401367 127.55273438 C222.00697144 126.00682617 222.00697144 126.00682617 222.91796875 124.4296875 C223.44156982 123.52460449 223.9651709 122.61952148 224.50463867 121.68701172 C227.33506258 116.60102877 229.45253364 112.71402791 229.5625 106.8125 C229.62630859 105.27529297 229.62630859 105.27529297 229.69140625 103.70703125 C228.65489944 98.14971507 225.83447947 93.84025934 223 89 C221.89699151 87.02048053 220.79807844 85.0386739 219.703125 83.0546875 C214.19829461 73.18965807 208.68453961 63.33544053 202.91040039 53.625 C200.31018814 49.24703222 197.75681371 44.84462601 195.2265625 40.42578125 C194.89432175 39.84617142 194.56208099 39.26656158 194.21977234 38.66938782 C192.56364654 35.78005488 190.91092652 32.88893413 189.26391602 29.99438477 C183.64106856 19.20646499 183.64106856 19.20646499 174.9375 11.125 C174.28652344 10.73570313 173.63554687 10.34640625 172.96484375 9.9453125 C169.62121421 8.33664779 166.51513853 7.87488564 162.82785034 7.83937073 C162.00380203 7.8293251 161.17975372 7.81927948 160.33073425 7.80892944 C159.43510269 7.80309845 158.53947113 7.79726746 157.61669922 7.79125977 C156.66657455 7.78147598 155.71644989 7.7716922 154.73753357 7.76161194 C151.5932657 7.73170048 148.4490403 7.71028228 145.3046875 7.69140625 C144.22861362 7.68483442 143.15253975 7.6782626 142.04385757 7.67149162 C136.34598352 7.63891404 130.64812803 7.61446116 124.95019531 7.5949707 C120.2438626 7.57717293 115.53813074 7.54237392 110.83203125 7.49243164 C105.14094926 7.43211269 99.45042344 7.40147866 93.75903702 7.39179802 C91.59577079 7.38326125 89.43251871 7.36448738 87.26943588 7.3350544 C69.95422747 6.69002712 69.95422747 6.69002712 56.25437927 16.11938477 Z " fill="#060606" transform="translate(0,0)"/>
<path d="M0 0 C1.03633072 -0.00525696 2.07266144 -0.01051392 3.14039612 -0.01593018 C6.56315215 -0.02912486 9.98544243 -0.02039367 13.40820312 -0.01025391 C15.78804616 -0.01227479 18.16788858 -0.01518634 20.54772949 -0.01895142 C25.53432107 -0.02337406 30.52075139 -0.01694543 35.50732422 -0.00292969 C41.89989813 0.01416194 48.29209418 0.00432047 54.68465424 -0.01364708 C59.59856006 -0.02448638 64.51237627 -0.02103785 69.42628479 -0.0132637 C71.78341212 -0.01126211 74.14054757 -0.01371951 76.49766541 -0.02070236 C79.79163169 -0.028319 83.08498558 -0.01670895 86.37890625 0 C87.35360367 -0.00607269 88.32830109 -0.01214539 89.33253479 -0.0184021 C97.88926953 0.06202959 97.88926953 0.06202959 101.68945312 3.38818359 C104.34056247 6.87642584 105.06631089 9.39812505 105.07763672 13.74169922 C105.0870932 14.78628296 105.09654968 15.8308667 105.10629272 16.90710449 C105.10022003 18.0249231 105.09414734 19.1427417 105.08789062 20.29443359 C105.0907608 21.45189087 105.09363098 22.60934814 105.09658813 23.80187988 C105.09862732 26.24618011 105.09310771 28.69049672 105.08056641 31.13476562 C105.06451162 34.87455765 105.08042103 38.6132689 105.09960938 42.35302734 C105.09762692 44.72933181 105.0937832 47.10563561 105.08789062 49.48193359 C105.09396332 50.5997522 105.10003601 51.7175708 105.10629272 52.8692627 C105.092108 54.43613831 105.092108 54.43613831 105.07763672 56.03466797 C105.07524994 56.95002319 105.07286316 57.86537842 105.07040405 58.80847168 C104.42810306 63.15798601 102.04109536 66.5951484 98.68945312 69.38818359 C95.91547198 70.31284398 94.2177514 70.52323102 91.35162354 70.54881287 C90.46571533 70.55885849 89.57980713 70.56890411 88.66705322 70.57925415 C87.69765808 70.58508514 86.72826294 70.59091614 85.72949219 70.59692383 C84.70641968 70.60670761 83.68334717 70.61649139 82.62927246 70.62657166 C79.2378876 70.65652719 75.84654216 70.67791107 72.45507812 70.69677734 C70.71813313 70.70663508 70.71813313 70.70663508 68.94609833 70.71669197 C62.81726808 70.74928556 56.68845523 70.77373701 50.55957031 70.79321289 C45.48639665 70.81103149 40.41377823 70.84586177 35.34082031 70.89575195 C29.21649261 70.95591295 23.09268012 70.98668319 16.96807098 70.99638557 C14.63486489 71.00494783 12.30167283 71.02378467 9.96863556 71.0531292 C6.70081004 71.09201967 3.434994 71.09308082 0.16699219 71.08520508 C-0.79430603 71.10520569 -1.75560425 71.1252063 -2.74603271 71.14581299 C-8.60839317 71.08247649 -11.76878823 70.03168622 -16.04999161 65.96914768 C-18.47091306 62.93287472 -18.44405773 59.98265713 -18.47167969 56.26171875 C-18.48128723 55.21698395 -18.49089478 54.17224915 -18.50079346 53.09585571 C-18.50504333 51.96771454 -18.50929321 50.83957336 -18.51367188 49.67724609 C-18.51937195 48.51695892 -18.52507202 47.35667175 -18.53094482 46.16122437 C-18.5403961 43.70498568 -18.54692931 41.24873431 -18.55078125 38.79248047 C-18.56049026 35.03509419 -18.59151468 31.27825404 -18.62304688 27.52099609 C-18.6295766 25.13558268 -18.63482719 22.75016535 -18.63867188 20.36474609 C-18.65719208 18.67860703 -18.65719208 18.67860703 -18.67608643 16.95840454 C-18.67158478 15.38184586 -18.67158478 15.38184586 -18.66699219 13.7734375 C-18.67063782 12.85204987 -18.67428345 11.93066223 -18.67803955 10.98135376 C-18.08669514 6.80859932 -16.41101069 4.35137709 -13.26745605 1.59994507 C-8.86050901 -0.20605178 -4.7191061 -0.02940162 0 0 Z " fill="#F8F8F8" transform="translate(75.310546875,96.61181640625)"/>
<path d="M0 0 C0.33 0 0.66 0 1 0 C1 33 1 66 1 100 C-22.76 100 -46.52 100 -71 100 C-71 99.67 -71 99.34 -71 99 C-69.0509375 98.690625 -69.0509375 98.690625 -67.0625 98.375 C-58.36784735 96.42007024 -52.17956212 91.03666885 -47 84 C-44.60075261 80.12130658 -42.42278822 76.13395153 -40.25 72.125 C-39.00658697 69.86772962 -37.76179212 67.61121986 -36.515625 65.35546875 C-35.61166992 63.71457275 -35.61166992 63.71457275 -34.68945312 62.04052734 C-32.51994368 58.13603737 -30.28015894 54.27814571 -28 50.4375 C-27.61505371 49.78676514 -27.23010742 49.13603027 -26.83349609 48.46557617 C-25.55706325 46.30955185 -24.27859055 44.1547454 -23 42 C-15.21093956 28.87288576 -7.55620861 15.79260024 -1 2 C-0.67 1.34 -0.34 0.68 0 0 Z " fill="#FDFDFD" transform="translate(236,113)"/>
<path d="M0 0 C23.76 0 47.52 0 72 0 C72 33.66 72 67.32 72 102 C71.67 102 71.34 102 71 102 C70.85594727 101.40574219 70.71189453 100.81148438 70.56347656 100.19921875 C68.65510671 93.07537657 65.56899715 87.27376599 61.75 81 C60.48352575 78.87550603 59.21793084 76.75048767 57.953125 74.625 C57.30021484 73.53445312 56.64730469 72.44390625 55.97460938 71.3203125 C52.75899248 65.91324156 49.63265614 60.45540406 46.5 55 C45.25177186 52.8356665 44.00307362 50.67160405 42.75390625 48.5078125 C40.85786897 45.22253569 38.96344536 41.93637918 37.07373047 38.64746094 C35.19976636 35.387192 33.31924549 32.13078235 31.4375 28.875 C30.87804687 27.89789062 30.31859375 26.92078125 29.7421875 25.9140625 C23.62323687 15.3570296 17.96376655 6.27277377 6 2 C4.01178687 1.60235737 2.01267638 1.24544834 0 1 C0 0.67 0 0.34 0 0 Z " fill="#FDFDFD" transform="translate(165,0)"/>
<path d="M0 0 C23.1 0 46.2 0 70 0 C66.6901176 2.20658826 63.51898615 3.26649988 59.765625 4.51171875 C51.4626206 8.97986095 47.36147169 16.94596184 42.9375 24.9375 C41.9497016 26.68605061 40.96188338 28.4345906 39.9725647 30.18228149 C38.96418144 31.96601532 37.96028372 33.75222481 36.95654297 35.53857422 C34.02532222 40.72435508 31.01389624 45.86198359 28 51 C22.94240966 59.65744293 17.8990192 68.32303896 12.875 77 C12.24722656 78.08023438 11.61945312 79.16046875 10.97265625 80.2734375 C7.79295024 85.77384397 4.80960232 91.30311051 2 97 C1.34 97.99 0.68 98.98 0 100 C0 67 0 34 0 0 Z " fill="#FDFDFD" transform="translate(0,0)"/>
<path d="M0 0 C1.32694918 2.65389836 2.5258526 5.2197053 3.66796875 7.94140625 C6.43262283 14.18766525 9.89218918 20.03404413 13.3125 25.9375 C14.02421457 27.1731267 14.73555213 28.40897063 15.4465332 29.64501953 C16.90882998 32.18551343 18.37372731 34.72447996 19.84082031 37.26220703 C21.87672979 40.78449651 23.90403911 44.31164269 25.9296875 47.83984375 C29.0070092 53.19688346 32.10028082 58.54447459 35.20068359 63.88818359 C37.00531607 67.00919384 38.7941513 70.13890095 40.58203125 73.26953125 C41.72080104 75.24250686 42.86009942 77.2151775 44 79.1875 C44.50362061 80.07808105 45.00724121 80.96866211 45.52612305 81.88623047 C50.3646465 90.19755865 55.85547 96.51819151 65 100 C67.81448914 100.76754832 67.81448914 100.76754832 70 101 C70 101.33 70 101.66 70 102 C46.9 102 23.8 102 0 102 C0 68.34 0 34.68 0 0 Z " fill="#FDFDFD" transform="translate(0,111)"/>
<path d="M0 0 C1.03633072 -0.00525696 2.07266144 -0.01051392 3.14039612 -0.01593018 C6.56315215 -0.02912486 9.98544243 -0.02039367 13.40820312 -0.01025391 C15.78804616 -0.01227479 18.16788858 -0.01518634 20.54772949 -0.01895142 C25.53432107 -0.02337406 30.52075139 -0.01694543 35.50732422 -0.00292969 C41.89989813 0.01416194 48.29209418 0.00432047 54.68465424 -0.01364708 C59.59856006 -0.02448638 64.51237627 -0.02103785 69.42628479 -0.0132637 C71.78341212 -0.01126211 74.14054757 -0.01371951 76.49766541 -0.02070236 C79.79163169 -0.028319 83.08498558 -0.01670895 86.37890625 0 C87.35360367 -0.00607269 88.32830109 -0.01214539 89.33253479 -0.0184021 C97.88926953 0.06202959 97.88926953 0.06202959 101.68945312 3.38818359 C104.34056247 6.87642584 105.06631089 9.39812505 105.07763672 13.74169922 C105.0870932 14.78628296 105.09654968 15.8308667 105.10629272 16.90710449 C105.10022003 18.0249231 105.09414734 19.1427417 105.08789062 20.29443359 C105.0907608 21.45189087 105.09363098 22.60934814 105.09658813 23.80187988 C105.09862732 26.24618011 105.09310771 28.69049672 105.08056641 31.13476562 C105.06451162 34.87455765 105.08042103 38.6132689 105.09960938 42.35302734 C105.09762692 44.72933181 105.0937832 47.10563561 105.08789062 49.48193359 C105.09396332 50.5997522 105.10003601 51.7175708 105.10629272 52.8692627 C105.092108 54.43613831 105.092108 54.43613831 105.07763672 56.03466797 C105.07524994 56.95002319 105.07286316 57.86537842 105.07040405 58.80847168 C104.42810306 63.15798601 102.04109536 66.5951484 98.68945312 69.38818359 C95.91547198 70.31284398 94.2177514 70.52323102 91.35162354 70.54881287 C90.46571533 70.55885849 89.57980713 70.56890411 88.66705322 70.57925415 C87.69765808 70.58508514 86.72826294 70.59091614 85.72949219 70.59692383 C84.70641968 70.60670761 83.68334717 70.61649139 82.62927246 70.62657166 C79.2378876 70.65652719 75.84654216 70.67791107 72.45507812 70.69677734 C70.71813313 70.70663508 70.71813313 70.70663508 68.94609833 70.71669197 C62.81726808 70.74928556 56.68845523 70.77373701 50.55957031 70.79321289 C45.48639665 70.81103149 40.41377823 70.84586177 35.34082031 70.89575195 C29.21649261 70.95591295 23.09268012 70.98668319 16.96807098 70.99638557 C14.63486489 71.00494783 12.30167283 71.02378467 9.96863556 71.0531292 C6.70081004 71.09201967 3.434994 71.09308082 0.16699219 71.08520508 C-0.79430603 71.10520569 -1.75560425 71.1252063 -2.74603271 71.14581299 C-8.60839317 71.08247649 -11.76878823 70.03168622 -16.04999161 65.96914768 C-18.47091306 62.93287472 -18.44405773 59.98265713 -18.47167969 56.26171875 C-18.48128723 55.21698395 -18.49089478 54.17224915 -18.50079346 53.09585571 C-18.50504333 51.96771454 -18.50929321 50.83957336 -18.51367188 49.67724609 C-18.51937195 48.51695892 -18.52507202 47.35667175 -18.53094482 46.16122437 C-18.5403961 43.70498568 -18.54692931 41.24873431 -18.55078125 38.79248047 C-18.56049026 35.03509419 -18.59151468 31.27825404 -18.62304688 27.52099609 C-18.6295766 25.13558268 -18.63482719 22.75016535 -18.63867188 20.36474609 C-18.65719208 18.67860703 -18.65719208 18.67860703 -18.67608643 16.95840454 C-18.67158478 15.38184586 -18.67158478 15.38184586 -18.66699219 13.7734375 C-18.67063782 12.85204987 -18.67428345 11.93066223 -18.67803955 10.98135376 C-18.08669514 6.80859932 -16.41101069 4.35137709 -13.26745605 1.59994507 C-8.86050901 -0.20605178 -4.7191061 -0.02940162 0 0 Z M-13.31054688 10.38818359 C-14.04507318 12.81088957 -14.04507318 12.81088957 -13.94165039 15.37451172 C-13.9541835 16.33901245 -13.96671661 17.30351318 -13.97962952 18.29724121 C-13.96637131 19.3275647 -13.9531131 20.35788818 -13.93945312 21.41943359 C-13.94186508 22.48810669 -13.94427704 23.55677979 -13.94676208 24.65783691 C-13.94578402 26.91385616 -13.93240024 29.16989953 -13.9074707 31.42578125 C-13.87316484 34.87631878 -13.88681481 38.32429473 -13.90625 41.77490234 C-13.89935138 43.96892365 -13.88967886 46.16293835 -13.87695312 48.35693359 C-13.88191299 49.38725708 -13.88687286 50.41758057 -13.89198303 51.47912598 C-13.81847423 55.95612734 -13.77142759 58.63381168 -11.40014648 62.51513672 C-8.53750405 65.0811132 -7.01308638 65.51363094 -3.26933289 65.53535461 C-2.4239798 65.54250992 -1.57862671 65.54966522 -0.70765686 65.55703735 C0.22172195 65.55972626 1.15110077 65.56241516 2.10864258 65.56518555 C3.08601379 65.57175674 4.06338501 65.57832794 5.07037354 65.58509827 C8.31449453 65.6048577 11.5585692 65.61649937 14.80273438 65.62646484 C15.90894827 65.63054037 17.01516216 65.6346159 18.15489769 65.63881493 C24.00910634 65.65968631 29.86329147 65.67398378 35.7175293 65.68334961 C41.77056058 65.69442012 47.82322486 65.72882468 53.87612629 65.76852131 C58.524945 65.79463996 63.17367562 65.8030372 67.82256126 65.80663109 C70.05411446 65.81150883 72.28566342 65.82315638 74.51714516 65.84166908 C77.63908779 65.86596041 80.7600723 65.86511364 83.88208008 65.8581543 C84.8053862 65.87096436 85.72869232 65.88377441 86.67997742 65.89697266 C90.88425581 65.86278044 93.10067925 65.75574943 96.73991394 63.48381042 C99.56236682 60.44985859 99.8212417 58.78418572 99.88232422 54.74243164 C99.90641861 53.29534065 99.90641861 53.29534065 99.93099976 51.8190155 C99.97541826 47.40498522 100.01651313 42.99110575 100.03955078 38.5769043 C100.05611486 36.24802663 100.08341055 33.9191999 100.12158203 31.59057617 C100.17631315 28.23508292 100.1982196 24.88078169 100.21289062 21.52490234 C100.24689468 19.96530037 100.24689468 19.96530037 100.28158569 18.37419128 C100.27873566 17.40000748 100.27588562 16.42582367 100.27294922 15.42211914 C100.28103607 14.56877487 100.28912292 13.7154306 100.29745483 12.83622742 C99.35335849 9.03494003 97.85489783 7.67204526 94.68945312 5.38818359 C91.37245537 4.66482217 88.13060131 4.70466413 84.74609375 4.74121094 C83.25011909 4.72806854 83.25011909 4.72806854 81.72392273 4.71466064 C78.43073892 4.69267308 75.13890033 4.70721796 71.84570312 4.72412109 C69.55553937 4.7207528 67.26537736 4.71590007 64.97521973 4.70962524 C60.17682872 4.70225474 55.37890327 4.71296574 50.58056641 4.73632812 C44.42988275 4.76481529 38.28028994 4.74841237 32.1296463 4.71846581 C27.4009784 4.70039806 22.67256912 4.70614862 17.94389343 4.71910477 C15.67608003 4.72244019 13.40824314 4.71834696 11.14045715 4.706707 C7.97060962 4.69400758 4.80252846 4.71336444 1.6328125 4.74121094 C0.69551804 4.73108978 -0.24177643 4.72096863 -1.20747375 4.71054077 C-6.89776168 4.80315021 -9.86909021 5.41577606 -13.31054688 10.38818359 Z " fill="#010101" transform="translate(75.310546875,96.61181640625)"/>
<path d="M0 0 C0.75410156 0.00451172 1.50820312 0.00902344 2.28515625 0.01367188 C4.14847127 0.02546501 6.01174555 0.04340058 7.875 0.0625 C7.545 1.7125 7.215 3.3625 6.875 5.0625 C6.215 5.0625 5.555 5.0625 4.875 5.0625 C4.92720703 7.01542969 4.92720703 7.01542969 4.98046875 9.0078125 C5.00861901 10.73436204 5.03591784 12.46092561 5.0625 14.1875 C5.08763672 15.0434375 5.11277344 15.899375 5.13867188 16.78125 C5.19860574 21.97551817 4.83130894 25.58959759 1.875 30.0625 C-2.85162852 33.43866323 -7.50677927 33.64679496 -13.125 33.0625 C-13.785 32.7325 -14.445 32.4025 -15.125 32.0625 C-15.125 30.0825 -15.125 28.1025 -15.125 26.0625 C-11.495 26.0625 -7.865 26.0625 -4.125 26.0625 C-3.795 24.7425 -3.465 23.4225 -3.125 22.0625 C-4.011875 22.124375 -4.89875 22.18625 -5.8125 22.25 C-9.5732515 22.03712727 -11.20811006 21.4122169 -14.125 19.0625 C-16.41799233 15.41455765 -16.38332428 12.13220787 -15.7421875 7.99609375 C-14.72501197 4.80937294 -12.67206149 3.11257388 -10.125 1.0625 C-6.93675432 -0.53162284 -3.49603338 -0.03924735 0 0 Z " fill="#0A0A0A" transform="translate(151.125,54.9375)"/>
<path d="M0 0 C3.61707997 1.90253895 5.61694632 3.45054161 7.06640625 7.23828125 C7.70736293 11.32691015 8.02214658 15.46536517 6.015625 19.1875 C4.25474013 21.33276681 2.55995653 22.99150611 0.06640625 24.23828125 C-4.4594936 24.65482424 -8.60001266 24.74901443 -12.87109375 23.11328125 C-16.52733512 19.78942546 -17.76368418 16.59755784 -18.37109375 11.73828125 C-17.72343877 6.55704139 -15.64033093 3.62212221 -11.62109375 0.36328125 C-7.58639414 -1.32566277 -4.13870756 -1.63039995 0 0 Z " fill="#090909" transform="translate(98.93359375,119.76171875)"/>
<path d="M0 0 C2.31 0 4.62 0 7 0 C7 10.56 7 21.12 7 32 C1.8571548 33.2857113 -3.90173933 34.31008618 -8.94921875 32.17578125 C-11.21115601 30.70250977 -12.78305638 29.43388724 -14 27 C-14.53118252 22.08003072 -14.75105553 18.22672403 -12.125 13.9375 C-8.14215542 10.30608289 -5.20749195 10.91600819 0 11 C0 7.37 0 3.74 0 0 Z " fill="#0B0B0B" transform="translate(70,44)"/>
<path d="M0 0 C3.1875 1.8125 3.1875 1.8125 5 5 C5.86498764 10.24497051 5.88339674 14.47690217 3.1875 19.125 C-0.22739009 22.05204865 -3.4914355 22.39212963 -7.9296875 22.359375 C-11.6233571 21.71820971 -13.42218955 19.64068388 -16 17 C-17.60540839 13.78918322 -17.48463309 10.48289645 -17 7 C-12.79135961 -0.71584071 -8.34168213 -0.99763634 0 0 Z " fill="#070707" transform="translate(176,55)"/>
<path d="M0 0 C4.39742895 0.03426568 7.30617288 0.26534983 10.75 3.25 C12.15457737 6.05915474 11.99895157 8.13810534 11.75 11.25 C11.21375 11.91 10.6775 12.57 10.125 13.25 C9.67125 13.91 9.2175 14.57 8.75 15.25 C9.43314723 18.2997509 9.43314723 18.2997509 10.75 21.25 C11.09976758 22.57911682 11.44096017 23.91082739 11.75 25.25 C7.75 25.25 7.75 25.25 6.265625 23.7890625 C5.84796875 23.15742188 5.4303125 22.52578125 5 21.875 C4.57203125 21.24851563 4.1440625 20.62203125 3.703125 19.9765625 C2.75 18.25 2.75 18.25 2.75 16.25 C1.1 16.25 -0.55 16.25 -2.25 16.25 C-2.25 19.22 -2.25 22.19 -2.25 25.25 C-3.57 25.25 -4.89 25.25 -6.25 25.25 C-6.27886984 21.27084841 -6.29675406 17.29172347 -6.3125 13.3125 C-6.32087891 12.17619141 -6.32925781 11.03988281 -6.33789062 9.86914062 C-6.34111328 8.78955078 -6.34433594 7.70996094 -6.34765625 6.59765625 C-6.35289307 5.59742432 -6.35812988 4.59719238 -6.36352539 3.56665039 C-6.15176546 -0.75461831 -3.79434752 0.06087189 0 0 Z " fill="#080808" transform="translate(116.25,118.75)"/>
<path d="M0 0 C3.85674376 1.4756237 5.21823735 3.47006893 7.25 7 C7.77078125 7.886875 8.2915625 8.77375 8.828125 9.6875 C10 12 10 12 10 14 C10.66 14 11.32 14 12 14 C12.26554688 13.27425781 12.53109375 12.54851562 12.8046875 11.80078125 C14.00072948 8.99829072 15.40329107 6.69520648 17.125 4.1875 C17.66382813 3.39730469 18.20265625 2.60710937 18.7578125 1.79296875 C19.16773438 1.20128906 19.57765625 0.60960938 20 0 C20.99 0.33 21.98 0.66 23 1 C23 8.92 23 16.84 23 25 C21.68 25 20.36 25 19 25 C18.505 18.565 18.505 18.565 18 12 C15.03 16.455 15.03 16.455 12 21 C7.01222852 18.50611426 6.48741151 16.79715076 4 12 C3.67 16.29 3.34 20.58 3 25 C1.68 25 0.36 25 -1 25 C-1.02886984 21.02084841 -1.04675406 17.04172347 -1.0625 13.0625 C-1.07087891 11.92619141 -1.07925781 10.78988281 -1.08789062 9.61914062 C-1.09111328 8.53955078 -1.09433594 7.45996094 -1.09765625 6.34765625 C-1.10289307 5.34742432 -1.10812988 4.34719238 -1.11352539 3.31665039 C-1 1 -1 1 0 0 Z " fill="#050505" transform="translate(133,119)"/>
<path d="M0 0 C1.59134766 -0.03867187 1.59134766 -0.03867187 3.21484375 -0.078125 C6.0625 0.25 6.0625 0.25 7.72216797 1.49243164 C9.42257122 3.72215896 9.41144625 4.91900308 9.35546875 7.69921875 C9.34580078 8.54677734 9.33613281 9.39433594 9.32617188 10.26757812 C9.30103516 11.14865234 9.27589844 12.02972656 9.25 12.9375 C9.22969727 14.27651367 9.22969727 14.27651367 9.20898438 15.64257812 C9.17364079 17.84566166 9.12430493 20.04752582 9.0625 22.25 C6.81356046 22.35823773 4.56312425 22.43569645 2.3125 22.5 C0.43304688 22.56960937 0.43304688 22.56960937 -1.484375 22.640625 C-4.9375 22.25 -4.9375 22.25 -7.37890625 20.45703125 C-8.9375 18.25 -8.9375 18.25 -9.125 14.6875 C-7.9375 11.25 -7.9375 11.25 -4.625 9.3125 C-0.9375 8.25 -0.9375 8.25 3.0625 8.25 C3.0625 7.26 3.0625 6.27 3.0625 5.25 C-0.5675 5.58 -4.1975 5.91 -7.9375 6.25 C-7.9375 4.6 -7.9375 2.95 -7.9375 1.25 C-5.23187257 -0.10281371 -3.01856345 0.04390638 0 0 Z " fill="#0B0B0B" transform="translate(99.9375,54.75)"/>
<path d="M0 0 C1.01610352 -0.04350586 1.01610352 -0.04350586 2.05273438 -0.08789062 C5.24241735 -0.12842423 7.38345636 0.13469952 10.15234375 1.75390625 C12.47239583 5.62065971 12.11684413 9.14787524 11.9375 13.5625 C11.91945312 14.40296875 11.90140625 15.2434375 11.8828125 16.109375 C11.83580798 18.17757395 11.76406724 20.24518441 11.6875 22.3125 C9.3775 22.3125 7.0675 22.3125 4.6875 22.3125 C4.3575 17.0325 4.0275 11.7525 3.6875 6.3125 C0.7175 5.8175 0.7175 5.8175 -2.3125 5.3125 C-2.3125 10.5925 -2.3125 15.8725 -2.3125 21.3125 C-4.2925 21.3125 -6.2725 21.3125 -8.3125 21.3125 C-8.34138146 18.00001813 -8.35925799 14.68756833 -8.375 11.375 C-8.38337891 10.42947266 -8.39175781 9.48394531 -8.40039062 8.50976562 C-8.40361328 7.61064453 -8.40683594 6.71152344 -8.41015625 5.78515625 C-8.41539307 4.95250244 -8.42062988 4.11984863 -8.42602539 3.26196289 C-8.16166283 -1.27768234 -3.54178304 0.04969761 0 0 Z " fill="#080808" transform="translate(121.3125,54.6875)"/>
<path d="M0 0 C2.4375 1.5625 2.4375 1.5625 4 4 C4.79990863 8.01603612 4.61840725 10.96932124 2.5 14.5 C-0.98597004 16.59158203 -4.10215706 16.8876276 -8 16 C-11.44652326 13.55871269 -12.78056289 12.17033126 -13.5625 8 C-12.87642343 4.34092496 -11.57265686 2.64832324 -9 0 C-5.81452856 -1.59273572 -3.39809153 -0.76164121 0 0 Z " fill="#F6F6F6" transform="translate(98,124)"/>
<path d="M0 0 C2.31 0 4.62 0 7 0 C7.08782542 3.52067351 7.14066643 7.04106144 7.1875 10.5625 C7.21263672 11.55314453 7.23777344 12.54378906 7.26367188 13.56445312 C7.32288441 19.5054445 6.96250653 23.7944528 4 29 C1.5625 30.5625 1.5625 30.5625 -1 31 C-3.3125 30.125 -3.3125 30.125 -5 29 C-4.505 27.515 -4.505 27.515 -4 26 C-3.34 26 -2.68 26 -2 26 C-1.00544091 23.01632274 -0.80440368 20.7995808 -0.68359375 17.67578125 C-0.64169922 16.64775391 -0.59980469 15.61972656 -0.55664062 14.56054688 C-0.51732422 13.48869141 -0.47800781 12.41683594 -0.4375 11.3125 C-0.37272461 9.68731445 -0.37272461 9.68731445 -0.30664062 8.02929688 C-0.20053162 5.35299209 -0.09847639 2.67659474 0 0 Z " fill="#090909" transform="translate(81,55)"/>
<path d="M0 0 C1.2375 0.1546875 1.2375 0.1546875 2.5 0.3125 C4.5 3.3125 4.5 3.3125 4.25 6.875 C3.5 10.3125 3.5 10.3125 1.5 12.3125 C-1.43453261 11.94568342 -2.36437246 11.44812754 -4.5 9.3125 C-4.75 5.8125 -4.75 5.8125 -4.5 2.3125 C-2.5 0.3125 -2.5 0.3125 0 0 Z " fill="#EEEEEE" transform="translate(170.5,59.6875)"/>
<path d="M0 0 C0 3.63 0 7.26 0 11 C-2.875 11.1875 -2.875 11.1875 -6 11 C-8.15502531 7.76746204 -8.46856135 6.74849077 -8 3 C-5.63044695 -0.61668624 -4.69248088 0 0 0 Z " fill="#F5F5F5" transform="translate(70,60)"/>
<path d="M0 0 C6.41868512 -0.3633218 6.41868512 -0.3633218 9 1.25 C10 3 10 3 9.75 5.125 C9 7 9 7 8 8 C5.32941149 8.14115161 2.67567762 8.04247107 0 8 C0 5.36 0 2.72 0 0 Z " fill="#EAEAEA" transform="translate(114,123)"/>
<path d="M0 0 C0 3.63 0 7.26 0 11 C-1.65 11 -3.3 11 -5 11 C-7 9 -7 9 -7.3125 6.0625 C-7 3 -7 3 -5.75 1.125 C-4 0 -4 0 0 0 Z " fill="#F9F9F9" transform="translate(149,60)"/>
<path d="M0 0 C2.31 0 4.62 0 7 0 C7 2.31 7 4.62 7 7 C4.69 7 2.38 7 0 7 C0 4.69 0 2.38 0 0 Z " fill="#1B1B1B" transform="translate(81,44)"/>
<path d="M0 0 C1.65 0 3.3 0 5 0 C5 1.32 5 2.64 5 4 C3.02 4 1.04 4 -1 4 C-0.67 2.68 -0.34 1.36 0 0 Z " fill="#F5F5F5" transform="translate(98,68)"/>
</svg>
