<?xml version="1.0" standalone="no"?>
<!DOCTYPE svg PUBLIC "-//W3C//DTD SVG 20010904//EN"
 "http://www.w3.org/TR/2001/REC-SVG-20010904/DTD/svg10.dtd">
<svg version="1.0" xmlns="http://www.w3.org/2000/svg"
 width="984.000000pt" height="984.000000pt" viewBox="0 0 984.000000 984.000000"
 preserveAspectRatio="xMidYMid meet">

<g transform="translate(0.000000,984.000000) scale(0.100000,-0.100000)"
fill="#000000" stroke="none">
<path d="M4610 9819 c-946 -60 -1874 -403 -2641 -979 -870 -653 -1500 -1585
-1789 -2649 -275 -1011 -211 -2095 183 -3091 71 -181 236 -515 335 -681 662
-1109 1705 -1900 2951 -2239 1011 -275 2095 -211 3091 183 181 71 515 236 681
335 1109 662 1900 1705 2239 2951 275 1011 211 2095 -183 3091 -71 181 -236
515 -335 681 -662 1109 -1705 1900 -2951 2239 -498 135 -1058 191 -1581 159z
m1055 -1173 c178 -42 343 -167 444 -337 28 -48 51 -93 51 -100 0 -8 7 -23 15
-33 8 -10 12 -23 9 -28 -3 -5 0 -15 6 -23 8 -9 14 -65 17 -142 5 -109 2 -141
-15 -212 -42 -164 -113 -274 -257 -396 -49 -42 -205 -114 -282 -130 -180 -37
-366 -8 -522 81 -46 27 -163 121 -170 138 -2 5 -18 25 -35 45 -42 46 -76 104
-76 126 0 9 -9 28 -20 42 -11 14 -17 30 -14 35 3 5 1 14 -4 21 -5 7 -14 34
-21 60 -52 214 23 487 176 640 59 59 78 74 159 124 166 103 350 133 539 89z
m-317 -1661 c6 -6 -107 -456 -119 -469 -4 -4 -30 -1 -58 9 -27 9 -64 17 -81
17 -18 1 -34 6 -36 12 -4 9 94 425 110 472 3 8 32 4 91 -12 48 -13 90 -26 93
-29z m-273 -688 c96 -21 155 -47 249 -110 66 -45 152 -128 161 -157 4 -11 10
-20 15 -20 11 0 41 -43 44 -63 1 -8 13 -36 26 -63 51 -106 65 -181 57 -317 -9
-164 -64 -306 -166 -427 -54 -64 -81 -89 -98 -90 -7 0 -13 -6 -13 -12 -1 -14
-97 -80 -145 -99 -16 -6 -39 -15 -50 -19 -93 -37 -265 -51 -378 -31 -61 11
-163 48 -225 83 -106 58 -226 181 -273 277 -12 25 -31 63 -41 84 -11 20 -16
37 -12 37 3 0 1 6 -5 13 -6 8 -8 17 -4 20 3 4 0 13 -7 22 -8 10 -15 58 -18
133 -4 99 -1 131 18 207 37 150 112 277 219 370 39 34 207 135 225 135 7 0 16
3 20 8 15 15 163 40 236 40 41 0 116 -9 165 -21z m-2240 -629 c33 -5 65 -13
70 -17 6 -5 33 -16 60 -27 104 -38 256 -159 295 -235 11 -21 27 -45 37 -54 9
-10 18 -25 19 -33 2 -8 12 -28 23 -43 12 -16 21 -36 21 -47 0 -10 4 -22 8 -27
17 -20 35 -133 37 -230 3 -220 -88 -402 -286 -569 -38 -32 -177 -101 -224
-111 -16 -4 -37 -9 -45 -12 -33 -13 -49 -15 -150 -18 -114 -3 -228 18 -298 55
-20 11 -40 20 -43 20 -16 0 -140 91 -180 133 -87 91 -103 112 -139 192 -52
113 -73 208 -72 329 0 119 17 186 73 299 66 133 140 218 251 287 183 115 330
144 543 108z m1136 -270 c2 -20 5 -32 11 -48 9 -22 29 -112 26 -114 -2 -1 -34
-10 -73 -20 -38 -10 -77 -20 -85 -22 -8 -2 -42 -11 -75 -19 -33 -9 -68 -20
-77 -25 -10 -6 -29 -10 -42 -10 -21 0 -25 6 -32 43 -5 23 -9 47 -9 52 -1 6 -7
21 -14 33 -7 13 -10 26 -7 29 5 5 149 47 191 56 6 2 15 5 20 9 10 6 83 27 119
34 10 2 21 6 24 9 10 9 22 5 23 -7z m1700 -435 c9 -10 71 -69 137 -132 l120
-114 -57 -59 c-32 -32 -62 -58 -67 -58 -5 0 -21 12 -35 28 -13 15 -43 44 -64
64 -22 21 -44 42 -50 48 -5 5 -37 35 -70 66 -52 49 -57 57 -42 66 19 10 77 71
90 94 11 18 19 18 38 -3z m1002 -259 c42 -4 94 -17 125 -30 29 -13 58 -24 65
-24 34 0 188 -118 245 -187 39 -47 132 -204 132 -222 0 -9 4 -21 9 -26 16 -16
41 -160 41 -230 0 -139 -57 -308 -140 -417 -76 -98 -195 -196 -272 -224 -22
-8 -46 -18 -52 -22 -6 -5 -36 -14 -66 -20 -30 -7 -66 -15 -80 -18 -14 -3 -65
-7 -115 -8 -114 -3 -253 30 -342 82 -61 36 -133 89 -133 100 0 6 -4 12 -10 12
-12 0 -60 48 -60 60 0 5 -9 15 -19 22 -24 17 -92 129 -85 140 3 5 -1 17 -9 26
-18 21 -39 81 -32 92 3 5 1 11 -4 15 -6 3 -8 12 -5 19 3 8 1 16 -4 20 -17 10
-15 228 3 297 41 160 171 351 275 404 19 10 37 21 40 26 11 16 127 72 190 91
66 20 194 38 218 32 8 -2 46 -7 85 -10z m-4327 -2095 c163 -83 163 -335 0
-418 -44 -23 -65 -26 -183 -29 l-133 -4 0 242 0 242 133 -4 c118 -3 139 -6
183 -29z m512 -203 c51 -129 92 -237 92 -241 0 -3 -23 -5 -52 -3 -55 3 -64 11
-88 81 -9 27 -10 27 -103 27 l-94 0 -13 -45 c-16 -58 -28 -67 -87 -63 l-49 3
83 210 c45 116 87 222 92 238 9 25 14 27 69 27 l58 0 92 -234z m442 189 l0
-45 -70 0 -70 0 0 -195 0 -195 -55 0 -55 0 0 195 0 195 -70 0 -70 0 0 45 0 45
195 0 195 0 0 -45z m348 -189 c51 -129 92 -237 92 -241 0 -3 -23 -5 -52 -3
-55 3 -64 11 -88 81 -9 27 -10 27 -103 27 l-94 0 -13 -45 c-16 -58 -28 -67
-87 -63 l-49 3 83 210 c45 116 87 222 92 238 9 25 14 27 69 27 l58 0 92 -234z
m515 208 c42 -20 43 -23 22 -64 -18 -35 -20 -35 -68 -15 -56 23 -94 19 -113
-11 -16 -24 -16 -26 2 -43 10 -10 49 -29 86 -41 110 -35 145 -104 102 -196
-41 -87 -186 -108 -293 -43 l-32 19 17 30 c24 40 38 43 84 20 63 -32 117 -23
133 22 10 28 -23 55 -95 78 -83 26 -118 63 -118 121 0 42 18 87 44 108 51 43
157 49 229 15z m467 -19 l0 -45 -70 0 -70 0 0 -195 0 -195 -55 0 -55 0 0 195
0 195 -70 0 -70 0 0 45 0 45 195 0 195 0 0 -45z m337 22 c49 -26 73 -63 73
-114 0 -55 -21 -96 -60 -119 -29 -18 -29 -19 -11 -39 18 -20 111 -171 111
-181 0 -3 -28 -4 -62 -2 l-63 3 -51 85 c-41 69 -55 86 -77 88 l-27 3 0 -90 0
-91 -55 0 -55 0 0 241 0 241 123 -4 c88 -3 131 -9 154 -21z m253 -119 c0 -79
5 -159 10 -179 12 -43 46 -69 90 -69 83 0 100 41 100 240 l0 150 55 0 55 0 0
-160 c0 -171 -8 -210 -53 -258 -40 -43 -77 -56 -157 -56 -84 0 -122 15 -163
64 -39 46 -47 90 -47 258 l0 152 55 0 55 0 0 -142z m697 127 c27 -8 57 -23 66
-33 15 -16 15 -20 -7 -47 -23 -29 -25 -30 -58 -16 -124 51 -208 -1 -208 -132
0 -60 27 -112 70 -134 34 -17 102 -16 126 2 28 21 58 18 83 -9 l22 -24 -34
-26 c-78 -60 -225 -57 -300 5 -59 49 -82 101 -82 189 0 118 46 186 147 221 65
22 109 24 175 4z m493 -30 l0 -45 -70 0 -70 0 0 -195 0 -195 -55 0 -55 0 0
195 0 195 -70 0 -70 0 0 45 0 45 195 0 195 0 0 -45z m150 -97 c0 -79 5 -159
10 -179 12 -43 46 -69 90 -69 83 0 100 41 100 240 l0 150 55 0 55 0 0 -160 c0
-171 -8 -210 -53 -258 -40 -43 -77 -56 -157 -56 -84 0 -122 15 -163 64 -39 46
-47 90 -47 258 l0 152 55 0 55 0 0 -142z m677 119 c49 -26 73 -63 73 -114 0
-55 -21 -96 -60 -119 -29 -18 -29 -19 -11 -39 18 -20 111 -171 111 -181 0 -3
-28 -4 -62 -2 l-63 3 -51 85 c-41 69 -55 86 -77 88 l-27 3 0 -90 0 -91 -55 0
-55 0 0 241 0 241 123 -4 c88 -3 131 -9 154 -21z m473 -17 l0 -40 -100 0 -100
0 0 -60 0 -60 75 0 75 0 0 -40 0 -40 -75 0 -75 0 0 -60 0 -60 100 0 100 0 0
-40 0 -40 -155 0 -155 0 0 240 0 240 155 0 155 0 0 -40z m323 14 c42 -20 43
-23 22 -64 -18 -35 -20 -35 -68 -15 -56 23 -94 19 -113 -11 -16 -24 -16 -26 2
-43 10 -10 49 -29 86 -41 110 -35 145 -104 102 -196 -41 -87 -186 -108 -293
-43 l-32 19 17 30 c24 40 38 43 84 20 63 -32 117 -23 133 22 10 28 -23 55 -95
78 -83 26 -118 63 -118 121 0 42 18 87 44 108 51 43 157 49 229 15z"/>
<path d="M5379 8470 c-173 -29 -354 -206 -405 -395 -51 -186 35 -428 193 -546
82 -62 108 -75 198 -99 180 -47 367 8 505 149 114 116 167 252 156 395 -12
147 -61 251 -166 356 -68 68 -159 121 -242 140 -50 11 -172 11 -239 0z"/>
<path d="M4850 6130 c-125 -15 -231 -70 -322 -169 -162 -175 -193 -401 -83
-610 121 -229 390 -336 632 -252 190 66 308 194 352 379 42 182 -13 366 -149
502 -118 117 -266 168 -430 150z"/>
<path d="M2568 5479 c-107 -25 -171 -61 -249 -136 -282 -272 -186 -741 181
-880 78 -30 104 -35 195 -34 292 2 525 239 525 534 0 341 -322 596 -652 516z"/>
<path d="M6471 4520 c-80 -12 -209 -80 -272 -142 -134 -134 -192 -314 -155
-486 43 -207 209 -374 414 -417 86 -19 134 -19 223 0 98 21 181 67 260 146
189 188 208 480 46 695 -118 156 -318 235 -516 204z"/>
<path d="M2140 2400 l0 -160 55 0 c106 0 155 50 155 158 0 111 -47 162 -152
162 l-58 0 0 -160z"/>
<path d="M2673 2440 l-32 -90 64 0 c36 0 65 4 65 9 0 14 -51 155 -59 163 -4 4
-21 -33 -38 -82z"/>
<path d="M3463 2440 l-32 -90 64 0 c36 0 65 4 65 9 0 14 -51 155 -59 163 -4 4
-21 -33 -38 -82z"/>
<path d="M4800 2490 l0 -70 43 0 c55 0 87 27 87 75 0 43 -29 65 -87 65 l-43 0
0 -70z"/>
<path d="M7070 2490 l0 -70 43 0 c55 0 87 27 87 75 0 43 -29 65 -87 65 l-43 0
0 -70z"/>
</g>
</svg>
