<?xml version="1.0" standalone="no"?>
<!DOCTYPE svg PUBLIC "-//W3C//DTD SVG 20010904//EN"
 "http://www.w3.org/TR/2001/REC-SVG-20010904/DTD/svg10.dtd">
<svg version="1.0" xmlns="http://www.w3.org/2000/svg"
 width="330.000000pt" height="153.000000pt" viewBox="0 0 330.000000 153.000000"
 preserveAspectRatio="xMidYMid meet">

<g transform="translate(0.000000,153.000000) scale(0.100000,-0.100000)"
fill="#000000" stroke="none">
<path d="M1374 831 c-84 -22 -128 -88 -128 -191 0 -134 56 -185 204 -185 72 0
92 4 130 25 45 25 45 26 48 85 5 104 5 105 -93 105 l-85 0 0 -40 0 -40 40 0
c46 0 54 -19 18 -44 -35 -25 -94 -20 -123 9 -21 21 -25 33 -25 88 0 77 17 105
71 113 29 5 40 2 57 -16 19 -20 27 -22 76 -16 31 4 56 10 56 14 0 16 -41 72
-60 82 -27 15 -146 22 -186 11z"/>
<path d="M2343 834 c-12 -3 -36 -18 -53 -34 -25 -23 -30 -36 -30 -74 0 -39 4
-48 33 -70 17 -13 55 -31 84 -39 70 -21 93 -34 93 -55 0 -26 -20 -42 -52 -42
-27 0 -68 30 -68 50 0 6 -25 10 -55 10 -30 0 -55 -4 -55 -9 0 -25 32 -80 56
-96 35 -23 148 -32 197 -16 54 18 87 63 87 118 0 62 -33 94 -125 118 -78 20
-99 34 -89 58 12 33 94 12 94 -25 0 -9 98 -2 108 7 10 9 -33 74 -56 85 -29 13
-133 22 -169 14z"/>
<path d="M431 708 c1 -68 4 -114 6 -103 3 11 10 23 17 27 8 6 8 8 0 8 -15 0
-15 53 0 62 8 6 7 8 -1 8 -9 0 -13 16 -13 45 0 33 4 45 14 45 19 0 29 -17 16
-25 -6 -4 -8 -11 -4 -16 3 -6 5 -43 4 -82 -1 -40 -1 -88 -1 -108 1 -26 -3 -36
-14 -36 -18 0 -20 24 -3 29 7 3 6 7 -5 11 -15 6 -17 -1 -17 -52 0 -38 4 -60
13 -63 6 -2 77 -3 157 -3 l145 2 2 24 c4 57 0 59 -108 59 l-100 0 3 38 3 37
93 3 93 3 -3 32 -3 32 -93 3 -93 3 3 31 3 31 98 -2 97 -2 0 40 0 41 -155 0
-155 0 1 -122z"/>
<path d="M812 643 l3 -188 53 0 52 0 0 97 c0 54 3 98 8 98 4 0 20 -23 37 -50
16 -28 33 -50 37 -50 4 0 8 -4 8 -10 0 -5 7 -18 15 -27 8 -10 20 -26 28 -36 7
-11 31 -21 55 -24 40 -5 42 -4 42 20 0 14 5 29 10 32 6 4 10 70 10 166 l0 159
-50 0 -50 0 0 -100 c0 -55 -3 -100 -7 -100 -5 1 -37 44 -73 98 l-65 97 -58 3
-57 3 2 -188z"/>
<path d="M1700 643 l0 -188 93 0 c50 0 98 4 105 8 7 5 19 4 26 -2 10 -8 17 -7
26 5 8 8 22 13 32 11 15 -4 18 1 18 29 0 20 -5 34 -12 35 -7 0 -49 1 -93 2
l-80 2 -3 143 -3 142 -54 0 -55 0 0 -187z m56 77 c2 -69 0 -80 -14 -81 -15 -1
-15 -2 1 -6 9 -2 17 -9 17 -14 0 -5 -8 -10 -17 -10 -15 -1 -15 -2 -2 -6 11 -2
16 -17 17 -43 2 -34 -1 -40 -18 -40 -21 0 -28 19 -7 21 10 0 10 2 0 6 -10 3
-13 39 -13 128 0 90 3 125 13 128 19 7 21 1 23 -83z"/>
<path d="M2060 644 c0 -121 3 -183 10 -179 6 3 15 3 22 -1 6 -4 27 -9 45 -10
l33 -2 0 189 0 189 -55 0 -55 0 0 -186z"/>
<path d="M2650 645 l0 -185 28 -1 c15 0 39 -3 55 -5 l27 -5 0 81 0 80 65 0 65
0 0 -75 c0 -41 3 -76 8 -76 4 -1 26 -3 50 -4 l42 -2 0 58 c0 33 4 59 10 59 6
0 10 50 10 130 l0 130 -60 0 -60 0 0 -65 0 -65 -65 0 -65 0 0 65 0 65 -55 0
-55 0 0 -185z m52 147 c-1 -7 -3 -24 -4 -37 -2 -15 -9 -25 -18 -25 -11 0 -16
11 -17 41 -2 36 1 40 20 37 12 -2 21 -9 19 -16z m3 -78 c-6 -2 -9 -42 -8 -94
1 -78 -1 -90 -15 -90 -13 0 -17 10 -18 43 -1 23 4 45 10 49 8 6 7 8 -1 8 -20
0 -15 30 5 31 16 1 16 2 0 6 -12 3 -17 13 -16 29 2 19 8 24 28 23 14 0 21 -2
15 -5z"/>
</g>
</svg>
