<?xml version="1.0" standalone="no"?>
<!DOCTYPE svg PUBLIC "-//W3C//DTD SVG 20010904//EN"
 "http://www.w3.org/TR/2001/REC-SVG-20010904/DTD/svg10.dtd">
<svg version="1.0" xmlns="http://www.w3.org/2000/svg"
 width="360.000000pt" height="199.000000pt" viewBox="0 0 360.000000 199.000000"
 preserveAspectRatio="xMidYMid meet">

<g transform="translate(0.000000,199.000000) scale(0.100000,-0.100000)"
fill="#000000" stroke="none">
<path d="M971 1694 c-151 -41 -224 -186 -157 -317 l23 -47 -83 0 c-46 0 -84
-2 -84 -5 0 -3 9 -24 20 -45 l20 -40 62 0 61 0 -4 -371 -4 -372 40 -14 c72
-25 69 -46 61 377 l-7 380 306 0 305 0 0 -58 0 -59 -148 -10 c-117 -9 -157
-15 -190 -32 -47 -24 -82 -81 -82 -133 1 -43 34 -115 71 -154 l30 -31 -17 -52
c-45 -138 31 -273 204 -364 67 -35 235 -97 265 -97 8 0 29 21 46 47 l31 48
-80 12 c-90 12 -207 46 -260 73 -77 40 -129 126 -115 193 13 61 50 103 122
139 54 26 79 33 131 33 55 0 66 -3 83 -24 35 -43 1 -94 -94 -143 -52 -26 -57
-31 -46 -46 29 -38 63 -72 74 -72 21 0 117 72 135 103 31 49 27 122 -9 179
-80 126 -238 143 -393 40 -39 -25 -41 -26 -54 -7 -38 51 -21 131 34 159 44 23
137 36 254 36 l108 0 0 110 0 110 305 0 306 0 -3 -77 -3 -78 -120 -5 c-106 -4
-127 -8 -178 -33 -77 -39 -110 -87 -115 -172 -4 -52 0 -73 23 -124 46 -103
135 -169 254 -191 66 -12 124 -7 178 16 32 12 34 12 57 -19 49 -64 43 -113
-22 -180 l-37 -38 25 -20 c14 -11 37 -28 52 -39 l26 -20 33 27 c45 38 72 104
64 153 -7 42 -48 111 -89 149 l-25 24 29 34 c52 59 52 107 0 167 -17 18 -44
36 -61 40 -38 7 -93 -15 -109 -44 -12 -22 -10 -91 4 -121 18 -40 -145 -54
-213 -19 -68 34 -105 122 -81 194 26 80 113 115 291 119 l114 2 3 128 3 127
133 0 133 0 -5 -373 -5 -374 47 -12 c26 -6 51 -9 55 -7 5 3 6 177 3 386 l-5
380 82 0 c44 0 81 2 81 5 0 3 -9 24 -20 45 -20 40 -21 40 -79 40 l-58 0 -17
60 c-24 89 -53 144 -103 200 -149 166 -403 139 -403 -43 0 -73 40 -142 98
-167 60 -27 67 -25 43 9 -26 37 -46 110 -38 143 11 41 54 76 102 84 58 8 123
-22 158 -74 29 -42 57 -130 57 -179 l0 -33 -847 2 -848 3 -13 42 c-28 86 34
189 131 218 155 46 317 -11 484 -169 l71 -66 15 24 c16 24 15 25 -66 103 -130
124 -227 181 -357 209 -81 17 -130 17 -199 -2z"/>
<path d="M1660 1655 l-44 -45 47 -48 47 -47 47 47 c26 26 45 49 42 50 -2 2
-25 22 -50 46 l-45 42 -44 -45z"/>
</g>
</svg>
