<?xml version="1.0" encoding="UTF-8"?>
<svg version="1.1" xmlns="http://www.w3.org/2000/svg" width="299" height="168">
<path d="M0 0 C98.67 0 197.34 0 299 0 C299 55.44 299 110.88 299 168 C200.33 168 101.66 168 0 168 C0 112.56 0 57.12 0 0 Z " fill="#416FCC" transform="translate(0,0)"/>
<path d="M0 0 C13.2 0 26.4 0 40 0 C40.20054405 17.97765965 40.20054405 17.97765965 40.24414062 25.65625 C40.27400044 30.8905581 40.30927766 36.1244278 40.37719727 41.35839844 C40.43162831 45.57946441 40.46144371 49.80006013 40.47438622 54.02145004 C40.48360633 55.62981441 40.5016116 57.23815379 40.52865028 58.84631729 C40.56509091 61.10399707 40.5699395 63.359748 40.56762695 65.61767578 C40.58428154 67.54294601 40.58428154 67.54294601 40.60127258 69.5071106 C39.8136526 74.08252212 38.12852194 75.64065792 35 79 C34.33155503 81.28838274 34.33155503 81.28838274 34.51171875 83.5234375 C34.52783203 84.31621094 34.54394531 85.10898438 34.56054688 85.92578125 C34.60244141 86.73402344 34.64433594 87.54226562 34.6875 88.375 C34.72133789 89.62216797 34.72133789 89.62216797 34.75585938 90.89453125 C34.81436346 92.93047353 34.90403205 94.96547945 35 97 C36.45792884 97.05399736 37.91642712 97.09279177 39.375 97.125 C40.18710938 97.14820312 40.99921875 97.17140625 41.8359375 97.1953125 C44.21342243 97.21370051 44.21342243 97.21370051 46 95 C46.2459409 92.0633979 46.37375252 89.21437888 46.4140625 86.2734375 C46.43342865 85.41062164 46.4527948 84.54780579 46.4727478 83.65884399 C46.53262204 80.89766384 46.57895998 78.13644216 46.625 75.375 C46.66317259 73.50518995 46.70222389 71.63539762 46.7421875 69.765625 C46.83832992 65.17722691 46.92233166 60.58874649 47 56 C47.78930908 55.88213135 48.57861816 55.7642627 49.3918457 55.64282227 C52.19358155 55.2425865 52.19358155 55.2425865 53.73046875 52.71484375 C54.21128906 51.79832031 54.69210938 50.88179687 55.1875 49.9375 C56.07653436 48.26498945 57.00322482 46.61062499 58 45 C58.66 45 59.32 45 60 45 C60.268125 44.195625 60.53625 43.39125 60.8125 42.5625 C61.204375 41.716875 61.59625 40.87125 62 40 C62.99 39.67 63.98 39.34 65 39 C66.12516085 37.16715557 66.12516085 37.16715557 67 35 C67.66666667 33.66666667 68.33333333 32.33333333 69 31 C69.66 31 70.32 31 71 31 C71.99 28.525 71.99 28.525 73 26 C73.66 26 74.32 26 75 26 C75.11988281 25.41734375 75.23976563 24.8346875 75.36328125 24.234375 C76.40760685 20.56962503 78.29053971 17.67314044 81 15 C84 14.25 84 14.25 87 15 C89.5625 17.3125 89.5625 17.3125 92 20 C93.65948148 21.01187895 95.32580562 22.0126546 97 23 C98.33333333 24.33333333 99.66666667 25.66666667 101 27 C103.13309192 28.23512079 103.13309192 28.23512079 105 29 C105 29.66 105 30.32 105 31 C105.99 31 106.98 31 108 31 C108 31.66 108 32.32 108 33 C108.78375 33.2475 109.5675 33.495 110.375 33.75 C113.32317108 35.15389099 113.9024777 36.00675737 115 39 C114.34 39 113.68 39 113 39 C112.67 40.32 112.34 41.64 112 43 C111.34 43 110.68 43 110 43 C109.896875 43.61875 109.79375 44.2375 109.6875 44.875 C109 47 109 47 106 49 C104.93753473 50.96752828 103.92862192 52.96587579 103 55 C104.98 55.495 104.98 55.495 107 56 C107 58.64 107 61.28 107 64 C102.05 64 97.1 64 92 64 C92.495 75.385 92.495 75.385 93 87 C101.99065876 85.71562018 110.90696652 84.06925194 119.09375 79.9453125 C121.05510971 78.972671 122.87728692 78.39738642 125 77.875 C125.66 77.70742187 126.32 77.53984375 127 77.3671875 C129 77 129 77 133 77 C133 76.34 133 75.68 133 75 C134.47831221 74.80587819 135.95769316 74.61987869 137.4375 74.4375 C138.26121094 74.33308594 139.08492187 74.22867188 139.93359375 74.12109375 C140.95646484 74.06115234 140.95646484 74.06115234 142 74 C143 75 143 75 143.375 78 C143.96943159 82.55111686 145.47004381 86.69026425 147 91 C147.56761363 92.62322088 148.13026387 94.24818743 148.6875 95.875 C149.06455078 96.95394531 149.06455078 96.95394531 149.44921875 98.0546875 C150 100 150 100 150 103 C150.66 103 151.32 103 152 103 C153.4783226 105.95664519 153.06032783 108.74229737 153 112 C150.39741676 112.83857688 147.79314353 113.67103344 145.1875 114.5 C144.44951172 114.73847656 143.71152344 114.97695312 142.95117188 115.22265625 C139.86744804 116.19940136 137.25504191 117 134 117 C134 117.66 134 118.32 134 119 C125.57142857 121.28571429 125.57142857 121.28571429 121 121 C121 121.66 121 122.32 121 123 C120.2265625 123.18175781 119.453125 123.36351562 118.65625 123.55078125 C111.59571671 125.24169167 111.59571671 125.24169167 104.75 127.625 C100.68926926 129.11393461 97.28540288 129.61737474 93 130 C93 130.66 93 131.32 93 132 C86.17017849 134.76445156 81.4035352 133.27232879 74.625 130.9375 C73.56539063 130.57527344 72.50578125 130.21304688 71.4140625 129.83984375 C70.61742187 129.56269531 69.82078125 129.28554687 69 129 C69 128.34 69 127.68 69 127 C68.360625 126.896875 67.72125 126.79375 67.0625 126.6875 C62.93522674 125.76096927 58.99357051 124.38339371 55 123 C55 121.68 55 120.36 55 119 C55.66 119 56.32 119 57 119 C57 118.34 57 117.68 57 117 C57.66 117 58.32 117 59 117 C59.33 115.02 59.66 113.04 60 111 C60.66 111 61.32 111 62 111 C62.495 109.02 62.495 109.02 63 107 C63.66 107 64.32 107 65 107 C65.268125 106.2575 65.53625 105.515 65.8125 104.75 C66.9607472 102.09090121 68.03501375 100.12218515 70 98 C70.99 98 71.98 98 73 98 C73 97.34 73 96.68 73 96 C71.18641846 96.47505678 69.37415821 96.95516042 67.5625 97.4375 C66.55316406 97.70433594 65.54382813 97.97117187 64.50390625 98.24609375 C62.08247999 98.75978077 62.08247999 98.75978077 61 100 C59.33382885 100.04063832 57.66611905 100.042721 56 100 C56 100.66 56 101.32 56 102 C53.96185767 102.67736481 51.91929445 103.34143534 49.875 104 C48.16957031 104.556875 48.16957031 104.556875 46.4296875 105.125 C42.241465 106.19352146 38.85412898 106.7338584 34.76953125 105.1171875 C34.12371094 104.70726563 33.47789062 104.29734375 32.8125 103.875 C31.83216797 103.28332031 31.83216797 103.28332031 30.83203125 102.6796875 C27.49075228 99.61625476 26.14275508 96.10383289 25.56762695 91.65673828 C25.54144287 90.47321777 25.51525879 89.28969727 25.48828125 88.0703125 C25.45283203 86.78125 25.41738281 85.4921875 25.38085938 84.1640625 C25.35776507 82.81771358 25.33498245 81.47135928 25.3125 80.125 C25.27929117 78.75517629 25.24479825 77.38538308 25.20898438 76.015625 C25.12669841 72.6771659 25.05748072 69.33896315 25 66 C21.457201 64.819067 18.71640139 64.72971626 15 65 C12.65037346 68.52443981 12.74878956 70.03465132 12.7265625 74.20703125 C12.7059375 75.43357422 12.6853125 76.66011719 12.6640625 77.92382812 C12.63813921 80.50449147 12.61983936 83.08524329 12.609375 85.66601562 C12.4538444 93.91345777 11.91026555 97.80008515 6.3125 103.8125 C2.66747151 105.68427139 -0.9233845 106.11343626 -5 106 C-9.74217807 104.38944896 -12.2153254 102.12544386 -15 98 C-16.3158809 94.0523573 -16.12300273 90.28910644 -16.09765625 86.17578125 C-16.09553383 84.88367989 -16.09553383 84.88367989 -16.09336853 83.56547546 C-16.0877714 80.81444831 -16.07521946 78.06350256 -16.0625 75.3125 C-16.05748463 73.4472668 -16.05292179 71.58203233 -16.04882812 69.71679688 C-16.03780292 65.14449989 -16.02054027 60.57226375 -16 56 C-13.69 56 -11.38 56 -9 56 C-8.98018066 57.09989258 -8.96036133 58.19978516 -8.93994141 59.33300781 C-8.86380099 63.41836222 -8.77509664 67.50336438 -8.68261719 71.58837891 C-8.64436229 73.3555607 -8.6095033 75.12281944 -8.578125 76.89013672 C-8.53239848 79.43224563 -8.47441711 81.97382648 -8.4140625 84.515625 C-8.40251129 85.30430969 -8.39096008 86.09299438 -8.37905884 86.90557861 C-8.27662916 90.72273255 -8.147148 93.76044336 -6 97 C-1.9899066 97.17864631 -1.9899066 97.17864631 2 97 C5.13379014 93.86620986 4.3683259 90.38975075 4.375 86.125 C4.39949219 85.30902344 4.42398438 84.49304688 4.44921875 83.65234375 C4.45308594 82.86214844 4.45695312 82.07195312 4.4609375 81.2578125 C4.47326416 80.17717529 4.47326416 80.17717529 4.48583984 79.07470703 C4.1725032 76.80412012 4.1725032 76.80412012 1.99801636 75.3175354 C-0.76811849 72.10904543 -0.48304986 70.04222978 -0.45410156 65.84472656 C-0.45468567 65.13213181 -0.45526978 64.41953705 -0.45587158 63.68534851 C-0.45309109 61.3366069 -0.42200323 58.9891441 -0.390625 56.640625 C-0.38316243 55.00967095 -0.37746957 53.37870793 -0.37347412 51.7477417 C-0.35821892 47.46001323 -0.31893854 43.17282881 -0.2746582 38.88531494 C-0.2264991 33.73837018 -0.20817089 28.59124327 -0.18484497 23.44413757 C-0.14608693 15.62904695 -0.06943371 7.81514946 0 0 Z " fill="#8B66D0" transform="translate(127,9)"/>
<path d="M0 0 C4.22510673 1.50896669 5.71822849 4.27310654 8 8 C8.99 9.485 8.99 9.485 10 11 C10.99 11 11.98 11 13 11 C13 13.97 13 16.94 13 20 C13.763125 20.12375 14.52625 20.2475 15.3125 20.375 C18 21 18 21 21 23 C21.33926947 25.33247761 21.67240066 27.66585471 22 30 C23.31201173 31.56249809 23.31201173 31.56249809 25 33 C26.37465943 35.31973778 27.69910253 37.64083276 29 40 C29.99477045 41.66979326 30.99260254 43.33779419 32 45 C30.68 45 29.36 45 28 45 C28.069042 50.44478172 28.15708887 55.88880758 28.26245117 61.33300781 C28.29562296 63.18350819 28.32367887 65.03410786 28.34643555 66.88476562 C28.3801245 69.55121003 28.4324466 72.2167509 28.48828125 74.8828125 C28.49467117 75.70492218 28.5010611 76.52703186 28.50764465 77.37405396 C28.65284887 83.09852076 29.67536243 87.40713502 33.625 91.8125 C38.45335685 94.22667842 43.19534072 94.57885298 48.3125 92.9375 C52.81903383 89.68860351 54.69667441 86.5671822 55.75 81.125 C55.8325 80.09375 55.915 79.0625 56 78 C59.81300782 81.2870757 61.22972246 84.39727838 63 89 C61.37660195 90.70884005 59.70680947 92.37446717 58 94 C57.34 94 56.68 94 56 94 C56 98.62 56 103.24 56 108 C55.01 108 54.02 108 53 108 C53 105.36 53 102.72 53 100 C51.083412 99.97287847 49.1667127 99.95354903 47.25 99.9375 C46.18265625 99.92589844 45.1153125 99.91429688 44.015625 99.90234375 C41.44675984 99.98553239 39.45527008 100.35245624 37 101 C34.3125 100.5625 34.3125 100.5625 32 100 C30.53774984 99.90754997 30.53774984 99.90754997 28 102 C28 98.7 28 95.4 28 92 C25.36 92 22.72 92 20 92 C20.495 95.96 20.495 95.96 21 100 C22.32 100 23.64 100 25 100 C25 100.99 25 101.98 25 103 C25.66 103 26.32 103 27 103 C30.11997802 106.30350614 31 107.32409833 31 112 C31.66 112 32.32 112 33 112 C33 112.66 33 113.32 33 114 C29.11061874 116.59292084 26.07344197 116.41309737 21.49609375 116.65625 C18.82994697 116.76736868 18.82994697 116.76736868 17 119 C14.16802143 119.86209393 11.31222192 120.52997551 8.43359375 121.21875 C7.63050781 121.4765625 6.82742187 121.734375 6 122 C5.67 122.66 5.34 123.32 5 124 C3.845 123.979375 2.69 123.95875 1.5 123.9375 C-2.74350547 123.92992231 -6.80176644 124.40025235 -11 125 C-11 123.68 -11 122.36 -11 121 C-13.64 120.34 -16.28 119.68 -19 119 C-19 118.01 -19 117.02 -19 116 C-19.94875 116 -20.8975 116 -21.875 116 C-24.58333333 116 -27.29166667 116 -30 116 C-30 115.34 -30 114.68 -30 114 C-31.98 114 -33.96 114 -36 114 C-36 113.34 -36 112.68 -36 112 C-37.4540625 111.5359375 -37.4540625 111.5359375 -38.9375 111.0625 C-42 110 -42 110 -43 109 C-45.99741857 108.46037396 -49.00554327 108.03451931 -52.01953125 107.59765625 C-54.71202687 107.0577456 -56.64147486 106.3648608 -59 105 C-59 105.99 -59 106.98 -59 108 C-59.66 108 -60.32 108 -61 108 C-60.67 106.68 -60.34 105.36 -60 104 C-61.84725052 103.30840599 -61.84725052 103.30840599 -64 103 C-65.485 103.99 -65.485 103.99 -67 105 C-67.12375 104.360625 -67.2475 103.72125 -67.375 103.0625 C-67.58125 102.381875 -67.7875 101.70125 -68 101 C-68.66 100.67 -69.32 100.34 -70 100 C-69.45012298 95.41769152 -68.54451204 91.34394011 -67 87 C-66.65023242 85.67088318 -66.30903983 84.33917261 -66 83 C-65.34 83 -64.68 83 -64 83 C-64 80.69 -64 78.38 -64 76 C-63.67 76 -63.34 76 -63 76 C-63 73.36 -63 70.72 -63 68 C-61.68 68 -60.36 68 -59 68 C-59 65.36 -59 62.72 -59 60 C-56.36 60.66 -53.72 61.32 -51 62 C-51 62.66 -51 63.32 -51 64 C-48.36 64.33 -45.72 64.66 -43 65 C-43 65.99 -43 66.98 -43 68 C-41.948125 67.9175 -40.89625 67.835 -39.8125 67.75 C-32.74227205 67.72474919 -25.84065009 70.44558623 -19.35546875 73.0703125 C-17.23220061 73.908352 -15.22109942 74.49601559 -13 75 C-12.31679687 75.17660156 -11.63359375 75.35320312 -10.9296875 75.53515625 C-7.01601251 76.60861304 -7.01601251 76.60861304 -3 77 C-3.33 72.71 -3.66 68.42 -4 64 C-4.99 64 -5.98 64 -7 64 C-7 62.68 -7 61.36 -7 60 C-8.98 60.495 -8.98 60.495 -11 61 C-11 58.03 -11 55.06 -11 52 C-11.78375 51.87625 -12.5675 51.7525 -13.375 51.625 C-16 51 -16 51 -18 49 C-18.33 48.01 -18.66 47.02 -19 46 C-20.9254644 43.7763932 -20.9254644 43.7763932 -24 43 C-23.505 42.01 -23.505 42.01 -23 41 C-23.75150023 37.72226496 -23.75150023 37.72226496 -27 36 C-27 34.68 -27 33.36 -27 32 C-27.99 31.67 -28.98 31.34 -30 31 C-30.71727778 29.35448038 -31.38325228 27.68577711 -32 26 C-32.66 25.34 -33.32 24.68 -34 24 C-33.34 22.68 -32.68 21.36 -32 20 C-29.03 20 -26.06 20 -23 20 C-22.67 18.68 -22.34 17.36 -22 16 C-21.34 15.67 -20.68 15.34 -20 15 C-19.67 14.01 -19.34 13.02 -19 12 C-16.36 12 -13.72 12 -11 12 C-11 9.36 -11 6.72 -11 4 C-9.9275 4.0825 -8.855 4.165 -7.75 4.25 C-3.95990735 4.36237217 -3.95990735 4.36237217 -1.5625 2 C-1.046875 1.34 -0.53125 0.68 0 0 Z " fill="#108AE1" transform="translate(83,20)"/>
<path d="M0 0 C4.15621343 0.5833282 5.04916118 1.23595004 7.5625 4.5 C8.06079102 7.33740234 8.06079102 7.33740234 8.06640625 10.5859375 C8.09444336 12.35324219 8.09444336 12.35324219 8.12304688 14.15625 C8.12369141 15.3834375 8.12433594 16.610625 8.125 17.875 C8.13397037 20.29956362 8.15567669 22.72412056 8.19140625 25.1484375 C8.19213135 26.22270996 8.19285645 27.29698242 8.19360352 28.40380859 C8.62515894 32.02590385 9.67577257 34.39099054 11.5625 37.5 C15.58278664 40.63582358 18.02965892 41.84758644 23.125 41.375 C26.74688719 40.77751181 30.09696807 39.70890649 33.5625 38.5 C34.8825 38.5 36.2025 38.5 37.5625 38.5 C37.5625 37.84 37.5625 37.18 37.5625 36.5 C39.64358685 35.82635339 41.7274671 35.16133202 43.8125 34.5 C44.97265625 34.12875 46.1328125 33.7575 47.328125 33.375 C50.5625 32.5 50.5625 32.5 54.5625 32.5 C54.5625 33.16 54.5625 33.82 54.5625 34.5 C53.5725 34.5 52.5825 34.5 51.5625 34.5 C51.1603125 35.3353125 51.1603125 35.3353125 50.75 36.1875 C47.14431818 43.20909091 47.14431818 43.20909091 44.5625 44.5 C44.2325 45.49 43.9025 46.48 43.5625 47.5 C42.9025 47.5 42.2425 47.5 41.5625 47.5 C41.2325 49.48 40.9025 51.46 40.5625 53.5 C39.9025 53.5 39.2425 53.5 38.5625 53.5 C38.5625 54.16 38.5625 54.82 38.5625 55.5 C37.9025 55.5 37.2425 55.5 36.5625 55.5 C36.54965597 57.46108293 36.54965597 57.46108293 37.5625 59.5 C40.56340086 60.87281781 40.56340086 60.87281781 44.125 61.75 C45.32253906 62.08515625 46.52007812 62.4203125 47.75390625 62.765625 C48.68074219 63.00796875 49.60757813 63.2503125 50.5625 63.5 C50.5625 64.16 50.5625 64.82 50.5625 65.5 C51.490625 65.5825 52.41875 65.665 53.375 65.75 C57.81326826 66.36341919 61.79164898 67.99310622 65.9609375 69.578125 C68.8071855 70.58670537 71.56057841 71.17546794 74.5625 71.5 C74.5625 72.16 74.5625 72.82 74.5625 73.5 C75.635 73.396875 76.7075 73.29375 77.8125 73.1875 C82.98108679 73.15084336 86.99901892 75.23512398 91.640625 77.3203125 C95.36969142 78.82589814 98.5684799 79.26957576 102.5625 79.5 C102.5625 80.16 102.5625 80.82 102.5625 81.5 C103.41521484 81.68175781 103.41521484 81.68175781 104.28515625 81.8671875 C109.10495464 82.91322054 113.8357934 84.09204484 118.5625 85.5 C118.5625 86.16 118.5625 86.82 118.5625 87.5 C121.2025 87.5 123.8425 87.5 126.5625 87.5 C126.5625 88.16 126.5625 88.82 126.5625 89.5 C129.2025 89.83 131.8425 90.16 134.5625 90.5 C134.5625 91.82 134.5625 93.14 134.5625 94.5 C140.8325 94.17 147.1025 93.84 153.5625 93.5 C153.5625 94.16 153.5625 94.82 153.5625 95.5 C89.2125 95.5 24.8625 95.5 -41.4375 95.5 C-39.64643495 91.91786991 -37.78948072 88.73397349 -35.4375 85.5 C-34.7775 85.5 -34.1175 85.5 -33.4375 85.5 C-33.1075 83.52 -32.7775 81.54 -32.4375 79.5 C-33.241875 79.520625 -34.04625 79.54125 -34.875 79.5625 C-37.4375 79.5 -37.4375 79.5 -38.4375 78.5 C-40.76567964 78.13239269 -43.0993385 77.79758419 -45.4375 77.5 C-45.4375 76.84 -45.4375 76.18 -45.4375 75.5 C-46.675 75.355625 -47.9125 75.21125 -49.1875 75.0625 C-52.00254499 74.71311498 -54.7076497 74.29620634 -57.4375 73.5 C-57.1075 71.85 -56.7775 70.2 -56.4375 68.5 C-55.66664062 68.30664062 -54.89578125 68.11328125 -54.1015625 67.9140625 C-53.09867187 67.65367187 -52.09578125 67.39328125 -51.0625 67.125 C-50.06476563 66.86976563 -49.06703125 66.61453125 -48.0390625 66.3515625 C-45.31208985 65.67595681 -45.31208985 65.67595681 -43.4375 63.5 C-40.94140625 63.12109375 -40.94140625 63.12109375 -38 62.9375 C-34.85786099 62.73248694 -32.43855681 62.50035227 -29.4375 61.5 C-29.4375 60.84 -29.4375 60.18 -29.4375 59.5 C-30.0975 59.5 -30.7575 59.5 -31.4375 59.5 C-35.4375 52.75 -35.4375 52.75 -35.4375 50.5 C-36.0975 50.5 -36.7575 50.5 -37.4375 50.5 C-38.0975 49.84 -38.7575 49.18 -39.4375 48.5 C-40.0975 48.17 -40.7575 47.84 -41.4375 47.5 C-42.03105614 44.85139573 -42.17959269 42.20802678 -42.4375 39.5 C-37.9825 39.005 -37.9825 39.005 -33.4375 38.5 C-33.4375 41.8 -33.4375 45.1 -33.4375 48.5 C-32.7775 47.51 -32.1175 46.52 -31.4375 45.5 C-30.365 45.850625 -29.2925 46.20125 -28.1875 46.5625 C-24.47303862 47.49111535 -23.83226807 47.43582009 -20.4375 46.5 C-18.8978597 46.41066933 -17.354721 46.36984207 -15.8125 46.375 C-15.03648437 46.37242188 -14.26046875 46.36984375 -13.4609375 46.3671875 C-11.4375 46.5 -11.4375 46.5 -9.4375 47.5 C-9.4375 50.14 -9.4375 52.78 -9.4375 55.5 C-8.4475 55.5 -7.4575 55.5 -6.4375 55.5 C-6.4375 50.88 -6.4375 46.26 -6.4375 41.5 C-5.7775 41.5 -5.1175 41.5 -4.4375 41.5 C-4.004375 40.571875 -4.004375 40.571875 -3.5625 39.625 C-2.4375 37.5 -2.4375 37.5 -0.4375 35.5 C-1.24792836 34.01969728 -2.06090348 32.54078858 -2.875 31.0625 C-3.32746094 30.23878906 -3.77992188 29.41507813 -4.24609375 28.56640625 C-5.27412397 26.57691202 -5.27412397 26.57691202 -6.4375 25.5 C-6.7169009 22.07056561 -6.66931381 18.62696315 -6.6875 15.1875 C-6.708125 14.22392578 -6.72875 13.26035156 -6.75 12.26757812 C-6.75773437 10.87249023 -6.75773437 10.87249023 -6.765625 9.44921875 C-6.77964355 8.17050903 -6.77964355 8.17050903 -6.79394531 6.8659668 C-6.10922856 2.32104211 -4.49953812 0.65447827 0 0 Z " fill="#3A87B8" transform="translate(145.4375,72.5)"/>
<path d="M0 0 C13.2 0 26.4 0 40 0 C40.20054405 17.97765965 40.20054405 17.97765965 40.24414062 25.65625 C40.27400044 30.8905581 40.30927766 36.1244278 40.37719727 41.35839844 C40.43162831 45.57946441 40.46144371 49.80006013 40.47438622 54.02145004 C40.48360633 55.62981441 40.5016116 57.23815379 40.52865028 58.84631729 C40.56509091 61.10399707 40.5699395 63.359748 40.56762695 65.61767578 C40.58428154 67.54294601 40.58428154 67.54294601 40.60127258 69.5071106 C39.8136526 74.08252212 38.12852194 75.64065792 35 79 C34.33155503 81.28838274 34.33155503 81.28838274 34.51171875 83.5234375 C34.52783203 84.31621094 34.54394531 85.10898438 34.56054688 85.92578125 C34.60244141 86.73402344 34.64433594 87.54226562 34.6875 88.375 C34.72133789 89.62216797 34.72133789 89.62216797 34.75585938 90.89453125 C34.81436346 92.93047353 34.90403205 94.96547945 35 97 C36.45792884 97.05399736 37.91642712 97.09279177 39.375 97.125 C40.18710938 97.14820312 40.99921875 97.17140625 41.8359375 97.1953125 C44.21342243 97.21370051 44.21342243 97.21370051 46 95 C46.2459409 92.0633979 46.37375252 89.21437888 46.4140625 86.2734375 C46.43342865 85.41062164 46.4527948 84.54780579 46.4727478 83.65884399 C46.53262204 80.89766384 46.57895998 78.13644216 46.625 75.375 C46.66317259 73.50518995 46.70222389 71.63539762 46.7421875 69.765625 C46.83832992 65.17722691 46.92233166 60.58874649 47 56 C49.31 56 51.62 56 54 56 C54.14886633 61.71074127 54.2574597 67.42034146 54.32958984 73.13256836 C54.35967215 75.07352382 54.40054963 77.01434436 54.45263672 78.95483398 C54.52583255 81.75278065 54.55954101 84.54892336 54.5859375 87.34765625 C54.61690521 88.2083522 54.64787292 89.06904816 54.67977905 89.95582581 C54.68291941 95.64025122 53.4770403 98.5507776 49.53604126 102.66770935 C46.57438011 105.2365163 43.98709066 105.84645256 40.1875 106.4375 C35.74437021 105.82765866 32.30818971 104.03309504 29 101 C26.37234805 96.5635571 25.60177647 93.20029633 25.48828125 88.0703125 C25.45283203 86.78125 25.41738281 85.4921875 25.38085938 84.1640625 C25.35776507 82.81771358 25.33498245 81.47135928 25.3125 80.125 C25.27929117 78.75517629 25.24479825 77.38538308 25.20898438 76.015625 C25.12669841 72.6771659 25.05748072 69.33896315 25 66 C21.457201 64.819067 18.71640139 64.72971626 15 65 C12.65037346 68.52443981 12.74878956 70.03465132 12.7265625 74.20703125 C12.7059375 75.43357422 12.6853125 76.66011719 12.6640625 77.92382812 C12.63813921 80.50449147 12.61983936 83.08524329 12.609375 85.66601562 C12.4538444 93.91345777 11.91026555 97.80008515 6.3125 103.8125 C2.66747151 105.68427139 -0.9233845 106.11343626 -5 106 C-9.74217807 104.38944896 -12.2153254 102.12544386 -15 98 C-16.3158809 94.0523573 -16.12300273 90.28910644 -16.09765625 86.17578125 C-16.09553383 84.88367989 -16.09553383 84.88367989 -16.09336853 83.56547546 C-16.0877714 80.81444831 -16.07521946 78.06350256 -16.0625 75.3125 C-16.05748463 73.4472668 -16.05292179 71.58203233 -16.04882812 69.71679688 C-16.03780292 65.14449989 -16.02054027 60.57226375 -16 56 C-13.69 56 -11.38 56 -9 56 C-8.98018066 57.09989258 -8.96036133 58.19978516 -8.93994141 59.33300781 C-8.86380099 63.41836222 -8.77509664 67.50336438 -8.68261719 71.58837891 C-8.64436229 73.3555607 -8.6095033 75.12281944 -8.578125 76.89013672 C-8.53239848 79.43224563 -8.47441711 81.97382648 -8.4140625 84.515625 C-8.40251129 85.30430969 -8.39096008 86.09299438 -8.37905884 86.90557861 C-8.27662916 90.72273255 -8.147148 93.76044336 -6 97 C-1.9899066 97.17864631 -1.9899066 97.17864631 2 97 C5.13379014 93.86620986 4.3683259 90.38975075 4.375 86.125 C4.39949219 85.30902344 4.42398438 84.49304688 4.44921875 83.65234375 C4.45308594 82.86214844 4.45695312 82.07195312 4.4609375 81.2578125 C4.47326416 80.17717529 4.47326416 80.17717529 4.48583984 79.07470703 C4.1725032 76.80412012 4.1725032 76.80412012 1.99801636 75.3175354 C-0.76811849 72.10904543 -0.48304986 70.04222978 -0.45410156 65.84472656 C-0.45468567 65.13213181 -0.45526978 64.41953705 -0.45587158 63.68534851 C-0.45309109 61.3366069 -0.42200323 58.9891441 -0.390625 56.640625 C-0.38316243 55.00967095 -0.37746957 53.37870793 -0.37347412 51.7477417 C-0.35821892 47.46001323 -0.31893854 43.17282881 -0.2746582 38.88531494 C-0.2264991 33.73837018 -0.20817089 28.59124327 -0.18484497 23.44413757 C-0.14608693 15.62904695 -0.06943371 7.81514946 0 0 Z " fill="#8E9FE6" transform="translate(127,9)"/>
<path d="M0 0 C4.22510673 1.50896669 5.71822849 4.27310654 8 8 C8.66 8.99 9.32 9.98 10 11 C10.99 11 11.98 11 13 11 C13 13.97 13 16.94 13 20 C13.763125 20.12375 14.52625 20.2475 15.3125 20.375 C18 21 18 21 21 23 C21.33926947 25.33247761 21.67240066 27.66585471 22 30 C23.31201173 31.56249809 23.31201173 31.56249809 25 33 C26.37465943 35.31973778 27.69910253 37.64083276 29 40 C29.99477045 41.66979326 30.99260254 43.33779419 32 45 C30.68 45 29.36 45 28 45 C28.11848296 50.4627881 28.24274719 55.92540299 28.37231445 61.38793945 C28.41556221 63.24532519 28.45724428 65.10274808 28.49731445 66.96020508 C28.5552637 69.63374008 28.61888652 72.30708981 28.68359375 74.98046875 C28.70030624 75.80773972 28.71701874 76.63501068 28.73423767 77.48735046 C28.8352296 81.43903895 29.04295881 85.14118269 30 89 C22.1896209 88.67388814 14.6889295 87.58043157 8.875 81.9375 C8 80 8 80 9 77 C9.33 77.66 9.66 78.32 10 79 C10.495 77.515 10.495 77.515 11 76 C10.34 76 9.68 76 9 76 C8.67 70.72 8.34 65.44 8 60 C7.96261719 61.66289063 7.92523438 63.32578125 7.88671875 65.0390625 C7.82104635 67.23439708 7.75459945 69.42970858 7.6875 71.625 C7.65366211 73.26662109 7.65366211 73.26662109 7.61914062 74.94140625 C7.27087627 85.38933688 7.27087627 85.38933688 4 90 C2.0625 91.6796875 2.0625 91.6796875 0 92.875 C-0.680625 93.28492187 -1.36125 93.69484375 -2.0625 94.1171875 C-4 95 -4 95 -7 95 C-7 92.36 -7 89.72 -7 87 C-4.525 86.01 -4.525 86.01 -2 85 C-1.83278404 79.32186163 -1.67218462 73.64359025 -1.51782227 67.96508789 C-1.4643222 66.03176791 -1.40898692 64.09849784 -1.35180664 62.1652832 C-1.27011825 59.39285041 -1.19494648 56.62030742 -1.12109375 53.84765625 C-1.09405869 52.97786636 -1.06702362 52.10807648 -1.03916931 51.21192932 C-0.98721836 49.14189685 -0.98811429 47.07065016 -1 45 C-1.33 44.67 -1.66 44.34 -2 44 C-1.979375 45.216875 -1.95875 46.43375 -1.9375 47.6875 C-1.93175884 50.91977322 -2.21233685 53.84934741 -3 57 C-3.66 56.67 -4.32 56.34 -5 56 C-5 55.01 -5 54.02 -5 53 C-5.33 54.65 -5.66 56.3 -6 58 C-6.66 58 -7.32 58 -8 58 C-11 54.53846154 -11 54.53846154 -11 52 C-12.175625 51.814375 -12.175625 51.814375 -13.375 51.625 C-16 51 -16 51 -18 49 C-18.495 47.515 -18.495 47.515 -19 46 C-20.9254644 43.7763932 -20.9254644 43.7763932 -24 43 C-23.67 42.34 -23.34 41.68 -23 41 C-23.75150023 37.72226496 -23.75150023 37.72226496 -27 36 C-27 34.68 -27 33.36 -27 32 C-27.99 31.67 -28.98 31.34 -30 31 C-30.71727778 29.35448038 -31.38325228 27.68577711 -32 26 C-32.66 25.34 -33.32 24.68 -34 24 C-33.34 22.68 -32.68 21.36 -32 20 C-29.03 20 -26.06 20 -23 20 C-22.67 18.68 -22.34 17.36 -22 16 C-21.34 15.67 -20.68 15.34 -20 15 C-19.67 14.01 -19.34 13.02 -19 12 C-16.36 12 -13.72 12 -11 12 C-11 9.36 -11 6.72 -11 4 C-9.9275 4.0825 -8.855 4.165 -7.75 4.25 C-3.95990735 4.36237217 -3.95990735 4.36237217 -1.5625 2 C-1.046875 1.34 -0.53125 0.68 0 0 Z " fill="#1097E7" transform="translate(83,20)"/>
<path d="M0 0 C3.90212784 0.97553196 5.32484822 2.80047368 8 5.75 C9.65948148 6.76187895 11.32580562 7.7626546 13 8.75 C14.33333333 10.08333333 15.66666667 11.41666667 17 12.75 C19.13309192 13.98512079 19.13309192 13.98512079 21 14.75 C21 15.41 21 16.07 21 16.75 C21.99 16.75 22.98 16.75 24 16.75 C24 17.41 24 18.07 24 18.75 C24.78375 18.9975 25.5675 19.245 26.375 19.5 C29.32317108 20.90389099 29.9024777 21.75675737 31 24.75 C30.34 24.75 29.68 24.75 29 24.75 C28.67 26.07 28.34 27.39 28 28.75 C27.34 28.75 26.68 28.75 26 28.75 C25.8453125 29.678125 25.8453125 29.678125 25.6875 30.625 C25 32.75 25 32.75 22 34.75 C20.98377342 36.74180409 19.98287008 38.74152635 19 40.75 C15.98786971 42.25606515 12.88717378 41.87160331 9.5859375 41.84765625 C8.85629791 41.8462413 8.12665833 41.84482635 7.37490845 41.84336853 C5.04156415 41.83776531 2.70831536 41.82521235 0.375 41.8125 C-1.20572778 41.80748541 -2.78645707 41.80292243 -4.3671875 41.79882812 C-8.24482854 41.78779484 -12.12239807 41.77052811 -16 41.75 C-16 44.39 -16 47.03 -16 49.75 C-10.72 49.75 -5.44 49.75 0 49.75 C0 55.36 0 60.97 0 66.75 C-0.66 66.75 -1.32 66.75 -2 66.75 C-2.495 68.235 -2.495 68.235 -3 69.75 C-3.66 69.75 -4.32 69.75 -5 69.75 C-5.103125 70.306875 -5.20625 70.86375 -5.3125 71.4375 C-6.14178408 74.2269101 -7.34299056 76.3639064 -9 78.75 C-9.66 78.75 -10.32 78.75 -11 78.75 C-11 79.74 -11 80.73 -11 81.75 C-11.78246094 81.95496094 -12.56492188 82.15992187 -13.37109375 82.37109375 C-14.38300781 82.64050781 -15.39492187 82.90992187 -16.4375 83.1875 C-17.44683594 83.45433594 -18.45617187 83.72117187 -19.49609375 83.99609375 C-21.91752001 84.50978077 -21.91752001 84.50978077 -23 85.75 C-24.66617115 85.79063832 -26.33388095 85.792721 -28 85.75 C-28 86.41 -28 87.07 -28 87.75 C-31.465 88.74 -31.465 88.74 -35 89.75 C-33.79618552 87.25638429 -32.54571278 85.06856917 -31 82.75 C-30.67508765 80.79479191 -30.67508765 80.79479191 -30.68115234 78.64575195 C-30.66128265 77.82512772 -30.64141296 77.00450348 -30.62094116 76.15901184 C-30.60361435 74.8370002 -30.60361435 74.8370002 -30.5859375 73.48828125 C-30.56657135 72.58248825 -30.5472052 71.67669525 -30.5272522 70.74345398 C-30.46746458 67.84989849 -30.42107432 64.9563032 -30.375 62.0625 C-30.33681946 60.10089409 -30.29776769 58.13930494 -30.2578125 56.17773438 C-30.16176368 51.3686256 -30.07772957 46.55943834 -30 41.75 C-30.66 41.42 -31.32 41.09 -32 40.75 C-31.05065487 39.07819726 -30.09026687 37.41266064 -29.125 35.75 C-28.59132812 34.821875 -28.05765625 33.89375 -27.5078125 32.9375 C-27.01023438 32.215625 -26.51265625 31.49375 -26 30.75 C-25.34 30.75 -24.68 30.75 -24 30.75 C-23.731875 29.945625 -23.46375 29.14125 -23.1875 28.3125 C-22.795625 27.466875 -22.40375 26.62125 -22 25.75 C-21.01 25.42 -20.02 25.09 -19 24.75 C-17.87483915 22.91715557 -17.87483915 22.91715557 -17 20.75 C-16.33333333 19.41666667 -15.66666667 18.08333333 -15 16.75 C-14.34 16.75 -13.68 16.75 -13 16.75 C-12.34 15.1 -11.68 13.45 -11 11.75 C-10.34 11.75 -9.68 11.75 -9 11.75 C-8.88011719 11.16734375 -8.76023438 10.5846875 -8.63671875 9.984375 C-7.2832276 5.23470053 -4.90911744 1.22727936 0 0 Z " fill="#A54396" transform="translate(211,23.25)"/>
<path d="M0 0 C0 0.66 0 1.32 0 2 C1.0725 1.896875 2.145 1.79375 3.25 1.6875 C8.41858679 1.65084336 12.43651892 3.73512398 17.078125 5.8203125 C20.80719142 7.32589814 24.0059799 7.76957576 28 8 C28 8.66 28 9.32 28 10 C28.85271484 10.18175781 28.85271484 10.18175781 29.72265625 10.3671875 C34.54245464 11.41322054 39.2732934 12.59204484 44 14 C44 14.66 44 15.32 44 16 C46.64 16 49.28 16 52 16 C52 16.66 52 17.32 52 18 C54.64 18.33 57.28 18.66 60 19 C60 20.32 60 21.64 60 23 C66.27 22.67 72.54 22.34 79 22 C79 22.66 79 23.32 79 24 C14.65 24 -49.7 24 -116 24 C-115.505 22.515 -115.505 22.515 -115 21 C-114.67 21.66 -114.34 22.32 -114 23 C-86.94 22.67 -59.88 22.34 -32 22 C-33.65 20.02 -35.3 18.04 -37 16 C-37 15.34 -37 14.68 -37 14 C-37.99 13.67 -38.98 13.34 -40 13 C-40 11.35 -40 9.7 -40 8 C-37.69 8 -35.38 8 -33 8 C-33 7.34 -33 6.68 -33 6 C-32.17757812 5.91363281 -31.35515625 5.82726562 -30.5078125 5.73828125 C-24.71676157 5.00938454 -19.91312096 4.2410862 -14.8125 1.3125 C-9.68394105 -1.56757744 -5.63526389 -1.21098224 0 0 Z " fill="#2FA8BE" transform="translate(220,144)"/>
<path d="M0 0 C0 0.66 0 1.32 0 2 C1.2375 2.144375 2.475 2.28875 3.75 2.4375 C6.56504499 2.78688502 9.2701497 3.20379366 12 4 C12 4.66 12 5.32 12 6 C13.546875 5.938125 13.546875 5.938125 15.125 5.875 C18.9123406 5.99717228 21.55994293 6.44378371 25 8 C25.495 9.485 25.495 9.485 26 11 C25.34 11.99 24.68 12.98 24 14 C23.34 14 22.68 14 22 14 C21.62875 15.0828125 21.62875 15.0828125 21.25 16.1875 C19.78789701 19.47723173 18.62169846 21.49776237 16 24 C12.8786728 24.47685397 10.30957506 24.6346125 7.19238281 24.56762695 C6.30422379 24.56835709 5.41606476 24.56908722 4.50099182 24.56983948 C1.56774648 24.56635831 -1.36390738 24.52747229 -4.296875 24.48828125 C-6.33139173 24.47895501 -8.36591969 24.471838 -10.40045166 24.46684265 C-15.75355061 24.44775811 -21.1059705 24.39864428 -26.45880127 24.34332275 C-31.92165948 24.29216196 -37.38462749 24.26933535 -42.84765625 24.24414062 C-53.56540241 24.19052735 -64.28264472 24.10519653 -75 24 C-75 22.68 -75 21.36 -75 20 C-71.37 19.67 -67.74 19.34 -64 19 C-64 18.34 -64 17.68 -64 17 C-62.97261719 16.68546875 -61.94523437 16.3709375 -60.88671875 16.046875 C-59.48693482 15.61472694 -58.08719779 15.18242696 -56.6875 14.75 C-56.01654297 14.54503906 -55.34558594 14.34007812 -54.65429688 14.12890625 C-50.64191331 12.88563247 -46.69957182 11.52835647 -42.765625 10.0546875 C-36.62591235 7.7970401 -30.3756072 6.07453809 -24.0625 4.375 C-21.86484568 3.7824889 -19.66818224 3.18628701 -17.47265625 2.5859375 C-16.51625244 2.3286084 -15.55984863 2.0712793 -14.57446289 1.80615234 C-5.74740587 -0.95790098 -5.74740587 -0.95790098 0 0 Z " fill="#6F66DC" transform="translate(88,144)"/>
<path d="M0 0 C2.31 0 4.62 0 7 0 C7.01981934 1.09989258 7.03963867 2.19978516 7.06005859 3.33300781 C7.13619901 7.41836222 7.22490336 11.50336438 7.31738281 15.58837891 C7.35563771 17.3555607 7.3904967 19.12281944 7.421875 20.89013672 C7.46760152 23.43224563 7.52558289 25.97382648 7.5859375 28.515625 C7.59748871 29.30430969 7.60903992 30.09299438 7.62094116 30.90557861 C7.72337084 34.72273255 7.852852 37.76044336 10 41 C14.0100934 41.17864631 14.0100934 41.17864631 18 41 C20.72851569 38.27148431 20.25309914 36.73977284 20.2734375 32.92578125 C20.2940625 31.70052734 20.3146875 30.47527344 20.3359375 29.21289062 C20.36178291 26.6322265 20.38012872 24.05147533 20.390625 21.47070312 C20.52238295 14.47655205 20.68142479 9.63432803 25 4 C28.83196149 0.4002786 33.21896942 0.38505601 38.265625 0.5078125 C42.6035176 1.28863317 45.33700777 3.55820815 48 7 C49.06925375 10.20776124 49.18748897 12.68494222 49.28125 16.05859375 C49.33732422 17.84426758 49.33732422 17.84426758 49.39453125 19.66601562 C49.44673828 21.53290039 49.44673828 21.53290039 49.5 23.4375 C49.56892774 25.89464639 49.64168106 28.35168924 49.71875 30.80859375 C49.74904297 31.89970459 49.77933594 32.99081543 49.81054688 34.11499023 C49.97140095 36.56449101 50.29962713 38.65821684 51 41 C52.45792884 41.05399736 53.91642712 41.09279177 55.375 41.125 C56.18710938 41.14820313 56.99921875 41.17140625 57.8359375 41.1953125 C60.21342243 41.21370051 60.21342243 41.21370051 62 39 C62.2459409 36.0633979 62.37375252 33.21437888 62.4140625 30.2734375 C62.43342865 29.41062164 62.4527948 28.54780579 62.4727478 27.65884399 C62.53262204 24.89766384 62.57895998 22.13644216 62.625 19.375 C62.66317259 17.50518995 62.70222389 15.63539762 62.7421875 13.765625 C62.83832992 9.17722691 62.92233166 4.58874649 63 0 C65.31 0 67.62 0 70 0 C70.14886633 5.71074127 70.2574597 11.42034146 70.32958984 17.13256836 C70.35967215 19.07352382 70.40054963 21.01434436 70.45263672 22.95483398 C70.52583255 25.75278065 70.55954101 28.54892336 70.5859375 31.34765625 C70.61690521 32.2083522 70.64787292 33.06904816 70.67977905 33.95582581 C70.68291941 39.64025122 69.4770403 42.5507776 65.53604126 46.66770935 C62.57438011 49.2365163 59.98709066 49.84645256 56.1875 50.4375 C51.74437021 49.82765866 48.30818971 48.03309504 45 45 C42.37234805 40.5635571 41.60177647 37.20029633 41.48828125 32.0703125 C41.45283203 30.78125 41.41738281 29.4921875 41.38085938 28.1640625 C41.35776507 26.81771358 41.33498245 25.47135928 41.3125 24.125 C41.27929117 22.75517629 41.24479825 21.38538308 41.20898438 20.015625 C41.12669841 16.6771659 41.05748072 13.33896315 41 10 C37.457201 8.819067 34.71640139 8.72971626 31 9 C28.65037346 12.52443981 28.74878956 14.03465132 28.7265625 18.20703125 C28.7059375 19.43357422 28.6853125 20.66011719 28.6640625 21.92382812 C28.63813921 24.50449147 28.61983936 27.08524329 28.609375 29.66601562 C28.4538444 37.91345777 27.91026555 41.80008515 22.3125 47.8125 C18.66747151 49.68427139 15.0766155 50.11343626 11 50 C6.25782193 48.38944896 3.7846746 46.12544386 1 42 C-0.3158809 38.0523573 -0.12300273 34.28910644 -0.09765625 30.17578125 C-0.09553383 28.88367989 -0.09553383 28.88367989 -0.09336853 27.56547546 C-0.0877714 24.81444831 -0.07521946 22.06350256 -0.0625 19.3125 C-0.05748463 17.4472668 -0.05292179 15.58203233 -0.04882812 13.71679688 C-0.03780292 9.14449989 -0.02054027 4.57226375 0 0 Z " fill="#F9F9FA" transform="translate(111,65)"/>
<path d="M0 0 C4.15621343 0.5833282 5.04916118 1.23595004 7.5625 4.5 C8.06079102 7.33740234 8.06079102 7.33740234 8.06640625 10.5859375 C8.09444336 12.35324219 8.09444336 12.35324219 8.12304688 14.15625 C8.12369141 15.3834375 8.12433594 16.610625 8.125 17.875 C8.13397037 20.29956362 8.15567669 22.72412056 8.19140625 25.1484375 C8.19213135 26.22270996 8.19285645 27.29698242 8.19360352 28.40380859 C8.62515894 32.02590385 9.67577257 34.39099054 11.5625 37.5 C15.6843382 40.71503379 18.09593248 41.83925437 23.3125 41.3125 C25.87919228 40.90416259 28.08304962 40.32648346 30.5625 39.5 C30.5625 42.14 30.5625 44.78 30.5625 47.5 C28.2525 46.84 25.9425 46.18 23.5625 45.5 C23.5625 46.16 23.5625 46.82 23.5625 47.5 C19.2725 47.5 14.9825 47.5 10.5625 47.5 C10.2325 50.14 9.9025 52.78 9.5625 55.5 C10.8825 55.5 12.2025 55.5 13.5625 55.5 C14.81498502 58.00497004 14.67624406 59.70853274 14.66015625 62.5078125 C14.65693359 63.49394531 14.65371094 64.48007813 14.65039062 65.49609375 C14.64201172 66.52863281 14.63363281 67.56117188 14.625 68.625 C14.62048828 69.66527344 14.61597656 70.70554687 14.61132812 71.77734375 C14.59951952 74.35161962 14.58305075 76.92578146 14.5625 79.5 C-3.45361047 79.69677791 -3.45361047 79.69677791 -9.4375 78.5 C-11.4375 76.5 -11.4375 76.5 -11.6328125 74.3359375 C-11.60960937 73.52382812 -11.58640625 72.71171875 -11.5625 71.875 C-11.54445312 71.05773437 -11.52640625 70.24046875 -11.5078125 69.3984375 C-11.48460937 68.77195312 -11.46140625 68.14546875 -11.4375 67.5 C-7.17249324 66.07833108 -3.88396526 66.92002627 0.5625 67.5 C0.5625 63.54 0.5625 59.58 0.5625 55.5 C1.5525 55.5 2.5425 55.5 3.5625 55.5 C3.0675 48.075 3.0675 48.075 2.5625 40.5 C1.5725 40.17 0.5825 39.84 -0.4375 39.5 C-0.499375 38.489375 -0.56125 37.47875 -0.625 36.4375 C-1.07910773 33.0072204 -1.58824196 32.31583773 -3.95703125 29.421875 C-7.37805947 24.81487396 -7.1078303 20.36759059 -6.9375 14.8125 C-6.94007813 13.87599609 -6.94265625 12.93949219 -6.9453125 11.97460938 C-6.78846459 0.98741303 -6.78846459 0.98741303 0 0 Z " fill="#69A5BB" transform="translate(145.4375,72.5)"/>
<path d="M0 0 C2.31 0 4.62 0 7 0 C7.00364563 0.91819519 7.00729126 1.83639038 7.01104736 2.78240967 C7.04890993 11.43447347 7.1057428 20.08615965 7.18390274 28.737957 C7.22341651 33.18599679 7.2555857 37.63383746 7.27099609 42.08203125 C7.28613722 46.37462525 7.32053683 50.66667197 7.36830902 54.95902252 C7.38314922 56.59682713 7.39104253 58.23470986 7.39188385 59.87258148 C7.39424746 62.16662479 7.42127478 64.45914813 7.45410156 66.75292969 C7.46298401 68.05864929 7.47186646 69.3643689 7.48101807 70.70965576 C8.08436609 74.53488082 9.09762984 75.56483492 12 78 C12.50170898 80.05883789 12.50170898 80.05883789 12.49609375 82.22265625 C12.49673828 83.00833984 12.49738281 83.79402344 12.49804688 84.60351562 C12.47806641 85.41498047 12.45808594 86.22644531 12.4375 87.0625 C12.44458984 87.87783203 12.45167969 88.69316406 12.45898438 89.53320312 C12.39508781 95.51490434 12.39508781 95.51490434 10.59399414 97.72631836 C8.62512885 99.29954094 7.50091764 99.46210731 5 99.5 C4.319375 99.5309375 3.63875 99.561875 2.9375 99.59375 C1 99 1 99 -0.6027832 96.99926758 C-2.41666728 93.10558142 -2.37604242 89.62171246 -2.29296875 85.41796875 C-2.28872391 84.60378983 -2.28447906 83.7896109 -2.28010559 82.95075989 C-2.26337753 80.36266332 -2.22573712 77.77535929 -2.1875 75.1875 C-2.17244553 73.42774566 -2.15875846 71.66797905 -2.14648438 69.90820312 C-2.11349336 65.60516563 -2.0617524 61.30271697 -2 57 C-2.94057251 56.80422363 -2.94057251 56.80422363 -3.90014648 56.60449219 C-6.67842116 55.80470053 -7.41418516 54.58840931 -9.0625 52.25 C-9.57296875 51.52941406 -10.0834375 50.80882812 -10.609375 50.06640625 C-12.83406767 46.76061293 -14.73672988 43.78981036 -16 40 C-14.02 40 -12.04 40 -10 40 C-10 41.32 -10 42.64 -10 44 C-9.34 44 -8.68 44 -8 44 C-8.33 45.32 -8.66 46.64 -9 48 C-6.36 48 -3.72 48 -1 48 C0.46961877 32.04413902 0.09464518 16.00522721 0 0 Z " fill="#1B58E6" transform="translate(120,8)"/>
<path d="M0 0 C12.87 0 25.74 0 39 0 C39 2.31 39 4.62 39 7 C33.72 7 28.44 7 23 7 C23 21.19 23 35.38 23 50 C20.69 50 18.38 50 16 50 C16 36.14 16 22.28 16 8 C10.72 8 5.44 8 0 8 C0 5.36 0 2.72 0 0 Z " fill="#F6F1F7" transform="translate(195,65)"/>
<path d="M0 0 C0.99 0 1.98 0 3 0 C2.67 1.98 2.34 3.96 2 6 C1.34 6 0.68 6 0 6 C0 6.66 0 7.32 0 8 C-1.09054688 8.23783203 -1.09054688 8.23783203 -2.203125 8.48046875 C-7.79754283 9.77866058 -12.98679185 11.30891988 -18.25 13.625 C-22.95836948 15.68800926 -26.8800764 16.70461979 -32 17 C-32 17.66 -32 18.32 -32 19 C-35.67410785 20.17571451 -39.16929183 20.07366746 -43 20 C-43 21.32 -43 22.64 -43 24 C-47.29 24 -51.58 24 -56 24 C-56 21.36 -56 18.72 -56 16 C-53.36 16 -50.72 16 -48 16 C-48 11.71 -48 7.42 -48 3 C-45.69 3.66 -43.38 4.32 -41 5 C-41 5.66 -41 6.32 -41 7 C-38.12549017 7.25048636 -38.12549017 7.25048636 -35 7 C-33.97980427 6.0206121 -32.97850195 5.02104551 -32 4 C-29.3125 3.8125 -29.3125 3.8125 -27 4 C-27 4.99 -27 5.98 -27 7 C-26.39414062 6.9278125 -25.78828125 6.855625 -25.1640625 6.78125 C-19.08165405 6.1075063 -13.11697862 5.88286637 -7 6 C-6.67 5.34 -6.34 4.68 -6 4 C-2.9375 3.375 -2.9375 3.375 0 3 C0 2.01 0 1.02 0 0 Z " fill="#2E7FC9" transform="translate(56,144)"/>
<path d="M0 0 C4.14588615 0.58187876 5.03049357 1.2721698 7.5625 4.5 C8.08007812 7.06201172 8.08007812 7.06201172 8.09375 9.9296875 C8.09890625 10.97253906 8.1040625 12.01539062 8.109375 13.08984375 C8.09390625 14.17394531 8.0784375 15.25804688 8.0625 16.375 C8.07796875 17.45136719 8.0934375 18.52773437 8.109375 19.63671875 C8.07860381 25.87557764 7.73567591 29.74721632 3.5625 34.5 C0.05250931 33.93794422 -1.44685938 32.87563532 -3.65234375 30.109375 C-7.19130226 25.11136241 -7.23903204 20.71322039 -7 14.75 C-6.99806641 13.81800781 -6.99613281 12.88601562 -6.99414062 11.92578125 C-6.78226092 0.98651068 -6.78226092 0.98651068 0 0 Z " fill="#8D99DB" transform="translate(145.4375,72.5)"/>
<path d="M0 0 C1.5 1.375 1.5 1.375 3 3 C3 3.66 3 4.32 3 5 C3.66 5 4.32 5 5 5 C6.65625 7.1171875 6.65625 7.1171875 8.5 9.875 C11.01696681 13.62875168 11.01696681 13.62875168 14 17 C14.44360072 19.95852109 14.32412652 22.94948451 14.3125 25.9375 C14.32861328 26.76185547 14.34472656 27.58621094 14.36132812 28.43554688 C14.36197266 29.22896484 14.36261719 30.02238281 14.36328125 30.83984375 C14.36775269 31.92833618 14.36775269 31.92833618 14.37231445 33.03881836 C13.89585375 35.54859466 12.97577726 36.43102704 11 38 C9.0625 38.46875 9.0625 38.46875 7 38.5 C6.319375 38.5309375 5.63875 38.561875 4.9375 38.59375 C3 38 3 38 1.3972168 35.94458008 C-0.32341812 32.31840888 -0.38025952 29.21685218 -0.29296875 25.29296875 C-0.28872391 24.56757401 -0.28447906 23.84217926 -0.28010559 23.09480286 C-0.26339543 20.79198109 -0.2257596 18.49005447 -0.1875 16.1875 C-0.17244316 14.6204554 -0.1587565 13.053397 -0.14648438 11.48632812 C-0.11351731 7.65721043 -0.06178992 3.82875666 0 0 Z " fill="#0E91E2" transform="translate(118,69)"/>
<path d="M0 0 C3.81300782 3.2870757 5.22972246 6.39727838 7 11 C5.37660195 12.70884005 3.70680947 14.37446717 2 16 C1.34 16 0.68 16 0 16 C0 20.62 0 25.24 0 30 C-0.99 30 -1.98 30 -3 30 C-3 27.36 -3 24.72 -3 22 C-4.916588 21.97287847 -6.8332873 21.95354903 -8.75 21.9375 C-9.81734375 21.92589844 -10.8846875 21.91429688 -11.984375 21.90234375 C-14.55324016 21.98553239 -16.54472992 22.35245624 -19 23 C-21.6875 22.5625 -21.6875 22.5625 -24 22 C-25.46225016 21.90754997 -25.46225016 21.90754997 -28 24 C-28 20.7 -28 17.4 -28 14 C-30.64 14 -33.28 14 -36 14 C-36.33 14.99 -36.66 15.98 -37 17 C-38.37562854 15.71034824 -39.70766393 14.37310707 -41 13 C-41 12.34 -41 11.68 -41 11 C-41.66 11 -42.32 11 -43 11 C-43 10.01 -43 9.02 -43 8 C-40.66225416 8.31169944 -38.33228747 8.65075902 -36 9 C-35.09636719 9.12246094 -34.19273438 9.24492188 -33.26171875 9.37109375 C-27.49367711 10.25308117 -24.55079726 11.28750749 -20 15 C-15.58611127 16.24218257 -12.057919 16.33933251 -7.6875 14.9375 C-3.18096617 11.68860351 -1.30332559 8.5671822 -0.25 3.125 C-0.1675 2.09375 -0.085 1.0625 0 0 Z " fill="#1456D3" transform="translate(139,98)"/>
<path d="M0 0 C2.31 0 4.62 0 7 0 C7.07438973 5.30188966 7.12871511 10.60347268 7.16479492 15.90576172 C7.1798424 17.70789892 7.2002853 19.50999973 7.22631836 21.31201172 C7.26288021 23.90862021 7.27976681 26.50474275 7.29296875 29.1015625 C7.30845261 29.9017984 7.32393646 30.7020343 7.33988953 31.52651978 C7.34135224 36.43466203 6.68512022 39.729984 4 44 C2.0625 45.6796875 2.0625 45.6796875 0 46.875 C-0.680625 47.28492188 -1.36125 47.69484375 -2.0625 48.1171875 C-4 49 -4 49 -7 49 C-7 46.36 -7 43.72 -7 41 C-6.195625 40.731875 -5.39125 40.46375 -4.5625 40.1875 C-3.2940625 39.5996875 -3.2940625 39.5996875 -2 39 C-0.75526468 35.26579403 -0.76790215 31.72634762 -0.68359375 27.83203125 C-0.66281265 27.03721848 -0.64203156 26.2424057 -0.62062073 25.42350769 C-0.55527913 22.88659237 -0.49631192 20.34957427 -0.4375 17.8125 C-0.39430014 16.09178628 -0.35068537 14.37108292 -0.30664062 12.65039062 C-0.19961352 8.43369887 -0.09830276 4.2169038 0 0 Z " fill="#F9FCFA" transform="translate(83,66)"/>
<path d="M0 0 C2 3 2 3 3.1875 5.9375 C5.4192619 9.70840804 7.84173898 11.74136927 12 13 C16.23750277 13.09854658 19.99430996 12.33523001 24 11 C24 13.64 24 16.28 24 19 C21.69 18.34 19.38 17.68 17 17 C17 17.66 17 18.32 17 19 C12.71 19 8.42 19 4 19 C3.67 21.64 3.34 24.28 3 27 C1.35 27.33 -0.3 27.66 -2 28 C-2.99 31.465 -2.99 31.465 -4 35 C-3.34 35 -2.68 35 -2 35 C-1.67 34.01 -1.34 33.02 -1 32 C-0.34 33.32 0.32 34.64 1 36 C-2.625 39 -2.625 39 -6 39 C-6 35.04 -6 31.08 -6 27 C-5.01 27 -4.02 27 -3 27 C-3.33 22.05 -3.66 17.1 -4 12 C-4.99 11.67 -5.98 11.34 -7 11 C-7 9.02 -7 7.04 -7 5 C-5.68 5.33 -4.36 5.66 -3 6 C-2.690625 5.195625 -2.38125 4.39125 -2.0625 3.5625 C-1 1 -1 1 0 0 Z " fill="#6468AF" transform="translate(152,101)"/>
<path d="M0 0 C0.33 0 0.66 0 1 0 C1.07417023 4.50232334 1.1286105 9.00429091 1.16479492 13.50708008 C1.17987936 15.03871861 1.20034978 16.57031398 1.22631836 18.10180664 C1.26271847 20.30365654 1.27972913 22.50493533 1.29296875 24.70703125 C1.30845261 25.39150833 1.32393646 26.07598541 1.33988953 26.78120422 C1.34089189 29.61425476 1.30622565 31.54465978 -0.29956055 33.93237305 C-3.18106503 35.74153587 -5.70974234 35.35252761 -9 35 C-10.68359375 33.95703125 -10.68359375 33.95703125 -12 32 C-12.3837596 29.32558234 -12.57013435 26.9881853 -12.5625 24.3125 C-12.5637085 23.59368652 -12.56491699 22.87487305 -12.56616211 22.13427734 C-12.37435805 15.8903829 -10.46047084 12.37397971 -6 8 C-5.67 7.34 -5.34 6.68 -5 6 C-4.34 6 -3.68 6 -3 6 C-2.690625 5.38125 -2.38125 4.7625 -2.0625 4.125 C-1.375 2.75 -0.6875 1.375 0 0 Z " fill="#A0459C" transform="translate(173,72)"/>
<path d="M0 0 C0.33 0.99 0.66 1.98 1 3 C2.32 3.33 3.64 3.66 5 4 C5 8.95 5 13.9 5 19 C4.01 19 3.02 19 2 19 C2 22.96 2 26.92 2 31 C-7.1796875 31.1953125 -7.1796875 31.1953125 -10 31 C-12 29 -12 29 -12.23046875 26.87109375 C-12.21628906 26.06800781 -12.20210937 25.26492187 -12.1875 24.4375 C-12.18105469 23.63183594 -12.17460937 22.82617188 -12.16796875 21.99609375 C-12 20 -12 20 -11 19 C-9.02 19 -7.04 19 -5 19 C-5 14.38 -5 9.76 -5 5 C-4.34 5 -3.68 5 -3 5 C-2.690625 4.360625 -2.38125 3.72125 -2.0625 3.0625 C-1 1 -1 1 0 0 Z " fill="#457AE8" transform="translate(144,109)"/>
<path d="M0 0 C0.86405205 0.1065818 0.86405205 0.1065818 1.74555969 0.21531677 C11.09148478 1.22450532 20.40666863 1.12648136 29.79296875 1.09765625 C31.59328675 1.09578763 33.39360526 1.09436582 35.19392395 1.09336853 C39.89724164 1.08957832 44.60052769 1.07977851 49.30383301 1.06866455 C54.11726453 1.05837465 58.93070124 1.05385478 63.74414062 1.04882812 C73.1627742 1.03815258 82.58138445 1.02111894 92 1 C91.67 1.99 91.34 2.98 91 4 C60.97 4 30.94 4 0 4 C0 2.68 0 1.36 0 0 Z " fill="#756FDA" transform="translate(13,164)"/>
<path d="M0 0 C0.33 0 0.66 0 1 0 C1.11600225 9.02313366 1.2047696 18.04600949 1.25906086 27.06972694 C1.28512208 31.26013203 1.32045533 35.45002586 1.37719727 39.64013672 C1.43164299 43.68614072 1.46144668 47.73165391 1.47438622 51.77799606 C1.48360375 53.31937763 1.50160404 54.86073323 1.52865028 56.40190506 C1.56511117 58.56620947 1.56993877 60.72850283 1.56762695 62.89306641 C1.57873001 64.12328522 1.58983307 65.35350403 1.60127258 66.6210022 C0.80458082 71.09820571 -0.98230071 72.65134879 -4 76 C-4.80771931 79.63929372 -4.80771931 79.63929372 -4.8125 83.375 C-4.86019531 84.62023437 -4.90789062 85.86546875 -4.95703125 87.1484375 C-4.97830078 88.55996094 -4.97830078 88.55996094 -5 90 C-5.33 90 -5.66 90 -6 90 C-6.01458252 89.20827393 -6.02916504 88.41654785 -6.04418945 87.60083008 C-6.11878356 84.00423457 -6.21540833 80.40855557 -6.3125 76.8125 C-6.33505859 75.56662109 -6.35761719 74.32074219 -6.38085938 73.03710938 C-6.41630859 71.83505859 -6.45175781 70.63300781 -6.48828125 69.39453125 C-6.51446533 68.28956299 -6.54064941 67.18459473 -6.56762695 66.04614258 C-7.20265045 61.57229266 -9.03546 58.96454 -12.1875 55.8125 C-12.785625 55.214375 -13.38375 54.61625 -14 54 C-14 53.34 -14 52.68 -14 52 C-13.13375 52.2784375 -13.13375 52.2784375 -12.25 52.5625 C-9.74397932 53.0497818 -8.42630459 52.68239817 -6 52 C-4.68 52 -3.36 52 -2 52 C-1.01056178 46.14435672 -0.78814847 40.40461663 -0.68359375 34.47265625 C-0.66281265 33.48373886 -0.64203156 32.49482147 -0.62062073 31.47593689 C-0.55559446 28.33819062 -0.49645982 25.20036554 -0.4375 22.0625 C-0.39427009 19.92642437 -0.35065442 17.7903565 -0.30664062 15.65429688 C-0.19996162 10.43627957 -0.09811087 5.21818506 0 0 Z " fill="#A3A4DF" transform="translate(166,12)"/>
<path d="M0 0 C0.97744926 3.04095325 1.16271218 4.99632687 0 8 C-1.5625 9.75 -1.5625 9.75 -3 11 C-3.33 10.67 -3.66 10.34 -4 10 C-4.33 11.32 -4.66 12.64 -5 14 C-4.01 14 -3.02 14 -2 14 C-2 15.32 -2 16.64 -2 18 C-1.01 17.67 -0.02 17.34 1 17 C-0.16767116 20.95211777 -1.4487815 23.78324624 -4 27 C-4.33 27.99 -4.66 28.98 -5 30 C-11.435 30.495 -11.435 30.495 -18 31 C-18.33 36.61 -18.66 42.22 -19 48 C-19.33 48 -19.66 48 -20 48 C-20 39.75 -20 31.5 -20 23 C-15.05 23 -10.1 23 -5 23 C-5 20.36 -5 17.72 -5 15 C-6.98 15 -8.96 15 -11 15 C-10.34 14.67 -9.68 14.34 -9 14 C-8.566875 12.5459375 -8.566875 12.5459375 -8.125 11.0625 C-7 8 -7 8 -4.9375 6.875 C-4.298125 6.58625 -3.65875 6.2975 -3 6 C-2.19471111 3.94999129 -2.19471111 3.94999129 -2 2 C-1.34 2 -0.68 2 0 2 C0 1.34 0 0.68 0 0 Z " fill="#5F6DAD" transform="translate(239,50)"/>
<path d="M0 0 C0 0.66 0 1.32 0 2 C-0.99 2 -1.98 2 -3 2 C-3.268125 2.556875 -3.53625 3.11375 -3.8125 3.6875 C-7.41818182 10.70909091 -7.41818182 10.70909091 -10 12 C-10.33 12.99 -10.66 13.98 -11 15 C-11.66 15 -12.32 15 -13 15 C-13.33 16.98 -13.66 18.96 -14 21 C-14.66 21 -15.32 21 -16 21 C-16 21.66 -16 22.32 -16 23 C-16.66 23 -17.32 23 -18 23 C-17.85342916 24.96614267 -17.85342916 24.96614267 -17 27 C-14.91965706 28.1375213 -14.91965706 28.1375213 -12.4375 28.75 C-11.61121094 28.99234375 -10.78492188 29.2346875 -9.93359375 29.484375 C-9.29550781 29.65453125 -8.65742188 29.8246875 -8 30 C-8 30.33 -8 30.66 -8 31 C-9.65 31 -11.3 31 -13 31 C-13 30.34 -13 29.68 -13 29 C-15.31 28.67 -17.62 28.34 -20 28 C-19.36458333 22.40833333 -19.36458333 22.40833333 -17.4375 20.25 C-15.34595252 16.97627351 -15.92477459 14.55675862 -16.3125 10.75 C-16.43238281 9.48671875 -16.55226562 8.2234375 -16.67578125 6.921875 C-16.78277344 5.95765625 -16.88976562 4.9934375 -17 4 C-14.91891315 3.32635339 -12.8350329 2.66133202 -10.75 2 C-9.58984375 1.62875 -8.4296875 1.2575 -7.234375 0.875 C-4 0 -4 0 0 0 Z " fill="#6B77B9" transform="translate(200,105)"/>
<path d="M0 0 C0.33 0 0.66 0 1 0 C1.02505615 1.09465576 1.0501123 2.18931152 1.07592773 3.31713867 C1.17030008 7.38935483 1.27044731 11.46141226 1.37231445 15.53344727 C1.41555069 17.29382608 1.4572335 19.05424378 1.49731445 20.81469727 C1.55529185 23.34924013 1.61890627 25.88358934 1.68359375 28.41796875 C1.70030624 29.20149216 1.71701874 29.98501556 1.73423767 30.7922821 C1.83770807 34.6332255 2.08578184 38.26179122 3 42 C-1.75 41.25 -1.75 41.25 -4 39 C-4.17525055 36.20315203 -4.23143189 33.5067192 -4.1953125 30.7109375 C-4.1924826 29.89251373 -4.18965271 29.07408997 -4.18673706 28.23086548 C-4.17552532 25.61209607 -4.15041929 22.99366636 -4.125 20.375 C-4.11497147 18.60156743 -4.1058454 16.82812951 -4.09765625 15.0546875 C-4.07558278 10.70299374 -4.04104644 6.3515545 -4 2 C-3.01 2.99 -2.02 3.98 -1 5 C-0.67 3.35 -0.34 1.7 0 0 Z " fill="#0F91D9" transform="translate(110,67)"/>
<path d="M0 0 C2.43934225 -0.13501894 4.87124104 -0.23403897 7.3125 -0.3125 C8.34793945 -0.3753418 8.34793945 -0.3753418 9.40429688 -0.43945312 C11.42578125 -0.48828125 11.42578125 -0.48828125 15 0 C15.99 1.65 16.98 3.3 18 5 C-3.78 5 -25.56 5 -48 5 C-48 4.34 -48 3.68 -48 3 C-45 1 -45 1 -41.875 1.3125 C-39 2 -39 2 -38 3 C-35 3.16666667 -35 3.16666667 -32 3 C-31.67 2.67 -31.34 2.34 -31 2 C-29.30858344 2.08963062 -27.62040398 2.24577676 -25.9375 2.4375 C-24.55884766 2.59025391 -24.55884766 2.59025391 -23.15234375 2.74609375 C-22.44207031 2.82988281 -21.73179687 2.91367188 -21 3 C-21 2.34 -21 1.68 -21 1 C-18.525 1.495 -18.525 1.495 -16 2 C-16 2.33 -16 2.66 -16 3 C-5.77 3.33 4.46 3.66 15 4 C15 3.34 15 2.68 15 2 C10.05 2 5.1 2 0 2 C0 1.34 0 0.68 0 0 Z " fill="#3CA1A1" transform="translate(171,162)"/>
<path d="M0 0 C0.33 0.66 0.66 1.32 1 2 C3.31189655 4.31189655 3.86031239 4.31728515 7 4.375 C10.31872048 4.31214545 11.05916436 3.96055709 14 2 C14 2.99 14 3.98 14 5 C12.35 5.33 10.7 5.66 9 6 C9 6.66 9 7.32 9 8 C9.928125 7.62875 10.85625 7.2575 11.8125 6.875 C12.864375 6.58625 13.91625 6.2975 15 6 C15.99 6.66 16.98 7.32 18 8 C14.30278268 11.69721732 11.28192432 12.75229004 6.2109375 13.09765625 C2.82419915 12.94806533 0.75952236 11.92524816 -2 10 C-4.375 7.3125 -4.375 7.3125 -6 5 C-5.67 4.34 -5.34 3.68 -5 3 C-3.35 3 -1.7 3 0 3 C0 2.01 0 1.02 0 0 Z " fill="#EBF2FA" transform="translate(118,102)"/>
<path d="M0 0 C4.22510673 1.50896669 5.71822849 4.27310654 8 8 C8.99 9.485 8.99 9.485 10 11 C10.99 11 11.98 11 13 11 C13 12.98 13 14.96 13 17 C10.35247996 14.42215154 8.05567935 12.08351902 6 9 C5.67 9.66 5.34 10.32 5 11 C3.68 11 2.36 11 1 11 C1 10.34 1 9.68 1 9 C-0.32 9.99 -1.64 10.98 -3 12 C-4.32 11.01 -5.64 10.02 -7 9 C-8.98 9.99 -8.98 9.99 -11 11 C-11 8.69 -11 6.38 -11 4 C-9.9275 4.0825 -8.855 4.165 -7.75 4.25 C-3.95990735 4.36237217 -3.95990735 4.36237217 -1.5625 2 C-1.046875 1.34 -0.53125 0.68 0 0 Z " fill="#0D97E5" transform="translate(83,20)"/>
<path d="M0 0 C2.7963371 -0.23302809 4.60393231 -0.18942368 7.15625 1.03125 C9.47311056 3.50518585 9.4155341 5.28517294 9.3515625 8.59570312 C9.31804687 9.28599609 9.28453125 9.97628906 9.25 10.6875 C9.23195312 11.38939453 9.21390625 12.09128906 9.1953125 12.81445312 C9.14826213 14.54355436 9.07651873 16.27195205 9 18 C7.68 18.33 6.36 18.66 5 19 C4.34 21.31 3.68 23.62 3 26 C3.66 26 4.32 26 5 26 C5.33 25.01 5.66 24.02 6 23 C6.66 24.32 7.32 25.64 8 27 C4.375 30 4.375 30 1 30 C1 26.04 1 22.08 1 18 C1.99 18 2.98 18 4 18 C3.67 13.05 3.34 8.1 3 3 C2.01 2.67 1.02 2.34 0 2 C0 1.34 0 0.68 0 0 Z " fill="#7F84CF" transform="translate(145,110)"/>
<path d="M0 0 C0.33 0 0.66 0 1 0 C1.33 8.58 1.66 17.16 2 26 C2.66 26 3.32 26 4 26 C4.33 27.32 4.66 28.64 5 30 C5.66 28.02 6.32 26.04 7 24 C7.165 24.639375 7.33 25.27875 7.5 25.9375 C8.781786 28.16119241 8.781786 28.16119241 10.9140625 28.48828125 C12.93575155 28.7275978 14.96841939 28.86893028 17 29 C16.34 29.66 15.68 30.32 15 31 C15 32.32 15 33.64 15 35 C16.32 35.33 17.64 35.66 19 36 C16.06699268 37.46650366 14.27962656 37.36440295 11 37 C6.92309385 35.21201847 3.93048487 33.26310164 1.2734375 29.65625 C-0.68676577 24.02818171 -0.31234658 18.53440469 -0.1875 12.625 C-0.17396484 11.41199219 -0.16042969 10.19898437 -0.14648438 8.94921875 C-0.11124582 5.96568794 -0.06197525 2.98307542 0 0 Z " fill="#F1F3F8" transform="translate(153,78)"/>
<path d="M0 0 C0.33 8.25 0.66 16.5 1 25 C-0.98 24.67 -2.96 24.34 -5 24 C-6.55010133 20.89979734 -6.30795676 17.65092097 -6.375 14.25 C-6.41238281 13.54617187 -6.44976562 12.84234375 -6.48828125 12.1171875 C-6.55620581 8.05680823 -6.14830995 5.68159541 -3.5390625 2.484375 C-1 0 -1 0 0 0 Z " fill="#6E6AC0" transform="translate(167,82)"/>
<path d="M0 0 C0.33 0 0.66 0 1 0 C1 2.31 1 4.62 1 7 C6.28 7 11.56 7 17 7 C17 11.95 17 16.9 17 22 C16.67 22 16.34 22 16 22 C16 19.36 16 16.72 16 14 C10.72 14 5.44 14 0 14 C-2.14014979 9.71970042 -2.15816979 9.11227246 -1.125 4.75 C-0.92132813 3.85796875 -0.71765625 2.9659375 -0.5078125 2.046875 C-0.34023437 1.37140625 -0.17265625 0.6959375 0 0 Z " fill="#993F8F" transform="translate(194,66)"/>
<path d="M0 0 C0.33 0 0.66 0 1 0 C1.02505615 1.02472412 1.0501123 2.04944824 1.07592773 3.10522461 C1.16984484 6.89409676 1.27010317 10.68277881 1.37231445 14.47143555 C1.41572297 16.11364303 1.45739358 17.75589739 1.49731445 19.39819336 C1.5548744 21.75388745 1.61860892 24.10934428 1.68359375 26.46484375 C1.70030624 27.20339096 1.71701874 27.94193817 1.73423767 28.7028656 C1.53548013 32.14300627 1.53548013 32.14300627 3 35 C3.33 34.01 3.66 33.02 4 32 C5.65 32 7.3 32 9 32 C9 31.34 9 30.68 9 30 C10.32 30 11.64 30 13 30 C12.67 30.99 12.34 31.98 12 33 C10.35 33 8.7 33 7 33 C7.12375 34.546875 7.12375 34.546875 7.25 36.125 C6.96047708 40.61260533 5.84044077 42.5747626 3 46 C2.34 46 1.68 46 1 46 C0.67 46.66 0.34 47.32 0 48 C0 32.16 0 16.32 0 0 Z " fill="#726DC3" transform="translate(167,32)"/>
<path d="M0 0 C1.32 0.33 2.64 0.66 4 1 C4 5.95 4 10.9 4 16 C1.36 16 -1.28 16 -4 16 C-4.10841951 14.08458862 -4.18578079 12.16740227 -4.25 10.25 C-4.29640625 9.18265625 -4.3428125 8.1153125 -4.390625 7.015625 C-4 4 -4 4 -2.234375 1.546875 C-1.49703125 1.03640625 -0.7596875 0.5259375 0 0 Z " fill="#405ED8" transform="translate(145,112)"/>
<path d="M0 0 C0 8.25 0 16.5 0 25 C2.64 25 5.28 25 8 25 C7.01 27.475 7.01 27.475 6 30 C4.35 30 2.7 30 1 30 C1.66 29.67 2.32 29.34 3 29 C3 28.34 3 27.68 3 27 C1.68 26.67 0.36 26.34 -1 26 C-1 21.38 -1 16.76 -1 12 C-2.98 12.66 -4.96 13.32 -7 14 C-7.99 13.67 -8.98 13.34 -10 13 C-9.2368139 11.39218107 -8.46412942 9.78886862 -7.6875 8.1875 C-7.25824219 7.29417969 -6.82898438 6.40085937 -6.38671875 5.48046875 C-3.32283465 0 -3.32283465 0 0 0 Z " fill="#6777B2" transform="translate(211,90)"/>
<path d="M0 0 C5 4 5 4 5.61523438 6.05883789 C5.60459961 7.12992798 5.60459961 7.12992798 5.59375 8.22265625 C5.59117187 9.00833984 5.58859375 9.79402344 5.5859375 10.60351562 C5.55757812 11.41498047 5.52921875 12.22644531 5.5 13.0625 C5.50257813 13.87783203 5.50515625 14.69316406 5.5078125 15.53320312 C5.40996082 21.4874777 5.40996082 21.4874777 3.59570312 23.75561523 C2 25 2 25 0 25 C0 16.75 0 8.5 0 0 Z " fill="#1A58E5" transform="translate(127,82)"/>
<path d="M0 0 C0.33 0 0.66 0 1 0 C1.01458252 0.70608398 1.02916504 1.41216797 1.04418945 2.13964844 C1.11873167 5.34364674 1.21537205 8.54661016 1.3125 11.75 C1.33505859 12.86117187 1.35761719 13.97234375 1.38085938 15.1171875 C1.41630859 16.18710937 1.45175781 17.25703125 1.48828125 18.359375 C1.51446533 19.34389648 1.54064941 20.32841797 1.56762695 21.34277344 C2.06259301 24.38467662 3.14317965 25.60394535 5 28 C5.34057617 30.10644531 5.34057617 30.10644531 5.29296875 32.328125 C5.28330078 33.12734375 5.27363281 33.9265625 5.26367188 34.75 C5.23853516 35.575 5.21339844 36.4 5.1875 37.25 C5.17396484 38.09046875 5.16042969 38.9309375 5.14648438 39.796875 C5.11123464 41.86485938 5.0574302 43.93251271 5 46 C2.53051758 44.59863281 2.53051758 44.59863281 0 42 C-0.71727361 38.80961399 -0.58184279 35.67778016 -0.48828125 32.421875 C-0.48120651 31.4953009 -0.47413177 30.56872681 -0.46684265 29.61407471 C-0.43888371 26.65855715 -0.37614272 23.70494356 -0.3125 20.75 C-0.28741906 18.74481905 -0.26460553 16.73960837 -0.24414062 14.734375 C-0.18905204 9.82218457 -0.10276911 4.91141493 0 0 Z " fill="#749AEE" transform="translate(127,40)"/>
<path d="M0 0 C0.763125 0.185625 1.52625 0.37125 2.3125 0.5625 C5.08967375 1.22819173 5.08967375 1.22819173 8 0 C6.18690997 3.77727089 4.0926741 7.37269822 2 11 C1.34 11 0.68 11 0 11 C-0.433125 12.2065625 -0.433125 12.2065625 -0.875 13.4375 C-2 16 -2 16 -4 17 C-5.01187895 18.65948148 -6.0126546 20.32580562 -7 22 C-7.33 22 -7.66 22 -8 22 C-8.02712066 20.56260487 -8.04645067 19.12506137 -8.0625 17.6875 C-8.07410156 16.88699219 -8.08570313 16.08648437 -8.09765625 15.26171875 C-8 13 -8 13 -7 10 C-7.33 9.34 -7.66 8.68 -8 8 C-6.68 8 -5.36 8 -4 8 C-4 8.66 -4 9.32 -4 10 C-3.34 10 -2.68 10 -2 10 C-2 9.34 -2 8.68 -2 8 C-1.34 7.67 -0.68 7.34 0 7 C0 4.69 0 2.38 0 0 Z " fill="#726AC2" transform="translate(200,24)"/>
<path d="M0 0 C0.33 0.99 0.66 1.98 1 3 C1.66 3 2.32 3 3 3 C3 4.65 3 6.3 3 8 C2.01 8.33 1.02 8.66 0 9 C-1.22969878 12.51190809 -1.22969878 12.51190809 -2 16 C-4.97 16 -7.94 16 -11 16 C-11 15.34 -11 14.68 -11 14 C-9.35 13.34 -7.7 12.68 -6 12 C-6.93972656 12.03480469 -6.93972656 12.03480469 -7.8984375 12.0703125 C-9.12433594 12.09738281 -9.12433594 12.09738281 -10.375 12.125 C-11.18710938 12.14820312 -11.99921875 12.17140625 -12.8359375 12.1953125 C-15 12 -15 12 -17 10 C-16.34 10 -15.68 10 -15 10 C-15 8.35 -15 6.7 -15 5 C-15.66 4.67 -16.32 4.34 -17 4 C-16.01 4 -15.02 4 -14 4 C-14 6.31 -14 8.62 -14 11 C-12.39026493 10.43221352 -10.78734673 9.8450789 -9.1875 9.25 C-7.84751953 8.76273438 -7.84751953 8.76273438 -6.48046875 8.265625 C-2.6389097 6.30552243 -1.34121083 4.0236325 0 0 Z " fill="#137ECE" transform="translate(89,104)"/>
<path d="M0 0 C0.66 0.99 1.32 1.98 2 3 C2.6496875 2.2575 2.6496875 2.2575 3.3125 1.5 C5 0 5 0 8 0 C7.15630537 3.98837462 6.58581409 6.42960207 3.625 9.3125 C-2.11111111 13 -2.11111111 13 -6 13 C-6 10.36 -6 7.72 -6 5 C-5.195625 4.731875 -4.39125 4.46375 -3.5625 4.1875 C-2.716875 3.795625 -1.87125 3.40375 -1 3 C-0.67 2.01 -0.34 1.02 0 0 Z " fill="#ECF5F9" transform="translate(82,102)"/>
<path d="M0 0 C0.97744926 3.04095325 1.16271218 4.99632687 0 8 C-1.5625 9.75 -1.5625 9.75 -3 11 C-3.33 10.67 -3.66 10.34 -4 10 C-4.33 11.32 -4.66 12.64 -5 14 C-4.01 14 -3.02 14 -2 14 C-2 15.32 -2 16.64 -2 18 C-1.01 17.67 -0.02 17.34 1 17 C0.34 18.98 -0.32 20.96 -1 23 C-2.32 23 -3.64 23 -5 23 C-5 20.36 -5 17.72 -5 15 C-6.98 15 -8.96 15 -11 15 C-10.34 14.67 -9.68 14.34 -9 14 C-8.71125 13.030625 -8.4225 12.06125 -8.125 11.0625 C-7 8 -7 8 -4.9375 6.875 C-4.298125 6.58625 -3.65875 6.2975 -3 6 C-2.19471111 3.94999129 -2.19471111 3.94999129 -2 2 C-1.34 2 -0.68 2 0 2 C0 1.34 0 0.68 0 0 Z " fill="#6B73B9" transform="translate(239,50)"/>
<path d="M0 0 C3.81300782 3.2870757 5.22972246 6.39727838 7 11 C5.37660195 12.70884005 3.70680947 14.37446717 2 16 C1.34 16 0.68 16 0 16 C0 20.62 0 25.24 0 30 C-0.33 30 -0.66 30 -1 30 C-1.04898438 29.01257813 -1.09796875 28.02515625 -1.1484375 27.0078125 C-1.22320312 25.72648437 -1.29796875 24.44515625 -1.375 23.125 C-1.44460937 21.84882812 -1.51421875 20.57265625 -1.5859375 19.2578125 C-1.67241106 15.91938301 -1.67241106 15.91938301 -4 14 C-3.34 13.67 -2.68 13.34 -2 13 C-1.34 13.33 -0.68 13.66 0 14 C-0.37125 13.360625 -0.7425 12.72125 -1.125 12.0625 C-2.37034446 7.70379439 -1.21226863 4.28024077 0 0 Z M-4 16 C-2 17 -2 17 -2 17 Z " fill="#2459DF" transform="translate(139,98)"/>
<path d="M0 0 C7.75 0.875 7.75 0.875 10 2 C10 2.66 10 3.32 10 4 C2.41467275 8.64023405 -4.16042758 9.84759358 -13 10 C-13 10.66 -13 11.32 -13 12 C-13.99 12 -14.98 12 -16 12 C-16 11.34 -16 10.68 -16 10 C-14.08594633 9.32586789 -12.16863974 8.6609668 -10.25 8 C-9.18265625 7.62875 -8.1153125 7.2575 -7.015625 6.875 C-4 6 -4 6 0 6 C0 4.02 0 2.04 0 0 Z " fill="#3EA0B3" transform="translate(200,140)"/>
<path d="M0 0 C2.31 0 4.62 0 7 0 C7 7.92 7 15.84 7 24 C6.67 24 6.34 24 6 24 C5.67 21.36 5.34 18.72 5 16 C4.34 16 3.68 16 3 16 C2.8046875 14.01432292 2.609375 12.02864583 2.4140625 10.04296875 C2.07334609 7.70011858 2.07334609 7.70011858 0 5 C-0.125 2.3125 -0.125 2.3125 0 0 Z " fill="#2E5DDF" transform="translate(120,8)"/>
<path d="M0 0 C4.30319097 0.5737588 8.59199401 1.22831909 12.875 1.9375 C14.29425781 2.16759766 14.29425781 2.16759766 15.7421875 2.40234375 C16.48726562 2.59957031 17.23234375 2.79679687 18 3 C18.33 3.66 18.66 4.32 19 5 C18.34 5.66 17.68 6.32 17 7 C15.3222433 6.72793135 13.65549531 6.38499891 12 6 C10.3337447 5.9629721 8.66598681 5.95240038 7 6 C6.67 6.99 6.34 7.98 6 9 C4.62437146 7.71034824 3.29233607 6.37310707 2 5 C2 4.34 2 3.68 2 3 C1.34 3 0.68 3 0 3 C0 2.01 0 1.02 0 0 Z " fill="#1866DD" transform="translate(96,106)"/>
<path d="M0 0 C0.99 0.33 1.98 0.66 3 1 C4.1875 4.0625 4.1875 4.0625 5 7 C7.31 7 9.62 7 12 7 C12 9.31 12 11.62 12 14 C11.01 14.495 11.01 14.495 10 15 C4.25 11.375 4.25 11.375 2 8 C-1.06556598 7.26656572 -1.06556598 7.26656572 -4 7 C-4 6.34 -4 5.68 -4 5 C-2.68 4.34 -1.36 3.68 0 3 C0 2.01 0 1.02 0 0 Z " fill="#726ABE" transform="translate(212,17)"/>
<path d="M0 0 C0.66 0.33 1.32 0.66 2 1 C-0.98561917 3.98561917 -4.53371838 4.25384159 -8.56640625 5.21875 C-9.36949219 5.4765625 -10.17257813 5.734375 -11 6 C-11.33 6.66 -11.66 7.32 -12 8 C-13.155 7.979375 -14.31 7.95875 -15.5 7.9375 C-19.74350547 7.92992231 -23.80176644 8.40025235 -28 9 C-28 7.68 -28 6.36 -28 5 C-29.32 4.34 -30.64 3.68 -32 3 C-28.87709365 3.48578543 -26.00419641 3.9986012 -23 5 C-17.9802939 5.39370244 -14.5353743 4.61519927 -9.99609375 2.73046875 C-7.0693873 1.6594431 -4.08054176 1.37720919 -1 1 C-0.67 0.67 -0.34 0.34 0 0 Z " fill="#2378CE" transform="translate(100,136)"/>
<path d="M0 0 C0.33 0 0.66 0 1 0 C1.07417023 4.50232334 1.1286105 9.00429091 1.16479492 13.50708008 C1.17987936 15.03871861 1.20034978 16.57031398 1.22631836 18.10180664 C1.26271847 20.30365654 1.27972913 22.50493533 1.29296875 24.70703125 C1.30845261 25.39150833 1.32393646 26.07598541 1.33988953 26.78120422 C1.34158031 31.55999359 1.34158031 31.55999359 -0.51831055 33.95581055 C-1.00726807 34.30039307 -1.49622559 34.64497559 -2 35 C-2.99 34.67 -3.98 34.34 -5 34 C-4.34 33.34 -3.68 32.68 -3 32 C-2.62826984 29.3817233 -2.62826984 29.3817233 -2.5859375 26.3359375 C-2.54726562 25.21445313 -2.50859375 24.09296875 -2.46875 22.9375 C-2.4378125 21.761875 -2.406875 20.58625 -2.375 19.375 C-2.33632812 18.19164063 -2.29765625 17.00828125 -2.2578125 15.7890625 C-2.16331155 12.85953309 -2.07775442 9.93001403 -2 7 C-1.67 7 -1.34 7 -1 7 C-0.67 4.69 -0.34 2.38 0 0 Z " fill="#9A3B8A" transform="translate(173,72)"/>
<path d="M0 0 C0.33 0 0.66 0 1 0 C1.92972557 9.69570954 2.11237377 19.27342548 2 29 C2.66 29 3.32 29 4 29 C3.814375 29.5775 3.62875 30.155 3.4375 30.75 C2.95976454 33.20692525 3.24270636 34.64397534 4 37 C2.68 37 1.36 37 0 37 C0 24.79 0 12.58 0 0 Z " fill="#0791DA" transform="translate(90,67)"/>
<path d="M0 0 C2.18742014 3.2811302 2.54442806 5.33084356 3.125 9.1875 C3.29257813 10.27417969 3.46015625 11.36085938 3.6328125 12.48046875 C3.75398437 13.31191406 3.87515625 14.14335938 4 15 C3.34 14.67 2.68 14.34 2 14 C2 13.34 2 12.68 2 12 C-0.97 11.01 -3.94 10.02 -7 9 C-6.67 7.68 -6.34 6.36 -6 5 C-5.01 5.33 -4.02 5.66 -3 6 C-2.690625 5.195625 -2.38125 4.39125 -2.0625 3.5625 C-1 1 -1 1 0 0 Z " fill="#5D65C6" transform="translate(152,101)"/>
<path d="M0 0 C-2.46278801 2.46278801 -4.70676982 2.99771255 -8 4 C-8 4.99 -8 5.98 -8 7 C-8.33 7.66 -8.66 8.32 -9 9 C-10.32 9 -11.64 9 -13 9 C-13 8.34 -13 7.68 -13 7 C-14.98 7 -16.96 7 -19 7 C-19 6.34 -19 5.68 -19 5 C-17.02 4.67 -15.04 4.34 -13 4 C-13 3.34 -13 2.68 -13 2 C-11.39935157 1.46845258 -9.79431126 0.95011647 -8.1875 0.4375 C-7.29417969 0.14746094 -6.40085938 -0.14257812 -5.48046875 -0.44140625 C-3 -1 -3 -1 0 0 Z " fill="#5591AE" transform="translate(233,137)"/>
<path d="M0 0 C-0.33 4.62 -0.66 9.24 -1 14 C-1.33 14 -1.66 14 -2 14 C-2 11.69 -2 9.38 -2 7 C-3.134375 6.87625 -4.26875 6.7525 -5.4375 6.625 C-6.613125 6.41875 -7.78875 6.2125 -9 6 C-9.33 5.34 -9.66 4.68 -10 4 C-10.99 3.34 -11.98 2.68 -13 2 C-8.13112025 0.09994937 -5.57710066 0 0 0 Z " fill="#9BA0E2" transform="translate(167,9)"/>
<path d="M0 0 C0.66 0 1.32 0 2 0 C2.33 0.99 2.66 1.98 3 3 C3.66 3.66 4.32 4.32 5 5 C4.67 5.99 4.34 6.98 4 8 C5.32 8.33 6.64 8.66 8 9 C8 9.99 8 10.98 8 12 C7.01 12.495 7.01 12.495 6 13 C6 13.66 6 14.32 6 15 C6.66 15.33 7.32 15.66 8 16 C8 17.65 8 19.3 8 21 C7.01 20.67 6.02 20.34 5 20 C3.94903206 17.37998134 3.09414416 14.8866519 2.3125 12.1875 C2.08755859 11.46240234 1.86261719 10.73730469 1.63085938 9.99023438 C0.5779543 6.4922853 0 3.68003146 0 0 Z " fill="#697DBB" transform="translate(272,92)"/>
<path d="M0 0 C1.65 0 3.3 0 5 0 C5.05402274 2.10388569 5.09280256 4.20816714 5.125 6.3125 C5.14820313 7.48425781 5.17140625 8.65601562 5.1953125 9.86328125 C5 13 5 13 3 16 C-0.62167726 10.8418536 -1.39880692 7.94885347 -0.359375 1.72265625 C-0.24078125 1.15417969 -0.1221875 0.58570312 0 0 Z " fill="#8299E7" transform="translate(140,88)"/>
<path d="M0 0 C0.66 0.33 1.32 0.66 2 1 C3.2062252 4.61867559 3.10816918 7.92506251 3.0625 11.6875 C3.05798828 12.38939453 3.05347656 13.09128906 3.04882812 13.81445312 C3.03706927 15.54300538 3.01913454 17.27151365 3 19 C2.34 19 1.68 19 1 19 C1 18.01 1 17.02 1 16 C-2.65456815 15.24758891 -6.31733897 14.59950296 -10 14 C-9.67 13.01 -9.34 12.02 -9 11 C-8.16855469 11.2165625 -8.16855469 11.2165625 -7.3203125 11.4375 C-6.59585938 11.623125 -5.87140625 11.80875 -5.125 12 C-4.40570313 12.185625 -3.68640625 12.37125 -2.9453125 12.5625 C-1.00710683 13.07313965 -1.00710683 13.07313965 1 13 C0.67 8.71 0.34 4.42 0 0 Z " fill="#1162DA" transform="translate(79,84)"/>
<path d="M0 0 C3.16115776 1.36983503 3.9927092 1.9890638 6 5 C5.01 5.33 4.02 5.66 3 6 C2.67 5.34 2.34 4.68 2 4 C-1.72614153 5.11854586 -1.72614153 5.11854586 -4 8 C-6.30965848 9.05352843 -8.6429774 10.05719096 -11 11 C-11 8.69 -11 6.38 -11 4 C-9.9275 4.0825 -8.855 4.165 -7.75 4.25 C-3.95990735 4.36237217 -3.95990735 4.36237217 -1.5625 2 C-1.046875 1.34 -0.53125 0.68 0 0 Z " fill="#1160E2" transform="translate(83,20)"/>
<path d="M0 0 C0.85722656 0.08765625 1.71445313 0.1753125 2.59765625 0.265625 C4.9375 0.75 4.9375 0.75 7.9375 2.75 C7.9375 3.41 7.9375 4.07 7.9375 4.75 C8.9275 5.08 9.9175 5.41 10.9375 5.75 C5.70963057 7.0931603 2.54647307 6.24026317 -2.4375 4.3125 C-3.07816406 4.06951172 -3.71882812 3.82652344 -4.37890625 3.57617188 C-5.94498824 2.98012574 -7.50447755 2.36680615 -9.0625 1.75 C-5.82570778 -0.20258928 -3.73229261 -0.42783445 0 0 Z " fill="#8071CA" transform="translate(205.0625,136.25)"/>
<path d="M0 0 C0.33 0 0.66 0 1 0 C1 7.92 1 15.84 1 24 C0.67 24 0.34 24 0 24 C-0.33 25.98 -0.66 27.96 -1 30 C-1.33 30 -1.66 30 -2 30 C-2.04939662 26.04903022 -2.08571755 22.0981797 -2.10986328 18.14697266 C-2.12488107 16.1408864 -2.15028981 14.13488676 -2.17578125 12.12890625 C-2.18544922 10.24365234 -2.18544922 10.24365234 -2.1953125 8.3203125 C-2.20578613 7.15773926 -2.21625977 5.99516602 -2.22705078 4.79736328 C-2 2 -2 2 0 0 Z " fill="#A73E98" transform="translate(172,74)"/>
<path d="M0 0 C2.31 0.66 4.62 1.32 7 2 C7 2.66 7 3.32 7 4 C7.639375 4.103125 8.27875 4.20625 8.9375 4.3125 C9.618125 4.539375 10.29875 4.76625 11 5 C11.33 5.99 11.66 6.98 12 8 C10.71349294 8.69710731 9.42059335 9.38242876 8.125 10.0625 C7.40570312 10.44535156 6.68640625 10.82820312 5.9453125 11.22265625 C5.30335937 11.47917969 4.66140625 11.73570312 4 12 C3.34 11.67 2.68 11.34 2 11 C3.65 9.35 5.3 7.7 7 6 C5.02 5.01 3.04 4.02 1 3 C1 6.3 1 9.6 1 13 C0.67 13 0.34 13 0 13 C0 8.71 0 4.42 0 0 Z " fill="#3887D1" transform="translate(8,147)"/>
<path d="M0 0 C3.0466145 1.01553817 5.31143836 2.20762558 8 4 C7.01 4.33 6.02 4.66 5 5 C6.65 5.33 8.3 5.66 10 6 C7.24075815 7.80411967 6.11027897 8.0127245 2.75 7.625 C1.8425 7.41875 0.935 7.2125 0 7 C-0.66 8.32 -1.32 9.64 -2 11 C-3.67830848 7.64338305 -2.6353188 4.63864406 -2 1 C-1.34 0.67 -0.68 0.34 0 0 Z " fill="#1A59C9" transform="translate(114,111)"/>
<path d="M0 0 C4.62 0 9.24 0 14 0 C14 4.95 14 9.9 14 15 C13.67 15 13.34 15 13 15 C12.67 11.7 12.34 8.4 12 5 C9.03 5 6.06 5 3 5 C3 4.34 3 3.68 3 3 C5.64 3 8.28 3 11 3 C11 2.34 11 1.68 11 1 C7.37 1 3.74 1 0 1 C0 0.67 0 0.34 0 0 Z " fill="#973982" transform="translate(197,73)"/>
<path d="M0 0 C1.85772162 0.08984301 3.71247985 0.24611861 5.5625 0.4375 C7.08037109 0.59025391 7.08037109 0.59025391 8.62890625 0.74609375 C9.80259766 0.87177734 9.80259766 0.87177734 11 1 C10.34 2.32 9.68 3.64 9 5 C8.401875 4.79375 7.80375 4.5875 7.1875 4.375 C4.71549154 3.69328085 4.71549154 3.69328085 2 6 C1.27034634 8.56282742 1.27034634 8.56282742 1 11 C0.34 10.67 -0.32 10.34 -1 10 C-1.02689216 8.52093108 -1.04634621 7.04172517 -1.0625 5.5625 C-1.07410156 4.73878906 -1.08570313 3.91507813 -1.09765625 3.06640625 C-1 1 -1 1 0 0 Z " fill="#519AD2" transform="translate(135,139)"/>
<path d="M0 0 C0 1.32 0 2.64 0 4 C-0.763125 3.938125 -1.52625 3.87625 -2.3125 3.8125 C-5.04989692 3.70813718 -5.04989692 3.70813718 -6.5625 5.5625 C-7.036875 6.036875 -7.51125 6.51125 -8 7 C-9.8125 6.625 -9.8125 6.625 -12 6 C-14.00946222 6.27050453 -16.01354224 6.59367909 -18 7 C-18.33 6.34 -18.66 5.68 -19 5 C-16.39741676 4.16142312 -13.79314353 3.32896656 -11.1875 2.5 C-10.08051758 2.14228516 -10.08051758 2.14228516 -8.95117188 1.77734375 C-5.86744804 0.80059864 -3.25504191 0 0 0 Z " fill="#578AB2" transform="translate(280,121)"/>
<path d="M0 0 C1.051875 0.2475 2.10375 0.495 3.1875 0.75 C2.1875 2.75 2.1875 2.75 -1.33984375 4.07421875 C-2.80737047 4.53673625 -4.27757839 4.9908103 -5.75 5.4375 C-6.8627832 5.79424805 -6.8627832 5.79424805 -7.99804688 6.15820312 C-13.55818452 7.87715774 -13.55818452 7.87715774 -15.8125 6.75 C-14.8225 5.43 -13.8325 4.11 -12.8125 2.75 C-11.9771875 3.12125 -11.9771875 3.12125 -11.125 3.5 C-10.361875 3.5825 -9.59875 3.665 -8.8125 3.75 C-8.049375 3.09 -7.28625 2.43 -6.5 1.75 C-3.8125 -0.25 -3.8125 -0.25 0 0 Z " fill="#6A79BD" transform="translate(241.8125,88.25)"/>
<path d="M0 0 C1.65 0 3.3 0 5 0 C4.01 0.495 4.01 0.495 3 1 C3.33 1.99 3.66 2.98 4 4 C5.32 3.67 6.64 3.34 8 3 C8 3.99 8 4.98 8 6 C5.36 6 2.72 6 0 6 C0 5.01 0 4.02 0 3 C-1.216875 3.495 -2.43375 3.99 -3.6875 4.5 C-6.92486738 5.72479441 -9.50099357 6.32803185 -13 6 C-12 4 -12 4 -8.75 2.875 C-5.62299365 2.14536518 -3.17377095 1.80765025 0 2 C0 1.34 0 0.68 0 0 Z " fill="#5A8AAE" transform="translate(248,130)"/>
<path d="M0 0 C1.32 0.33 2.64 0.66 4 1 C3.34 3.31 2.68 5.62 2 8 C2.66 8 3.32 8 4 8 C4.33 7.01 4.66 6.02 5 5 C5.66 6.32 6.32 7.64 7 9 C3.375 12 3.375 12 0 12 C0 8.04 0 4.08 0 0 Z " fill="#7987D4" transform="translate(146,128)"/>
<path d="M0 0 C3.4375 0.375 3.4375 0.375 5.4375 2.375 C5.0625 5.5 5.0625 5.5 4.4375 8.375 C5.0975 8.705 5.7575 9.035 6.4375 9.375 C5.4475 10.86 5.4475 10.86 4.4375 12.375 C2.46927114 10.40677114 2.77501619 7.02691291 2.4375 4.375 C-0.5325 4.375 -3.5025 4.375 -6.5625 4.375 C-4.71562606 0.89853141 -4.02907592 0.42411325 0 0 Z " fill="#6A79C0" transform="translate(266.5625,79.625)"/>
<path d="M0 0 C1.65 0 3.3 0 5 0 C4.01 1.485 4.01 1.485 3 3 C2.34 3 1.68 3 1 3 C0.67 5.97 0.34 8.94 0 12 C-0.99 12 -1.98 12 -3 12 C-3 9.03 -3 6.06 -3 3 C-2.01 2.67 -1.02 2.34 0 2 C0 1.34 0 0.68 0 0 Z " fill="#7D8FD7" transform="translate(143,76)"/>
<path d="M0 0 C-0.66 1.65 -1.32 3.3 -2 5 C-5.63 4.67 -9.26 4.34 -13 4 C-13.33 3.01 -13.66 2.02 -14 1 C-12.04175306 0.83232136 -10.08339945 0.66588795 -8.125 0.5 C-6.48917969 0.36078125 -6.48917969 0.36078125 -4.8203125 0.21875 C-3.21670436 0.09437042 -1.60842449 0 0 0 Z M-5 5 C-3 6 -3 6 -3 6 Z " fill="#6270B1" transform="translate(237,72)"/>
<path d="M0 0 C0.66 0 1.32 0 2 0 C3.09506492 3.28519475 3.09960608 5.73663415 3.0625 9.1875 C3.05347656 10.27417969 3.04445312 11.36085938 3.03515625 12.48046875 C3.02355469 13.31191406 3.01195312 14.14335938 3 15 C2.01 15 1.02 15 0 15 C0 10.05 0 5.1 0 0 Z " fill="#6A6AC7" transform="translate(149,113)"/>
<path d="M0 0 C2.31 0 4.62 0 7 0 C6.67 1.65 6.34 3.3 6 5 C5.34 5 4.68 5 4 5 C4 5.66 4 6.32 4 7 C2.68 7 1.36 7 0 7 C0 4.69 0 2.38 0 0 Z " fill="#E8F3FA" transform="translate(111,65)"/>
<path d="M0 0 C0.33 0 0.66 0 1 0 C1 4.62 1 9.24 1 14 C3.64 14 6.28 14 9 14 C8.34 15.65 7.68 17.3 7 19 C5.35 19 3.7 19 2 19 C2.66 18.67 3.32 18.34 4 18 C4 17.34 4 16.68 4 16 C2.68 15.67 1.36 15.34 0 15 C0 10.05 0 5.1 0 0 Z " fill="#7A5AB8" transform="translate(210,101)"/>
<path d="M0 0 C1.32 0 2.64 0 4 0 C4.33 1.32 4.66 2.64 5 4 C3.68 4 2.36 4 1 4 C1.17402344 4.82757813 1.34804687 5.65515625 1.52734375 6.5078125 C2.05094005 10.37636697 1.88851234 14.0078191 1.5625 17.875 C1.51029297 18.56335938 1.45808594 19.25171875 1.40429688 19.9609375 C1.27594902 21.64112758 1.13887775 23.32064749 1 25 C0.67 25 0.34 25 0 25 C0 16.75 0 8.5 0 0 Z " fill="#5F6BA4" transform="translate(219,73)"/>
<path d="M0 0 C0 0.66 0 1.32 0 2 C-1.32 2.33 -2.64 2.66 -4 3 C-4 4.32 -4 5.64 -4 7 C-3.01 7.33 -2.02 7.66 -1 8 C-1 6.68 -1 5.36 -1 4 C-0.34 4 0.32 4 1 4 C0.67 5.65 0.34 7.3 0 9 C-1.65 9.33 -3.3 9.66 -5 10 C-7.29013653 6.5647952 -7.17842973 5.014669 -7 1 C-4.53721199 -0.231394 -2.7204945 -0.07159196 0 0 Z " fill="#3886D2" transform="translate(29,148)"/>
<path d="M0 0 C7.75 0.875 7.75 0.875 10 2 C10 2.66 10 3.32 10 4 C6.7 4.66 3.4 5.32 0 6 C0 4.02 0 2.04 0 0 Z " fill="#5294AA" transform="translate(200,140)"/>
<path d="M0 0 C0.66 1.32 1.32 2.64 2 4 C1.01 4 0.02 4 -1 4 C-0.34 4.66 0.32 5.32 1 6 C0 9 0 9 -1 10 C-2.66617115 10.04063832 -4.33388095 10.042721 -6 10 C-6 6.41087588 -5.33563446 5.89142971 -3 3.3125 C-2.443125 2.68988281 -1.88625 2.06726563 -1.3125 1.42578125 C-0.879375 0.95527344 -0.44625 0.48476562 0 0 Z " fill="#124DCC" transform="translate(137,108)"/>
<path d="M0 0 C3.81300782 3.2870757 5.22972246 6.39727838 7 11 C4.525 12.485 4.525 12.485 2 14 C1.67 13.01 1.34 12.02 1 11 C1.66 11 2.32 11 3 11 C2.67 9.35 2.34 7.7 2 6 C1.67 6.66 1.34 7.32 1 8 C0.34 7.67 -0.32 7.34 -1 7 C-0.67 4.69 -0.34 2.38 0 0 Z " fill="#365CD4" transform="translate(139,98)"/>
<path d="M0 0 C0.88751953 0.10828125 0.88751953 0.10828125 1.79296875 0.21875 C5.88261722 0.69910023 9.8738531 1.13310151 14 1 C10.36576791 3.32590854 7.22911669 3.16265833 3 3 C3 4.32 3 5.64 3 7 C-1.29 7 -5.58 7 -10 7 C-10 6.67 -10 6.34 -10 6 C-6.04 6 -2.08 6 2 6 C2 5.01 2 4.02 2 3 C1.34 3 0.68 3 0 3 C0 2.01 0 1.02 0 0 Z " fill="#4182CB" transform="translate(10,161)"/>
<path d="M0 0 C0 4.95 0 9.9 0 15 C-0.66 15 -1.32 15 -2 15 C-2.03738281 14.08476563 -2.07476562 13.16953125 -2.11328125 12.2265625 C-2.17902344 11.03804687 -2.24476563 9.84953125 -2.3125 8.625 C-2.37050781 7.44164063 -2.42851562 6.25828125 -2.48828125 5.0390625 C-2.65714844 4.03617187 -2.82601562 3.03328125 -3 2 C-3.99 1.34 -4.98 0.68 -6 0 C-4 -1 -4 -1 0 0 Z " fill="#5263D3" transform="translate(149,113)"/>
<path d="M0 0 C5.65735164 0.60184592 10.66111682 2.06040573 16 4 C16.99 4.350625 17.98 4.70125 19 5.0625 C21 6 21 6 22 8 C16.34979382 7.39891424 11.33835539 5.92471317 6 4 C6 3.34 6 2.68 6 2 C3.03 1.505 3.03 1.505 0 1 C0 0.67 0 0.34 0 0 Z " fill="#1574E3" transform="translate(45,88)"/>
<path d="M0 0 C1.65 0 3.3 0 5 0 C5.52321212 4.3165 4.28105233 6.70853459 2.0703125 10.25390625 C0.92676574 12.1194734 -0.04430253 14.0326408 -1 16 C-0.88655624 13.8535247 -0.75893655 11.70779408 -0.625 9.5625 C-0.52058594 7.77005859 -0.52058594 7.77005859 -0.4140625 5.94140625 C-0.27742187 4.97074219 -0.14078125 4.00007813 0 3 C0.66 2.67 1.32 2.34 2 2 C1.34 1.34 0.68 0.68 0 0 Z " fill="#819BE8" transform="translate(132,64)"/>
<path d="M0 0 C3.78149076 0 4.964349 0.07742103 8 2 C8.99 3.485 8.99 3.485 10 5 C10.99 5 11.98 5 13 5 C12.67 5.99 12.34 6.98 12 8 C9.8125 8.3125 9.8125 8.3125 7 8 C4.3125 5.5625 4.3125 5.5625 2 3 C1.34 2.67 0.68 2.34 0 2 C0 1.34 0 0.68 0 0 Z " fill="#706AB4" transform="translate(235,40)"/>
<path d="M0 0 C0 4.29 0 8.58 0 13 C-0.99 13 -1.98 13 -3 13 C-3 9.04 -3 5.08 -3 1 C-1 0 -1 0 0 0 Z " fill="#2B5BE3" transform="translate(144,115)"/>
<path d="M0 0 C2.31 0.33 4.62 0.66 7 1 C6.34 1.66 5.68 2.32 5 3 C5 4.32 5 5.64 5 7 C6.32 7.33 7.64 7.66 9 8 C6.23749964 9.38125018 4.05268901 9.19079306 1 9 C0.34 8.34 -0.32 7.68 -1 7 C-0.01 7 0.98 7 2 7 C1.34 4.69 0.68 2.38 0 0 Z " fill="#E8E6F1" transform="translate(163,106)"/>
<path d="M0 0 C0 1.32 0 2.64 0 4 C0.66 4.33 1.32 4.66 2 5 C2 5.99 2 6.98 2 8 C1.34 8 0.68 8 0 8 C0 7.34 0 6.68 0 6 C-1.1446875 5.5978125 -1.1446875 5.5978125 -2.3125 5.1875 C-4.87380884 4.05575888 -6.19692938 3.08776599 -8 1 C-5.29120665 -0.35439668 -2.99066732 -0.06501451 0 0 Z " fill="#736ABB" transform="translate(232,32)"/>
<path d="M0 0 C0.33 0 0.66 0 1 0 C1.0809313 2.60478883 1.14045434 5.20706653 1.1875 7.8125 C1.22520508 8.91948242 1.22520508 8.91948242 1.26367188 10.04882812 C1.33780469 15.50994531 1.33780469 15.50994531 -0.38671875 18.01171875 C-2 19 -2 19 -4 19 C-4 17.35 -4 15.7 -4 14 C-2.68 13.67 -1.36 13.34 0 13 C0 8.71 0 4.42 0 0 Z " fill="#1251DB" transform="translate(131,88)"/>
<path d="M0 0 C0.99 0 1.98 0 3 0 C3.625 2.3125 3.625 2.3125 4 5 C3.01 6.485 3.01 6.485 2 8 C1.01 8 0.02 8 -1 8 C-1.625 5.125 -1.625 5.125 -2 2 C-1.34 1.34 -0.68 0.68 0 0 Z " fill="#2B87BE" transform="translate(130,144)"/>
<path d="M0 0 C-3.08809695 1.76462683 -4.23312136 2 -8 2 C-8 2.66 -8 3.32 -8 4 C-10.16874252 3.49396008 -11.99967627 3.00016187 -14 2 C-14 1.34 -14 0.68 -14 0 C-9.02936879 -0.91297308 -4.97063121 -0.91297308 0 0 Z " fill="#8170CC" transform="translate(228,137)"/>
<path d="M0 0 C2.31 0 4.62 0 7 0 C7 0.66 7 1.32 7 2 C7.66 2.33 8.32 2.66 9 3 C8 4 8 4 5.93359375 4.09765625 C5.10988281 4.08605469 4.28617188 4.07445312 3.4375 4.0625 C2.61121094 4.05347656 1.78492188 4.04445312 0.93359375 4.03515625 C0.29550781 4.02355469 -0.34257812 4.01195312 -1 4 C-0.67 2.68 -0.34 1.36 0 0 Z " fill="#3CA8A1" transform="translate(161,160)"/>
<path d="M0 0 C2.97 0 5.94 0 9 0 C7.8553125 0.86625 7.8553125 0.86625 6.6875 1.75 C4.33799083 3.71703093 2.70676495 5.48476744 1 8 C0.01 6.68 -0.98 5.36 -2 4 C-1.34 2.68 -0.68 1.36 0 0 Z " fill="#1666E8" transform="translate(51,40)"/>
<path d="M0 0 C1.5 1.1875 1.5 1.1875 3 3 C3.1875 5.6875 3.1875 5.6875 3 8 C2.01 8.495 2.01 8.495 1 9 C0.53476937 10.89533342 0.53476937 10.89533342 0.375 13.0625 C0.25125 14.361875 0.1275 15.66125 0 17 C-0.33 17 -0.66 17 -1 17 C-1.02709444 14.91673869 -1.04643873 12.83337559 -1.0625 10.75 C-1.07410156 9.58984375 -1.08570313 8.4296875 -1.09765625 7.234375 C-1.01782092 4.59022872 -0.78643778 2.50173909 0 0 Z " fill="#706EBB" transform="translate(155,111)"/>
<path d="M0 0 C0.99 0 1.98 0 3 0 C3 0.99 3 1.98 3 3 C4.32 3.33 5.64 3.66 7 4 C7 4.66 7 5.32 7 6 C4.03 6.66 1.06 7.32 -2 8 C-2 7.34 -2 6.68 -2 6 C-1.34 6 -0.68 6 0 6 C0 4.02 0 2.04 0 0 Z " fill="#687ABC" transform="translate(253,80)"/>
<path d="M0 0 C0.33 1.32 0.66 2.64 1 4 C1.99 3.67 2.98 3.34 4 3 C3.34 4.98 2.68 6.96 2 9 C0.68 9 -0.64 9 -2 9 C-2 6.69 -2 4.38 -2 2 C-1.34 2 -0.68 2 0 2 C0 1.34 0 0.68 0 0 Z " fill="#6F7CBD" transform="translate(236,64)"/>
<path d="M0 0 C1.43088528 2.86177057 0.59991697 4.93375773 0 8 C0.66 8 1.32 8 2 8 C2 8.66 2 9.32 2 10 C-0.64 9.67 -3.28 9.34 -6 9 C-5.34 8.67 -4.68 8.34 -4 8 C-3.32060826 6.00428677 -2.65438441 4.00405227 -2 2 C-1.34 1.34 -0.68 0.68 0 0 Z " fill="#716CB2" transform="translate(234,56)"/>
<path d="M0 0 C0.33 0 0.66 0 1 0 C1 7.59 1 15.18 1 23 C-0.32 22.67 -1.64 22.34 -3 22 C-2.34 21.34 -1.68 20.68 -1 20 C-0.63047951 17.87139338 -0.63047951 17.87139338 -0.5859375 15.4296875 C-0.54726562 14.53378906 -0.50859375 13.63789062 -0.46875 12.71484375 C-0.4378125 11.77769531 -0.406875 10.84054688 -0.375 9.875 C-0.33632812 8.93011719 -0.29765625 7.98523438 -0.2578125 7.01171875 C-0.16338654 4.67467625 -0.07781606 2.33764499 0 0 Z " fill="#0E96F4" transform="translate(126,84)"/>
<path d="M0 0 C1.98 0 3.96 0 6 0 C5.01 1.485 5.01 1.485 4 3 C3.34 3 2.68 3 2 3 C2 3.66 2 4.32 2 5 C0.68 5.33 -0.64 5.66 -2 6 C-2 6.66 -2 7.32 -2 8 C-2.66 8 -3.32 8 -4 8 C-3.625 6.0625 -3.625 6.0625 -3 4 C-2.34 3.67 -1.68 3.34 -1 3 C-0.67 2.01 -0.34 1.02 0 0 Z " fill="#1563E4" transform="translate(64,32)"/>
<path d="M0 0 C0.66 0.33 1.32 0.66 2 1 C-0.40118527 3.40118527 -2.05496042 3.75220861 -5.3125 4.625 C-6.25738281 4.88539063 -7.20226562 5.14578125 -8.17578125 5.4140625 C-10.87851902 5.97479648 -13.25031848 6.1101876 -16 6 C-14.66666667 5.33333333 -13.33333333 4.66666667 -12 4 C-11.401875 3.649375 -10.80375 3.29875 -10.1875 2.9375 C-7.20122114 1.6576662 -4.20651347 1.42350178 -1 1 C-0.67 0.67 -0.34 0.34 0 0 Z " fill="#1D81D4" transform="translate(100,136)"/>
<path d="M0 0 C0.99 0.33 1.98 0.66 3 1 C3 4.63 3 8.26 3 12 C2.34 12 1.68 12 1 12 C1 9.36 1 6.72 1 4 C0.34 4 -0.32 4 -1 4 C-0.67 2.68 -0.34 1.36 0 0 Z " fill="#1555E3" transform="translate(135,116)"/>
<path d="M0 0 C0.33 1.32 0.66 2.64 1 4 C1.66 4 2.32 4 3 4 C3 4.66 3 5.32 3 6 C0 8 0 8 -2.6875 7.625 C-3.450625 7.41875 -4.21375 7.2125 -5 7 C-4.67 6.34 -4.34 5.68 -4 5 C-3.01 5 -2.02 5 -1 5 C-0.67 3.35 -0.34 1.7 0 0 Z " fill="#1A77D6" transform="translate(113,128)"/>
<path d="M0 0 C0.99 1.32 1.98 2.64 3 4 C-0.75 6 -0.75 6 -3 6 C-3.33 6.66 -3.66 7.32 -4 8 C-4.66 6.68 -5.32 5.36 -6 4 C-5 3 -5 3 -2.4375 2.9375 C-1.2309375 2.9684375 -1.2309375 2.9684375 0 3 C0 2.01 0 1.02 0 0 Z " fill="#E2F3FB" transform="translate(118,102)"/>
<path d="M0 0 C1.485 0.99 1.485 0.99 3 2 C3 2.66 3 3.32 3 4 C3.66 4 4.32 4 5 4 C5.66 5.98 6.32 7.96 7 10 C6.01 10 5.02 10 4 10 C4 8.68 4 7.36 4 6 C2.68 6.33 1.36 6.66 0 7 C0 4.69 0 2.38 0 0 Z " fill="#146CE1" transform="translate(72,74)"/>
<path d="M0 0 C1.65 0 3.3 0 5 0 C5 0.99 5 1.98 5 3 C6.32 3.33 7.64 3.66 9 4 C5.7 4 2.4 4 -1 4 C-0.67 2.68 -0.34 1.36 0 0 Z " fill="#4686DE" transform="translate(135,136)"/>
<path d="M0 0 C0.33 0 0.66 0 1 0 C1.04898438 0.81984375 1.09796875 1.6396875 1.1484375 2.484375 C1.22320312 3.56203125 1.29796875 4.6396875 1.375 5.75 C1.44460937 6.81734375 1.51421875 7.8846875 1.5859375 8.984375 C1.9728223 11.80206432 2.55686166 13.5830366 4 16 C2.68 16 1.36 16 0 16 C0 10.72 0 5.44 0 0 Z " fill="#0778D4" transform="translate(90,88)"/>
<path d="M0 0 C5.28 0 10.56 0 16 0 C12.77208445 2.1519437 11.71599191 2.20086443 8 2 C8 2.66 8 3.32 8 4 C7.01 3.67 6.02 3.34 5 3 C5.33 2.34 5.66 1.68 6 1 C4.02 1 2.04 1 0 1 C0 0.67 0 0.34 0 0 Z " fill="#826CC8" transform="translate(240,128)"/>
<path d="M0 0 C2.64 0.33 5.28 0.66 8 1 C8.33 1.99 8.66 2.98 9 4 C6.03 4 3.06 4 0 4 C0 2.68 0 1.36 0 0 Z " fill="#5E66AA" transform="translate(160,116)"/>
<path d="M0 0 C0.763125 0.825 1.52625 1.65 2.3125 2.5 C4.75434142 5.34055197 4.75434142 5.34055197 8 5 C8 6.98 8 8.96 8 11 C2.19794344 5.35475578 2.19794344 5.35475578 0 2 C0 1.34 0 0.68 0 0 Z " fill="#145BE4" transform="translate(88,26)"/>
<path d="M0 0 C3.72433382 1.2125738 7.37802806 2.50859979 11 4 C10.67 5.32 10.34 6.64 10 8 C10 7.01 10 6.02 10 5 C6.34543185 4.24758891 2.68266103 3.59950296 -1 3 C-0.67 2.01 -0.34 1.02 0 0 Z " fill="#1673E1" transform="translate(70,95)"/>
<path d="M0 0 C0 3.63 0 7.26 0 11 C-0.33 11 -0.66 11 -1 11 C-1.33 8.69 -1.66 6.38 -2 4 C-2.66 4 -3.32 4 -4 4 C-4.33 4.66 -4.66 5.32 -5 6 C-5 3 -5 3 -3.625 1.3125 C-2 0 -2 0 0 0 Z " fill="#6B63A6" transform="translate(211,90)"/>
<path d="M0 0 C3.6875 0.3125 3.6875 0.3125 7 1 C6.67 1.66 6.34 2.32 6 3 C3.03 3 0.06 3 -3 3 C-2.01 2.01 -1.02 1.02 0 0 Z " fill="#637EB8" transform="translate(238,88)"/>
<path d="M0 0 C0.99 0.33 1.98 0.66 3 1 C3 1.66 3 2.32 3 3 C3.66 3 4.32 3 5 3 C5 3.66 5 4.32 5 5 C4.01 5 3.02 5 2 5 C2 4.34 2 3.68 2 3 C0.02 3.66 -1.96 4.32 -4 5 C-2.25 1.125 -2.25 1.125 0 0 Z " fill="#1490ED" transform="translate(83,23)"/>
<path d="M0 0 C1.41750563 0.11509661 2.83401169 0.24253658 4.25 0.375 C5.03890625 0.44460937 5.8278125 0.51421875 6.640625 0.5859375 C9.085877 1.01507113 10.84836903 1.78600638 13 3 C12.67 3.66 12.34 4.32 12 5 C11.67 4.67 11.34 4.34 11 4 C8.67182036 3.63239269 6.3381615 3.29758419 4 3 C4 2.34 4 1.68 4 1 C2.68 0.67 1.36 0.34 0 0 Z " fill="#3B7ACC" transform="translate(96,147)"/>
<path d="M0 0 C0.33 0.99 0.66 1.98 1 3 C-2 5 -2 5 -5 5 C-5 3.68 -5 2.36 -5 1 C-3 0 -3 0 0 0 Z " fill="#2579CB" transform="translate(66,144)"/>
<path d="M0 0 C0.66 1.32 1.32 2.64 2 4 C-1.75 7 -1.75 7 -4 7 C-3.67 5.68 -3.34 4.36 -3 3 C-2.34 3 -1.68 3 -1 3 C-0.67 2.01 -0.34 1.02 0 0 Z " fill="#838FCA" transform="translate(151,133)"/>
<path d="M0 0 C0.99 0.33 1.98 0.66 3 1 C2.67 1.33 2.34 1.66 2 2 C1.76807135 3.51469448 1.58784762 5.03754562 1.4375 6.5625 C1.35371094 7.38878906 1.26992187 8.21507812 1.18359375 9.06640625 C1.12300781 9.70449219 1.06242188 10.34257812 1 11 C0.34 10.67 -0.32 10.34 -1 10 C-1.02689216 8.52093108 -1.04634621 7.04172517 -1.0625 5.5625 C-1.07410156 4.73878906 -1.08570313 3.91507813 -1.09765625 3.06640625 C-1 1 -1 1 0 0 Z " fill="#226ADB" transform="translate(133,128)"/>
<path d="M0 0 C-0.66 1.32 -1.32 2.64 -2 4 C-3.32 4 -4.64 4 -6 4 C-6 6.64 -6 9.28 -6 12 C-6.33 12 -6.66 12 -7 12 C-7 9.03 -7 6.06 -7 3 C-6.01 3 -5.02 3 -4 3 C-4 2.34 -4 1.68 -4 1 C-2 0 -2 0 0 0 Z " fill="#3391DD" transform="translate(82,103)"/>
<path d="M0 0 C2.875 -0.125 2.875 -0.125 6 0 C6.66 0.66 7.32 1.32 8 2 C6.02 2.99 4.04 3.98 2 5 C2 4.34 2 3.68 2 3 C1.34 3 0.68 3 0 3 C0 2.01 0 1.02 0 0 Z " fill="#0F7EDE" transform="translate(90,104)"/>
<path d="M0 0 C0 0.66 0 1.32 0 2 C-1.98 2 -3.96 2 -6 2 C-6 2.66 -6 3.32 -6 4 C-7.32 3.67 -8.64 3.34 -10 3 C-7.29536552 -0.8183075 -4.37912428 -0.24787496 0 0 Z " fill="#6080B8" transform="translate(270,80)"/>
<path d="M0 0 C0 0.66 0 1.32 0 2 C-0.99 2.495 -0.99 2.495 -2 3 C-2 5.31 -2 7.62 -2 10 C-2.99 9.67 -3.98 9.34 -5 9 C-5.36666667 3.5 -5.36666667 3.5 -3.625 1.125 C-2 0 -2 0 0 0 Z " fill="#1683E9" transform="translate(58,42)"/>
<path d="M0 0 C2 1 4 2 6 3 C6 4.65 6 6.3 6 8 C5.34 8 4.68 8 4 8 C0 2.58823529 0 2.58823529 0 0 Z " fill="#185DE6" transform="translate(98,40)"/>
<path d="M0 0 C1.70884005 1.62339805 3.37446717 3.29319053 5 5 C5 5.66 5 6.32 5 7 C4.01 7 3.02 7 2 7 C1.67 7.99 1.34 8.98 1 10 C0.02998318 6.60494113 0 3.52935443 0 0 Z " fill="#158BE9" transform="translate(88,28)"/>
<path d="M0 0 C3.125 0.1875 3.125 0.1875 6 1 C6.33 1.66 6.66 2.32 7 3 C3.7 3 0.4 3 -3 3 C-2.01 2.01 -1.02 1.02 0 0 Z " fill="#2D95B2" transform="translate(126,163)"/>
<path d="M0 0 C0.66 0 1.32 0 2 0 C6 5.41176471 6 5.41176471 6 8 C3 7 3 7 1 5 C0 2 0 2 0 0 Z " fill="#1368E2" transform="translate(64,64)"/>
<path d="M0 0 C0.99 0.33 1.98 0.66 3 1 C1.6875 3.5 1.6875 3.5 0 6 C-0.99 6 -1.98 6 -3 6 C-2.625 3.5625 -2.625 3.5625 -2 1 C-1.34 0.67 -0.68 0.34 0 0 Z " fill="#6C6CC7" transform="translate(187,48)"/>
<path d="M0 0 C0 0.66 0 1.32 0 2 C2.64 2.33 5.28 2.66 8 3 C8 3.33 8 3.66 8 4 C4.04 3.67 0.08 3.34 -4 3 C-4 2.34 -4 1.68 -4 1 C-2 0 -2 0 0 0 Z " fill="#3BA0AD" transform="translate(272,160)"/>
<path d="M0 0 C0.33 0 0.66 0 1 0 C1 1.98 1 3.96 1 6 C-0.98 6.66 -2.96 7.32 -5 8 C-4.67 6.68 -4.34 5.36 -4 4 C-3.01 4 -2.02 4 -1 4 C-0.67 2.68 -0.34 1.36 0 0 Z " fill="#7270BF" transform="translate(209,96)"/>
<path d="M0 0 C1.98 0 3.96 0 6 0 C4.25 4.875 4.25 4.875 2 6 C1.34 4.02 0.68 2.04 0 0 Z " fill="#6E6CC3" transform="translate(178,56)"/>
<path d="M0 0 C1.9451 2.91765 2.45276317 4.62537285 3 8 C2.01 8.33 1.02 8.66 0 9 C-0.87890625 2.84765625 -0.87890625 2.84765625 -1 1 C-0.67 0.67 -0.34 0.34 0 0 Z " fill="#6262B8" transform="translate(152,101)"/>
<path d="M0 0 C1.98 0 3.96 0 6 0 C6 0.66 6 1.32 6 2 C4.02 2.99 2.04 3.98 0 5 C0 3.35 0 1.7 0 0 Z " fill="#195AE9" transform="translate(72,24)"/>
<path d="M0 0 C1.32 0.33 2.64 0.66 4 1 C4 2.32 4 3.64 4 5 C2.68 4.67 1.36 4.34 0 4 C0 2.68 0 1.36 0 0 Z " fill="#267AC2" transform="translate(24,151)"/>
<path d="M0 0 C1.32 0 2.64 0 4 0 C4 0.66 4 1.32 4 2 C6.31 2.33 8.62 2.66 11 3 C6.99799622 4.60080151 3.95443764 3.29279692 0 2 C0 1.34 0 0.68 0 0 Z " fill="#6484B7" transform="translate(192,136)"/>
<path d="M0 0 C1.32 0 2.64 0 4 0 C4.33 1.32 4.66 2.64 5 4 C3.35 4 1.7 4 0 4 C0 2.68 0 1.36 0 0 Z " fill="#7B569D" transform="translate(219,73)"/>
<path d="M0 0 C2.97 0.495 2.97 0.495 6 1 C5.67 1.99 5.34 2.98 5 4 C3.35 4 1.7 4 0 4 C0 2.68 0 1.36 0 0 Z " fill="#6873BD" transform="translate(242,44)"/>
<path d="M0 0 C-0.33 0.99 -0.66 1.98 -1 3 C-2.98 3.33 -4.96 3.66 -7 4 C-7.33 3.34 -7.66 2.68 -8 2 C-2.25 0 -2.25 0 0 0 Z " fill="#6384B5" transform="translate(269,124)"/>
<path d="M0 0 C0.33 0.99 0.66 1.98 1 3 C1.66 3 2.32 3 3 3 C3.66 4.65 4.32 6.3 5 8 C3.02 6.68 1.04 5.36 -1 4 C-0.67 2.68 -0.34 1.36 0 0 Z " fill="#1774DF" transform="translate(107,120)"/>
<path d="M0 0 C-0.33 0.99 -0.66 1.98 -1 3 C-2.98 3 -4.96 3 -7 3 C-7 2.34 -7 1.68 -7 1 C-4.53721199 -0.231394 -2.7204945 -0.07159196 0 0 Z " fill="#F9FCF4" transform="translate(122,107)"/>
<path d="M0 0 C-0.99 1.485 -0.99 1.485 -2 3 C-5.51716303 3 -6.37121748 2.17554415 -9 0 C-3.375 -1.125 -3.375 -1.125 0 0 Z " fill="#8A95D2" transform="translate(153,77)"/>
<path d="M0 0 C1.32 0.99 2.64 1.98 4 3 C3.67 3.99 3.34 4.98 3 6 C1.68 5.67 0.36 5.34 -1 5 C-0.67 3.35 -0.34 1.7 0 0 Z " fill="#1468E5" transform="translate(60,58)"/>
<path d="M0 0 C0.33 1.32 0.66 2.64 1 4 C0.01 4.495 0.01 4.495 -1 5 C-1 5.66 -1 6.32 -1 7 C-1.99 7 -2.98 7 -4 7 C-3.67 5.68 -3.34 4.36 -3 3 C-2.34 3 -1.68 3 -1 3 C-0.67 2.01 -0.34 1.02 0 0 Z " fill="#944DA0" transform="translate(188,51)"/>
</svg>
