<?xml version="1.0" encoding="UTF-8" standalone="no"?>
<svg
   xmlns:dc="http://purl.org/dc/elements/1.1/"
   xmlns:cc="http://creativecommons.org/ns#"
   xmlns:rdf="http://www.w3.org/1999/02/22-rdf-syntax-ns#"
   xmlns:svg="http://www.w3.org/2000/svg"
   xmlns="http://www.w3.org/2000/svg"
   id="svg8"
   version="1.1"
   viewBox="0 0 230.47157 90.05204"
   height="90.05204mm"
   width="230.47157mm">
  <defs
     id="defs2" />
  <metadata
     id="metadata5">
    <rdf:RDF>
      <cc:Work
         rdf:about="">
        <dc:format>image/svg+xml</dc:format>
        <dc:type
           rdf:resource="http://purl.org/dc/dcmitype/StillImage" />
        <dc:title></dc:title>
      </cc:Work>
    </rdf:RDF>
  </metadata>
  <g
     transform="translate(-4.8918803,-79.453836)"
     id="layer1">
    <g
       id="flowRoot10"
       style="font-style:normal;font-variant:normal;font-weight:normal;font-stretch:normal;font-size:40px;line-height:1.25;font-family:modak;-inkscape-font-specification:modak;letter-spacing:0px;word-spacing:0px;fill:#000000;fill-opacity:1;stroke:none"
       transform="matrix(0.46101172,0,0,0.483666,469.95781,-203.26089)"
       aria-label="मैथिली">
      <path
         id="path18"
         style="font-style:normal;font-variant:normal;font-weight:normal;font-stretch:normal;font-size:192px;font-family:'Yatra One';-inkscape-font-specification:'Yatra One'"
         d="m -1007.0588,657.69708 v -18.432 h 136.31996 v 18.432 h -14.4 v 111.168 l -23.808,-10.752 v -33.024 h -39.744 q 0,9.792 -2.688,16.512 -2.496,6.72 -6.336,9.6 -3.648,2.688 -8.064,3.648 -4.416,0.768 -7.68,0.192 -3.264,-0.576 -5.184,-1.92 -12.48,-8.448 -20.352,-17.856 -1.91996,-2.304 -2.49596,-5.952 -0.576,-3.648 0.576,-7.872 1.15196,-4.224 4.03196,-7.872 3.072,-3.84 9.408,-5.952 6.336,-2.304 14.976,-1.92 v -48 z m 58.36796,48.576 39.744,-0.192 v -48.384 h -39.744 z m -24,18.048 q -5.952,-0.768 -9.6,1.344 -3.648,2.112 -3.84,4.992 0,2.88 1.536,5.376 1.728,1.344 4.416,1.92 2.688,0.384 4.992,-3.264 2.496,-3.648 2.496,-10.368 z" />
      <path
         id="path20"
         style="font-style:normal;font-variant:normal;font-weight:normal;font-stretch:normal;font-size:192px;font-family:'Yatra One';-inkscape-font-specification:'Yatra One'"
         d="m -892.33884,640.22508 -14.016,0.192 q -14.592,-15.36 -23.616,-17.28 -9.216,-2.112 -22.656,6.336 l -10.944,-11.52 q 19.776,-9.408 29.376,-7.296 2.112,0.384 4.608,1.728 2.304,1.152 5.184,3.264 2.688,1.92 4.8,3.648 2.112,1.728 5.376,4.8 3.072,3.072 4.8,4.608 1.536,1.536 4.992,5.184 3.264,3.456 4.032,4.224 -4.608,-9.6 -15.936,-22.464 -11.328,-13.056 -18.048,-14.4 -12.48,-2.496 -33.984,7.488 l -12.672,-13.248 q 38.4,-14.4 50.688,-6.528 2.688,1.728 4.992,3.648 2.304,1.728 4.8,4.416 2.304,2.496 4.032,4.224 1.728,1.728 4.224,5.376 2.304,3.456 3.648,5.184 1.152,1.728 3.84,6.528 2.688,4.608 3.84,6.528 0.96,1.728 4.224,7.488 3.264,5.76 4.416,7.872 z" />
      <path
         id="path22"
         style="font-style:normal;font-variant:normal;font-weight:normal;font-stretch:normal;font-size:192px;font-family:'Yatra One';-inkscape-font-specification:'Yatra One'"
         d="m -874.29084,657.69708 v -18.432 h 13.056 q -5.184,-5.568 -7.68,-12.288 -2.304,-6.72 -0.576,-11.904 2.304,-5.952 15.36,-14.208 13.056,-8.256 18.816,-7.872 7.104,0.384 57.216,22.464 50.304,21.888 57.792,27.456 l -12.288,-0.192 q -84.672,-33.408 -104.064,-27.456 -12.288,3.84 -2.88,24 h 18.432 v 18.432 h -14.784 v 111.36 l -23.808,-10.752 v -100.608 z" />
      <path
         id="path24"
         style="font-style:normal;font-variant:normal;font-weight:normal;font-stretch:normal;font-size:192px;font-family:'Yatra One';-inkscape-font-specification:'Yatra One'"
         d="m -747.48684,657.69708 -7.488,-18.432 h 62.784 v 18.432 h -13.632 v 110.976 l -23.808,-10.752 v -27.264 q -13.632,13.632 -31.296,13.632 -6.912,0 -16.704,-5.76 -9.792,-5.76 -17.856,-13.056 -8.064,-7.488 -14.208,-14.016 -5.952,-6.72 -6.528,-8.64 -0.384,-0.96 5.376,-3.84 5.76,-3.072 13.44,-7.104 7.68,-4.032 10.752,-6.528 -12.096,-3.648 -20.928,-10.56 -8.64,-6.912 -8.64,-14.784 0,-5.76 4.032,-10.944 4.032,-5.184 9.6,-7.68 5.76,-2.688 11.904,-3.648 6.144,-0.96 10.368,1.92 9.408,5.76 18.048,14.976 8.64,9.024 10.56,14.208 1.92,5.376 -0.576,11.136 -2.496,5.76 -9.216,11.712 -6.72,5.76 -12.096,9.792 -5.376,3.84 -14.208,9.408 -4.416,2.88 -6.528,4.224 10.368,9.792 23.04,10.368 12.864,0.576 23.808,-6.336 11.136,-7.104 17.856,-19.2 v -42.24 z m -33.6,22.08 q 2.112,0 6.72,-4.608 4.8,-4.608 5.184,-6.528 1.344,-8.832 -4.032,-14.592 -5.376,-5.76 -13.44,-1.536 -7.104,3.648 -9.216,8.64 -2.112,4.992 -0.192,9.024 2.112,4.032 6.144,6.912 4.224,2.688 8.832,2.688 z" />
      <path
         id="path26"
         style="font-style:normal;font-variant:normal;font-weight:normal;font-stretch:normal;font-size:192px;font-family:'Yatra One';-inkscape-font-specification:'Yatra One'"
         d="m -593.47284,757.92108 v -59.136 q -8.448,5.184 -17.856,14.976 -9.216,9.6 -14.592,19.008 l -15.936,-13.056 q 0.768,-4.992 7.872,-13.44 -19.584,-13.056 -29.952,-2.88 -8.064,8.832 -0.192,27.456 8.064,18.624 24.384,31.68 l -5.184,6.528 q -15.36,-13.44 -30.336,-32.064 -14.976,-18.816 -16.128,-27.456 -0.768,-5.952 6.336,-14.016 7.104,-8.256 16.32,-13.44 9.216,-5.184 14.4,-3.456 8.832,3.072 26.304,21.504 7.872,-7.488 17.28,-13.056 9.408,-5.568 17.28,-6.72 v -22.656 h -102.72 v -18.432 h 141.504 v 18.432 h -14.976 v 110.976 z" />
      <path
         id="path28"
         style="font-style:normal;font-variant:normal;font-weight:normal;font-stretch:normal;font-size:192px;font-family:'Yatra One';-inkscape-font-specification:'Yatra One'"
         d="m -583.56384,642.14508 -14.976,-0.192 q -7.68,-6.912 -12.48,-14.784 -4.992,-8.064 -1.728,-13.44 5.184,-8.448 14.784,-14.976 9.408,-6.528 19.584,-6.528 2.88,0 6.528,2.496 3.456,2.496 7.872,7.68 4.416,4.992 8.448,10.176 3.84,4.992 9.792,13.056 6.144,8.064 10.56,13.632 h 24.576 v 18.432 h -14.784 v 110.976 l -23.808,-10.752 v -100.224 h -14.592 v -18.432 h 18.432 l -13.248,-15.36 q -6.528,-7.296 -12.672,-10.752 -6.144,-3.456 -10.56,-3.072 -4.416,0.192 -7.68,2.304 -3.456,1.92 -4.992,4.992 -1.728,2.88 -1.344,5.376 0.576,7.104 12.288,19.392 z" />
    </g>
  </g>
</svg>
