<?xml version="1.0" encoding="UTF-8"?>
<svg version="1.1" xmlns="http://www.w3.org/2000/svg" width="389" height="129">
<path d="M0 0 C128.37 0 256.74 0 389 0 C389 42.57 389 85.14 389 129 C260.63 129 132.26 129 0 129 C0 86.43 0 43.86 0 0 Z " fill="#FEFEFE" transform="translate(0,0)"/>
<path d="M0 0 C2.64 0 5.28 0 8 0 C8.33 4.95 8.66 9.9 9 15 C10.32 13.35 11.64 11.7 13 10 C19.67328021 5.18239129 25.9445569 4.31084612 34 5 C34 5.33 34 5.66 34 6 C29.71 6.66 25.42 7.32 21 8 C22.32 8 23.64 8 25 8 C26.32 13.61 27.64 19.22 29 25 C31.475 19.555 31.475 19.555 34 14 C36.475 14.99 36.475 14.99 39 16 C37.5140084 20.59306496 35.14985318 23.43569245 32 27 C32.99 27 33.98 27 35 27 C35 27.99 35 28.98 35 30 C34.01 30.33 33.02 30.66 32 31 C35.63 33.64 39.26 36.28 43 39 C45.6855594 36.3144406 46.06049974 33.62378672 47 30 C45.68 30 44.36 30 43 30 C42.67 30.66 42.34 31.32 42 32 C42 31.34 42 30.68 42 30 C40.35 30 38.7 30 37 30 C36.505 31.485 36.505 31.485 36 33 C36 30.69 36 28.38 36 26 C36.66 26.66 37.32 27.32 38 28 C40.06874034 28.6425235 40.06874034 28.6425235 42 29 C42.33 28.34 42.66 27.68 43 27 C43 27.66 43 28.32 43 29 C44.32 29 45.64 29 47 29 C47.33 27.68 47.66 26.36 48 25 C48 26.32 48 27.64 48 29 C49.32 29 50.64 29 52 29 C51.68817931 27.58318366 51.37551263 26.16655349 51.0625 24.75 C50.88847656 23.96109375 50.71445312 23.1721875 50.53515625 22.359375 C50.03828405 20.01375001 50.03828405 20.01375001 49.30859375 17.828125 C49.15583984 16.92320313 49.15583984 16.92320313 49 16 C49.66 15.34 50.32 14.68 51 14 C51.99 14 52.98 14 54 14 C53.979375 12.865625 53.95875 11.73125 53.9375 10.5625 C54 7 54 7 55 6 C57.33297433 5.95907063 59.66705225 5.95758277 62 6 C62 8.64 62 11.28 62 14 C64.64 14 67.28 14 70 14 C69.67 16.31 69.34 18.62 69 21 C66.36 21 63.72 21 61 21 C61 26.94 61 32.88 61 39 C63.31 39 65.62 39 68 39 C67.67 41.31 67.34 43.62 67 46 C57.00437637 46.63019694 57.00437637 46.63019694 52.8125 44 C52.214375 43.34 51.61625 42.68 51 42 C50.360625 42.886875 49.72125 43.77375 49.0625 44.6875 C45.0334976 49.54532576 39.18413307 52.78548088 33 54 C25.46960613 54.64917189 19.02196012 53.04283125 12.9140625 48.421875 C8.93649435 44.69605167 6.77936826 41.12876735 5 36 C5.01160156 36.63808594 5.02320313 37.27617188 5.03515625 37.93359375 C5.04417969 38.75988281 5.05320313 39.58617187 5.0625 40.4375 C5.07410156 41.26121094 5.08570313 42.08492187 5.09765625 42.93359375 C5 45 5 45 4 46 C1.66702567 46.04092937 -0.66705225 46.04241723 -3 46 C-3.15109478 37.35625929 -2.68225293 28.80690069 -2.0625 20.1875 C-1.97548828 18.90423828 -1.88847656 17.62097656 -1.79882812 16.29882812 C-1.41305213 10.80366345 -0.97707227 5.42630458 0 0 Z " fill="#ECF0F2" transform="translate(207,32)"/>
<path d="M0 0 C2.64 0 5.28 0 8 0 C8 5.28 8 10.56 8 16 C9.65 15.01 11.3 14.02 13 13 C17.31807946 12.45042625 19.44328894 12.7058885 23.3125 14.75 C26.54976678 17.46026986 27.79161837 19.28152814 28.30078125 23.48046875 C28.33028413 30.29563366 28.10004154 37.07328072 23.7109375 42.6328125 C20.13620983 45.97814588 16.81500863 47 12 47 C6.9375 44.9375 6.9375 44.9375 5 43 C4.34 43.99 3.68 44.98 3 46 C-0.125 46.1875 -0.125 46.1875 -3 46 C-3.13741321 37.16280354 -2.72542086 28.43573544 -2.0625 19.625 C-1.97548828 18.39394531 -1.88847656 17.16289063 -1.79882812 15.89453125 C-1.40696619 10.53618218 -0.94726436 5.29298214 0 0 Z " fill="#0F4C74" transform="translate(318,32)"/>
<path d="M0 0 C3.65893282 1.79494818 5.51061517 3.04347511 7.375 6.6875 C8.78688429 14.17048675 8.506361 21.10726754 5 28 C2.36437812 31.14988957 0.61134696 32.76407069 -3.5078125 33.3671875 C-7.91532533 33.48283652 -10.25292075 33.49805283 -14 31 C-14.04898438 31.84304687 -14.09796875 32.68609375 -14.1484375 33.5546875 C-14.22320312 34.65039062 -14.29796875 35.74609375 -14.375 36.875 C-14.44460937 37.96554688 -14.51421875 39.05609375 -14.5859375 40.1796875 C-15 43 -15 43 -17 45 C-20.625 45.125 -20.625 45.125 -24 45 C-24.22918793 35.13324756 -23.5243473 25.48296426 -22.5 15.6875 C-22.35487703 14.25331496 -22.21034261 12.81907024 -22.06640625 11.38476562 C-21.71769161 7.92246542 -21.36111768 4.46103126 -21 1 C-18.69 1 -16.38 1 -14 1 C-13.67 1.99 -13.34 2.98 -13 4 C-12.154375 3.34 -11.30875 2.68 -10.4375 2 C-6.44287215 -0.32414711 -4.54547679 -0.64935383 0 0 Z " fill="#0D4B73" transform="translate(190,45)"/>
<path d="M0 0 C2 1.5625 2 1.5625 3 3 C3.5775 2.71125 4.155 2.4225 4.75 2.125 C5.86375 1.568125 5.86375 1.568125 7 1 C7.61875 0.62875 8.2375 0.2575 8.875 -0.125 C11.77340108 -1.31845927 13.88802048 -1.31754893 17 -1 C20.79381199 0.72445999 22.47481822 2.15626833 24 6 C24.81592815 14.15928154 23.92631736 22.88042805 23 31 C22.67 31.33 22.34 31.66 22 32 C19.36 32 16.72 32 14 32 C14 24.08 14 16.16 14 8 C8.4683694 7.44864044 8.4683694 7.44864044 6.16845703 9.21044922 C4.7151093 11.43632445 4.50482153 12.9871765 4.3046875 15.6328125 C4.22863281 16.52097656 4.15257813 17.40914062 4.07421875 18.32421875 C4.00847656 19.24847656 3.94273438 20.17273438 3.875 21.125 C3.73023492 22.96123072 3.58198794 24.79719141 3.4296875 26.6328125 C3.37022949 27.44637207 3.31077148 28.25993164 3.24951172 29.09814453 C3 31 3 31 2 32 C-0.33297433 32.04092937 -2.66705225 32.04241723 -5 32 C-4.99476318 31.30849854 -4.98952637 30.61699707 -4.98413086 29.90454102 C-4.963425 26.79053648 -4.95036037 23.67654639 -4.9375 20.5625 C-4.92912109 19.47388672 -4.92074219 18.38527344 -4.91210938 17.26367188 C-4.90888672 16.22919922 -4.90566406 15.19472656 -4.90234375 14.12890625 C-4.89710693 13.17056885 -4.89187012 12.21223145 -4.88647461 11.22485352 C-4.7494687 9.02714661 -4.7494687 9.02714661 -6 8 C-11.02499694 8.28469203 -11.02499694 8.28469203 -15 11 C-15.35319747 13.11277201 -15.35319747 13.11277201 -15.37890625 15.53515625 C-15.41306641 16.42654297 -15.44722656 17.31792969 -15.48242188 18.23632812 C-15.50884766 19.16896484 -15.53527344 20.10160156 -15.5625 21.0625 C-15.62218611 22.90768982 -15.68577463 24.75275897 -15.75390625 26.59765625 C-15.77783447 27.41758057 -15.8017627 28.23750488 -15.82641602 29.08227539 C-16 31 -16 31 -17 32 C-19.67058851 32.14115161 -22.32432238 32.04247107 -25 32 C-24.55037238 23.47620836 -24.09737124 14.95241067 -23.5 6.4375 C-23.4278125 5.40496094 -23.355625 4.37242188 -23.28125 3.30859375 C-23 1 -23 1 -22 0 C-20.00041636 -0.04080783 -17.99954746 -0.04254356 -16 0 C-15.67 0.99 -15.34 1.98 -15 3 C-14.01 2.319375 -13.02 1.63875 -12 0.9375 C-7.60775602 -1.5800057 -4.85633137 -1.21408284 0 0 Z " fill="#104C74" transform="translate(79,46)"/>
<path d="M0 0 C3 1.625 3 1.625 4 3.625 C4.09500389 4.96742291 4.1307281 6.31437742 4.1328125 7.66015625 C4.13474609 8.87541992 4.13474609 8.87541992 4.13671875 10.11523438 C4.13285156 10.96408203 4.12898438 11.81292969 4.125 12.6875 C4.13080078 13.92016602 4.13080078 13.92016602 4.13671875 15.17773438 C4.12797641 20.73348837 3.69936415 26.11334446 3 31.625 C0.69 31.625 -1.62 31.625 -4 31.625 C-4.33 30.965 -4.66 30.305 -5 29.625 C-5.99 30.285 -6.98 30.945 -8 31.625 C-12.78663517 32.25347424 -17.37604098 32.49362924 -21.6875 30.1875 C-23.66475883 26.32713753 -24.02543778 22.85493085 -23 18.625 C-20.84662959 15.83480969 -18.1462234 14.1981117 -15 12.625 C-13.12620395 12.55466231 -11.24998898 12.5406978 -9.375 12.5625 C-7.87066406 12.57603516 -7.87066406 12.57603516 -6.3359375 12.58984375 C-5.56507812 12.60144531 -4.79421875 12.61304688 -4 12.625 C-4.33 10.645 -4.66 8.665 -5 6.625 C-12.56407533 6.41910279 -12.56407533 6.41910279 -20 7.625 C-20.25 5.3125 -20.25 5.3125 -20 2.625 C-14.6403028 -2.54988005 -6.65811481 -2.72377424 0 0 Z " fill="#0F4B73" transform="translate(132,46.375)"/>
<path d="M0 0 C0 0.33 0 0.66 0 1 C-4.29 1.66 -8.58 2.32 -13 3 C-11.68 3 -10.36 3 -9 3 C-7.68 8.61 -6.36 14.22 -5 20 C-3.35 16.37 -1.7 12.74 0 9 C1.65 9.66 3.3 10.32 5 11 C3.5140084 15.59306496 1.14985318 18.43569245 -2 22 C-1.01 22 -0.02 22 1 22 C1 22.99 1 23.98 1 25 C0.01 25.33 -0.98 25.66 -2 26 C-1.15695313 26.61488281 -0.31390625 27.22976562 0.5546875 27.86328125 C1.66164811 28.67943017 2.76840851 29.49585067 3.875 30.3125 C4.43058594 30.71662109 4.98617187 31.12074219 5.55859375 31.53710938 C8.2804066 33.55387431 10.10034104 35.15051156 12 38 C10.68 38.99 9.36 39.98 8 41 C6.72719706 39.58510266 5.4568417 38.16800334 4.1875 36.75 C3.47980469 35.96109375 2.77210938 35.1721875 2.04296875 34.359375 C0.27201576 32.3141444 -1.37675406 30.16432791 -3 28 C-2.67 31.3 -2.34 34.6 -2 38 C-3.98 38 -5.96 38 -8 38 C-7.85831863 36.56208484 -7.71148957 35.1246763 -7.5625 33.6875 C-7.48128906 32.88699219 -7.40007812 32.08648437 -7.31640625 31.26171875 C-7 29 -7 29 -6 26 C-6.928125 26.66 -7.85625 27.32 -8.8125 28 C-12 30 -12 30 -15 30 C-15 29 -15 28 -15 27 C-17.97 27.33 -20.94 27.66 -24 28 C-24.25 19.375 -24.25 19.375 -22 16 C-17.52761347 17.41807378 -13.28853694 19.11304374 -9 21 C-9.63808594 20.24074219 -10.27617187 19.48148438 -10.93359375 18.69921875 C-11.75988281 17.70535156 -12.58617187 16.71148437 -13.4375 15.6875 C-14.26121094 14.70136719 -15.08492187 13.71523438 -15.93359375 12.69921875 C-18 10 -18 10 -19 7 C-18.34 6.34 -17.68 5.68 -17 5 C-17.66 4.67 -18.32 4.34 -19 4 C-12.45783241 0.05001202 -7.57771707 -0.50146657 0 0 Z " fill="#8F9D8F" transform="translate(241,37)"/>
<path d="M0 0 C1.134375 0.020625 2.26875 0.04125 3.4375 0.0625 C3.4375 2.7025 3.4375 5.3425 3.4375 8.0625 C5.7475 8.0625 8.0575 8.0625 10.4375 8.0625 C11.5625 12.8125 11.5625 12.8125 10.4375 15.0625 C7.7975 15.0625 5.1575 15.0625 2.4375 15.0625 C2.4375 21.0025 2.4375 26.9425 2.4375 33.0625 C4.7475 33.0625 7.0575 33.0625 9.4375 33.0625 C9.5625 35.4375 9.5625 35.4375 9.4375 38.0625 C7.4375 40.0625 7.4375 40.0625 5.16015625 40.328125 C4.28230469 40.32296875 3.40445313 40.3178125 2.5 40.3125 C1.62472656 40.31765625 0.74945313 40.3228125 -0.15234375 40.328125 C-2.5625 40.0625 -2.5625 40.0625 -5.5625 38.0625 C-7.95116434 30.89650697 -6.69605962 22.43063755 -5.5625 15.0625 C-6.8825 15.0625 -8.2025 15.0625 -9.5625 15.0625 C-9.5625 12.7525 -9.5625 10.4425 -9.5625 8.0625 C-7.9125 8.0625 -6.2625 8.0625 -4.5625 8.0625 C-4.583125 6.928125 -4.60375 5.79375 -4.625 4.625 C-4.54525862 0.07974138 -4.54525862 0.07974138 0 0 Z " fill="#114D74" transform="translate(151.5625,37.9375)"/>
<path d="M0 0 C1.134375 0.020625 2.26875 0.04125 3.4375 0.0625 C3.4375 2.7025 3.4375 5.3425 3.4375 8.0625 C6.0775 8.0625 8.7175 8.0625 11.4375 8.0625 C11.1075 10.3725 10.7775 12.6825 10.4375 15.0625 C7.7975 15.0625 5.1575 15.0625 2.4375 15.0625 C2.4375 21.0025 2.4375 26.9425 2.4375 33.0625 C4.7475 33.0625 7.0575 33.0625 9.4375 33.0625 C9.1075 35.3725 8.7775 37.6825 8.4375 40.0625 C6.66742286 40.14364106 4.89627902 40.20175505 3.125 40.25 C2.13886719 40.28480469 1.15273438 40.31960937 0.13671875 40.35546875 C-2.5625 40.0625 -2.5625 40.0625 -4.48046875 38.92578125 C-6.11472923 36.1115493 -5.23373477 34.19492895 -4.5625 31.0625 C-4.42374793 28.56496275 -4.34300247 26.06370252 -4.3125 23.5625 C-4.28671875 22.2940625 -4.2609375 21.025625 -4.234375 19.71875 C-4.58546372 15.80661855 -5.66476734 13.45844266 -7.5625 10.0625 C-7.5625 9.4025 -7.5625 8.7425 -7.5625 8.0625 C-6.5725 8.0625 -5.5825 8.0625 -4.5625 8.0625 C-4.583125 6.928125 -4.60375 5.79375 -4.625 4.625 C-4.54525862 0.07974138 -4.54525862 0.07974138 0 0 Z " fill="#0F4C73" transform="translate(265.5625,37.9375)"/>
<path d="M0 0 C2.05078125 0.03255208 4.1015625 0.06510417 6.15234375 0.09765625 C6.09699463 0.80672119 6.04164551 1.51578613 5.98461914 2.24633789 C5.72716776 5.55087778 5.47085221 8.85550426 5.21484375 12.16015625 C5.12275635 13.34633545 5.03066895 14.53251465 4.93579102 15.75463867 C4.35846482 23.2476066 3.82943766 30.73926635 3.3984375 38.2421875 C3.16700142 40.92758074 2.74014841 43.4695379 2.15234375 46.09765625 C-0.48765625 46.09765625 -3.12765625 46.09765625 -5.84765625 46.09765625 C-6.09743617 37.26727234 -5.42074564 28.57937576 -4.62084961 19.79638672 C-4.40746313 17.44295392 -4.20428114 15.08878168 -4.00195312 12.734375 C-3.86908906 11.23822789 -3.73564755 9.74213193 -3.6015625 8.24609375 C-3.54110245 7.54205414 -3.4806424 6.83801453 -3.41835022 6.11264038 C-2.86404453 0.15137656 -2.86404453 0.15137656 0 0 Z " fill="#145076" transform="translate(286.84765625,31.90234375)"/>
<path d="M0 0 C2.64 0 5.28 0 8 0 C8.2625842 6.98765738 8.47795941 14.60185064 4.94140625 20.87890625 C3.69124792 23.69565303 3.77066158 25.99308172 3.8125 29.0625 C3.81894531 30.10535156 3.82539063 31.14820313 3.83203125 32.22265625 C3.88517035 35.08614608 3.88517035 35.08614608 5 38 C5.125 41.625 5.125 41.625 5 45 C4 46 4 46 0.4375 46.0625 C-0.696875 46.041875 -1.83125 46.02125 -3 46 C-3.15109478 37.35625929 -2.68225293 28.80690069 -2.0625 20.1875 C-1.97548828 18.90423828 -1.88847656 17.62097656 -1.79882812 16.29882812 C-1.41305213 10.80366345 -0.97707227 5.42630458 0 0 Z " fill="#0D4A72" transform="translate(207,32)"/>
<path d="M0 0 C3.55021052 3.22746411 4.89687796 5.64273202 5.265625 10.49609375 C5.26046875 11.79675781 5.2553125 13.09742188 5.25 14.4375 C5.25773437 16.38462891 5.25773437 16.38462891 5.265625 18.37109375 C5.01777896 21.75710799 4.56812527 24.01442342 3 27 C1.1875 28 1.1875 28 -1 29 C-1.763125 29.78375 -2.52625 30.5675 -3.3125 31.375 C-8.49178944 36.43384085 -13.85289454 38.96465765 -21.0625 39.1875 C-25 39 -25 39 -28 37 C-25.69 37 -23.38 37 -21 37 C-21 35.68 -21 34.36 -21 33 C-19.35 33 -17.7 33 -16 33 C-16 32.34 -16 31.68 -16 31 C-9.375 29 -9.375 29 -6 29 C-6 28.01 -6 27.02 -6 26 C-5.53680619 24.09483976 -5.03276807 22.19938691 -4.5 20.3125 C-4.2215625 19.31863281 -3.943125 18.32476562 -3.65625 17.30078125 C-3.4396875 16.54152344 -3.223125 15.78226563 -3 15 C-4.32 15 -5.64 15 -7 15 C-7.33 15.66 -7.66 16.32 -8 17 C-8 16.34 -8 15.68 -8 15 C-9.65 15 -11.3 15 -13 15 C-13.33 15.99 -13.66 16.98 -14 18 C-14 15.69 -14 13.38 -14 11 C-13.34 11.66 -12.68 12.32 -12 13 C-9.93125966 13.6425235 -9.93125966 13.6425235 -8 14 C-7.67 13.34 -7.34 12.68 -7 12 C-7 12.66 -7 13.32 -7 14 C-5.68 14 -4.36 14 -3 14 C-2.67 12.68 -2.34 11.36 -2 10 C-2 11.32 -2 12.64 -2 14 C-0.68 14 0.64 14 2 14 C1.68817931 12.58318366 1.37551263 11.16655349 1.0625 9.75 C0.88847656 8.96109375 0.71445312 8.1721875 0.53515625 7.359375 C0.18573446 5.81885848 -0.20091571 4.28618767 -0.62890625 2.765625 C-0.75136719 2.18296875 -0.87382812 1.6003125 -1 1 C-0.67 0.67 -0.34 0.34 0 0 Z " fill="#F3F5F7" transform="translate(257,47)"/>
<path d="M0 0 C-1.32 0.33 -2.64 0.66 -4 1 C-4 1.66 -4 2.32 -4 3 C-2.88625 2.34 -1.7725 1.68 -0.625 1 C2.75 -1 2.75 -1 5 -1 C4.34 2.96 3.68 6.92 3 11 C4.98 11 6.96 11 9 11 C8.649375 9.741875 8.29875 8.48375 7.9375 7.1875 C7.06390515 4.05283612 6.92760703 3.21717892 8 0 C12.455 5.445 12.455 5.445 17 11 C13.36784385 14.63215615 11.18565388 15.15803129 6.25 15.25 C1.43254836 15.22174515 -1.75465701 14.21496156 -6 12 C-6 11.01 -6 10.02 -6 9 C-6.61875 8.79375 -7.2375 8.5875 -7.875 8.375 C-10.84653645 6.45224112 -11.13024659 4.33405473 -12 1 C-3.96428571 -1.27678571 -3.96428571 -1.27678571 0 0 Z " fill="#FBFBFB" transform="translate(230,64)"/>
<path d="M0 0 C1.134375 0.020625 2.26875 0.04125 3.4375 0.0625 C3.83139482 10.82895841 2.62010948 21.37677866 1.4375 32.0625 C-1.2025 32.0625 -3.8425 32.0625 -6.5625 32.0625 C-6.42173111 28.58310949 -6.27394333 25.10404941 -6.125 21.625 C-6.08568359 20.65111328 -6.04636719 19.67722656 -6.00585938 18.67382812 C-5.19791865 0.09119156 -5.19791865 0.09119156 0 0 Z " fill="#0B4971" transform="translate(304.5625,45.9375)"/>
<path d="M0 0 C2.25 0.9375 2.25 0.9375 4.25 2.9375 C5.04706248 8.69291217 4.80162288 14.16117958 1.25 18.9375 C-1.125 20.0625 -1.125 20.0625 -3.75 19.9375 C-6.5625 18.6875 -6.5625 18.6875 -8.75 15.9375 C-9.65801632 11.52616696 -10.05785617 7.00321984 -7.5703125 3.07421875 C-5.12725823 0.82736832 -3.31879405 -0.07542714 0 0 Z " fill="#F5F7F8" transform="translate(332.75,52.0625)"/>
<path d="M0 0 C2.25 1 2.25 1 4.25 4 C4.86748872 8.84910262 4.7286695 13.69494244 2.25 18 C-0.75 20 -0.75 20 -3.25 19.8125 C-6.02742784 18.90983595 -6.9816203 18.28937542 -8.75 16 C-9.6083841 11.70142534 -9.97591093 6.95328474 -7.578125 3.1328125 C-5.1419442 0.91011146 -3.29587565 0 0 0 Z " fill="#F5F7F9" transform="translate(184.75,52)"/>
<path d="M0 0 C1.3984375 1.36328125 1.3984375 1.36328125 3.2734375 3.61328125 C2.9434375 4.27328125 2.6134375 4.93328125 2.2734375 5.61328125 C1.6753125 5.26265625 1.0771875 4.91203125 0.4609375 4.55078125 C-1.83469464 3.28023427 -1.83469464 3.28023427 -4.7265625 4.61328125 C-7.42578125 3.8359375 -7.42578125 3.8359375 -10.4140625 2.67578125 C-11.40792969 2.29550781 -12.40179688 1.91523437 -13.42578125 1.5234375 C-14.18503906 1.22308594 -14.94429687 0.92273437 -15.7265625 0.61328125 C-15.7265625 2.26328125 -15.7265625 3.91328125 -15.7265625 5.61328125 C-14.7365625 5.61328125 -13.7465625 5.61328125 -12.7265625 5.61328125 C-13.39827056 9.41962695 -14.45402814 12.96534941 -15.7265625 16.61328125 C-18.35643062 13.98341313 -18.5478345 11.850998 -19.3515625 8.23828125 C-19.61195313 7.09617187 -19.87234375 5.9540625 -20.140625 4.77734375 C-20.7265625 1.61328125 -20.7265625 1.61328125 -20.7265625 -2.38671875 C-22.3765625 -2.05671875 -24.0265625 -1.72671875 -25.7265625 -1.38671875 C-25.3965625 -2.04671875 -25.0665625 -2.70671875 -24.7265625 -3.38671875 C-15.65087963 -6.09710368 -7.58654074 -6.09326236 0 0 Z " fill="#E3E8EC" transform="translate(252.7265625,42.38671875)"/>
<path d="M0 0 C0 0.33 0 0.66 0 1 C-4.29 1.66 -8.58 2.32 -13 3 C-11.68 3 -10.36 3 -9 3 C-8.49161436 5.03959477 -7.99366114 7.08179138 -7.5 9.125 C-7.2215625 10.26195312 -6.943125 11.39890625 -6.65625 12.5703125 C-6.03546235 15.81466698 -5.87993232 18.70814457 -6 22 C-9.88370202 20.70543266 -11.07090926 18.79473476 -13.625 15.625 C-14.42164063 14.64789063 -15.21828125 13.67078125 -16.0390625 12.6640625 C-18 10 -18 10 -19 7 C-18.34 6.34 -17.68 5.68 -17 5 C-17.66 4.67 -18.32 4.34 -19 4 C-12.45783241 0.05001202 -7.57771707 -0.50146657 0 0 Z " fill="#E89962" transform="translate(241,37)"/>
<path d="M0 0 C0 3 0 3 -2.0625 5.4375 C-8.97893337 11.47098443 -14.95854806 13.43054533 -24 13 C-24.99 12.34 -25.98 11.68 -27 11 C-24.69 11 -22.38 11 -20 11 C-20 9.68 -20 8.36 -20 7 C-18.35 7 -16.7 7 -15 7 C-15 6.34 -15 5.68 -15 5 C-8.375 3 -8.375 3 -5 3 C-3.30280873 2.05273046 -1.63064764 1.05771739 0 0 Z " fill="#CFD9E1" transform="translate(256,73)"/>
<path d="M0 0 C4.23429756 1.31061591 8.07407404 2.94356259 12 5 C12 5.66 12 6.32 12 7 C12.66 7.33 13.32 7.66 14 8 C8.62819824 10.62875405 3.95507399 11.6083965 -2 12 C-2.05422947 10.5629191 -2.09289723 9.12524538 -2.125 7.6875 C-2.14820313 6.88699219 -2.17140625 6.08648437 -2.1953125 5.26171875 C-2 3 -2 3 0 0 Z " fill="#EFCD5D" transform="translate(219,53)"/>
<path d="M0 0 C1.11375 0.474375 2.2275 0.94875 3.375 1.4375 C8.17683359 3.26185255 12.90272966 3.69708844 18 4 C18 4.33 18 4.66 18 5 C16.35 5 14.7 5 13 5 C13 6.32 13 7.64 13 9 C2.44191344 9.55353075 2.44191344 9.55353075 -2 6 C-1.125 1.125 -1.125 1.125 0 0 Z " fill="#EBEEF1" transform="translate(223,75)"/>
<path d="M0 0 C1.8871875 0.061875 1.8871875 0.061875 3.8125 0.125 C4.125 2.375 4.125 2.375 3.8125 5.125 C1.6875 7.5 1.6875 7.5 -1.1875 9.125 C-4.5 8.875 -4.5 8.875 -7.1875 8.125 C-7.375 5.25 -7.375 5.25 -7.1875 2.125 C-4.09861478 0.06574319 -3.47814073 -0.1140374 0 0 Z " fill="#EEF1F4" transform="translate(124.1875,63.875)"/>
<path d="M0 0 C3.4375 0.1875 3.4375 0.1875 4.4375 1.1875 C4.625 3.625 4.625 3.625 4.4375 6.1875 C2.4375 8.1875 2.4375 8.1875 -1.125 8.375 C-4.5625 8.1875 -4.5625 8.1875 -5.5625 7.1875 C-5.75 4.75 -5.75 4.75 -5.5625 2.1875 C-3.5625 0.1875 -3.5625 0.1875 0 0 Z " fill="#3A6C8C" transform="translate(305.5625,32.8125)"/>
<path d="M0 0 C3.59790822 3.27082565 4.90268539 5.68052844 5.265625 10.6015625 C5.2709051 11.94270805 5.26541457 13.28393264 5.25 14.625 C5.25773437 15.305625 5.26546875 15.98625 5.2734375 16.6875 C5.25344122 21.74655878 5.25344122 21.74655878 3 24 C2.34 24 1.68 24 1 24 C1.02320313 22.92621094 1.04640625 21.85242188 1.0703125 20.74609375 C1.08908624 19.30990285 1.1072847 17.87370435 1.125 16.4375 C1.14175781 15.73302734 1.15851563 15.02855469 1.17578125 14.30273438 C1.22022044 9.48108178 0.52768004 5.57702562 -1 1 C-0.67 0.67 -0.34 0.34 0 0 Z " fill="#DDE4E9" transform="translate(257,47)"/>
<path d="M0 0 C5.7266425 2.9826263 10.26638344 6.62294157 15 11 C13.68 12.32 12.36 13.64 11 15 C9.72719706 13.58510266 8.4568417 12.16800334 7.1875 10.75 C6.47980469 9.96109375 5.77210938 9.1721875 5.04296875 8.359375 C0 2.53537285 0 2.53537285 0 0 Z " fill="#C98F66" transform="translate(238,63)"/>
<path d="M0 0 C0.33 0 0.66 0 1 0 C2.49559185 6.9171123 2.49559185 6.9171123 1.0078125 10.16796875 C-0.31940983 13.89756637 -0.21564385 17.41132799 -0.125 21.3125 C-0.11597656 22.05306641 -0.10695312 22.79363281 -0.09765625 23.55664062 C-0.07424213 25.37123467 -0.03837615 27.18566071 0 29 C-2.64901929 26.80734641 -3.8870978 25.6382975 -4.49609375 22.1953125 C-4.38280997 16.25924217 -4.03848755 12.22619859 -1 7 C-0.2863276 3.26228166 -0.2863276 3.26228166 0 0 Z " fill="#AEBECC" transform="translate(214,42)"/>
<path d="M0 0 C2.475 0.99 2.475 0.99 5 2 C3.63312778 5.98671063 1.84804907 8.88494633 -1 12 C-1.66 12 -2.32 12 -3 12 C-2.49202991 7.6822542 -1.80317221 3.96697886 0 0 Z " fill="#C4DB74" transform="translate(241,46)"/>
<path d="M0 0 C0.66 0.33 1.32 0.66 2 1 C2.4140625 3.50390625 2.4140625 3.50390625 2.625 6.5625 C2.69976562 7.57441406 2.77453125 8.58632812 2.8515625 9.62890625 C2.90054688 10.41136719 2.94953125 11.19382812 3 12 C1.02 12 -0.96 12 -3 12 C-2.88541307 10.56163249 -2.75790884 9.12429034 -2.625 7.6875 C-2.55539063 6.88699219 -2.48578125 6.08648437 -2.4140625 5.26171875 C-2 3 -2 3 0 0 Z " fill="#9FD29C" transform="translate(236,63)"/>
<path d="M0 0 C0.4125 0.45375 0.825 0.9075 1.25 1.375 C2.90196931 3.0880403 2.90196931 3.0880403 5 3.875 C7.68363472 5.38454453 8.58905723 7.31920874 10 10 C5.1725201 8.58707905 1.2837641 6.57025846 -3 4 C-2.01 2.68 -1.02 1.36 0 0 Z " fill="#FDFDFD" transform="translate(223,49)"/>
<path d="M0 0 C2.64 0 5.28 0 8 0 C8 3.3 8 6.6 8 10 C7.67 10 7.34 10 7 10 C7 8.35 7 6.7 7 5 C4.69 5 2.38 5 0 5 C0 3.35 0 1.7 0 0 Z " fill="#2D6184" transform="translate(207,32)"/>
<path d="M0 0 C1.98 0.66 3.96 1.32 6 2 C5.01 2.495 5.01 2.495 4 3 C3.34444881 5.52733235 3.34444881 5.52733235 3 8 C2.01 8 1.02 8 0 8 C-0.33 8.99 -0.66 9.98 -1 11 C-0.34 11.33 0.32 11.66 1 12 C0.01 12 -0.98 12 -2 12 C-2.05422947 10.5629191 -2.09289723 9.12524538 -2.125 7.6875 C-2.14820313 6.88699219 -2.17140625 6.08648437 -2.1953125 5.26171875 C-2 3 -2 3 0 0 Z " fill="#D7BE6B" transform="translate(219,53)"/>
<path d="M0 0 C0.33 0 0.66 0 1 0 C1.05386629 2.12472576 1.09273071 4.24983652 1.125 6.375 C1.14820313 7.55835937 1.17140625 8.74171875 1.1953125 9.9609375 C1 13 1 13 -1 15 C-4.625 15.125 -4.625 15.125 -8 15 C-7.67 14.01 -7.34 13.02 -7 12 C-5.02 12 -3.04 12 -1 12 C-1.020625 10.7625 -1.04125 9.525 -1.0625 8.25 C-1.06766681 5.3359175 -0.93015558 2.79046673 0 0 Z " fill="#2D5E82" transform="translate(174,75)"/>
<path d="M0 0 C2 0.9375 2 0.9375 3.25 4 C3.4975 4.969375 3.745 5.93875 4 6.9375 C2.02 7.9275 2.02 7.9275 0 8.9375 C-2.15377564 6.31551226 -3.40072174 4.29345828 -4 0.9375 C-2 -0.0625 -2 -0.0625 0 0 Z " fill="#FCFDFD" transform="translate(222,64.0625)"/>
<path d="M0 0 C2.93200474 2.85276137 5.64315404 5.65079784 8 9 C6.02 9.33 4.04 9.66 2 10 C0 3.375 0 3.375 0 0 Z " fill="#F7F7F8" transform="translate(237,64)"/>
<path d="M0 0 C1.98 0 3.96 0 6 0 C5.01 3.3 4.02 6.6 3 10 C-0.00617269 6.99382731 0.40414684 4.17618402 0 0 Z " fill="#F5F6F7" transform="translate(234,49)"/>
<path d="M0 0 C2.64 0.33 5.28 0.66 8 1 C7.67 2.32 7.34 3.64 7 5 C4.69 5 2.38 5 0 5 C0 3.35 0 1.7 0 0 Z " fill="#0C4972" transform="translate(301,36)"/>
<path d="M0 0 C0.33 0 0.66 0 1 0 C1 2.97 1 5.94 1 9 C0.67 7.68 0.34 6.36 0 5 C-1.32 5 -2.64 5 -4 5 C-4.33 5.66 -4.66 6.32 -5 7 C-5 6.34 -5 5.68 -5 5 C-6.65 5 -8.3 5 -10 5 C-10.33 5.99 -10.66 6.98 -11 8 C-11 5.69 -11 3.38 -11 1 C-10.34 1.66 -9.68 2.32 -9 3 C-6.93125966 3.6425235 -6.93125966 3.6425235 -5 4 C-4.67 3.34 -4.34 2.68 -4 2 C-4 2.66 -4 3.32 -4 4 C-2.68 4 -1.36 4 0 4 C0 2.68 0 1.36 0 0 Z " fill="#ECECED" transform="translate(254,57)"/>
<path d="M0 0 C2.75544831 2.75544831 2.36279855 4.65893377 2.5625 8.5 C2.66407271 12.90933762 2.66407271 12.90933762 4 17 C3.34 17.66 2.68 18.32 2 19 C1.34 19 0.68 19 0 19 C0 12.73 0 6.46 0 0 Z " fill="#95A9BA" transform="translate(258,52)"/>
<path d="M0 0 C2.64 0 5.28 0 8 0 C7.67 1.32 7.34 2.64 7 4 C5.02 4 3.04 4 1 4 C0.67 2.68 0.34 1.36 0 0 Z " fill="#417291" transform="translate(318,32)"/>
<path d="M0 0 C1.98 0.66 3.96 1.32 6 2 C6 2.99 6 3.98 6 5 C5.01 5.66 4.02 6.32 3 7 C1.5 5.75 1.5 5.75 0 4 C0 2.68 0 1.36 0 0 Z " fill="#DD905B" transform="translate(246,71)"/>
<path d="M0 0 C1.46373047 0.02707031 1.46373047 0.02707031 2.95703125 0.0546875 C3.69308594 0.07789063 4.42914063 0.10109375 5.1875 0.125 C5.1875 0.455 5.1875 0.785 5.1875 1.125 C0.8975 1.785 -3.3925 2.445 -7.8125 3.125 C-7.8125 3.785 -7.8125 4.445 -7.8125 5.125 C-9.7925 5.125 -11.7725 5.125 -13.8125 5.125 C-9.96829423 0.67381437 -5.71022995 -0.1375959 0 0 Z " fill="#829EB2" transform="translate(235.8125,36.875)"/>
<path d="M0 0 C-0.33 1.32 -0.66 2.64 -1 4 C-2.32 4.33 -3.64 4.66 -5 5 C-5 4.01 -5 3.02 -5 2 C-6.65 2.33 -8.3 2.66 -10 3 C-8.0130571 -0.97388579 -3.91761109 -0.08705802 0 0 Z " fill="#FBFCFC" transform="translate(237,38)"/>
<path d="M0 0 C0.66 0 1.32 0 2 0 C1.34 1.65 0.68 3.3 0 5 C0.66 5.33 1.32 5.66 2 6 C-0.31 6.66 -2.62 7.32 -5 8 C-5 6.02 -5 4.04 -5 2 C-4.67 2.99 -4.34 3.98 -4 5 C-3.01 5 -2.02 5 -1 5 C-0.67 3.35 -0.34 1.7 0 0 Z " fill="#FCD656" transform="translate(223,56)"/>
<path d="M0 0 C-0.33 2.64 -0.66 5.28 -1 8 C-2.65 7.01 -4.3 6.02 -6 5 C-4.87312259 1.61936778 -3.78825335 0 0 0 Z " fill="#F0F0F0" transform="translate(235,63)"/>
<path d="M0 0 C2.62187494 1.04874998 3.79371361 1.64931313 5.25 4.125 C5.4975 4.74375 5.745 5.3625 6 6 C0.25 4.25 0.25 4.25 -2 2 C-1.34 1.34 -0.68 0.68 0 0 Z " fill="#F3F5F6" transform="translate(227,53)"/>
<path d="M0 0 C2.64 0 5.28 0 8 0 C7.67 0.99 7.34 1.98 7 3 C4.69 2.67 2.38 2.34 0 2 C0 1.34 0 0.68 0 0 Z " fill="#437392" transform="translate(207,32)"/>
<path d="M0 0 C0.33 0.66 0.66 1.32 1 2 C2.32 1.67 3.64 1.34 5 1 C3.7260411 3.03833424 2.38938077 5.03852126 1 7 C0.34 7 -0.32 7 -1 7 C-0.67 4.69 -0.34 2.38 0 0 Z " fill="#B9CA7B" transform="translate(239,51)"/>
<path d="M0 0 C0.33 0 0.66 0 1 0 C1.33 3.63 1.66 7.26 2 11 C1.01 10.67 0.02 10.34 -1 10 C-0.67 6.7 -0.34 3.4 0 0 Z " fill="#CE936A" transform="translate(233,48)"/>
<path d="M0 0 C0.66 0.33 1.32 0.66 2 1 C1.21625 1.763125 0.4325 2.52625 -0.375 3.3125 C-3.07257717 5.90891805 -3.07257717 5.90891805 -5 9 C-5.66 8.01 -6.32 7.02 -7 6 C-4.69 4.02 -2.38 2.04 0 0 Z " fill="#F3F4F4" transform="translate(251,45)"/>
<path d="M0 0 C2.31 0 4.62 0 7 0 C6.67 0.99 6.34 1.98 6 3 C3.69 2.67 1.38 2.34 -1 2 C-0.67 1.34 -0.34 0.68 0 0 Z " fill="#296083" transform="translate(285,34)"/>
<path d="M0 0 C1.98 0 3.96 0 6 0 C6 0.99 6 1.98 6 3 C3.69 3 1.38 3 -1 3 C-0.67 2.01 -0.34 1.02 0 0 Z " fill="#22597E" transform="translate(167,87)"/>
<path d="M0 0 C0.66 1.32 1.32 2.64 2 4 C-1.3 4.33 -4.6 4.66 -8 5 C-5.08235 3.0549 -3.37462715 2.54723683 0 2 C0 1.34 0 0.68 0 0 Z " fill="#D6BB60" transform="translate(228,59)"/>
</svg>
