<?xml version="1.0" encoding="UTF-8"?>
<svg version="1.1" xmlns="http://www.w3.org/2000/svg" width="225" height="225">
<path d="M0 0 C74.25 0 148.5 0 225 0 C225 74.25 225 148.5 225 225 C150.75 225 76.5 225 0 225 C0 150.75 0 76.5 0 0 Z " fill="#FDFDFD" transform="translate(0,0)"/>
<path d="M0 0 C6.10143362 -0.09940302 12.20238847 -0.17172047 18.30444336 -0.21972656 C20.37711811 -0.23975397 22.449737 -0.26698411 24.5222168 -0.30175781 C27.51364996 -0.350668 30.50433155 -0.37305793 33.49609375 -0.390625 C34.87008583 -0.42159271 34.87008583 -0.42159271 36.27183533 -0.45318604 C42.57127942 -0.4553482 47.56314017 0.72929695 53 4 C55.4375 6.5 55.4375 6.5 57 9 C57.4125 9.598125 57.825 10.19625 58.25 10.8125 C59.7235582 15.1103781 59.84637292 18.994859 58.08984375 23.15625 C55.4190924 27.75921695 52.62686467 30.4175639 48 33 C48.66386719 33.29132813 49.32773438 33.58265625 50.01171875 33.8828125 C56.42705563 36.86102729 60.75494969 39.50989938 64 46 C64.97122552 59.52244756 64.97122552 59.52244756 61 65 C54.64741965 72.21103715 47.09318556 76.25170386 37.52752686 77.26083374 C35.03094012 77.34288104 32.55214408 77.33872089 30.0546875 77.29296875 C28.71085495 77.28660149 28.71085495 77.28660149 27.33987427 77.28010559 C24.51792521 77.26350154 21.69672801 77.22588593 18.875 77.1875 C16.94532292 77.17242946 15.01563448 77.15874524 13.0859375 77.14648438 C8.39034153 77.1136583 3.69529759 77.06200616 -1 77 C-0.67 75.35 -0.34 73.7 0 72 C0.56589844 71.86722656 1.13179687 71.73445313 1.71484375 71.59765625 C2.81505859 71.33275391 2.81505859 71.33275391 3.9375 71.0625 C4.66839844 70.88847656 5.39929688 70.71445313 6.15234375 70.53515625 C7.99969898 70.16112431 7.99969898 70.16112431 9 69 C9.09396057 67.06693502 9.11743517 65.13041162 9.11352539 63.19506836 C9.11344986 61.95385727 9.11337433 60.71264618 9.11329651 59.43382263 C9.10818911 58.0691626 9.1029731 56.70450298 9.09765625 55.33984375 C9.095792 53.95121817 9.09436813 52.56259193 9.09336853 51.17396545 C9.08954387 47.51278885 9.07971403 43.8516517 9.06866455 40.19049072 C9.05844932 36.45707737 9.05387067 32.72365766 9.04882812 28.99023438 C9.03809171 21.66013823 9.02101591 14.33007464 9 7 C5.7 6.34 2.4 5.68 -1 5 C-0.67 3.35 -0.34 1.7 0 0 Z " fill="#947A5E" transform="translate(149,112)"/>
<path d="M0 0 C0.56976562 0.71800781 1.13953125 1.43601562 1.7265625 2.17578125 C3.1801047 3.98147028 4.65246082 5.77227635 6.1484375 7.54296875 C19.06144073 22.87999189 25.66257273 37.53035923 24.23925781 57.6953125 C23.00803424 69.55526199 17.49003703 80.3028257 8.5625 88.1875 C7.38697154 89.13996803 6.20396252 90.08373762 5 91 C3.29159719 89.36587557 2.06546953 88.13093906 1 86 C0.67 87.65 0.34 89.3 0 91 C-6.24659603 89.98666331 -10.17556238 84.52422192 -13.7109375 79.6328125 C-21.82980761 66.73328792 -24.92681384 53.08743736 -22.31640625 38.06640625 C-18.92711112 24.32640067 -12.39557356 11.71426213 -1 3 C-0.67 2.01 -0.34 1.02 0 0 Z " fill="#49A63B" transform="translate(29,95)"/>
<path d="M0 0 C9.96494081 0.18656827 18.41849309 2.61526063 26 9.3125 C34.3355939 19.27237451 34.8929541 29.42080672 34.23828125 41.90869141 C33.44266167 49.934993 29.75651862 56.37577138 24.0390625 61.91015625 C18.41666014 65.77690423 13.54535226 66.80098425 6.875 66.6875 C6.18535156 66.69910156 5.49570313 66.71070313 4.78515625 66.72265625 C0.34861204 66.69720762 -2.49204118 66.04947886 -6 63.3125 C-8.27430134 59.901048 -8.25252522 58.68558736 -8.25878906 54.67944336 C-8.26509338 53.52492172 -8.27139771 52.37040009 -8.27789307 51.18089294 C-8.2738446 49.93397171 -8.26979614 48.68705048 -8.265625 47.40234375 C-8.26753845 46.12396133 -8.2694519 44.84557892 -8.27142334 43.52845764 C-8.27278538 40.82409157 -8.2700893 38.12008611 -8.26074219 35.41577148 C-8.24933629 31.94644391 -8.25591656 28.47742538 -8.26788712 25.00810909 C-8.27684222 21.70200946 -8.2705772 18.39594741 -8.265625 15.08984375 C-8.26967346 13.84089828 -8.27372192 12.59195282 -8.27789307 11.30516052 C-8.27158875 10.15379105 -8.26528442 9.00242157 -8.25878906 7.81616211 C-8.25719788 6.79928818 -8.25560669 5.78241425 -8.25396729 4.73472595 C-7.7119958 -0.43435478 -4.38658051 0.01551856 0 0 Z " fill="#FEFEFE" transform="translate(93,116.6875)"/>
<path d="M0 0 C6.79517343 -0.07650946 13.59023441 -0.1287916 20.38574219 -0.16479492 C22.69405265 -0.17981541 25.00233488 -0.20023779 27.31054688 -0.22631836 C30.64199825 -0.26299885 33.97306995 -0.27979431 37.3046875 -0.29296875 C38.32488983 -0.30845261 39.34509216 -0.32393646 40.39620972 -0.33988953 C50.92958063 -0.34232437 59.86887728 2.13302496 68 9 C75.85134281 16.97374682 78.39350766 26.51610255 78.5625 37.4375 C78.45311774 48.86124927 75.27833236 57.71959914 67.22265625 66.03125 C53.80327304 77.91766325 38.15905464 77.41380805 21.25 77.1875 C19.28126026 77.17242319 17.31250933 77.1587401 15.34375 77.14648438 C10.56221942 77.11372255 5.78123577 77.06210638 1 77 C1.33 75.35 1.66 73.7 2 72 C3.134375 71.71125 4.26875 71.4225 5.4375 71.125 C6.613125 70.75375 7.78875 70.3825 9 70 C10.35144654 67.29710692 10.11975165 65.19930194 10.11352539 62.17333984 C10.11344986 60.95222504 10.11337433 59.73111023 10.11329651 58.47299194 C10.10818952 57.13564005 10.10297352 55.79828857 10.09765625 54.4609375 C10.0957914 53.09616141 10.09436781 51.73138466 10.09336853 50.36660767 C10.08954863 46.77284907 10.07972283 43.17913083 10.06866455 39.58538818 C10.05843911 35.91891018 10.05386848 32.25242565 10.04882812 28.5859375 C10.0381001 21.39060447 10.02050756 14.19531303 10 7 C6.37 6.34 2.74 5.68 -1 5 C-0.67 3.35 -0.34 1.7 0 0 Z M23 7 C22.67928577 9.51227423 22.67928577 9.51227423 22.70947266 12.47192383 C22.69671295 13.61683792 22.68395325 14.76175201 22.67080688 15.94136047 C22.66858124 17.18403183 22.66635559 18.42670319 22.6640625 19.70703125 C22.6574057 20.97971359 22.6507489 22.25239594 22.64389038 23.56364441 C22.63374692 26.26140276 22.62821066 28.95875842 22.62939453 31.65649414 C22.62959741 35.10673171 22.6023352 38.55614264 22.56785011 42.00618458 C22.54020142 45.302269 22.5414307 48.5983466 22.5390625 51.89453125 C22.52469147 53.13112991 22.51032043 54.36772858 22.49551392 55.64179993 C22.50166718 56.7961705 22.50782043 57.95054108 22.51416016 59.13989258 C22.51131012 60.15312088 22.50846008 61.16634918 22.50552368 62.21028137 C23.13666231 65.77101648 24.48769648 67.44214909 27 70 C33.66718503 72.22239501 44.10859892 72.39532716 50.5625 69.5 C56.91635301 65.48851664 61.81026999 59.28652004 64.33984375 52.234375 C66.78316536 40.26354486 66.49179056 27.41295574 59.71484375 17.03125 C54.99292071 10.8230392 47.92218233 6.8931258 40.3203125 5.27734375 C30.99016147 3.81040954 30.99016147 3.81040954 23 7 Z " fill="#94795D" transform="translate(62,112)"/>
<path d="M0 0 C6.0895398 1.27753139 9.53072275 6.06180084 13 11 C21.97077094 25.87963939 25.30848087 40.52234222 22.34765625 57.80859375 C19.20278233 69.05185543 13.27112131 77.94431547 4 85 C2.5625 84 2.5625 84 1 82 C0.14552465 76.72800874 -0.12268238 71.64651222 -0.11352539 66.29882812 C-0.11367142 65.57589569 -0.11381744 64.85296326 -0.1139679 64.10812378 C-0.11327838 61.74913394 -0.10553163 59.39022583 -0.09765625 57.03125 C-0.09578865 55.38358605 -0.09436636 53.73592154 -0.09336853 52.08825684 C-0.0895703 47.77452024 -0.07976332 43.46081789 -0.06866455 39.14709473 C-0.05839221 34.7360887 -0.05385849 30.32507707 -0.04882812 25.9140625 C-0.03813838 17.27602604 -0.0210947 8.63801729 0 0 Z " fill="#439A35" transform="translate(30,101)"/>
<path d="M0 0 C1.28583984 0.00966797 1.28583984 0.00966797 2.59765625 0.01953125 C4.9375 0.1875 4.9375 0.1875 7.9375 1.1875 C9.49868428 1.25490865 11.0625252 1.27264456 12.625 1.25 C13.43324219 1.24097656 14.24148437 1.23195312 15.07421875 1.22265625 C15.68910156 1.21105469 16.30398437 1.19945312 16.9375 1.1875 C16.6075 2.8375 16.2775 4.4875 15.9375 6.1875 C14.2875 6.1875 12.6375 6.1875 10.9375 6.1875 C10.99550781 6.76757812 11.05351562 7.34765625 11.11328125 7.9453125 C11.36429079 12.29136333 11.22151486 14.67627325 9.0625 18.5625 C5.55745993 22.21993312 0.73620623 23.12526212 -4.0625 24.1875 C-4.0625 24.8475 -4.0625 25.5075 -4.0625 26.1875 C-0.67979506 27.87885247 3.15756273 27.53453402 6.89453125 27.7109375 C10.2756187 28.24045312 12.19483773 29.16759864 14.9375 31.1875 C17.19889593 34.57959389 17.16919127 36.2371769 16.53125 40.1953125 C15.15233127 44.82194771 11.27214249 47.16649406 7.3125 49.5 C2.31826266 51.8174018 -2.66259286 52.02711971 -8.0625 51.1875 C-11.21033158 49.87180477 -13.49790565 48.3166887 -15.0625 45.1875 C-15.4375 42.375 -15.4375 42.375 -15.0625 39.1875 C-12.6875 36.3125 -12.6875 36.3125 -10.0625 34.1875 C-9.4025 34.1875 -8.7425 34.1875 -8.0625 34.1875 C-8.7225 33.424375 -9.3825 32.66125 -10.0625 31.875 C-12.0625 29.1875 -12.0625 29.1875 -12.0625 26.1875 C-10.4125 25.5275 -8.7625 24.8675 -7.0625 24.1875 C-7.0625 23.5275 -7.0625 22.8675 -7.0625 22.1875 C-7.84625 21.960625 -8.63 21.73375 -9.4375 21.5 C-12.0625 20.1875 -12.0625 20.1875 -13.375 18 C-14.35583327 13.98750027 -15.24088669 10.24380825 -13.08203125 6.4765625 C-9.2619938 1.65743833 -6.06127205 -0.10056409 0 0 Z " fill="#503829" transform="translate(165.0625,56.8125)"/>
<path d="M0 0 C18.47088872 -0.7867769 18.47088872 -0.7867769 25.6875 5.4609375 C28.02100619 8.0728734 29.69127848 10.50115614 30 14 C30.12375 15.2375 30.2475 16.475 30.375 17.75 C30.31072966 22.66209039 28.24579102 26.38555123 25 30 C20.87998709 33.2159813 17.00670902 33.54856084 11.9375 33.5625 C11.23044922 33.59923828 10.52339844 33.63597656 9.79492188 33.67382812 C6.11278277 33.70494479 4.30558099 33.2670826 1.51953125 30.83203125 C-1.34087142 25.544953 -0.40724518 18.93097594 -0.25 13.125 C-0.23195312 11.86429688 -0.21390625 10.60359375 -0.1953125 9.3046875 C-0.14830729 6.20234386 -0.08260676 3.1015662 0 0 Z " fill="#FDFCFC" transform="translate(171,150)"/>
<path d="M0 0 C3.9542756 2.09096023 5.96244424 4.32642087 7.89453125 8.28125 C8.76483648 14.62082632 8.75445351 20.9572193 4.89453125 26.28125 C1.01665771 30.05431615 -2.77315115 32.11676632 -8.2421875 32.38671875 C-13.59569273 32.14131189 -16.89443081 30.69255327 -20.73046875 26.9453125 C-24.24011566 22.69784209 -24.55592006 17.77415206 -24.421875 12.45703125 C-23.74014398 7.7690784 -20.93134169 5.02654997 -17.54296875 1.96875 C-12.47773788 -1.53794829 -5.81985447 -1.98674067 0 0 Z " fill="#50382A" transform="translate(210.10546875,57.71875)"/>
<path d="M0 0 C4.19150644 3.88481085 6.77229521 6.99117748 7 12.8125 C6.73393647 18.26221515 5.19616135 22.27457827 1.8125 26.625 C-2.12504345 29.6875338 -5.95314547 31.15909389 -10.875 31.875 C-16.72634525 31.05375856 -20.81252729 28.45699629 -24.4375 23.8125 C-26.30050381 17.40842439 -26.6194737 11.0226211 -23.875 4.875 C-17.14152921 -2.03112389 -8.98962207 -4.24963953 0 0 Z " fill="#4F3628" transform="translate(96.4375,58.625)"/>
<path d="M0 0 C0.33 1.32 0.66 2.64 1 4 C1.825 3.34 2.65 2.68 3.5 2 C7.4781731 -0.63330607 10.29401891 -0.5975849 15 0 C18 2 18 2 20 4 C20.99 3.34 21.98 2.68 23 2 C27.28833037 -0.42195177 30.11225068 -0.709512 35 0 C38.52992644 2.70377344 40.20109506 4.68261989 41 9 C41.14129118 10.51270605 41.24462817 12.02928128 41.31640625 13.546875 C41.35830078 14.39121094 41.40019531 15.23554687 41.44335938 16.10546875 C41.48267578 16.97816406 41.52199219 17.85085937 41.5625 18.75 C41.60568359 19.63816406 41.64886719 20.52632812 41.69335938 21.44140625 C41.79913615 23.62745963 41.90122546 25.81362089 42 28 C43.32 28.33 44.64 28.66 46 29 C46 29.99 46 30.98 46 32 C40.72 32 35.44 32 30 32 C30 31.01 30 30.02 30 29 C31.65 28.67 33.3 28.34 35 28 C34.91293747 25.08190419 34.80605266 22.16684289 34.6875 19.25 C34.65366211 18.0125 34.65366211 18.0125 34.61914062 16.75 C34.46268561 13.22265052 34.31398854 10.62133683 32.70703125 7.44140625 C30.62877177 5.68653726 29.68743641 5.53989459 27 5.6875 C26.319375 5.71199219 25.63875 5.73648438 24.9375 5.76171875 C22.78554857 5.96144893 22.78554857 5.96144893 20 7 C20 13.93 20 20.86 20 28 C21.65 28.33 23.3 28.66 25 29 C25 29.99 25 30.98 25 32 C19.72 32 14.44 32 9 32 C9 31.01 9 30.02 9 29 C10.32 28.67 11.64 28.34 13 28 C13.08706892 24.72933434 13.14041241 21.45896635 13.1875 18.1875 C13.21263672 17.25873047 13.23777344 16.32996094 13.26367188 15.37304688 C13.27333984 14.48037109 13.28300781 13.58769531 13.29296875 12.66796875 C13.3086792 11.84578857 13.32438965 11.0236084 13.34057617 10.17651367 C13.15662297 7.93223164 13.15662297 7.93223164 11.7043457 6.19262695 C9.85817534 4.63447916 9.85817534 4.63447916 6.4375 5.25 C3.16037491 5.81719909 3.16037491 5.81719909 1 7 C1 13.93 1 20.86 1 28 C2.32 28.33 3.64 28.66 5 29 C5 29.99 5 30.98 5 32 C-0.28 32 -5.56 32 -11 32 C-11 31.01 -11 30.02 -11 29 C-9.68 28.67 -8.36 28.34 -7 28 C-6.67 20.74 -6.34 13.48 -6 6 C-7.98 5.34 -9.96 4.68 -12 4 C-11 2 -11 2 -9.2578125 1.3671875 C-8.55398437 1.20476563 -7.85015625 1.04234375 -7.125 0.875 C-6.07699219 0.62363281 -6.07699219 0.62363281 -5.0078125 0.3671875 C-3 0 -3 0 0 0 Z " fill="#51382A" transform="translate(19,57)"/>
<path d="M0 0 C8.11282477 -0.38632499 14.55549352 0.25845402 21.0625 5.4375 C24.33615277 9.96150627 23.79213387 15.72157527 23 21 C21.1478549 24.5618175 19.98560495 25.59315145 16.3125 27.109375 C12.60796702 28.10540509 9.45439595 28.19725275 5.625 28.125 C4.37976563 28.10695312 3.13453125 28.08890625 1.8515625 28.0703125 C0.91054687 28.04710937 -0.03046875 28.02390625 -1 28 C-1.02891949 23.70834738 -1.04677118 19.41671964 -1.0625 15.125 C-1.07087891 13.90167969 -1.07925781 12.67835938 -1.08789062 11.41796875 C-1.09111328 10.25136719 -1.09433594 9.08476563 -1.09765625 7.8828125 C-1.10289307 6.80402832 -1.10812988 5.72524414 -1.11352539 4.61376953 C-1 2 -1 2 0 0 Z " fill="#FBFBFA" transform="translate(172,117)"/>
<path d="M0 0 C0 1.32 0 2.64 0 4 C0.969375 3.34 1.93875 2.68 2.9375 2 C6.58439918 -0.05646647 9.65227031 -0.53241702 13.7890625 -0.7265625 C16.58326253 0.19167285 18.23388587 1.6520985 20.01855469 3.97216797 C22.05504247 8.17989621 21.50399279 12.8086335 21.3125 17.375 C21.28994141 18.39722656 21.26738281 19.41945313 21.24414062 20.47265625 C21.18548082 22.98329581 21.10345928 25.49087379 21 28 C22.65 28.33 24.3 28.66 26 29 C26 29.99 26 30.98 26 32 C20.72 32 15.44 32 10 32 C10 31.01 10 30.02 10 29 C11.32 28.67 12.64 28.34 14 28 C14.08710289 24.89601022 14.14042309 21.79233452 14.1875 18.6875 C14.21263672 17.80642578 14.23777344 16.92535156 14.26367188 16.01757812 C14.27333984 15.17001953 14.28300781 14.32246094 14.29296875 13.44921875 C14.3086792 12.66893311 14.32438965 11.88864746 14.34057617 11.0847168 C13.90726802 8.43237391 13.15346747 7.5722013 11 6 C6.63293092 5.61008312 4.69486103 5.53675931 1 8 C0.58429992 10.22498915 0.58429992 10.22498915 0.70703125 12.7890625 C0.7215332 14.20058594 0.7215332 14.20058594 0.73632812 15.640625 C0.7740332 17.11789063 0.7740332 17.11789063 0.8125 18.625 C0.82603516 19.61757812 0.83957031 20.61015625 0.85351562 21.6328125 C0.88894257 24.08908072 0.93833804 26.54427285 1 29 C2.32 29 3.64 29 5 29 C5 29.99 5 30.98 5 32 C-0.28 32 -5.56 32 -11 32 C-11 31.01 -11 30.02 -11 29 C-9.68 28.34 -8.36 27.68 -7 27 C-6.85489838 23.72963272 -6.76600627 20.46008993 -6.6875 17.1875 C-6.64560547 16.25873047 -6.60371094 15.32996094 -6.56054688 14.37304688 C-6.51448498 11.82121811 -6.51277074 9.50649184 -7 7 C-9.33337383 4.76113702 -9.33337383 4.76113702 -12 4 C-11 2 -11 2 -9.2578125 1.3671875 C-8.55398437 1.20476563 -7.85015625 1.04234375 -7.125 0.875 C-6.07699219 0.62363281 -6.07699219 0.62363281 -5.0078125 0.3671875 C-3 0 -3 0 0 0 Z " fill="#4B3223" transform="translate(120,57)"/>
<path d="M0 0 C3.66283781 0.35910175 5.33515898 0.99979107 8.1875 3.3125 C11.94384921 8.49367133 11.90947711 14.15225376 11.1875 20.3125 C10.01505696 22.86128922 9.12452622 24.37547378 7.1875 26.3125 C0.14086788 27.01716321 0.14086788 27.01716321 -3.6875 24.1875 C-7.71743639 18.73523312 -8.33557369 13.90322849 -7.8125 7.3125 C-5.96078476 3.44073176 -4.47654957 0.4973944 0 0 Z " fill="#FAFAF9" transform="translate(84.8125,59.6875)"/>
<path d="M0 0 C3.48665283 2.21877908 5.52355409 4.15862745 7 8 C7.3359375 11.3125 7.3359375 11.3125 7.375 15 C7.40335938 16.216875 7.43171875 17.43375 7.4609375 18.6875 C7 22 7 22 5.19140625 24.40234375 C3 26 3 26 -0.4375 26.5625 C-4.92574585 25.8538296 -6.24098579 24.54730398 -9 21 C-11.50033066 15.74402322 -11.83328068 10.7298785 -11 5 C-7.96434428 0.44651641 -5.43724257 -1.01948298 0 0 Z " fill="#FCFBFB" transform="translate(204,60)"/>
<path d="M0 0 C1.32 1.65 2.64 3.3 4 5 C3.01 5.33 2.02 5.66 1 6 C1.16226074 6.87221191 1.32452148 7.74442383 1.49169922 8.64306641 C1.95932026 11.73134174 2.12913364 14.59284181 2.1328125 17.7109375 C2.13571289 19.320896 2.13571289 19.320896 2.13867188 20.96337891 C2.13416016 22.08921387 2.12964844 23.21504883 2.125 24.375 C2.12306641 25.52790527 2.12113281 26.68081055 2.11914062 27.86865234 C2.07510627 36.61314095 1.73709524 45.28648132 1 54 C-0.98067731 50.36202126 -2.2761521 46.51912412 -3.6015625 42.609375 C-3.8428891 41.90476135 -4.0842157 41.20014771 -4.33285522 40.47418213 C-5.09954235 38.23367981 -5.86232187 35.99186977 -6.625 33.75 C-7.14557567 32.22647443 -7.66640617 30.70303592 -8.1875 29.1796875 C-9.4612875 25.45412691 -10.73157321 21.72738897 -12 18 C-12.33 18.66 -12.66 19.32 -13 20 C-13.66 19.67 -14.32 19.34 -15 19 C-11.23302721 14.01717433 -7.42074119 9.42074119 -3 5 C-1.94712186 3.36622358 -0.9272999 1.70818403 0 0 Z " fill="#5AAF4A" transform="translate(29,95)"/>
<path d="M0 0 C2.16947229 3.25420844 3.16084987 6.14258228 4.3828125 9.85546875 C4.60194305 10.51710526 4.82107361 11.17874176 5.04684448 11.86042786 C5.74380979 13.96807821 6.43447773 16.07773102 7.125 18.1875 C7.59724213 19.61927728 8.06989367 21.0509196 8.54296875 22.48242188 C9.70006236 25.98672923 10.85151826 29.49285948 12 33 C12.33 29.04 12.66 25.08 13 21 C13.33 21 13.66 21 14 21 C14.02492452 25.12596703 14.04296521 29.25190422 14.05493164 33.37792969 C14.05992616 34.77832809 14.06672408 36.17872137 14.07543945 37.57910156 C14.16225376 51.898355 14.16225376 51.898355 13 59 C12.67 59 12.34 59 12 59 C11.86029785 58.36070557 11.7205957 57.72141113 11.57666016 57.06274414 C9.21669664 46.94724833 5.78272534 37.23794787 2.375 27.4375 C1.77036511 25.68701062 1.16619508 23.9363606 0.5625 22.18554688 C-0.53569596 19.00216799 -1.63663751 15.81976864 -2.74072266 12.63842773 C-3.50523055 10.42953646 -4.26083338 8.21749987 -5 6 C-4.34 5.01 -3.68 4.02 -3 3 C-2.34 3 -1.68 3 -1 3 C-0.67 2.01 -0.34 1.02 0 0 Z " fill="#50AA41" transform="translate(17,112)"/>
<path d="M0 0 C7.20305214 -0.61042815 7.20305214 -0.61042815 10.9375 2.25 C13.73446699 5.97928931 14.09995592 8.97049663 14.31640625 13.546875 C14.37924805 14.81337891 14.37924805 14.81337891 14.44335938 16.10546875 C14.48267578 16.97816406 14.52199219 17.85085937 14.5625 18.75 C14.60568359 19.63816406 14.64886719 20.52632812 14.69335938 21.44140625 C14.79913615 23.62745963 14.90122546 25.81362089 15 28 C16.32 28.33 17.64 28.66 19 29 C19 29.99 19 30.98 19 32 C13.72 32 8.44 32 3 32 C3 31.01 3 30.02 3 29 C4.65 28.67 6.3 28.34 8 28 C7.96688725 25.10112882 7.89962106 22.20983378 7.8125 19.3125 C7.80669922 18.49587891 7.80089844 17.67925781 7.79492188 16.83789062 C7.63542971 12.46071675 7.41566412 10.5310882 4.63671875 6.98046875 C2.0999932 4.85727443 2.0999932 4.85727443 -1 4 C-0.67 2.68 -0.34 1.36 0 0 Z " fill="#4F3728" transform="translate(46,57)"/>
<path d="M0 0 C5.86516854 1.86516854 5.86516854 1.86516854 8 4 C8.4921119 7.69083925 8.47772362 9.37401733 6.1875 12.375 C1.49154276 14.76901742 -2.83015378 14.77945374 -8 14 C-10.6875 12.375 -10.6875 12.375 -12 10 C-12.60024477 6.39853135 -12.45562482 4.72140596 -10.5 1.625 C-7.02503318 -0.63372843 -3.97114857 -0.63479327 0 0 Z " fill="#FBFAFA" transform="translate(168,90)"/>
<path d="M0 0 C2.10714863 2.12656936 2.92038341 3.50590878 3.3984375 6.47265625 C3.39070312 7.32730469 3.38296875 8.18195313 3.375 9.0625 C3.38273438 9.91972656 3.39046875 10.77695313 3.3984375 11.66015625 C2.92477581 14.44175776 2.23551918 15.32738133 0 17 C-2.4375 17.4375 -2.4375 17.4375 -5 17 C-7.79035429 14.7522146 -8.85910005 13.42269984 -10 10 C-10.44237918 3.80669145 -10.44237918 3.80669145 -8.9375 1.0625 C-5.84506242 -0.63335287 -3.44485259 -0.43060657 0 0 Z " fill="#F9F8F8" transform="translate(167,60)"/>
<path d="M0 0 C0.99 0 1.98 0 3 0 C3.28875 0.94875 3.5775 1.8975 3.875 2.875 C4.76825109 6.05211578 4.76825109 6.05211578 7 8 C9.65537372 8.56520003 12.29144713 8.73788198 15 9 C14.67 9.99 14.34 10.98 14 12 C5.21563981 13.5971564 5.21563981 13.5971564 0.4375 11.25 C-2 9 -2 9 -3 6 C-1.5 1.5 -1.5 1.5 0 0 Z " fill="#584134" transform="translate(153,95)"/>
<path d="M0 0 C3.20564807 4.80847211 3.12146023 8.66079096 2.5625 14.3125 C2.46066406 15.38113281 2.35882813 16.44976562 2.25390625 17.55078125 C2.17011719 18.35902344 2.08632813 19.16726562 2 20 C1.01 19.67 0.02 19.34 -1 19 C-1.09087891 17.96939453 -1.09087891 17.96939453 -1.18359375 16.91796875 C-1.26738281 16.01691406 -1.35117187 15.11585938 -1.4375 14.1875 C-1.51871094 13.29417969 -1.59992187 12.40085938 -1.68359375 11.48046875 C-1.93489767 8.87256441 -1.93489767 8.87256441 -3 6 C-2.34 6 -1.68 6 -1 6 C-1.0309375 4.7934375 -1.0309375 4.7934375 -1.0625 3.5625 C-1 1 -1 1 0 0 Z " fill="#CFCDB6" transform="translate(30,180)"/>
<path d="M0 0 C-2.34545328 2.34545328 -3.95985838 2.95508888 -7.26171875 3.09765625 C-8.06222656 3.08605469 -8.86273438 3.07445313 -9.6875 3.0625 C-10.89986328 3.04896484 -10.89986328 3.04896484 -12.13671875 3.03515625 C-13.05904297 3.01775391 -13.05904297 3.01775391 -14 3 C-14 2.67 -14 2.34 -14 2 C-12.88625 1.814375 -12.88625 1.814375 -11.75 1.625 C-9.03672043 1.14567448 -9.03672043 1.14567448 -7 -0.125 C-4.35022223 -1.28427778 -2.73062678 -0.75850744 0 0 Z " fill="#462B18" transform="translate(173,105)"/>
<path d="M0 0 C-0.62759865 2.92879371 -1.58622659 5.36095629 -3 8 C-3.33 7.01 -3.66 6.02 -4 5 C-4.66 6.65 -5.32 8.3 -6 10 C-6.33 10 -6.66 10 -7 10 C-7.3125 7.8125 -7.3125 7.8125 -7 5 C-2.77777778 0 -2.77777778 0 0 0 Z " fill="#482C1B" transform="translate(157,91)"/>
<path d="M0 0 C1.125 1.5 1.125 1.5 2 4 C1.57598348 6.7773082 0.81108065 9.29639783 0 12 C-2 9 -2 9 -3 6 C-2.34 6 -1.68 6 -1 6 C-1.0309375 4.7934375 -1.0309375 4.7934375 -1.0625 3.5625 C-1 1 -1 1 0 0 Z " fill="#ABAF8D" transform="translate(30,180)"/>
<path d="M0 0 C1.32 0 2.64 0 4 0 C4 0.66 4 1.32 4 2 C7.3 2 10.6 2 14 2 C14 2.33 14 2.66 14 3 C9.38 3 4.76 3 0 3 C0 2.01 0 1.02 0 0 Z " fill="#5E493E" transform="translate(28,86)"/>
<path d="M0 0 C1.32 0 2.64 0 4 0 C4 0.99 4 1.98 4 3 C-0.62 3 -5.24 3 -10 3 C-10 2.67 -10 2.34 -10 2 C-6.7 1.67 -3.4 1.34 0 1 C0 0.67 0 0.34 0 0 Z " fill="#635045" transform="translate(20,86)"/>
<path d="M0 0 C-2.95664519 1.4783226 -5.74229737 1.06032783 -9 1 C-9.33 0.34 -9.66 -0.32 -10 -1 C-5.92224809 -1.9267618 -3.57818963 -2.33958553 0 0 Z " fill="#644F42" transform="translate(91,89)"/>
<path d="M0 0 C-2 2 -2 2 -5.125 2.125 C-6.548125 2.063125 -6.548125 2.063125 -8 2 C-8.33 1.34 -8.66 0.68 -9 0 C-3.375 -1.125 -3.375 -1.125 0 0 Z " fill="#614B3E" transform="translate(206,88)"/>
</svg>
