<?xml version="1.0" encoding="UTF-8"?>
<svg version="1.1" xmlns="http://www.w3.org/2000/svg" width="225" height="225">
<path d="M0 0 C74.25 0 148.5 0 225 0 C225 74.25 225 148.5 225 225 C150.75 225 76.5 225 0 225 C0 150.75 0 76.5 0 0 Z " fill="#FEFEFE" transform="translate(0,0)"/>
<path d="M0 0 C2.32421875 1.19921875 2.32421875 1.19921875 4.6875 2.6875 C6.00041016 3.50154297 6.00041016 3.50154297 7.33984375 4.33203125 C8.21769531 4.88246094 9.09554687 5.43289062 10 6 C16.16155566 9.75359138 22.3888207 13.38265683 28.65795898 16.95288086 C32.71848909 19.26579883 36.77059822 21.59213963 40.8125 23.9375 C41.78832031 24.50339844 42.76414062 25.06929687 43.76953125 25.65234375 C46 27 46 27 47 28 C47.14615726 29.80781468 47.22292851 31.62128272 47.2722168 33.43432617 C47.30441818 34.59610886 47.33661957 35.75789154 47.36979675 36.95487976 C47.4656311 41.58609971 47.54666888 46.2172992 47.60025311 50.84919262 C47.64120302 54.36577056 47.70146921 57.87955849 47.80932617 61.39477539 C47.93316854 65.44453519 47.9749762 69.49147049 48.01171875 73.54296875 C48.06019455 74.79941696 48.10867035 76.05586517 48.15861511 77.35038757 C48.15127852 80.84465114 48.05129189 83.66553785 47 87 C43.29778334 90.66186468 39.26035289 93 34 93 C34 93.66 34 94.32 34 95 C33.17757812 95.43570313 32.35515625 95.87140625 31.5078125 96.3203125 C25.2150894 99.67740034 19.04588309 103.10203784 13.0234375 106.93359375 C11 108 11 108 8 108 C8 108.66 8 109.32 8 110 C5.98828125 111.54296875 5.98828125 111.54296875 3.3125 113.1875 C2.00732422 114.01314453 2.00732422 114.01314453 0.67578125 114.85546875 C-2.50535778 116.21616033 -3.76108877 116.10039933 -7 115 C-9.23828125 113.87890625 -9.23828125 113.87890625 -11.3125 112.5625 C-12.00988281 112.13066406 -12.70726562 111.69882813 -13.42578125 111.25390625 C-14.20501953 110.63322266 -14.20501953 110.63322266 -15 110 C-15 109.34 -15 108.68 -15 108 C-15.99 107.88785156 -15.99 107.88785156 -17 107.7734375 C-21.08398536 106.72053503 -24.37430877 104.73887164 -28 102.625 C-29.04800781 102.02558594 -29.04800781 102.02558594 -30.1171875 101.4140625 C-31.47079991 100.63765086 -32.82122112 99.85564191 -34.16796875 99.06738281 C-35.7666309 98.13596611 -37.38203414 97.23340294 -39 96.3359375 C-39.99 95.67464844 -39.99 95.67464844 -41 95 C-41 94.34 -41 93.68 -41 93 C-41.72574219 92.88785156 -42.45148438 92.77570313 -43.19921875 92.66015625 C-46.12563993 91.97038613 -48.22287809 90.94489186 -50.8125 89.4375 C-51.60269531 88.98246094 -52.39289062 88.52742188 -53.20703125 88.05859375 C-54.09455078 87.53458984 -54.09455078 87.53458984 -55 87 C-55.23215411 79.41177196 -55.40960342 71.82391351 -55.51812172 64.23293877 C-55.57022261 60.70739842 -55.64080839 57.18429409 -55.75439453 53.66015625 C-55.88430511 49.60393599 -55.9324302 45.55025423 -55.9765625 41.4921875 C-56.02817535 40.23260223 -56.07978821 38.97301697 -56.13296509 37.67526245 C-56.13842057 29.14675024 -56.13842057 29.14675024 -52.84783936 25.83209229 C-48.68452314 23.20879116 -45.97197196 22 -41 22 C-40.67 21.01 -40.34 20.02 -40 19 C-38.0390625 17.61328125 -38.0390625 17.61328125 -35.625 16.3125 C-34.43777344 15.65701172 -34.43777344 15.65701172 -33.2265625 14.98828125 C-31 14 -31 14 -28 14 C-28 13.34 -28 12.68 -28 12 C-26.19921875 10.703125 -26.19921875 10.703125 -23.6875 9.25 C-22.78386719 8.72535156 -21.88023438 8.20070313 -20.94921875 7.66015625 C-4.93895147 -1.35224586 -4.93895147 -1.35224586 0 0 Z " fill="#48A1C2" transform="translate(116,52)"/>
<path d="M0 0 C2.32421875 1.19921875 2.32421875 1.19921875 4.6875 2.6875 C6.00041016 3.50154297 6.00041016 3.50154297 7.33984375 4.33203125 C8.21769531 4.88246094 9.09554687 5.43289062 10 6 C16.16155566 9.75359138 22.3888207 13.38265683 28.65795898 16.95288086 C32.71848909 19.26579883 36.77059822 21.59213963 40.8125 23.9375 C41.78832031 24.50339844 42.76414062 25.06929687 43.76953125 25.65234375 C46 27 46 27 47 28 C47.14615726 29.80781468 47.22292851 31.62128272 47.2722168 33.43432617 C47.30441818 34.59610886 47.33661957 35.75789154 47.36979675 36.95487976 C47.4656311 41.58609971 47.54666888 46.2172992 47.60025311 50.84919262 C47.64120302 54.36577056 47.70146921 57.87955849 47.80932617 61.39477539 C47.93316854 65.44453519 47.9749762 69.49147049 48.01171875 73.54296875 C48.06019455 74.79941696 48.10867035 76.05586517 48.15861511 77.35038757 C48.15127852 80.84465114 48.05129189 83.66553785 47 87 C43.29778334 90.66186468 39.26035289 93 34 93 C34 93.66 34 94.32 34 95 C32.76636719 95.65355469 32.76636719 95.65355469 31.5078125 96.3203125 C25.2150894 99.67740034 19.04588309 103.10203784 13.0234375 106.93359375 C11 108 11 108 8 108 C8 108.66 8 109.32 8 110 C7.01 109.505 7.01 109.505 6 109 C6.02320313 108.15695313 6.04640625 107.31390625 6.0703125 106.4453125 C6.08835938 105.34960938 6.10640625 104.25390625 6.125 103.125 C6.14820313 102.03445312 6.17140625 100.94390625 6.1953125 99.8203125 C6.30060534 96.8628949 6.30060534 96.8628949 4 95 C4.99 94.505 4.99 94.505 6 94 C5.99214478 92.74678955 5.99214478 92.74678955 5.98413086 91.46826172 C5.9668407 88.29606391 5.9544315 85.12389053 5.94506836 81.95166016 C5.93770992 79.93260071 5.92498838 77.91356303 5.91210938 75.89453125 C5.89070536 67.20450174 6.25150106 58.65625944 7 50 C6.23171875 49.86207031 5.4634375 49.72414062 4.671875 49.58203125 C1.55996118 48.90414359 -0.45412977 47.90940267 -3 46 C-3.10957031 45.37351563 -3.21914062 44.74703125 -3.33203125 44.1015625 C-4.31819925 40.9988819 -6.17179231 40.28661076 -8.9375 38.6875 C-9.83339844 38.15511719 -10.72929688 37.62273437 -11.65234375 37.07421875 C-12.81443359 36.54248047 -12.81443359 36.54248047 -14 36 C-14.99 36.495 -14.99 36.495 -16 37 C-16 36.01 -16 35.02 -16 34 C-16.721875 33.731875 -17.44375 33.46375 -18.1875 33.1875 C-20.97590126 32.01017502 -23.44095724 30.60854116 -26 29 C-23.54294083 26.3674366 -21.45895144 24.15298381 -18 23 C-13.49334848 23.23719219 -10.59215886 25.41030408 -7 28 C-8.32 28.99 -9.64 29.98 -11 31 C-10.34 31.66 -9.68 32.32 -9 33 C-4.93975679 30.96197865 -4.93975679 30.96197865 -3 27 C-3.92232422 26.49339844 -3.92232422 26.49339844 -4.86328125 25.9765625 C-5.67152344 25.53054687 -6.47976562 25.08453125 -7.3125 24.625 C-8.11300781 24.18414062 -8.91351563 23.74328125 -9.73828125 23.2890625 C-11.53527943 22.26486665 -13.27900708 21.14732862 -15 20 C-15.33 20.66 -15.66 21.32 -16 22 C-16 21.01 -16 20.02 -16 19 C-17.1446875 18.566875 -17.1446875 18.566875 -18.3125 18.125 C-21 17 -21 17 -24 15 C-21.87860406 8.63581217 -18.20047138 5.8665544 -12.375 2.8125 C-11.41335937 2.30332031 -10.45171875 1.79414062 -9.4609375 1.26953125 C-5.56695 -0.73927183 -4.30543702 -1.17879462 0 0 Z " fill="#489EBE" transform="translate(116,52)"/>
<path d="M0 0 C1.32 0.66 2.64 1.32 4 2 C4.23215411 9.58822804 4.40960342 17.17608649 4.51812172 24.76706123 C4.57022261 28.29260158 4.64080839 31.81570591 4.75439453 35.33984375 C4.88430511 39.39606401 4.9324302 43.44974577 4.9765625 47.5078125 C5.02817535 48.76739777 5.07978821 50.02698303 5.13296509 51.32473755 C5.13520508 54.82650609 5.04382056 57.65533979 4 61 C0.30038512 64.6667863 -3.73872701 67 -9 67 C-9 67.66 -9 68.32 -9 69 C-10.23363281 69.65355469 -10.23363281 69.65355469 -11.4921875 70.3203125 C-17.7849106 73.67740034 -23.95411691 77.10203784 -29.9765625 80.93359375 C-32 82 -32 82 -35 82 C-35 82.66 -35 83.32 -35 84 C-35.66 83.67 -36.32 83.34 -37 83 C-36.97679688 82.15695313 -36.95359375 81.31390625 -36.9296875 80.4453125 C-36.91164063 79.34960938 -36.89359375 78.25390625 -36.875 77.125 C-36.85179688 76.03445312 -36.82859375 74.94390625 -36.8046875 73.8203125 C-36.69939466 70.8628949 -36.69939466 70.8628949 -39 69 C-38.01 68.505 -38.01 68.505 -37 68 C-37.00523682 67.16452637 -37.01047363 66.32905273 -37.01586914 65.46826172 C-37.0331593 62.29606391 -37.0455685 59.12389053 -37.05493164 55.95166016 C-37.06229008 53.93260071 -37.07501162 51.91356303 -37.08789062 49.89453125 C-37.10929464 41.20450174 -36.74849894 32.65625944 -36 24 C-36.76699219 23.87753906 -37.53398438 23.75507812 -38.32421875 23.62890625 C-41.66164985 22.84448814 -43.46147633 21.24840668 -46 19 C-45.01 17.515 -45.01 17.515 -44 16 C-42 17 -42 17 -40.25 18.375 C-37.63622632 20.26272544 -34.90531809 21.61337091 -32 23 C-32.33 26.96 -32.66 30.92 -33 35 C-28.12410656 33.03678296 -28.12410656 33.03678296 -24 30 C-22.90965465 26.30321005 -22.83211831 22.83441772 -23 19 C-23.66 18.67 -24.32 18.34 -25 18 C-25 17.34 -25 16.68 -25 16 C-23.33333333 16 -21.66666667 16 -20 16 C-19.67 19.63 -19.34 23.26 -19 27 C-17.88625 26.34 -16.7725 25.68 -15.625 25 C-12.25 23 -12.25 23 -10 23 C-10.11351517 21.18674449 -10.24112961 19.37436643 -10.375 17.5625 C-10.47941406 16.04849609 -10.47941406 16.04849609 -10.5859375 14.50390625 C-10.72257812 13.67761719 -10.85921875 12.85132812 -11 12 C-11.66 11.67 -12.32 11.34 -13 11 C-13 10.34 -13 9.68 -13 9 C-13.99 8.360625 -14.98 7.72125 -16 7.0625 C-16.99 6.381875 -17.98 5.70125 -19 5 C-19 4.01 -19 3.02 -19 2 C-14.49487506 3.68942185 -10.2840266 5.82168139 -6 8 C-6.33 11.96 -6.66 15.92 -7 20 C-2.12410656 18.03678296 -2.12410656 18.03678296 2 15 C3.09034535 11.30321005 3.16788169 7.83441772 3 4 C1.68 4.33 0.36 4.66 -1 5 C-0.34 4.01 0.32 3.02 1 2 C0.505 1.01 0.505 1.01 0 0 Z " fill="#396896" transform="translate(159,78)"/>
<path d="M0 0 C3.06658694 1.37683495 6.06046323 2.86354338 9.0625 4.375 C9.0625 20.04166667 9.0625 35.70833333 9.0625 51.375 C9.10890625 52.29152344 9.1553125 53.20804688 9.203125 54.15234375 C9.25726563 55.71662109 9.25726563 55.71662109 9.3125 57.3125 C9.35890625 58.35277344 9.4053125 59.39304688 9.453125 60.46484375 C8.96631344 64.09158991 7.85718954 65.10654999 5.0625 67.375 C2.41044893 69.34703798 0.95689166 70.39793312 -2.375 70.3125 C-6.19540212 68.91479191 -10.06489576 67.12020847 -11.9375 63.375 C-12.03382897 61.56458207 -12.06731533 59.75047247 -12.0625 57.9375 C-12.06636719 56.48537109 -12.06636719 56.48537109 -12.0703125 55.00390625 C-11.9375 52.375 -11.9375 52.375 -10.9375 49.375 C-11.93330078 48.88580078 -11.93330078 48.88580078 -12.94921875 48.38671875 C-13.83222656 47.94972656 -14.71523437 47.51273438 -15.625 47.0625 C-16.49511719 46.63324219 -17.36523438 46.20398438 -18.26171875 45.76171875 C-19.14472656 45.30410156 -20.02773437 44.84648437 -20.9375 44.375 C-21.865625 43.9728125 -22.79375 43.570625 -23.75 43.15625 C-25.9375 41.375 -25.9375 41.375 -26.42578125 38.01953125 C-26.36777344 36.75496094 -26.30976562 35.49039063 -26.25 34.1875 C-26.18232422 32.27904297 -26.18232422 32.27904297 -26.11328125 30.33203125 C-26.05527344 29.35621094 -25.99726562 28.38039063 -25.9375 27.375 C-21.96484165 28.06040002 -19.36177673 29.24639554 -15.9375 31.375 C-15.2775 31.375 -14.6175 31.375 -13.9375 31.375 C-13.87804199 30.27043457 -13.87804199 30.27043457 -13.81738281 29.14355469 C-13.62668258 25.80261301 -13.40742141 22.4641401 -13.1875 19.125 C-13.0946875 17.38669922 -13.0946875 17.38669922 -13 15.61328125 C-12.92265625 14.49824219 -12.8453125 13.38320312 -12.765625 12.234375 C-12.7027832 11.20795898 -12.63994141 10.18154297 -12.57519531 9.12402344 C-11.58260997 4.84511417 -8.8942668 3.13034221 -5.5625 0.5 C-2.9375 -0.625 -2.9375 -0.625 0 0 Z " fill="#E2864A" transform="translate(113.9375,97.625)"/>
<path d="M0 0 C3.15395585 1.80300277 6.09054673 3.82760823 9 6 C7.5361389 10.39158329 5.02168662 10.87947433 1 13 C1.01160156 13.95519531 1.02320312 14.91039063 1.03515625 15.89453125 C1.08415659 22.91558004 0.98979186 29.74870988 0.12109375 36.73046875 C-0.10889042 38.95149615 -0.10889042 38.95149615 0.46484375 40.859375 C2.63481504 49.53926014 1.02206215 60.22121614 0 69 C-1.39809472 68.74109357 -2.79342142 68.46722539 -4.1875 68.1875 C-5.35345703 67.96126953 -5.35345703 67.96126953 -6.54296875 67.73046875 C-9.49585436 66.85258384 -11.53492895 65.86612022 -14 64 C-14.65510559 61.43301392 -14.65510559 61.43301392 -14.69458008 58.32275391 C-14.72002396 57.15789459 -14.74546783 55.99303528 -14.77168274 54.7928772 C-14.77097275 53.53349335 -14.77026276 52.2741095 -14.76953125 50.9765625 C-14.7814299 49.68309906 -14.79332855 48.38963562 -14.80558777 47.05697632 C-14.82649751 44.31800656 -14.82777425 41.57983937 -14.81665039 38.84082031 C-14.80496942 35.33683282 -14.85242037 31.83647805 -14.91611195 28.33315468 C-14.96656223 24.98499574 -14.95842401 21.63760029 -14.95703125 18.2890625 C-14.98263626 17.03372711 -15.00824127 15.77839172 -15.03462219 14.48501587 C-14.92220921 6.0099148 -14.92220921 6.0099148 -12.25790405 3.09222412 C-8.27539005 0.51732332 -4.75281704 -1.06695893 0 0 Z " fill="#EA9A4E" transform="translate(75,75)"/>
<path d="M0 0 C0 3.96 0 7.92 0 12 C-0.99 12.495 -0.99 12.495 -2 13 C-1.34 13.66 -0.68 14.32 0 15 C0.1953125 17.8203125 0.1953125 17.8203125 0.125 21.125 C0.10695312 22.22070312 0.08890625 23.31640625 0.0703125 24.4453125 C0.04710937 25.28835937 0.02390625 26.13140625 0 27 C-0.66 27.33 -1.32 27.66 -2 28 C-1.34 28.66 -0.68 29.32 0 30 C0.3359375 32.6796875 0.3359375 32.6796875 0.375 35.875 C0.40335938 36.92429688 0.43171875 37.97359375 0.4609375 39.0546875 C-0.10917642 42.69761882 -1.13785851 43.74972975 -4 46 C-5.859375 47.08984375 -5.859375 47.08984375 -7.75 47.9375 C-11.43562929 49.66020568 -14.71107316 51.71805535 -18.04296875 54.046875 C-20 55 -20 55 -25 55 C-25 50.38 -25 45.76 -25 41 C-23.515 40.505 -23.515 40.505 -22 40 C-22.33 39.67 -22.66 39.34 -23 39 C-23.07226502 37.14712498 -23.0838122 35.29166122 -23.0625 33.4375 C-23.05347656 32.42558594 -23.04445313 31.41367188 -23.03515625 30.37109375 C-23.02355469 29.58863281 -23.01195313 28.80617187 -23 28 C-20.69 26.68 -18.38 25.36 -16 24 C-16.33 23.34 -16.66 22.68 -17 22 C-15.35 21.34 -13.7 20.68 -12 20 C-12 19.34 -12 18.68 -12 18 C-11.34 17.67 -10.68 17.34 -10 17 C-10 13.04 -10 9.08 -10 5 C-1.125 0 -1.125 0 0 0 Z " fill="#325B81" transform="translate(149,104)"/>
<path d="M0 0 C0.99 0.33 1.98 0.66 3 1 C2.01 1.495 2.01 1.495 1 2 C1.14084796 3.79206547 1.28783701 5.58364917 1.4375 7.375 C1.51871094 8.37273437 1.59992188 9.37046875 1.68359375 10.3984375 C1.84965626 12.97927613 1.84965626 12.97927613 3 15 C2.01 15 1.02 15 0 15 C0 19.62 0 24.24 0 29 C1.32 29.33 2.64 29.66 4 30 C5.010625 30.680625 6.02125 31.36125 7.0625 32.0625 C9.83089933 34.27529737 9.83089933 34.27529737 13 34 C13 34.66 13 35.32 13 36 C14.32 36.66 15.64 37.32 17 38 C16.505 38.99 16.505 38.99 16 40 C15.34 40 14.68 40 14 40 C14.495 45.94 14.495 45.94 15 52 C14.34 52 13.68 52 13 52 C13 51.34 13 50.68 13 50 C12.34 49.92523438 11.68 49.85046875 11 49.7734375 C6.91601464 48.72053503 3.62569123 46.73887164 0 44.625 C-0.69867188 44.22539062 -1.39734375 43.82578125 -2.1171875 43.4140625 C-3.47079991 42.63765086 -4.82122112 41.85564191 -6.16796875 41.06738281 C-7.7666309 40.13596611 -9.38203414 39.23340294 -11 38.3359375 C-11.66 37.89507812 -12.32 37.45421875 -13 37 C-13 36.34 -13 35.68 -13 35 C-14.65 34.67 -16.3 34.34 -18 34 C-17.01 33.505 -17.01 33.505 -16 33 C-15.01 33.33 -14.02 33.66 -13 34 C-13.01047363 33.22285645 -13.02094727 32.44571289 -13.03173828 31.64501953 C-13.07320282 28.138379 -13.09929578 24.63178994 -13.125 21.125 C-13.14175781 19.90167969 -13.15851563 18.67835938 -13.17578125 17.41796875 C-13.18222656 16.25136719 -13.18867187 15.08476563 -13.1953125 13.8828125 C-13.20578613 12.80402832 -13.21625977 11.72524414 -13.22705078 10.61376953 C-13 8 -13 8 -11 6 C-9.6696875 6.9590625 -9.6696875 6.9590625 -8.3125 7.9375 C-4.91630072 10.32164344 -4.91630072 10.32164344 0 11 C0 7.37 0 3.74 0 0 Z " fill="#4975BF" transform="translate(88,110)"/>
<path d="M0 0 C1.423125 0.7425 1.423125 0.7425 2.875 1.5 C4.87401672 2.50196415 6.87389258 3.50221791 8.875 4.5 C8.89969492 10.71134144 8.91785758 16.92265438 8.92993164 23.1340332 C8.93496444 25.24764504 8.9417912 27.36125338 8.95043945 29.47485352 C8.96255104 32.51058818 8.96823881 35.54627686 8.97265625 38.58203125 C8.97781754 39.52899368 8.98297882 40.47595612 8.98829651 41.45161438 C8.98840981 42.77264412 8.98840981 42.77264412 8.98852539 44.12036133 C8.990746 44.89535477 8.99296661 45.67034821 8.99525452 46.46882629 C8.875 48.5 8.875 48.5 7.875 51.5 C5.80859375 52.23046875 5.80859375 52.23046875 3.3125 52.6875 C2.48621094 52.84605469 1.65992187 53.00460938 0.80859375 53.16796875 C0.17050781 53.27753906 -0.46757813 53.38710937 -1.125 53.5 C-1.17929959 51.75034642 -1.21792823 50.00020213 -1.25 48.25 C-1.27320312 47.27546875 -1.29640625 46.3009375 -1.3203125 45.296875 C-1.12362781 42.4803502 -0.57068916 40.89050964 0.875 38.5 C0.215 38.5 -0.445 38.5 -1.125 38.5 C-1.11146484 37.27023438 -1.11146484 37.27023438 -1.09765625 36.015625 C-0.99122429 29.90971447 -0.99122429 29.90971447 -3.75 24.8125 C-5.87591058 23.5827337 -5.87591058 23.5827337 -9.125 22.5 C-7.125 21.5 -7.125 21.5 -4 22.4375 C-3.05125 22.788125 -2.1025 23.13875 -1.125 23.5 C-0.95933227 19.34505344 -1.02543551 15.52650043 -2.125 11.5 C-4.83054259 9.0037541 -7.66744096 7.70141445 -11.125 6.5 C-11.125 5.84 -11.125 5.18 -11.125 4.5 C-7.68337162 1.4601861 -4.63468277 -0.74154924 0 0 Z " fill="#F4BD51" transform="translate(114.125,97.5)"/>
<path d="M0 0 C0.66 0.66 1.32 1.32 2 2 C9.28666989 5.62485249 9.28666989 5.62485249 17 5 C16.01 6.485 16.01 6.485 15 8 C15.33 8.66 15.66 9.32 16 10 C15.94747076 11.89068664 15.8219553 13.77957945 15.66015625 15.6640625 C15.5199707 17.34628906 15.5199707 17.34628906 15.37695312 19.0625 C15.27318359 20.238125 15.16941406 21.41375 15.0625 22.625 C14.91264648 24.40003906 14.91264648 24.40003906 14.75976562 26.2109375 C14.51164679 29.14110276 14.25816971 32.07070597 14 35 C9.24052987 35 7.75146024 33.77281844 4 31 C2 29 2 29 1.76953125 26.43359375 C1.78371094 25.44488281 1.79789063 24.45617187 1.8125 23.4375 C1.82216797 21.95056641 1.82216797 21.95056641 1.83203125 20.43359375 C2 18 2 18 3 17 C2.34 16.67 1.68 16.34 1 16 C1 19.63 1 23.26 1 27 C-2.64618538 26.71402468 -5.58909819 26.18359443 -8.9375 24.6875 C-11.91190389 20.8117616 -11.47013995 17.4455574 -11.37109375 12.6796875 C-11 10 -11 10 -9 8 C-7.88625 8.680625 -6.7725 9.36125 -5.625 10.0625 C-3.79540511 11.23498445 -3.79540511 11.23498445 -2 12 C-1.34 11.67 -0.68 11.34 0 11 C0 7.37 0 3.74 0 0 Z " fill="#4974BC" transform="translate(87,94)"/>
<path d="M0 0 C2.04049422 1.2704964 4.05017465 2.59431196 6 4 C4.68 4.99 3.36 5.98 2 7 C2.66 7.66 3.32 8.32 4 9 C4.825 8.401875 5.65 7.80375 6.5 7.1875 C10 6 10 6 12.14453125 6.84375 C17.61822781 10.23645561 17.61822781 10.23645561 19 13 C20.299375 13.433125 20.299375 13.433125 21.625 13.875 C31 17 31 17 33 21 C33.58983562 24.77616415 33.77382551 28.24451118 33 32 C30.68156625 34.48215002 28.17769723 35.84505382 25 37 C24.34 37 23.68 37 23 37 C23.11601563 36.27554688 23.23203125 35.55109375 23.3515625 34.8046875 C23.64888537 31.6190853 23.72573876 29.12625928 23 26 C20.00359356 23.22258226 16.70448837 21.65910419 13 20 C12.67 19.67 12.34 19.34 12 19 C11.34 19.66 10.68 20.32 10 21 C9.67 20.01 9.34 19.02 9 18 C6.75704331 16.27937536 6.75704331 16.27937536 4.0625 14.75 C3.16660156 14.20859375 2.27070312 13.6671875 1.34765625 13.109375 C0.57292969 12.74328125 -0.20179687 12.3771875 -1 12 C-1.99 12.495 -1.99 12.495 -3 13 C-3 12.01 -3 11.02 -3 10 C-3.721875 9.731875 -4.44375 9.46375 -5.1875 9.1875 C-7.97590126 8.01017502 -10.44095724 6.60854116 -13 5 C-8.87308922 0.57830988 -6.10944248 -2.03648083 0 0 Z " fill="#49A2C3" transform="translate(103,76)"/>
<path d="M0 0 C2.32421875 1.19921875 2.32421875 1.19921875 4.6875 2.6875 C5.54988281 3.22375 6.41226563 3.76 7.30078125 4.3125 C8.19152344 4.869375 9.08226563 5.42625 10 6 C11.79000535 7.06529646 13.58161939 8.1278955 15.375 9.1875 C18.43767301 10.99816824 21.13121884 12.84841413 24 15 C20.7 16.98 17.4 18.96 14 21 C19.54702838 24.61593557 19.54702838 24.61593557 26 25 C25.67 25.66 25.34 26.32 25 27 C24.34 27 23.68 27 23 27 C22.67 28.32 22.34 29.64 22 31 C21.34 31 20.68 31 20 31 C18.33333333 29.33333333 16.66666667 27.66666667 15 26 C11.92678462 23.98320241 9.64626491 23.79742973 6 24 C5.79375 23.4225 5.5875 22.845 5.375 22.25 C3.50249112 19.18589456 1.03041481 17.84460032 -2 16 C-1.67 14.68 -1.34 13.36 -1 12 C-1.45375 12.66 -1.9075 13.32 -2.375 14 C-2.91125 14.66 -3.4475 15.32 -4 16 C-4.66 16 -5.32 16 -6 16 C-6.70125 15.236875 -7.4025 14.47375 -8.125 13.6875 C-11.65104109 10.39141811 -14.44397762 9.46719365 -19 8 C-17.54692845 5.09385689 -15.40708052 4.44301921 -12.5625 2.9375 C-11.57378906 2.41027344 -10.58507812 1.88304687 -9.56640625 1.33984375 C-5.6203873 -0.72025442 -4.3653015 -1.19518504 0 0 Z " fill="#418AA6" transform="translate(116,52)"/>
<path d="M0 0 C3 0 3 0 5.25 0.9375 C8.48295152 2.18659491 11.56821396 2.59626047 15 3 C14.26330078 3.58201172 14.26330078 3.58201172 13.51171875 4.17578125 C11.49274247 6.61211696 11.69101195 8.06930672 11.8125 11.1875 C11.83957031 12.08855469 11.86664063 12.98960937 11.89453125 13.91796875 C11.92933594 14.60503906 11.96414062 15.29210937 12 16 C12.928125 15.835 13.85625 15.67 14.8125 15.5 C18 15 18 15 21 15 C21.10841951 16.91541138 21.18578079 18.83259773 21.25 20.75 C21.29640625 21.81734375 21.3428125 22.8846875 21.390625 23.984375 C20.91055887 27.69048554 19.86038874 28.69390963 17 31 C14.34794893 32.97203798 12.89439166 34.02293312 9.5625 33.9375 C5.74209788 32.53979191 1.87260424 30.74520847 0 27 C-0.09632897 25.18958207 -0.12981533 23.37547247 -0.125 21.5625 C-0.12757812 20.59441406 -0.13015625 19.62632812 -0.1328125 18.62890625 C0 16 0 16 1 13 C0.67 12.67 0.34 12.34 0 12 C-0.07244053 9.98035801 -0.08377188 7.95832876 -0.0625 5.9375 C-0.05347656 4.83277344 -0.04445313 3.72804687 -0.03515625 2.58984375 C-0.02355469 1.73519531 -0.01195313 0.88054687 0 0 Z " fill="#F1934F" transform="translate(102,134)"/>
<path d="M0 0 C4.02874694 1.16213854 7.20173044 3.04254577 10.25 5.9375 C10.25 6.5975 10.25 7.2575 10.25 7.9375 C12.76083114 6.68208443 13.12125446 5.43686512 14.25 2.9375 C14.91 3.2675 15.57 3.5975 16.25 3.9375 C15.92 5.2575 15.59 6.5775 15.25 7.9375 C17.0078125 8.88151042 18.765625 9.82552083 20.5234375 10.76953125 C22.25 11.9375 22.25 11.9375 24.25 14.9375 C24.9925 15.081875 25.735 15.22625 26.5 15.375 C30.04968933 16.10107282 32.33784751 17.83804123 35.25 19.9375 C28.93372093 25.35145349 28.93372093 25.35145349 25.25 25.9375 C21.73864375 24.4584013 17.97209778 22.65959778 15.25 19.9375 C14.59 20.5975 13.93 21.2575 13.25 21.9375 C13.25 20.9475 13.25 19.9575 13.25 18.9375 C12.32767578 18.43089844 12.32767578 18.43089844 11.38671875 17.9140625 C10.57847656 17.46804687 9.77023438 17.02203125 8.9375 16.5625 C8.13699219 16.12164062 7.33648437 15.68078125 6.51171875 15.2265625 C4.71472057 14.20236665 2.97099292 13.08482862 1.25 11.9375 C0.92 12.5975 0.59 13.2575 0.25 13.9375 C0.25 12.9475 0.25 11.9575 0.25 10.9375 C-0.8946875 10.504375 -0.8946875 10.504375 -2.0625 10.0625 C-4.75 8.9375 -4.75 8.9375 -7.75 6.9375 C-6.25314505 2.56207785 -5.13387497 -0.11667898 0 0 Z " fill="#49A1C3" transform="translate(99.75,60.0625)"/>
<path d="M0 0 C2 1 2 1 3.8125 2.4375 C6.31195039 4.22282171 7.97093218 5.36600906 11 6 C13.51591634 4.90588186 15.66633378 3.4693454 18 2 C18.99 2 19.98 2 21 2 C21 2.66 21 3.32 21 4 C21.66 3.67 22.32 3.34 23 3 C23.33 2.01 23.66 1.02 24 0 C24.66 0.33 25.32 0.66 26 1 C26 1.99 26 2.98 26 4 C27.96722008 5.38123963 29.96868328 6.71488126 32 8 C32.495 8.99 32.495 8.99 33 10 C33.33 10 33.66 10 34 10 C34 13.96 34 17.92 34 22 C24.25 27 24.25 27 22 27 C21.67 23.37 21.34 19.74 21 16 C17.22187788 14.5669192 13.45857404 13.15285801 9.625 11.875 C7 11 7 11 5 10 C5 9.34 5 8.68 5 8 C1.535 6.02 1.535 6.02 -2 4 C-1.34 2.68 -0.68 1.36 0 0 Z " fill="#49A4C6" transform="translate(115,79)"/>
<path d="M0 0 C2 0 2 0 3.375 1.25 C3.91125 1.8275 4.4475 2.405 5 3 C5.68835938 3.5671875 6.37671875 4.134375 7.0859375 4.71875 C9.59666201 7.7111237 9.41726597 9.40288277 9.25 13.25 C9.21390625 14.32765625 9.1778125 15.4053125 9.140625 16.515625 C9.07101563 17.74539062 9.07101563 17.74539062 9 19 C9.99 19 10.98 19 12 19 C13.09651823 22.41139003 12.94215473 25.20655581 12.5625 28.75 C12.46066406 29.73484375 12.35882813 30.7196875 12.25390625 31.734375 C12.17011719 32.48203125 12.08632812 33.2296875 12 34 C10.5608866 33.71640113 9.12374482 33.42278601 7.6875 33.125 C6.88699219 32.96257812 6.08648437 32.80015625 5.26171875 32.6328125 C3 32 3 32 0 30 C-0.22241655 27.41403691 -0.28136917 25.07538488 -0.1875 22.5 C-0.17396484 21.81035156 -0.16042969 21.12070313 -0.14648438 20.41015625 C-0.10956718 18.60648769 -0.05583247 16.80318215 0 15 C0 14.34 0 13.68 0 13 C0 8.66666667 0 4.33333333 0 0 Z " fill="#ED8D4E" transform="translate(63,110)"/>
<path d="M0 0 C0.40277054 4.32978332 0.7104551 8.66128109 1 13 C1.17208984 14.88332031 1.17208984 14.88332031 1.34765625 16.8046875 C1.87974323 25.95658361 1.87974323 25.95658361 -0.6796875 28.9921875 C-3.9078763 31.08518903 -6.12936857 32 -10 32 C-10 28.04 -10 24.08 -10 20 C-10.66 19.67 -11.32 19.34 -12 19 C-11.67 18.34 -11.34 17.68 -11 17 C-10.97424377 15.06255919 -10.95422353 13.12503983 -10.9375 11.1875 C-10.54757549 5.58737723 -10.54757549 5.58737723 -8.2265625 3.09765625 C-5.50857832 1.40504878 -3.24909587 0 0 0 Z " fill="#4191AE" transform="translate(162,112)"/>
<path d="M0 0 C0 3.96 0 7.92 0 12 C-0.99 12.495 -0.99 12.495 -2 13 C-1.34 13.66 -0.68 14.32 0 15 C0.1953125 17.8203125 0.1953125 17.8203125 0.125 21.125 C0.10695312 22.22070312 0.08890625 23.31640625 0.0703125 24.4453125 C0.03550781 25.70988281 0.03550781 25.70988281 0 27 C-0.66 27.33 -1.32 27.66 -2 28 C-1.67 28.66 -1.34 29.32 -1 30 C-3.97 30.66 -6.94 31.32 -10 32 C-10 28 -10 24 -10 20 C-10.33 23.96 -10.66 27.92 -11 32 C-11.33 32 -11.66 32 -12 32 C-12 28.37 -12 24.74 -12 21 C-12.66 20.67 -13.32 20.34 -14 20 C-13.34 20 -12.68 20 -12 20 C-12 19.34 -12 18.68 -12 18 C-11.34 17.67 -10.68 17.34 -10 17 C-10 13.04 -10 9.08 -10 5 C-1.125 0 -1.125 0 0 0 Z " fill="#4BA9CC" transform="translate(149,104)"/>
<path d="M0 0 C0.99 0.33 1.98 0.66 3 1 C2.01 1.495 2.01 1.495 1 2 C1.14084796 3.79206547 1.28783701 5.58364917 1.4375 7.375 C1.51871094 8.37273437 1.59992188 9.37046875 1.68359375 10.3984375 C1.84965626 12.97927613 1.84965626 12.97927613 3 15 C2.01 15 1.02 15 0 15 C0 18.96 0 22.92 0 27 C-4.13354822 26.51775271 -7.95541924 26.01114519 -12 25 C-11.67 28.96 -11.34 32.92 -11 37 C-11.66 37 -12.32 37 -13 37 C-13 36.34 -13 35.68 -13 35 C-14.65 34.67 -16.3 34.34 -18 34 C-17.01 33.505 -17.01 33.505 -16 33 C-15.01 33.33 -14.02 33.66 -13 34 C-13.01047363 33.22285645 -13.02094727 32.44571289 -13.03173828 31.64501953 C-13.07320282 28.138379 -13.09929578 24.63178994 -13.125 21.125 C-13.14175781 19.90167969 -13.15851563 18.67835938 -13.17578125 17.41796875 C-13.18222656 16.25136719 -13.18867187 15.08476563 -13.1953125 13.8828125 C-13.20578613 12.80402832 -13.21625977 11.72524414 -13.22705078 10.61376953 C-13 8 -13 8 -11 6 C-9.6696875 6.9590625 -9.6696875 6.9590625 -8.3125 7.9375 C-4.91630072 10.32164344 -4.91630072 10.32164344 0 11 C0 7.37 0 3.74 0 0 Z " fill="#3E6AAB" transform="translate(88,110)"/>
<path d="M0 0 C2 1 2 1 3.75 2.375 C6.36377368 4.26272544 9.09468191 5.61337091 12 7 C11.67 10.96 11.34 14.92 11 19 C11.66 19.33 12.32 19.66 13 20 C11.02 20.99 11.02 20.99 9 22 C9.99 22.33 10.98 22.66 12 23 C11.67 26.63 11.34 30.26 11 34 C12.670625 32.9790625 12.670625 32.9790625 14.375 31.9375 C16.2734375 30.77734375 16.2734375 30.77734375 18 30 C18.66 30.33 19.32 30.66 20 31 C19.375 32.8125 19.375 32.8125 18 35 C16.989375 35.350625 15.97875 35.70125 14.9375 36.0625 C11.75694645 37.67687501 11.75694645 37.67687501 11.38671875 40.6328125 C11.14694389 43.43137872 11.00953579 46.19171098 11 49 C11.66 49.33 12.32 49.66 13 50 C12.01 50.66 11.02 51.32 10 52 C9.41407366 55.11610554 9.41407366 55.11610554 9.3125 58.625 C9.24675781 59.81351563 9.18101563 61.00203125 9.11328125 62.2265625 C9.07589844 63.14179688 9.03851563 64.05703125 9 65 C9.99 65.33 10.98 65.66 12 66 C11.01 66 10.02 66 9 66 C9 66.66 9 67.32 9 68 C8.34 67.67 7.68 67.34 7 67 C7.02320312 66.15695313 7.04640625 65.31390625 7.0703125 64.4453125 C7.08835937 63.34960938 7.10640625 62.25390625 7.125 61.125 C7.14820312 60.03445312 7.17140625 58.94390625 7.1953125 57.8203125 C7.30060534 54.8628949 7.30060534 54.8628949 5 53 C5.99 52.505 5.99 52.505 7 52 C6.99476318 51.16452637 6.98952637 50.32905273 6.98413086 49.46826172 C6.9668407 46.29606391 6.9544315 43.12389053 6.94506836 39.95166016 C6.93770992 37.93260071 6.92498838 35.91356303 6.91210938 33.89453125 C6.89070536 25.20450174 7.25150106 16.65625944 8 8 C7.23300781 7.87753906 6.46601562 7.75507812 5.67578125 7.62890625 C2.33835015 6.84448814 0.53852367 5.24840668 -2 3 C-1.34 2.01 -0.68 1.02 0 0 Z " fill="#305D92" transform="translate(115,94)"/>
<path d="M0 0 C3.29334383 1.36029419 6.01197118 3.07431206 8.875 5.1875 C1.16071429 11.1875 1.16071429 11.1875 -2.125 11.1875 C-2.125 15.1475 -2.125 19.1075 -2.125 23.1875 C-3.775 22.8575 -5.425 22.5275 -7.125 22.1875 C-7.455 21.1975 -7.785 20.2075 -8.125 19.1875 C-9.115 18.8575 -10.105 18.5275 -11.125 18.1875 C-12.32578749 8.96478497 -12.32578749 8.96478497 -9.5546875 4.86328125 C-6.43143802 1.93597708 -4.33525099 0.26011506 0 0 Z " fill="#F18B4E" transform="translate(74.125,74.8125)"/>
<path d="M0 0 C1.32 0.66 2.64 1.32 4 2 C4 16.52 4 31.04 4 46 C3.67 46 3.34 46 3 46 C3 42.04 3 38.08 3 34 C-1.95946924 35.84929037 -1.95946924 35.84929037 -6 39 C-6.82438062 42.50791129 -6.93864821 45.63619998 -6.90234375 49.234375 C-6.93457031 50.14703125 -6.96679688 51.0596875 -7 52 C-7.99 52.495 -7.99 52.495 -9 53 C-8.01 53.33 -7.02 53.66 -6 54 C-6 58.29 -6 62.58 -6 67 C-6.99 67 -7.98 67 -9 67 C-9 67.66 -9 68.32 -9 69 C-9.66 68.67 -10.32 68.34 -11 68 C-10.97679687 67.15695313 -10.95359375 66.31390625 -10.9296875 65.4453125 C-10.91164062 64.34960938 -10.89359375 63.25390625 -10.875 62.125 C-10.84019531 60.48917969 -10.84019531 60.48917969 -10.8046875 58.8203125 C-10.69939466 55.8628949 -10.69939466 55.8628949 -13 54 C-11.515 53.505 -11.515 53.505 -10 53 C-10.11382653 51.04098546 -10.24141125 49.0827662 -10.375 47.125 C-10.44460937 46.03445312 -10.51421875 44.94390625 -10.5859375 43.8203125 C-10.73253491 40.86953526 -10.73253491 40.86953526 -13 39 C-11.515 38.505 -11.515 38.505 -10 38 C-9.67 38.33 -9.34 38.66 -9 39 C-9 33.72 -9 28.44 -9 23 C-8.01 23.33 -7.02 23.66 -6 24 C-6.33 27.63 -6.66 31.26 -7 35 C-2.12410656 33.03678296 -2.12410656 33.03678296 2 30 C3.09034535 26.30321005 3.16788169 22.83441772 3 19 C2.34 18.67 1.68 18.34 1 18 C0.67 17.34 0.34 16.68 0 16 C0.66 15.67 1.32 15.34 2 15 C2.4683265 12.41394668 2.4683265 12.41394668 2.625 9.4375 C2.69976562 8.42558594 2.77453125 7.41367188 2.8515625 6.37109375 C2.90054688 5.58863281 2.94953125 4.80617188 3 4 C1.68 4.33 0.36 4.66 -1 5 C-0.34 4.01 0.32 3.02 1 2 C0.67 1.34 0.34 0.68 0 0 Z " fill="#255265" transform="translate(159,78)"/>
<path d="M0 0 C0.66 0 1.32 0 2 0 C2 1.32 2 2.64 2 4 C5.82989106 5.80230168 8.78121808 6.19622241 13 6 C13.33 7.65 13.66 9.3 14 11 C13.01 10.67 12.02 10.34 11 10 C11 13.3 11 16.6 11 20 C8 21 8 21 6.17578125 20.22265625 C4.45052083 19.1484375 2.72526042 18.07421875 1 17 C-0.81115956 18.81115956 -0.38199448 21.61278227 -0.5625 24.0625 C-0.64628906 25.16722656 -0.73007813 26.27195312 -0.81640625 27.41015625 C-0.87699219 28.26480469 -0.93757813 29.11945313 -1 30 C-3.34727157 26.47909265 -3.1146403 25.68357403 -2.625 21.625 C-2.01902997 15.91355834 -1.98818032 10.35430462 -2.16015625 4.6171875 C-2 2 -2 2 0 0 Z " fill="#4868A9" transform="translate(77,86)"/>
<path d="M0 0 C0.54269531 0.28875 1.08539063 0.5775 1.64453125 0.875 C2.71767578 1.431875 2.71767578 1.431875 3.8125 2 C4.52019531 2.37125 5.22789063 2.7425 5.95703125 3.125 C8.08920729 4.19685358 8.08920729 4.19685358 11 4 C11 4.66 11 5.32 11 6 C11.66 6.66 12.32 7.32 13 8 C12.34 8 11.68 8 11 8 C11 11.63 11 15.26 11 19 C7.35381462 18.71402468 4.41090181 18.18359443 1.0625 16.6875 C-2.29332743 12.31475517 -1.54291949 7.32061103 -1 2 C-0.67 1.34 -0.34 0.68 0 0 Z " fill="#E9934E" transform="translate(77,102)"/>
<path d="M0 0 C0.928125 0.2784375 0.928125 0.2784375 1.875 0.5625 C4.04160178 1.23686176 4.04160178 1.23686176 6 0 C9.0625 0.6875 9.0625 0.6875 12 2 C13.34899145 5.26871006 12.93289642 8.29296674 12.5625 11.75 C12.46066406 12.73484375 12.35882813 13.7196875 12.25390625 14.734375 C12.17011719 15.48203125 12.08632812 16.2296875 12 17 C7.24052987 17 5.75146024 15.77281844 2 13 C0 11 0 11 -0.1953125 8.3984375 C-0.17210938 7.40070313 -0.14890625 6.40296875 -0.125 5.375 C-0.10695313 4.37210937 -0.08890625 3.36921875 -0.0703125 2.3359375 C-0.04710938 1.56507812 -0.02390625 0.79421875 0 0 Z " fill="#4C79C9" transform="translate(89,112)"/>
<path d="M0 0 C0.66 0.33 1.32 0.66 2 1 C1.01 1.66 0.02 2.32 -1 3 C1.51767663 5.11591972 3.89757584 6.86279385 7 8 C10.07830907 7.25642197 12.4384045 5.83263083 15 4 C15 3.01 15 2.02 15 1 C17.49361571 2.20381448 19.68143083 3.45428722 22 5 C17.05 7.97 17.05 7.97 12 11 C17.54702838 14.61593557 17.54702838 14.61593557 24 15 C23.67 15.66 23.34 16.32 23 17 C22.34 17 21.68 17 21 17 C20.67 18.32 20.34 19.64 20 21 C19.34 21 18.68 21 18 21 C16.33333333 19.33333333 14.66666667 17.66666667 13 16 C9.92678462 13.98320241 7.64626491 13.79742973 4 14 C3.79375 13.4225 3.5875 12.845 3.375 12.25 C1.50249112 9.18589456 -0.96958519 7.84460032 -4 6 C-3.6875 4.125 -3.6875 4.125 -3 2 C-2.01 1.34 -1.02 0.68 0 0 Z " fill="#2E5576" transform="translate(118,62)"/>
<path d="M0 0 C0.66 0.33 1.32 0.66 2 1 C1.34 1.61875 0.68 2.2375 0 2.875 C-2.2284549 4.75637427 -2.2284549 4.75637427 -2 7 C-0.34785067 8.29697078 -0.34785067 8.29697078 1.75 9.5 C2.44609375 9.9228125 3.1421875 10.345625 3.859375 10.78125 C7.39348877 12.79337317 11.03088465 14.48421382 14.75 16.125 C15.54921875 16.47820312 16.3484375 16.83140625 17.171875 17.1953125 C17.77515625 17.46085937 18.3784375 17.72640625 19 18 C18.01347016 21.31832766 17.31268497 22.76548627 14.5 24.875 C13.675 25.24625 12.85 25.6175 12 26 C11.34 25.67 10.68 25.34 10 25 C10 24.01 10 23.02 10 22 C10.99 21.34 11.98 20.68 13 20 C8.52845539 16.88043549 8.52845539 16.88043549 3.375 16.125 C0.89425348 17.03895924 -1.56968455 17.95843623 -4 19 C-4.33 18.01 -4.66 17.02 -5 16 C-3.35 15.67 -1.7 15.34 0 15 C-1.23263349 11.30209954 -2.20052451 11.0645154 -5.5625 9.3125 C-6.38878906 8.87550781 -7.21507813 8.43851563 -8.06640625 7.98828125 C-8.70449219 7.66214844 -9.34257813 7.33601563 -10 7 C-9.01 6.67 -8.02 6.34 -7 6 C-7 5.34 -7 4.68 -7 4 C-1.7265625 0.77734375 -1.7265625 0.77734375 0 0 Z " fill="#355985" transform="translate(95,60)"/>
<path d="M0 0 C9.88235294 1.15294118 9.88235294 1.15294118 12 2 C13.10370043 5.3111013 12.92673641 7.24748949 12.5625 10.6875 C12.46066406 11.68136719 12.35882813 12.67523438 12.25390625 13.69921875 C12.17011719 14.45847656 12.08632812 15.21773437 12 16 C11.67 16 11.34 16 11 16 C11 12.04 11 8.08 11 4 C9.71387324 5.05978933 9.71387324 5.05978933 9.90234375 7.50390625 C9.91394531 8.51324219 9.92554687 9.52257812 9.9375 10.5625 C9.94652344 11.57441406 9.95554687 12.58632812 9.96484375 13.62890625 C9.97644531 14.41136719 9.98804687 15.19382813 10 16 C6.78470357 15.70770032 4.43326381 15.25083694 1.625 13.625 C-1.00290025 9.37993036 -0.30188629 4.86372362 0 0 Z " fill="#4976C0" transform="translate(76,135)"/>
<path d="M0 0 C3.95008059 0.68379546 6.63457018 1.78843183 10 4 C9.67 4.66 9.34 5.32 9 6 C9.66 6.33 10.32 6.66 11 7 C11 10.63 11 14.26 11 18 C6.62969291 17.49182476 3.43194088 16.82903235 0 14 C-0.48828125 10.64453125 -0.48828125 10.64453125 -0.3125 6.8125 C-0.24482422 4.90404297 -0.24482422 4.90404297 -0.17578125 2.95703125 C-0.11777344 1.98121094 -0.05976562 1.00539063 0 0 Z " fill="#E98C4F" transform="translate(88,125)"/>
<path d="M0 0 C4.37180549 0.50834948 7.52620878 1.23035565 11 4 C11.48828125 6.91796875 11.48828125 6.91796875 11.3125 10.1875 C11.26738281 11.27417969 11.22226563 12.36085937 11.17578125 13.48046875 C11.11777344 14.31191406 11.05976562 15.14335937 11 16 C11.66 16.33 12.32 16.66 13 17 C10.47518613 17.93616694 9.40525028 18.17818983 6.89453125 17.07421875 C6.20746094 16.61660156 5.52039063 16.15898437 4.8125 15.6875 C4.11769531 15.23761719 3.42289062 14.78773438 2.70703125 14.32421875 C1 13 1 13 0 11 C-0.07033769 9.12620395 -0.0843022 7.24998898 -0.0625 5.375 C-0.05347656 4.37210938 -0.04445313 3.36921875 -0.03515625 2.3359375 C-0.02355469 1.56507813 -0.01195313 0.79421875 0 0 Z " fill="#ED894E" transform="translate(102,150)"/>
<path d="M0 0 C-0.9520721 1.00596297 -1.91187346 2.00461563 -2.875 3 C-3.40867187 3.556875 -3.94234375 4.11375 -4.4921875 4.6875 C-6 6 -6 6 -8 6 C-7.88610125 7.79240663 -7.75852313 9.58394835 -7.625 11.375 C-7.55539063 12.37273437 -7.48578125 13.37046875 -7.4140625 14.3984375 C-7.23636036 17.15508879 -7.23636036 17.15508879 -5 19 C-5.33 19.66 -5.66 20.32 -6 21 C-6.66 21 -7.32 21 -8 21 C-7.91276622 22.77174819 -7.80458345 24.54247377 -7.6875 26.3125 C-7.62949219 27.29863281 -7.57148437 28.28476563 -7.51171875 29.30078125 C-6.95377187 32.24384457 -6.31459868 33.18182999 -4 35 C-5.485 35.495 -5.485 35.495 -7 36 C-7 36.75925781 -7 37.51851562 -7 38.30078125 C-7 44.46217052 -7.01323075 50.54203827 -7.5 56.6875 C-7.5928125 57.86699219 -7.685625 59.04648438 -7.78125 60.26171875 C-7.8534375 61.16535156 -7.925625 62.06898438 -8 63 C-8.66 63 -9.32 63 -10 63 C-10.18558524 55.39421381 -10.32761753 47.78866296 -10.41449738 40.18112659 C-10.45620407 36.64817505 -10.51273508 33.11677514 -10.60351562 29.5847168 C-10.70729934 25.5211729 -10.7459247 21.45925093 -10.78125 17.39453125 C-10.82254028 16.1297847 -10.86383057 14.86503815 -10.90637207 13.56196594 C-10.91074352 5.01910309 -10.91074352 5.01910309 -8.23608398 2.0262146 C-2.94001032 -1.47000516 -2.94001032 -1.47000516 0 0 Z " fill="#896F56" transform="translate(71,76)"/>
<path d="M0 0 C4.22999675 1.05749919 4.54930356 1.20032488 6.75 4.5625 C7.17796875 5.20316406 7.6059375 5.84382812 8.046875 6.50390625 C8.36140625 6.99761719 8.6759375 7.49132812 9 8 C9.33 5.36 9.66 2.72 10 0 C11.32 0 12.64 0 14 0 C14 5.61 14 11.22 14 17 C9.40804906 15.85201226 9.12179476 15.26471427 6.75 11.4375 C6.22921875 10.61121094 5.7084375 9.78492188 5.171875 8.93359375 C4.78515625 8.29550781 4.3984375 7.65742188 4 7 C3.67 9.97 3.34 12.94 3 16 C2.01 16 1.02 16 0 16 C0 10.72 0 5.44 0 0 Z " fill="#121212" transform="translate(74,169)"/>
<path d="M0 0 C3.26880269 1.53433596 6.12676694 3.34054781 9.0625 5.4375 C9 7.25 9 7.25 8.0625 9.4375 C4.5 11.1875 4.5 11.1875 1.0625 12.4375 C0.7325 15.7375 0.4025 19.0375 0.0625 22.4375 C-0.2675 22.4375 -0.5975 22.4375 -0.9375 22.4375 C-0.99141993 20.64616022 -1.03025571 18.85436101 -1.0625 17.0625 C-1.08570312 16.06476563 -1.10890625 15.06703125 -1.1328125 14.0390625 C-0.9375 11.4375 -0.9375 11.4375 1.0625 9.4375 C0.49015625 9.65277344 -0.0821875 9.86804688 -0.671875 10.08984375 C-3.68167351 10.55169214 -4.71035691 9.69271444 -7.1875 8 C-7.89390625 7.52691406 -8.6003125 7.05382812 -9.328125 6.56640625 C-9.85921875 6.19386719 -10.3903125 5.82132812 -10.9375 5.4375 C-4.73606624 -0.9069063 -4.73606624 -0.9069063 0 0 Z " fill="#4CAACD" transform="translate(100.9375,90.5625)"/>
<path d="M0 0 C8.625 -0.25 8.625 -0.25 12 2 C12.375 5.5 12.375 5.5 12 9 C8.77208445 11.1519437 7.71599191 11.20086443 4 11 C4 12.98 4 14.96 4 17 C2.68 17 1.36 17 0 17 C0 11.39 0 5.78 0 0 Z " fill="#101010" transform="translate(126,169)"/>
<path d="M0 0 C7.5 1.5 7.5 1.5 11 5 C11.82588958 9.33323885 11.98727019 13.59548708 12 18 C7.57729859 17.28881183 5.39914157 15.93979812 2 13 C1.34 12.67 0.68 12.34 0 12 C0 8.04 0 4.08 0 0 Z " fill="#E4864B" transform="translate(102,104)"/>
<path d="M0 0 C2.29160319 -0.02692484 4.58329546 -0.04636124 6.875 -0.0625 C8.15117188 -0.07410156 9.42734375 -0.08570313 10.7421875 -0.09765625 C14 0 14 0 16 1 C16 4.63 16 8.26 16 12 C15.01 12 14.02 12 13 12 C13 9.03 13 6.06 13 3 C12.01 3 11.02 3 10 3 C10 6.3 10 9.6 10 13 C8.68 13 7.36 13 6 13 C6 9.7 6 6.4 6 3 C5.01 3 4.02 3 3 3 C3 5.97 3 8.94 3 12 C2.01 12 1.02 12 0 12 C0 8.04 0 4.08 0 0 Z " fill="#141414" transform="translate(106,173)"/>
<path d="M0 0 C0.10841951 1.91541138 0.18578079 3.83259773 0.25 5.75 C0.29640625 6.81734375 0.3428125 7.8846875 0.390625 8.984375 C0 12 0 12 -1.8125 14.34375 C-4.51605044 16.39072391 -6.66045576 16.69640507 -10 17 C-10 13.04 -10 9.08 -10 5 C-12.475 4.01 -12.475 4.01 -15 3 C-12.32147752 1.66073876 -10.86420842 2.35555311 -8 3 C-4.73958878 3 -3.01987123 0 0 0 Z " fill="#F0BB51" transform="translate(123,149)"/>
<path d="M0 0 C3.95181381 1.06394987 6.77754099 2.72207542 10.25 4.875 C9.92 5.865 9.59 6.855 9.25 7.875 C7.1875 8.5625 7.1875 8.5625 5.25 8.875 C5.25 9.865 5.25 10.855 5.25 11.875 C3.25 13.5625 3.25 13.5625 1.25 14.875 C1.25 13.885 1.25 12.895 1.25 11.875 C-1.39 10.555 -4.03 9.235 -6.75 7.875 C-6.4375 5 -6.4375 5 -5.75 1.875 C-2.75 -0.125 -2.75 -0.125 0 0 Z " fill="#49A2C3" transform="translate(85.75,67.125)"/>
<path d="M0 0 C0 4.29 0 8.58 0 13 C-6.625 17 -6.625 17 -10 17 C-10 13.04 -10 9.08 -10 5 C-1.125 0 -1.125 0 0 0 Z " fill="#49A0C1" transform="translate(136,142)"/>
<path d="M0 0 C0.47576234 3.7730597 0.70612452 7.24805478 0 11 C-2.31084305 13.49022356 -4.82220751 14.8450192 -8 16 C-8.66 16 -9.32 16 -10 16 C-10 12.37 -10 8.74 -10 5 C-10.66 4.67 -11.32 4.34 -12 4 C-11.67 3.34 -11.34 2.68 -11 2 C-8.61370553 1.38812962 -6.46459429 1 -4 1 C-2 0 -2 0 0 0 Z " fill="#4BA9CC" transform="translate(136,112)"/>
<path d="M0 0 C0.10841951 1.91541138 0.18578079 3.83259773 0.25 5.75 C0.29640625 6.81734375 0.3428125 7.8846875 0.390625 8.984375 C0 12 0 12 -1.8125 14.34375 C-4.51605044 16.39072391 -6.66045576 16.69640507 -10 17 C-10.54794334 13.19822028 -10.78758851 9.77731596 -10 6 C-7.62787196 3.51020688 -3.67551862 0 0 0 Z " fill="#49A2C3" transform="translate(149,134)"/>
<path d="M0 0 C0 3.96 0 7.92 0 12 C-0.99 12.33 -1.98 12.66 -3 13 C-2.67 13.66 -2.34 14.32 -2 15 C-6.625 17.125 -6.625 17.125 -10 16 C-10.47576234 12.2269403 -10.70612452 8.75194522 -10 5 C-7.33739092 2.13070437 -3.99493222 0 0 0 Z " fill="#4BA9CC" transform="translate(162,112)"/>
<path d="M0 0 C0 3.96 0 7.92 0 12 C-1.98 12.99 -3.96 13.98 -6 15 C-5.67 15.66 -5.34 16.32 -5 17 C-6.9375 17.5625 -6.9375 17.5625 -9 18 C-10 17 -10 17 -10.09765625 14.27734375 C-10.08605469 13.17519531 -10.07445313 12.07304688 -10.0625 10.9375 C-10.05347656 9.83277344 -10.04445313 8.72804688 -10.03515625 7.58984375 C-10.02355469 6.73519531 -10.01195313 5.88054687 -10 5 C-8.52227402 4.1641146 -7.04277811 3.33135744 -5.5625 2.5 C-4.32693359 1.80390625 -4.32693359 1.80390625 -3.06640625 1.09375 C-1 0 -1 0 0 0 Z " fill="#FCC454" transform="translate(123,104)"/>
<path d="M0 0 C2.54190641 2.54190641 2.44301579 3.77338599 2.625 7.3125 C2.57170005 12.3893204 2.57170005 12.3893204 0.28125 14.8359375 C-4.7666185 18 -4.7666185 18 -8 18 C-8 14.37 -8 10.74 -8 7 C-5.69 5.68 -3.38 4.36 -1 3 C-1.33 2.34 -1.66 1.68 -2 1 C-1.34 0.67 -0.68 0.34 0 0 Z " fill="#4CAACD" transform="translate(134,125)"/>
<path d="M0 0 C0 3.96 0 7.92 0 12 C-4.95 14.475 -4.95 14.475 -10 17 C-10 13.04 -10 9.08 -10 5 C-1.125 0 -1.125 0 0 0 Z " fill="#4CABCE" transform="translate(149,104)"/>
<path d="M0 0 C0 3.96 0 7.92 0 12 C-4.95 14.475 -4.95 14.475 -10 17 C-10 13.04 -10 9.08 -10 5 C-1.125 0 -1.125 0 0 0 Z " fill="#4CAACD" transform="translate(149,89)"/>
<path d="M0 0 C0.47576234 3.7730597 0.70612452 7.24805478 0 11 C-2.31084305 13.49022356 -4.82220751 14.8450192 -8 16 C-8.66 16 -9.32 16 -10 16 C-10.47576234 12.2269403 -10.70612452 8.75194522 -10 5 C-7.33739092 2.13070437 -3.99493222 0 0 0 Z " fill="#4CABCE" transform="translate(162,97)"/>
<path d="M0 0 C0.47576234 3.7730597 0.70612452 7.24805478 0 11 C-2.31084305 13.49022356 -4.82220751 14.8450192 -8 16 C-8.66 16 -9.32 16 -10 16 C-10.47576234 12.2269403 -10.70612452 8.75194522 -10 5 C-7.33739092 2.13070437 -3.99493222 0 0 0 Z " fill="#4CABCE" transform="translate(136,97)"/>
<path d="M0 0 C0.47576234 3.7730597 0.70612452 7.24805478 0 11 C-2.31084305 13.49022356 -4.82220751 14.8450192 -8 16 C-8.66 16 -9.32 16 -10 16 C-10.47576234 12.2269403 -10.70612452 8.75194522 -10 5 C-7.33739092 2.13070437 -3.99493222 0 0 0 Z " fill="#4CABCE" transform="translate(162,82)"/>
<path d="M0 0 C2.04049422 1.2704964 4.05017465 2.59431196 6 4 C2.51816502 7.07220734 -0.33617885 9.35986768 -5 10 C-7.9160764 8.65533548 -10.44371042 6.93343729 -13 5 C-8.87308922 0.57830988 -6.10944248 -2.03648083 0 0 Z " fill="#4CA9CC" transform="translate(103,76)"/>
<path d="M0 0 C0.77601563 0.15726563 1.55203125 0.31453125 2.3515625 0.4765625 C4.375 1.375 4.375 1.375 5.6484375 3.4609375 C5.88820312 4.09257813 6.12796875 4.72421875 6.375 5.375 C3.16355926 7.55395249 0.13080045 9.33605105 -3.625 10.375 C-7.1248129 9.3501646 -9.77110458 7.61537684 -12.625 5.375 C-8.66058975 1.12741759 -5.93244648 -1.32934419 0 0 Z " fill="#4BA8CA" transform="translate(128.625,60.625)"/>
<path d="M0 0 C3.23039949 1.18185347 5.78140271 2.93252288 8.5625 4.9375 C2.24622093 10.35145349 2.24622093 10.35145349 -1.4375 10.9375 C-4.63095222 9.56426169 -7.52557622 7.82803004 -10.4375 5.9375 C-4.55331167 -0.11675158 -4.55331167 -0.11675158 0 0 Z " fill="#4CAACD" transform="translate(126.4375,75.0625)"/>
<path d="M0 0 C3.40351581 1.27631843 6.08161749 2.97095576 9 5.125 C7.68441297 6.14823436 6.34631825 7.14255155 5 8.125 C3.7934375 9.0221875 3.7934375 9.0221875 2.5625 9.9375 C0 11.125 0 11.125 -2.5625 10.5 C-4.87775164 9.19396061 -6.9406394 7.80299752 -9 6.125 C-4.13428357 0.17226182 -4.13428357 0.17226182 0 0 Z " fill="#FBC354" transform="translate(74,74.875)"/>
<path d="M0 0 C2 1 2 1 4.25 3 C7.27962699 5.20336509 9.31510822 5.65721937 13 6 C13 6.66 13 7.32 13 8 C13.33 8.66 13.66 9.32 14 10 C14.928125 10.309375 15.85625 10.61875 16.8125 10.9375 C19.8356686 11.94522287 21.71683682 12.80465079 24 15 C24 15.99 24 16.98 24 18 C23.01 18.33 22.02 18.66 21 19 C20.195625 18.1028125 20.195625 18.1028125 19.375 17.1875 C16.27809792 14.33509019 13.0313645 12.4182221 8.875 11.5625 C6.1726454 10.75179362 4.91951114 9.03584514 3 7 C1.34808509 5.64843325 -0.31522656 4.31037934 -2 3 C-1.34 2.01 -0.68 1.02 0 0 Z " fill="#375990" transform="translate(89,79)"/>
<path d="M0 0 C1.32 0 2.64 0 4 0 C4 3.3 4 6.6 4 10 C5.32 10 6.64 10 8 10 C8 6.7 8 3.4 8 0 C8.99 0 9.98 0 11 0 C11 3.96 11 7.92 11 12 C8.36 12.33 5.72 12.66 3 13 C0.95204577 11.0373772 0.05023362 9.5722693 -0.19921875 6.73046875 C-0.18858877 4.48045617 -0.12958525 2.24614438 0 0 Z " fill="#141414" transform="translate(91,173)"/>
<path d="M0 0 C0.99 0 1.98 0 3 0 C3.66 1.98 4.32 3.96 5 6 C5.309375 5.38125 5.61875 4.7625 5.9375 4.125 C6.625 2.75 7.3125 1.375 8 0 C8.99 0 9.98 0 11 0 C8.67123288 12.32876712 8.67123288 12.32876712 4 17 C2.68 17 1.36 17 0 17 C0 16.01 0 15.02 0 14 C0.99 13.67 1.98 13.34 3 13 C2.7834375 12.31292969 2.566875 11.62585938 2.34375 10.91796875 C2.0653125 10.01691406 1.786875 9.11585938 1.5 8.1875 C1.2215625 7.29417969 0.943125 6.40085938 0.65625 5.48046875 C0 3 0 3 0 0 Z " fill="#0A0A0A" transform="translate(141,173)"/>
<path d="M0 0 C2.73922932 0 3.14336348 0.04778783 6 1 C5.88655624 3.1464753 5.75893655 5.29220592 5.625 7.4375 C5.55539063 8.63246094 5.48578125 9.82742187 5.4140625 11.05859375 C5.27742187 12.02925781 5.14078125 12.99992188 5 14 C4.01 14.495 4.01 14.495 3 15 C3.99 15.33 4.98 15.66 6 16 C6 20.29 6 24.58 6 29 C5.01 29 4.02 29 3 29 C3 29.66 3 30.32 3 31 C2.34 30.67 1.68 30.34 1 30 C1.03480469 28.73542969 1.03480469 28.73542969 1.0703125 27.4453125 C1.08835938 26.34960938 1.10640625 25.25390625 1.125 24.125 C1.14820313 23.03445312 1.17140625 21.94390625 1.1953125 20.8203125 C1.30060534 17.8628949 1.30060534 17.8628949 -1 16 C-0.01 15.67 0.98 15.34 2 15 C1.88617347 13.04098546 1.75858875 11.0827662 1.625 9.125 C1.55539063 8.03445312 1.48578125 6.94390625 1.4140625 5.8203125 C1.26746509 2.86953526 1.26746509 2.86953526 -1 1 C-0.67 0.67 -0.34 0.34 0 0 Z " fill="#2A476B" transform="translate(147,116)"/>
<path d="M0 0 C2.475 0.99 2.475 0.99 5 2 C4.67 2.99 4.34 3.98 4 5 C3.01 4.67 2.02 4.34 1 4 C0.67 7.63 0.34 11.26 0 15 C0.99 15.33 1.98 15.66 3 16 C2.34 16.66 1.68 17.32 1 18 C0.53603307 20.89223503 0.53603307 20.89223503 0.375 24.125 C0.30023438 25.22070312 0.22546875 26.31640625 0.1484375 27.4453125 C0.09945312 28.28835937 0.05046875 29.13140625 0 30 C-2.475 29.01 -2.475 29.01 -5 28 C-4.34 27.67 -3.68 27.34 -3 27 C-3 23.37 -3 19.74 -3 16 C-3.99 15.67 -4.98 15.34 -6 15 C-5.35417969 14.7834375 -4.70835938 14.566875 -4.04296875 14.34375 C-1.72874031 13.15972522 -1.72874031 13.15972522 -1.42578125 10.46875 C-1.38839844 9.4890625 -1.35101563 8.509375 -1.3125 7.5 C-1.06521739 2.13043478 -1.06521739 2.13043478 0 0 Z " fill="#A27C43" transform="translate(102,116)"/>
<path d="M0 0 C1.66666667 0 3.33333333 0 5 0 C5.24887295 2.10192697 5.4734719 4.20673964 5.6875 6.3125 C5.81511719 7.48425781 5.94273437 8.65601562 6.07421875 9.86328125 C6 13 6 13 4.53125 14.5625 C3.77328125 15.2740625 3.77328125 15.2740625 3 16 C2.63729516 18.74243563 2.63729516 18.74243563 2.8125 21.6875 C2.83957031 22.68136719 2.86664063 23.67523438 2.89453125 24.69921875 C2.92933594 25.45847656 2.96414062 26.21773437 3 27 C3.99 27.33 4.98 27.66 6 28 C5.01 28 4.02 28 3 28 C3 28.66 3 29.32 3 30 C2.34 29.67 1.68 29.34 1 29 C1.33 25.37 1.66 21.74 2 18 C1.21625 18.515625 0.4325 19.03125 -0.375 19.5625 C-1.24125 20.036875 -2.1075 20.51125 -3 21 C-3.66 20.67 -4.32 20.34 -5 20 C-5 19.01 -5 18.02 -5 17 C-4.030625 16.731875 -3.06125 16.46375 -2.0625 16.1875 C1.22571815 14.34716211 1.22571815 14.34716211 1.62109375 11.3515625 C1.85441221 8.55892004 1.99048582 5.80192703 2 3 C1.34 2.67 0.68 2.34 0 2 C0 1.34 0 0.68 0 0 Z " fill="#294465" transform="translate(134,94)"/>
<path d="M0 0 C1.32 0.66 2.64 1.32 4 2 C3.67 5.63 3.34 9.26 3 13 C3.66 13.33 4.32 13.66 5 14 C4.01 14.66 3.02 15.32 2 16 C1.41407366 19.11610554 1.41407366 19.11610554 1.3125 22.625 C1.24675781 23.81351563 1.18101563 25.00203125 1.11328125 26.2265625 C1.07589844 27.14179688 1.03851563 28.05703125 1 29 C1.99 29.33 2.98 29.66 4 30 C3.01 30 2.02 30 1 30 C1 30.66 1 31.32 1 32 C0.34 31.67 -0.32 31.34 -1 31 C-0.96519531 29.73542969 -0.96519531 29.73542969 -0.9296875 28.4453125 C-0.91164063 27.34960938 -0.89359375 26.25390625 -0.875 25.125 C-0.85179688 24.03445312 -0.82859375 22.94390625 -0.8046875 21.8203125 C-0.69939466 18.8628949 -0.69939466 18.8628949 -3 17 C-2.34 16.67 -1.68 16.34 -1 16 C-1.01160156 14.92878906 -1.02320312 13.85757813 -1.03515625 12.75390625 C-1.04453299 11.35677257 -1.05363331 9.95963701 -1.0625 8.5625 C-1.07506836 7.50192383 -1.07506836 7.50192383 -1.08789062 6.41992188 C-1.09653588 4.61306441 -1.05220011 2.80612397 -1 1 C-0.67 0.67 -0.34 0.34 0 0 Z " fill="#2A507E" transform="translate(123,130)"/>
<path d="M0 0 C2 1 2 1 3.8125 2.4375 C6.13145843 4.09389888 8.33504617 5.0181749 11 6 C11.66 6.33 12.32 6.66 13 7 C13 7.33 13 7.66 13 8 C14.64639965 9.35827971 16.31295807 10.69254251 18 12 C17.67 12.66 17.34 13.32 17 14 C16.319375 13.690625 15.63875 13.38125 14.9375 13.0625 C11.63034088 11.86629351 8.48454122 11.40994603 5 11 C5 10.01 5 9.02 5 8 C1.535 6.02 1.535 6.02 -2 4 C-1.34 2.68 -0.68 1.36 0 0 Z " fill="#3F66A1" transform="translate(115,79)"/>
<path d="M0 0 C-0.33 0.99 -0.66 1.98 -1 3 C-2.7325 3.7425 -2.7325 3.7425 -4.5 4.5 C-6.47634755 5.40494994 -6.47634755 5.40494994 -8 7 C-8.9282224 10.67045657 -9.0455582 14.22517751 -9 18 C-10.32 17.67 -11.64 17.34 -13 17 C-13.16564686 12.8455768 -13.0846413 9.02941624 -12 5 C-8.55520882 1.6510877 -4.79203763 0 0 0 Z " fill="#CD9746" transform="translate(84,81)"/>
<path d="M0 0 C0.66 0.33 1.32 0.66 2 1 C1.67 2.32 1.34 3.64 1 5 C3.97 5.99 6.94 6.98 10 8 C9.34 9.65 8.68 11.3 8 13 C7.34 13 6.68 13 6 13 C4.948125 11.8553125 4.948125 11.8553125 3.875 10.6875 C0.34895891 7.39141811 -2.44397762 6.46719365 -7 5 C-6.360625 4.896875 -5.72125 4.79375 -5.0625 4.6875 C-4.381875 4.460625 -3.70125 4.23375 -3 4 C-2.67 3.01 -2.34 2.02 -2 1 C-1.34 0.67 -0.68 0.34 0 0 Z " fill="#395A8B" transform="translate(78,70)"/>
<path d="M0 0 C2 1 2 1 4.3125 2.9375 C6.851945 4.8863764 8.9940124 5.96937568 12 7 C11.34 8.65 10.68 10.3 10 12 C9.34 12 8.68 12 8 12 C6.948125 10.8553125 6.948125 10.8553125 5.875 9.6875 C2.34895891 6.39141811 -0.44397762 5.46719365 -5 4 C-3.73293765 1.46587529 -2.59334288 1.02161992 0 0 Z " fill="#385377" transform="translate(102,56)"/>
<path d="M0 0 C0.66 0.33 1.32 0.66 2 1 C2 1.99 2 2.98 2 4 C-4.75 8 -4.75 8 -7 8 C-7 11.96 -7 15.92 -7 20 C-7.66 20 -8.32 20 -9 20 C-9 15.38 -9 10.76 -9 6 C-8.01 5.67 -7.02 5.34 -6 5 C-4.97895449 4.02149805 -3.9793879 3.02019573 -3 2 C-2.01 1.34 -1.02 0.68 0 0 Z " fill="#3F74A7" transform="translate(133,139)"/>
<path d="M0 0 C0.99 0.33 1.98 0.66 3 1 C2.01 1.495 2.01 1.495 1 2 C1.14084796 3.79206547 1.28783701 5.58364917 1.4375 7.375 C1.51871094 8.37273437 1.59992188 9.37046875 1.68359375 10.3984375 C1.84965626 12.97927613 1.84965626 12.97927613 3 15 C2.01 15 1.02 15 0 15 C0 18.96 0 22.92 0 27 C-1.32 26.67 -2.64 26.34 -4 26 C-3.34 26 -2.68 26 -2 26 C-2.14084796 24.20793453 -2.28783701 22.41635083 -2.4375 20.625 C-2.51871094 19.62726563 -2.59992188 18.62953125 -2.68359375 17.6015625 C-2.84965626 15.02072387 -2.84965626 15.02072387 -4 13 C-3.01 13 -2.02 13 -1 13 C-1.66 12.34 -2.32 11.68 -3 11 C-2.01 11 -1.02 11 0 11 C0 7.37 0 3.74 0 0 Z " fill="#3F708B" transform="translate(88,110)"/>
<path d="M0 0 C1.67542976 0.28604898 3.34385343 0.61781233 5 1 C4.67 1.99 4.34 2.98 4 4 C3.34 4 2.68 4 2 4 C2.33 7.96 2.66 11.92 3 16 C2.34 16 1.68 16 1 16 C1 15.34 1 14.68 1 14 C-0.65 13.67 -2.3 13.34 -4 13 C-3.34 12.67 -2.68 12.34 -2 12 C-1.56947737 9.44648887 -1.56947737 9.44648887 -1.4375 6.5 C-1.09628611 1.09628611 -1.09628611 1.09628611 0 0 Z " fill="#4E686E" transform="translate(100,146)"/>
<path d="M0 0 C0.66 0.33 1.32 0.66 2 1 C2 15.375 2 15.375 1.5 21.6875 C1.4071875 22.86699219 1.314375 24.04648438 1.21875 25.26171875 C1.1465625 26.16535156 1.074375 27.06898438 1 28 C0.34 28 -0.32 28 -1 28 C-1.12873737 18.58786748 -0.79822348 9.37912587 0 0 Z " fill="#8C6148" transform="translate(62,111)"/>
<path d="M0 0 C2.24820232 1.12410116 4.02986929 2.43548444 6 4 C7.11375 4.7425 7.11375 4.7425 8.25 5.5 C11.11629864 9.59471234 10.30066977 14.15587597 10 19 C9.67 19 9.34 19 9 19 C9.04382813 18.33613281 9.08765625 17.67226562 9.1328125 16.98828125 C9.12420845 14.0413947 8.96840013 11.79428232 8 9 C4.9214282 6.61371351 1.66670716 5.26438178 -2 4 C-1.34 2.68 -0.68 1.36 0 0 Z " fill="#3F639D" transform="translate(115,94)"/>
<path d="M0 0 C2.49361571 1.20381448 4.68143083 2.45428722 7 4 C0.07 7.465 0.07 7.465 -7 11 C-7 9.68 -7 8.36 -7 7 C-5.25 5.515625 -5.25 5.515625 -3 4.25 C-2.2575 3.82203125 -1.515 3.3940625 -0.75 2.953125 C-0.1725 2.63859375 0.405 2.3240625 1 2 C0.67 1.34 0.34 0.68 0 0 Z " fill="#366E83" transform="translate(133,63)"/>
<path d="M0 0 C0 0.66 0 1.32 0 2 C-3.06745834 4.1301794 -5.32652921 5.0816323 -9 6 C-9.33 9.96 -9.66 13.92 -10 18 C-10.33 18 -10.66 18 -11 18 C-11 14.37 -11 10.74 -11 7 C-11.66 6.67 -12.32 6.34 -13 6 C-12.34 6 -11.68 6 -11 6 C-11 5.34 -11 4.68 -11 4 C-10.01 4 -9.02 4 -8 4 C-8 3.34 -8 2.68 -8 2 C-3.61016949 -1.20338983 -3.61016949 -1.20338983 0 0 Z " fill="#4281B0" transform="translate(148,118)"/>
<path d="M0 0 C1.32 0.33 2.64 0.66 4 1 C4 9.58 4 18.16 4 27 C3.67 27 3.34 27 3 27 C2.94465088 26.2886792 2.88930176 25.5773584 2.83227539 24.84448242 C2.57957911 21.62516867 2.32110798 18.40634403 2.0625 15.1875 C1.97548828 14.06794922 1.88847656 12.94839844 1.79882812 11.79492188 C1.66831055 10.18520508 1.66831055 10.18520508 1.53515625 8.54296875 C1.456604 7.55321045 1.37805176 6.56345215 1.29711914 5.54370117 C1.07382992 2.88144162 1.07382992 2.88144162 0 0 Z " fill="#3F65A9" transform="translate(147,101)"/>
<path d="M0 0 C4 0 4 0 7 1 C7 1.99 7 2.98 7 4 C6.34 4 5.68 4 5 4 C4.67 7.63 4.34 11.26 4 15 C1.525 14.01 1.525 14.01 -1 13 C-0.34 12.67 0.32 12.34 1 12 C0.67 8.04 0.34 4.08 0 0 Z " fill="#31556A" transform="translate(85,139)"/>
<path d="M0 0 C1.65 0 3.3 0 5 0 C4.67 4.29 4.34 8.58 4 13 C3.01 13 2.02 13 1 13 C0.67 8.71 0.34 4.42 0 0 Z " fill="#D19747" transform="translate(71,131)"/>
<path d="M0 0 C0.66 0.33 1.32 0.66 2 1 C1.34 1.61875 0.68 2.2375 0 2.875 C-2.2284549 4.75637427 -2.2284549 4.75637427 -2 7 C-1.34 7.66 -0.68 8.32 0 9 C-0.33 9.66 -0.66 10.32 -1 11 C-4.45925163 9.7508258 -7.14693203 8.32472205 -10 6 C-9.01 6 -8.02 6 -7 6 C-7 5.34 -7 4.68 -7 4 C-1.7265625 0.77734375 -1.7265625 0.77734375 0 0 Z " fill="#325472" transform="translate(95,60)"/>
<path d="M0 0 C0.66 0.33 1.32 0.66 2 1 C1.34 1.66 0.68 2.32 0 3 C0.33 3.66 0.66 4.32 1 5 C0.91219597 7.04498425 0.75758462 9.08744948 0.5625 11.125 C0.46066406 12.22070312 0.35882813 13.31640625 0.25390625 14.4453125 C0.17011719 15.28835937 0.08632812 16.13140625 0 17 C-2.475 16.01 -2.475 16.01 -5 15 C-4.34 14.67 -3.68 14.34 -3 14 C-3.33 10.04 -3.66 6.08 -4 2 C-2.68 1.34 -1.36 0.68 0 0 Z " fill="#4B5F64" transform="translate(102,99)"/>
<path d="M0 0 C3.85452121 1.9272606 7.04610079 4.89063241 10 8 C9.67 8.66 9.34 9.32 9 10 C5.37 8.02 1.74 6.04 -2 4 C-1.34 2.68 -0.68 1.36 0 0 Z " fill="#3E63A5" transform="translate(89,79)"/>
<path d="M0 0 C0.66 0 1.32 0 2 0 C2.33 3.63 2.66 7.26 3 11 C3.94875 10.814375 4.8975 10.62875 5.875 10.4375 C9 10 9 10 11 11 C8.375 13.125 8.375 13.125 5 15 C1.625 14.25 1.625 14.25 -1 13 C-0.34 12.67 0.32 12.34 1 12 C0.67 8.04 0.34 4.08 0 0 Z " fill="#967335" transform="translate(111,139)"/>
<path d="M0 0 C-0.0625 1.8125 -0.0625 1.8125 -1 4 C-4.5625 5.75 -4.5625 5.75 -8 7 C-8.33 10.3 -8.66 13.6 -9 17 C-9.33 17 -9.66 17 -10 17 C-11.06355434 7.51242002 -11.06355434 7.51242002 -8.546875 3.93359375 C-5.58556501 1.35177937 -4.01491632 0 0 0 Z " fill="#4B93AA" transform="translate(110,96)"/>
<path d="M0 0 C1.65 0.33 3.3 0.66 5 1 C5.33 2.32 5.66 3.64 6 5 C3.03 7.475 3.03 7.475 0 10 C-0.66 9.67 -1.32 9.34 -2 9 C-2 8.01 -2 7.02 -2 6 C-0.68 6 0.64 6 2 6 C1.34 4.02 0.68 2.04 0 0 Z " fill="#3E619F" transform="translate(93,69)"/>
<path d="M0 0 C2.97 0.495 2.97 0.495 6 1 C5.67 5.29 5.34 9.58 5 14 C3.68 14 2.36 14 1 14 C1.66 13.67 2.32 13.34 3 13 C3 9.37 3 5.74 3 2 C2.01 1.67 1.02 1.34 0 1 C0 0.67 0 0.34 0 0 Z " fill="#407B91" transform="translate(96,115)"/>
<path d="M0 0 C1.65 0 3.3 0 5 0 C5 0.66 5 1.32 5 2 C6.62626404 3.38232443 8.2925002 4.71937515 10 6 C9.67 6.66 9.34 7.32 9 8 C7.88625 7.505 7.88625 7.505 6.75 7 C3.86116688 5.77217129 3.86116688 5.77217129 0 6 C-0.33 4.68 -0.66 3.36 -1 2 C-0.34 2 0.32 2 1 2 C0.67 1.34 0.34 0.68 0 0 Z " fill="#2E5679" transform="translate(123,85)"/>
<path d="M0 0 C1.32 0.33 2.64 0.66 4 1 C4.33 5.29 4.66 9.58 5 14 C3.68 14 2.36 14 1 14 C1.01160156 13.15695313 1.02320312 12.31390625 1.03515625 11.4453125 C1.04417969 10.34960938 1.05320312 9.25390625 1.0625 8.125 C1.07410156 7.03445312 1.08570312 5.94390625 1.09765625 4.8203125 C1.19744303 2.04822454 1.19744303 2.04822454 0 0 Z " fill="#B2793D" transform="translate(70,115)"/>
<path d="M0 0 C0.515625 0.2475 1.03125 0.495 1.5625 0.75 C-0.95580747 3.87270126 -2.1636549 4.69523098 -6.1875 5.5 C-7.79625 5.62375 -7.79625 5.62375 -9.4375 5.75 C-9.4375 5.09 -9.4375 4.43 -9.4375 3.75 C-3.0375 -0.31153846 -3.0375 -0.31153846 0 0 Z " fill="#3C849E" transform="translate(159.4375,95.25)"/>
<path d="M0 0 C0.99 0.33 1.98 0.66 3 1 C2.67 4.63 2.34 8.26 2 12 C2.66 12.33 3.32 12.66 4 13 C2.35 13.66 0.7 14.32 -1 15 C-1.02693575 12.87506859 -1.04636628 10.75004088 -1.0625 8.625 C-1.07410156 7.44164063 -1.08570312 6.25828125 -1.09765625 5.0390625 C-1 2 -1 2 0 0 Z " fill="#22527B" transform="translate(124,101)"/>
<path d="M0 0 C-0.21484375 1.859375 -0.21484375 1.859375 -1 4 C-3.06640625 5.265625 -3.06640625 5.265625 -5.5625 6.25 C-6.38878906 6.58515625 -7.21507812 6.9203125 -8.06640625 7.265625 C-8.70449219 7.50796875 -9.34257813 7.7503125 -10 8 C-9.02738378 4.72847271 -8.34232413 3.25454871 -5.5625 1.1875 C-3 0 -3 0 0 0 Z " fill="#3D85A0" transform="translate(136,81)"/>
<path d="M0 0 C0.625 2.0625 0.625 2.0625 1 4 C0.01 3.67 -0.98 3.34 -2 3 C-2 6.3 -2 9.6 -2 13 C-3.32 13 -4.64 13 -6 13 C-5.34 12.67 -4.68 12.34 -4 12 C-4 8.37 -4 4.74 -4 1 C-4.66 0.67 -5.32 0.34 -6 0 C-2.25 -1.125 -2.25 -1.125 0 0 Z " fill="#31667E" transform="translate(90,93)"/>
<path d="M0 0 C0.66 0.33 1.32 0.66 2 1 C2 1.33 2 1.66 2 2 C2.83333333 4.16666667 2.83333333 4.16666667 5 5 C4.67 5.66 4.34 6.32 4 7 C1.36 6.67 -1.28 6.34 -4 6 C-4.33 5.01 -4.66 4.02 -5 3 C-4.01 2.67 -3.02 2.34 -2 2 C-1.34 1.34 -0.68 0.68 0 0 Z " fill="#305774" transform="translate(100,85)"/>
<path d="M0 0 C0.66 0.33 1.32 0.66 2 1 C1.03628506 3.40928735 0.34789837 4.76007009 -1.8125 6.25 C-4.32321365 7.11081611 -6.36348649 7.14647297 -9 7 C-6.25604436 4.05278838 -3.61662784 1.80831392 0 0 Z " fill="#387A93" transform="translate(133,124)"/>
<path d="M0 0 C4.75 0.875 4.75 0.875 7 2 C7 6.29 7 10.58 7 15 C6.67 15 6.34 15 6 15 C5.67 11.37 5.34 7.74 5 4 C3.68 3.67 2.36 3.34 1 3 C0.67 2.01 0.34 1.02 0 0 Z " fill="#466CB9" transform="translate(131,91)"/>
<path d="M0 0 C0.66 0.33 1.32 0.66 2 1 C2 1.99 2 2.98 2 4 C-0.35438733 5.42944945 -1.48032433 6.08661261 -4.25 5.625 C-4.8275 5.41875 -5.405 5.2125 -6 5 C-4.06745228 2.9754262 -2.36841312 1.57894208 0 0 Z " fill="#3C829D" transform="translate(133,139)"/>
<path d="M0 0 C0.66 0.33 1.32 0.66 2 1 C1.67 2.65 1.34 4.3 1 6 C-1.64 5.67 -4.28 5.34 -7 5 C-6.360625 4.896875 -5.72125 4.79375 -5.0625 4.6875 C-4.381875 4.460625 -3.70125 4.23375 -3 4 C-2.67 3.01 -2.34 2.02 -2 1 C-1.34 0.67 -0.68 0.34 0 0 Z " fill="#34546E" transform="translate(78,70)"/>
<path d="M0 0 C0.66 0 1.32 0 2 0 C2 3.96 2 7.92 2 12 C2.66 12.33 3.32 12.66 4 13 C2.1875 13.6875 2.1875 13.6875 0 14 C-1.75 12.5625 -1.75 12.5625 -3 11 C-1.68 11.33 -0.36 11.66 1 12 C0.67 8.04 0.34 4.08 0 0 Z " fill="#6A512E" transform="translate(111,154)"/>
<path d="M0 0 C2.31 0.33 4.62 0.66 7 1 C6.34 2.65 5.68 4.3 5 6 C4.34 6 3.68 6 3 6 C2.01 4.02 1.02 2.04 0 0 Z " fill="#375B8C" transform="translate(107,62)"/>
<path d="M0 0 C2.475 0.495 2.475 0.495 5 1 C4.67 2.32 4.34 3.64 4 5 C2.68 5 1.36 5 0 5 C0 3.35 0 1.7 0 0 Z " fill="#EEEEEE" transform="translate(130,172)"/>
<path d="M0 0 C2.31 0 4.62 0 7 0 C6.67 0.66 6.34 1.32 6 2 C5.34 2 4.68 2 4 2 C3.67 3.32 3.34 4.64 3 6 C2.34 6 1.68 6 1 6 C-0.0625 4.125 -0.0625 4.125 -1 2 C-0.67 1.34 -0.34 0.68 0 0 Z " fill="#32567C" transform="translate(135,77)"/>
<path d="M0 0 C0.99 0.33 1.98 0.66 3 1 C3.33 1.99 3.66 2.98 4 4 C2.68 4.99 1.36 5.98 0 7 C-0.66 6.67 -1.32 6.34 -2 6 C-2 3 -2 3 0 1 C0 0.67 0 0.34 0 0 Z " fill="#2E5C6D" transform="translate(147,71)"/>
<path d="M0 0 C0.33 1.32 0.66 2.64 1 4 C-1.375 5.5625 -1.375 5.5625 -4 7 C-4.66 6.67 -5.32 6.34 -6 6 C-4.95125002 3.37812506 -4.35068687 2.20628639 -1.875 0.75 C-1.25625 0.5025 -0.6375 0.255 0 0 Z " fill="#AC873E" transform="translate(121,116)"/>
<path d="M0 0 C3.68754757 0.49831724 5.60490662 1.10067643 8 4 C6.25 4.75 6.25 4.75 4 5 C1.75 3.125 1.75 3.125 0 1 C0 0.67 0 0.34 0 0 Z " fill="#3D609E" transform="translate(128,74)"/>
<path d="M0 0 C2.91517292 1.07401108 4.77810176 1.77810176 7 4 C6.67 4.66 6.34 5.32 6 6 C3.5625 5.25 3.5625 5.25 1 4 C0.1875 1.875 0.1875 1.875 0 0 Z " fill="#335782" transform="translate(140,80)"/>
<path d="M0 0 C0.99 0.33 1.98 0.66 3 1 C3 1.99 3 2.98 3 4 C2.34 4 1.68 4 1 4 C0.67 6.64 0.34 9.28 0 12 C-0.33 12 -0.66 12 -1 12 C-1.02687279 10.18757948 -1.04633715 8.37504767 -1.0625 6.5625 C-1.07410156 5.55316406 -1.08570312 4.54382813 -1.09765625 3.50390625 C-1 1 -1 1 0 0 Z " fill="#3A6084" transform="translate(89,139)"/>
<path d="M0 0 C0.66 0.66 1.32 1.32 2 2 C0.68 3.32 -0.64 4.64 -2 6 C-2.66 5.67 -3.32 5.34 -4 5 C-4 4.01 -4 3.02 -4 2 C-2.68 1.34 -1.36 0.68 0 0 Z " fill="#387A93" transform="translate(133,109)"/>
<path d="M0 0 C0 0.99 0 1.98 0 3 C-1.65 3.66 -3.3 4.32 -5 5 C-5.33 4.01 -5.66 3.02 -6 2 C-3 0 -3 0 0 0 Z " fill="#387992" transform="translate(110,81)"/>
<path d="M0 0 C2 1 2 1 3 3 C1.1875 4.0625 1.1875 4.0625 -1 5 C-1.99 4.67 -2.98 4.34 -4 4 C-3 2 -3 2 0 0 Z " fill="#3C839E" transform="translate(154,127)"/>
<path d="M0 0 C-0.33 0.99 -0.66 1.98 -1 3 C-3.31 3.33 -5.62 3.66 -8 4 C-5.29881977 1.17603885 -4.05589853 0 0 0 Z " fill="#BC9440" transform="translate(84,81)"/>
<path d="M0 0 C2 1 2 1 4 4 C3.67 4.66 3.34 5.32 3 6 C0.525 5.01 0.525 5.01 -2 4 C-1.34 2.68 -0.68 1.36 0 0 Z " fill="#32547A" transform="translate(89,79)"/>
<path d="M0 0 C2 1 2 1 4 4 C3.67 4.66 3.34 5.32 3 6 C0.525 5.01 0.525 5.01 -2 4 C-1.34 2.68 -0.68 1.36 0 0 Z " fill="#2F5176" transform="translate(115,79)"/>
<path d="M0 0 C-1.32 1.32 -2.64 2.64 -4 4 C-4.66 3.67 -5.32 3.34 -6 3 C-6 2.01 -6 1.02 -6 0 C-2.25 -1.125 -2.25 -1.125 0 0 Z " fill="#397E97" transform="translate(97,75)"/>
<path d="M0 0 C2.97 0.495 2.97 0.495 6 1 C5.67 2.32 5.34 3.64 5 5 C3.0625 4.1875 3.0625 4.1875 1 3 C0.67 2.01 0.34 1.02 0 0 Z " fill="#4166A8" transform="translate(119,69)"/>
</svg>
