<?xml version="1.0" standalone="no"?>
<!DOCTYPE svg PUBLIC "-//W3C//DTD SVG 20010904//EN"
 "http://www.w3.org/TR/2001/REC-SVG-20010904/DTD/svg10.dtd">
<svg version="1.0" xmlns="http://www.w3.org/2000/svg"
 width="256.000000pt" height="256.000000pt" viewBox="0 0 256.000000 256.000000"
 preserveAspectRatio="xMidYMid meet">

<g transform="translate(0.000000,256.000000) scale(0.100000,-0.100000)"
fill="#000000" stroke="none">
<path d="M445 2546 c-41 -19 -83 -66 -95 -107 -6 -18 -10 -75 -10 -125 l0 -92
-43 -10 c-46 -12 -99 -60 -116 -105 -8 -19 -11 -281 -11 -805 0 -733 1 -779
19 -817 45 -98 70 -104 429 -105 160 0 292 -4 292 -9 0 -4 -9 -31 -21 -58
l-21 -50 -67 -5 c-80 -6 -124 -29 -146 -74 -30 -63 -10 -129 48 -164 31 -19
54 -20 577 -20 523 0 546 1 577 20 59 36 78 101 47 166 -22 45 -63 66 -146 72
l-66 5 -21 50 c-12 27 -21 54 -21 58 0 5 132 9 293 9 358 1 383 7 428 105 18
38 19 84 19 817 0 524 -3 786 -11 805 -17 45 -70 93 -116 105 l-43 10 0 92 c0
50 -5 107 -10 126 -11 41 -61 94 -103 109 -46 18 -1623 14 -1662 -3z m1583
-93 c6 -10 13 -34 17 -53 6 -29 5 -33 -6 -22 -18 17 -390 17 -407 0 -15 -15
-15 -51 0 -66 8 -8 68 -12 203 -12 135 0 195 4 203 12 9 9 12 0 12 -40 l0 -52
-810 0 -810 0 0 90 c0 91 14 142 42 153 7 3 358 6 780 6 721 1 768 0 776 -16z
m-1686 -951 l3 -629 28 -36 c59 -77 -4 -72 907 -72 738 0 818 2 845 16 36 20
58 44 79 84 15 29 16 27 16 -72 l0 -103 -833 0 c-737 0 -835 -2 -855 -16 -28
-19 -28 -49 0 -68 20 -14 118 -16 855 -16 l833 0 0 -30 c0 -17 -7 -44 -15 -60
l-16 -30 -930 0 c-688 0 -936 3 -952 12 -33 17 -46 39 -47 76 l0 32 63 0 c68
0 107 18 107 50 0 32 -39 50 -107 50 l-63 0 0 695 0 696 25 24 c57 58 54 82
57 -603z m1788 15 l0 -614 -26 -24 -26 -24 -798 0 -798 0 -26 24 -26 24 0 614
0 613 850 0 850 0 0 -613z m-385 -1387 l0 -35 -494 -3 c-509 -2 -521 -1 -521
37 0 41 4 41 520 39 l495 -3 0 -35z"/>
<path d="M522 2378 c-15 -15 -15 -51 0 -66 28 -28 78 -7 78 33 0 27 -18 45
-45 45 -12 0 -26 -5 -33 -12z"/>
<path d="M692 2378 c-28 -28 -7 -78 33 -78 12 0 26 5 33 12 7 7 12 21 12 33 0
12 -5 26 -12 33 -7 7 -21 12 -33 12 -12 0 -26 -5 -33 -12z"/>
<path d="M862 2378 c-21 -21 -14 -57 14 -70 31 -14 57 -1 62 31 7 42 -46 69
-76 39z"/>
<path d="M873 1770 c-52 -31 -63 -64 -63 -190 0 -121 9 -152 56 -189 37 -29
111 -29 149 1 15 12 34 36 41 54 17 41 18 215 1 264 -24 70 -117 101 -184 60z
m90 -73 c15 -11 17 -27 15 -121 -3 -91 -6 -111 -20 -120 -13 -8 -23 -8 -35 0
-15 9 -18 29 -21 120 -2 94 0 110 15 121 9 7 20 13 23 13 3 0 14 -6 23 -13z"/>
<path d="M1212 1770 c-48 -30 -62 -72 -62 -190 0 -154 35 -210 130 -210 56 0
95 26 116 76 19 46 19 223 0 269 -18 42 -69 75 -116 75 -19 0 -50 -9 -68 -20z
m91 -73 c15 -11 17 -27 15 -121 -3 -91 -6 -111 -20 -120 -13 -8 -23 -8 -35 0
-15 9 -18 29 -21 120 -2 94 0 110 15 121 9 7 20 13 23 13 3 0 14 -6 23 -13z"/>
<path d="M1500 1771 c-13 -26 -13 -356 0 -382 12 -21 50 -25 68 -7 7 7 12 42
12 85 l0 73 45 0 c98 0 157 110 103 190 -33 48 -61 60 -145 60 -61 0 -74 -3
-83 -19z m141 -71 c21 -12 25 -50 7 -68 -7 -7 -25 -12 -40 -12 -27 0 -28 2
-28 45 0 39 3 45 21 45 11 0 29 -5 40 -10z"/>
<path d="M587 1671 c-42 -43 -77 -85 -77 -93 0 -7 36 -49 79 -92 69 -69 82
-78 105 -72 44 11 35 52 -26 113 l-52 53 52 53 c52 52 63 82 40 105 -23 23
-45 11 -121 -67z"/>
<path d="M1852 1738 c-23 -23 -12 -53 40 -105 l52 -52 -57 -60 c-49 -51 -56
-63 -48 -83 17 -47 48 -35 132 48 44 43 79 85 79 92 0 20 -150 172 -170 172
-9 0 -21 -5 -28 -12z"/>
<path d="M696 1264 c-22 -21 -20 -40 6 -58 20 -14 91 -16 578 -16 487 0 558 2
578 16 26 18 28 37 6 58 -14 14 -80 16 -584 16 -504 0 -570 -2 -584 -16z"/>
</g>
</svg>
