<?xml version="1.0" standalone="no"?>
<!DOCTYPE svg PUBLIC "-//W3C//DTD SVG 20010904//EN"
 "http://www.w3.org/TR/2001/REC-SVG-20010904/DTD/svg10.dtd">
<svg version="1.0" xmlns="http://www.w3.org/2000/svg"
 width="512.000000pt" height="512.000000pt" viewBox="0 0 512.000000 512.000000"
 preserveAspectRatio="xMidYMid meet">

<g transform="translate(0.000000,512.000000) scale(0.100000,-0.100000)"
fill="#000000" stroke="none">
<path d="M3415 5029 c-407 -56 -778 -287 -1003 -622 -67 -101 -144 -248 -158
-301 l-6 -26 -932 -2 -931 -3 -67 -32 c-93 -44 -151 -100 -196 -191 l-37 -76
0 -1216 0 -1216 37 -76 c45 -91 103 -147 196 -191 l67 -32 687 -3 688 -3 0
-79 0 -80 -248 0 c-281 0 -313 -6 -376 -67 -24 -24 -63 -88 -107 -175 l-69
-138 0 -210 0 -210 1280 0 1280 0 0 210 0 210 -69 139 c-39 76 -84 152 -101
170 -66 65 -69 66 -362 69 l-268 3 0 79 0 79 688 3 687 3 67 32 c93 44 151
100 196 191 l37 76 3 530 3 531 56 40 c83 59 232 208 301 302 277 377 354 864
207 1310 -41 124 -129 291 -215 405 -214 285 -529 483 -880 553 -93 19 -361
27 -455 14z m430 -174 c261 -54 468 -165 656 -354 190 -189 299 -393 356 -661
26 -125 24 -372 -5 -500 -23 -103 -81 -270 -94 -270 -4 0 -124 93 -265 207
l-258 207 3 85 c15 379 -290 684 -669 669 l-87 -3 -206 257 c-113 142 -206
261 -206 266 0 10 153 66 236 87 153 38 384 42 539 10z m-724 -426 c110 -138
199 -252 197 -253 -1 -1 -27 -16 -57 -35 l-54 -32 -224 223 c-123 122 -223
225 -223 228 0 4 151 120 157 120 2 0 93 -113 204 -251z m-253 -212 l223 -224
-32 -54 c-19 -30 -34 -56 -35 -57 -1 -2 -115 87 -254 198 l-251 201 37 52 c51
72 78 106 84 106 3 1 106 -99 228 -222z m-160 -293 l257 -206 -3 -87 c-15
-379 290 -684 669 -669 l87 3 206 -257 c113 -142 206 -261 206 -266 0 -13
-166 -70 -270 -94 -128 -29 -375 -31 -500 -5 -268 57 -472 166 -661 356 -190
189 -299 393 -356 661 -26 125 -24 372 5 500 24 104 81 270 94 270 5 0 124
-93 266 -206z m1000 141 c92 -22 159 -60 229 -131 189 -188 188 -481 -1 -670
-191 -190 -482 -190 -672 0 -189 189 -190 482 -1 670 123 124 280 170 445 131z
m-1518 -156 c0 -5 -5 -41 -11 -80 l-12 -69 -827 0 -827 0 -34 -23 c-18 -12
-44 -38 -56 -56 l-23 -34 0 -767 0 -767 22 -33 c13 -18 36 -43 51 -54 28 -21
30 -21 967 -21 932 0 939 0 966 21 15 11 37 33 48 48 20 26 21 43 24 320 l3
293 107 -107 c265 -263 583 -401 957 -417 218 -9 414 26 613 110 l82 35 0
-234 0 -234 -2000 0 -2000 0 2 953 c3 907 4 954 22 987 35 66 87 110 156 131
41 12 1770 11 1770 -2z m-30 -373 c0 -145 66 -409 136 -548 l24 -47 0 -391 0
-390 -880 0 -880 0 0 720 0 720 800 0 800 0 0 -64z m2271 -416 l250 -201 -41
-57 c-22 -31 -50 -68 -61 -81 l-20 -25 -225 225 -225 225 33 57 c18 31 34 56
36 57 1 0 115 -90 253 -200z m-212 -254 l225 -225 -25 -20 c-13 -11 -50 -39
-81 -61 l-57 -41 -202 253 c-111 138 -198 253 -192 255 5 2 30 17 54 33 24 15
46 29 49 29 3 1 106 -100 229 -223z m-2779 -1243 c0 -32 5 -76 11 -98 15 -55
100 -139 156 -154 30 -8 222 -11 655 -9 679 3 637 -1 707 70 50 50 64 86 69
171 l5 77 599 0 600 0 -4 -152 c-3 -125 -7 -159 -22 -188 -26 -49 -64 -88
-111 -113 l-40 -22 -1825 0 -1825 0 -40 22 c-47 25 -85 64 -111 113 -15 29
-19 63 -22 188 l-4 152 601 0 601 0 0 -57z m480 -23 l0 -80 -125 0 c-69 0
-135 5 -148 11 -32 14 -47 49 -47 104 l0 45 160 0 160 0 0 -80z m480 0 l0 -80
-160 0 -160 0 0 80 0 80 160 0 160 0 0 -80z m480 35 c0 -55 -15 -90 -47 -104
-13 -6 -79 -11 -148 -11 l-125 0 0 80 0 80 160 0 160 0 0 -45z m-320 -835 l0
-240 -320 0 -320 0 0 240 0 240 320 0 320 0 0 -240z m-800 -160 l0 -80 -296 0
-295 0 36 69 c20 38 46 73 58 79 13 7 114 11 260 11 l237 1 0 -80z m1454 69
c15 -7 39 -38 61 -80 l36 -69 -295 0 -296 0 0 80 0 80 235 0 c153 0 243 -4
259 -11z m146 -389 l0 -80 -1120 0 -1120 0 0 80 0 80 1120 0 1120 0 0 -80z"/>
<path d="M3600 4643 l0 -80 82 -8 c353 -30 672 -263 804 -587 15 -38 33 -68
39 -68 28 0 135 43 135 55 0 7 -13 43 -29 81 -157 380 -530 649 -941 680 l-90
7 0 -80z"/>
<path d="M4611 3759 c-30 -5 -56 -11 -58 -13 -2 -2 0 -35 3 -75 l7 -71 78 0
79 0 0 39 c0 21 -3 59 -6 85 -7 51 -6 51 -103 35z"/>
<path d="M3504 3906 c-64 -20 -131 -72 -169 -129 -108 -164 -48 -380 130 -468
41 -20 65 -24 135 -24 70 0 94 4 135 24 63 32 124 93 156 156 35 72 35 198 0
270 -32 64 -100 131 -159 157 -58 26 -171 33 -228 14z m159 -160 c103 -43 128
-177 48 -257 -112 -113 -296 -12 -267 146 18 94 128 150 219 111z"/>
<path d="M939 3427 c-84 -32 -148 -88 -191 -170 -23 -41 -23 -48 -23 -377 0
-330 0 -336 23 -378 33 -63 84 -114 144 -148 48 -26 62 -29 148 -29 86 0 100
3 148 29 60 34 111 85 144 148 23 42 23 48 23 378 0 330 0 336 -23 378 -34 63
-84 114 -144 147 -43 24 -67 29 -133 32 -50 2 -93 -2 -116 -10z m186 -177 c17
-10 39 -34 50 -52 19 -31 20 -51 20 -318 0 -267 -1 -287 -20 -318 -61 -101
-209 -101 -270 0 -18 30 -20 54 -23 295 -3 277 2 323 41 368 46 54 137 65 202
25z"/>
<path d="M1739 3427 c-84 -32 -148 -88 -191 -170 -19 -35 -23 -58 -23 -137 0
-86 3 -100 29 -148 57 -102 140 -157 262 -172 109 -14 158 -50 178 -133 17
-70 -40 -157 -115 -177 -80 -22 -167 29 -189 111 l-11 39 -81 0 -81 0 6 -49
c11 -95 76 -185 169 -237 48 -26 62 -29 148 -29 86 0 100 3 148 29 60 34 111
85 144 148 19 36 23 58 23 138 0 86 -3 100 -29 148 -57 102 -140 157 -262 172
-43 6 -90 18 -108 29 -82 51 -95 173 -27 242 83 82 231 42 261 -72 l11 -39 81
0 81 0 -6 49 c-11 95 -76 186 -169 236 -43 24 -67 29 -133 32 -50 2 -93 -2
-116 -10z"/>
</g>
</svg>
