<svg xmlns="http://www.w3.org/2000/svg" width="181.61" height="148.63" viewBox="0 0 181.61 148.63"><g transform="translate(0 0)"><path d="M93.29,26.15H76.4a2.35,2.35,0,0,0,0,4.69H93.29a2.35,2.35,0,1,0,0-4.69Z" fill="#c3002f"/><path d="M86.51,125.77a2.35,2.35,0,1,0,.5,2.551,2.35,2.35,0,0,0-.5-2.551Z" fill="#c3002f"/><path d="M113.64,19.14H56.06a8.72,8.72,0,0,0-8.71,8.71V129.53a8.71,8.71,0,0,0,8.71,8.71h57.58a8.72,8.72,0,0,0,8.71-8.71V100.15l27.75-3.94a1.85,1.85,0,0,0,1.34-2.75l-8.83-15.3.29-.27a10.071,10.071,0,0,0-9.82-17.01l-.38.12-8.83-15.29a1.85,1.85,0,0,0-3.05-.22L93.89,79.88,82.53,86.44a13,13,0,1,0,13,22.46l1.77-1,5.37,9.29H51V37.84h67.62v1.21a1.85,1.85,0,0,0,3.69,0V27.85a8.72,8.72,0,0,0-8.67-8.71Zm21.69,45a6.38,6.38,0,0,1,5.85,10.14l-.45.61-6.16-10.66ZM122,49.92l24.83,43-7.24,1-22.1-38.29Zm-7,8.9,20.62,35.71-28.46,4L97.35,81.45Zm.67,54.49L109.22,102l9.44-1.34v16.49h-5.92l2.32-1.34a1.83,1.83,0,0,0,.86-1.12,1.85,1.85,0,0,0-.18-1.38Zm-22.08-7.6A9.3,9.3,0,0,1,89,107a9.5,9.5,0,0,1-2.41-.32,9.29,9.29,0,0,1-2.24-17l10.07-5.81,9.28,16.07Zm6.82.32,5.09-2.94,6.05,10.47-5.1,2.94ZM51,120.87h67.62v8.66a5,5,0,0,1-5,5H56.06a5,5,0,0,1-5-5Zm67.62-86.72H51v-6.3a5,5,0,0,1,5-5h57.58a5,5,0,0,1,5,5Z"/><path d="M166.66,52.92a2.34,2.34,0,0,0-3.21-.86L152,58.7a2.35,2.35,0,0,0,1.18,4.38,2.4,2.4,0,0,0,1.17-.32l11.5-6.64a2.35,2.35,0,0,0,.81-3.2Z" fill="#c3002f"/><path d="M145.43,42.62a2.35,2.35,0,0,0-2.88,1.66l-1.67,6.25a2.34,2.34,0,0,0,1.65,2.88,2.62,2.62,0,0,0,.61.08,2.35,2.35,0,0,0,2.27-1.741l1.67-6.259a2.33,2.33,0,0,0-1.65-2.87Z" fill="#c3002f"/><path d="M163.34,73.3l-6.47-1.73a2.344,2.344,0,1,0-1.21,4.53l6.47,1.74a2.49,2.49,0,0,0,.61.08,2.35,2.35,0,0,0,.6-4.62Z" fill="#c3002f"/><path d="M91.34,45.19H59a2.35,2.35,0,1,0,0,4.69H91.34a2.35,2.35,0,0,0,0-4.69Z" fill="#c3002f"/><path d="M93,57.13a2.339,2.339,0,1,0,0,3.32,2.35,2.35,0,0,0,0-3.32Z" fill="#c3002f"/><path d="M81.64,56.45H59a2.35,2.35,0,1,0,0,4.69H81.64a2.35,2.35,0,1,0,0-4.69Z" fill="#c3002f"/><path d="M85.76,67.71H68a2.35,2.35,0,1,0,0,4.69H85.76a2.35,2.35,0,1,0,0-4.69Z" fill="#c3002f"/><path d="M59.06,67.71H59a2.35,2.35,0,1,0,0,4.69h.11a2.35,2.35,0,0,0,0-4.69Z" fill="#c3002f"/><path d="M177.77,148.63H3.84A4,4,0,0,1,0,144.79V3.84A3.81,3.81,0,0,1,3.84,0H177.77a3.81,3.81,0,0,1,3.84,3.84V145a3.92,3.92,0,0,1-3.84,3.63ZM3.84,3.39a.48.48,0,0,0-.45.45V145a.48.48,0,0,0,.45.45H177.77a.48.48,0,0,0,.45-.45V3.84a.48.48,0,0,0-.45-.45Z" fill="#53d447"/><path d="M177.77,148.63H3.84A4,4,0,0,1,0,144.79V3.84A3.81,3.81,0,0,1,3.84,0H177.77a3.81,3.81,0,0,1,3.84,3.84V145a3.92,3.92,0,0,1-3.84,3.63ZM3.84,3.39a.48.48,0,0,0-.45.45V145a.48.48,0,0,0,.45.45H177.77a.48.48,0,0,0,.45-.45V3.84a.48.48,0,0,0-.45-.45Z"/><circle cx="3.61" cy="3.61" r="3.61" transform="translate(34.56 11.52)" fill="#c3002f"/><circle cx="3.61" cy="3.61" r="3.61" transform="translate(22.59 11.75)" fill="#c3002f"/><circle cx="3.61" cy="3.61" r="3.61" transform="translate(10.62 11.75)" fill="#c3002f"/></g></svg>