<?xml version="1.0" encoding="UTF-8"?>
<svg version="1.1" xmlns="http://www.w3.org/2000/svg" width="860" height="547">
<path d="M0 0 C283.8 0 567.6 0 860 0 C860 180.51 860 361.02 860 547 C576.2 547 292.4 547 0 547 C0 366.49 0 185.98 0 0 Z " fill="#F6F6F6" transform="translate(0,0)"/>
<path d="M0 0 C1.50433594 0.01353516 1.50433594 0.01353516 3.0390625 0.02734375 C3.80992187 0.03894531 4.58078125 0.05054688 5.375 0.0625 C7.84885667 5.01021334 9.50760972 9.45338522 8.375 15.0625 C5.88823059 20.63286348 1.68749606 25.31956998 -2.171875 29.984375 C-5.10320525 34.17649245 -5.30792307 39.08579627 -4.625 44.0625 C-3.60744983 47.32048574 -2.40285751 50.47992216 -1.18359375 53.66796875 C1.20116654 60.12202381 2.91738113 66.80654402 4.69946289 73.44726562 C7.02628188 81.7792855 10.49691761 92.31774583 18.375 97.0625 C25.03313094 98.71422864 31.53034123 96.1946639 37.375 93.0625 C41.55950604 89.76831439 43.85812866 86.1332182 45.375 81.0625 C45.85893413 76.92686311 45.81128782 72.780308 45.81445312 68.62109375 C45.97063469 61.58753767 47.40324688 55.12430625 52.4375 49.9375 C54.375 49.0625 54.375 49.0625 57.375 50.0625 C62.37029506 65.76449391 61.61179598 83.3772228 61.72747803 99.67709351 C61.74246266 101.63843597 61.76379966 103.59974043 61.79156494 105.5609436 C61.82743526 108.35478017 61.83562091 111.14736538 61.8359375 113.94140625 C61.8502179 114.78644714 61.86449829 115.63148804 61.87921143 116.50213623 C61.84868179 120.4814365 61.70019893 122.54339498 59.54272461 125.98730469 C56.7809764 128.63116771 53.77546347 130.70757707 50.5625 132.75 C49.91031494 133.17643799 49.25812988 133.60287598 48.58618164 134.04223633 C45.83687058 135.83901462 43.07505534 137.61562804 40.30664062 139.3828125 C38.95404682 140.24743705 37.60414665 141.11629106 36.25708008 141.98950195 C35.00280625 142.80253595 33.74257958 143.60649374 32.4753418 144.39916992 C23.6173167 150.15424517 20.51191545 156.31221609 18 166.4375 C11.99571853 188.53708083 1.92390065 203.52962435 -13.7421875 219.96875 C-14.70339587 220.99974753 -15.66435474 222.03097776 -16.625 223.0625 C-17.40488281 223.87976563 -18.18476562 224.69703125 -18.98828125 225.5390625 C-21.13413663 228.84746959 -21.06163646 231.02506131 -20.9375 234.9375 C-20.90076172 236.69707031 -20.90076172 236.69707031 -20.86328125 238.4921875 C-20.62530951 242.05786235 -20.13350673 245.52660439 -19.625 249.0625 C-18.82452439 259.4343769 -20.02252861 266.80087654 -24.625 276.0625 C-25.62711795 278.16756187 -26.61154994 280.27889267 -27.57788086 282.40063477 C-28.22380135 283.81884106 -28.88562878 285.22993214 -29.56469727 286.63256836 C-31.33425278 290.38798278 -31.33425278 290.38798278 -31.0390625 294.40625 C-29.48366681 296.22803942 -28.22310867 297.05211098 -26.0625 298.0625 C-22.625 300.0625 -22.625 300.0625 -21.91015625 302.1875 C-21.81605469 302.80625 -21.72195313 303.425 -21.625 304.0625 C-39.89332853 306.51473301 -57.81102527 308.11334878 -76.25 308.25 C-77.36552246 308.26313232 -78.48104492 308.27626465 -79.63037109 308.28979492 C-85.36193523 308.29544221 -90.22060603 308.02139925 -95.625 306.0625 C-96.67215232 298.51635468 -95.01073688 292.85717546 -92.125 286 C-87.90158773 276.77660586 -87.90158773 276.77660586 -88.625 267.0625 C-90.90262691 263.64388218 -93.3872725 260.51687962 -96.01171875 257.36328125 C-104.23586445 247.32138393 -108.21543701 234.72050492 -108.0625 221.875 C-108.05420166 220.96081299 -108.04590332 220.04662598 -108.03735352 219.10473633 C-107.41895122 194.00552586 -92.77714757 171.39282916 -78.7355957 151.47705078 C-72.09220872 141.84105622 -69.90158692 132.35393963 -68.1875 120.875 C-66.93038964 112.91810234 -65.69093446 105.35009533 -62.8125 97.8125 C-58.25490863 85.40492476 -60.52727754 72.65125007 -62.96875 59.98828125 C-63.5393654 56.5747784 -63.75529129 53.50979042 -63.625 50.0625 C-64.285 49.98 -64.945 49.8975 -65.625 49.8125 C-69.5791557 48.82396107 -73.15672247 47.20991483 -76.625 45.0625 C-78.24070544 41.83108913 -78.25401837 38.55261947 -77.625 35.0625 C-75.4140625 32.48046875 -75.4140625 32.48046875 -72.25 30.25 C-71.67854248 29.84185059 -71.10708496 29.43370117 -70.51831055 29.01318359 C-68.57878609 27.65471979 -66.60990864 26.35369028 -64.625 25.0625 C-63.89200684 24.58280762 -63.15901367 24.10311523 -62.40380859 23.60888672 C-42.63474889 10.811707 -42.63474889 10.811707 -31.0625 9.25 C-20.22551319 7.72406183 -10.76802223 -0.12520956 0 0 Z " fill="#427198" transform="translate(650.625,182.9375)"/>
<path d="M0 0 C14.68137482 -0.20517449 29.33248176 0.41874085 44 1 C44.027526 3.43758009 44.04708568 5.87483541 44.0625 8.3125 C44.07087891 8.98345703 44.07925781 9.65441406 44.08789062 10.34570312 C44.10670114 14.35234305 43.91024043 18.27007339 43.51171875 22.2578125 C42.91761608 28.36366161 42.77996679 34.43054528 42.75 40.5625 C42.729375 41.62146484 42.70875 42.68042969 42.6875 43.77148438 C42.64184288 53.03417281 43.69886517 61.4495755 50.25 68.41015625 C52.74077783 70.67298343 55.39251947 72.6434009 58.16796875 74.54296875 C60.24154418 76.1921023 61.60062936 77.74994813 63 80 C63.80232348 88.290676 61.18326559 92.61619863 56 99 C55.319375 99.804375 54.63875 100.60875 53.9375 101.4375 C48.92804029 108.06291445 48.56723991 113.28744949 48.63671875 121.3515625 C48.63535919 122.46655624 48.63399963 123.58154999 48.63259888 124.73033142 C48.63407635 128.36215283 48.65931309 131.99329437 48.6875 135.625 C48.69816995 138.13533525 48.70883071 140.64567053 48.71948242 143.15600586 C48.83698321 162.49063125 49.45745232 181.72777675 51 201 C51.10823587 202.39941405 51.21647154 203.79882811 51.32470703 205.19824219 C51.64583131 209.28085444 52.00501134 213.35901451 52.375 217.4375 C52.47659424 218.622229 52.57818848 219.80695801 52.68286133 221.02758789 C53.5944823 230.14445109 55.24988911 239.99750903 60 248 C62.20891018 249.13022399 62.20891018 249.13022399 65 250 C66.26378987 250.52933786 67.52257509 251.07071295 68.77734375 251.62109375 C69.45603516 251.91693359 70.13472656 252.21277344 70.83398438 252.51757812 C71.52814453 252.82115234 72.22230469 253.12472656 72.9375 253.4375 C73.62779297 253.73720703 74.31808594 254.03691406 75.02929688 254.34570312 C76.38670411 254.93884505 77.7406818 255.5399079 79.09082031 256.14941406 C80.85008286 256.93320827 82.6332941 257.66265075 84.41796875 258.38671875 C87 260 87 260 88.0234375 262.5234375 C88.19746094 263.93496094 88.19746094 263.93496094 88.375 265.375 C88.50648438 266.31085938 88.63796875 267.24671875 88.7734375 268.2109375 C88.98565888 270.8234559 89.04762875 273.380419 89 276 C88.04609375 275.93941406 87.0921875 275.87882812 86.109375 275.81640625 C53.68323873 273.87757192 21.16087811 273.73259114 -11.3125 273.6875 C-12.33383781 273.6854657 -13.35517563 273.6834314 -14.40746307 273.68133545 C-42.15646228 273.62992348 -69.67489411 274.17453222 -97.3458252 276.28359985 C-116.4431338 277.73629813 -135.40565743 278.3999353 -154.54973602 278.37695312 C-156.54017562 278.37502166 -158.53061782 278.37718488 -160.52105713 278.37939453 C-164.18223714 278.37892789 -167.84282544 278.36175827 -171.50390625 278.3359375 C-173.12557961 278.33235733 -173.12557961 278.33235733 -174.78001404 278.32870483 C-179.90394734 278.26416069 -184.2096384 278.05557517 -189 276 C-189.17754126 272.09409237 -189.20731737 269.31097606 -187 266 C-183.75249728 264.37624864 -180.14755838 264.57087804 -176.5703125 264.3515625 C-175.69398666 264.29459198 -174.81766083 264.23762146 -173.91477966 264.17892456 C-170.98511644 263.98988728 -168.05508384 263.80739295 -165.125 263.625 C-163.05849809 263.49306198 -160.9920107 263.36089635 -158.92553711 263.22851562 C-145.66752687 262.38594126 -132.40584371 261.61646165 -119.14208984 260.87060547 C-93.3119135 259.41857452 -93.3119135 259.41857452 -67.49972534 257.6809082 C-65.86515173 257.5626121 -64.23032696 257.44772408 -62.59524536 257.33666992 C-46.41808713 256.22824013 -27.94247213 254.08242297 -16 242 C-10.02316606 234.66236905 -8.05448663 226.01580539 -6 217 C-5.69449219 215.77796875 -5.69449219 215.77796875 -5.3828125 214.53125 C3.33052423 178.6054924 1.42423842 139.83458595 1.26428223 103.21209717 C1.24517565 97.99526704 1.24112799 92.77847259 1.2375679 87.56161213 C1.23236358 81.22465317 1.21790896 74.88772379 1.203125 68.55078125 C1.20124428 67.38748102 1.19936356 66.22418079 1.19742584 65.02562904 C1.16976723 51.80906803 0.95877852 38.62524244 0.35087967 25.42142963 C-0.03800299 16.94263979 -0.10505159 8.48583439 0 0 Z " fill="#FDBE35" transform="translate(714,233)"/>
<path d="M0 0 C6.09825346 6.03933314 7.81869067 12.97994214 7.92073059 21.31228638 C7.91936348 22.54215775 7.91936348 22.54215775 7.91796875 23.796875 C7.92225388 24.66617645 7.926539 25.53547791 7.93095398 26.43112183 C7.93667332 28.2649448 7.9372153 30.09879046 7.93286133 31.93261719 C7.92972032 34.69767392 7.95312448 37.46163917 7.97851562 40.2265625 C8.07099564 66.05160611 8.07099564 66.05160611 0.6171875 74.6015625 C-7.37821861 81.98193737 -16.49116575 81.74118829 -26.80859375 81.8125 C-29.07227286 81.84056808 -31.33594464 81.86923254 -33.59960938 81.8984375 C-37.14770301 81.93965161 -40.69565966 81.97656508 -44.24389648 82.00292969 C-47.68241169 82.03065772 -51.12031656 82.07652479 -54.55859375 82.125 C-55.6088826 82.12825287 -56.65917145 82.13150574 -57.74128723 82.13485718 C-67.04944543 82.28890452 -74.72872904 83.78904848 -81.3828125 90.6015625 C-87.6538895 101.69294495 -88.39175601 116.14686871 -90.3828125 128.6015625 C-93.38380838 128.71046961 -96.38077628 128.78929805 -99.3828125 128.8515625 C-100.22199219 128.88507813 -101.06117188 128.91859375 -101.92578125 128.953125 C-109.05837888 129.06370791 -114.03941987 127.35565211 -119.5546875 122.8125 C-129.45232404 111.29792284 -130.73858299 97.35006844 -130.6953125 82.6640625 C-130.71142578 81.57416016 -130.72753906 80.48425781 -130.74414062 79.36132812 C-130.75109782 67.65237359 -128.69488646 55.98768045 -120.890625 46.85546875 C-113.71783539 39.97439546 -104.46758585 38.13999379 -94.82931519 38.19967651 C-93.11942917 38.24005539 -93.11942917 38.24005539 -91.375 38.28125 C-90.16893097 38.29165314 -88.96286194 38.30205627 -87.72024536 38.31277466 C-83.89892226 38.34812149 -80.07871628 38.41041012 -76.2578125 38.4765625 C-72.4298792 38.53203979 -68.60210939 38.58145231 -64.7739563 38.618927 C-62.40196756 38.64318866 -60.03005564 38.6781406 -57.65841675 38.72555542 C-51.21400212 38.80313843 -45.61282189 38.27795659 -39.3828125 36.6015625 C-39.3828125 35.9415625 -39.3828125 35.2815625 -39.3828125 34.6015625 C-44.52063818 33.77326129 -49.52343258 33.40427559 -54.72265625 33.28515625 C-55.87309166 33.2539846 -55.87309166 33.2539846 -57.04676819 33.22218323 C-59.47120122 33.15735418 -61.89573263 33.09811629 -64.3203125 33.0390625 C-65.97461912 32.99581371 -67.62891617 32.95219751 -69.28320312 32.90820312 C-73.31630816 32.80174226 -77.34951109 32.70029188 -81.3828125 32.6015625 C-83.83730121 23.65300822 -83.67471105 11.94382418 -79.3828125 3.6015625 C-75.81893457 -2.20623857 -70.22410228 -5.36524122 -63.9453125 -7.6484375 C-46.09011757 -11.40742591 -14.83435562 -12.49532859 0 0 Z " fill="#427299" transform="translate(773.3828125,49.3984375)"/>
<path d="M0 0 C7.93328563 4.06214786 12.04752055 10.07847476 15.43359375 18.24609375 C20.89563891 35.57679342 19.95176318 57.83303557 11.43359375 74.24609375 C6.45475028 81.57857231 0.75604512 85.78855663 -7.87719727 87.77880859 C-10.56627429 88.24607082 -13.04261328 88.37541148 -15.76953125 88.37890625 C-17.24099609 88.38083984 -17.24099609 88.38083984 -18.7421875 88.3828125 C-20.26392578 88.37701172 -20.26392578 88.37701172 -21.81640625 88.37109375 C-23.31494141 88.37689453 -23.31494141 88.37689453 -24.84375 88.3828125 C-30.05876455 88.37599549 -35.1119428 88.1288377 -40.28369141 87.48193359 C-44.72312624 87.02327113 -49.16958131 87.02061238 -53.62890625 86.99609375 C-54.57056641 86.97546875 -55.51222656 86.95484375 -56.48242188 86.93359375 C-62.56307009 86.89974185 -67.00846372 87.75843985 -72.56640625 90.24609375 C-67.56767993 93.57857796 -62.50885778 93.42588972 -56.640625 93.5625 C-55.89303421 93.5832811 -55.14544342 93.60406219 -54.37519836 93.62547302 C-52.00152229 93.69053564 -49.62774138 93.74965085 -47.25390625 93.80859375 C-45.6386613 93.85182021 -44.02342672 93.89543579 -42.40820312 93.93945312 C-38.46104326 94.04617226 -34.51377858 94.14755994 -30.56640625 94.24609375 C-30.38483995 105.28801437 -30.43159398 115.73143808 -37.91015625 124.56640625 C-43.42076394 130.15499424 -49.00246476 132.37094578 -56.56640625 134.24609375 C-57.46818604 134.50628296 -57.46818604 134.50628296 -58.38818359 134.77172852 C-73.94463764 138.15955526 -95.81367913 136.24280695 -109.81640625 128.43359375 C-117.12969683 122.61620351 -119.02467815 117.36040932 -120.56640625 108.24609375 C-120.9032149 103.36677199 -120.95848202 98.52726443 -120.90258789 93.63842773 C-120.87904728 91.4467243 -120.88204568 89.25625097 -120.88867188 87.06445312 C-120.83642995 59.37759425 -120.83642995 59.37759425 -113.56640625 51.24609375 C-107.26562226 45.10686833 -100.45723376 44.94819335 -92.12109375 44.90234375 C-90.61169724 44.88040955 -90.61169724 44.88040955 -89.07180786 44.85803223 C-85.8617143 44.81168785 -82.65167916 44.77743465 -79.44140625 44.74609375 C-56.73135954 45.20298209 -56.73135954 45.20298209 -35.56640625 38.24609375 C-34.90640625 38.24609375 -34.24640625 38.24609375 -33.56640625 38.24609375 C-33.29828125 37.70984375 -33.03015625 37.17359375 -32.75390625 36.62109375 C-31.89777878 34.90883882 -31.00654084 33.21398113 -30.09375 31.53125 C-25.37723235 21.3865151 -25.01982097 9.26876205 -24.56640625 -1.75390625 C-16.53111385 -4.43233705 -7.68692219 -3.2242678 0 0 Z " fill="#FDBE35" transform="translate(811.56640625,90.75390625)"/>
<path d="M0 0 C5.61 0 11.22 0 17 0 C17 29.04 17 58.08 17 88 C7.14472018 89.97105596 -1.0798035 91.50518038 -10.875 91.4375 C-12.44894531 91.4674707 -12.44894531 91.4674707 -14.0546875 91.49804688 C-22.27537192 91.49290895 -28.67132172 89.65404915 -35.3125 84.75 C-38.5300507 81.45762254 -40.31082433 78.24597338 -42 74 C-42.35835937 73.15953125 -42.71671875 72.3190625 -43.0859375 71.453125 C-44.39185943 66.51964214 -44.36848813 61.77001293 -44.375 56.6875 C-44.39949219 55.69298828 -44.42398438 54.69847656 -44.44921875 53.67382812 C-44.48091216 45.62898472 -42.48033908 40.04203405 -38.3125 33.25 C-31.39307293 26.51758448 -23.98627169 24.82054233 -14.625 24.8125 C-13.8825 24.80025391 -13.14 24.78800781 -12.375 24.77539062 C-11.64539063 24.77345703 -10.91578125 24.77152344 -10.1640625 24.76953125 C-9.18107178 24.76336792 -9.18107178 24.76336792 -8.17822266 24.75708008 C-6 25 -6 25 0 27 C0 18.09 0 9.18 0 0 Z " fill="#45749A" transform="translate(296,355)"/>
<path d="M0 0 C7.899375 -0.061875 15.79875 -0.12375 23.9375 -0.1875 C26.4137085 -0.21481201 28.88991699 -0.24212402 31.44116211 -0.27026367 C33.42821771 -0.27903463 35.41527875 -0.28667712 37.40234375 -0.29296875 C38.4142981 -0.30831665 39.42625244 -0.32366455 40.46887207 -0.33947754 C48.04402076 -0.34224118 54.45376472 0.68723786 60.875 4.875 C66.21262153 10.21262153 68.27862758 16.66734184 68.4375 24.125 C68.27994783 32.75098154 65.68492291 40.49453363 59.8125 46.9375 C52.49578927 53.44652188 42.17178165 57.56689252 32.4375 58.25 C30 58 30 58 29 57 C28.76472227 54.65012738 28.58613583 52.29443961 28.4375 49.9375 C28.35371094 48.64714844 28.26992188 47.35679687 28.18359375 46.02734375 C28.12300781 45.02832031 28.06242187 44.02929688 28 43 C28.85722656 42.78085937 29.71445312 42.56171875 30.59765625 42.3359375 C37.85075324 40.32436832 42.77020789 38.46750994 48 33 C49.27908458 30.44183084 49.23974681 28.48152006 49.3125 25.625 C49.34988281 24.66851562 49.38726562 23.71203125 49.42578125 22.7265625 C49.17975635 19.39370345 49.17975635 19.39370345 45 16 C31.14 15.505 31.14 15.505 17 15 C17 40.08 17 65.16 17 91 C11.39 91 5.78 91 0 91 C0 60.97 0 30.94 0 0 Z " fill="#46749A" transform="translate(30,356)"/>
<path d="M0 0 C0.94230469 -0.020625 1.88460938 -0.04125 2.85546875 -0.0625 C11.6171084 -0.1109738 19.20172379 1.61477518 26.125 7.25 C30.04669583 12.3376054 31.25447036 15.97973577 31.23852539 22.29394531 C31.23844986 23.29468079 31.23837433 24.29541626 31.23829651 25.32647705 C31.23313522 26.39952087 31.22797394 27.4725647 31.22265625 28.578125 C31.2212413 29.68226746 31.21982635 30.78640991 31.21836853 31.92401123 C31.21277258 35.44936842 31.20022079 38.97466202 31.1875 42.5 C31.18248448 44.89062408 31.17792166 47.28124916 31.17382812 49.671875 C31.16280447 55.53127168 31.14607033 61.3906313 31.125 67.25 C29.51753576 67.31933423 27.90921255 67.36895859 26.30078125 67.41015625 C25.40528564 67.43988525 24.50979004 67.46961426 23.5871582 67.50024414 C19.91409167 67.12692801 18.50820609 64.9055725 16.125 62.25 C12.87934213 62.25 10.80129553 63.40562715 7.875 64.8125 C0.58632409 67.62225674 -9.11298832 67.51352949 -16.61328125 65.5234375 C-21.58631868 63.21954445 -24.62095001 59.86222688 -26.95703125 54.99609375 C-28.02832723 51.79132323 -28.17567018 49.12544128 -28.1875 45.75 C-28.20425781 44.6465625 -28.22101563 43.543125 -28.23828125 42.40625 C-27.60672601 36.91918946 -24.87563763 33.98043108 -20.765625 30.4609375 C-14.38906238 26.37677549 -9.23771888 25.82360282 -1.8125 26 C-0.94044922 26.00515625 -0.06839844 26.0103125 0.83007812 26.015625 C5.36134077 26.07050782 9.66819692 26.34253928 14.125 27.25 C14.11894331 25.83273366 14.06849789 24.41562304 14 23 C13.97679687 22.21109375 13.95359375 21.4221875 13.9296875 20.609375 C12.67294481 16.92455662 10.51761191 15.98356585 7.125 14.25 C-2.72958789 12.88995161 -13.11893086 14.70009965 -22.875 16.25 C-22.875 11.96 -22.875 7.67 -22.875 3.25 C-15.26350649 0.2054026 -8.08659829 0.04388927 0 0 Z " fill="#45749A" transform="translate(353.875,379.75)"/>
<path d="M0 0 C0.93392578 -0.020625 1.86785156 -0.04125 2.83007812 -0.0625 C11.90337735 -0.11287224 19.76310818 1.35931725 26.71484375 7.45703125 C31.76927346 13.61083294 31.58904535 19.38674096 31.48046875 26.9921875 C31.47622391 28.11569611 31.47197906 29.23920471 31.46760559 30.39675903 C31.4508589 33.97308663 31.41321296 37.54884369 31.375 41.125 C31.35994803 43.55467934 31.34626052 45.98436755 31.33398438 48.4140625 C31.30096846 54.35956854 31.2508085 60.3047435 31.1875 66.25 C29.58112451 66.30582653 27.97419088 66.34575589 26.3671875 66.37890625 C25.02503174 66.41479858 25.02503174 66.41479858 23.65576172 66.45141602 C20.24295747 66.17292309 18.65999273 64.50433161 16.1875 62.25 C13.42350784 62.34213307 11.6047807 63.54135965 9.1171875 64.78515625 C4.80398606 66.62528406 0.82367384 66.69500934 -3.8125 66.625 C-4.58078125 66.63660156 -5.3490625 66.64820313 -6.140625 66.66015625 C-12.69585398 66.6267112 -17.39013472 65.23193523 -22.5625 61 C-27.01109049 55.56283384 -28.34479852 50.56915508 -28.09375 43.67578125 C-27.50333222 38.58342789 -25.74030405 35.29675329 -22.375 31.5 C-12.82262244 24.47482912 0.94955593 25.66911223 12.1875 26.25 C12.8475 26.58 13.5075 26.91 14.1875 27.25 C14.10003716 25.81138706 13.99184652 24.37402492 13.875 22.9375 C13.81699219 22.13699219 13.75898438 21.33648437 13.69921875 20.51171875 C13.09250435 17.83013375 12.34387846 16.9146627 10.1875 15.25 C6.35924937 13.97391646 2.73958595 14.05922649 -1.25 14.0625 C-2.05099121 14.06185547 -2.85198242 14.06121094 -3.67724609 14.06054688 C-10.22943677 14.11833328 -16.38422216 14.93137891 -22.8125 16.25 C-22.8125 11.96 -22.8125 7.67 -22.8125 3.25 C-15.2204135 0.2131654 -8.06572113 0.04398485 0 0 Z " fill="#45749A" transform="translate(131.8125,379.75)"/>
<path d="M0 0 C4.29 0 8.58 0 13 0 C13.33 2.97 13.66 5.94 14 9 C14.65226563 8.51789063 15.30453125 8.03578125 15.9765625 7.5390625 C16.85054687 6.90742188 17.72453125 6.27578125 18.625 5.625 C19.48351562 4.99851562 20.34203125 4.37203125 21.2265625 3.7265625 C28.53491423 -0.82314379 37.11786172 -1.28730502 45.4453125 0.53515625 C50.35460543 2.24314219 54.56562043 4.32711049 57.08099365 9.01437378 C59.96860004 15.72842892 60.537471 21.43875627 60.390625 28.6953125 C60.38496521 29.76876923 60.37930542 30.84222595 60.37347412 31.94821167 C60.35127411 35.34094875 60.30110797 38.7325879 60.25 42.125 C60.22991387 44.4400888 60.21166682 46.75519433 60.1953125 49.0703125 C60.15146294 54.71395783 60.08254944 60.35679346 60 66 C54.39 66 48.78 66 43 66 C42.99589111 64.60241455 42.99178223 63.2048291 42.98754883 61.76489258 C42.96575948 56.57425168 42.91147089 51.38436902 42.84741211 46.1940918 C42.82423055 43.94872307 42.80983605 41.70324558 42.80444336 39.45776367 C42.7951553 36.22766327 42.75416577 32.99927391 42.70703125 29.76953125 C42.7109639 28.76727005 42.71489655 27.76500885 42.71894836 26.7323761 C42.61990158 21.98958148 42.55729214 19.72816404 39.60327148 15.8684082 C36.02814169 13.30248226 33.91382882 13.30027715 29.640625 13.4921875 C25.87471856 14.21640028 23.01482228 15.84761425 19.8125 17.90625 C18 19 18 19 16 19 C16 34.51 16 50.02 16 66 C10.72 66 5.44 66 0 66 C0 44.22 0 22.44 0 0 Z " fill="#437299" transform="translate(179,380)"/>
<path d="M0 0 C0 4.62 0 9.24 0 14 C-1.08796875 13.71125 -2.1759375 13.4225 -3.296875 13.125 C-19.88156792 8.75356173 -19.88156792 8.75356173 -36 13 C-36.16677282 16.41656024 -36.16677282 16.41656024 -36 20 C-33.46768082 22.53231918 -32.56002615 22.25027309 -29.0546875 22.2734375 C-28.05953125 22.2940625 -27.064375 22.3146875 -26.0390625 22.3359375 C-23.9532043 22.36168884 -21.86724055 22.38008969 -19.78125 22.390625 C-12.62630824 22.5561635 -6.93130699 23.52114206 -1.44506836 28.37597656 C1.66463212 31.74761014 2.73443736 34.48543506 3 39 C3.05027344 39.70382812 3.10054688 40.40765625 3.15234375 41.1328125 C3.4310375 47.70998494 1.98739562 52.32943714 -2 57.6875 C-12.18342037 65.53721987 -24.71596323 65.0144806 -37 64 C-47.46968472 62.53031528 -47.46968472 62.53031528 -50 60 C-50.07271741 57.64686445 -50.08370868 55.29166332 -50.0625 52.9375 C-50.05347656 51.64714844 -50.04445313 50.35679687 -50.03515625 49.02734375 C-50.02355469 48.02832031 -50.01195312 47.02929688 -50 46 C-49.44957031 46.2165625 -48.89914062 46.433125 -48.33203125 46.65625 C-41.53487261 48.93250778 -35.10358308 49.30280476 -28 49.3125 C-26.60164917 49.32023437 -26.60164917 49.32023437 -25.17504883 49.328125 C-19.77298567 49.37676723 -19.77298567 49.37676723 -15 47 C-14.5 43.5 -14.5 43.5 -15 40 C-18.16420707 37.89052862 -19.01196682 37.74598595 -22.640625 37.69140625 C-23.54683594 37.66626953 -24.45304687 37.64113281 -25.38671875 37.61523438 C-27.27988475 37.58036706 -29.17311995 37.54905651 -31.06640625 37.52148438 C-38.35101819 37.31026154 -43.4639108 36.5360892 -48.8125 31.1875 C-53.14868471 24.86905943 -54.04845881 18.54248427 -53 11 C-50.65821105 5.18423488 -46.83226391 1.05395119 -41.31640625 -1.90234375 C-29.76997757 -6.78650559 -10.96842091 -5.48421045 0 0 Z " fill="#46749A" transform="translate(450,383)"/>
<path d="M0 0 C1.63775391 -0.01160156 1.63775391 -0.01160156 3.30859375 -0.0234375 C6.5625 0.375 6.5625 0.375 12.5625 3.375 C12.5625 14.595 12.5625 25.815 12.5625 37.375 C-1.93729415 40.27495883 -1.93729415 40.27495883 -7.9921875 36.98828125 C-12.96564367 32.78908108 -15.18349237 29.20452688 -15.7734375 22.6328125 C-16.07495921 8.76447962 -16.07495921 8.76447962 -11.4375 3.375 C-7.56010648 0.53112775 -4.77786643 -0.03376584 0 0 Z " fill="#F4F4F5" transform="translate(283.4375,393.625)"/>
<path d="M0 0 C1.21429688 -0.00257813 2.42859375 -0.00515625 3.6796875 -0.0078125 C6.63619095 0.10615702 9.25691815 0.43796899 12.125 1.125 C12.23315225 2.89449095 12.31066083 4.66587487 12.375 6.4375 C12.42140625 7.42363281 12.4678125 8.40976562 12.515625 9.42578125 C12.125 12.125 12.125 12.125 10.421875 13.85546875 C5.87534066 16.36843416 2.29051973 17.4339062 -2.9375 17.5 C-4.47083984 17.54253906 -4.47083984 17.54253906 -6.03515625 17.5859375 C-9.58684988 17.00945903 -10.70177006 15.94066282 -12.875 13.125 C-13.875 9.6875 -13.875 9.6875 -13.875 6.125 C-10.21154269 0.10646298 -6.6748964 -0.01411183 0 0 Z " fill="#EFF1F3" transform="translate(355.875,416.875)"/>
<path d="M0 0 C0 3.96 0 7.92 0 12 C-6.98360623 15.72458999 -13.05962477 17.33720179 -21 16 C-23.97167116 13.83878461 -24.65953834 12.56302851 -25.4296875 9.02734375 C-25.625 6.9375 -25.625 6.9375 -25 3 C-19.17342575 -3.85479324 -7.92706068 -1.58541214 0 0 Z " fill="#F1F2F4" transform="translate(146,418)"/>
<path d="M0 0 C5.75 1.875 5.75 1.875 8 3 C8 6.63 8 10.26 8 14 C1.35863874 17.70680628 1.35863874 17.70680628 -3 17 C-4.8125 16 -4.8125 16 -6 14 C-6.39914044 10.90666162 -6.64030311 8.95923868 -6 6 C-3.5625 3.0625 -3.5625 3.0625 -1 1 C-0.67 0.67 -0.34 0.34 0 0 Z " fill="#E4ECF0" transform="translate(709,54)"/>
<path d="M0 0 C2.375 0.8125 2.375 0.8125 5.375 2.8125 C6.10546875 5.4140625 6.10546875 5.4140625 6.5625 8.4375 C6.72105469 9.44039062 6.87960937 10.44328125 7.04296875 11.4765625 C7.15253906 12.24742187 7.26210938 13.01828125 7.375 13.8125 C3.59392192 16.21025683 2.04752256 16.94479952 -2.4375 16.0625 C-5.625 14.8125 -5.625 14.8125 -6.625 13.8125 C-6.85863881 11.96358054 -7.03803635 10.10761969 -7.1875 8.25 C-7.27128906 7.23808594 -7.35507812 6.22617188 -7.44140625 5.18359375 C-7.50199219 4.40113281 -7.56257812 3.61867187 -7.625 2.8125 C-3.35227273 -0.23944805 -3.35227273 -0.23944805 0 0 Z " fill="#FDF3DE" transform="translate(761.625,195.1875)"/>
</svg>
