<svg xmlns="http://www.w3.org/2000/svg" width="1486" height="705" viewBox="0 0 1486 705">
<g>
<path d="M 1486.00 244.76 L 1486.00 705.00 L 1339.88 705.00 L 1340.26 507.25 C1340.56,349.51 1340.92,306.72 1342.01,295.75 C1342.76,288.19 1343.72,282.00 1344.14,282.00 C1344.56,282.00 1345.37,282.79 1345.95,283.75 C1346.92,285.35 1347.20,285.27 1349.25,282.80 C1350.49,281.32 1354.19,278.75 1357.47,277.10 C1364.24,273.69 1364.61,273.87 1365.61,281.21 C1366.30,286.32 1369.27,290.34 1370.33,287.59 C1371.19,285.33 1378.45,282.00 1382.49,282.00 C1384.47,282.00 1388.72,280.66 1392.04,278.98 C1397.79,276.08 1398.14,276.02 1401.10,277.55 C1404.82,279.48 1406.71,278.91 1408.02,275.46 C1408.77,273.47 1411.45,271.70 1419.45,267.93 C1425.20,265.22 1431.23,263.00 1432.86,263.00 C1434.48,263.00 1438.82,261.65 1442.50,260.00 C1446.18,258.35 1450.69,257.00 1452.53,257.00 C1454.38,257.00 1456.12,256.61 1456.42,256.13 C1456.72,255.65 1459.46,254.07 1462.52,252.62 C1467.85,250.10 1468.21,250.06 1471.22,251.61 C1474.31,253.21 1474.40,253.19 1476.93,250.26 C1478.34,248.63 1480.96,246.72 1482.75,246.02 L 1486.00 244.76 ZM 758.97 441.03 C755.41,441.54 742.14,441.97 729.47,441.98 C710.23,442.00 706.08,441.74 704.22,440.44 L 702.00 438.89 L 702.00 353.98 C702.00,269.18 702.00,269.07 704.07,267.96 C705.48,267.21 714.74,266.97 733.32,267.20 C758.99,267.53 760.80,267.68 766.00,269.85 C772.44,272.54 778.86,277.31 783.77,283.05 C788.03,288.03 792.79,299.34 793.63,306.52 C794.92,317.45 787.62,332.94 776.66,342.56 C773.56,345.28 771.02,347.80 771.01,348.18 C771.01,348.55 773.42,349.96 776.39,351.32 C782.73,354.23 791.96,362.84 794.78,368.50 C802.15,383.26 801.73,402.65 793.75,416.79 C786.71,429.27 772.68,439.04 758.97,441.03 ZM 195.38 440.45 C186.64,444.34 186.28,444.41 173.00,444.69 C160.35,444.97 159.03,444.81 152.00,442.22 C142.14,438.59 134.38,433.31 126.89,425.15 C120.20,417.86 115.37,409.21 112.12,398.64 C108.92,388.28 109.10,370.81 112.52,360.34 C117.78,344.24 127.22,331.72 139.88,324.07 C150.06,317.92 156.93,316.05 170.58,315.68 C181.29,315.39 182.97,315.60 190.30,318.16 C209.33,324.82 222.57,338.27 229.70,358.21 C231.80,364.05 232.40,367.88 232.77,377.53 C233.32,391.89 231.97,398.33 225.76,410.99 C222.37,417.89 219.97,421.08 212.92,427.99 C205.57,435.21 202.91,437.10 195.38,440.45 ZM 0.00 438.89 L 0.00 272.11 L 2.22 270.56 C4.07,269.26 8.07,269.01 25.97,269.03 C52.65,269.07 60.14,269.97 68.85,274.20 C77.14,278.23 87.74,288.46 91.49,296.05 C95.55,304.26 97.13,316.36 95.54,327.02 C94.85,331.70 93.25,337.55 92.00,340.02 C80.74,362.16 66.34,370.99 41.52,371.01 C35.46,371.01 26.11,371.30 20.75,371.66 L 11.00 372.30 L 11.00 405.32 C11.00,434.64 10.81,438.55 9.35,440.17 C7.32,442.41 5.15,442.49 2.22,440.44 L 0.00 438.89 ZM 162.78 432.51 C179.40,436.71 200.05,427.67 210.89,411.47 C223.58,392.49 224.27,371.69 212.86,351.43 C206.85,340.75 193.35,330.77 181.11,327.97 C166.20,324.55 148.94,330.14 137.32,342.13 C126.83,352.95 122.00,365.04 122.00,380.44 C122.00,395.68 129.55,412.63 140.20,421.27 C145.79,425.82 155.59,430.69 162.78,432.51 ZM 498.64 442.89 C493.09,444.60 489.29,444.99 478.64,444.95 C467.15,444.91 464.70,444.59 459.10,442.44 C438.75,434.61 426.90,419.77 422.45,396.50 C419.49,381.06 421.18,362.12 426.73,348.48 C432.86,333.45 443.20,323.37 458.00,318.01 C463.59,315.98 466.32,315.65 477.50,315.67 C492.22,315.69 499.72,317.33 506.54,322.02 C518.95,330.57 524.78,344.10 525.72,366.56 C526.16,376.98 526.00,378.86 524.54,380.31 C523.01,381.85 518.73,382.00 477.93,382.00 C442.64,382.00 433.00,382.27 433.02,383.25 C433.07,386.27 435.89,400.82 437.05,404.00 C443.76,422.47 460.22,433.47 481.00,433.34 C490.96,433.29 498.26,430.93 507.24,424.87 C515.63,419.21 520.00,419.87 520.00,426.82 C520.00,429.48 519.17,430.99 516.25,433.70 C511.59,438.01 507.43,440.18 498.64,442.89 ZM 297.57 435.00 L 294.50 444.50 L 290.87 444.80 C286.40,445.18 284.42,443.38 283.01,437.70 C282.44,435.39 281.09,430.58 280.01,427.00 C278.94,423.42 277.13,417.35 276.01,413.50 C274.89,409.65 272.58,401.77 270.89,396.00 C269.20,390.23 267.23,383.25 266.52,380.50 C265.81,377.75 263.83,370.77 262.12,365.00 C260.41,359.23 258.05,351.12 256.87,347.00 C255.69,342.88 253.90,337.18 252.91,334.33 C250.02,326.12 249.46,319.68 251.47,317.68 C255.17,313.97 262.00,316.93 262.00,322.25 C262.00,323.25 262.88,326.66 263.95,329.84 C265.02,333.01 266.12,336.87 266.40,338.40 C266.67,339.93 267.55,343.28 268.34,345.84 C269.13,348.40 270.74,354.10 271.92,358.50 C274.85,369.47 278.77,383.62 285.42,407.25 C287.39,414.26 289.00,420.22 289.00,420.50 C289.00,420.77 289.38,421.00 289.84,421.00 C290.30,421.00 291.25,419.09 291.95,416.75 C292.65,414.41 294.02,410.02 295.00,407.00 C295.97,403.98 297.78,398.12 299.00,394.00 C301.68,384.99 304.61,375.47 307.01,368.00 C307.98,364.98 309.57,359.80 310.54,356.50 C311.51,353.20 313.18,347.80 314.25,344.50 C315.32,341.20 316.37,337.60 316.58,336.50 C317.56,331.33 321.04,323.38 323.02,321.78 C325.95,319.41 327.63,319.54 330.41,322.32 C332.57,324.48 334.13,328.87 341.16,352.50 C342.30,356.35 344.04,361.98 345.02,365.00 C346.01,368.02 347.57,373.20 348.50,376.50 C349.43,379.80 351.00,384.98 351.98,388.00 C352.96,391.02 354.65,396.42 355.74,400.00 C361.13,417.70 362.54,421.97 363.00,421.98 C363.28,421.99 365.69,415.14 368.37,406.75 C371.05,398.36 374.13,388.80 375.22,385.50 C376.31,382.20 377.36,378.70 377.55,377.73 C377.74,376.75 378.81,373.15 379.92,369.73 C385.97,351.16 392.34,331.03 392.50,330.00 C393.00,326.84 396.59,318.21 397.80,317.25 C400.27,315.30 403.44,315.77 405.98,318.48 L 408.32 320.97 L 398.54 350.73 C393.16,367.10 386.17,388.38 383.00,398.00 C379.84,407.62 375.30,421.52 372.92,428.88 C370.55,436.23 367.99,442.87 367.23,443.63 C365.39,445.47 360.51,445.37 358.60,443.46 C357.75,442.61 356.54,440.02 355.92,437.71 C355.30,435.39 353.98,431.02 352.98,428.00 C351.99,424.98 349.96,418.45 348.46,413.50 C346.97,408.55 345.19,402.70 344.50,400.50 C340.88,389.01 338.84,382.45 335.67,372.00 C335.33,370.91 335.02,369.87 334.71,368.86 C328.30,347.79 327.04,343.63 326.15,343.70 C325.88,343.73 325.66,344.12 325.34,344.55 C324.60,345.56 324.00,347.02 324.00,347.80 C324.00,349.31 316.90,373.23 313.99,381.50 C313.03,384.25 310.59,392.12 308.57,399.00 C303.81,415.23 301.33,423.36 297.57,435.00 ZM 11.67 359.33 C12.03,359.70 20.98,360.00 31.55,360.00 C53.28,360.00 58.15,359.05 66.24,353.25 C73.88,347.76 82.03,336.76 83.63,329.76 C88.10,310.20 80.59,292.81 64.00,284.32 L 58.50 281.50 L 34.75 281.18 L 11.00 280.87 L 11.00 319.77 C11.00,341.16 11.30,358.97 11.67,359.33 ZM 713.00 396.62 L 713.00 430.00 L 735.46 430.00 C755.84,430.00 758.42,429.81 763.21,427.92 C775.63,423.05 784.47,412.70 787.54,399.49 C790.15,388.22 787.12,377.44 779.00,369.19 C769.20,359.23 760.40,357.05 729.88,357.02 L 714.25 357.00 L 713.62 360.12 C713.28,361.84 713.00,378.27 713.00,396.62 ZM 713.82 345.48 C714.18,345.85 723.03,346.00 733.49,345.82 L 752.50 345.50 L 759.07 342.28 C766.78,338.51 774.48,330.88 778.61,322.92 C780.89,318.53 781.43,316.17 781.46,310.49 C781.49,304.54 781.00,302.46 778.24,296.84 C774.29,288.81 769.14,283.94 761.59,281.12 C756.46,279.20 753.88,279.00 734.43,279.00 L 712.93 279.00 L 713.04 311.91 C713.10,330.01 713.45,345.12 713.82,345.48 ZM 434.31 365.06 L 433.72 370.00 L 515.00 370.00 L 514.98 366.25 C514.96,360.83 512.50,350.03 509.93,344.07 C505.60,333.98 495.20,328.18 479.81,327.25 C472.25,326.80 469.98,327.08 462.43,329.44 C454.61,331.88 453.14,332.75 447.52,338.32 C442.57,343.23 440.63,346.11 438.09,352.31 C436.33,356.61 434.63,362.34 434.31,365.06 ZM 567.80 443.80 C565.98,445.62 560.53,445.25 558.65,443.17 C557.15,441.51 557.00,435.70 557.00,380.33 C557.00,323.46 557.12,319.21 558.75,317.80 C561.19,315.69 564.98,314.92 567.16,316.09 C568.74,316.93 569.00,318.36 569.00,326.04 C569.00,330.97 569.20,335.00 569.45,335.00 C569.70,335.00 572.06,332.85 574.70,330.22 C577.34,327.59 581.75,324.16 584.50,322.59 C590.17,319.38 601.68,316.04 607.20,316.02 C614.38,315.98 618.37,319.57 616.03,323.95 C614.83,326.18 613.36,326.62 604.49,327.40 C585.79,329.03 574.72,339.47 570.62,359.36 C569.29,365.78 569.00,374.07 569.00,404.91 C569.00,432.89 568.69,442.91 567.80,443.80 ZM 848.43 440.43 C846.23,442.63 841.49,442.18 839.77,439.60 C839.36,439.00 839.02,400.45 839.02,353.95 C839.00,289.50 839.29,269.11 840.20,268.20 C841.75,266.65 847.25,266.65 848.80,268.20 C849.71,269.11 850.00,289.56 850.00,354.13 C850.00,429.82 849.83,439.02 848.43,440.43 ZM 1468.52 702.10 L 1463.50 704.98 L 1474.75 704.99 L 1486.00 705.00 L 1485.96 681.50 L 1484.05 685.69 C1481.48,691.35 1474.62,698.60 1468.52,702.10 Z" fill="rgb(202,133,12)"/>
<path d="M 1483.02 18.53 C1484.21,20.99 1485.36,23.00 1485.59,23.00 C1485.82,23.00 1486.00,17.83 1486.00,11.50 L 1486.00 244.76 L 1482.75 246.02 C1480.96,246.72 1478.34,248.63 1476.93,250.26 C1474.40,253.19 1474.31,253.21 1471.22,251.61 C1468.21,250.06 1467.85,250.10 1462.52,252.62 C1459.46,254.07 1456.72,255.65 1456.42,256.13 C1456.12,256.61 1454.38,257.00 1452.53,257.00 C1450.69,257.00 1446.18,258.35 1442.50,260.00 C1438.82,261.65 1434.48,263.00 1432.86,263.00 C1431.23,263.00 1425.20,265.22 1419.45,267.93 C1411.45,271.70 1408.77,273.47 1408.02,275.46 C1406.71,278.91 1404.82,279.48 1401.10,277.55 C1398.14,276.02 1397.79,276.08 1392.04,278.98 C1388.72,280.66 1384.47,282.00 1382.49,282.00 C1378.45,282.00 1371.19,285.33 1370.33,287.59 C1369.27,290.34 1366.30,286.32 1365.61,281.21 C1364.61,273.87 1364.24,273.69 1357.47,277.10 C1354.19,278.75 1350.49,281.32 1349.25,282.80 C1347.20,285.27 1346.92,285.35 1345.95,283.75 C1345.37,282.79 1344.56,282.00 1344.14,282.00 C1343.72,282.00 1342.76,288.19 1342.01,295.75 C1340.92,306.72 1340.56,349.51 1340.26,507.25 L 1339.88 705.00 L 1194.03 705.00 L 1193.50 377.50 L 1191.25 372.20 C1188.22,365.09 1183.36,358.75 1178.50,355.56 C1170.93,350.59 1166.65,349.96 1136.50,349.40 C1121.10,349.11 1107.49,348.67 1106.25,348.42 C1104.19,348.00 1104.00,347.40 1104.00,341.35 C1104.00,337.71 1104.51,331.96 1105.13,328.58 L 1106.27 322.43 L 1109.58 322.82 C1112.55,323.17 1113.03,322.86 1114.33,319.75 C1115.61,316.68 1116.30,316.23 1120.53,315.65 C1123.14,315.29 1128.24,315.00 1131.86,315.00 C1135.82,315.00 1141.16,314.14 1145.28,312.84 C1151.27,310.95 1152.18,310.34 1152.68,307.87 C1152.99,306.31 1153.75,304.65 1154.37,304.16 C1154.99,303.67 1162.03,303.01 1170.00,302.70 C1180.63,302.28 1185.57,301.66 1188.50,300.38 C1190.70,299.42 1194.75,298.37 1197.50,298.06 C1201.64,297.60 1202.55,297.13 1202.81,295.35 C1203.42,291.06 1205.80,290.19 1218.00,289.81 C1232.02,289.38 1239.21,286.84 1241.43,281.51 C1242.76,278.32 1242.78,278.31 1252.04,277.66 C1257.14,277.30 1263.83,276.99 1266.90,276.98 C1270.53,276.96 1274.62,276.08 1278.50,274.48 C1281.80,273.12 1285.88,272.01 1287.57,272.00 C1290.07,272.00 1290.90,271.40 1292.07,268.75 C1293.75,264.94 1296.71,264.15 1309.63,264.06 C1317.42,264.00 1320.09,263.34 1328.75,259.29 C1331.29,258.10 1332.00,257.16 1332.00,254.95 C1332.00,253.39 1331.48,251.80 1330.85,251.41 C1330.05,250.91 1330.26,250.28 1331.54,249.35 C1334.25,247.37 1336.00,247.70 1336.00,250.20 C1336.00,251.70 1336.33,252.07 1337.02,251.38 C1337.59,250.81 1338.08,247.05 1338.12,243.02 C1338.16,238.31 1338.50,236.18 1339.08,237.09 C1340.37,239.14 1340.23,211.62 1338.91,204.47 C1336.86,193.36 1329.97,184.04 1320.00,178.87 C1315.61,176.60 1314.71,176.53 1284.25,176.22 L 1253.00 175.89 L 1253.00 102.60 C1253.00,32.67 1253.09,29.05 1254.94,23.67 C1258.80,12.46 1265.14,6.16 1276.94,1.83 C1277.11,1.77 1277.21,1.71 1277.21,1.65 C1277.18,0.25 1217.30,0.15 640.75,0.08 L 0.00 0.00 L 1486.00 0.00 L 1457.50 0.19 L 1463.69 2.11 C1471.13,4.42 1479.72,11.73 1483.02,18.53 Z" fill="rgb(230,178,31)"/>
<path d="M 1194.03 705.00 L 489.00 705.00 C757.95,705.00 978.00,704.78 978.00,704.52 C978.00,704.26 976.30,703.17 974.23,702.11 C969.19,699.55 961.38,691.05 958.68,685.22 L 956.50 680.50 L 956.50 529.00 C956.50,382.07 956.56,377.35 958.42,372.53 C960.50,367.14 967.27,359.23 972.67,355.90 C980.26,351.20 982.87,351.02 1044.22,351.01 L 1101.94 351.00 L 1102.50 202.50 L 1105.62 195.91 C1109.16,188.45 1113.48,183.70 1120.60,179.43 L 1125.50 176.50 L 1253.00 175.93 L 1253.00 175.89 L 1284.25 176.22 C1314.71,176.53 1315.61,176.60 1320.00,178.87 C1329.97,184.04 1336.86,193.36 1338.91,204.47 C1340.23,211.62 1340.37,239.14 1339.08,237.09 C1338.50,236.18 1338.16,238.31 1338.12,243.02 C1338.08,247.05 1337.59,250.81 1337.02,251.38 C1336.33,252.07 1336.00,251.70 1336.00,250.20 C1336.00,247.70 1334.25,247.37 1331.54,249.35 C1330.26,250.28 1330.05,250.91 1330.85,251.41 C1331.48,251.80 1332.00,253.39 1332.00,254.95 C1332.00,257.16 1331.29,258.10 1328.75,259.29 C1320.09,263.34 1317.42,264.00 1309.63,264.06 C1296.71,264.15 1293.75,264.94 1292.07,268.75 C1290.90,271.40 1290.07,272.00 1287.57,272.00 C1285.88,272.01 1281.80,273.12 1278.50,274.48 C1274.62,276.08 1270.53,276.96 1266.90,276.98 C1263.83,276.99 1257.14,277.30 1252.04,277.66 C1242.78,278.31 1242.76,278.32 1241.43,281.51 C1239.21,286.84 1232.02,289.38 1218.00,289.81 C1205.80,290.19 1203.42,291.06 1202.81,295.35 C1202.55,297.13 1201.64,297.60 1197.50,298.06 C1194.75,298.37 1190.70,299.42 1188.50,300.38 C1185.57,301.66 1180.63,302.28 1170.00,302.70 C1162.03,303.01 1154.99,303.67 1154.37,304.16 C1153.75,304.65 1152.99,306.31 1152.68,307.87 C1152.18,310.34 1151.27,310.95 1145.28,312.84 C1141.16,314.14 1135.82,315.00 1131.86,315.00 C1128.24,315.00 1123.14,315.29 1120.53,315.65 C1116.30,316.23 1115.61,316.68 1114.33,319.75 C1113.03,322.86 1112.55,323.17 1109.58,322.82 L 1106.27 322.43 L 1105.13 328.58 C1104.51,331.96 1104.00,337.71 1104.00,341.35 C1104.00,347.40 1104.19,348.00 1106.25,348.42 C1107.49,348.67 1121.10,349.11 1136.50,349.40 C1166.65,349.96 1170.93,350.59 1178.50,355.56 C1183.36,358.75 1188.22,365.09 1191.25,372.20 L 1193.50 377.50 ZM 1473.13 7.21 C1470.10,4.91 1466.79,3.08 1463.69,2.11 L 1457.50 0.19 L 1460.64 0.17 L 1466.37 2.96 C1468.68,4.09 1470.99,5.55 1473.13,7.21 ZM 1261.55 11.68 C1263.45,9.44 1265.61,7.57 1268.00,6.10 C1270.76,4.39 1273.36,2.99 1273.77,2.97 C1274.17,2.95 1275.37,2.28 1276.44,1.47 C1276.46,1.45 1276.47,1.44 1276.47,1.43 C1276.47,1.42 1276.47,1.42 1276.46,1.41 C1276.99,1.49 1277.21,1.57 1277.21,1.65 C1277.21,1.71 1277.11,1.77 1276.94,1.83 C1270.22,4.29 1265.28,7.40 1261.55,11.68 Z" fill="rgb(245,216,93)"/>
<path d="M 0.00 571.94 L 0.00 438.89 L 2.22 440.44 C5.15,442.49 7.32,442.41 9.35,440.17 C10.81,438.55 11.00,434.64 11.00,405.32 L 11.00 372.30 L 20.75 371.66 C26.11,371.30 35.46,371.01 41.52,371.01 C66.34,370.99 80.74,362.16 92.00,340.02 C93.25,337.55 94.85,331.70 95.54,327.02 C97.13,316.36 95.55,304.26 91.49,296.05 C87.74,288.46 77.14,278.23 68.85,274.20 C60.14,269.97 52.65,269.07 25.97,269.03 C8.07,269.01 4.07,269.26 2.22,270.56 L 0.00 272.11 L 0.00 136.06 L 0.00 0.00 L 639.19 0.00 C1201.42,0.00 1278.15,0.18 1276.44,1.47 C1275.37,2.28 1274.17,2.95 1273.77,2.97 C1273.36,2.99 1270.76,4.39 1268.00,6.10 C1262.15,9.70 1257.68,15.71 1254.94,23.67 C1253.09,29.05 1253.00,32.67 1253.00,102.62 L 1253.00 175.93 L 1189.25 176.21 L 1125.50 176.50 L 1120.60 179.43 C1113.48,183.70 1109.16,188.45 1105.62,195.91 L 1102.50 202.50 L 1102.22 276.75 L 1101.94 351.00 L 1044.22 351.01 C982.87,351.02 980.26,351.20 972.67,355.90 C967.27,359.23 960.50,367.14 958.42,372.53 C956.56,377.35 956.50,382.07 956.50,529.00 L 956.50 680.50 L 958.68 685.22 C961.38,691.05 969.19,699.55 974.23,702.11 C976.30,703.17 978.00,704.26 978.00,704.52 C978.00,704.78 757.95,705.00 489.00,705.00 L 0.00 705.00 L 0.00 571.94 ZM 195.38 440.45 C202.91,437.10 205.57,435.21 212.92,427.99 C219.97,421.08 222.37,417.89 225.76,410.99 C231.97,398.33 233.32,391.89 232.77,377.53 C232.40,367.88 231.80,364.05 229.70,358.21 C222.57,338.27 209.33,324.82 190.30,318.16 C182.97,315.60 181.29,315.39 170.58,315.68 C156.93,316.05 150.06,317.92 139.88,324.07 C127.22,331.72 117.78,344.24 112.52,360.34 C109.10,370.81 108.92,388.28 112.12,398.64 C115.37,409.21 120.20,417.86 126.89,425.15 C134.38,433.31 142.14,438.59 152.00,442.22 C159.03,444.81 160.35,444.97 173.00,444.69 C186.28,444.41 186.64,444.34 195.38,440.45 ZM 297.57 435.00 C301.33,423.36 303.81,415.23 308.57,399.00 C310.59,392.12 313.03,384.25 313.99,381.50 C316.90,373.23 324.00,349.31 324.00,347.80 C324.00,347.02 324.60,345.56 325.34,344.55 C326.79,342.57 326.39,341.52 335.67,372.00 C338.84,382.45 340.88,389.01 344.50,400.50 C345.19,402.70 346.97,408.55 348.46,413.50 C349.96,418.45 351.99,424.98 352.98,428.00 C353.98,431.02 355.30,435.39 355.92,437.71 C356.54,440.02 357.75,442.61 358.60,443.46 C360.51,445.37 365.39,445.47 367.23,443.63 C367.99,442.87 370.55,436.23 372.92,428.88 C375.30,421.52 379.84,407.62 383.00,398.00 C386.17,388.38 393.16,367.10 398.54,350.73 L 408.32 320.97 L 405.98 318.48 C403.44,315.77 400.27,315.30 397.80,317.25 C396.59,318.21 393.00,326.84 392.50,330.00 C392.34,331.03 385.97,351.16 379.92,369.73 C378.81,373.15 377.74,376.75 377.55,377.73 C377.36,378.70 376.31,382.20 375.22,385.50 C374.13,388.80 371.05,398.36 368.37,406.75 C365.69,415.14 363.28,421.99 363.00,421.98 C362.54,421.97 361.13,417.70 355.74,400.00 C354.65,396.42 352.96,391.02 351.98,388.00 C351.00,384.98 349.43,379.80 348.50,376.50 C347.57,373.20 346.01,368.02 345.02,365.00 C344.04,361.98 342.30,356.35 341.16,352.50 C334.13,328.87 332.57,324.48 330.41,322.32 C327.63,319.54 325.95,319.41 323.02,321.78 C321.04,323.38 317.56,331.33 316.58,336.50 C316.37,337.60 315.32,341.20 314.25,344.50 C313.18,347.80 311.51,353.20 310.54,356.50 C309.57,359.80 307.98,364.98 307.01,368.00 C304.61,375.47 301.68,384.99 299.00,394.00 C297.78,398.12 295.97,403.98 295.00,407.00 C294.02,410.02 292.65,414.41 291.95,416.75 C291.25,419.09 290.30,421.00 289.84,421.00 C289.38,421.00 289.00,420.77 289.00,420.50 C289.00,420.22 287.39,414.26 285.42,407.25 C278.77,383.62 274.85,369.47 271.92,358.50 C270.74,354.10 269.13,348.40 268.34,345.84 C267.55,343.28 266.67,339.93 266.40,338.40 C266.12,336.87 265.02,333.01 263.95,329.84 C262.88,326.66 262.00,323.25 262.00,322.25 C262.00,316.93 255.17,313.97 251.47,317.68 C249.46,319.68 250.02,326.12 252.91,334.33 C253.90,337.18 255.69,342.88 256.87,347.00 C258.05,351.12 260.41,359.23 262.12,365.00 C263.83,370.77 265.81,377.75 266.52,380.50 C267.23,383.25 269.20,390.23 270.89,396.00 C272.58,401.77 274.89,409.65 276.01,413.50 C277.13,417.35 278.94,423.42 280.01,427.00 C281.09,430.58 282.44,435.39 283.01,437.70 C284.42,443.38 286.40,445.18 290.87,444.80 L 294.50 444.50 L 297.57 435.00 ZM 498.64 442.89 C507.43,440.18 511.59,438.01 516.25,433.70 C519.17,430.99 520.00,429.48 520.00,426.82 C520.00,419.87 515.63,419.21 507.24,424.87 C498.26,430.93 490.96,433.29 481.00,433.34 C460.22,433.47 443.76,422.47 437.05,404.00 C435.89,400.82 433.07,386.27 433.02,383.25 C433.00,382.27 442.64,382.00 477.93,382.00 C518.73,382.00 523.01,381.85 524.54,380.31 C526.00,378.86 526.16,376.98 525.72,366.56 C524.78,344.10 518.95,330.57 506.54,322.02 C499.72,317.33 492.22,315.69 477.50,315.67 C466.32,315.65 463.59,315.98 458.00,318.01 C443.20,323.37 432.86,333.45 426.73,348.48 C421.18,362.12 419.49,381.06 422.45,396.50 C426.90,419.77 438.75,434.61 459.10,442.44 C464.70,444.59 467.15,444.91 478.64,444.95 C489.29,444.99 493.09,444.60 498.64,442.89 ZM 567.80 443.80 C568.69,442.91 569.00,432.89 569.00,404.91 C569.00,374.07 569.29,365.78 570.62,359.36 C574.72,339.47 585.79,329.03 604.49,327.40 C613.36,326.62 614.83,326.18 616.03,323.95 C618.37,319.57 614.38,315.98 607.20,316.02 C601.68,316.04 590.17,319.38 584.50,322.59 C581.75,324.16 577.34,327.59 574.70,330.22 C572.06,332.85 569.70,335.00 569.45,335.00 C569.20,335.00 569.00,330.97 569.00,326.04 C569.00,318.36 568.74,316.93 567.16,316.09 C564.98,314.92 561.19,315.69 558.75,317.80 C557.12,319.21 557.00,323.46 557.00,380.33 C557.00,435.70 557.15,441.51 558.65,443.17 C560.53,445.25 565.98,445.62 567.80,443.80 ZM 758.97 441.03 C772.68,439.04 786.71,429.27 793.75,416.79 C801.73,402.65 802.15,383.26 794.78,368.50 C791.96,362.84 782.73,354.23 776.39,351.32 C773.42,349.96 771.01,348.55 771.01,348.18 C771.02,347.80 773.56,345.28 776.66,342.56 C787.62,332.94 794.92,317.45 793.63,306.52 C792.79,299.34 788.03,288.03 783.77,283.05 C778.86,277.31 772.44,272.54 766.00,269.85 C760.80,267.68 758.99,267.53 733.32,267.20 C714.74,266.97 705.48,267.21 704.07,267.96 C702.00,269.07 702.00,269.18 702.00,353.98 L 702.00 438.89 L 704.22 440.44 C706.08,441.74 710.23,442.00 729.47,441.98 C742.14,441.97 755.41,441.54 758.97,441.03 ZM 848.43 440.43 C849.83,439.02 850.00,429.82 850.00,354.13 C850.00,289.56 849.71,269.11 848.80,268.20 C847.25,266.65 841.75,266.65 840.20,268.20 C839.29,269.11 839.00,289.50 839.02,353.95 C839.02,400.45 839.36,439.00 839.77,439.60 C841.49,442.18 846.23,442.63 848.43,440.43 ZM 1468.52 702.10 C1474.62,698.60 1481.48,691.35 1484.05,685.69 L 1485.96 681.50 L 1485.98 693.25 L 1486.00 705.00 L 1474.75 704.99 L 1463.50 704.98 L 1468.52 702.10 ZM 11.67 359.33 C11.30,358.97 11.00,341.16 11.00,319.77 L 11.00 280.87 L 34.75 281.18 L 58.50 281.50 L 64.00 284.32 C80.59,292.81 88.10,310.20 83.63,329.76 C82.03,336.76 73.88,347.76 66.24,353.25 C58.15,359.05 53.28,360.00 31.55,360.00 C20.98,360.00 12.03,359.70 11.67,359.33 ZM 1483.11 18.73 C1480.27,12.86 1473.39,6.38 1466.37,2.96 L 1460.50 0.10 L 1473.25 0.05 L 1486.00 0.00 L 1486.00 11.50 C1486.00,17.83 1485.82,23.00 1485.59,23.00 C1485.36,23.00 1484.25,21.08 1483.11,18.73 ZM 162.78 432.51 C155.59,430.69 145.79,425.82 140.20,421.27 C129.55,412.63 122.00,395.68 122.00,380.44 C122.00,365.04 126.83,352.95 137.32,342.13 C148.94,330.14 166.20,324.55 181.11,327.97 C193.35,330.77 206.85,340.75 212.86,351.43 C224.27,371.69 223.58,392.49 210.89,411.47 C200.05,427.67 179.40,436.71 162.78,432.51 ZM 434.31 365.06 C434.63,362.34 436.33,356.61 438.09,352.31 C440.63,346.11 442.57,343.23 447.52,338.32 C453.14,332.75 454.61,331.88 462.43,329.44 C469.98,327.08 472.25,326.80 479.81,327.25 C495.20,328.18 505.60,333.98 509.93,344.07 C512.50,350.03 514.96,360.83 514.98,366.25 L 515.00 370.00 L 474.36 370.00 L 433.72 370.00 L 434.31 365.06 ZM 713.00 396.62 C713.00,378.27 713.28,361.84 713.62,360.12 L 714.25 357.00 L 729.88 357.02 C760.40,357.05 769.20,359.23 779.00,369.19 C787.12,377.44 790.15,388.22 787.54,399.49 C784.47,412.70 775.63,423.05 763.21,427.92 C758.42,429.81 755.84,430.00 735.46,430.00 L 713.00 430.00 L 713.00 396.62 ZM 713.82 345.48 C713.45,345.12 713.10,330.01 713.04,311.91 L 712.93 279.00 L 734.43 279.00 C753.88,279.00 756.46,279.20 761.59,281.12 C769.14,283.94 774.29,288.81 778.24,296.84 C781.00,302.46 781.49,304.54 781.46,310.49 C781.43,316.17 780.89,318.53 778.61,322.92 C774.48,330.88 766.78,338.51 759.07,342.28 L 752.50 345.50 L 733.49 345.82 C723.03,346.00 714.18,345.85 713.82,345.48 Z" fill="rgb(254,254,254)"/>
</g>
</svg>