<?xml version="1.0" encoding="UTF-8"?>
<svg version="1.1" xmlns="http://www.w3.org/2000/svg" width="788" height="415">
<path d="M0 0 C1.08139755 -0.00953201 2.1627951 -0.01906403 3.27696228 -0.02888489 C4.43539139 -0.02797348 5.5938205 -0.02706207 6.78735352 -0.02612305 C7.98683121 -0.03040817 9.1863089 -0.0346933 10.4221344 -0.03910828 C12.95638397 -0.04484604 15.49065 -0.04535592 18.02490234 -0.04101562 C21.89847958 -0.0378563 25.77129257 -0.06132087 29.64477539 -0.08666992 C32.10896714 -0.08894304 34.57316093 -0.08964635 37.03735352 -0.08862305 C38.19375839 -0.09783279 39.35016327 -0.10704254 40.54161072 -0.11653137 C50.61973711 -0.05865064 50.61973711 -0.05865064 55.47875977 3.2746582 C58.41542794 6.51511964 59.37830216 9.20980755 59.79125977 13.5871582 C59.40934787 18.09371859 58.51666877 19.9329583 55.47875977 23.2746582 C49.78955846 26.76158803 43.96447309 26.54489626 37.47875977 26.2746582 C37.47875977 30.2346582 37.47875977 34.1946582 37.47875977 38.2746582 C39.39688477 38.4809082 41.31500977 38.6871582 43.29125977 38.8996582 C76.81951825 43.76666347 107.31852869 63.217118 127.74243164 89.99389648 C148.72198364 118.50226904 157.25126836 154.0258827 152.29907227 189.00512695 C146.26040074 222.91025468 127.77094651 254.22960917 99.72875977 274.5871582 C69.52004894 295.5284656 33.51196243 303.5562294 -2.70092773 297.24731445 C-27.02482911 292.5785545 -49.38067132 281.00442461 -67.52124023 264.2746582 C-68.46741211 263.41098633 -69.41358398 262.54731445 -70.38842773 261.6574707 C-94.10157941 239.0191361 -108.61854361 206.51587643 -109.72436523 173.72387695 C-110.32242702 137.76870356 -98.5792654 104.36813895 -73.52124023 78.2746582 C-72.68979492 77.38004883 -71.85834961 76.48543945 -71.00170898 75.5637207 C-51.33418324 55.00352542 -24.55265248 42.38208879 3.47875977 38.2746582 C4.79875977 38.2746582 6.11875977 38.2746582 7.47875977 38.2746582 C7.47875977 34.3146582 7.47875977 30.3546582 7.47875977 26.2746582 C5.00375977 26.3674707 5.00375977 26.3674707 2.47875977 26.4621582 C-2.66487794 26.43567873 -7.14137959 26.16372121 -11.52124023 23.2746582 C-14.2314362 20.51205514 -15.41577521 17.85392929 -15.67358398 13.9934082 C-15.35028977 9.01965111 -14.29917729 5.73776717 -10.52124023 2.2746582 C-6.90421374 0.52292208 -4.00010416 0.01944367 0 0 Z M-53.52124023 92.2746582 C-54.34624023 93.0790332 -55.17124023 93.8834082 -56.02124023 94.7121582 C-57.25874023 95.9805957 -57.25874023 95.9805957 -58.52124023 97.2746582 C-59.03170898 97.78899414 -59.54217773 98.30333008 -60.06811523 98.83325195 C-79.75977179 119.83467466 -86.40624236 148.53261668 -85.64868164 176.5065918 C-84.52818018 200.84422706 -73.64141534 223.34766837 -57.52124023 241.2746582 C-56.49450195 242.42514648 -56.49450195 242.42514648 -55.44702148 243.59887695 C-36.11025432 264.07940854 -8.20931722 275.22387844 19.62719727 276.2355957 C48.20319269 276.77737537 75.21268408 266.13471723 96.11157227 246.61645508 C116.79637289 226.66650922 129.0434137 199.93836913 129.76416016 171.10009766 C130.04749497 144.17308019 121.47730684 120.13788383 104.47875977 99.2746582 C103.86645508 98.49735352 103.25415039 97.72004883 102.62329102 96.91918945 C86.09750218 77.01072316 60.06138095 64.47193624 34.66357422 61.47314453 C2.77588507 58.5762073 -31.44453856 68.05161053 -53.52124023 92.2746582 Z " fill="#696969" transform="translate(423.521240234375,-0.274658203125)"/>
<path d="M0 0 C0.82250189 -0.00297112 1.64500378 -0.00594224 2.49242997 -0.0090034 C5.25833023 -0.01769964 8.02418724 -0.01919944 10.7901001 -0.02069092 C12.7693084 -0.02531846 14.74851581 -0.03034303 16.72772217 -0.03573608 C22.11213999 -0.0488688 27.49654534 -0.05530682 32.88097668 -0.05974674 C36.2441417 -0.06267625 39.60730331 -0.06678084 42.97046661 -0.07125092 C53.49061116 -0.08492855 64.0107479 -0.09459373 74.53090072 -0.09845281 C86.67917859 -0.10293343 98.82734395 -0.12048047 110.97558761 -0.1494534 C120.36251867 -0.17106435 129.74941807 -0.18115679 139.13637376 -0.18249393 C144.74417585 -0.18354243 150.35187221 -0.18945996 155.95964813 -0.20731354 C161.235713 -0.22378386 166.51159254 -0.22595471 171.78767395 -0.21717453 C173.72303514 -0.21640358 175.65840624 -0.22075444 177.59374237 -0.23063278 C180.23849686 -0.24333922 182.88259368 -0.23748258 185.52734375 -0.22705078 C186.67264671 -0.23913539 186.67264671 -0.23913539 187.8410871 -0.25146413 C193.58100999 -0.19861594 198.54776304 0.83522418 202.89263916 4.89044189 C204.47846136 8.06208628 204.89538917 10.59519219 205.01763916 14.14044189 C203.49558947 18.30605156 201.8851687 20.91368246 198.01763916 23.14044189 C194.09907465 24.50407323 190.04893949 24.28551913 185.95298767 24.28088379 C185.13371491 24.28385491 184.31444214 24.28682603 183.47034293 24.28988719 C180.72136821 24.29856818 177.97243706 24.30008193 175.22344971 24.30157471 C173.25394599 24.30620328 171.28444318 24.31122799 169.31494141 24.31661987 C163.96157355 24.32974147 158.60821823 24.33618828 153.2548368 24.34063053 C149.91059497 24.34356143 146.56635657 24.34766625 143.22211647 24.3521347 C132.75964044 24.36580853 122.29717224 24.37547595 111.83468789 24.3793366 C99.7554704 24.38381827 87.67636602 24.40137179 75.59718293 24.43033719 C66.26118668 24.45194788 56.92522227 24.46204054 47.58920127 24.46337771 C42.01271296 24.46442611 36.43633099 24.47034142 30.859869 24.48819733 C25.61415926 24.50466751 20.36863592 24.50683858 15.12290955 24.49805832 C13.19883538 24.4972874 11.27475124 24.50163782 9.35070229 24.51151657 C6.72132676 24.52422381 4.09261267 24.51836599 1.46324158 24.50793457 C0.70427934 24.51599097 -0.0546829 24.52404738 -0.83664399 24.53234792 C-6.56330895 24.47931802 -11.52366521 23.43522448 -15.85736084 19.39044189 C-17.44318304 16.2187975 -17.86011085 13.6856916 -17.98236084 10.14044189 C-16.45338106 5.95586566 -14.82777556 3.42365689 -10.98236084 1.14044189 C-7.27989045 -0.0937149 -3.8557734 -0.0043251 0 0 Z " fill="#6A6A6A" transform="translate(84.98236083984375,211.85955810546875)"/>
<path d="M0 0 C1.00923238 -0.00445668 1.00923238 -0.00445668 2.03885329 -0.0090034 C4.29810101 -0.01768957 6.55729573 -0.01919857 8.81655884 -0.02069092 C10.434485 -0.02531911 12.05241007 -0.03034377 13.67033386 -0.03573608 C18.06911156 -0.048861 22.467874 -0.05530509 26.86666822 -0.05974674 C29.61405232 -0.06267699 32.36143224 -0.06678169 35.10881424 -0.07125092 C43.70251362 -0.08492537 52.29620346 -0.09459259 60.88991296 -0.09845281 C70.81446181 -0.1029352 80.73887303 -0.1204917 90.66338003 -0.1494534 C98.33224787 -0.17105701 106.00107696 -0.18115636 113.66997492 -0.18249393 C118.25155781 -0.1835428 122.83301133 -0.18946813 127.41456223 -0.20731354 C131.72375958 -0.22377167 136.03273 -0.22596077 140.34194756 -0.21717453 C141.92338734 -0.21640297 143.50483922 -0.22076251 145.0862484 -0.23063278 C147.24567698 -0.24332022 149.40429787 -0.23749371 151.5637207 -0.22705078 C152.77198202 -0.22851734 153.98024334 -0.2299839 155.22511864 -0.2314949 C159.53231071 0.27169022 162.1256162 1.8572141 165.15884399 4.89044189 C166.91357978 8.04896631 167.28448419 10.53400771 167.40884399 14.14044189 C166.19499957 17.64710356 165.19133861 19.55099981 162.2210083 21.78850746 C158.77978044 23.44286117 156.35298695 23.51783674 152.53921509 23.52139282 C151.8606011 23.52607279 151.18198711 23.53075277 150.48280907 23.53557456 C148.21576595 23.54751171 145.94932878 23.53807277 143.68228149 23.52862549 C142.05420581 23.53269177 140.42613289 23.53803397 138.79806519 23.54455566 C134.38074218 23.55822834 129.96362946 23.55293083 125.5463028 23.54341841 C120.92284072 23.53582157 116.29939662 23.54286749 111.67593384 23.5475769 C103.91174081 23.55303438 96.1476334 23.54584304 88.38345337 23.53155518 C79.40782243 23.51522867 70.43239593 23.52051719 61.45676994 23.53703439 C53.74963061 23.55064948 46.04255282 23.55256881 38.33540535 23.54471838 C33.7326332 23.54004199 29.12995713 23.53941609 24.52719116 23.54932785 C20.19988182 23.55799556 15.872836 23.55197924 11.54555511 23.53464508 C9.95767403 23.53067919 8.36977075 23.53181606 6.7818985 23.53843307 C4.61379085 23.54663488 2.44652684 23.53634452 0.2784729 23.52139282 C-0.93456512 23.52026175 -2.14760315 23.51913067 -3.3973999 23.51796532 C-7.75360276 23.00303288 -10.37382587 21.44472418 -13.34115601 18.26544189 C-14.84690214 15.70567347 -15.45232741 14.12525674 -15.59115601 11.14044189 C-14.23483191 7.20710201 -12.9940051 3.69257871 -9.59115601 1.14044189 C-6.18816036 0.00611001 -3.58938342 0.00884235 0 0 Z " fill="#696969" transform="translate(122.59115600585938,153.85955810546875)"/>
<path d="M0 0 C1.58551666 -0.01702469 1.58551666 -0.01702469 3.20306396 -0.03439331 C4.35744965 -0.03146271 5.51183533 -0.0285321 6.70120239 -0.0255127 C7.92109863 -0.03398224 9.14099487 -0.04245178 10.39785767 -0.05117798 C13.74107211 -0.07057027 17.08372842 -0.0763249 20.42696142 -0.07443047 C23.22012775 -0.07431072 26.01324193 -0.08287645 28.80639374 -0.09120798 C35.39799298 -0.11044112 41.98946559 -0.1133265 48.58108521 -0.10656738 C55.37499238 -0.09992881 62.16835632 -0.12278305 68.96215332 -0.15988111 C74.80010314 -0.1905998 80.63787843 -0.20193576 86.47590744 -0.1980443 C89.96047268 -0.19597871 93.44461533 -0.20142545 96.92910385 -0.22593689 C100.81689394 -0.25238182 104.70397539 -0.23845943 108.59182739 -0.2208252 C110.31733322 -0.24072006 110.31733322 -0.24072006 112.07769775 -0.26101685 C120.77978407 -0.16922756 120.77978407 -0.16922756 124.47491455 2.74536133 C128.03541332 6.84442809 128.14167595 10.09079455 127.77590942 15.39440918 C126.44951585 18.63670459 125.28956456 20.04565336 122.39529419 22.01077271 C117.23432605 23.98373337 112.471579 23.81258341 106.99075317 23.78259277 C105.21899216 23.79047821 105.21899216 23.79047821 103.41143799 23.79852295 C100.184095 23.80943949 96.95712311 23.8069157 93.72978592 23.79738569 C90.34533179 23.78976704 86.96090168 23.79684081 83.57644653 23.80154419 C77.89386575 23.80699535 72.2114021 23.79982702 66.52883911 23.78552246 C59.96790777 23.76919707 53.40725616 23.77448604 46.8463316 23.79100168 C41.20367642 23.80463488 35.56110524 23.80652728 29.91843891 23.79868567 C26.55251292 23.79401919 23.18671823 23.79335591 19.82080078 23.80329514 C16.06736342 23.81091436 12.31446305 23.79929772 8.56106567 23.78259277 C6.89637741 23.79170181 6.89637741 23.79170181 5.19805908 23.80099487 C-0.33737312 23.7553593 -4.48828698 23.60987218 -9.22409058 20.39440918 C-11.66749248 17.46232689 -12.19068592 15.70618597 -12.59909058 11.89440918 C-12.11115089 7.34030546 -10.82198228 4.84272178 -7.44122124 1.77843475 C-4.74692677 0.0965436 -3.16023961 0.01284057 0 0 Z " fill="#696969" transform="translate(162.22409057617188,95.6055908203125)"/>
<path d="M0 0 C0.99 0.66 1.98 1.32 3 2 C-2.74344992 11.65565493 -8.56359022 21.25685722 -14.57861328 30.74609375 C-15.59105858 32.35153775 -16.59650226 33.96140628 -17.59716797 35.57421875 C-19.28093159 38.28703058 -20.98275736 40.98783344 -22.6875 43.6875 C-23.20989258 44.53723389 -23.73228516 45.38696777 -24.27050781 46.26245117 C-26.77267244 50.18672917 -28.86190939 53.1599679 -32.8203125 55.6796875 C-36.24382605 57.69551626 -36.24382605 57.69551626 -36.98046875 61.12109375 C-37.04878906 62.21550781 -37.11710937 63.30992187 -37.1875 64.4375 C-38.16116751 73.16116751 -38.16116751 73.16116751 -42 77 C-47.42300491 80.53962275 -52.40677748 82.9952034 -59 82 C-65.42018298 79.89683661 -69.11721869 76.85663371 -72.8125 71.25 C-74.91064914 65.5076971 -74.90563177 60.36186124 -72.375 54.75 C-70.24738713 51.05428491 -67.89108768 47.90567614 -64 46 C-62.15420831 45.67698645 -60.29807726 45.41006905 -58.4375 45.1875 C-54.48410716 44.69815738 -54.48410716 44.69815738 -51.4609375 42.3515625 C-50.68081799 40.96645235 -49.93292127 39.56279824 -49.21484375 38.14453125 C-45.59112008 31.74766857 -38.1024843 27.54521101 -32.25 23.3671875 C-28.2805317 20.50786722 -24.43201008 17.49225558 -20.5625 14.5 C-13.89115069 9.35512072 -7.10682288 4.53248241 0 0 Z " fill="#696969" transform="translate(501,105)"/>
<path d="M0 0 C3.3 0 6.6 0 10 0 C13.50236667 8.27154682 16.81640303 16.6007229 20 25 C21.78741424 22.31887863 22.80055903 20.13825578 23.91015625 17.1484375 C24.26013672 16.21515625 24.61011719 15.281875 24.97070312 14.3203125 C25.33099609 13.34835937 25.69128906 12.37640625 26.0625 11.375 C26.78012162 9.44440733 27.50004948 7.51466981 28.22265625 5.5859375 C28.53984619 4.7304834 28.85703613 3.8750293 29.18383789 2.99365234 C30 1 30 1 31 0 C34.3 0 37.6 0 41 0 C41 14.19 41 28.38 41 43 C38.69 43 36.38 43 34 43 C33.67 32.77 33.34 22.54 33 12 C30.40915509 19.19408517 30.40915509 19.19408517 27.82446289 26.39038086 C27.3409436 27.72661499 27.3409436 27.72661499 26.84765625 29.08984375 C26.51773682 30.00628662 26.18781738 30.92272949 25.84790039 31.86694336 C25 34 25 34 24 35 C21.66702567 35.04092937 19.33294775 35.04241723 17 35 C16.24902565 33.20874151 15.49928538 31.41696564 14.75 29.625 C14.33234375 28.62726563 13.9146875 27.62953125 13.484375 26.6015625 C11.62158312 22.08184115 9.81556013 17.53890031 8 13 C7.67 22.9 7.34 32.8 7 43 C4.69 43 2.38 43 0 43 C0 28.81 0 14.62 0 0 Z " fill="#676767" transform="translate(747,322)"/>
<path d="M0 0 C3.3 0 6.6 0 10 0 C13.50236667 8.27154682 16.81640303 16.6007229 20 25 C21.78741424 22.31887863 22.80055903 20.13825578 23.91015625 17.1484375 C24.26013672 16.21515625 24.61011719 15.281875 24.97070312 14.3203125 C25.33099609 13.34835937 25.69128906 12.37640625 26.0625 11.375 C26.78012162 9.44440733 27.50004948 7.51466981 28.22265625 5.5859375 C28.53984619 4.7304834 28.85703613 3.8750293 29.18383789 2.99365234 C30 1 30 1 31 0 C34.3 0 37.6 0 41 0 C41 14.19 41 28.38 41 43 C38.69 43 36.38 43 34 43 C33.67 32.77 33.34 22.54 33 12 C30.40915509 19.19408517 30.40915509 19.19408517 27.82446289 26.39038086 C27.3409436 27.72661499 27.3409436 27.72661499 26.84765625 29.08984375 C26.51773682 30.00628662 26.18781738 30.92272949 25.84790039 31.86694336 C25 34 25 34 24 35 C21.66702567 35.04092937 19.33294775 35.04241723 17 35 C16.24902565 33.20874151 15.49928538 31.41696564 14.75 29.625 C14.33234375 28.62726563 13.9146875 27.62953125 13.484375 26.6015625 C11.62158312 22.08184115 9.81556013 17.53890031 8 13 C7.67 22.9 7.34 32.8 7 43 C4.69 43 2.38 43 0 43 C0 28.81 0 14.62 0 0 Z " fill="#676767" transform="translate(355,322)"/>
<path d="M0 0 C3.3 0 6.6 0 10 0 C10.44915771 0.87325928 10.89831543 1.74651855 11.36108398 2.64624023 C13.02338913 5.87688643 14.68819007 9.10624088 16.35375977 12.33520508 C17.07514829 13.73459155 17.79585369 15.13433039 18.51586914 16.53442383 C19.5491611 18.5434051 20.58487952 20.55111853 21.62109375 22.55859375 C22.10551186 23.50236122 22.10551186 23.50236122 22.59971619 24.4651947 C24.01900609 27.42529609 24.01900609 27.42529609 26 30 C26.33 20.1 26.66 10.2 27 0 C29.31 0 31.62 0 34 0 C34 14.19 34 28.38 34 43 C31.03 43 28.06 43 25 43 C22.72513145 40.22885705 21.49512766 38.17492957 20 35 C18.96549269 33.06076109 17.92752919 31.12336326 16.88671875 29.1875 C15.81635365 27.12705172 14.75068978 25.06415988 13.6875 23 C11.810625 19.37 9.93375 15.74 8 12 C7.67 22.23 7.34 32.46 7 43 C4.69 43 2.38 43 0 43 C0 28.81 0 14.62 0 0 Z " fill="#686868" transform="translate(597,322)"/>
<path d="M0 0 C5.53783687 2.91842807 8.44580291 7.08179417 10.49609375 12.828125 C12.67072188 20.84557267 12.06182757 29.28435563 7.9375 36.57421875 C5.87388634 39.35784714 3.47982498 41.23200229 0.68359375 43.265625 C1.11671875 43.67554688 1.54984375 44.08546875 1.99609375 44.5078125 C2.55296875 45.04664063 3.10984375 45.58546875 3.68359375 46.140625 C4.24046875 46.67429687 4.79734375 47.20796875 5.37109375 47.7578125 C6.68359375 49.265625 6.68359375 49.265625 6.68359375 51.265625 C3.75553042 51.5685281 1.54040642 51.79119527 -1.31640625 51.265625 C-2.8671875 49.96484375 -2.8671875 49.96484375 -4.25390625 48.328125 C-5.97736667 46.31975649 -6.78829776 45.37815653 -9.40625 44.8203125 C-10.16035156 44.78164063 -10.91445313 44.74296875 -11.69140625 44.703125 C-16.93693838 44.40287569 -20.46565129 42.87361498 -24.31640625 39.265625 C-29.44064468 32.81057708 -30.1019716 25.94877486 -29.79296875 17.8984375 C-28.88820182 11.00144371 -26.46383816 5.46444325 -20.87890625 1.140625 C-14.72032577 -2.14941514 -6.56484138 -2.08126506 0 0 Z M-19.31640625 9.265625 C-22.73184564 15.03653984 -23.18088622 20.64427842 -22.31640625 27.265625 C-20.75767308 32.13366858 -18.75468607 35.5738163 -14.31640625 38.265625 C-10.28178597 39.06455971 -6.12036968 39.19337762 -2.40234375 37.28125 C0.46642965 34.99188403 2.39519968 32.66652106 3.68359375 29.265625 C4.07677475 25.73486798 4.07677475 25.73486798 4.05859375 21.890625 C4.10113281 19.96089844 4.10113281 19.96089844 4.14453125 17.9921875 C3.5075746 12.84255489 1.45254127 9.94915051 -2.2578125 6.41796875 C-7.96653363 3.22238482 -15.14091884 4.33095806 -19.31640625 9.265625 Z " fill="#676767" transform="translate(29.31640625,321.734375)"/>
<path d="M0 0 C5.70233586 3.00511868 8.48609612 7.1899378 10.43359375 13.140625 C12.5672375 21.08903413 11.80546621 27.69820616 8.68359375 35.265625 C5.97813357 39.85147594 2.55230308 42.21901784 -2.31640625 44.265625 C-8.52932354 45.13053228 -15.22032209 45.43009306 -20.87890625 42.390625 C-26.46383816 38.06680675 -28.88820182 32.52980629 -29.79296875 25.6328125 C-30.10345164 17.54391613 -29.40829691 10.77123469 -24.31640625 4.265625 C-18.16876253 -2.25235871 -8.22092191 -2.60629565 0 0 Z M-19.31640625 9.265625 C-22.73184564 15.03653984 -23.18088622 20.64427842 -22.31640625 27.265625 C-20.75767308 32.13366858 -18.75468607 35.5738163 -14.31640625 38.265625 C-10.28178597 39.06455971 -6.12036968 39.19337762 -2.40234375 37.28125 C0.46642965 34.99188403 2.39519968 32.66652106 3.68359375 29.265625 C4.07677475 25.73486798 4.07677475 25.73486798 4.05859375 21.890625 C4.10113281 19.96089844 4.10113281 19.96089844 4.14453125 17.9921875 C3.5075746 12.84255489 1.45254127 9.94915051 -2.2578125 6.41796875 C-7.96653363 3.22238482 -15.14091884 4.33095806 -19.31640625 9.265625 Z " fill="#676767" transform="translate(728.31640625,321.734375)"/>
<path d="M0 0 C5.70233586 3.00511868 8.48609612 7.1899378 10.43359375 13.140625 C12.5672375 21.08903413 11.80546621 27.69820616 8.68359375 35.265625 C5.97813357 39.85147594 2.55230308 42.21901784 -2.31640625 44.265625 C-8.52932354 45.13053228 -15.22032209 45.43009306 -20.87890625 42.390625 C-26.46383816 38.06680675 -28.88820182 32.52980629 -29.79296875 25.6328125 C-30.10345164 17.54391613 -29.40829691 10.77123469 -24.31640625 4.265625 C-18.16876253 -2.25235871 -8.22092191 -2.60629565 0 0 Z M-19.31640625 9.265625 C-22.73184564 15.03653984 -23.18088622 20.64427842 -22.31640625 27.265625 C-20.75767308 32.13366858 -18.75468607 35.5738163 -14.31640625 38.265625 C-10.28178597 39.06455971 -6.12036968 39.19337762 -2.40234375 37.28125 C0.46642965 34.99188403 2.39519968 32.66652106 3.68359375 29.265625 C4.07677475 25.73486798 4.07677475 25.73486798 4.05859375 21.890625 C4.10113281 19.96089844 4.10113281 19.96089844 4.14453125 17.9921875 C3.5075746 12.84255489 1.45254127 9.94915051 -2.2578125 6.41796875 C-7.96653363 3.22238482 -15.14091884 4.33095806 -19.31640625 9.265625 Z " fill="#676767" transform="translate(578.31640625,321.734375)"/>
<path d="M0 0 C5.70233586 3.00511868 8.48609612 7.1899378 10.43359375 13.140625 C12.5672375 21.08903413 11.80546621 27.69820616 8.68359375 35.265625 C5.97813357 39.85147594 2.55230308 42.21901784 -2.31640625 44.265625 C-8.52932354 45.13053228 -15.22032209 45.43009306 -20.87890625 42.390625 C-26.46383816 38.06680675 -28.88820182 32.52980629 -29.79296875 25.6328125 C-30.10345164 17.54391613 -29.40829691 10.77123469 -24.31640625 4.265625 C-18.16876253 -2.25235871 -8.22092191 -2.60629565 0 0 Z M-19.31640625 9.265625 C-22.73184564 15.03653984 -23.18088622 20.64427842 -22.31640625 27.265625 C-20.75767308 32.13366858 -18.75468607 35.5738163 -14.31640625 38.265625 C-10.28178597 39.06455971 -6.12036968 39.19337762 -2.40234375 37.28125 C0.46642965 34.99188403 2.39519968 32.66652106 3.68359375 29.265625 C4.07677475 25.73486798 4.07677475 25.73486798 4.05859375 21.890625 C4.10113281 19.96089844 4.10113281 19.96089844 4.14453125 17.9921875 C3.5075746 12.84255489 1.45254127 9.94915051 -2.2578125 6.41796875 C-7.96653363 3.22238482 -15.14091884 4.33095806 -19.31640625 9.265625 Z " fill="#676767" transform="translate(247.31640625,321.734375)"/>
<path d="M0 0 C21 0 21 0 26 3 C29.16512646 6.71083792 29.50491607 10.12457487 29.37109375 14.83984375 C28.82621278 18.01162456 27.26944593 19.80147426 25 22 C26.72497507 26.6029598 28.9095871 30.93255824 31.125 35.3125 C31.49753906 36.05306641 31.87007812 36.79363281 32.25390625 37.55664062 C33.16744806 39.37201217 34.08347487 41.18613282 35 43 C32.36 43 29.72 43 27 43 C26.56171875 41.95199219 26.1234375 40.90398437 25.671875 39.82421875 C22.2510392 31.77289691 22.2510392 31.77289691 15.796875 26.3359375 C12.16437569 25.4094675 12.16437569 25.4094675 7 25 C7 30.94 7 36.88 7 43 C4.69 43 2.38 43 0 43 C0 28.81 0 14.62 0 0 Z M7 5 C7 9.95 7 14.9 7 20 C13.87522861 20.05348837 13.87522861 20.05348837 20 18 C22.37222995 15.10420618 22.37222995 15.10420618 21.75 11.4375 C21.3141556 7.95407388 21.3141556 7.95407388 19 6 C14.81273716 4.80363919 11.54694975 5 7 5 Z " fill="#676767" transform="translate(128,322)"/>
<path d="M0 0 C2.64 0 5.28 0 8 0 C11.73076563 7.88140881 14.99870478 15.90244192 18.0769043 24.05517578 C18.82291759 26.02754283 19.57818257 27.99620978 20.33398438 29.96484375 C20.81305492 31.2263519 21.29159111 32.48806314 21.76953125 33.75 C22.19854736 34.87921875 22.62756348 36.0084375 23.06958008 37.171875 C24 40 24 40 24 43 C21.69 43 19.38 43 17 43 C15.68 39.7 14.36 36.4 13 33 C7.06 32.67 1.12 32.34 -5 32 C-5.474375 33.629375 -5.94875 35.25875 -6.4375 36.9375 C-7.875 41.875 -7.875 41.875 -9 43 C-11.33297433 43.04092937 -13.66705225 43.04241723 -16 43 C-13.52316688 33.6756207 -9.88345918 24.81825819 -6.3125 15.875 C-5.69948901 14.33088028 -5.08685579 12.78661053 -4.47460938 11.2421875 C-2.98742121 7.49304831 -1.49514024 3.74597463 0 0 Z M4 8 C-0.0183841 17.31938459 -0.0183841 17.31938459 -3 27 C1.62 27 6.24 27 11 27 C10.13832722 22.69163608 8.94423127 18.78564022 7.4375 14.6875 C7.20353516 14.04232422 6.96957031 13.39714844 6.72851562 12.73242188 C6.15552993 11.15378781 5.57820536 9.57672974 5 8 C4.67 8 4.34 8 4 8 Z " fill="#676767" transform="translate(474,322)"/>
<path d="M0 0 C1.98 0 3.96 0 6 0 C6.01981934 0.77601563 6.03963867 1.55203125 6.06005859 2.3515625 C6.15589878 5.90135587 6.26533804 9.45060781 6.375 13 C6.4059375 14.22074219 6.436875 15.44148438 6.46875 16.69921875 C6.67477861 23.05176751 6.87133351 28.97601864 9 35 C12.19745142 37.13163428 13.28757916 37.31975564 17 37.375 C18.299375 37.41753906 18.299375 37.41753906 19.625 37.4609375 C22.12442771 37.20789421 22.12442771 37.20789421 23.75 35.2265625 C26.11218774 31.01891558 26.16969828 27.04411333 26.31640625 22.265625 C26.35830078 20.97011719 26.40019531 19.67460937 26.44335938 18.33984375 C26.48316671 16.97656524 26.52287906 15.61328394 26.5625 14.25 C26.60572274 12.87108125 26.64933821 11.49217474 26.69335938 10.11328125 C26.79943958 6.7422881 26.9014985 3.37122174 27 0 C29.31 0 31.62 0 34 0 C34.04987075 3.98352168 34.08593964 7.9669195 34.10986328 11.95068359 C34.12472879 13.96328119 34.150157 15.97579188 34.17578125 17.98828125 C34.2539504 33.54394272 34.2539504 33.54394272 30.125 39.875 C25.93922214 44.06077786 22.49230172 44.31644409 16.625 44.375 C15.33851562 44.40335937 14.05203125 44.43171875 12.7265625 44.4609375 C8.34154638 43.91855605 6.32503124 42.884249 3 40 C0.08159604 35.32399448 -0.41001974 31.3645623 -0.29296875 25.9765625 C-0.28872391 25.23038666 -0.28447906 24.48421082 -0.28010559 23.71542358 C-0.26342382 21.35156902 -0.22579339 18.98859324 -0.1875 16.625 C-0.17243949 15.0143353 -0.15875348 13.40365713 -0.14648438 11.79296875 C-0.11355504 7.86164485 -0.06184762 3.93097099 0 0 Z " fill="#686868" transform="translate(48,322)"/>
<path d="M0 0 C11.55 0 23.1 0 35 0 C35 5.62286797 35 5.62286797 32.359375 8.6796875 C31.50303467 9.69204468 31.50303467 9.69204468 30.62939453 10.72485352 C29.69909424 11.78917603 29.69909424 11.78917603 28.75 12.875 C27.47029117 14.38060755 26.19166733 15.8871379 24.9140625 17.39453125 C23.93808105 18.53656006 23.93808105 18.53656006 22.94238281 19.70166016 C19.93116953 23.26470212 17.0259249 26.90955918 14.125 30.5625 C12.43375 32.686875 10.7425 34.81125 9 37 C21.87 37.495 21.87 37.495 35 38 C35 39.65 35 41.3 35 43 C23.12 43 11.24 43 -1 43 C-1 37.37718554 -1 37.37718554 1.45703125 34.50390625 C1.98772217 33.8692041 2.51841309 33.23450195 3.06518555 32.58056641 C3.9301062 31.58162354 3.9301062 31.58162354 4.8125 30.5625 C6.00375121 29.14549476 7.19383316 27.72750581 8.3828125 26.30859375 C9.28821777 25.23714111 9.28821777 25.23714111 10.21191406 24.14404297 C12.94735892 20.86404887 15.56921535 17.49873874 18.1875 14.125 C22.74108782 8.25891218 22.74108782 8.25891218 25 6 C16.75 5.67 8.5 5.34 0 5 C0 3.35 0 1.7 0 0 Z " fill="#686868" transform="translate(421,322)"/>
<path d="M0 0 C9.24 0 18.48 0 28 0 C28 1.65 28 3.3 28 5 C21.07 5 14.14 5 7 5 C7 9.29 7 13.58 7 18 C13.93 18 20.86 18 28 18 C28 19.65 28 21.3 28 23 C21.07 23 14.14 23 7 23 C7 27.95 7 32.9 7 38 C14.26 38 21.52 38 29 38 C29 39.65 29 41.3 29 43 C19.43 43 9.86 43 0 43 C0 28.81 0 14.62 0 0 Z " fill="#686868" transform="translate(91,322)"/>
<path d="M0 0 C21 0 21 0 27 4 C29.92202617 8.20569084 29.63649352 13.07881838 29 18 C26.95655701 22.08688598 25.28290917 24.42284764 21 26 C16.31930955 26.26474494 11.6923928 26.08689616 7 26 C7 31.61 7 37.22 7 43 C4.69 43 2.38 43 0 43 C0 28.81 0 14.62 0 0 Z M7 5 C7 10.28 7 15.56 7 21 C13.75048026 21 15.51015739 20.85471816 21 18 C22.42041821 15.15916359 22.31452272 13.14522722 22 10 C20.24152913 7.67630635 18.88296562 6.36536508 16.1875 5.25 C13.14367994 4.90213485 10.06363358 5 7 5 Z " fill="#686868" transform="translate(266,322)"/>
<path d="M0 0 C1.29550781 -0.02578125 2.59101562 -0.0515625 3.92578125 -0.078125 C7.88333975 0.2670826 10.29204069 1.24957436 13.6875 3.25 C13.6875 5.56 13.6875 7.87 13.6875 10.25 C8.9375 8.375 8.9375 8.375 6.6875 7.25 C4.75390414 7.10148156 2.81407903 7.02869167 0.875 7 C-0.16269531 6.97421875 -1.20039062 6.9484375 -2.26953125 6.921875 C-5.73703845 7.29577822 -7.53931596 8.16767935 -10.3125 10.25 C-13.77054054 15.97365331 -14.17140232 21.66193603 -13.3125 28.25 C-12.12859888 32.00205585 -10.87387712 35.19529492 -7.54296875 37.4453125 C-4.73134964 38.45966195 -2.36161465 38.55120133 0.625 38.5625 C1.64464844 38.57925781 2.66429687 38.59601563 3.71484375 38.61328125 C7.06844859 38.20344518 8.89670334 37.08949902 11.6875 35.25 C12.3475 35.25 13.0075 35.25 13.6875 35.25 C13.6875 37.56 13.6875 39.87 13.6875 42.25 C9.01666044 44.97465641 5.57583437 45.6578557 0.1875 45.625 C-1.0809375 45.63273437 -2.349375 45.64046875 -3.65625 45.6484375 C-9.13968768 45.05088339 -13.05079998 43.13920717 -16.5625 38.875 C-17.04203125 38.31039062 -17.5215625 37.74578125 -18.015625 37.1640625 C-22.69410531 30.2590765 -22.20521624 21.78307294 -20.91796875 13.8046875 C-19.19288233 8.1285967 -15.08622208 4.57043169 -10.3125 1.25 C-6.73937005 0.05895668 -3.76696678 0.04471177 0 0 Z " fill="#676767" transform="translate(679.3125,320.75)"/>
<path d="M0 0 C4.88766335 -0.96007673 4.88766335 -0.96007673 8 0 C12.53570246 4.59891782 15.8056725 9.93789321 18 16 C18.66 16 19.32 16 20 16 C20.38285156 14.94232422 20.38285156 14.94232422 20.7734375 13.86328125 C23.00069602 8.66398031 26.02446513 4.03094303 30 0 C33.14307221 -0.96955787 34.69983211 -0.64824726 38 0 C37.00187836 1.58451811 36.00134515 3.16751704 35 4.75 C34.36835938 5.76707031 33.73671875 6.78414063 33.0859375 7.83203125 C31 11 31 11 28.7890625 13.69921875 C21.56169467 22.84431776 21.82298186 31.80360272 22 43 C20.02 43 18.04 43 16 43 C16.06703125 41.76507813 16.1340625 40.53015625 16.203125 39.2578125 C16.49029071 25.49710503 12.76856177 17.49614932 4.35644531 6.77783203 C2.71195496 4.62247229 1.32329116 2.3643419 0 0 Z " fill="#676767" transform="translate(159,322)"/>
<path d="M0 0 C12.54 0 25.08 0 38 0 C38 1.65 38 3.3 38 5 C32.72 5 27.44 5 22 5 C22 17.54 22 30.08 22 43 C20.02 43 18.04 43 16 43 C16 30.46 16 17.92 16 5 C10.72 5 5.44 5 0 5 C0 3.35 0 1.7 0 0 Z " fill="#686868" transform="translate(492,322)"/>
<path d="M0 0 C12.54 0 25.08 0 38 0 C38 1.65 38 3.3 38 5 C32.72 5 27.44 5 22 5 C22 17.54 22 30.08 22 43 C20.02 43 18.04 43 16 43 C16 30.46 16 17.92 16 5 C10.72 5 5.44 5 0 5 C0 3.35 0 1.7 0 0 Z " fill="#686868" transform="translate(296,322)"/>
<path d="M0 0 C2.31 0 4.62 0 7 0 C7 14.19 7 28.38 7 43 C4.69 43 2.38 43 0 43 C0 28.81 0 14.62 0 0 Z " fill="#686868" transform="translate(534,322)"/>
<path d="M0 0 C2.31 0 4.62 0 7 0 C7 14.19 7 28.38 7 43 C4.69 43 2.38 43 0 43 C0 28.81 0 14.62 0 0 Z " fill="#686868" transform="translate(406,322)"/>
<path d="M0 0 C2.31 0 4.62 0 7 0 C7 14.19 7 28.38 7 43 C4.69 43 2.38 43 0 43 C0 28.81 0 14.62 0 0 Z " fill="#686868" transform="translate(338,322)"/>
<path d="M0 0 C2.875 2.0625 2.875 2.0625 5 5 C5.63127485 8.99807408 5.67917484 11.00735985 3.375 14.375 C0.43721938 16.38506043 -1.4396496 16.92733979 -5 17 C-7.86332091 15.76356597 -9.49288133 14.66847461 -11.375 12.1875 C-12.27208761 9.04769336 -11.97238994 7.11164779 -11 4 C-7.59825854 0.3066807 -4.98779194 -0.93521099 0 0 Z " fill="#696969" transform="translate(533,160)"/>
<path d="M0 0 C2.88293954 1.72976372 3.02200887 3.07923193 3.9375 6.375 C4 10 4 10 2.4375 12.875 C-0.51902195 15.45248068 -2.08967888 16 -6 16 C-9.52906067 14.39588152 -10.82772908 13.25840638 -13 10 C-12.67195326 3.87646077 -12.67195326 3.87646077 -10.5625 1.125 C-6.85584732 -1.54378993 -4.40826472 -0.92805573 0 0 Z " fill="#696969" transform="translate(450,245)"/>
<path d="M0 0 C2.5 2.125 2.5 2.125 4 5 C4.07481382 9.26438773 3.64839572 11.23718151 0.875 14.5 C-2.91613014 16.47798094 -4.92797973 16.13111674 -9 15 C-11.88293954 13.27023628 -12.02200887 11.92076807 -12.9375 8.625 C-13 5 -13 5 -11.1875 2.125 C-7.36269331 -1.5905265 -5.1353294 -1.23956227 0 0 Z " fill="#696969" transform="translate(450,76)"/>
<path d="M0 0 C3.73785618 0.70084803 5.39432914 1.80793366 8 4.5625 C9.43037039 7.95962967 9.10828396 9.27184306 7.8125 12.75 C5.24961948 16.72688356 5.24961948 16.72688356 2 17.5625 C-1.5012527 17.41661447 -3.47615008 16.92092363 -6.375 14.9375 C-8.67917484 11.56985985 -8.63127485 9.56057408 -8 5.5625 C-5.54999553 2.17572911 -4.13607554 0.77551416 0 0 Z " fill="#696969" transform="translate(361,159.4375)"/>
<path d="M0 0 C2.31 0 4.62 0 7 0 C7 2.31 7 4.62 7 7 C4.69 7 2.38 7 0 7 C0 4.69 0 2.38 0 0 Z " fill="#686868" transform="translate(642,358)"/>
</svg>
