<?xml version="1.0" encoding="UTF-8"?>
<svg version="1.1" xmlns="http://www.w3.org/2000/svg" width="202" height="249">
<path d="M0 0 C66.66 0 133.32 0 202 0 C202 82.17 202 164.34 202 249 C135.34 249 68.68 249 0 249 C0 166.83 0 84.66 0 0 Z " fill="#FCFCFD" transform="translate(0,0)"/>
<path d="M0 0 C3.10722846 1.86433708 4.67740031 2.98405172 5.78515625 6.47265625 C7.43024488 9.89507536 9.15663044 10.32752945 12.625 11.75 C20.89627219 15.60264539 26.53285084 21.54882391 30 30 C31.32 29.34 32.64 28.68 34 28 C33.34 29.98 32.68 31.96 32 34 C32.763125 34.2475 33.52625 34.495 34.3125 34.75 C37.37754038 36.17560018 38.46110282 37.00320024 40 40 C40.35818991 43.86845108 40.3426954 46.29903213 38.625 49.8125 C37.85422648 53.74344495 38.53684162 54.26080199 40.6875 57.5 C46.39728995 66.18200938 47.28912657 76.37763549 47.49609375 86.57421875 C47.78592466 89.17057489 47.78592466 89.17057489 50.03515625 90.83203125 C50.68355469 91.21746094 51.33195312 91.60289063 52 92 C51.67 93.65 51.34 95.3 51 97 C49.906875 97.185625 48.81375 97.37125 47.6875 97.5625 C44.0509502 98.57516528 44.0509502 98.57516528 42.8671875 100.69140625 C41.94073788 102.83650143 41.94073788 102.83650143 41 106 C41.639375 106.20625 42.27875 106.4125 42.9375 106.625 C45 108 45 108 45.75 110.4375 C46.09099777 115.29671818 46.07796948 120.131239 46 125 C48.31 125.33 50.62 125.66 53 126 C52.98839844 125.00097656 52.97679687 124.00195312 52.96484375 122.97265625 C52.95582031 121.68230469 52.94679687 120.39195313 52.9375 119.0625 C52.92589844 117.77472656 52.91429687 116.48695312 52.90234375 115.16015625 C53 112 53 112 54 111 C56.53049402 110.92686433 59.03304837 110.90752473 61.5625 110.9375 C62.62887695 110.94426758 62.62887695 110.94426758 63.71679688 110.95117188 C65.47790013 110.96299136 67.23896036 110.98092737 69 111 C69 111.33 69 111.66 69 112 C64.38 112 59.76 112 55 112 C55 116.95 55 121.9 55 127 C49.06 127 43.12 127 37 127 C37 132.28 37 137.56 37 143 C30.4 143 23.8 143 17 143 C17 147.95 17 152.9 17 158 C16.67 158 16.34 158 16 158 C15.97315321 155.35409986 15.95323643 152.70846904 15.9375 150.0625 C15.92912109 149.30775391 15.92074219 148.55300781 15.91210938 147.77539062 C15.90347559 145.85005687 15.94775667 143.92464419 16 142 C17 141 17 141 18.76586914 140.88647461 C19.51473389 140.89171143 20.26359863 140.89694824 21.03515625 140.90234375 C21.84404297 140.90556641 22.65292969 140.90878906 23.48632812 140.91210938 C24.33646484 140.92048828 25.18660156 140.92886719 26.0625 140.9375 C26.91650391 140.94201172 27.77050781 140.94652344 28.65039062 140.95117188 C30.76695663 140.96299627 32.88348685 140.98093231 35 141 C34.96519531 140.01257813 34.93039063 139.02515625 34.89453125 138.0078125 C34.86746094 136.72648438 34.84039062 135.44515625 34.8125 134.125 C34.77769531 132.84882813 34.74289063 131.57265625 34.70703125 130.2578125 C34.80371094 129.18273437 34.90039062 128.10765625 35 127 C35.99 126.34 36.98 125.68 38 125 C37.67 121.04 37.34 117.08 37 113 C36.01 113 35.02 113 34 113 C33.731875 113.5775 33.46375 114.155 33.1875 114.75 C32 117 32 117 30.5234375 118.73046875 C28.59141956 121.60868009 28.11246887 124.17222777 27.4375 127.5625 C26.66612904 131.40192269 26.18756338 133.71865493 24 137 C21.5 137.3125 21.5 137.3125 19 137 C18.34 136.34 17.68 135.68 17 135 C17.0234375 132.8359375 17.0234375 132.8359375 17.375 130.375 C17.48585938 129.55773437 17.59671875 128.74046875 17.7109375 127.8984375 C17.80632812 127.27195312 17.90171875 126.64546875 18 126 C17.46890625 126.20496094 16.9378125 126.40992187 16.390625 126.62109375 C15.68421875 126.89050781 14.9778125 127.15992187 14.25 127.4375 C13.55390625 127.70433594 12.8578125 127.97117187 12.140625 128.24609375 C7.54023595 129.86630376 3.66356357 130.10799596 -1.25 130.0625 C-2.51328125 130.05347656 -3.7765625 130.04445312 -5.078125 130.03515625 C-6.04234375 130.02355469 -7.0065625 130.01195312 -8 130 C-7.29991911 132.99911296 -7.29991911 132.99911296 -5.375 134.3125 C-4 136 -4 136 -4.3125 139.1875 C-4.539375 140.115625 -4.76625 141.04375 -5 142 C-8.375 142.625 -8.375 142.625 -12 143 C-14 141 -14 141 -14.3125 138 C-14.209375 137.01 -14.10625 136.02 -14 135 C-13.01 134.34 -12.02 133.68 -11 133 C-10.26656572 129.93443402 -10.26656572 129.93443402 -10 127 C-12.31 127 -14.62 127 -17 127 C-16.938125 128.051875 -16.87625 129.10375 -16.8125 130.1875 C-17.01050149 134.21353023 -17.57481047 135.85623579 -20 139 C-23.7367843 141.49118953 -25.74451819 141.2065226 -30.1875 141.125 C-31.45980469 141.10695312 -32.73210937 141.08890625 -34.04296875 141.0703125 C-35.01878906 141.04710937 -35.99460938 141.02390625 -37 141 C-37 142.32 -37 143.64 -37 145 C-36.0409375 145.3403125 -36.0409375 145.3403125 -35.0625 145.6875 C-33 147 -33 147 -32.125 149.4375 C-32 152 -32 152 -34 155 C-37 155.3125 -37 155.3125 -40 155 C-42 153 -42 153 -42.3125 150 C-42.209375 149.01 -42.10625 148.02 -42 147 C-41.01 146.34 -40.02 145.68 -39 145 C-38.27617533 142.94074861 -38.27617533 142.94074861 -38 141 C-39.42892578 141.08701172 -39.42892578 141.08701172 -40.88671875 141.17578125 C-50.96378802 141.53826576 -50.96378802 141.53826576 -54.0078125 139.95703125 C-56.98860714 136.91376486 -57.99013158 134.57236812 -58.0625 130.375 C-58.041875 129.26125 -58.02125 128.1475 -58 127 C-60.31 127 -62.62 127 -65 127 C-65 128.98 -65 130.96 -65 133 C-63.68 133.66 -62.36 134.32 -61 135 C-60.875 137.875 -60.875 137.875 -61 141 C-63 143 -63 143 -65.4375 143.375 C-68 143 -68 143 -69.875 141.25 C-71 139 -71 139 -70.9375 136.875 C-69.72986449 134.45972898 -68.47128202 133.9566253 -66 133 C-66 130.69 -66 128.38 -66 126 C-63.36 126 -60.72 126 -58 126 C-58 123.69 -58 121.38 -58 119 C-60.64 119 -63.28 119 -66 119 C-66.66 120.32 -67.32 121.64 -68 123 C-70.875 123.1875 -70.875 123.1875 -74 123 C-76 120 -76 120 -75.75 117.4375 C-75 115 -75 115 -73 113 C-69.875 113.375 -69.875 113.375 -67 114 C-66.67 115.32 -66.34 116.64 -66 118 C-63.36 118 -60.72 118 -58 118 C-58 115.36 -58 112.72 -58 110 C-60.64 110 -63.28 110 -66 110 C-66 107.69 -66 105.38 -66 103 C-66.639375 102.773125 -67.27875 102.54625 -67.9375 102.3125 C-70 101 -70 101 -70.9375 98.5625 C-71 96 -71 96 -69.875 94.1875 C-67.40774618 92.62490591 -65.87012296 92.63203552 -63 93 C-61 95 -61 95 -60.875 98.125 C-60.91625 99.07375 -60.9575 100.0225 -61 101 C-62.98 101.99 -62.98 101.99 -65 103 C-65 104.98 -65 106.96 -65 109 C-61.04 109 -57.08 109 -53 109 C-53.02320312 107.89140625 -53.04640625 106.7828125 -53.0703125 105.640625 C-53.08907577 104.17709008 -53.10727537 102.71354786 -53.125 101.25 C-53.14175781 100.52039063 -53.15851562 99.79078125 -53.17578125 99.0390625 C-53.21207418 95.04684028 -52.87084605 92.47647637 -51 89 C-50.78047687 86.81866252 -50.64328057 84.62836698 -50.5625 82.4375 C-49.89899162 71.5739561 -46.76013427 62.72723091 -42 53 C-42.825 52.34 -43.65 51.68 -44.5 51 C-47.32828031 47.60606363 -47.71148306 46.18922325 -47.421875 41.93359375 C-46.73316476 38.77700517 -45.38119054 37.12376453 -43 35 C-40.25 34.1875 -40.25 34.1875 -38 34 C-37.79375 33.195625 -37.5875 32.39125 -37.375 31.5625 C-33.52856925 21.5967476 -26.67450246 14.53081902 -17 10 C-17.66 9.01 -18.32 8.02 -19 7 C-17.02 7.33 -15.04 7.66 -13 8 C-12.7525 7.236875 -12.505 6.47375 -12.25 5.6875 C-9.59716601 -0.01609309 -6.06551738 -0.7448881 0 0 Z " fill="#9AE9EF" transform="translate(106,0)"/>
<path d="M0 0 C2.97 0 5.94 0 9 0 C9 0.99 9 1.98 9 3 C69.72 3 130.44 3 193 3 C193 2.01 193 1.02 193 0 C195.97 0 198.94 0 202 0 C202 14.85 202 29.7 202 45 C135.34 45 68.68 45 0 45 C0 30.15 0 15.3 0 0 Z " fill="#FBFAFC" transform="translate(0,204)"/>
<path d="M0 0 C1.98 0 3.96 0 6 0 C6 0.33 6 0.66 6 1 C4.35 1 2.7 1 1 1 C1 2.32 1 3.64 1 5 C2.65 5 4.3 5 6 5 C6 5.66 6 6.32 6 7 C4.35 7 2.7 7 1 7 C1 8.32 1 9.64 1 11 C2.98 11 4.96 11 7 11 C7 11.66 7 12.32 7 13 C7.66 13 8.32 13 9 13 C9 8.71 9 4.42 9 0 C15.625 -0.25 15.625 -0.25 19 2 C19.36328125 3.875 19.36328125 3.875 19.3125 6 C19.30863281 6.70125 19.30476563 7.4025 19.30078125 8.125 C19 10 19 10 17 12 C19.475 12.495 19.475 12.495 22 13 C22 8.71 22 4.42 22 0 C22.33 0 22.66 0 23 0 C23 4.29 23 8.58 23 13 C24.98 13 26.96 13 29 13 C29 9.04 29 5.08 29 1 C27.68 0.67 26.36 0.34 25 0 C27.97 0 30.94 0 34 0 C32.68 0.33 31.36 0.66 30 1 C30 4.96 30 8.92 30 13 C31.32 13 32.64 13 34 13 C34.185625 11.453125 34.185625 11.453125 34.375 9.875 C34.93889814 6.37883154 35.78682059 3.31602373 37 0 C37.99 0 38.98 0 40 0 C40.495 2.97 40.495 2.97 41 6 C40.01 5.01 40.01 5.01 39 4 C37.68 6.97 36.36 9.94 35 13 C38.63 13 42.26 13 46 13 C46 8.71 46 4.42 46 0 C47.98 0 49.96 0 52 0 C50.68 0.33 49.36 0.66 48 1 C48 2.32 48 3.64 48 5 C48.99 5.33 49.98 5.66 51 6 C49.68 6 48.36 6 47 6 C47 7.65 47 9.3 47 11 C50.93075644 10.42547254 50.93075644 10.42547254 54 8 C53.67 9.32 53.34 10.64 53 12 C54.32 12.33 55.64 12.66 57 13 C57 8.71 57 4.42 57 0 C57.33 0 57.66 0 58 0 C58 3.63 58 7.26 58 11 C59.98 11 61.96 11 64 11 C64 11.66 64 12.32 64 13 C64.66 13 65.32 13 66 13 C66 8.71 66 4.42 66 0 C67.98 0 69.96 0 72 0 C72 0.33 72 0.66 72 1 C70.35 1 68.7 1 67 1 C67 2.32 67 3.64 67 5 C68.65 5 70.3 5 72 5 C72 5.66 72 6.32 72 7 C70.35 7 68.7 7 67 7 C67 8.32 67 9.64 67 11 C68.98 11 70.96 11 73 11 C73 11.66 73 12.32 73 13 C75.97 12.505 75.97 12.505 79 12 C79 11.67 79 11.34 79 11 C80.65 11 82.3 11 84 11 C84 9.68 84 8.36 84 7 C82.35 6.34 80.7 5.68 79 5 C79.33 3.35 79.66 1.7 80 0 C81.65 0 83.3 0 85 0 C83.68 0.66 82.36 1.32 81 2 C81 2.66 81 3.32 81 4 C83.46326712 5.6446674 83.46326712 5.6446674 86 7 C85.67 8.65 85.34 10.3 85 12 C87.97 12.495 87.97 12.495 91 13 C91 9.04 91 5.08 91 1 C89.68 0.67 88.36 0.34 87 0 C89.97 0 92.94 0 96 0 C95.01 0.33 94.02 0.66 93 1 C93 4.96 93 8.92 93 13 C94.65 13 96.3 13 98 13 C98 8.71 98 4.42 98 0 C99.98 0 101.96 0 104 0 C102.68 0.33 101.36 0.66 100 1 C100 2.65 100 4.3 100 6 C100.99 6.33 101.98 6.66 103 7 C102.01 7 101.02 7 100 7 C100 8.98 100 10.96 100 13 C104.95 12.505 104.95 12.505 110 12 C109.01 11.01 109.01 11.01 108 10 C107.68462284 5.66356399 107.55102153 3.67346771 110 0 C113.5 -0.3125 113.5 -0.3125 117 0 C119 2 119 2 119.265625 3.875 C119.26046875 4.57625 119.2553125 5.2775 119.25 6 C119.25773437 7.051875 119.25773437 7.051875 119.265625 8.125 C119 10 119 10 117 12 C121.95 12.33 126.9 12.66 132 13 C132 8.71 132 4.42 132 0 C134.31 0 136.62 0 139 0 C139 0.33 139 0.66 139 1 C137.35 1 135.7 1 134 1 C134 2.32 134 3.64 134 5 C135.65 5 137.3 5 139 5 C139 5.66 139 6.32 139 7 C137.35 7 135.7 7 134 7 C134 8.32 134 9.64 134 11 C135.65 11 137.3 11 139 11 C139 11.66 139 12.32 139 13 C149.23 13 159.46 13 170 13 C170 18.28 170 23.56 170 29 C103.34 29 36.68 29 -32 29 C-32 23.72 -32 18.44 -32 13 C-21.44 13 -10.88 13 0 13 C0 8.71 0 4.42 0 0 Z " fill="#090611" transform="translate(32,220)"/>
<path d="M0 0 C1.32 0.66 2.64 1.32 4 2 C4.390625 7.95703125 4.390625 7.95703125 4 10 C1.984375 11.76171875 1.984375 11.76171875 0 13 C0.63228516 13.83144531 0.63228516 13.83144531 1.27734375 14.6796875 C1.82519531 15.40414062 2.37304688 16.12859375 2.9375 16.875 C3.48277344 17.59429687 4.02804688 18.31359375 4.58984375 19.0546875 C6 21 6 21 7 23 C8.85873766 23.71833374 8.85873766 23.71833374 11 24.3125 C13.1796875 25.078125 13.1796875 25.078125 15 26 C16.125 28.5625 16.125 28.5625 16 31 C14 33 14 33 11.0625 33.1875 C7.97784847 33.6407764 7.97784847 33.6407764 6.94140625 35.6171875 C6.20327762 37.37598203 5.59327732 39.1872082 5 41 C5.639375 41.20625 6.27875 41.4125 6.9375 41.625 C9 43 9 43 9.75 45.4375 C10.09099777 50.29671818 10.07796948 55.131239 10 60 C12.31 60.33 14.62 60.66 17 61 C16.98839844 60.00097656 16.97679687 59.00195312 16.96484375 57.97265625 C16.95582031 56.68230469 16.94679687 55.39195313 16.9375 54.0625 C16.92589844 52.77472656 16.91429687 51.48695312 16.90234375 50.16015625 C17 47 17 47 18 46 C20.53049402 45.92686433 23.03304837 45.90752473 25.5625 45.9375 C26.27341797 45.94201172 26.98433594 45.94652344 27.71679688 45.95117188 C29.47790013 45.96299136 31.23896036 45.98092737 33 46 C33 46.33 33 46.66 33 47 C28.38 47 23.76 47 19 47 C19 51.95 19 56.9 19 62 C13.06 62 7.12 62 1 62 C1 67.28 1 72.56 1 78 C-5.6 78 -12.2 78 -19 78 C-19 82.95 -19 87.9 -19 93 C-19.33 93 -19.66 93 -20 93 C-20.02684679 90.35409986 -20.04676357 87.70846904 -20.0625 85.0625 C-20.07087891 84.30775391 -20.07925781 83.55300781 -20.08789062 82.77539062 C-20.09652441 80.85005687 -20.05224333 78.92464419 -20 77 C-19 76 -19 76 -17.23413086 75.88647461 C-16.48526611 75.89171143 -15.73640137 75.89694824 -14.96484375 75.90234375 C-14.15595703 75.90556641 -13.34707031 75.90878906 -12.51367188 75.91210938 C-11.66353516 75.92048828 -10.81339844 75.92886719 -9.9375 75.9375 C-9.08349609 75.94201172 -8.22949219 75.94652344 -7.34960938 75.95117188 C-5.23304337 75.96299627 -3.11651315 75.98093231 -1 76 C-1.03480469 75.01257813 -1.06960937 74.02515625 -1.10546875 73.0078125 C-1.13253906 71.72648437 -1.15960938 70.44515625 -1.1875 69.125 C-1.23970703 67.21074219 -1.23970703 67.21074219 -1.29296875 65.2578125 C-1.19628906 64.18273437 -1.09960938 63.10765625 -1 62 C-0.01 61.34 0.98 60.68 2 60 C1.67 56.04 1.34 52.08 1 48 C0.01 48 -0.98 48 -2 48 C-2.268125 48.5775 -2.53625 49.155 -2.8125 49.75 C-4 52 -4 52 -5.4765625 53.73046875 C-7.40858044 56.60868009 -7.88753113 59.17222777 -8.5625 62.5625 C-9.33387096 66.40192269 -9.81243662 68.71865493 -12 72 C-14.5 72.3125 -14.5 72.3125 -17 72 C-17.66 71.34 -18.32 70.68 -19 70 C-18.79296875 67.46875 -18.79296875 67.46875 -18.1875 64.5 C-17.99542969 63.5203125 -17.80335937 62.540625 -17.60546875 61.53125 C-17 59 -17 59 -16 57 C-16.71027344 57.01160156 -17.42054687 57.02320313 -18.15234375 57.03515625 C-19.07144531 57.04417969 -19.99054688 57.05320313 -20.9375 57.0625 C-21.85402344 57.07410156 -22.77054687 57.08570313 -23.71484375 57.09765625 C-26 57 -26 57 -27 56 C-27.07258946 53.81360547 -27.08373783 51.62499611 -27.0625 49.4375 C-27.05347656 48.23996094 -27.04445313 47.04242188 -27.03515625 45.80859375 C-27.02355469 44.88175781 -27.01195313 43.95492187 -27 43 C-25.35 43 -23.7 43 -22 43 C-21.07255557 38.53201955 -21.15807542 34.77545982 -21.5625 30.25 C-21.62376121 25.80149369 -21.44022281 23.64753223 -18.91796875 19.9375 C-15.27560745 16.26847427 -11.76693749 13.09388843 -7 11 C-7 10.01 -7 9.02 -7 8 C-6.34 8.66 -5.68 9.32 -5 10 C-1.95817107 10.25005386 -1.95817107 10.25005386 1 10 C2.32420249 8.8956608 2.32420249 8.8956608 2.1875 6.125 C2.25343513 2.83429242 2.25343513 2.83429242 0 0 Z " fill="#68D8F6" transform="translate(142,65)"/>
<path d="M0 0 C12.54 0 25.08 0 38 0 C38.061875 3.691875 38.12375 7.38375 38.1875 11.1875 C38.22846802 12.92036255 38.22846802 12.92036255 38.27026367 14.68823242 C38.27775635 15.60967041 38.28524902 16.5311084 38.29296875 17.48046875 C38.3086792 18.41785889 38.32438965 19.35524902 38.34057617 20.32104492 C37.92907749 23.55787288 36.9183649 25.3796095 35 28 C30.04951776 31.30032149 24.44260411 30.41028668 18.625 30.4375 C17.39265625 30.47037109 16.1603125 30.50324219 14.890625 30.53710938 C6.13731805 30.58932541 6.13731805 30.58932541 1.66796875 28.2734375 C-0.99796625 23.04146202 -0.52093155 17.9553359 -0.3125 12.1875 C-0.209375 8.165625 -0.10625 4.14375 0 0 Z " fill="#FAF9FB" transform="translate(50,110)"/>
<path d="M0 0 C3.48824341 0.2583884 4.24214247 1.26466736 6.6875 3.9375 C10.24923966 8.65439847 10.12311855 11.88022626 10.0625 17.625 C10.05798828 18.42679688 10.05347656 19.22859375 10.04882812 20.0546875 C10.03703168 22.03649006 10.01909605 24.01825433 10 26 C13.96 26 17.92 26 22 26 C22 24.02 22 22.04 22 20 C20.68 19.34 19.36 18.68 18 18 C17.875 15.125 17.875 15.125 18 12 C18.66 11.34 19.32 10.68 20 10 C23.625 10.375 23.625 10.375 27 11 C27.6875 13.8125 27.6875 13.8125 28 17 C27.02246356 18.02196992 26.0194119 19.01979625 25 20 C24.26958147 23.61023099 24.26958147 23.61023099 24 27 C21.03 27 18.06 27 15 27 C15 29.64 15 32.28 15 35 C15.99 35.33 16.98 35.66 18 36 C17.01 36 16.02 36 15 36 C15 38.31 15 40.62 15 43 C17.64 43 20.28 43 23 43 C23 45.31 23 47.62 23 50 C24.98 50.495 24.98 50.495 27 51 C28.33157895 56.44736842 28.33157895 56.44736842 26.875 58.875 C24.40522151 60.3568671 22.83386167 60.3633156 20 60 C18 58 18 58 17.6875 55 C17.790625 54.01 17.89375 53.02 18 52 C18.99 51.34 19.98 50.68 21 50 C21.73343428 46.93443402 21.73343428 46.93443402 22 44 C19.69 44 17.38 44 15 44 C15.0928125 45.5778125 15.0928125 45.5778125 15.1875 47.1875 C14.98949851 51.21353023 14.42518953 52.85623579 12 56 C8.2632157 58.49118953 6.25548181 58.2065226 1.8125 58.125 C0.54019531 58.10695312 -0.73210937 58.08890625 -2.04296875 58.0703125 C-3.01878906 58.04710937 -3.99460938 58.02390625 -5 58 C-5 59.32 -5 60.64 -5 62 C-4.360625 62.226875 -3.72125 62.45375 -3.0625 62.6875 C-1 64 -1 64 -0.125 66.4375 C0 69 0 69 -2 72 C-5 72.3125 -5 72.3125 -8 72 C-10 70 -10 70 -10.3125 67 C-10.1578125 65.515 -10.1578125 65.515 -10 64 C-9.01 63.34 -8.02 62.68 -7 62 C-6.27617533 59.94074861 -6.27617533 59.94074861 -6 58 C-6.95261719 58.05800781 -7.90523437 58.11601562 -8.88671875 58.17578125 C-18.96378802 58.53826576 -18.96378802 58.53826576 -22.0078125 56.95703125 C-24.98860714 53.91376486 -25.99013158 51.57236812 -26.0625 47.375 C-26.041875 46.26125 -26.02125 45.1475 -26 44 C-28.31 44 -30.62 44 -33 44 C-33 45.98 -33 47.96 -33 50 C-31.68 50.66 -30.36 51.32 -29 52 C-28.875 54.875 -28.875 54.875 -29 58 C-31 60 -31 60 -33.4375 60.375 C-36 60 -36 60 -37.875 58.25 C-39 56 -39 56 -38.9375 53.875 C-37.72986449 51.45972898 -36.47128202 50.9566253 -34 50 C-34 47.69 -34 45.38 -34 43 C-31.36 43 -28.72 43 -26 43 C-26 40.69 -26 38.38 -26 36 C-28.64 36 -31.28 36 -34 36 C-34.66 37.32 -35.32 38.64 -36 40 C-38.875 40.1875 -38.875 40.1875 -42 40 C-44 37 -44 37 -43.75 34.4375 C-43 32 -43 32 -41 30 C-37.875 30.375 -37.875 30.375 -35 31 C-34.67 32.32 -34.34 33.64 -34 35 C-31.36 35 -28.72 35 -26 35 C-26 32.36 -26 29.72 -26 27 C-28.64 27 -31.28 27 -34 27 C-34 24.69 -34 22.38 -34 20 C-34.639375 19.773125 -35.27875 19.54625 -35.9375 19.3125 C-38 18 -38 18 -38.9375 15.5625 C-39 13 -39 13 -37.875 11.1875 C-35.40774618 9.62490591 -33.87012296 9.63203552 -31 10 C-29 12 -29 12 -28.875 15.125 C-28.91625 16.07375 -28.9575 17.0225 -29 18 C-30.98 18.99 -30.98 18.99 -33 20 C-33 21.98 -33 23.96 -33 26 C-29.04 26 -25.08 26 -21 26 C-21.02320312 24.86820313 -21.04640625 23.73640625 -21.0703125 22.5703125 C-21.08906901 21.08854825 -21.10726934 19.60677688 -21.125 18.125 C-21.14175781 17.37863281 -21.15851562 16.63226563 -21.17578125 15.86328125 C-21.1933959 13.90805539 -21.10320189 11.95257979 -21 10 C-20.34 9.34 -19.68 8.68 -19 8 C-19 13.94 -19 19.88 -19 26 C-17.02 26 -15.04 26 -13 26 C-13.04640625 24.89140625 -13.0928125 23.7828125 -13.140625 22.640625 C-13.17815102 21.17711032 -13.21455029 19.71356644 -13.25 18.25 C-13.28351562 17.52039063 -13.31703125 16.79078125 -13.3515625 16.0390625 C-13.41610835 12.48904058 -13.31350633 10.43183627 -11.19921875 7.51953125 C-7.94143981 5.26859696 -5.86643244 5.38951067 -2 6 C0.703125 8.046875 0.703125 8.046875 3 11 C3.36771245 13.8387401 3.48630804 16.01820151 3.3125 18.8125 C3.28994141 19.50537109 3.26738281 20.19824219 3.24414062 20.91210938 C3.18562661 22.60901573 3.0959548 24.30479861 3 26 C4.98 26 6.96 26 9 26 C8.9123127 23.62337178 8.80536886 21.25016873 8.6875 18.875 C8.65366211 17.87726563 8.65366211 17.87726563 8.61914062 16.859375 C8.21287392 9.32497436 5.46100319 5.01821914 0 0 Z M-24 27 C-24.103125 31.021875 -24.20625 35.04375 -24.3125 39.1875 C-24.35802002 40.44715576 -24.40354004 41.70681152 -24.45043945 43.00463867 C-24.50863318 47.67703168 -24.47917071 51.06623144 -22.32421875 55.265625 C-16.90162175 58.09480605 -11.51561617 57.67976965 -5.5 57.5625 C-3.66501953 57.57893555 -3.66501953 57.57893555 -1.79296875 57.59570312 C6.42685258 57.60943865 6.42685258 57.60943865 13 53 C14.01973129 49.94080612 14.11533602 47.87581975 14.09765625 44.67578125 C14.09515869 43.74934814 14.09266113 42.82291504 14.09008789 41.8684082 C14.08098389 40.6949585 14.07187988 39.52150879 14.0625 38.3125 C14.041875 34.579375 14.02125 30.84625 14 27 C1.46 27 -11.08 27 -24 27 Z " fill="#583C96" transform="translate(74,83)"/>
<path d="M0 0 C3.3 0 6.6 0 10 0 C10 1.65 10 3.3 10 5 C10.67546875 4.93039063 11.3509375 4.86078125 12.046875 4.7890625 C14.80660157 4.62156464 17.26646307 4.56297686 20 5 C22.625 8 22.625 8 24 11 C23.67 11.53625 23.34 12.0725 23 12.625 C21.74045833 15.61641148 21.65047042 17.78432784 22 21 C22.99 21.66 23.98 22.32 25 23 C24.47784461 26.7595188 23.82726947 29.36771463 21 32 C18 32.1875 18 32.1875 15 32 C13.515 32.495 13.515 32.495 12 33 C12.020625 33.804375 12.04125 34.60875 12.0625 35.4375 C12 38 12 38 11 39 C9.48071962 39.07179964 7.95832518 39.08392007 6.4375 39.0625 C5.61121094 39.05347656 4.78492187 39.04445312 3.93359375 39.03515625 C3.29550781 39.02355469 2.65742187 39.01195312 2 39 C1.6596875 37.7934375 1.6596875 37.7934375 1.3125 36.5625 C0.27172814 33.78740664 0.27172814 33.78740664 -2.3125 33.25 C-3.199375 33.1675 -4.08625 33.085 -5 33 C-7.625 32.75 -7.625 32.75 -10 32 C-13 27.96551724 -13 27.96551724 -13 25 C-12.34 24.67 -11.68 24.34 -11 24 C-11 21.69 -11 19.38 -11 17 C-11.66 16.67 -12.32 16.34 -13 16 C-12.25 9.25 -12.25 9.25 -10 7 C-8.00045254 6.95745644 -5.99958364 6.95919217 -4 7 C-3.01 6.67 -2.02 6.34 -1 6 C-0.67 4.02 -0.34 2.04 0 0 Z " fill="#69DDF9" transform="translate(97,25)"/>
<path d="M0 0 C0 0.99 0 1.98 0 3 C0.66 3 1.32 3 2 3 C2.721875 3.825 3.44375 4.65 4.1875 5.5 C6.82236305 8.29300107 6.82236305 8.29300107 10.5 8.5625 C14.54444865 7.91249932 16.20449524 6.95994621 19 4 C19.86965506 1.87053397 19.86965506 1.87053397 20 0 C27.90794418 1.19522531 33.9022342 6.19260303 38.78125 12.33203125 C43 18.10576923 43 18.10576923 43 22 C41.68 21.67 40.36 21.34 39 21 C39.33 21.33 39.66 21.66 40 22 C38.63016497 25.16115776 38.0109362 25.9927092 35 28 C28.588 26.0535 28.588 26.0535 26.5 22.3125 C26.005 21.549375 25.51 20.78625 25 20 C21.5 19.66666667 21.5 19.66666667 18 20 C17.01 19.67 16.02 19.34 15 19 C15 17.35 15 15.7 15 14 C11.7 14 8.4 14 5 14 C4.9071875 15.423125 4.9071875 15.423125 4.8125 16.875 C4.544375 17.90625 4.27625 18.9375 4 20 C1.40665124 21.51278677 -0.72571618 21.96172784 -3.6875 22.375 C-6.15999651 22.75216197 -6.15999651 22.75216197 -7.125 24.9375 C-7.558125 25.9584375 -7.558125 25.9584375 -8 27 C-11 29 -11 29 -13 28.8125 C-15.27599604 27.88787661 -16.31190657 26.75843066 -18 25 C-20.09989652 23.82425289 -20.09989652 23.82425289 -22 23 C-20.96303898 15.74127288 -17.33950921 12.19330299 -11.92578125 7.640625 C-9.88469669 5.95347668 -9.88469669 5.95347668 -7.75 3.6875 C-5.39550341 1.41709257 -3.31829759 0 0 0 Z " fill="#FAFAFB" transform="translate(92,11)"/>
<path d="M0 0 C3.10722846 1.86433708 4.67740031 2.98405172 5.78515625 6.47265625 C7.43024488 9.89507536 9.15663044 10.32752945 12.625 11.75 C20.13959143 15.22730493 24.47251457 20.20877185 29 27 C28.505 28.485 28.505 28.485 28 30 C27.5875 29.34773438 27.175 28.69546875 26.75 28.0234375 C21.17855887 19.59165828 15.45787155 14.54670183 6 11 C5.9071875 12.11375 5.9071875 12.11375 5.8125 13.25 C4.71192872 16.97501049 3.32783116 18.0467078 0 20 C-4.30761917 20.61537417 -6.24867103 20.47957169 -9.9375 18.125 C-12 16 -12 16 -12 14 C-12.66 14 -13.32 14 -14 14 C-14.33 14.99 -14.66 15.98 -15 17 C-15.33 16.34 -15.66 15.68 -16 15 C-15.0625 12.875 -15.0625 12.875 -14 11 C-19.93978604 13.50096254 -23.41591368 16.11952529 -27.46875 21.12109375 C-29 23 -29 23 -31.25 25.0625 C-33.70232703 27.77757635 -34.68944124 30.59254723 -36 34 C-35.071875 34.226875 -34.14375 34.45375 -33.1875 34.6875 C-30 36 -30 36 -28.0625 38.125 C-26.62230499 42.02199827 -26.78737115 45.0430006 -28 49 C-30.0625 52 -30.0625 52 -32 54 C-31.34 54.66 -30.68 55.32 -30 56 C-31.98 55.67 -33.96 55.34 -36 55 C-35.566875 55.68707031 -35.13375 56.37414063 -34.6875 57.08203125 C-33.8521875 58.43361328 -33.8521875 58.43361328 -33 59.8125 C-32.443125 60.70582031 -31.88625 61.59914062 -31.3125 62.51953125 C-30 65 -30 65 -30 68 C-30.40992187 67.44570312 -30.81984375 66.89140625 -31.2421875 66.3203125 C-31.78101562 65.59585938 -32.31984375 64.87140625 -32.875 64.125 C-33.40867187 63.40570313 -33.94234375 62.68640625 -34.4921875 61.9453125 C-35.99873162 59.91747368 -35.99873162 59.91747368 -38 58 C-38.66 58.66 -39.32 59.32 -40 60 C-39.8453125 58.6078125 -39.8453125 58.6078125 -39.6875 57.1875 C-39.790625 56.135625 -39.89375 55.08375 -40 54 C-42.33942344 52.2463436 -42.33942344 52.2463436 -45 51 C-47.46457267 47.303141 -47.67738914 44.2901312 -47 40 C-45.0572272 36.61813624 -44.00642921 35.29735409 -40.25 34.1875 C-39.5075 34.125625 -38.765 34.06375 -38 34 C-37.79375 33.195625 -37.5875 32.39125 -37.375 31.5625 C-33.52856925 21.5967476 -26.67450246 14.53081902 -17 10 C-17.66 9.01 -18.32 8.02 -19 7 C-16.03 7.495 -16.03 7.495 -13 8 C-12.7525 7.236875 -12.505 6.47375 -12.25 5.6875 C-9.59716601 -0.01609309 -6.06551738 -0.7448881 0 0 Z " fill="#543A99" transform="translate(106,0)"/>
<path d="M0 0 C0 0.99 0 1.98 0 3 C0.99 3.33 1.98 3.66 3 4 C3 6.31 3 8.62 3 11 C2.01 11.33 1.02 11.66 0 12 C1.32 14.31 2.64 16.62 4 19 C5.0725 18.9175 6.145 18.835 7.25 18.75 C11 19 11 19 13.4375 20.8125 C15 23 15 23 15 26 C16.65 26 18.3 26 20 26 C19.34 26.66 18.68 27.32 18 28 C19.32 28.66 20.64 29.32 22 30 C20.7625 30.0825 19.525 30.165 18.25 30.25 C15.2009995 30.63314874 14.10358329 30.92297653 11.5625 32.8125 C10.03270816 34.95420858 9.36924349 36.41529556 9 39 C-1.79310568 35.91625552 -8.56323469 28.50966853 -14 19 C-14 18.34 -14 17.68 -14 17 C-12.68 17 -11.36 17 -10 17 C-10.66 16.34 -11.32 15.68 -12 15 C-11.195625 14.525625 -10.39125 14.05125 -9.5625 13.5625 C-6.32834443 10.32834443 -6.44092906 8.43929222 -6.43359375 4.0234375 C-6 2 -6 2 -4.09765625 0.7265625 C-2 0 -2 0 0 0 Z " fill="#9BECF0" transform="translate(84,38)"/>
<path d="M0 0 C1.50156874 3.00313748 1.09281204 5.79067522 1.0625 9.125 C1.05347656 10.40632813 1.04445313 11.68765625 1.03515625 13.0078125 C1.02355469 13.99523437 1.01195313 14.98265625 1 16 C1.99 16 2.98 16 4 16 C4.00257812 15.18015625 4.00515625 14.3603125 4.0078125 13.515625 C4.31991475 4.81837556 4.31991475 4.81837556 6.40234375 2.3125 C8.0625 1.25 8.0625 1.25 11 0 C10 3 10 3 8 4 C7.48947485 7.1382507 7.48947485 7.1382507 7.3125 10.8125 C7.22613281 12.05644531 7.13976562 13.30039063 7.05078125 14.58203125 C7.00923253 17.37857946 7.12300827 19.38221266 8 22 C9.98 22.33 11.96 22.66 14 23 C13.34 23.33 12.68 23.66 12 24 C12.05220703 24.96486328 12.05220703 24.96486328 12.10546875 25.94921875 C12.35848397 34.39510789 11.79432798 43.80850803 7 51 C4.5 51.3125 4.5 51.3125 2 51 C1.34 50.34 0.68 49.68 0 49 C0.20703125 46.46875 0.20703125 46.46875 0.8125 43.5 C1.00457031 42.5203125 1.19664063 41.540625 1.39453125 40.53125 C2 38 2 38 3 36 C2.28972656 36.01160156 1.57945313 36.02320313 0.84765625 36.03515625 C-0.07144531 36.04417969 -0.99054688 36.05320313 -1.9375 36.0625 C-2.85402344 36.07410156 -3.77054687 36.08570313 -4.71484375 36.09765625 C-7 36 -7 36 -8 35 C-8.07258946 32.81360547 -8.08373783 30.62499611 -8.0625 28.4375 C-8.05347656 27.23996094 -8.04445313 26.04242188 -8.03515625 24.80859375 C-8.02355469 23.88175781 -8.01195313 22.95492187 -8 22 C-6.35 22 -4.7 22 -3 22 C-1.86900907 16.28367373 -2.00716243 10.84840063 -2.16015625 5.046875 C-2 2 -2 2 0 0 Z " fill="#6A5896" transform="translate(123,86)"/>
<path d="M0 0 C2.97 0 5.94 0 9 0 C9 0.99 9 1.98 9 3 C69.72 3 130.44 3 193 3 C193 2.01 193 1.02 193 0 C195.97 0 198.94 0 202 0 C202 2.64 202 5.28 202 8 C199.03 8 196.06 8 193 8 C193 7.01 193 6.02 193 5 C132.28 5 71.56 5 9 5 C9 5.99 9 6.98 9 8 C6.03 8 3.06 8 0 8 C0 5.36 0 2.72 0 0 Z " fill="#6B4BA1" transform="translate(0,204)"/>
<path d="M0 0 C3.48824341 0.2583884 4.24214247 1.26466736 6.6875 3.9375 C10.24923966 8.65439847 10.12311855 11.88022626 10.0625 17.625 C10.05798828 18.42679688 10.05347656 19.22859375 10.04882812 20.0546875 C10.03703168 22.03649006 10.01909605 24.01825433 10 26 C13.96 26 17.92 26 22 26 C22 24.02 22 22.04 22 20 C20.68 19.34 19.36 18.68 18 18 C17.875 15.125 17.875 15.125 18 12 C18.66 11.34 19.32 10.68 20 10 C23.625 10.375 23.625 10.375 27 11 C27.6875 13.8125 27.6875 13.8125 28 17 C27.02246356 18.02196992 26.0194119 19.01979625 25 20 C24.26958147 23.61023099 24.26958147 23.61023099 24 27 C21.03 27 18.06 27 15 27 C14.67 27.66 14.34 28.32 14 29 C14 28.34 14 27.68 14 27 C5.09 27 -3.82 27 -13 27 C-13.0825 24.2775 -13.165 21.555 -13.25 18.75 C-13.28641602 17.89889648 -13.32283203 17.04779297 -13.36035156 16.17089844 C-13.41485535 12.45936642 -13.41484129 10.57861812 -11.19921875 7.48828125 C-7.93503167 5.27930207 -5.85051421 5.39202407 -2 6 C0.703125 8.046875 0.703125 8.046875 3 11 C3.36771245 13.8387401 3.48630804 16.01820151 3.3125 18.8125 C3.28994141 19.50537109 3.26738281 20.19824219 3.24414062 20.91210938 C3.18562661 22.60901573 3.0959548 24.30479861 3 26 C4.98 26 6.96 26 9 26 C8.9123127 23.62337178 8.80536886 21.25016873 8.6875 18.875 C8.66494141 18.20984375 8.64238281 17.5446875 8.61914062 16.859375 C8.21287392 9.32497436 5.46100319 5.01821914 0 0 Z " fill="#482E90" transform="translate(74,83)"/>
<path d="M0 0 C4.72803051 2.58442619 7.47402287 5.82621086 9 11 C9.13710218 13.64607209 9.19062972 16.17469013 9.125 18.8125 C9.11597656 19.50537109 9.10695313 20.19824219 9.09765625 20.91210938 C9.07426157 22.60822395 9.03839641 24.30415871 9 26 C7.02 26 5.04 26 3 26 C2.97421875 24.96359375 2.9484375 23.9271875 2.921875 22.859375 C2.86558049 21.48954199 2.80823345 20.11975195 2.75 18.75 C2.73582031 18.06808594 2.72164062 17.38617188 2.70703125 16.68359375 C2.54237578 13.29169106 2.21952517 11.29567738 0.17578125 8.54296875 C-2.98327426 6.30270497 -5.22707136 6.51980908 -9 7 C-10.83066228 7.95129984 -10.83066228 7.95129984 -12 10 C-12.37674518 12.79251583 -12.60191941 15.38779201 -12.6875 18.1875 C-12.72166016 18.93708984 -12.75582031 19.68667969 -12.79101562 20.45898438 C-12.87334294 22.30546838 -12.93835281 24.15270994 -13 26 C-14.98 26 -16.96 26 -19 26 C-19.1356886 23.12340174 -19.23440753 20.25326537 -19.3125 17.375 C-19.35439453 16.56675781 -19.39628906 15.75851563 -19.43945312 14.92578125 C-19.52452712 10.74014078 -19.39153215 7.89214507 -16.73046875 4.5390625 C-11.59468857 -0.23669875 -6.91929593 -1.22230266 0 0 Z " fill="#F4E27F" transform="translate(74,83)"/>
<path d="M0 0 C3.50628149 1.69052858 6.72638483 3.68409028 10 5.78125 C11.95496516 6.97255689 13.93875993 8.00618782 16 9 C16.0825 8.2575 16.165 7.515 16.25 6.75 C17.20394632 3.25219683 17.98065756 2.03805615 21 0 C25.72752347 -0.95434119 28.9669735 -0.65354738 33.0625 1.9375 C35.31950931 5.50503084 35.73075403 7.68707381 35.48828125 11.84375 C34.68257437 15.4017516 32.90627825 16.93331324 30 19 C26.41852916 20.50798772 25.05474174 20.01855652 21.3125 18.75 C18 17 18 17 16 14 C16 12.68 16 11.36 16 10 C15.34 9.938125 14.68 9.87625 14 9.8125 C8.37137718 8.28808132 3.0266837 5.10752875 0 0 Z " fill="#BDA986" transform="translate(77,68)"/>
<path d="M0 0 C0.66 0.33 1.32 0.66 2 1 C1.34 2.65 0.68 4.3 0 6 C0.763125 6.2475 1.52625 6.495 2.3125 6.75 C5.37754038 8.17560018 6.46110282 9.00320024 8 12 C8.1875 15.75 8.1875 15.75 8 19 C7.34 19 6.68 19 6 19 C5.71125 19.639375 5.4225 20.27875 5.125 20.9375 C4 23 4 23 2 24 C-5.0521327 24.56872038 -5.0521327 24.56872038 -8.5 22.5 C-10.59977502 19.00037497 -10.75591451 15.91767231 -10 12 C-8.87809621 9.43219435 -7.56519163 7.34778744 -6 5 C-6.66 5 -7.32 5 -8 5 C-7.67 4.34 -7.34 3.68 -7 3 C-5.68 3.66 -4.36 4.32 -3 5 C-2.67 4.01 -2.34 3.02 -2 2 C-1.34 1.34 -0.68 0.68 0 0 Z " fill="#E3E1ED" transform="translate(138,28)"/>
<path d="M0 0 C0.33 0 0.66 0 1 0 C1 1.98 1 3.96 1 6 C1.99 6.33 2.98 6.66 4 7 C3.01 7 2.02 7 1 7 C1 9.31 1 11.62 1 14 C3.64 14 6.28 14 9 14 C9 16.31 9 18.62 9 21 C10.32 21.33 11.64 21.66 13 22 C14.33157895 27.44736842 14.33157895 27.44736842 12.875 29.875 C10.40522151 31.3568671 8.83386167 31.3633156 6 31 C4 29 4 29 3.6875 26 C3.8421875 24.515 3.8421875 24.515 4 23 C4.99 22.34 5.98 21.68 7 21 C7.73343428 17.93443402 7.73343428 17.93443402 8 15 C5.69 15 3.38 15 1 15 C1.061875 16.051875 1.12375 17.10375 1.1875 18.1875 C0.98949851 22.21353023 0.42518953 23.85623579 -2 27 C-5.7367843 29.49118953 -7.74451819 29.2065226 -12.1875 29.125 C-13.45980469 29.10695312 -14.73210937 29.08890625 -16.04296875 29.0703125 C-17.01878906 29.04710937 -17.99460937 29.02390625 -19 29 C-19 30.32 -19 31.64 -19 33 C-18.360625 33.226875 -17.72125 33.45375 -17.0625 33.6875 C-15 35 -15 35 -14.125 37.4375 C-14 40 -14 40 -16 43 C-19 43.3125 -19 43.3125 -22 43 C-24 41 -24 41 -24.3125 38 C-24.209375 37.01 -24.10625 36.02 -24 35 C-23.01 34.34 -22.02 33.68 -21 33 C-20.27617533 30.94074861 -20.27617533 30.94074861 -20 29 C-20.95261719 29.05800781 -21.90523437 29.11601562 -22.88671875 29.17578125 C-33.00923514 29.53990054 -33.00923514 29.53990054 -36.04296875 27.88671875 C-37.375 26.5 -37.375 26.5 -39 24 C-38.505 22.515 -38.505 22.515 -38 21 C-37.731875 21.61875 -37.46375 22.2375 -37.1875 22.875 C-36.04443152 25.2995233 -36.04443152 25.2995233 -33 27 C-28.5348804 27.44504825 -24.04734192 27.32411274 -19.5625 27.3125 C-17.70141602 27.33666992 -17.70141602 27.33666992 -15.80273438 27.36132812 C-14.01512695 27.36229492 -14.01512695 27.36229492 -12.19140625 27.36328125 C-11.10029541 27.36626221 -10.00918457 27.36924316 -8.88500977 27.37231445 C-5.64914173 26.95472126 -4.29732111 26.28259255 -2 24 C-1.04831317 21.14493951 -0.8099054 19.09062718 -0.68359375 16.11328125 C-0.62075195 14.7065918 -0.62075195 14.7065918 -0.55664062 13.27148438 C-0.51732422 12.29501953 -0.47800781 11.31855469 -0.4375 10.3125 C-0.37272461 8.83040039 -0.37272461 8.83040039 -0.30664062 7.31835938 C-0.20058346 4.87904454 -0.09852286 2.43962887 0 0 Z " fill="#402390" transform="translate(88,112)"/>
<path d="M0 0 C2.12890625 0.41015625 2.12890625 0.41015625 4.69140625 1.91015625 C6.70854812 5.41822908 7.13198063 8.53568576 6.12890625 12.41015625 C3.56640625 15.47265625 3.56640625 15.47265625 0.12890625 17.41015625 C-4.21272643 17.55986772 -6.06664394 17.13209838 -9.30859375 14.22265625 C-11.17325373 10.86626829 -11.50146985 9.19241285 -10.87109375 5.41015625 C-8.28120738 0.23038351 -5.42438033 -0.34851867 0 0 Z " fill="#CCB881" transform="translate(104.87109375,1.58984375)"/>
<path d="M0 0 C1.32644531 -0.05607422 1.32644531 -0.05607422 2.6796875 -0.11328125 C5.125 0.3125 5.125 0.3125 6.91796875 2.08203125 C8.78706738 5.53593196 8.8069343 8.48739728 8.125 12.3125 C6.625 14.8125 6.625 14.8125 4.125 16.3125 C0.07306323 17.10960231 -2.84328847 17.00030769 -6.3125 14.6875 C-8.24731132 11.7465868 -8.80309193 9.83599544 -8.875 6.3125 C-6.43382527 1.31918805 -5.45333086 0.15016418 0 0 Z " fill="#F5F4F7" transform="translate(68.875,35.6875)"/>
<path d="M0 0 C3.375 0.875 3.375 0.875 5.375 2.875 C5.51997985 5.45564129 5.56177545 7.92443884 5.5 10.5 C5.49097656 11.20640625 5.48195313 11.9128125 5.47265625 12.640625 C5.44907603 14.38556098 5.41320461 16.13032295 5.375 17.875 C1.085 17.875 -3.205 17.875 -7.625 17.875 C-7.73323773 15.62606046 -7.81069645 13.37562425 -7.875 11.125 C-7.92140625 9.87203125 -7.9678125 8.6190625 -8.015625 7.328125 C-7.625 3.875 -7.625 3.875 -5.8359375 1.4140625 C-3.625 -0.125 -3.625 -0.125 0 0 Z " fill="#9FF0F2" transform="translate(69.625,90.125)"/>
<path d="M0 0 C1.32 0.66 2.64 1.32 4 2 C4.390625 7.95703125 4.390625 7.95703125 4 10 C1.984375 11.76171875 1.984375 11.76171875 0 13 C0.63228516 13.83144531 0.63228516 13.83144531 1.27734375 14.6796875 C1.82519531 15.40414062 2.37304688 16.12859375 2.9375 16.875 C3.48277344 17.59429687 4.02804688 18.31359375 4.58984375 19.0546875 C6 21 6 21 7 23 C8.85873766 23.71833374 8.85873766 23.71833374 11 24.3125 C13.1796875 25.078125 13.1796875 25.078125 15 26 C16.125 28.5625 16.125 28.5625 16 31 C14 33 14 33 11.6875 33.01171875 C10.800625 32.90472656 9.91375 32.79773438 9 32.6875 C8.113125 32.58824219 7.22625 32.48898438 6.3125 32.38671875 C4 32 4 32 2 31 C2 33.97 2 36.94 2 40 C1.34 40 0.68 40 0 40 C0.01047363 39.28344238 0.02094727 38.56688477 0.03173828 37.82861328 C0.07321299 34.59411095 0.09929892 31.35966447 0.125 28.125 C0.14175781 26.99707031 0.15851563 25.86914062 0.17578125 24.70703125 C0.18222656 23.63066406 0.18867188 22.55429688 0.1953125 21.4453125 C0.20578613 20.45031738 0.21625977 19.45532227 0.22705078 18.43017578 C0.24379401 15.81828583 0.24379401 15.81828583 -2 14 C-4.7412565 13.2444568 -4.7412565 13.2444568 -8 14 C-10.90644103 16.09619218 -13.4623085 18.47519018 -16 21 C-16.66 20.67 -17.32 20.34 -18 20 C-16.92319498 18.86874978 -15.83824365 17.74525081 -14.75 16.625 C-14.14671875 15.99851562 -13.5434375 15.37203125 -12.921875 14.7265625 C-11.0299412 13.02689839 -9.31798691 12.01540134 -7 11 C-7 10.01 -7 9.02 -7 8 C-6.34 8.66 -5.68 9.32 -5 10 C-1.95817107 10.25005386 -1.95817107 10.25005386 1 10 C2.32420249 8.8956608 2.32420249 8.8956608 2.1875 6.125 C2.25343513 2.83429242 2.25343513 2.83429242 0 0 Z " fill="#432791" transform="translate(142,65)"/>
<path d="M0 0 C3.3 0 6.6 0 10 0 C10 1.65 10 3.3 10 5 C10.67546875 4.93039063 11.3509375 4.86078125 12.046875 4.7890625 C14.80660157 4.62156464 17.26646307 4.56297686 20 5 C22.625 8 22.625 8 24 11 C23.67 11.53625 23.34 12.0725 23 12.625 C21.74045833 15.61641148 21.65047042 17.78432784 22 21 C22.99 21.66 23.98 22.32 25 23 C24.47784461 26.7595188 23.82726947 29.36771463 21 32 C18 32.1875 18 32.1875 15 32 C13.515 32.495 13.515 32.495 12 33 C12.020625 33.804375 12.04125 34.60875 12.0625 35.4375 C12 38 12 38 11 39 C9.48071962 39.07179964 7.95832518 39.08392007 6.4375 39.0625 C5.61121094 39.05347656 4.78492187 39.04445312 3.93359375 39.03515625 C3.29550781 39.02355469 2.65742187 39.01195312 2 39 C1.6596875 37.7934375 1.6596875 37.7934375 1.3125 36.5625 C0.27172814 33.78740664 0.27172814 33.78740664 -2.3125 33.25 C-3.199375 33.1675 -4.08625 33.085 -5 33 C-7.625 32.75 -7.625 32.75 -10 32 C-13 27.96551724 -13 27.96551724 -13 25 C-12.34 24.67 -11.68 24.34 -11 24 C-11 21.69 -11 19.38 -11 17 C-11.66 16.67 -12.32 16.34 -13 16 C-12.25 9.25 -12.25 9.25 -10 7 C-8.00045254 6.95745644 -5.99958364 6.95919217 -4 7 C-3.01 6.67 -2.02 6.34 -1 6 C-0.67 4.02 -0.34 2.04 0 0 Z M1 1 C0.8453125 2.175625 0.8453125 2.175625 0.6875 3.375 C0 6 0 6 -3 8 C-3.99 7.938125 -4.98 7.87625 -6 7.8125 C-6.99 7.874375 -7.98 7.93625 -9 8 C-10.88599343 10.38892501 -12 11.91851558 -12 15 C-10.515 15.99 -10.515 15.99 -9 17 C-8.8125 20.625 -8.8125 20.625 -9 24 C-9.66 24.33 -10.32 24.66 -11 25 C-10.81171228 27.44480079 -10.81171228 27.44480079 -10 30 C-7.47183848 31.94473963 -5.58266079 32.04317302 -2.375 32.375 C1 33 1 33 2.4375 35.0625 C2.7159375 36.0215625 2.7159375 36.0215625 3 37 C5.31 37 7.62 37 10 37 C10.0825 36.401875 10.165 35.80375 10.25 35.1875 C11.25036997 32.26975425 12.29808749 31.46049325 15 30 C17 30 19 30 21 30 C23.251261 27.341561 23.251261 27.341561 22.75 25.1875 C22.15134983 23.44143699 21.49185783 21.71627241 20.8125 20 C19.86088776 16.48635482 20.33730939 16.03196523 22 13 C21.69621948 10.31006947 21.69621948 10.31006947 21 8 C17.02022924 7.1558062 13.02992782 6.55312735 9 6 C8.67 4.35 8.34 2.7 8 1 C5.69 1 3.38 1 1 1 Z " fill="#472E95" transform="translate(97,25)"/>
<path d="M0 0 C0.66 0.33 1.32 0.66 2 1 C3.45866945 6.5429439 3.09106925 12.31323109 3 18 C5.31 18.33 7.62 18.66 10 19 C9.98839844 18.00097656 9.97679687 17.00195312 9.96484375 15.97265625 C9.95582031 14.68230469 9.94679687 13.39195313 9.9375 12.0625 C9.92589844 10.77472656 9.91429687 9.48695312 9.90234375 8.16015625 C10 5 10 5 11 4 C13.53049402 3.92686433 16.03304837 3.90752473 18.5625 3.9375 C19.62887695 3.94426758 19.62887695 3.94426758 20.71679688 3.95117188 C22.47790013 3.96299136 24.23896036 3.98092737 26 4 C26 4.33 26 4.66 26 5 C21.38 5 16.76 5 12 5 C12 9.95 12 14.9 12 20 C6.06 20 0.12 20 -6 20 C-6 25.28 -6 30.56 -6 36 C-12.6 36 -19.2 36 -26 36 C-26 40.95 -26 45.9 -26 51 C-26.33 51 -26.66 51 -27 51 C-27.02684679 48.35409986 -27.04676357 45.70846904 -27.0625 43.0625 C-27.07087891 42.30775391 -27.07925781 41.55300781 -27.08789062 40.77539062 C-27.09652441 38.85005687 -27.05224333 36.92464419 -27 35 C-26 34 -26 34 -24.23413086 33.88647461 C-23.48526611 33.89171143 -22.73640137 33.89694824 -21.96484375 33.90234375 C-21.15595703 33.90556641 -20.34707031 33.90878906 -19.51367188 33.91210938 C-18.66353516 33.92048828 -17.81339844 33.92886719 -16.9375 33.9375 C-16.08349609 33.94201172 -15.22949219 33.94652344 -14.34960938 33.95117188 C-12.23304337 33.96299627 -10.11651315 33.98093231 -8 34 C-8.03480469 33.01257813 -8.06960937 32.02515625 -8.10546875 31.0078125 C-8.13253906 29.72648437 -8.15960938 28.44515625 -8.1875 27.125 C-8.23970703 25.21074219 -8.23970703 25.21074219 -8.29296875 23.2578125 C-8.19628906 22.18273437 -8.09960938 21.10765625 -8 20 C-7.01 19.34 -6.02 18.68 -5 18 C-5.495 11.565 -5.495 11.565 -6 5 C-5.34 5 -4.68 5 -4 5 C-3.67 8.96 -3.34 12.92 -3 17 C-1.68 17 -0.36 17 1 17 C0.67 11.39 0.34 5.78 0 0 Z " fill="#482C94" transform="translate(149,107)"/>
<path d="M0 0 C1.50156874 3.00313748 1.09281204 5.79067522 1.0625 9.125 C1.05347656 10.40632813 1.04445313 11.68765625 1.03515625 13.0078125 C1.02355469 13.99523437 1.01195313 14.98265625 1 16 C1.99 16 2.98 16 4 16 C4.00257812 15.18015625 4.00515625 14.3603125 4.0078125 13.515625 C4.31991475 4.81837556 4.31991475 4.81837556 6.40234375 2.3125 C8.0625 1.25 8.0625 1.25 11 0 C10 3 10 3 8 4 C7.48947485 7.1382507 7.48947485 7.1382507 7.3125 10.8125 C7.22613281 12.05644531 7.13976562 13.30039063 7.05078125 14.58203125 C7.00923253 17.37857946 7.12300827 19.38221266 8 22 C9.98 22.33 11.96 22.66 14 23 C13.34 23.33 12.68 23.66 12 24 C12.02320313 24.68964844 12.04640625 25.37929687 12.0703125 26.08984375 C12.19191174 32.42168979 11.60663625 37.87469929 10 44 C9.67 44 9.34 44 9 44 C9.96355353 33.44191344 9.96355353 33.44191344 11 29 C9.9790625 29.2475 9.9790625 29.2475 8.9375 29.5 C5.5835178 30.07089059 2.39610195 30.06659023 -1 30 C-1 29.67 -1 29.34 -1 29 C0.98 29 2.96 29 5 29 C5 28.34 5 27.68 5 27 C3.02 27 1.04 27 -1 27 C-1 26.67 -1 26.34 -1 26 C3.16138263 25.91840426 6.9472484 26.01751476 11 27 C11 25.68 11 24.36 11 23 C5.06 23 -0.88 23 -7 23 C-5.68 22.67 -4.36 22.34 -3 22 C-1.86900907 16.28367373 -2.00716243 10.84840063 -2.16015625 5.046875 C-2 2 -2 2 0 0 Z " fill="#4D3F9D" transform="translate(123,86)"/>
<path d="M0 0 C2.5625 0.3125 2.5625 0.3125 4.375 1.6875 C5.5625 3.3125 5.5625 3.3125 5.5625 5.3125 C4.9025 5.3125 4.2425 5.3125 3.5625 5.3125 C3.2325 4.6525 2.9025 3.9925 2.5625 3.3125 C0.9125 3.3125 -0.7375 3.3125 -2.4375 3.3125 C-2.7675 4.9625 -3.0975 6.6125 -3.4375 8.3125 C-0.1375 8.3125 3.1625 8.3125 6.5625 8.3125 C6.7578125 15.1484375 6.7578125 15.1484375 6.5625 17.3125 C4.5625 19.3125 4.5625 19.3125 2.25 19.578125 C1.363125 19.57296875 0.47625 19.5678125 -0.4375 19.5625 C-1.7678125 19.57023437 -1.7678125 19.57023437 -3.125 19.578125 C-5.4375 19.3125 -5.4375 19.3125 -7.4375 17.3125 C-7.6328125 15.1484375 -7.6328125 15.1484375 -7.5625 12.6875 C-7.54445313 11.87023438 -7.52640625 11.05296875 -7.5078125 10.2109375 C-7.48460938 9.58445312 -7.46140625 8.95796875 -7.4375 8.3125 C-6.7775 7.9825 -6.1175 7.6525 -5.4375 7.3125 C-5.09596063 5.64749557 -4.76300502 3.98071323 -4.4375 2.3125 C-2.4375 0.3125 -2.4375 0.3125 0 0 Z " fill="#4A359A" transform="translate(103.4375,35.6875)"/>
<path d="M0 0 C3.10722846 1.86433708 4.67740031 2.98405172 5.78515625 6.47265625 C7.43024488 9.89507536 9.15663044 10.32752945 12.625 11.75 C20.13959143 15.22730493 24.47251457 20.20877185 29 27 C28.505 28.485 28.505 28.485 28 30 C27.5875 29.34773438 27.175 28.69546875 26.75 28.0234375 C21.17855887 19.59165828 15.45787155 14.54670183 6 11 C5.9071875 12.11375 5.9071875 12.11375 5.8125 13.25 C4.71192872 16.97501049 3.32783116 18.0467078 0 20 C-4.30761917 20.61537417 -6.24867103 20.47957169 -9.9375 18.125 C-12 16 -12 16 -12 14 C-12.66 14 -13.32 14 -14 14 C-14.33 14.99 -14.66 15.98 -15 17 C-15.33 16.34 -15.66 15.68 -16 15 C-15.0625 12.875 -15.0625 12.875 -14 11 C-14.93972656 11.55880859 -14.93972656 11.55880859 -15.8984375 12.12890625 C-16.71570313 12.60199219 -17.53296875 13.07507812 -18.375 13.5625 C-19.59316406 14.27599609 -19.59316406 14.27599609 -20.8359375 15.00390625 C-21.55007812 15.33261719 -22.26421875 15.66132813 -23 16 C-23.66 15.67 -24.32 15.34 -25 15 C-21.04 12.525 -21.04 12.525 -17 10 C-17.66 9.01 -18.32 8.02 -19 7 C-16.03 7.495 -16.03 7.495 -13 8 C-12.62875 6.8553125 -12.62875 6.8553125 -12.25 5.6875 C-9.59716601 -0.01609309 -6.06551738 -0.7448881 0 0 Z M-10.5625 4.125 C-12.25419769 7.50839538 -12.62195931 9.26824414 -12 13 C-9.94541925 16.69824535 -8.6568506 17.7810498 -4.625 19.125 C-0.86937067 19.27416579 -0.86937067 19.27416579 2.4375 17.0625 C5.17904469 13.80912559 5.17904469 13.80912559 5.625 9.9375 C5.25586882 6.10133604 5.25586882 6.10133604 3.5625 3.5 C-1.23514156 0.69162445 -6.23271814 0.53444919 -10.5625 4.125 Z " fill="#41238F" transform="translate(106,0)"/>
<path d="M0 0 C1.36623674 2.73247348 1.128426 4.98198902 1 8 C0.67 8.33 0.34 8.66 0 9 C-0.23075082 10.34747084 -0.41153063 11.70377565 -0.5625 13.0625 C-0.706875 14.361875 -0.85125 15.66125 -1 17 C-2.98 17 -4.96 17 -7 17 C-7 14.36 -7 11.72 -7 9 C-7.66 9 -8.32 9 -9 9 C-10.32 2.64 -10.32 2.64 -9 0 C-5.82445422 -1.58777289 -3.3544356 -0.80754931 0 0 Z " fill="#AA9684" transform="translate(73,116)"/>
<path d="M0 0 C1.85625 0.1546875 1.85625 0.1546875 3.75 0.3125 C3.75 1.3025 3.75 2.2925 3.75 3.3125 C1.77 3.3125 -0.21 3.3125 -2.25 3.3125 C-2.25 3.9725 -2.25 4.6325 -2.25 5.3125 C-0.93 5.3125 0.39 5.3125 1.75 5.3125 C1.75 5.9725 1.75 6.6325 1.75 7.3125 C0.76 7.3125 -0.23 7.3125 -1.25 7.3125 C-1.25 7.9725 -1.25 8.6325 -1.25 9.3125 C-0.26 9.3125 0.73 9.3125 1.75 9.3125 C1.75 9.9725 1.75 10.6325 1.75 11.3125 C0.43 11.3125 -0.89 11.3125 -2.25 11.3125 C-2.25 11.9725 -2.25 12.6325 -2.25 13.3125 C-0.6 13.3125 1.05 13.3125 2.75 13.3125 C2.75 13.6425 2.75 13.9725 2.75 14.3125 C0.44 14.9725 -1.87 15.6325 -4.25 16.3125 C-6.75781019 13.64795168 -8.14129901 11.96470595 -8.75 8.3125 C-7.82900127 2.78650762 -5.6728236 0.0100582 0 0 Z " fill="#FBEA7E" transform="translate(102.25,1.6875)"/>
<path d="M0 0 C2.97 0 5.94 0 9 0 C9 2.64 9 5.28 9 8 C6.03 8 3.06 8 0 8 C0 6.68 0 5.36 0 4 C-12.21 4 -24.42 4 -37 4 C-37 3.67 -37 3.34 -37 3 C-24.79 3 -12.58 3 0 3 C0 2.01 0 1.02 0 0 Z " fill="#421A8E" transform="translate(193,204)"/>
<path d="M0 0 C2.97 0 5.94 0 9 0 C9 0.99 9 1.98 9 3 C21.21 3 33.42 3 46 3 C46 3.33 46 3.66 46 4 C33.79 4 21.58 4 9 4 C9 5.32 9 6.64 9 8 C6.03 8 3.06 8 0 8 C0 5.36 0 2.72 0 0 Z " fill="#482191" transform="translate(0,204)"/>
<path d="M0 0 C1.32 0.33 2.64 0.66 4 1 C4.33 2.32 4.66 3.64 5 5 C5.66 4.34 6.32 3.68 7 3 C8.6875 3.25 8.6875 3.25 11 4 C12.2375 4.350625 13.475 4.70125 14.75 5.0625 C15.8225 5.371875 16.895 5.68125 18 6 C18 6.66 18 7.32 18 8 C14.37 8 10.74 8 7 8 C7 8.66 7 9.32 7 10 C8.65 10 10.3 10 12 10 C11.67 10.66 11.34 11.32 11 12 C7.37 12 3.74 12 0 12 C0 8.04 0 4.08 0 0 Z " fill="#573C9C" transform="translate(57,168)"/>
<path d="M0 0 C0.33 0.66 0.66 1.32 1 2 C5.29 2 9.58 2 14 2 C14 4.31 14 6.62 14 9 C13.01 9.33 12.02 9.66 11 10 C10.34 9.34 9.68 8.68 9 8 C5.87185486 7.75639927 5.87185486 7.75639927 2.375 7.875 C0.59222656 7.90207031 0.59222656 7.90207031 -1.2265625 7.9296875 C-2.59941406 7.96449219 -2.59941406 7.96449219 -4 8 C-4 6.02 -4 4.04 -4 2 C-2.68 2 -1.36 2 0 2 C0 1.34 0 0.68 0 0 Z " fill="#DCDBDC" transform="translate(13,236)"/>
<path d="M0 0 C3.625 0.375 3.625 0.375 7 1 C7.6875 3.8125 7.6875 3.8125 8 7 C7.02246356 8.02196992 6.0194119 9.01979625 5 10 C4.26958147 13.61023099 4.26958147 13.61023099 4 17 C3.34 16.67 2.68 16.34 2 16 C2 14.02 2 12.04 2 10 C0.68 9.34 -0.64 8.68 -2 8 C-2.125 5.125 -2.125 5.125 -2 2 C-1.34 1.34 -0.68 0.68 0 0 Z " fill="#4A3697" transform="translate(94,93)"/>
<path d="M0 0 C2.4375 0.75 2.4375 0.75 4.4375 2.75 C4.6875 5.75 4.6875 5.75 4.4375 8.75 C2.4375 10.75 2.4375 10.75 -0.5 11.0625 C-3.5625 10.75 -3.5625 10.75 -5.5 9.625 C-6.5625 7.75 -6.5625 7.75 -6.4375 4.6875 C-5.31039351 0.90364248 -4.04478927 -0.39461359 0 0 Z " fill="#F3F1F6" transform="translate(140.5625,65.25)"/>
<path d="M0 0 C2.97 0 5.94 0 9 0 C9 0.33 9 0.66 9 1 C6.36 1 3.72 1 1 1 C1 2.98 1 4.96 1 7 C2.32 7.66 3.64 8.32 5 9 C5.125 11.875 5.125 11.875 5 15 C3 17 3 17 0.5625 17.375 C-2 17 -2 17 -3.875 15.25 C-5 13 -5 13 -4.9375 10.875 C-3.72986449 8.45972898 -2.47128202 7.9566253 0 7 C0 4.69 0 2.38 0 0 Z " fill="#3A1A8C" transform="translate(40,126)"/>
<path d="M0 0 C0.66 0 1.32 0 2 0 C2 0.66 2 1.32 2 2 C4.64 2 7.28 2 10 2 C10 2.99 10 3.98 10 5 C9.34 5 8.68 5 8 5 C8 6.98 8 8.96 8 11 C5.36 11 2.72 11 0 11 C-2.21538462 4.6 -2.21538462 4.6 -1.125 1.5625 C-0.75375 1.046875 -0.3825 0.53125 0 0 Z " fill="#CCC2DA" transform="translate(108,187)"/>
<path d="M0 0 C3.125 0.375 3.125 0.375 6 1 C6.33 2.32 6.66 3.64 7 5 C9.97 5 12.94 5 16 5 C16 5.33 16 5.66 16 6 C13.03 6 10.06 6 7 6 C6.34 7.32 5.68 8.64 5 10 C2.125 10.1875 2.125 10.1875 -1 10 C-3 7 -3 7 -2.75 4.4375 C-2 2 -2 2 0 0 Z " fill="#462A93" transform="translate(33,113)"/>
<path d="M0 0 C2 2 2 2 2.25 4.5 C2 7 2 7 0 9 C-3.125 9.125 -3.125 9.125 -6 9 C-6.66 7.68 -7.32 6.36 -8 5 C-9.65 5 -11.3 5 -13 5 C-10 3 -10 3 -8 3 C-7.67 2.01 -7.34 1.02 -7 0 C-4.29393021 -1.35303489 -2.8671629 -0.7884698 0 0 Z " fill="#7462B1" transform="translate(105,114)"/>
<path d="M0 0 C2.4375 0.1875 2.4375 0.1875 3.4375 1.1875 C5.10367115 1.22813832 6.77138095 1.230221 8.4375 1.1875 C7.7775 1.8475 7.1175 2.5075 6.4375 3.1875 C6.4375 4.1775 6.4375 5.1675 6.4375 6.1875 C7.4275 6.5175 8.4175 6.8475 9.4375 7.1875 C9.4375 7.8475 9.4375 8.5075 9.4375 9.1875 C7.10416667 9.1875 4.77083333 9.1875 2.4375 9.1875 C1.2 9.249375 1.2 9.249375 -0.0625 9.3125 C-2.5625 9.1875 -2.5625 9.1875 -4.5625 7.1875 C-4.8125 4.6875 -4.8125 4.6875 -4.5625 2.1875 C-2.5625 0.1875 -2.5625 0.1875 0 0 Z " fill="#D8D1E4" transform="translate(139.5625,170.8125)"/>
<path d="M0 0 C3.3 0 6.6 0 10 0 C10.09765625 6.15234375 10.09765625 6.15234375 10 8 C9 9 9 9 7.1875 9.1328125 C6.465625 9.13023438 5.74375 9.12765625 5 9.125 C4.278125 9.12757812 3.55625 9.13015625 2.8125 9.1328125 C1 9 1 9 0 8 C-0.14115161 5.32941149 -0.04247107 2.67567762 0 0 Z " fill="#F2F0F4" transform="translate(98,45)"/>
<path d="M0 0 C5.61 0 11.22 0 17 0 C17 1.65 17 3.3 17 5 C11.39 5 5.78 5 0 5 C0 3.35 0 1.7 0 0 Z " fill="#F3E37C" transform="translate(117,115)"/>
<path d="M0 0 C1.98 0 3.96 0 6 0 C8 2 8 2 8.1953125 4.1640625 C8.17210937 4.97617188 8.14890625 5.78828125 8.125 6.625 C8.10695313 7.44226563 8.08890625 8.25953125 8.0703125 9.1015625 C8.03550781 10.04128906 8.03550781 10.04128906 8 11 C7.01 11 6.02 11 5 11 C5 9.68 5 8.36 5 7 C4.34 7 3.68 7 3 7 C3 8.65 3 10.3 3 12 C2.01 12 1.02 12 0 12 C0 8.04 0 4.08 0 0 Z " fill="#6140A0" transform="translate(38,168)"/>
<path d="M0 0 C1.98 0 3.96 0 6 0 C5.71715982 1.77226453 5.42339502 3.542788 5.125 5.3125 C4.96257812 6.29863281 4.80015625 7.28476563 4.6328125 8.30078125 C4 11 4 11 2 14 C0.68 13.67 -0.64 13.34 -2 13 C-1.85769192 11.58297487 -1.71099254 10.1663904 -1.5625 8.75 C-1.48128906 7.96109375 -1.40007812 7.1721875 -1.31640625 6.359375 C-1.02365007 4.17635361 -0.57935581 2.1226818 0 0 Z " fill="#68DAF7" transform="translate(127,122)"/>
<path d="M0 0 C2.31 0.66 4.62 1.32 7 2 C7 5.96 7 9.92 7 14 C5.02 14 3.04 14 1 14 C0.67 9.38 0.34 4.76 0 0 Z " fill="#EAE6EF" transform="translate(54,219)"/>
<path d="M0 0 C2.9375 2 2.9375 2 5 4 C4.67 4.66 4.34 5.32 4 6 C3.39671875 5.27103516 3.39671875 5.27103516 2.78125 4.52734375 C0.02100306 2.16055306 -2.39639256 2.51943239 -5.90234375 2.65625 C-8.14319066 2.85581078 -8.14319066 2.85581078 -10.0625 4.5625 C-11.30611966 7.79591112 -11.19795384 10.56880011 -11 14 C-11.99 14 -12.98 14 -14 14 C-14.33 14.99 -14.66 15.98 -15 17 C-15.33 16.34 -15.66 15.68 -16 15 C-15.0625 12.875 -15.0625 12.875 -14 11 C-14.93972656 11.55880859 -14.93972656 11.55880859 -15.8984375 12.12890625 C-16.71570313 12.60199219 -17.53296875 13.07507812 -18.375 13.5625 C-19.59316406 14.27599609 -19.59316406 14.27599609 -20.8359375 15.00390625 C-21.55007812 15.33261719 -22.26421875 15.66132813 -23 16 C-23.66 15.67 -24.32 15.34 -25 15 C-21.04 12.525 -21.04 12.525 -17 10 C-17.66 9.01 -18.32 8.02 -19 7 C-16.03 7.495 -16.03 7.495 -13 8 C-12.62875 6.8553125 -12.62875 6.8553125 -12.25 5.6875 C-9.59716601 -0.01609309 -6.06551738 -0.7448881 0 0 Z " fill="#4E2E91" transform="translate(106,0)"/>
<path d="M0 0 C2.31 0 4.62 0 7 0 C6.979375 0.7425 6.95875 1.485 6.9375 2.25 C6.89759189 4.94167789 6.89759189 4.94167789 7.5625 7.25 C7.706875 7.8275 7.85125 8.405 8 9 C7 10 7 10 3.4375 10.0625 C2.303125 10.041875 1.16875 10.02125 0 10 C0 6.7 0 3.4 0 0 Z " fill="#543399" transform="translate(77,169)"/>
<path d="M0 0 C1.32 0 2.64 0 4 0 C4.99 3.96 5.98 7.92 7 12 C6.01 12 5.02 12 4 12 C4 11.01 4 10.02 4 9 C2.68 9 1.36 9 0 9 C0 9.99 0 10.98 0 12 C-0.99 12 -1.98 12 -3 12 C-2.68950274 10.56206608 -2.3765224 9.1246682 -2.0625 7.6875 C-1.88847656 6.88699219 -1.71445313 6.08648437 -1.53515625 5.26171875 C-1 3 -1 3 0 0 Z " fill="#542E96" transform="translate(127,168)"/>
<path d="M0 0 C3 1 3 1 4.25 2.5625 C5.35700867 6.16027818 5.00971106 9.43423717 4 13 C1.9375 16 1.9375 16 0 18 C0.66 18.66 1.32 19.32 2 20 C0.02 19.67 -1.96 19.34 -4 19 C-3.566875 19.68707031 -3.13375 20.37414062 -2.6875 21.08203125 C-1.8521875 22.43361328 -1.8521875 22.43361328 -1 23.8125 C-0.443125 24.70582031 0.11375 25.59914063 0.6875 26.51953125 C2 29 2 29 2 32 C1.59007813 31.44570312 1.18015625 30.89140625 0.7578125 30.3203125 C0.21898438 29.59585938 -0.31984375 28.87140625 -0.875 28.125 C-1.40867187 27.40570313 -1.94234375 26.68640625 -2.4921875 25.9453125 C-3.99873162 23.91747368 -3.99873162 23.91747368 -6 22 C-6.66 22.66 -7.32 23.32 -8 24 C-7.125 19.25 -7.125 19.25 -6 17 C-4.00854609 15.98308736 -2.00812926 14.98357352 0 14 C2.42727246 12.01280395 2.42727246 12.01280395 2.25 8.125 C2.18064077 4.94603525 1.80254921 2.70382382 0 0 Z " fill="#482C93" transform="translate(74,36)"/>
<path d="M0 0 C0.625 3.375 0.625 3.375 1 7 C-1 9 -1 9 -3.5625 9.1875 C-6 9 -6 9 -7 8 C-7.14115161 5.32941149 -7.04247107 2.67567762 -7 0 C-4.3333581 -1.33332095 -2.83319697 -0.67102033 0 0 Z " fill="#F4F2F6" transform="translate(149,222)"/>
<path d="M0 0 C0.33 0 0.66 0 1 0 C1.495 7.92 1.495 7.92 2 16 C-4.6 16 -11.2 16 -18 16 C-18 20.95 -18 25.9 -18 31 C-18.33 31 -18.66 31 -19 31 C-19.02684679 28.35409986 -19.04676357 25.70846904 -19.0625 23.0625 C-19.07087891 22.30775391 -19.07925781 21.55300781 -19.08789062 20.77539062 C-19.09652441 18.85005687 -19.05224333 16.92464419 -19 15 C-18 14 -18 14 -16.23413086 13.88647461 C-15.48526611 13.89171143 -14.73640137 13.89694824 -13.96484375 13.90234375 C-13.15595703 13.90556641 -12.34707031 13.90878906 -11.51367188 13.91210938 C-10.66353516 13.92048828 -9.81339844 13.92886719 -8.9375 13.9375 C-8.08349609 13.94201172 -7.22949219 13.94652344 -6.34960938 13.95117188 C-4.23304337 13.96299627 -2.11651315 13.98093231 0 14 C0 9.38 0 4.76 0 0 Z " fill="#7356A6" transform="translate(141,127)"/>
<path d="M0 0 C-0.185625 0.86625 -0.37125 1.7325 -0.5625 2.625 C-1.00667933 6.05152628 -0.71954492 8.64212371 0 12 C-1.98 12 -3.96 12 -6 12 C-6 8.04 -6 4.08 -6 0 C-2 -1 -2 -1 0 0 Z " fill="#543297" transform="translate(138,221)"/>
<path d="M0 0 C0.66 0 1.32 0 2 0 C2 3.63 2 7.26 2 11 C-0.875 11.625 -0.875 11.625 -4 12 C-6 10 -6 10 -6.1875 7.4375 C-6 5 -6 5 -5 4 C-3.33382885 3.95936168 -1.66611905 3.957279 0 4 C0 2.68 0 1.36 0 0 Z " fill="#7D63AF" transform="translate(117,168)"/>
<path d="M0 0 C0.515625 0.61875 1.03125 1.2375 1.5625 1.875 C4.54458615 4.47476742 7.18446201 5.11949123 11 6 C11 7.32 11 8.64 11 10 C7.03611362 10.07622858 3.8726592 9.9681648 0 9 C0 6.03 0 3.06 0 0 Z " fill="#68DBF8" transform="translate(145,86)"/>
<path d="M0 0 C0.33 0 0.66 0 1 0 C1.33 1.65 1.66 3.3 2 5 C3.32 3.35 4.64 1.7 6 0 C6.66 0.33 7.32 0.66 8 1 C6.515 2.485 6.515 2.485 5 4 C5.309375 4.7425 5.61875 5.485 5.9375 6.25 C6.8094925 8.50692176 7.47667007 10.6450153 8 13 C5.36 13 2.72 13 0 13 C0 8.71 0 4.42 0 0 Z " fill="#371A8C" transform="translate(154,220)"/>
<path d="M0 0 C1.65 0 3.3 0 5 0 C7 3 7 3 6.6875 6.125 C6 9 6 9 5 10 C3.35 10 1.7 10 0 10 C0 6.7 0 3.4 0 0 Z " fill="#F6F4F8" transform="translate(43,221)"/>
<path d="M0 0 C5.61 0 11.22 0 17 0 C17 1.32 17 2.64 17 4 C11.39 4 5.78 4 0 4 C0 2.68 0 1.36 0 0 Z " fill="#FAE77E" transform="translate(117,109)"/>
<path d="M0 0 C4 2 4 2 4.828125 4.1640625 C5.21875 6.44270833 5.609375 8.72135417 6 11 C3.03 11 0.06 11 -3 11 C-2.01 7.37 -1.02 3.74 0 0 Z " fill="#9885BF" transform="translate(70,222)"/>
<path d="M0 0 C4.55555556 0.55555556 4.55555556 0.55555556 6 2 C6.25 4.4375 6.25 4.4375 6 7 C3 9 3 9 0.875 8.6875 C-1 8 -1 8 -2 7 C-2.1875 4.5625 -2.1875 4.5625 -2 2 C-1.34 1.34 -0.68 0.68 0 0 Z " fill="#6D52A7" transform="translate(121,189)"/>
<path d="M0 0 C4.875 0.875 4.875 0.875 6 2 C6.1875 4.4375 6.1875 4.4375 6 7 C5.34 7.66 4.68 8.32 4 9 C1.375 8.625 1.375 8.625 -1 8 C-1.625 5.6875 -1.625 5.6875 -2 3 C-1.34 2.01 -0.68 1.02 0 0 Z " fill="#8D74B8" transform="translate(89,189)"/>
<path d="M0 0 C2.625 0.375 2.625 0.375 5 1 C5.625 3.3125 5.625 3.3125 6 6 C5.01 7.485 5.01 7.485 4 9 C-0.875 8.125 -0.875 8.125 -2 7 C-2.1875 4.5625 -2.1875 4.5625 -2 2 C-1.34 1.34 -0.68 0.68 0 0 Z " fill="#6C50A7" transform="translate(50,171)"/>
<path d="M0 0 C6.625 -0.25 6.625 -0.25 10 2 C10.33419015 5.00771135 10.52770924 7.10056383 10 10 C8.375 12 8.375 12 6 13 C4.02 13 2.04 13 0 13 C0 8.71 0 4.42 0 0 Z M2 1 C2 4.3 2 7.6 2 11 C3.65 11 5.3 11 7 11 C9.35014158 8.162422 9.35014158 8.162422 8.6875 4.875 C8.29355679 2.11913578 8.29355679 2.11913578 7 1 C5.35 1 3.7 1 2 1 Z " fill="#482F93" transform="translate(41,220)"/>
<path d="M0 0 C-0.185625 0.78375 -0.37125 1.5675 -0.5625 2.375 C-1.25962266 4.97089775 -1.25962266 4.97089775 0 7 C-0.99 8.485 -0.99 8.485 -2 10 C-4.625 10.1875 -4.625 10.1875 -7 10 C-7.09978121 6.50765756 -6.77842938 3.40562852 -6 0 C-2.25 -1.125 -2.25 -1.125 0 0 Z " fill="#B9AAD3" transform="translate(86,221)"/>
<path d="M0 0 C2.875 -0.125 2.875 -0.125 6 0 C8 2 8 2 8.125 5.625 C8.08375 6.73875 8.0425 7.8525 8 9 C7.01 9 6.02 9 5 9 C5 6.69 5 4.38 5 2 C4.34 2 3.68 2 3 2 C3 4.31 3 6.62 3 9 C2.01 9 1.02 9 0 9 C0 6.03 0 3.06 0 0 Z " fill="#57349B" transform="translate(97,189)"/>
<path d="M0 0 C1.32 0.33 2.64 0.66 4 1 C4.66 4.3 5.32 7.6 6 11 C4.02 11.33 2.04 11.66 0 12 C0 8.04 0 4.08 0 0 Z " fill="#896EB5" transform="translate(57,168)"/>
<path d="M0 0 C1.99954746 -0.04254356 4.00041636 -0.04080783 6 0 C7 1 7 1 7.0625 4.5625 C7.041875 5.696875 7.02125 6.83125 7 8 C4.69 8 2.38 8 0 8 C-0.33 6.68 -0.66 5.36 -1 4 C-0.01 3.34 0.98 2.68 2 2 C1.34 1.34 0.68 0.68 0 0 Z " fill="#6346A0" transform="translate(87,172)"/>
<path d="M0 0 C0.66 0.33 1.32 0.66 2 1 C1.34 2.65 0.68 4.3 0 6 C0.763125 6.2475 1.52625 6.495 2.3125 6.75 C5.37754038 8.17560018 6.46110282 9.00320024 8 12 C8.1875 15.75 8.1875 15.75 8 19 C7.67 19 7.34 19 7 19 C6.7525 17.741875 6.505 16.48375 6.25 15.1875 C5.55236028 12.45023303 5.13883926 11.15867344 3.25 9 C0.35694799 7.71419911 -1.86229237 7.79972079 -5 8 C-5.99 8 -6.98 8 -8 8 C-7.34 7.01 -6.68 6.02 -6 5 C-6.66 5 -7.32 5 -8 5 C-7.67 4.34 -7.34 3.68 -7 3 C-5.68 3.66 -4.36 4.32 -3 5 C-2.67 4.01 -2.34 3.02 -2 2 C-1.34 1.34 -0.68 0.68 0 0 Z " fill="#42238F" transform="translate(138,28)"/>
<path d="M0 0 C2.31 0 4.62 0 7 0 C7 0.33 7 0.66 7 1 C5.35 1 3.7 1 2 1 C2 2.32 2 3.64 2 5 C3.65 5 5.3 5 7 5 C7 5.66 7 6.32 7 7 C5.35 7 3.7 7 2 7 C2 8.32 2 9.64 2 11 C3.65 11 5.3 11 7 11 C7 11.66 7 12.32 7 13 C4.69 13 2.38 13 0 13 C0 8.71 0 4.42 0 0 Z " fill="#533497" transform="translate(164,220)"/>
<path d="M0 0 C0.99 0.33 1.98 0.66 3 1 C2.67 5.29 2.34 9.58 2 14 C0.02 14 -1.96 14 -4 14 C-3.34 13.34 -2.68 12.68 -2 12 C-2.2784375 10.63875 -2.2784375 10.63875 -2.5625 9.25 C-3.10458584 5.2230766 -2.04103855 3.42894476 0 0 Z " fill="#E0DBE8" transform="translate(87,219)"/>
<path d="M0 0 C1.5 1.375 1.5 1.375 3 3 C3 3.66 3 4.32 3 5 C3.66 5 4.32 5 5 5 C5.33 5.99 5.66 6.98 6 8 C2.7 8 -0.6 8 -4 8 C-4 6.02 -4 4.04 -4 2 C-2.68 2 -1.36 2 0 2 C0 1.34 0 0.68 0 0 Z " fill="#B2B2B2" transform="translate(13,236)"/>
<path d="M0 0 C0.33 1.32 0.66 2.64 1 4 C-0.65 4 -2.3 4 -4 4 C-4 4.66 -4 5.32 -4 6 C-2.68 6 -1.36 6 0 6 C0 6.66 0 7.32 0 8 C-2.375 8.125 -2.375 8.125 -5 8 C-5.66 7.34 -6.32 6.68 -7 6 C-6.75 2.9375 -6.75 2.9375 -6 0 C-3.50907189 -1.24546405 -2.58919267 -0.7767578 0 0 Z " fill="#5B3C9C" transform="translate(109,172)"/>
<path d="M0 0 C2.31 0 4.62 0 7 0 C7 2.31 7 4.62 7 7 C5.1875 7.625 5.1875 7.625 3 8 C2.01 7.34 1.02 6.68 0 6 C-0.1875 2.875 -0.1875 2.875 0 0 Z " fill="#F2F1F4" transform="translate(41,127)"/>
<path d="M0 0 C1.9375 0.8125 1.9375 0.8125 4 2 C4.33 2.99 4.66 3.98 5 5 C3.75 6.5625 3.75 6.5625 2 8 C-0.1875 7.6875 -0.1875 7.6875 -2 7 C-2.33 5.35 -2.66 3.7 -3 2 C-2.01 1.34 -1.02 0.68 0 0 Z " fill="#67D3F3" transform="translate(96,94)"/>
<path d="M0 0 C2.125 0.375 2.125 0.375 4 1 C4.625 3.375 4.625 3.375 5 6 C4.34 6.66 3.68 7.32 3 8 C0.375 7.625 0.375 7.625 -2 7 C-2.125 4.625 -2.125 4.625 -2 2 C-1.34 1.34 -0.68 0.68 0 0 Z " fill="#67D6F5" transform="translate(39,94)"/>
<path d="M0 0 C2.125 0.375 2.125 0.375 4 1 C4.625 3.375 4.625 3.375 5 6 C4.34 6.66 3.68 7.32 3 8 C0.875 7.625 0.875 7.625 -1 7 C-1.625 4.625 -1.625 4.625 -2 2 C-1.34 1.34 -0.68 0.68 0 0 Z " fill="#68D8F7" transform="translate(39,134)"/>
<path d="M0 0 C0 0.66 0 1.32 0 2 C-1.65 2.66 -3.3 3.32 -5 4 C-4.67 5.65 -4.34 7.3 -4 9 C-2.68 9.33 -1.36 9.66 0 10 C0 10.66 0 11.32 0 12 C-2.3431213 11.74438677 -4.67843403 11.40729228 -7 11 C-8.39935013 8.20129973 -8.25265405 6.09501208 -8 3 C-5.87141064 -0.36093057 -3.79035926 -0.30732643 0 0 Z " fill="#452090" transform="translate(86,186)"/>
<path d="M0 0 C2.125 0.375 2.125 0.375 4 1 C4.33 2.32 4.66 3.64 5 5 C3.35 5 1.7 5 0 5 C0 5.66 0 6.32 0 7 C1.32 7 2.64 7 4 7 C4 7.66 4 8.32 4 9 C1.03 8.505 1.03 8.505 -2 8 C-2.125 5.125 -2.125 5.125 -2 2 C-1.34 1.34 -0.68 0.68 0 0 Z " fill="#4F3197" transform="translate(152,171)"/>
<path d="M0 0 C1.66611905 -0.042721 3.33382885 -0.04063832 5 0 C6 1 6 1 6.0625 3.5625 C6.041875 4.366875 6.02125 5.17125 6 6 C3.625 6.625 3.625 6.625 1 7 C0.34 6.34 -0.32 5.68 -1 5 C-0.625 2.375 -0.625 2.375 0 0 Z " fill="#68DAF7" transform="translate(66,147)"/>
<path d="M0 0 C1.2065625 0.0309375 1.2065625 0.0309375 2.4375 0.0625 C3.0625 2.4375 3.0625 2.4375 3.4375 5.0625 C2.7775 5.7225 2.1175 6.3825 1.4375 7.0625 C-1.1875 6.6875 -1.1875 6.6875 -3.5625 6.0625 C-3.605221 4.39638095 -3.60313832 2.72867115 -3.5625 1.0625 C-2.5625 0.0625 -2.5625 0.0625 0 0 Z " fill="#68DAF8" transform="translate(35.5625,114.9375)"/>
<path d="M0 0 C1.2065625 0.0309375 1.2065625 0.0309375 2.4375 0.0625 C3.5 1.9375 3.5 1.9375 4.4375 4.0625 C4.1075 4.7225 3.7775 5.3825 3.4375 6.0625 C1.4575 6.0625 -0.5225 6.0625 -2.5625 6.0625 C-2.94468767 4.40635343 -3.27645102 2.73792976 -3.5625 1.0625 C-2.5625 0.0625 -2.5625 0.0625 0 0 Z " fill="#68D7F6" transform="translate(96.5625,134.9375)"/>
<path d="M0 0 C1.66611905 -0.042721 3.33382885 -0.04063832 5 0 C6 1 6 1 6.0625 3.5625 C6.041875 4.366875 6.02125 5.17125 6 6 C4.35 6.33 2.7 6.66 1 7 C-0.0625 5.1875 -0.0625 5.1875 -1 3 C-0.67 2.01 -0.34 1.02 0 0 Z " fill="#A6E9F6" transform="translate(99,115)"/>
<path d="M0 0 C2.64 0.33 5.28 0.66 8 1 C7.24266726 2.3410477 6.46867264 3.67269781 5.6875 5 C5.25824219 5.7425 4.82898438 6.485 4.38671875 7.25 C3.92910156 7.8275 3.47148437 8.405 3 9 C2.01 9 1.02 9 0 9 C0 6.03 0 3.06 0 0 Z " fill="#9FEDF0" transform="translate(144,96)"/>
<path d="M0 0 C2.64 0.33 5.28 0.66 8 1 C8 3.64 8 6.28 8 9 C3.97841331 7.6594711 3.16886165 5.54247403 1 2 C0.67 1.34 0.34 0.68 0 0 Z " fill="#C0F6F8" transform="translate(103,112)"/>
<path d="M0 0 C0.33 0 0.66 0 1 0 C1 4.29 1 8.58 1 13 C-1.31 13 -3.62 13 -6 13 C-5.525625 12.62875 -5.05125 12.2575 -4.5625 11.875 C-2.47794198 9.37353038 -2.35378509 7.18406582 -2 4 C-1.34 4 -0.68 4 0 4 C0 2.68 0 1.36 0 0 Z " fill="#DED8E6" transform="translate(153,220)"/>
<path d="M0 0 C-0.33 0.99 -0.66 1.98 -1 3 C-1.928125 2.979375 -2.85625 2.95875 -3.8125 2.9375 C-7.02286011 2.84230396 -7.02286011 2.84230396 -10 4 C-10 5.65 -10 7.3 -10 9 C-13.47823115 10.15941038 -15.45895578 9.70820884 -19 9 C-19 8.67 -19 8.34 -19 8 C-16.69 8 -14.38 8 -12 8 C-11.9175 7.236875 -11.835 6.47375 -11.75 5.6875 C-11 3 -11 3 -9.375 1.1875 C-6.1686245 -0.41568775 -3.53249148 -0.20379759 0 0 Z " fill="#442492" transform="translate(119,54)"/>
<path d="M0 0 C1.98 0 3.96 0 6 0 C6 1.98 6 3.96 6 6 C4.02 6 2.04 6 0 6 C0 4.02 0 2.04 0 0 Z " fill="#E5E0EB" transform="translate(195,205)"/>
<path d="M0 0 C-1.65 1.65 -3.3 3.3 -5 5 C-6.32 4.34 -7.64 3.68 -9 3 C-8.6875 1.0625 -8.6875 1.0625 -8 -1 C-4.37673261 -2.2077558 -3.35853631 -1.54311128 0 0 Z " fill="#BFF5F8" transform="translate(100,113)"/>
<path d="M0 0 C1.32 0 2.64 0 4 0 C4 0.66 4 1.32 4 2 C3.01 2.495 3.01 2.495 2 3 C2.66 3.66 3.32 4.32 4 5 C3.625 7.125 3.625 7.125 3 9 C1.35 8.67 -0.3 8.34 -2 8 C-1.01 7.34 -0.02 6.68 1 6 C0.01 5.34 -0.98 4.68 -2 4 C-1.34 2.68 -0.68 1.36 0 0 Z " fill="#43218F" transform="translate(160,171)"/>
<path d="M0 0 C0.33 0 0.66 0 1 0 C1 4.29 1 8.58 1 13 C-1.31 13 -3.62 13 -6 13 C-5.525625 12.62875 -5.05125 12.2575 -4.5625 11.875 C-2.47059056 9.36470867 -2.45700191 7.19901336 -2 4 C-0.9375 1.625 -0.9375 1.625 0 0 Z " fill="#DDD7E6" transform="translate(53,220)"/>
<path d="M0 0 C2.64 0.66 5.28 1.32 8 2 C7.01 2.33 6.02 2.66 5 3 C4.3162955 4.32467746 3.65035814 5.65863633 3 7 C2.01 7.66 1.02 8.32 0 9 C0 6.03 0 3.06 0 0 Z " fill="#9FE9ED" transform="translate(135,110)"/>
<path d="M0 0 C1.98 0 3.96 0 6 0 C4.68 0.33 3.36 0.66 2 1 C2 2.65 2 4.3 2 6 C2.99 6.33 3.98 6.66 5 7 C4.01 7 3.02 7 2 7 C2 8.98 2 10.96 2 13 C1.34 13 0.68 13 0 13 C0 8.71 0 4.42 0 0 Z " fill="#3B218F" transform="translate(130,220)"/>
<path d="M0 0 C1.32 0 2.64 0 4 0 C4 0.66 4 1.32 4 2 C3.01 2.495 3.01 2.495 2 3 C2.66 3.33 3.32 3.66 4 4 C3.67 5.65 3.34 7.3 3 9 C1.68 9 0.36 9 -1 9 C-1 8.34 -1 7.68 -1 7 C-0.34 6.67 0.32 6.34 1 6 C0.34 5.67 -0.32 5.34 -1 5 C-0.67 3.35 -0.34 1.7 0 0 Z " fill="#492692" transform="translate(167,171)"/>
<path d="M0 0 C0.99 0 1.98 0 3 0 C3 0.66 3 1.32 3 2 C2.34 2 1.68 2 1 2 C1 2.66 1 3.32 1 4 C1.99 4.33 2.98 4.66 4 5 C3.67 6.32 3.34 7.64 3 9 C1.35 9 -0.3 9 -2 9 C-2 8.34 -2 7.68 -2 7 C-1.01 6.67 -0.02 6.34 1 6 C0.01 5.34 -0.98 4.68 -2 4 C-1.34 2.68 -0.68 1.36 0 0 Z " fill="#482793" transform="translate(97,171)"/>
<path d="M0 0 C1.65 0 3.3 0 5 0 C4.34 0.66 3.68 1.32 3 2 C3 2.99 3 3.98 3 5 C3.99 5.33 4.98 5.66 6 6 C6 6.66 6 7.32 6 8 C3.625 8.125 3.625 8.125 1 8 C0.34 7.34 -0.32 6.68 -1 6 C-0.625 2.875 -0.625 2.875 0 0 Z " fill="#533296" transform="translate(143,172)"/>
<path d="M0 0 C1.98 0 3.96 0 6 0 C6 1.65 6 3.3 6 5 C4.68 5.33 3.36 5.66 2 6 C2 6.66 2 7.32 2 8 C2.99 8.33 3.98 8.66 5 9 C3.35 9 1.7 9 0 9 C0 7.35 0 5.7 0 4 C1.32 4 2.64 4 4 4 C4 3.01 4 2.02 4 1 C2.68 0.67 1.36 0.34 0 0 Z " fill="#6641A0" transform="translate(66,39)"/>
<path d="M0 0 C0.33 0 0.66 0 1 0 C1 2.31 1 4.62 1 7 C-1.31 6.67 -3.62 6.34 -6 6 C-6 4.68 -6 3.36 -6 2 C-4.02 2 -2.04 2 0 2 C0 1.34 0 0.68 0 0 Z " fill="#FBFBFB" transform="translate(39,225)"/>
<path d="M0 0 C1.65 0 3.3 0 5 0 C5 1.98 5 3.96 5 6 C3.35 6 1.7 6 0 6 C0 4.02 0 2.04 0 0 Z " fill="#F5F3F6" transform="translate(2,205)"/>
<path d="M0 0 C1.953125 0.8671875 1.953125 0.8671875 4 2 C4.75 4.125 4.75 4.125 5 6 C4.34 5.67 3.68 5.34 3 5 C2.67 7.31 2.34 9.62 2 12 C0 10 0 10 -0.1953125 7.6171875 C-0.17210937 6.71226563 -0.14890625 5.80734375 -0.125 4.875 C-0.10695312 3.96492188 -0.08890625 3.05484375 -0.0703125 2.1171875 C-0.04710937 1.41851562 -0.02390625 0.71984375 0 0 Z " fill="#494BA6" transform="translate(143,82)"/>
<path d="M0 0 C3.63 0 7.26 0 11 0 C11 0.99 11 1.98 11 3 C6.98195309 3.84098656 3.98196457 4.05404945 0 3 C0 2.01 0 1.02 0 0 Z " fill="#494949" transform="translate(171,237)"/>
<path d="M0 0 C0.66 0 1.32 0 2 0 C2 0.66 2 1.32 2 2 C2.66 2.33 3.32 2.66 4 3 C3.34 3 2.68 3 2 3 C2.66 5.31 3.32 7.62 4 10 C2.68 9.67 1.36 9.34 0 9 C-0.87890625 2.84765625 -0.87890625 2.84765625 -1 1 C-0.67 0.67 -0.34 0.34 0 0 Z " fill="#40178F" transform="translate(107,188)"/>
<path d="M0 0 C1.32 0 2.64 0 4 0 C4.33 2.31 4.66 4.62 5 7 C3.35 6.67 1.7 6.34 0 6 C0.185625 5.38125 0.37125 4.7625 0.5625 4.125 C1.23686176 1.95839822 1.23686176 1.95839822 0 0 Z " fill="#D7D1E3" transform="translate(145,171)"/>
<path d="M0 0 C0.66 0 1.32 0 2 0 C2 2.31 2 4.62 2 7 C1.67 6.34 1.34 5.68 1 5 C-0.32 5.33 -1.64 5.66 -3 6 C-3.33 7.32 -3.66 8.64 -4 10 C-4.66 10 -5.32 10 -6 10 C-6.042721 8.33388095 -6.04063832 6.66617115 -6 5 C-5 4 -5 4 -2.4375 3.9375 C-1.2309375 3.9684375 -1.2309375 3.9684375 0 4 C0 2.68 0 1.36 0 0 Z " fill="#2E0583" transform="translate(117,168)"/>
<path d="M0 0 C1.65 0 3.3 0 5 0 C5.66 1.32 6.32 2.64 7 4 C4.36 4 1.72 4 -1 4 C-0.67 2.68 -0.34 1.36 0 0 Z " fill="#F3F2F5" transform="translate(68,229)"/>
<path d="M0 0 C1.2065625 0.0309375 1.2065625 0.0309375 2.4375 0.0625 C1.4475 0.7225 0.4575 1.3825 -0.5625 2.0625 C-0.5625 3.0525 -0.5625 4.0425 -0.5625 5.0625 C0.4275 5.3925 1.4175 5.7225 2.4375 6.0625 C2.4375 6.7225 2.4375 7.3825 2.4375 8.0625 C-2.4375 7.1875 -2.4375 7.1875 -3.5625 6.0625 C-3.6875 3.5625 -3.6875 3.5625 -3.5625 1.0625 C-2.5625 0.0625 -2.5625 0.0625 0 0 Z " fill="#3A158B" transform="translate(138.5625,171.9375)"/>
<path d="M0 0 C1.32 0.33 2.64 0.66 4 1 C1.69 3.31 -0.62 5.62 -3 8 C-3.33 6.68 -3.66 5.36 -4 4 C-2.3125 1.6875 -2.3125 1.6875 0 0 Z " fill="#A092C5" transform="translate(79,16)"/>
<path d="M0 0 C0 1.32 0 2.64 0 4 C-3.96 3.67 -7.92 3.34 -12 3 C-12 2.67 -12 2.34 -12 2 C-10.37548581 1.66430703 -8.75037083 1.3315204 -7.125 1 C-6.22007813 0.814375 -5.31515625 0.62875 -4.3828125 0.4375 C-2 0 -2 0 0 0 Z " fill="#E8D67E" transform="translate(134,109)"/>
<path d="M0 0 C0.66 0 1.32 0 2 0 C2 2.64 2 5.28 2 8 C2.66 8.33 3.32 8.66 4 9 C2.35 9 0.7 9 -1 9 C-1 1 -1 1 0 0 Z " fill="#563B8A" transform="translate(102,73)"/>
<path d="M0 0 C2.97 0 5.94 0 9 0 C9 0.66 9 1.32 9 2 C6.04335481 3.4783226 3.25770263 3.06032783 0 3 C0 2.01 0 1.02 0 0 Z " fill="#454545" transform="translate(184,237)"/>
<path d="M0 0 C2.62187494 1.04874998 3.79371361 1.64931313 5.25 4.125 C5.4975 4.74375 5.745 5.3625 6 6 C4.02 6 2.04 6 0 6 C0 4.02 0 2.04 0 0 Z " fill="#E9E5EE" transform="translate(155,227)"/>
<path d="M0 0 C0.66 0.33 1.32 0.66 2 1 C2 1.99 2 2.98 2 4 C2.99 4.33 3.98 4.66 5 5 C4.01 5.33 3.02 5.66 2 6 C1.67 6.66 1.34 7.32 1 8 C-0.98 4.535 -0.98 4.535 -3 1 C-2.01 0.67 -1.02 0.34 0 0 Z " fill="#E2DBEA" transform="translate(164,172)"/>
<path d="M0 0 C1.32 0 2.64 0 4 0 C3.67 2.31 3.34 4.62 3 7 C2.34 7 1.68 7 1 7 C0.67 4.69 0.34 2.38 0 0 Z " fill="#7256A7" transform="translate(127,168)"/>
<path d="M0 0 C1.32 0.33 2.64 0.66 4 1 C4 2.65 4 4.3 4 6 C2.68 6 1.36 6 0 6 C0 4.02 0 2.04 0 0 Z " fill="#F6F5F7" transform="translate(132,227)"/>
<path d="M0 0 C0 0.99 0 1.98 0 3 C-0.99 3 -1.98 3 -3 3 C-3 4.65 -3 6.3 -3 8 C-3.66 8 -4.32 8 -5 8 C-5 5.69 -5 3.38 -5 1 C-2 0 -2 0 0 0 Z " fill="#3F1E8F" transform="translate(118,189)"/>
<path d="M0 0 C0.33 0.66 0.66 1.32 1 2 C1.66 2.33 2.32 2.66 3 3 C2.34 5.31 1.68 7.62 1 10 C0.01 9.67 -0.98 9.34 -2 9 C-1.34 9 -0.68 9 0 9 C-0.185625 8.071875 -0.37125 7.14375 -0.5625 6.1875 C-1 3 -1 3 0 0 Z " fill="#D6CEE1" transform="translate(46,170)"/>
<path d="M0 0 C0.33 1.32 0.66 2.64 1 4 C-0.98 4.66 -2.96 5.32 -5 6 C-4.67 4.35 -4.34 2.7 -4 1 C-2.68 0.67 -1.36 0.34 0 0 Z " fill="#7354A8" transform="translate(83,169)"/>
<path d="M0 0 C0.66 0.33 1.32 0.66 2 1 C2 2.98 2 4.96 2 7 C1.01 7.33 0.02 7.66 -1 8 C-1 7.34 -1 6.68 -1 6 C-2.32 6 -3.64 6 -5 6 C-5 5.34 -5 4.68 -5 4 C-3.35 4 -1.7 4 0 4 C0 2.68 0 1.36 0 0 Z " fill="#E6E1EB" transform="translate(110,172)"/>
<path d="M0 0 C0.66 0 1.32 0 2 0 C2.33 2.64 2.66 5.28 3 8 C1.68 7.67 0.36 7.34 -1 7 C-0.67 5.68 -0.34 4.36 0 3 C-0.66 2.67 -1.32 2.34 -2 2 C-1.34 1.34 -0.68 0.68 0 0 Z " fill="#59409E" transform="translate(133,147)"/>
<path d="M0 0 C2.475 0.495 2.475 0.495 5 1 C5 2.65 5 4.3 5 6 C3.35 6.33 1.7 6.66 0 7 C0.66 6.34 1.32 5.68 2 5 C2 4.01 2 3.02 2 2 C1.34 1.34 0.68 0.68 0 0 Z " fill="#340A86" transform="translate(90,190)"/>
<path d="M0 0 C0.33 0 0.66 0 1 0 C1.309375 1.11375 1.61875 2.2275 1.9375 3.375 C2.82326483 6.7945155 2.82326483 6.7945155 4 9 C2.35 9 0.7 9 -1 9 C-0.67 6.03 -0.34 3.06 0 0 Z " fill="#EBE7EF" transform="translate(139,224)"/>
<path d="M0 0 C1.32 0 2.64 0 4 0 C3.67 1.65 3.34 3.3 3 5 C2.01 5 1.02 5 0 5 C0 3.35 0 1.7 0 0 Z " fill="#F3F1F4" transform="translate(132,221)"/>
<path d="M0 0 C0.66 0.33 1.32 0.66 2 1 C1.67 3.31 1.34 5.62 1 8 C0.01 7.01 -0.98 6.02 -2 5 C-1.34 3.35 -0.68 1.7 0 0 Z " fill="#99E3EC" transform="translate(65,53)"/>
<path d="M0 0 C0.99 0 1.98 0 3 0 C3 1.98 3 3.96 3 6 C2.01 6 1.02 6 0 6 C0 4.02 0 2.04 0 0 Z " fill="#CACACA" transform="translate(9,238)"/>
<path d="M0 0 C1.32 0 2.64 0 4 0 C4 0.66 4 1.32 4 2 C1.5 3.625 1.5 3.625 -1 5 C-1 1 -1 1 0 0 Z " fill="#5A3E9B" transform="translate(160,171)"/>
<path d="M0 0 C2.31 0 4.62 0 7 0 C6.67 0.99 6.34 1.98 6 3 C3.5625 2.625 3.5625 2.625 1 2 C0.67 1.34 0.34 0.68 0 0 Z " fill="#66D7F4" transform="translate(98,119)"/>
<path d="M0 0 C0.66 0.66 1.32 1.32 2 2 C1.625 4.125 1.625 4.125 1 6 C-1.64 5.67 -4.28 5.34 -7 5 C-7 4.67 -7 4.34 -7 4 C-4.69 4 -2.38 4 0 4 C0 2.68 0 1.36 0 0 Z " fill="#5674B9" transform="translate(107,58)"/>
</svg>
