<?xml version="1.0" encoding="UTF-8"?>
<svg version="1.1" xmlns="http://www.w3.org/2000/svg" width="512" height="512">
<path d="M0 0 C2.48535775 2.29895592 4.58740047 4.51716222 6.5 7.3125 C6.5 7.9725 6.5 8.6325 6.5 9.3125 C8.37880872 9.26481597 8.37880872 9.26481597 10.5 8.3125 C11.11875 7.384375 11.7375 6.45625 12.375 5.5 C15.25399272 1.18151092 17.68296345 -1.0081809 22.81640625 -2.24609375 C30.3632747 -2.94388386 36.60421223 -0.42610164 43.4375 2.4375 C44.34959229 2.81543701 45.26168457 3.19337402 46.20141602 3.58276367 C51.71382439 6.03776705 55.12133831 8.27522258 58.5 13.3125 C59.68681726 16.87295177 59.59689832 19.75058337 59.5625 23.5 C59.55347656 24.77230469 59.54445313 26.04460937 59.53515625 27.35546875 C59.51775391 28.81919922 59.51775391 28.81919922 59.5 30.3125 C60.44101562 30.27769531 61.38203125 30.24289063 62.3515625 30.20703125 C64.21941406 30.16642578 64.21941406 30.16642578 66.125 30.125 C67.35476563 30.09019531 68.58453125 30.05539063 69.8515625 30.01953125 C74.92124753 30.42662587 78.0194932 31.82650985 81.609375 35.4296875 C87.28976384 44.09110685 92.83118987 55.62839124 91.984375 66.1484375 C91.31324155 69.14688854 89.99598857 71.64573777 88.5 74.3125 C89.12474755 78.69559727 91.77202029 81.89263707 94.25 85.4375 C97.31528942 89.88238599 100.05138947 94.17089404 102.25 99.125 C103.26866697 101.46766056 103.26866697 101.46766056 104.5 103.3125 C106.49172182 104.00350553 108.49161804 104.67152703 110.5 105.3125 C116.00287147 112.85929516 118.86014439 126.09662491 120.09765625 135.27734375 C120.93748087 142.06961404 120.93748087 142.06961404 124.77734375 147.453125 C127.62113016 149.22401023 130.53154657 150.76169847 133.5 152.3125 C156.78212628 168.31445676 170.33792623 193.03121768 175.5 220.3125 C180.04994814 246.79319815 173.81244176 275.22553476 158.5 297.3125 C155.15799946 301.63316661 151.35698351 305.45551649 147.5 309.3125 C146.64792969 310.24707031 145.79585938 311.18164062 144.91796875 312.14453125 C134.87297082 322.91240759 122.38874628 330.46629308 108.5 335.3125 C106.92992187 335.86357422 106.92992187 335.86357422 105.328125 336.42578125 C94.05562858 340.13383928 81.41398228 342.92766086 69.5 341.3125 C67.6328125 339.91796875 67.6328125 339.91796875 66.5 338.3125 C66.5 337.6525 66.5 336.9925 66.5 336.3125 C53.3 336.3125 40.1 336.3125 26.5 336.3125 C26.57911681 349.01241433 26.57911681 349.01241433 26.68017578 361.7121582 C26.68601696 363.3041965 26.69111341 364.89623778 26.6953125 366.48828125 C26.70554443 367.31501343 26.71577637 368.14174561 26.72631836 368.99353027 C26.7281436 374.9702846 26.7281436 374.9702846 24.5 378.3125 C21.63923862 379.29118153 20.11297231 379.53385111 17.25 378.5 C15.5 377.3125 15.5 377.3125 14.5 375.3125 C14.41301772 372.39550726 14.38448077 369.50267452 14.40234375 366.5859375 C14.40446617 365.29171371 14.40446617 365.29171371 14.40663147 363.97134399 C14.41223812 361.2100277 14.42479173 358.44879188 14.4375 355.6875 C14.44251414 353.8177095 14.4470772 351.94791774 14.45117188 350.078125 C14.4613597 345.48952723 14.48093378 340.90110392 14.5 336.3125 C7.24 336.3125 -0.02 336.3125 -7.5 336.3125 C-7.83 337.6325 -8.16 338.9525 -8.5 340.3125 C-11.98601855 345.48870936 -15.35847363 347.83411162 -21.5 349.3125 C-25.34511228 349.64732428 -29.14427478 349.59867013 -33 349.5 C-34.51980469 349.47969727 -34.51980469 349.47969727 -36.0703125 349.45898438 C-38.54744404 349.42393063 -41.02342927 349.37479764 -43.5 349.3125 C-43.47381592 350.04364014 -43.44763184 350.77478027 -43.4206543 351.52807617 C-43.31649856 354.85183082 -43.25161379 358.17524194 -43.1875 361.5 C-43.1246582 363.22573242 -43.1246582 363.22573242 -43.06054688 364.98632812 C-42.9223782 374.51996655 -42.9223782 374.51996655 -45.8515625 377.6171875 C-48.5 379.3125 -48.5 379.3125 -51.1875 379.25 C-53.5 378.3125 -53.5 378.3125 -55.5 376.3125 C-55.67546482 373.29941049 -55.73127445 370.37939546 -55.6953125 367.3671875 C-55.6924826 366.4821756 -55.68965271 365.5971637 -55.68673706 364.68533325 C-55.6755224 361.85258588 -55.6504157 359.02015216 -55.625 356.1875 C-55.61497185 354.26953581 -55.60584572 352.35156667 -55.59765625 350.43359375 C-55.57727854 345.7263438 -55.53813273 341.0197739 -55.5 336.3125 C-63.42 336.3125 -71.34 336.3125 -79.5 336.3125 C-79.47679687 339.00921875 -79.45359375 341.7059375 -79.4296875 344.484375 C-79.41408572 347.09895355 -79.40194397 349.71352689 -79.39013672 352.328125 C-79.38008509 354.14390386 -79.36644172 355.95966656 -79.34912109 357.77539062 C-79.32483594 360.38675935 -79.31350852 362.99791387 -79.3046875 365.609375 C-79.29436493 366.41993347 -79.28404236 367.23049194 -79.27340698 368.06561279 C-79.27194574 375.42190012 -79.27194574 375.42190012 -81.5 378.3125 C-84.74152421 379.36951876 -86.55968148 379.76901766 -89.67089844 378.25854492 C-92.39111605 375.36441057 -91.95448137 373.1494837 -91.890625 369.23828125 C-91.88063477 367.98700439 -91.87064453 366.73572754 -91.86035156 365.4465332 C-91.82393555 363.85542725 -91.78751953 362.26432129 -91.75 360.625 C-91.6675 355.571875 -91.585 350.51875 -91.5 345.3125 C-101.73 345.3125 -111.96 345.3125 -122.5 345.3125 C-122.34183051 355.37994807 -122.34183051 355.37994807 -122.13964844 365.4465332 C-122.1296582 366.69781006 -122.11966797 367.94908691 -122.109375 369.23828125 C-122.08842773 370.52130127 -122.06748047 371.80432129 -122.04589844 373.1262207 C-122.5 376.3125 -122.5 376.3125 -124.36035156 378.26635742 C-127.17610713 379.64307041 -128.57381242 379.31356417 -131.5 378.3125 C-133.5 376.3125 -133.5 376.3125 -133.72705078 372.41357422 C-133.72673341 370.73141207 -133.71539396 369.04922981 -133.6953125 367.3671875 C-133.6924826 366.4821756 -133.68965271 365.5971637 -133.68673706 364.68533325 C-133.6755224 361.85258588 -133.6504157 359.02015216 -133.625 356.1875 C-133.61497185 354.26953581 -133.60584572 352.35156667 -133.59765625 350.43359375 C-133.57727854 345.7263438 -133.53813273 341.0197739 -133.5 336.3125 C-144.06 336.3125 -154.62 336.3125 -165.5 336.3125 C-166.16 337.6325 -166.82 338.9525 -167.5 340.3125 C-169.25350231 342.06600231 -171.6138373 341.52706194 -174 341.5625 C-200.46678977 341.27356125 -224.88441986 330.92808014 -243.5 312.3125 C-244.43457031 311.46042969 -245.36914062 310.60835938 -246.33203125 309.73046875 C-257.09990759 299.68547082 -264.65379308 287.20124628 -269.5 273.3125 C-269.86738281 272.26578125 -270.23476563 271.2190625 -270.61328125 270.140625 C-279.44202867 243.30123285 -276.87826751 214.38007865 -264.49609375 189.109375 C-259.71837683 179.88159958 -253.8189343 172.6209936 -246.5 165.3125 C-245.70980469 164.45140625 -244.91960937 163.5903125 -244.10546875 162.703125 C-228.27883737 145.80038767 -204.58588334 135.07258049 -181.5 133.3125 C-177.8318134 133.20510822 -174.16932009 133.21710265 -170.5 133.25 C-169.53449219 133.25451172 -168.56898438 133.25902344 -167.57421875 133.26367188 C-165.21607911 133.27534583 -162.85807398 133.29171979 -160.5 133.3125 C-160.32597656 131.58580078 -160.32597656 131.58580078 -160.1484375 129.82421875 C-156.20331381 98.72053596 -133.32957008 68.5155844 -109.5 49.3125 C-107.08684614 47.53206331 -104.62727625 45.83995894 -102.125 44.1875 C-101.54186035 43.7965918 -100.9587207 43.40568359 -100.35791016 43.00292969 C-96.951291 40.84445494 -94.54200562 39.75547449 -90.5 40.3125 C-89.84 40.6425 -89.18 40.9725 -88.5 41.3125 C-85.99286476 40.18703418 -83.56917856 39.00013904 -81.125 37.75 C-68.84068821 31.70622496 -55.84810467 28.1689944 -42.5 25.3125 C-42.5825 24.1575 -42.665 23.0025 -42.75 21.8125 C-42.71521084 16.89853169 -41.46310695 13.24349861 -38.5 9.3125 C-36.07634418 7.07575851 -33.46936775 5.72328558 -30.5 4.3125 C-29.36691406 3.77238281 -28.23382813 3.23226562 -27.06640625 2.67578125 C-18.24420348 -1.29719202 -9.2764994 -4.47259792 0 0 Z M-43.5 336.3125 C-43.5 336.6425 -43.5 336.9725 -43.5 337.3125 C-36.9 337.3125 -30.3 337.3125 -23.5 337.3125 C-23.5 336.9825 -23.5 336.6525 -23.5 336.3125 C-30.1 336.3125 -36.7 336.3125 -43.5 336.3125 Z " fill="#67E0FC" transform="translate(305.5,67.6875)"/>
<path d="M0 0 C168.96 0 337.92 0 512 0 C512 18.48 512 36.96 512 56 C343.04 56 174.08 56 0 56 C0 37.52 0 19.04 0 0 Z " fill="#010101" transform="translate(0,456)"/>
<path d="M0 0 C2.0858252 2.14150431 3.72383528 4.33499084 5.359375 6.8359375 C7.12737988 9.16802012 8.27069651 10.02147065 11 11 C14.77125259 11.20203139 18.43048024 11.37289222 22 10 C22.33 9.34 22.66 8.68 23 8 C23.66 8 24.32 8 25 8 C25.4640625 6.824375 25.4640625 6.824375 25.9375 5.625 C27 3 27 3 28 1 C35.7170797 -1.18407916 40.98966498 1.72206404 48 5 C48.90363281 5.34417969 49.80726563 5.68835938 50.73828125 6.04296875 C53 7 53 7 55 9 C55.01449587 11.20917003 54.93766111 13.4193307 54.8125 15.625 C54.70041926 22.03997417 55.5177741 26.28687155 60 31 C63.55597725 32.77798862 68.12730784 31.86255263 72.05859375 31.609375 C75.82045855 31.49852815 77.56013193 31.59346625 80.37109375 34.19140625 C81.90012703 36.82779697 83.12926462 39.33242414 84.1875 42.1875 C85.47571541 45.64545415 85.47571541 45.64545415 87 49 C87.76709879 54.11399195 87.76709879 54.11399195 87 57 C84.61833673 59.48474209 81.89705444 61.17334318 79 63 C76.34500624 65.65499376 76.67102447 67.04963297 76.625 70.75 C76.72563557 76.00820862 77.2637319 79.06708621 81 83 C82.0725 83.639375 83.145 84.27875 84.25 84.9375 C85.1575 85.618125 86.065 86.29875 87 87 C87.375 90.75 87.375 90.75 87 94 C86.34 94 85.68 94 85 94 C84.87044922 94.8353125 84.87044922 94.8353125 84.73828125 95.6875 C82.51687148 107.75240442 82.51687148 107.75240442 78 111 C74.12882403 111.39850341 70.56446158 111.2501821 66.69140625 110.890625 C62.23889615 111.02255123 60.40786538 112.21724602 57 115 C53.70309051 119.09271523 53.43127376 122.91096969 53 128 C53.66 128 54.32 128 55 128 C55.25 130.8125 55.25 130.8125 55 134 C53.1875 135.875 53.1875 135.875 51 137 C50.01 137 49.02 137 48 137 C48 137.66 48 138.32 48 139 C44.37 139.99 40.74 140.98 37 142 C37 142.66 37 143.32 37 144 C33.875 144.5 33.875 144.5 30 144 C28.17183727 142.11591699 26.84192203 140.17231267 25.45703125 137.9453125 C23.83280783 135.77677828 22.48232833 135.00994086 20 134 C20 133.34 20 132.68 20 132 C18.4156683 132.08768248 16.83246433 132.19587329 15.25 132.3125 C14.36828125 132.37050781 13.4865625 132.42851562 12.578125 132.48828125 C9.66294426 133.06690046 8.27830122 134.15259488 6 136 C5.34 136 4.68 136 4 136 C3.71125 136.763125 3.4225 137.52625 3.125 138.3125 C2 141 2 141 0 144 C-5.85384757 144.97564126 -9.51953673 143.00292226 -14.62890625 140.234375 C-17.11933584 138.85339824 -17.11933584 138.85339824 -20.5 137.875 C-23 137 -23 137 -25 134 C-25.16015625 131.29296875 -25.16015625 131.29296875 -25.0625 128.1875 C-25.05347656 127.11757812 -25.04445313 126.04765625 -25.03515625 124.9453125 C-25.02355469 123.97335938 -25.01195312 123.00140625 -25 122 C-25 118.63865628 -25.06913127 117.00598205 -27.35546875 114.53515625 C-31.92684063 111.01646702 -35.55963933 110.81922076 -41.25 111.0625 C-47.68781981 111.26862016 -47.68781981 111.26862016 -50.6875 108.6875 C-52.40885905 103.85130076 -53.8263727 98.99680714 -55 94 C-55.66 94 -56.32 94 -57 94 C-57.79235447 88.981755 -57.79235447 88.981755 -57 86 C-54.84849299 83.83141754 -52.61472556 82.22190839 -50.06640625 80.54296875 C-47.71361394 79.09242885 -47.71361394 79.09242885 -47 76 C-46.05952679 69.35813993 -46.05952679 69.35813993 -48.19921875 63.30859375 C-49.97014299 61.83832262 -49.97014299 61.83832262 -53 60 C-56.01014104 57.62357287 -56.87630235 56.68720918 -57.5625 52.875 C-56.91887704 48.44115294 -55.41975345 45.32972415 -53.2890625 41.4296875 C-51.94122835 39.0042562 -51.94122835 39.0042562 -50.9609375 36.3203125 C-50 34 -50 34 -48 32 C-46.12060547 31.77294922 -46.12060547 31.77294922 -43.8671875 31.8046875 C-43.06152344 31.81113281 -42.25585938 31.81757812 -41.42578125 31.82421875 C-40.16314453 31.84935547 -40.16314453 31.84935547 -38.875 31.875 C-37.60076172 31.88853516 -37.60076172 31.88853516 -36.30078125 31.90234375 C-34.20040116 31.92594353 -32.10016556 31.96181517 -30 32 C-30 31.34 -30 30.68 -30 30 C-28.68799596 28.64567325 -27.35368596 27.31266518 -26 26 C-24.29135145 22.58270289 -25.13067904 18.35515388 -25.390625 14.5859375 C-25.50461044 10.96689986 -25.35643931 9.38166823 -22.84765625 6.6953125 C-16.0432403 2.6443982 -8.0160579 -1.90211543 0 0 Z " fill="#F4F4F4" transform="translate(299,77)"/>
<path d="M0 0 C2.48535775 2.29895592 4.58740047 4.51716222 6.5 7.3125 C6.5 7.9725 6.5 8.6325 6.5 9.3125 C8.37880872 9.26481597 8.37880872 9.26481597 10.5 8.3125 C11.11875 7.384375 11.7375 6.45625 12.375 5.5 C15.25399272 1.18151092 17.68296345 -1.0081809 22.81640625 -2.24609375 C30.3632747 -2.94388386 36.60421223 -0.42610164 43.4375 2.4375 C44.80563843 3.00440552 44.80563843 3.00440552 46.20141602 3.58276367 C51.71382439 6.03776705 55.12133831 8.27522258 58.5 13.3125 C59.68681726 16.87295177 59.59689832 19.75058337 59.5625 23.5 C59.55347656 24.77230469 59.54445313 26.04460937 59.53515625 27.35546875 C59.51775391 28.81919922 59.51775391 28.81919922 59.5 30.3125 C60.91152344 30.26029297 60.91152344 30.26029297 62.3515625 30.20703125 C64.21941406 30.16642578 64.21941406 30.16642578 66.125 30.125 C67.35476563 30.09019531 68.58453125 30.05539063 69.8515625 30.01953125 C74.92124753 30.42662587 78.0194932 31.82650985 81.609375 35.4296875 C87.20800193 43.96643683 92.97107529 55.69177994 92.01953125 66.078125 C91.11303261 69.97675075 90.06488674 72.15571632 87.5 75.3125 C85.18351201 76.35092565 82.85096976 77.3546975 80.5 78.3125 C78.99547543 80.85618999 78.99547543 80.85618999 78.5 83.3125 C79.304375 83.68375 79.304375 83.68375 80.125 84.0625 C85.68247408 86.98748636 89.34240668 89.19931892 91.5 95.3125 C92.08473064 101.97842935 90.040304 106.38031836 87.0625 112.1875 C85.54923175 115.14385595 84.27231988 117.93344578 83.125 121.0625 C80.7969879 125.71852419 77.16366358 128.98066821 72.5 131.3125 C70.12597499 131.38366382 67.74999323 131.39659085 65.375 131.375 C64.09367188 131.36597656 62.81234375 131.35695312 61.4921875 131.34765625 C60.01105469 131.33025391 60.01105469 131.33025391 58.5 131.3125 C58.62181641 132.7975 58.62181641 132.7975 58.74609375 134.3125 C58.81181685 135.64574002 58.87550994 136.97908119 58.9375 138.3125 C59.01871094 139.611875 59.09992188 140.91125 59.18359375 142.25 C58.86164031 146.7584414 56.72333275 149.34797962 53.64624023 152.52734375 C50.04229519 155.5249602 46.18087726 157.19693533 41.8125 158.8125 C40.93198975 159.14854248 40.05147949 159.48458496 39.14428711 159.83081055 C32.68601708 162.1669319 26.35106939 164.09260692 19.5 162.3125 C16.5 160.125 16.5 160.125 14.5 157.3125 C13.736875 156.384375 12.97375 155.45625 12.1875 154.5 C11.630625 153.778125 11.07375 153.05625 10.5 152.3125 C8.16461093 152.27377313 8.16461093 152.27377313 5.5 153.3125 C4.17494786 154.84176004 4.17494786 154.84176004 3 156.6875 C0.80349743 159.96877839 -0.6739256 161.89851598 -4.5 163.3125 C-11.73275354 164.35579832 -16.8443119 163.17780659 -23.1484375 159.60546875 C-25.35396338 158.39279588 -27.4254617 157.58582889 -29.8125 156.8125 C-33.7524846 155.2097944 -35.81807557 153.5810954 -38.5 150.3125 C-38.5 149.6525 -38.5 148.9925 -38.5 148.3125 C-39.16 148.3125 -39.82 148.3125 -40.5 148.3125 C-41.68681726 144.75204823 -41.59689832 141.87441663 -41.5625 138.125 C-41.55347656 136.85269531 -41.54445313 135.58039063 -41.53515625 134.26953125 C-41.52355469 133.29371094 -41.51195312 132.31789062 -41.5 131.3125 C-42.51320313 131.35890625 -43.52640625 131.4053125 -44.5703125 131.453125 C-45.92184532 131.49066758 -47.27341028 131.52706506 -48.625 131.5625 C-49.29015625 131.59601563 -49.9553125 131.62953125 -50.640625 131.6640625 C-55.7947084 131.76512296 -58.5975216 130.62762999 -62.5 127.3125 C-68.16380523 119.61948564 -72.75951535 108.95869549 -74 99.5 C-72.50270027 89.95471422 -72.50270027 89.95471422 -68.7421875 86.87109375 C-67.48990123 86.06243116 -66.23359015 85.25995494 -64.97265625 84.46484375 C-63.22727766 83.33176378 -63.22727766 83.33176378 -62.75 80.6875 C-63.27208674 78.12062967 -63.27208674 78.12062967 -65.6875 77 C-69.70661178 74.58853293 -71.67056359 71.5936811 -73.5 67.3125 C-75.01098946 60.18740314 -72.28772258 53.78074521 -69.5 47.3125 C-69.12617188 46.41789062 -68.75234375 45.52328125 -68.3671875 44.6015625 C-65.89196939 39.14296892 -63.30485584 33.64927903 -57.5 31.3125 C-52.18382341 30.63313406 -46.83053169 30.96694332 -41.5 31.3125 C-41.457279 29.64638095 -41.45936168 27.97867115 -41.5 26.3125 C-41.83 25.9825 -42.16 25.6525 -42.5 25.3125 C-43.0486583 19.05779537 -42.34288548 14.41065467 -38.5 9.3125 C-36.07634418 7.07575851 -33.46936775 5.72328558 -30.5 4.3125 C-29.36691406 3.77238281 -28.23382813 3.23226562 -27.06640625 2.67578125 C-18.24420348 -1.29719202 -9.2764994 -4.47259792 0 0 Z M-31.5 18.3125 C-31.71024021 22.12310381 -31.49288363 25.8378334 -31.3125 29.6484375 C-31.51146846 33.53661275 -32.1337619 35.27506937 -34.5 38.3125 C-35.16 38.6425 -35.82 38.9725 -36.5 39.3125 C-36.5 39.9725 -36.5 40.6325 -36.5 41.3125 C-37.76457031 41.27769531 -39.02914062 41.24289063 -40.33203125 41.20703125 C-41.99217423 41.17889323 -43.65233156 41.15159309 -45.3125 41.125 C-46.56256836 41.08729492 -46.56256836 41.08729492 -47.83789062 41.04882812 C-48.64033203 41.03916016 -49.44277344 41.02949219 -50.26953125 41.01953125 C-51.37711792 40.99596558 -51.37711792 40.99596558 -52.50708008 40.97192383 C-55.07319589 41.4104552 -55.90158728 42.2978776 -57.5 44.3125 C-58.64866231 46.93076595 -58.64866231 46.93076595 -59.5625 49.8125 C-60.65435124 53.07489889 -61.57652599 55.42728898 -63.5 58.3125 C-64.07285691 63.22056051 -64.07285691 63.22056051 -61.875 67.4375 C-59.42228399 69.43979551 -59.42228399 69.43979551 -56.25 71.375 C-54.03559945 73.17455083 -53.54909899 74.05207897 -53.01171875 76.90234375 C-52.88100745 82.02760244 -52.91302994 86.3784038 -56.5 90.3125 C-57.72326218 91.09266944 -58.95296807 91.86278899 -60.1875 92.625 C-62.92057595 94.41032146 -62.92057595 94.41032146 -63.953125 97.40625 C-63.9767108 99.87665318 -63.9767108 99.87665318 -63.5 103.3125 C-62.84 103.3125 -62.18 103.3125 -61.5 103.3125 C-61.24476563 104.39917969 -61.24476563 104.39917969 -60.984375 105.5078125 C-59.22302121 113.75525298 -59.22302121 113.75525298 -54.5 120.3125 C-50.9795126 120.51723125 -47.52725098 120.36710275 -44.00390625 120.2421875 C-39.83080439 120.32592867 -37.21033759 120.873295 -33.85546875 123.35546875 C-30.47418238 128.23738365 -31.21489578 135.28326766 -31.75 140.96875 C-31.68896587 143.45273719 -31.68896587 143.45273719 -29.84765625 145.4921875 C-27.25944679 147.4990188 -25.04537542 148.43114034 -21.9375 149.4375 C-18.67904554 150.50744027 -16.3791447 151.3930702 -13.5 153.3125 C-10.04250051 153.97926878 -10.04250051 153.97926878 -6.5 153.3125 C-3.39248365 149.77036152 -3.39248365 149.77036152 -2.5 145.3125 C1.41548175 143.35475913 4.22509853 142.14486295 8.625 141.75 C9.53507812 141.66621094 10.44515625 141.58242187 11.3828125 141.49609375 C12.08148438 141.43550781 12.78015625 141.37492188 13.5 141.3125 C13.5 141.9725 13.5 142.6325 13.5 143.3125 C14.5828125 143.9003125 14.5828125 143.9003125 15.6875 144.5 C18.49186693 146.30725869 19.21160926 147.25899732 20.875 150 C22.02502265 151.87371572 22.02502265 151.87371572 23.5 153.3125 C27.21158857 153.89810449 27.21158857 153.89810449 30.5 153.3125 C30.5 152.6525 30.5 151.9925 30.5 151.3125 C34.13 150.3225 37.76 149.3325 41.5 148.3125 C41.5 147.6525 41.5 146.9925 41.5 146.3125 C42.28375 146.18875 43.0675 146.065 43.875 145.9375 C46.64057822 145.52132007 46.64057822 145.52132007 48.5 143.3125 C48.66681109 140.22902174 48.66681109 140.22902174 48.5 137.3125 C47.84 137.3125 47.18 137.3125 46.5 137.3125 C48.1028651 126.4509799 48.1028651 126.4509799 52.5 122.3125 C56.6728969 119.45529295 61.30069535 120.2908125 66.09960938 120.65429688 C68.31682292 120.79241893 68.31682292 120.79241893 71.5 120.3125 C73.48122527 118.0937966 73.48122527 118.0937966 74.5 115.3125 C75.03625 114.1575 75.5725 113.0025 76.125 111.8125 C77.26143749 108.91975003 78.03684369 106.36933166 78.5 103.3125 C79.16 103.3125 79.82 103.3125 80.5 103.3125 C81.00125283 99.98107722 81.00125283 99.98107722 80.5 96.3125 C77.73761134 94.16500004 77.73761134 94.16500004 74.5 92.3125 C70.92093148 88.54505945 70.13167356 85.36921059 69.8125 80.3125 C69.91221275 76.96381358 69.99862118 75.00856314 71.96875 72.2734375 C73.74330257 70.74702152 75.49090177 69.50849424 77.5 68.3125 C78.49 67.6525 79.48 66.9925 80.5 66.3125 C81.18425553 60.64295415 80.33820944 57.20727804 77.58203125 52.26953125 C76.52753363 50.3622991 75.69018746 48.45665663 74.875 46.4375 C73.71250569 43.28337485 73.71250569 43.28337485 71.5 41.3125 C68.15446012 41.2939343 64.86468071 41.41583957 61.52929688 41.65429688 C57.54592865 41.79800766 55.79033468 41.53997467 52.61328125 39.05078125 C47.98719537 33.05653688 48.39968427 29.03447302 48.72265625 21.52734375 C48.75630396 18.42585192 48.75630396 18.42585192 47.41796875 16.54296875 C44.66332547 14.77573324 41.83723674 13.76737036 38.75 12.6875 C37.55890625 12.26210937 36.3678125 11.83671875 35.140625 11.3984375 C28.33851627 9.34603448 28.33851627 9.34603448 21.5 10.3125 C19.1699963 13.52967354 19.1699963 13.52967354 18.5 17.3125 C17.84 17.3125 17.18 17.3125 16.5 17.3125 C16.17 17.9725 15.84 18.6325 15.5 19.3125 C11.12831775 20.99391625 6.27307641 21.00443226 1.9375 19.3125 C-0.45486024 17.34953775 -1.6299624 15.68046705 -3.3125 13.125 C-5.60603955 9.99954687 -6.07415256 9.41896186 -10 8.4375 C-16.26620733 9.08237182 -28.1115182 12.79551339 -31.5 18.3125 Z " fill="#080A0B" transform="translate(305.5,67.6875)"/>
<path d="M0 0 C2 2 2 2 2.3984375 4.8828125 C2 8 2 8 0.1640625 10.0546875 C-0.67382812 10.65539062 -1.51171875 11.25609375 -2.375 11.875 C-3.29539063 12.56078125 -4.21578125 13.2465625 -5.1640625 13.953125 C-6.56785156 14.96632813 -6.56785156 14.96632813 -8 16 C-30.62305214 32.94886643 -46.27860443 54.13409182 -55 81 C-55.28488281 81.80953125 -55.56976563 82.6190625 -55.86328125 83.453125 C-57.71020607 88.71922859 -59.02368648 94.0539351 -60.25390625 99.49609375 C-61 102 -61 102 -63 104 C-65.92993164 104.28710938 -65.92993164 104.28710938 -69.66015625 104.34375 C-70.32405869 104.3583728 -70.98796112 104.37299561 -71.67198181 104.38806152 C-73.8020925 104.43460393 -75.93211394 104.4687168 -78.0625 104.5 C-90.66016697 104.64677584 -90.66016697 104.64677584 -103 107 C-104.45883899 107.36001356 -105.91848723 107.71676298 -107.37890625 108.0703125 C-108.7737471 108.42064462 -110.16828163 108.77219873 -111.5625 109.125 C-112.28501953 109.30675781 -113.00753906 109.48851562 -113.75195312 109.67578125 C-115.50157998 110.1160847 -117.25083157 110.5578789 -119 111 C-119 111.66 -119 112.32 -119 113 C-120.216875 113.474375 -121.43375 113.94875 -122.6875 114.4375 C-140.2578948 122.34142368 -153.58580878 136.45952858 -163 153 C-163.73088843 154.97743434 -164.42329449 156.97222901 -165 159 C-165.66 159 -166.32 159 -167 159 C-167.62653984 161.47878625 -168.25125672 163.95800986 -168.875 166.4375 C-169.04902344 167.12521484 -169.22304687 167.81292969 -169.40234375 168.52148438 C-169.76062409 169.94797093 -170.11337829 171.37585449 -170.46118164 172.80493164 C-170.81478921 174.24547792 -171.18331805 175.68245995 -171.56811523 177.11499023 C-177.22377342 199.50714162 -172.18977718 222.87797545 -161.01171875 242.5859375 C-157.11753892 249.07371672 -152.93046751 255.25512491 -148 261 C-147.443125 261.65226562 -146.88625 262.30453125 -146.3125 262.9765625 C-142.14217703 267.48842054 -137.444493 270.9548199 -132.375 274.375 C-131.74142578 274.80417725 -131.10785156 275.23335449 -130.45507812 275.67553711 C-126.74858742 278.10053867 -123.30790287 279.7937872 -119 281 C-119 281.66 -119 282.32 -119 283 C-114.31318625 284.18464249 -109.62362443 285.35704408 -104.93066406 286.51708984 C-103.43750748 286.89056781 -101.9483139 287.2799103 -100.4609375 287.67578125 C-94.45755051 289.19401232 -88.42111119 289.40722783 -82.2578125 289.65625 C-79 290 -79 290 -76 292 C-75.125 294.9375 -75.125 294.9375 -75 298 C-76.140625 299.66796875 -76.140625 299.66796875 -78 301 C-98.8933508 304.27864889 -124.08505259 294.72678747 -141 283 C-145.32066661 279.65799946 -149.14301649 275.85698351 -153 272 C-153.93457031 271.14792969 -154.86914062 270.29585938 -155.83203125 269.41796875 C-166.59990759 259.37297082 -174.15379308 246.88874628 -179 233 C-179.36738281 231.95328125 -179.73476562 230.9065625 -180.11328125 229.828125 C-188.94202867 202.98873285 -186.37826751 174.06757865 -173.99609375 148.796875 C-169.21837683 139.56909958 -163.3189343 132.3084936 -156 125 C-155.20980469 124.13890625 -154.41960937 123.2778125 -153.60546875 122.390625 C-137.77883737 105.48788767 -114.08588334 94.76008049 -91 93 C-87.3318134 92.89260822 -83.66932009 92.90460265 -80 92.9375 C-79.03449219 92.94201172 -78.06898438 92.94652344 -77.07421875 92.95117188 C-74.71607911 92.96284583 -72.35807398 92.97921979 -70 93 C-69.88398438 91.84886719 -69.76796875 90.69773437 -69.6484375 89.51171875 C-65.70331381 58.40803596 -42.82957008 28.2030844 -19 9 C-16.58684614 7.21956331 -14.12727625 5.52745894 -11.625 3.875 C-11.04186035 3.4840918 -10.4587207 3.09318359 -9.85791016 2.69042969 C-6.47804035 0.54890365 -4.01779327 -0.66726602 0 0 Z " fill="#010303" transform="translate(215,108)"/>
<path d="M0 0 C10.30295406 3.71183867 16.84303191 11.79625126 21.7734375 21.1875 C23.00135153 25.24299589 22.8363881 29.10274159 22.75 33.3125 C22.74097656 34.14845703 22.73195313 34.98441406 22.72265625 35.84570312 C22.69920989 37.89725969 22.66334266 39.94866777 22.625 42 C21.965 42 21.305 42 20.625 42 C20.439375 42.81791016 20.439375 42.81791016 20.25 43.65234375 C18.38170941 50.4832812 14.88983509 55.27170861 9.625 60 C8.965 60 8.305 60 7.625 60 C7.625 60.66 7.625 61.32 7.625 62 C-3.22313353 66.45051632 -14.65899321 68.16953206 -25.9921875 64.2421875 C-34.2397829 59.94262137 -40.64183056 52.60342233 -44.125 44.0625 C-46.79416259 35.20505542 -46.75925038 25.91058838 -42.8125 17.5 C-37.93157008 9.0039888 -32.08330355 4.29207629 -23.375 0 C-17.41684305 -2.97907847 -6.33279106 -1.57813962 0 0 Z " fill="#65DBF7" transform="translate(325.375,116)"/>
<path d="M0 0 C3.125 0.3125 3.125 0.3125 4.671875 1.93359375 C6.40985813 4.77884033 7.44029227 7.52260106 8.5 10.6875 C8.71640137 11.32236328 8.93280273 11.95722656 9.15576172 12.61132812 C10.48113212 16.68850244 11.42793165 20.72250762 12.171875 24.9453125 C13.61739505 35.22084485 13.61739505 35.22084485 18.53515625 43.9921875 C21.32781856 45.69685057 24.13058374 47.00143126 27.125 48.3125 C49.12048158 63.20385089 62.95727862 86.87398145 68.3984375 112.47265625 C73.59338399 139.92766918 68.51604871 167.92417003 53.38427734 191.49609375 C49.84112184 196.60681049 45.50835743 200.92914257 41.125 205.3125 C40.27292969 206.24707031 39.42085938 207.18164062 38.54296875 208.14453125 C28.49797082 218.91240759 16.01374628 226.46629308 2.125 231.3125 C1.07828125 231.67988281 0.0315625 232.04726563 -1.046875 232.42578125 C-12.31937142 236.13383928 -24.96101772 238.92766086 -36.875 237.3125 C-38.75390625 235.984375 -38.75390625 235.984375 -39.875 234.3125 C-39.65169287 230.66515021 -39.49127165 228.92877165 -36.875 226.3125 C-34.81884766 225.96533203 -34.81884766 225.96533203 -32.2890625 225.8203125 C-30.90195068 225.7262915 -30.90195068 225.7262915 -29.48681641 225.63037109 C-28.50116699 225.56672363 -27.51551758 225.50307617 -26.5 225.4375 C-3.97990038 223.6357476 19.60244904 212.44002768 34.74609375 195.35546875 C53.71602091 172.74947301 60.25254006 147.58319615 58.125 118.3125 C57.13211124 112.08809293 55.20721903 106.24366937 53.125 100.3125 C52.42683871 97.98678512 51.77370806 95.65269919 51.125 93.3125 C50.465 93.3125 49.805 93.3125 49.125 93.3125 C48.774375 92.36375 48.42375 91.415 48.0625 90.4375 C43.0324262 78.80984102 33.7015619 68.82964294 23.8125 61.125 C23.2659375 60.69823975 22.719375 60.27147949 22.15625 59.83178711 C18.45237738 57.04791915 14.7554543 55.24801737 10.5 53.375 C7.59970749 51.75950286 5.62357281 50.60408895 4.39990234 47.43408203 C3.46538172 43.46392545 3.07685623 39.46860057 2.6953125 35.4140625 C2.21728028 30.34537269 1.04949206 25.67123995 -0.4375 20.8125 C-0.64818115 20.10109863 -0.8588623 19.38969727 -1.07592773 18.65673828 C-2.04764147 15.49837955 -3.02803012 13.08295482 -4.875 10.3125 C-4.88671875 8.0859375 -4.88671875 8.0859375 -4.5625 5.6875 C-4.46324219 4.89085937 -4.36398437 4.09421875 -4.26171875 3.2734375 C-3.64763181 0.1595825 -3.26865405 0.35528848 0 0 Z " fill="#020405" transform="translate(411.875,171.6875)"/>
<path d="M0 0 C0.71607422 0.00064453 1.43214844 0.00128906 2.16992188 0.00195312 C14.87242534 0.10597727 14.87242534 0.10597727 20.1875 4.375 C20.92484375 4.94605469 21.6621875 5.51710938 22.421875 6.10546875 C27.39236492 11.23971512 27.94679257 16.39503034 28.125 23.1875 C28.15698486 24.09870605 28.18896973 25.00991211 28.22192383 25.94873047 C28.49728487 35.20115833 28.565996 44.46164441 28.61172485 53.71777344 C28.62056004 55.44467739 28.6320866 57.1715697 28.64633179 58.8984375 C28.66417077 61.35166568 28.6680956 63.80452709 28.66796875 66.2578125 C28.67509888 66.99863068 28.682229 67.73944885 28.6895752 68.50271606 C28.66023203 75.20616112 28.66023203 75.20616112 26.4375 78.1875 C23.19597579 79.24451876 21.37781852 79.64401766 18.26660156 78.13354492 C15.54638395 75.23941057 15.98301863 73.0244837 16.046875 69.11328125 C16.05686523 67.86200439 16.06685547 66.61072754 16.07714844 65.3215332 C16.13177246 62.93487427 16.13177246 62.93487427 16.1875 60.5 C16.27 55.446875 16.3525 50.39375 16.4375 45.1875 C6.2075 45.1875 -4.0225 45.1875 -14.5625 45.1875 C-14.40433051 55.25494807 -14.40433051 55.25494807 -14.20214844 65.3215332 C-14.18716309 67.19844849 -14.18716309 67.19844849 -14.171875 69.11328125 C-14.15092773 70.39630127 -14.12998047 71.67932129 -14.10839844 73.0012207 C-14.5625 76.1875 -14.5625 76.1875 -16.42285156 78.14135742 C-19.23860713 79.51807041 -20.63631242 79.18856417 -23.5625 78.1875 C-26.15973047 75.59026953 -25.80034064 73.80957932 -25.81455994 70.27194214 C-25.80743484 69.45516998 -25.80030975 68.63839783 -25.79296875 67.796875 C-25.79305435 66.94827911 -25.79313995 66.09968323 -25.79322815 65.22537231 C-25.78993931 62.46258598 -25.77109617 59.70020401 -25.75 56.9375 C-25.74047913 55.05354858 -25.73103902 53.16959676 -25.72167969 51.28564453 C-25.68902092 45.91930321 -25.62930639 40.55350894 -25.5625 35.1875 C-25.54848145 33.87426758 -25.53446289 32.56103516 -25.52001953 31.20800781 C-25.47737744 28.15799917 -25.40582558 25.11131794 -25.3125 22.0625 C-25.29856201 21.23202148 -25.28462402 20.40154297 -25.27026367 19.54589844 C-24.99216042 13.03427988 -22.75033503 9.07856772 -18.8125 3.875 C-13.44080883 -0.15376838 -6.45764107 -0.11103636 0 0 Z " fill="#010304" transform="translate(197.5625,367.8125)"/>
<path d="M0 0 C1.04844589 0.00607269 1.04844589 0.00607269 2.11807251 0.01226807 C2.8382254 0.01035461 3.5583783 0.00844116 4.300354 0.00646973 C5.82520903 0.00510786 7.35007565 0.00880443 8.87490845 0.01715088 C11.20362613 0.02781972 13.53156689 0.01727225 15.86026001 0.00445557 C17.34203254 0.00577777 18.82380459 0.00834143 20.30557251 0.01226807 C21.34794571 0.00619537 21.34794571 0.00619537 22.41137695 0 C27.814352 0.0520885 30.38359708 1.06036146 34.46963501 4.46539307 C40.02000009 11.03819381 39.36300503 19.05512151 38.84463501 27.27789307 C38.22693115 30.88597637 37.16328492 34.29743181 36.03213501 37.77789307 C35.62936276 40.49503784 35.62936276 40.49503784 37.31338501 43.56695557 C39.65458975 49.59013102 39.24186117 55.78148569 39.15713501 62.15289307 C39.16035767 63.38781494 39.16358032 64.62273682 39.16690063 65.89508057 C39.11192765 75.01060042 39.11192765 75.01060042 36.84463501 77.27789307 C34.34463501 77.52789307 34.34463501 77.52789307 31.84463501 77.27789307 C29.09023985 74.52349791 29.53474225 72.81186104 29.43057251 68.95758057 C29.3725647 67.07232666 29.3725647 67.07232666 29.31338501 65.14898682 C29.28244751 63.83027588 29.25151001 62.51156494 29.21963501 61.15289307 C29.18145472 59.81302389 29.14240295 58.47317924 29.10244751 57.13336182 C29.00791471 53.84834688 28.92236345 50.56334169 28.84463501 47.27789307 C25.6928947 45.44473799 23.2689893 44.99037054 19.64151001 44.86383057 C18.66182251 44.82515869 17.68213501 44.78648682 16.67276001 44.74664307 C15.65697876 44.71570557 14.64119751 44.68476807 13.59463501 44.65289307 C12.04776001 44.59488525 12.04776001 44.59488525 10.46963501 44.53570557 C7.92814561 44.44157633 5.38666068 44.35594328 2.84463501 44.27789307 C2.86820068 45.66295044 2.86820068 45.66295044 2.89224243 47.07598877 C2.94338333 50.50329195 2.98099036 53.93018948 3.00942993 57.35772705 C3.02451269 58.84086506 3.0449819 60.3239585 3.07095337 61.8069458 C3.10736117 63.93930051 3.12436574 66.07106542 3.13760376 68.20367432 C3.16116943 70.12820435 3.16116943 70.12820435 3.18521118 72.09161377 C2.84463501 75.27789307 2.84463501 75.27789307 1.48648071 77.23175049 C-0.15536499 78.27789307 -0.15536499 78.27789307 -2.71786499 78.09039307 C-5.15536499 77.27789307 -5.15536499 77.27789307 -7.15536499 75.27789307 C-7.40933228 72.27947998 -7.40933228 72.27947998 -7.41415405 68.38140869 C-7.41765869 67.67231857 -7.42116333 66.96322845 -7.42477417 66.23265076 C-7.4335942 63.88304932 -7.42774152 61.5337477 -7.42098999 59.18414307 C-7.42233657 57.55511416 -7.42427703 55.92608564 -7.42678833 54.29705811 C-7.42973996 50.8806374 -7.42544076 47.46432117 -7.41610718 44.0479126 C-7.40471257 39.66271906 -7.41127185 35.27777031 -7.42325211 30.89258575 C-7.4304697 27.52805732 -7.42818325 24.16358717 -7.42299652 20.79905701 C-7.42165974 19.18187939 -7.42330873 17.56469652 -7.42795563 15.94752502 C-7.43301927 13.68966597 -7.42531325 11.43220663 -7.41415405 9.17437744 C-7.41256287 7.88801392 -7.41097168 6.60165039 -7.40933228 5.27630615 C-6.96886232 0.07598729 -4.70158701 0.04576786 0 0 Z " fill="#040A0C" transform="translate(138.15536499023438,261.72210693359375)"/>
<path d="M0 0 C1.71993164 -0.0309375 1.71993164 -0.0309375 3.47460938 -0.0625 C11.58099255 -0.09962139 18.25318953 0.69086949 25.1875 5.0625 C29.75692659 9.76632149 30.67862216 14.21200493 30.67382812 20.54492188 C30.65771484 21.41697266 30.64160156 22.28902344 30.625 23.1875 C30.62822266 24.05568359 30.63144531 24.92386719 30.63476562 25.81835938 C30.57916795 32.50524281 29.92307489 37.78676781 26.1875 43.5 C20.43541989 49.00198967 14.42720686 49.59005332 6.7890625 49.51367188 C5.80679687 49.48853516 4.82453125 49.46339844 3.8125 49.4375 C2.79929687 49.42396484 1.78609375 49.41042969 0.7421875 49.39648438 C-1.73494404 49.36143063 -4.21092927 49.31229764 -6.6875 49.25 C-6.66131592 49.98114014 -6.63513184 50.71228027 -6.6081543 51.46557617 C-6.50399856 54.78933082 -6.43911379 58.11274194 -6.375 61.4375 C-6.33310547 62.58798828 -6.29121094 63.73847656 -6.24804688 64.92382812 C-6.1098782 74.45746655 -6.1098782 74.45746655 -9.0390625 77.5546875 C-11.6875 79.25 -11.6875 79.25 -14.375 79.1875 C-16.6875 78.25 -16.6875 78.25 -18.6875 76.25 C-18.87681568 73.53565074 -18.94265887 70.92547477 -18.91796875 68.2109375 C-18.9179184 67.38945724 -18.91786804 66.56797699 -18.91781616 65.72160339 C-18.91418155 63.02258663 -18.89521689 60.32393984 -18.875 57.625 C-18.86746797 55.77075311 -18.86022702 53.91650501 -18.85327148 52.06225586 C-18.79374874 40.30909794 -18.60067485 28.56053797 -18.25 16.8125 C-18.23053314 16.1281488 -18.21106628 15.44379761 -18.19100952 14.7387085 C-18.13456911 12.82692356 -18.06947828 10.91539977 -18.00390625 9.00390625 C-17.96724854 7.93470947 -17.93059082 6.8655127 -17.89282227 5.76391602 C-17.6875 3.25 -17.6875 3.25 -16.6875 1.25 C-11.46136952 -0.62969816 -5.46901963 0.02418582 0 0 Z M-6.6875 36.25 C-6.6875 36.58 -6.6875 36.91 -6.6875 37.25 C-0.0875 37.25 6.5125 37.25 13.3125 37.25 C13.3125 36.92 13.3125 36.59 13.3125 36.25 C6.7125 36.25 0.1125 36.25 -6.6875 36.25 Z " fill="#020506" transform="translate(268.6875,367.75)"/>
<path d="M0 0 C10.30295406 3.71183867 16.84303191 11.79625126 21.7734375 21.1875 C23.00135153 25.24299589 22.8363881 29.10274159 22.75 33.3125 C22.74097656 34.14845703 22.73195313 34.98441406 22.72265625 35.84570312 C22.69920989 37.89725969 22.66334266 39.94866777 22.625 42 C21.965 42 21.305 42 20.625 42 C20.439375 42.81791016 20.439375 42.81791016 20.25 43.65234375 C18.38170941 50.4832812 14.88983509 55.27170861 9.625 60 C8.965 60 8.305 60 7.625 60 C7.625 60.66 7.625 61.32 7.625 62 C-3.22313353 66.45051632 -14.65899321 68.16953206 -25.9921875 64.2421875 C-34.2397829 59.94262137 -40.64183056 52.60342233 -44.125 44.0625 C-46.79416259 35.20505542 -46.75925038 25.91058838 -42.8125 17.5 C-37.93157008 9.0039888 -32.08330355 4.29207629 -23.375 0 C-17.41684305 -2.97907847 -6.33279106 -1.57813962 0 0 Z M-32 18.9375 C-36.20551478 25.24577217 -35.95590712 31.64789427 -35.375 39 C-33.74945395 46.23875977 -28.15935497 50.80634265 -22.375 55 C-18.47205421 56.90765744 -15.3850953 57.22000209 -11.0625 57.125 C-9.99386719 57.10695312 -8.92523438 57.08890625 -7.82421875 57.0703125 C-6.61185547 57.03550781 -6.61185547 57.03550781 -5.375 57 C-5.375 56.34 -5.375 55.68 -5.375 55 C-4.67375 54.9175 -3.9725 54.835 -3.25 54.75 C2.4810009 53.25495629 6.36176437 49.83859077 9.625 45 C13.30284771 38.69511821 13.70954538 32.18402861 12.625 25 C10.37399284 19.90063102 7.29942269 16.05927664 2.625 13 C1.965 13 1.305 13 0.625 13 C0.13 11.515 0.13 11.515 -0.375 10 C-12.85107247 5.06155465 -23.51362868 8.81913419 -32 18.9375 Z " fill="#090B0B" transform="translate(325.375,116)"/>
<path d="M0 0 C0.90298828 -0.020625 1.80597656 -0.04125 2.73632812 -0.0625 C7.71004794 -0.09173568 11.19290448 -0.04988325 15.1875 3.25 C16.953125 5.00390625 16.953125 5.00390625 18.4375 6.8125 C18.93765625 7.41191406 19.4378125 8.01132812 19.953125 8.62890625 C22.69641881 12.23164971 22.67901855 15.87101652 22.1875 20.25 C21 22.3125 21 22.3125 19.1875 23.25 C16.75 23.5 16.75 23.5 14.1875 22.25 C12.95832214 20.0131569 12.04979585 17.77747928 11.1796875 15.37890625 C10.25936559 12.92246714 10.25936559 12.92246714 7.1875 11.25 C4.63829762 11.0289543 2.23433588 10.92537221 -0.3125 10.9375 C-0.98925781 10.92138672 -1.66601562 10.90527344 -2.36328125 10.88867188 C-5.26601179 10.88580922 -7.29756736 10.89018027 -9.71875 12.58203125 C-11.83109096 15.80335121 -12.05380509 18.87125829 -12.1875 22.625 C-12.23648437 23.56085938 -12.28546875 24.49671875 -12.3359375 25.4609375 C-11.58289282 29.47342928 -10.07421432 30.85319937 -6.8125 33.25 C-4.06212709 33.62159294 -1.79281569 33.75521234 0.9375 33.6875 C8.04032355 33.8207385 13.14510266 35.0212532 18.1875 40.25 C22.12747952 45.06475294 22.87266893 48.56505593 22.75 54.5625 C22.73356445 55.69026855 22.73356445 55.69026855 22.71679688 56.84082031 C22.43565607 64.05989141 20.56656816 68.58353687 15.671875 73.89453125 C9.65376412 78.81474353 1.42820105 77.98962152 -5.91162109 77.45507812 C-10.78857474 76.92892335 -14.26864806 75.42820279 -18.1875 72.4375 C-21.97438469 67.3397706 -21.95824957 63.04446788 -21.1015625 57.0078125 C-21.00617188 56.42773438 -20.91078125 55.84765625 -20.8125 55.25 C-17.4375 55.125 -17.4375 55.125 -13.8125 55.25 C-11.8125 57.25 -11.8125 57.25 -11 60.75 C-10.21964525 64.3499513 -10.21964525 64.3499513 -7.6171875 65.4453125 C-4.55749263 66.32316367 -1.93116653 66.58478298 1.25 66.625 C2.27222656 66.65335937 3.29445313 66.68171875 4.34765625 66.7109375 C7.26097436 66.44667858 7.26097436 66.44667858 9.52734375 64.6328125 C11.69455633 61.52222504 11.72206079 59.51712657 11.6875 55.75 C11.6978125 54.6259375 11.708125 53.501875 11.71875 52.34375 C11.392186 49.22417009 11.392186 49.22417009 9.6484375 46.875 C5.75303561 44.30279812 1.70649585 44.73667535 -2.79296875 44.76171875 C-8.81857071 44.6368946 -12.22754219 42.76281945 -16.4921875 38.6171875 C-19.8125 34.47222222 -19.8125 34.47222222 -19.8125 32.25 C-20.4725 32.25 -21.1325 32.25 -21.8125 32.25 C-22.39179017 13.36943158 -22.39179017 13.36943158 -18.8125 7.25 C-12.71791649 0.87325984 -8.58521134 0.04840147 0 0 Z " fill="#050C0D" transform="translate(286.8125,261.75)"/>
<path d="M0 0 C1.28753174 0.00607269 1.28753174 0.00607269 2.60107422 0.01226807 C3.92147705 0.00939789 3.92147705 0.00939789 5.26855469 0.00646973 C7.13135056 0.00510755 8.99415591 0.00880625 10.85693359 0.01715088 C13.71457158 0.02785 16.57158088 0.01725675 19.42919922 0.00445557 C21.23649228 0.00577716 23.04378495 0.00833954 24.85107422 0.01226807 C25.70942871 0.0082196 26.5677832 0.00417114 27.45214844 0 C33.49615677 0.04797562 33.49615677 0.04797562 35.72607422 2.27789307 C36.10894225 6.01085633 35.87523207 7.05415629 33.72607422 10.27789307 C31.24266519 10.54516321 29.01135354 10.62655641 26.53076172 10.57086182 C25.82331818 10.56661697 25.11587463 10.56237213 24.38699341 10.55799866 C22.12463517 10.54118854 19.86316374 10.50353434 17.60107422 10.46539307 C16.06853499 10.45034914 14.53598181 10.43666022 13.00341797 10.42437744 C9.24368587 10.39382707 5.48587399 10.33511663 1.72607422 10.27789307 C1.72607422 17.86789307 1.72607422 25.45789307 1.72607422 33.27789307 C8.17335628 33.15940975 8.17335628 33.15940975 14.61987305 33.00762939 C15.42448975 33.00013672 16.22910645 32.99264404 17.05810547 32.98492432 C17.88028564 32.96921387 18.70246582 32.95350342 19.54956055 32.93731689 C22.24456545 33.35902546 23.10931921 34.11589715 24.72607422 36.27789307 C25.03857422 38.84039307 25.03857422 38.84039307 24.72607422 41.27789307 C22.24549794 43.75846935 21.36414958 43.56808311 17.93701172 43.69195557 C17.08929199 43.72756592 16.24157227 43.76317627 15.36816406 43.79986572 C14.29002441 43.83386475 13.21188477 43.86786377 12.10107422 43.90289307 C6.96544922 44.08851807 6.96544922 44.08851807 1.72607422 44.27789307 C1.39607422 52.19789307 1.06607422 60.11789307 0.72607422 68.27789307 C3.00126953 68.25468994 5.27646484 68.23148682 7.62060547 68.20758057 C9.82478274 68.19198195 12.02895385 68.17983842 14.2331543 68.16802979 C15.76475783 68.15797372 17.29634217 68.14432706 18.82788086 68.12701416 C21.02967058 68.10274808 23.23120641 68.09140619 25.43310547 68.08258057 C26.11758255 68.072258 26.80205963 68.06193542 27.50727844 68.05130005 C31.15669083 68.05043925 32.59755924 68.19221641 35.72607422 70.27789307 C36.03857422 72.77789307 36.03857422 72.77789307 35.72607422 75.27789307 C33.06537217 77.93859511 31.07127743 77.52705852 27.45214844 77.55578613 C26.1646167 77.54971344 26.1646167 77.54971344 24.85107422 77.54351807 C23.97080566 77.54543152 23.09053711 77.54734497 22.18359375 77.54931641 C20.32079788 77.55067858 18.45799252 77.54697988 16.59521484 77.53863525 C13.73757686 77.52793613 10.88056756 77.53852938 8.02294922 77.55133057 C6.21565616 77.55000898 4.40836349 77.5474466 2.60107422 77.54351807 C1.74271973 77.54756653 0.88436523 77.55161499 0 77.55578613 C-6.04400833 77.50781051 -6.04400833 77.50781051 -8.27392578 75.27789307 C-8.52789307 72.27947998 -8.52789307 72.27947998 -8.53271484 68.38140869 C-8.53621948 67.67231857 -8.53972412 66.96322845 -8.54333496 66.23265076 C-8.55215499 63.88304932 -8.54630231 61.5337477 -8.53955078 59.18414307 C-8.54089736 57.55511416 -8.54283783 55.92608564 -8.54534912 54.29705811 C-8.54830075 50.8806374 -8.54400155 47.46432117 -8.53466797 44.0479126 C-8.52327336 39.66271906 -8.52983264 35.27777031 -8.5418129 30.89258575 C-8.54903049 27.52805732 -8.54674404 24.16358717 -8.54155731 20.79905701 C-8.54022053 19.18187939 -8.54186952 17.56469652 -8.54651642 15.94752502 C-8.55158006 13.68966597 -8.54387404 11.43220663 -8.53271484 9.17437744 C-8.53112366 7.88801392 -8.52953247 6.60165039 -8.52789307 5.27630615 C-8.04298577 -0.44865323 -5.02693908 0.03990241 0 0 Z " fill="#030809" transform="translate(210.27392578125,261.72210693359375)"/>
<path d="M0 0 C168.96 0 337.92 0 512 0 C512 0.99 512 1.98 512 3 C343.04 3 174.08 3 0 3 C0 2.01 0 1.02 0 0 Z " fill="#FFFFFF" transform="translate(0,456)"/>
<path d="M0 0 C0.91096939 -0.00630432 1.82193878 -0.01260864 2.76051331 -0.019104 C3.73665085 -0.01505554 4.71278839 -0.01100708 5.71850586 -0.00683594 C7.23087074 -0.00970612 7.23087074 -0.00970612 8.77378845 -0.01263428 C10.90290578 -0.01399407 13.03203146 -0.010312 15.16113281 -0.00195312 C18.42458649 0.00876029 21.68749106 -0.00186125 24.95092773 -0.01464844 C27.01928833 -0.01332703 29.08764858 -0.01076501 31.15600586 -0.00683594 C32.62324852 -0.01290863 32.62324852 -0.01290863 34.12013245 -0.019104 C35.48185829 -0.00964752 35.48185829 -0.00964752 36.87109375 0 C37.66955215 0.00159119 38.46801056 0.00318237 39.29066467 0.00482178 C41.37084961 0.25878906 41.37084961 0.25878906 44.37084961 2.25878906 C44.74584961 4.69628906 44.74584961 4.69628906 44.37084961 7.25878906 C43.38084961 8.24878906 42.39084961 9.23878906 41.37084961 10.25878906 C35.43084961 10.25878906 29.49084961 10.25878906 23.37084961 10.25878906 C23.37084961 31.37878906 23.37084961 52.49878906 23.37084961 74.25878906 C22.71084961 74.25878906 22.05084961 74.25878906 21.37084961 74.25878906 C21.04084961 75.24878906 20.71084961 76.23878906 20.37084961 77.25878906 C18.03790186 77.30120629 15.70382394 77.29971844 13.37084961 77.25878906 C12.37084961 76.25878906 12.37084961 76.25878906 12.25059509 73.63291931 C12.2528157 72.46265701 12.25503632 71.29239471 12.25732422 70.08666992 C12.25717819 69.44278824 12.25703217 68.79890656 12.25688171 68.13551331 C12.25758076 65.99818604 12.2653727 63.86094494 12.27319336 61.72363281 C12.27505757 60.24532621 12.27648146 58.76701899 12.27748108 57.28871155 C12.28130602 53.39080104 12.29113609 49.49292757 12.30218506 45.59503174 C12.31239969 41.62032574 12.31697881 37.64561377 12.32202148 33.67089844 C12.33275839 25.86684506 12.34983452 18.06282224 12.37084961 10.25878906 C11.1062793 10.29359375 9.84170898 10.32839844 8.53881836 10.36425781 C6.87867538 10.39239583 5.21851805 10.41969598 3.55834961 10.44628906 C2.30828125 10.48399414 2.30828125 10.48399414 1.03295898 10.52246094 C-0.17070312 10.53696289 -0.17070312 10.53696289 -1.39868164 10.55175781 C-2.50626831 10.57532349 -2.50626831 10.57532349 -3.63623047 10.59936523 C-6.20264965 10.16078202 -7.07527538 9.31389446 -8.62915039 7.25878906 C-8.81665039 4.57128906 -8.81665039 4.57128906 -8.62915039 2.25878906 C-5.62192418 0.52930742 -3.45703729 0.00688241 0 0 Z " fill="#081113" transform="translate(336.629150390625,261.7412109375)"/>
<path d="M0 0 C1.670625 0.061875 1.670625 0.061875 3.375 0.125 C4.76606417 2.90712833 4.59352657 5.27414505 4.69140625 8.38671875 C4.7123233 9.03332458 4.73324036 9.67993042 4.75479126 10.34613037 C4.8218171 12.50145485 4.88047138 14.65688892 4.9375 16.8125 C4.95801422 17.55065948 4.97852844 18.28881897 4.99966431 19.04934692 C5.32599921 31.0146929 5.50373209 42.98141248 5.55123901 54.95108032 C5.55873834 56.69017166 5.56941274 58.42925224 5.58328247 60.16830444 C5.60104615 62.61100107 5.60530903 65.05334039 5.60546875 67.49609375 C5.61260895 68.22584412 5.61974915 68.95559448 5.62710571 69.7074585 C5.61041522 73.4076464 5.48503342 74.95994987 3.375 78.125 C0.51423862 79.10368153 -1.01202769 79.34635111 -3.875 78.3125 C-5.625 77.125 -5.625 77.125 -6.625 75.125 C-6.72478322 72.60519117 -6.76458103 70.1138026 -6.7578125 67.59375 C-6.75922241 66.82222092 -6.76063232 66.05069183 -6.76208496 65.25578308 C-6.76423744 62.71214361 -6.75788483 60.1686271 -6.75 57.625 C-6.7484491 56.76073395 -6.74689819 55.8964679 -6.74530029 55.00601196 C-6.72011303 43.0183972 -6.60674739 31.03240721 -6.30560303 19.04833984 C-6.26858876 17.55996828 -6.23460345 16.07151826 -6.20367432 14.58300781 C-6.15896919 12.51715407 -6.10120716 10.45211204 -6.0390625 8.38671875 C-6.0076416 7.22100342 -5.9762207 6.05528809 -5.94384766 4.85424805 C-5.43348234 0.48566159 -4.32332376 0.14908013 0 0 Z " fill="#020506" transform="translate(326.625,367.875)"/>
<path d="M0 0 C0.94681641 -0.03738281 1.89363281 -0.07476562 2.86914062 -0.11328125 C7.16271302 -0.16721307 10.81972878 -0.17707472 14.46484375 2.28515625 C17.76260203 6.62546707 17.49229028 9.90671625 17.1875 15.1875 C17.001875 19.7353125 17.001875 19.7353125 16.8125 24.375 C5.9225 24.375 -4.9675 24.375 -16.1875 24.375 C-16.3421875 20.0746875 -16.3421875 20.0746875 -16.5 15.6875 C-16.54552002 14.79329346 -16.59104004 13.89908691 -16.63793945 12.9777832 C-16.71467898 8.56303225 -16.62344331 6.91074591 -13.73046875 3.35546875 C-12.89128906 2.70191406 -12.05210937 2.04835938 -11.1875 1.375 C-8.82720756 -0.98529244 -3.16411347 0.04643796 0 0 Z " fill="#63D6F1" transform="translate(198.1875,377.625)"/>
<path d="M0 0 C5.5378125 -0.185625 5.5378125 -0.185625 11.1875 -0.375 C12.3427417 -0.42962402 13.4979834 -0.48424805 14.68823242 -0.54052734 C21.85950644 -0.65715382 21.85950644 -0.65715382 24.83422852 1.05688477 C28.06366554 4.415338 28.62308469 7.98896678 28.63476562 12.42382812 C28.61091797 13.17083984 28.58707031 13.91785156 28.5625 14.6875 C28.57345703 15.44611328 28.58441406 16.20472656 28.59570312 16.98632812 C28.52316296 22.46552828 28.52316296 22.46552828 26.31713867 24.71923828 C23.45621812 26.30056682 21.61662881 26.3449462 18.359375 26.29296875 C17.39483398 26.28547607 16.43029297 26.2779834 15.43652344 26.27026367 C14.2199707 26.24295166 13.00341797 26.21563965 11.75 26.1875 C5.93375 26.0946875 5.93375 26.0946875 0 26 C0 17.42 0 8.84 0 0 Z " fill="#66DDF9" transform="translate(261,378)"/>
<path d="M0 0 C3.3825 -0.061875 6.765 -0.12375 10.25 -0.1875 C11.30993164 -0.21481201 12.36986328 -0.24212402 13.46191406 -0.27026367 C14.72600098 -0.28150269 14.72600098 -0.28150269 16.015625 -0.29296875 C16.87446289 -0.3086792 17.73330078 -0.32438965 18.61816406 -0.34057617 C21.51649886 0.07385362 22.86272578 1.03694537 25 3 C26.37448002 6.34432304 26.23514056 9.98360822 26.3125 13.5625 C26.34988281 14.69816406 26.38726562 15.83382813 26.42578125 17.00390625 C26 20 26 20 24.29858398 21.66894531 C21.55621818 23.25698338 19.94713991 23.34791523 16.796875 23.29296875 C15.91354492 23.28547607 15.03021484 23.2779834 14.12011719 23.27026367 C13.00797852 23.24295166 11.89583984 23.21563965 10.75 23.1875 C5.42875 23.0946875 5.42875 23.0946875 0 23 C0 15.41 0 7.82 0 0 Z " fill="#66DEF9" transform="translate(141,272)"/>
<path d="M0 0 C2.12890625 0.4765625 2.12890625 0.4765625 4.69140625 2.4765625 C6.86835897 7.01976819 6.97952293 10.99014452 5.31640625 15.8515625 C4.12890625 17.4765625 4.12890625 17.4765625 1.12890625 19.4765625 C-5.02125349 20.14748902 -5.02125349 20.14748902 -8.24609375 17.6015625 C-11.20558366 13.73146031 -11.4908509 10.2432241 -10.87109375 5.4765625 C-8.38433709 0.28680946 -5.4006303 -0.33809547 0 0 Z " fill="#E5E5E5" transform="translate(46.87109375,475.5234375)"/>
<path d="M0 0 C1.74609375 1.15625 1.74609375 1.15625 3 3 C3.68326251 7.0483304 3.59333986 10.94177927 3 15 C0.46553184 18.27989997 -0.98361289 18.80942742 -5 19.5625 C-8 19 -8 19 -10.875 17.125 C-13.84649145 12.75515964 -13.90105272 9.13773328 -13 4 C-10.27706917 -0.97230847 -5.17125498 -1.05710737 0 0 Z " fill="#F0F0F0" transform="translate(450,476)"/>
<path d="M0 0 C1.65 0 3.3 0 5 0 C6.58203125 1.75 6.58203125 1.75 7.8125 4 C8.23144531 4.7425 8.65039062 5.485 9.08203125 6.25 C9.38496094 6.8275 9.68789062 7.405 10 8 C10.33 5.36 10.66 2.72 11 0 C12.65 0 14.3 0 16 0 C16 5.94 16 11.88 16 18 C14.35 18.33 12.7 18.66 11 19 C8.525 15.04 8.525 15.04 6 11 C5.67 13.64 5.34 16.28 5 19 C3.35 18.67 1.7 18.34 0 18 C0 12.06 0 6.12 0 0 Z " fill="#E9E9E9" transform="translate(161,476)"/>
<path d="M0 0 C5 0 5 0 6.58203125 1.53125 C6.98808594 2.1809375 7.39414062 2.830625 7.8125 3.5 C8.23144531 4.1496875 8.65039062 4.799375 9.08203125 5.46875 C9.38496094 5.9740625 9.68789062 6.479375 10 7 C10.33 4.69 10.66 2.38 11 0 C12.65 0 14.3 0 16 0 C16 6.27 16 12.54 16 19 C11 18 11 18 9.41796875 16.15234375 C8.27864583 14.1015625 7.13932292 12.05078125 6 10 C5.67 12.97 5.34 15.94 5 19 C3.35 18.67 1.7 18.34 0 18 C0 12.06 0 6.12 0 0 Z " fill="#EAEAEA" transform="translate(55,476)"/>
<path d="M0 0 C10.42888497 -0.36807829 10.42888497 -0.36807829 12.87890625 1.2109375 C14.40886156 3.65246897 14.08332493 4.99769313 13.625 7.8125 C13.08213602 11.79933973 13.06204078 15.03972772 14 19 C12.35 19 10.7 19 9 19 C8.34 16.69 7.68 14.38 7 12 C6.34 12 5.68 12 5 12 C5 14.31 5 16.62 5 19 C3.35 19 1.7 19 0 19 C0 12.73 0 6.46 0 0 Z " fill="#E0E0E0" transform="translate(357,476)"/>
<path d="M0 0 C1.65 0 3.3 0 5 0 C6.58203125 1.75 6.58203125 1.75 7.8125 4 C8.23144531 4.7425 8.65039062 5.485 9.08203125 6.25 C9.38496094 6.8275 9.68789063 7.405 10 8 C10.33 5.36 10.66 2.72 11 0 C12.32 0 13.64 0 15 0 C15 6.27 15 12.54 15 19 C13.68 19 12.36 19 11 19 C9.515625 17.25 9.515625 17.25 8.25 15 C7.82203125 14.2575 7.3940625 13.515 6.953125 12.75 C6.48132813 11.88375 6.48132813 11.88375 6 11 C5.67 13.64 5.34 16.28 5 19 C3.35 19 1.7 19 0 19 C0 12.73 0 6.46 0 0 Z " fill="#F1F1F1" transform="translate(456,476)"/>
<path d="M0 0 C1.65 0 3.3 0 5 0 C5.33 1.32 5.66 2.64 6 4 C6.37125 3.34 6.7425 2.68 7.125 2 C9 0 9 0 12.1875 -0.25 C13.115625 -0.1675 14.04375 -0.085 15 0 C13.84826645 2.46800047 12.95216435 4.04783565 11 6 C11.28356955 10.34806636 12.33836186 12.64402148 15 16 C15 16.99 15 17.98 15 19 C12.6875 19.3125 12.6875 19.3125 10 19 C8.3125 16.5625 8.3125 16.5625 7 14 C6.34 13.67 5.68 13.34 5 13 C5 14.98 5 16.96 5 19 C3.35 19 1.7 19 0 19 C0 12.73 0 6.46 0 0 Z " fill="#EDEDED" transform="translate(122,476)"/>
<path d="M0 0 C2.31 0 4.62 0 7 0 C7.84080019 2.41429769 8.67281402 4.83103993 9.5 7.25 C9.73847656 7.93191406 9.97695312 8.61382812 10.22265625 9.31640625 C11.39421287 12.76413003 12 15.31702904 12 19 C10.35 19 8.7 19 7 19 C6.67 17.68 6.34 16.36 6 15 C4.35 14.67 2.7 14.34 1 14 C0.67 15.65 0.34 17.3 0 19 C-1.65 19 -3.3 19 -5 19 C-3.64746536 12.54945018 -1.96939767 6.28894321 0 0 Z " fill="#E4E4E4" transform="translate(92,476)"/>
<path d="M0 0 C4.29 0 8.58 0 13 0 C13 1.32 13 2.64 13 4 C10.36 4 7.72 4 5 4 C5 4.99 5 5.98 5 7 C7.31 7 9.62 7 12 7 C12 8.32 12 9.64 12 11 C9.69 11 7.38 11 5 11 C5 11.99 5 12.98 5 14 C7.64 14 10.28 14 13 14 C13 15.65 13 17.3 13 19 C8.71 19 4.42 19 0 19 C0 12.73 0 6.46 0 0 Z " fill="#E8E8E8" transform="translate(389,476)"/>
<path d="M0 0 C3.96 0 7.92 0 12 0 C12 1.32 12 2.64 12 4 C9.69 4 7.38 4 5 4 C5 4.99 5 5.98 5 7 C7.31 7 9.62 7 12 7 C12 8.32 12 9.64 12 11 C9.69 11 7.38 11 5 11 C5 11.99 5 12.98 5 14 C7.31 14 9.62 14 12 14 C12.33 15.65 12.66 17.3 13 19 C8.71 19 4.42 19 0 19 C0 12.73 0 6.46 0 0 Z " fill="#EAEAEA" transform="translate(180,476)"/>
<path d="M0 0 C10.46606289 -0.36939045 10.46606289 -0.36939045 12.86328125 1.2890625 C14 3 14 3 13.875 6.5625 C13 10 13 10 10 12 C7.3125 12.125 7.3125 12.125 5 12 C5 14.31 5 16.62 5 19 C3.35 19 1.7 19 0 19 C0 12.73 0 6.46 0 0 Z " fill="#E1E1E1" transform="translate(74,476)"/>
<path d="M0 0 C0.90492188 0.02320313 1.80984375 0.04640625 2.7421875 0.0703125 C4.10730469 0.09738281 4.10730469 0.09738281 5.5 0.125 C6.19867188 0.14820313 6.89734375 0.17140625 7.6171875 0.1953125 C7.6171875 1.5153125 7.6171875 2.8353125 7.6171875 4.1953125 C5.3071875 4.1953125 2.9971875 4.1953125 0.6171875 4.1953125 C2.01093822 6.98281394 3.77963611 7.08797537 6.6171875 8.1953125 C8.6171875 10.1953125 8.6171875 10.1953125 8.9921875 13.1328125 C8.6171875 16.1953125 8.6171875 16.1953125 7.1171875 18.0703125 C3.49458627 19.70048305 0.57172092 19.39303917 -3.3828125 19.1953125 C-3.7128125 17.5453125 -4.0428125 15.8953125 -4.3828125 14.1953125 C-1.7428125 14.1953125 0.8971875 14.1953125 3.6171875 14.1953125 C3.6171875 13.5353125 3.6171875 12.8753125 3.6171875 12.1953125 C2.5034375 11.9271875 1.3896875 11.6590625 0.2421875 11.3828125 C-3.3828125 10.1953125 -3.3828125 10.1953125 -5.3828125 7.1953125 C-4.99412171 3.21123191 -4.47217555 0.36657177 0 0 Z " fill="#E9E9E9" transform="translate(143.3828125,475.8046875)"/>
<path d="M0 0 C3.96 0 7.92 0 12 0 C12 1.32 12 2.64 12 4 C9.69 4 7.38 4 5 4 C5 4.99 5 5.98 5 7 C6.98 7 8.96 7 11 7 C11 8.32 11 9.64 11 11 C9.02 11 7.04 11 5 11 C5 11.99 5 12.98 5 14 C7.31 14 9.62 14 12 14 C12 15.65 12 17.3 12 19 C8.04 19 4.08 19 0 19 C0 12.73 0 6.46 0 0 Z " fill="#EEEEEE" transform="translate(374,476)"/>
<path d="M0 0 C0.33 1.32 0.66 2.64 1 4 C-1.64 4.33 -4.28 4.66 -7 5 C-7 7.64 -7 10.28 -7 13 C-4.69 13.33 -2.38 13.66 0 14 C0.33 15.32 0.66 16.64 1 18 C-2.19233485 19.59616743 -5.53461497 19.51466114 -9 19 C-11.43119623 17.12984906 -12.64069173 15.71861655 -14 13 C-14.36104805 8.59521377 -14.46851135 6.02220658 -12.625 2 C-8.65400033 -1.02552356 -4.8219397 -0.41409788 0 0 Z " fill="#E6E6E6" transform="translate(119,476)"/>
<path d="M0 0 C1.33998047 0.06960938 1.33998047 0.06960938 2.70703125 0.140625 C3.60808594 0.17671875 4.50914062 0.2128125 5.4375 0.25 C6.46810547 0.31960938 6.46810547 0.31960938 7.51953125 0.390625 C7.84953125 1.710625 8.17953125 3.030625 8.51953125 4.390625 C6.81796875 4.6071875 6.81796875 4.6071875 5.08203125 4.828125 C1.71175924 5.00233978 1.71175924 5.00233978 0.51953125 6.390625 C0.47860188 8.72359933 0.47711402 11.05767725 0.51953125 13.390625 C3.15953125 13.720625 5.79953125 14.050625 8.51953125 14.390625 C8.51953125 15.710625 8.51953125 17.030625 8.51953125 18.390625 C5.30326594 19.99875766 2.00729838 19.84555115 -1.48046875 19.390625 C-3.98046875 18.078125 -3.98046875 18.078125 -5.48046875 15.390625 C-6.09496024 10.73602856 -6.47527227 6.3156344 -4.27734375 2.0625 C-2.48046875 0.390625 -2.48046875 0.390625 0 0 Z " fill="#EEEEEE" transform="translate(426.48046875,475.609375)"/>
<path d="M0 0 C0 1.32 0 2.64 0 4 C-1.7015625 4.2165625 -1.7015625 4.2165625 -3.4375 4.4375 C-6.80777201 4.61171478 -6.80777201 4.61171478 -8 6 C-8.04092937 8.33297433 -8.04241723 10.66705225 -8 13 C-5.36 13.33 -2.72 13.66 0 14 C-0.33 15.65 -0.66 17.3 -1 19 C-8.04477612 19.59701493 -8.04477612 19.59701493 -12 17.125 C-14.81177501 12.73160154 -14.88226521 9.07944924 -14 4 C-11.0952097 -1.54550875 -5.50906147 -0.37848514 0 0 Z " fill="#EFEFEF" transform="translate(34,476)"/>
<path d="M0 0 C3.96 0 7.92 0 12 0 C12 1.32 12 2.64 12 4 C9.69 4 7.38 4 5 4 C5 4.99 5 5.98 5 7 C6.98 7 8.96 7 11 7 C11 8.32 11 9.64 11 11 C9.02 11 7.04 11 5 11 C5 13.64 5 16.28 5 19 C3.35 19 1.7 19 0 19 C0 12.73 0 6.46 0 0 Z " fill="#F0F0F0" transform="translate(343,476)"/>
<path d="M0 0 C4.62 0 9.24 0 14 0 C14 1.32 14 2.64 14 4 C12.35 4 10.7 4 9 4 C9 8.95 9 13.9 9 19 C7.35 19 5.7 19 4 19 C4 14.05 4 9.1 4 4 C2.68 4 1.36 4 0 4 C0 2.68 0 1.36 0 0 Z " fill="#ECECEC" transform="translate(194,476)"/>
<path d="M0 0 C0.33 0 0.66 0 1 0 C1 5.94 1 11.88 1 18 C0.01 17.01 -0.98 16.02 -2 15 C-4.32275177 14.59952556 -6.65739357 14.2602896 -9 14 C-10 13 -10 13 -10.1328125 11.1875 C-10.13023438 10.465625 -10.12765625 9.74375 -10.125 9 C-10.12757812 8.278125 -10.13015625 7.55625 -10.1328125 6.8125 C-10 5 -10 5 -9 4 C-6.34536879 3.54540142 -3.67810862 3.29756762 -1 3 C-0.67 2.01 -0.34 1.02 0 0 Z " fill="#121212" transform="translate(121,476)"/>
<path d="M0 0 C4.29238623 1.65091778 6.8793915 4.73754566 10 8 C8.34908222 12.29238623 5.26245434 14.8793915 2 18 C0.68 17.34 -0.64 16.68 -2 16 C-0.66666667 13.33333333 0.66666667 10.66666667 2 8 C0.68 6.68 -0.64 5.36 -2 4 C-1.34 2.68 -0.68 1.36 0 0 Z " fill="#DFDFDF" transform="translate(488,477)"/>
<path d="M0 0 C1.65 0 3.3 0 5 0 C5 6.27 5 12.54 5 19 C3.35 19 1.7 19 0 19 C0 12.73 0 6.46 0 0 Z " fill="#F1F1F1" transform="translate(12,476)"/>
<path d="M0 0 C1.65 0 3.3 0 5 0 C5 5.94 5 11.88 5 18 C3.35 18.33 1.7 18.66 0 19 C0 12.73 0 6.46 0 0 Z " fill="#E9E9E9" transform="translate(413,476)"/>
<path d="M0 0 C0.042721 1.66611905 0.04063832 3.33382885 0 5 C-0.33 5.33 -0.66 5.66 -1 6 C-3.35694954 5.90968426 -5.71153582 5.75311872 -8.0625 5.5625 C-9.35285156 5.46066406 -10.64320313 5.35882813 -11.97265625 5.25390625 C-13.47119141 5.12822266 -13.47119141 5.12822266 -15 5 C-15 4.01 -15 3.02 -15 2 C-9.92523206 0.73694665 -5.27203646 -0.27036084 0 0 Z " fill="#62D4ED" transform="translate(265,94)"/>
<path d="M0 0 C1.67542976 0.28604898 3.34385343 0.61781233 5 1 C5 3.64 5 6.28 5 9 C3.34385343 9.38218767 1.67542976 9.71395102 0 10 C-1 9 -1 9 -1.1328125 7.1875 C-1.13023437 6.465625 -1.12765625 5.74375 -1.125 5 C-1.12757813 4.278125 -1.13015625 3.55625 -1.1328125 2.8125 C-1 1 -1 1 0 0 Z " fill="#0B0B0B" transform="translate(443,480)"/>
<path d="M0 0 C1.98 0.495 1.98 0.495 4 1 C4 3.97 4 6.94 4 10 C2.35 10 0.7 10 -1 10 C-1.02689216 8.52093108 -1.04634621 7.04172517 -1.0625 5.5625 C-1.07410156 4.73878906 -1.08570313 3.91507812 -1.09765625 3.06640625 C-1 1 -1 1 0 0 Z " fill="#020202" transform="translate(43,480)"/>
<path d="M0 0 C-1.55603771 3.81936528 -3.95604931 6.26044438 -7 9 C-7.66 9 -8.32 9 -9 9 C-7.45665977 5.21180126 -4.44676575 0 0 0 Z " fill="#323232" transform="translate(295,121)"/>
<path d="M0 0 C1.98 0.495 1.98 0.495 4 1 C3.67 2.32 3.34 3.64 3 5 C1.68 4.67 0.36 4.34 -1 4 C-0.67 2.68 -0.34 1.36 0 0 Z " fill="#DADADA" transform="translate(155,490)"/>
<path d="M0 0 C0.66 0.33 1.32 0.66 2 1 C1.04882866 2.1725131 0.08882991 3.33787015 -0.875 4.5 C-1.40867187 5.1496875 -1.94234375 5.799375 -2.4921875 6.46875 C-2.98976563 6.9740625 -3.48734375 7.479375 -4 8 C-4.66 8 -5.32 8 -6 8 C-4.55746343 4.63408134 -2.66735273 2.48952921 0 0 Z " fill="#173238" transform="translate(273,264)"/>
<path d="M0 0 C-1.28519565 2.86697492 -2.57129254 4.97607712 -5 7 C-5.66 7 -6.32 7 -7 7 C-3.86206897 0 -3.86206897 0 0 0 Z " fill="#52B1C7" transform="translate(301,129)"/>
<path d="M0 0 C0.66 0.33 1.32 0.66 2 1 C0.38405168 3.04119788 -1.2856382 5.04072937 -3 7 C-3.66 7 -4.32 7 -5 7 C-3.70700306 4.11562221 -2.34058637 2.12780579 0 0 Z " fill="#1A3940" transform="translate(181,370)"/>
</svg>
