<?xml version="1.0" encoding="UTF-8"?>
<svg version="1.1" xmlns="http://www.w3.org/2000/svg" width="300" height="168">
<path d="M0 0 C99 0 198 0 300 0 C300 55.44 300 110.88 300 168 C201 168 102 168 0 168 C0 112.56 0 57.12 0 0 Z " fill="#E5E6E7" transform="translate(0,0)"/>
<path d="M0 0 C1.17949219 0.00281982 2.35898438 0.00563965 3.57421875 0.00854492 C13.21800434 0.18632578 23.59392007 1.07818189 31.71875 6.85546875 C33.21236013 9.10121827 32.88790428 10.85573347 32.8125 13.5 C33.42134033 13.24831055 34.03018066 12.99662109 34.6574707 12.73730469 C37.4790073 11.57249666 40.30199206 10.41123731 43.125 9.25 C44.56069336 8.65638672 44.56069336 8.65638672 46.02539062 8.05078125 C48.94794096 6.85027236 51.87741066 5.66950485 54.8125 4.5 C55.77873291 4.11255615 56.74496582 3.7251123 57.74047852 3.32592773 C62.98621559 1.30639772 67.42582969 -0.03610156 73.125 0.0625 C74.25550781 0.06378906 75.38601562 0.06507812 76.55078125 0.06640625 C80.94470582 0.6505088 84.31976958 2.16168996 87.625 5.125 C89.46869575 8.8123915 89.60826545 12.42149787 89.8125 16.5 C89.89177734 17.91345703 89.89177734 17.91345703 89.97265625 19.35546875 C90.09437489 23.27692574 90.10340482 26.48821884 89.01171875 30.28515625 C85.81278377 33.50681901 82.97904054 33.11000901 78.56835938 33.19726562 C76.98764648 33.19243164 76.98764648 33.19243164 75.375 33.1875 C73.29288807 33.20411599 71.21082021 33.22854612 69.12890625 33.26171875 C68.20537354 33.26131592 67.28184082 33.26091309 66.33032227 33.26049805 C63.66333579 33.5141889 62.05772973 34.05946669 59.8125 35.5 C57.99545101 39.13409798 58.54209282 43.37337548 58.5 47.375 C58.47099609 48.28636719 58.44199219 49.19773438 58.41210938 50.13671875 C58.29698285 55.45123151 58.29698285 55.45123151 60.64453125 60.0703125 C64.17535887 62.39875018 67.36901975 62.72230163 71.5 63.0625 C72.49386719 63.14628906 73.48773438 63.23007813 74.51171875 63.31640625 C75.65060547 63.40728516 75.65060547 63.40728516 76.8125 63.5 C74.18084852 66.13165148 71.19880762 66.90372815 67.75 68.0625 C63.45285367 69.23207911 63.45285367 69.23207911 59.8125 71.5 C59.77157063 73.83297433 59.77008277 76.16705225 59.8125 78.5 C61.70825251 78.52721176 63.60411979 78.54649136 65.5 78.5625 C66.55574219 78.57410156 67.61148438 78.58570312 68.69921875 78.59765625 C71.76508378 78.59186749 71.76508378 78.59186749 74.51953125 77.93359375 C76.8125 77.5 76.8125 77.5 79.8125 78.5 C81.47864608 78.54165365 83.14635392 78.54165365 84.8125 78.5 C87.10289456 78.5 89.39329363 78.51435635 91.68359375 78.53515625 C93.20572811 78.54444565 94.72786358 78.55355377 96.25 78.5625 C97.01376953 78.57087891 97.77753906 78.57925781 98.56445312 78.58789062 C99.67530273 78.59272461 99.67530273 78.59272461 100.80859375 78.59765625 C101.81684204 78.60551147 101.81684204 78.60551147 102.84545898 78.61352539 C105.17996172 78.54005111 105.17996172 78.54005111 108.8125 77.5 C109.1425 80.47 109.4725 83.44 109.8125 86.5 C110.4725 86.17 111.1325 85.84 111.8125 85.5 C111.4825 83.19 111.1525 80.88 110.8125 78.5 C112.4625 78.83 114.1125 79.16 115.8125 79.5 C115.4422613 85.9174708 115.4422613 85.9174708 112.3125 88.8125 C111.4875 89.369375 110.6625 89.92625 109.8125 90.5 C109.4825 91.16 109.1525 91.82 108.8125 92.5 C110.7925 92.5 112.7725 92.5 114.8125 92.5 C115.8125 95.5 115.8125 95.5 114.83374023 97.52539062 C112.08246181 100.2131959 109.07806798 101.04651156 105.47265625 102.09375 C104.36102112 102.43570908 104.36102112 102.43570908 103.22692871 102.78457642 C101.62163313 103.27696589 100.01441281 103.76311413 98.4055481 104.24371338 C94.07430157 105.53816173 89.75716564 106.87846034 85.4375 108.2109375 C84.54994522 108.48324188 83.66239044 108.75554626 82.74794006 109.03610229 C73.23411087 111.96312664 63.8003184 115.11760578 54.37014771 118.30200195 C53.40103958 118.62914185 53.40103958 118.62914185 52.41235352 118.96289062 C51.75770111 119.18506256 51.10304871 119.4072345 50.42855835 119.63613892 C49.02275266 120.10539666 47.61271667 120.56211296 46.19937134 121.00814819 C41.66521926 122.45567683 37.35725171 124.12703146 33.01098633 126.07080078 C7.12139953 136.85852727 -20.80435836 134.66965846 -48.31157798 134.22027171 C-56.10383571 134.09523201 -63.89643587 134.04228031 -71.68945312 133.98828125 C-85.52356385 133.89212012 -99.3536544 133.691634 -113.1875 133.5 C-113.1875 103.14 -113.1875 72.78 -113.1875 41.5 C-76.21320093 25.47780374 -76.21320093 25.47780374 -64.60351562 20.53076172 C-62.96343322 19.83104184 -61.32413523 19.12948104 -59.68554688 18.42626953 C-50.56697013 14.5135003 -41.48808733 10.74850926 -32.0703125 7.60546875 C-29.19547752 6.50305913 -26.81622131 5.08743166 -24.1875 3.5 C-16.26519627 0.46379321 -8.40987257 -0.04489895 0 0 Z " fill="#D0D1D2" transform="translate(113.1875,34.5)"/>
<path d="M0 0 C2.05659456 1.62688958 2.89911355 2.46962799 3.39440918 5.07345581 C3.40282837 5.86889801 3.41124756 6.66434021 3.41992188 7.48388672 C3.43583374 8.38847626 3.45174561 9.2930658 3.46813965 10.22506714 C3.46834106 11.20009186 3.46854248 12.17511658 3.46875 13.1796875 C3.48017029 14.68705978 3.48017029 14.68705978 3.49182129 16.22488403 C3.50263051 18.35155756 3.50547207 20.47828422 3.50097656 22.60498047 C3.50000566 25.85604735 3.54158927 29.10474366 3.5859375 32.35546875 C3.59114552 34.42187008 3.59383268 36.48827961 3.59375 38.5546875 C3.6183429 40.01115189 3.6183429 40.01115189 3.64343262 41.49703979 C3.59577647 46.16202977 3.54881456 48.29272885 0.61376953 52.07519531 C-11.99977317 61.36392786 -32.97881598 58.84838098 -47.66015625 56.70703125 C-52.14356637 55.75791168 -56.66648548 54.33351452 -60 51 C-60.10878142 49.48162227 -60.14903597 47.95825655 -60.16113281 46.43603516 C-60.17074036 45.46477692 -60.1803479 44.49351868 -60.19024658 43.49282837 C-60.19449646 42.43558563 -60.19874634 41.3783429 -60.203125 40.2890625 C-60.20882507 39.20998627 -60.21452515 38.13091003 -60.22039795 37.01913452 C-60.22986463 34.73086533 -60.23638852 32.44258241 -60.24023438 30.15429688 C-60.24993942 26.64689423 -60.28094743 23.14007743 -60.3125 19.6328125 C-60.31902967 17.414066 -60.32428028 15.19531528 -60.328125 12.9765625 C-60.3404718 11.92336823 -60.3528186 10.87017395 -60.36553955 9.7850647 C-60.36253845 8.80750214 -60.35953735 7.82993958 -60.35644531 6.82275391 C-60.36009094 5.96195221 -60.36373657 5.10115051 -60.36749268 4.21426392 C-59.91738206 1.50219983 -59.13974832 0.67116951 -57 -1 C-40.83006861 -8.8487167 -15.99978233 -7.80209166 0 0 Z " fill="#368FC8" transform="translate(143,40)"/>
<path d="M0 0 C1.19367188 -0.02578125 2.38734375 -0.0515625 3.6171875 -0.078125 C8.39561195 0.36885457 11.7300909 1.8550909 15.125 5.25 C15.60250616 8.68724184 15.49537778 12.15833818 15.5 15.625 C15.52449219 16.5840625 15.54898438 17.543125 15.57421875 18.53125 C15.58001953 19.91957031 15.58001953 19.91957031 15.5859375 21.3359375 C15.59415527 22.1820459 15.60237305 23.0281543 15.61083984 23.89990234 C14.94326639 27.12907928 13.74381401 28.29019584 11.125 30.25 C8.62304688 30.73242188 8.62304688 30.73242188 5.84375 30.71875 C4.33361328 30.74001953 4.33361328 30.74001953 2.79296875 30.76171875 C0.68098958 30.75390625 -1.43098958 30.74609375 -3.54296875 30.73828125 C-5.05310547 30.75955078 -5.05310547 30.75955078 -6.59375 30.78125 C-7.51091797 30.77673828 -8.42808594 30.77222656 -9.37304688 30.76757812 C-12.65228696 31.399875 -13.82842951 32.66282598 -15.875 35.25 C-16.56897449 38.28222778 -16.56897449 38.28222778 -16.625 41.5 C-16.68171875 42.57765625 -16.7384375 43.6553125 -16.796875 44.765625 C-16.83554688 45.99539062 -16.83554688 45.99539062 -16.875 47.25 C-21.82724859 47.54130874 -24.97688939 47.47986308 -28.875 44.25 C-31.04088835 40.09240313 -31.17357111 36.39296195 -31.1875 31.75 C-31.20425781 30.4609375 -31.22101563 29.171875 -31.23828125 27.84375 C-30.77258895 23.23690144 -29.50245675 20.75207627 -26.11938477 17.62963867 C-23.29392409 15.89280866 -21.53364593 15.90438331 -18.234375 15.95703125 C-16.62949219 15.9715332 -16.62949219 15.9715332 -14.9921875 15.98632812 C-13.88101563 16.01146484 -12.76984375 16.03660156 -11.625 16.0625 C-9.93503906 16.08280273 -9.93503906 16.08280273 -8.2109375 16.10351562 C-5.43180736 16.13884355 -2.65364637 16.1881748 0.125 16.25 C0.125 15.59 0.125 14.93 0.125 14.25 C-4.825 14.25 -9.775 14.25 -14.875 14.25 C-15.36337209 5.94767442 -15.36337209 5.94767442 -13.125 2.75 C-8.96423945 -0.02384037 -4.92961829 0.06360798 0 0 Z " fill="#377BB4" transform="translate(185.875,34.75)"/>
<path d="M0 0 C8.10891089 -0.62376238 8.10891089 -0.62376238 11.5 1.75 C14.27384037 5.91076055 14.18639202 9.94538171 14.25 14.875 C14.27578125 16.06867188 14.3015625 17.26234375 14.328125 18.4921875 C13.88114543 23.27061195 12.3949091 26.6050909 9 30 C6.38623047 30.22705078 6.38623047 30.22705078 3.1171875 30.1953125 C1.95058594 30.18886719 0.78398437 30.18242188 -0.41796875 30.17578125 C-1.64128906 30.15902344 -2.86460937 30.14226562 -4.125 30.125 C-5.35605469 30.11597656 -6.58710938 30.10695313 -7.85546875 30.09765625 C-10.90383815 30.07402548 -13.95182382 30.04108054 -17 30 C-17 30.99 -17 31.98 -17 33 C-12.05 33 -7.1 33 -2 33 C-1.51031895 41.32457786 -1.51031895 41.32457786 -3.8125 44.5 C-9.60100365 48.46925964 -17.27299133 47.53332521 -24 47 C-27.00661062 46.01184604 -28.50517876 45.01961719 -31 43 C-32.81704899 39.36590202 -32.27040718 35.12662452 -32.3125 31.125 C-32.34150391 30.21363281 -32.37050781 29.30226563 -32.40039062 28.36328125 C-32.46446879 21.63014528 -32.46446879 21.63014528 -30.10546875 18.4296875 C-26.78225385 16.17310744 -24.7686773 15.83725682 -20.7734375 15.68359375 C-19.2265625 15.62075195 -19.2265625 15.62075195 -17.6484375 15.55664062 C-16.56820312 15.51732422 -15.48796875 15.47800781 -14.375 15.4375 C-13.28703125 15.39431641 -12.1990625 15.35113281 -11.078125 15.30664062 C-8.3855483 15.2003547 -5.69287747 15.09831943 -3 15 C-1.20897231 11.64417969 -0.64733733 9.06272266 -0.375 5.25 C-0.30023438 4.26515625 -0.22546875 3.2803125 -0.1484375 2.265625 C-0.09945312 1.51796875 -0.05046875 0.7703125 0 0 Z " fill="#FEE906" transform="translate(203,51)"/>
<path d="M0 0 C2 2 2 2 2.4375 4.9375 C2 8 2 8 0.1875 9.6875 C-9.05903157 13.49489535 -17.89671248 14.53355909 -27.8425293 14.50097656 C-29.93222378 14.50000246 -32.01825238 14.5418053 -34.10742188 14.5859375 C-42.94428672 14.66322824 -50.2265041 13.38189919 -58 9 C-60 7 -60 7 -60.3125 4.5625 C-59.9330094 1.45067711 -59.39648209 0.93976495 -57 -1 C-40.65943907 -8.9315385 -16.20808764 -7.60834839 0 0 Z " fill="#0B6099" transform="translate(143,40)"/>
<path d="M0 0 C0.33 0 0.66 0 1 0 C1 8.25 1 16.5 1 25 C0.67 25 0.34 25 0 25 C-0.495 19.555 -0.495 19.555 -1 14 C-2.32 14.99 -3.64 15.98 -5 17 C-13.31613946 20.06077361 -21.66563355 20.46517338 -30.4375 20.375 C-31.56220703 20.38660156 -32.68691406 20.39820312 -33.84570312 20.41015625 C-43.6242206 20.37645659 -54.61309116 20.12279216 -62 13 C-62.48828125 9.984375 -62.48828125 9.984375 -62.3125 6.75 C-62.26738281 5.67234375 -62.22226563 4.5946875 -62.17578125 3.484375 C-62.11777344 2.66453125 -62.05976562 1.8446875 -62 1 C-61.41992188 1.26554687 -60.83984375 1.53109375 -60.2421875 1.8046875 C-59.46101563 2.15789063 -58.67984375 2.51109375 -57.875 2.875 C-56.72644531 3.39707031 -56.72644531 3.39707031 -55.5546875 3.9296875 C-47.82233031 7.16923776 -41.18537954 7.3334435 -32.875 7.3125 C-30.99167969 7.33666992 -30.99167969 7.33666992 -29.0703125 7.36132812 C-19.04680071 7.36652704 -9.55923991 6.60696863 -1 1 C-0.67 0.67 -0.34 0.34 0 0 Z " fill="#3790C8" transform="translate(145,60)"/>
<path d="M0 0 C0 2.31 0 4.62 0 7 C1.89575251 7.02721176 3.79161979 7.04649136 5.6875 7.0625 C7.27111328 7.07990234 7.27111328 7.07990234 8.88671875 7.09765625 C11.72410262 7.00865425 14.2438919 6.64939838 17 6 C17.66 7.32 18.32 8.64 19 10 C17.02 9.67 15.04 9.34 13 9 C13.33 11.31 13.66 13.62 14 16 C15.32 16.33 16.64 16.66 18 17 C15.75 18.1875 15.75 18.1875 13 19 C10.6875 17.625 10.6875 17.625 9 16 C8.67 16.99 8.34 17.98 8 19 C5.70858714 19.05384521 3.41681812 19.09272087 1.125 19.125 C-0.15117187 19.14820312 -1.42734375 19.17140625 -2.7421875 19.1953125 C-6 19 -6 19 -8 17 C-8.99 17.66 -9.98 18.32 -11 19 C-13.96076291 18.64111965 -14.84658021 18.15341979 -17 16 C-16.8125 12.5 -16.8125 12.5 -16 9 C-12.77786243 6.85190829 -11.72224599 6.70613847 -8 7 C-7.67 7.33 -7.34 7.66 -7 8 C-6.9175 6.88625 -6.835 5.7725 -6.75 4.625 C-6 1 -6 1 -4.0625 -0.5 C-2 -1 -2 -1 0 0 Z " fill="#D6AFB1" transform="translate(173,106)"/>
<path d="M0 0 C0.845625 0.34933594 1.69125 0.69867188 2.5625 1.05859375 C3.696875 1.51363281 4.83125 1.96867187 6 2.4375 C7.670625 3.11619141 7.670625 3.11619141 9.375 3.80859375 C22.94493171 8.26853898 46.05492457 8.29066128 59 1.875 C59.99 1.25625 60.98 0.6375 62 0 C62 2.25 62 2.25 61 5 C47.77006341 14.07936825 27.47990374 11.96320959 12.33984375 9.69140625 C7.83825434 8.75949827 4.77374121 7.64161885 1 5 C0.3046875 2.36328125 0.3046875 2.36328125 0 0 Z " fill="#0C619A" transform="translate(83,87)"/>
<path d="M0 0 C1.11375 0.61875 2.2275 1.2375 3.375 1.875 C12.53308114 6.39687092 22.27606688 6.36457254 32.3125 6.375 C33.54162109 6.39949219 34.77074219 6.42398438 36.03710938 6.44921875 C45.19586584 6.47821745 53.72476838 5.13761581 62 1 C61.8125 2.8125 61.8125 2.8125 61 5 C51.7315488 11.42063163 40.37912729 11.50028615 29.5 11.4375 C28.27152344 11.45748047 27.04304688 11.47746094 25.77734375 11.49804688 C17.35640453 11.4935819 8.14363756 10.89272357 1.16992188 5.61499023 C0 4 0 4 0 0 Z " fill="#055E98" transform="translate(83,57)"/>
<path d="M0 0 C1.66420865 3.32841731 0.88602221 6.53962979 0 10 C-1.0625 12.4375 -1.0625 12.4375 -3 14 C-6.60396276 15.03518079 -9.77851021 15.38573362 -13.375 14.25 C-15 13 -15 13 -17 10 C-17.46857988 6.32945762 -17.51209995 4.6767035 -15.25 1.6875 C-10.96674943 -1.52493793 -4.93259649 -2.46629825 0 0 Z " fill="#1A1A1A" transform="translate(106,109)"/>
<path d="M0 0 C1.11375 0.61875 2.2275 1.2375 3.375 1.875 C12.25703225 6.26675735 21.63415919 6.33980056 31.375 6.3125 C32.51710937 6.32861328 33.65921875 6.34472656 34.8359375 6.36132812 C44.56091895 6.36685368 53.69363803 5.37067082 62 0 C61.8125 2.3125 61.8125 2.3125 61 5 C49.49867234 14.13340726 28.82215582 11.77326622 15 10.3125 C9.48571381 9.48973349 3.81522826 8.41250042 0 4 C0 2.68 0 1.36 0 0 Z " fill="#045E98" transform="translate(83,73)"/>
<path d="M0 0 C1.32 0.33 2.64 0.66 4 1 C6.00240549 0.68143549 8.00211562 0.34578768 10 0 C12.67372285 -0.08687186 15.32375655 -0.04614213 18 0 C18.33449533 1.64559756 18.66756499 3.29148498 19 4.9375 C19.185625 5.85402344 19.37125 6.77054687 19.5625 7.71484375 C20 10 20 10 20 11 C18.35 11 16.7 11 15 11 C15 8.36 15 5.72 15 3 C14.01 3.33 13.02 3.66 12 4 C12 6.31 12 8.62 12 11 C10.35 11 8.7 11 7 11 C7.33 8.36 7.66 5.72 8 3 C7.01 3.33 6.02 3.66 5 4 C4.67 6.31 4.34 8.62 4 11 C2.68 11 1.36 11 0 11 C0 7.37 0 3.74 0 0 Z " fill="#E22A30" transform="translate(195,113)"/>
<path d="M0 0 C0.99 0.33 1.98 0.66 3 1 C3.33 3.64 3.66 6.28 4 9 C4.66 8.67 5.32 8.34 6 8 C5.67 5.69 5.34 3.38 5 1 C6.65 1.33 8.3 1.66 10 2 C9.6297613 8.4174708 9.6297613 8.4174708 6.5 11.3125 C5.675 11.869375 4.85 12.42625 4 13 C3.67 13.66 3.34 14.32 3 15 C4.98 15 6.96 15 9 15 C9 16.32 9 17.64 9 19 C8.38511719 18.98839844 7.77023438 18.97679687 7.13671875 18.96484375 C5.92435547 18.95130859 5.92435547 18.95130859 4.6875 18.9375 C3.88699219 18.92589844 3.08648437 18.91429687 2.26171875 18.90234375 C-0.16861334 18.90342145 -0.16861334 18.90342145 -3 20 C-2.43628586 16.73045798 -1.50037734 15.17424117 1 13 C0.690625 12.113125 0.38125 11.22625 0.0625 10.3125 C-1.68 4.88 -1.68 4.88 -2 2 C-1.34 1.34 -0.68 0.68 0 0 Z " fill="#E12F35" transform="translate(219,112)"/>
<path d="M0 0 C0.33 0 0.66 0 1 0 C1 5.28 1 10.56 1 16 C-0.32 16.33 -1.64 16.66 -3 17 C-3.845625 17.2475 -4.69125 17.495 -5.5625 17.75 C-8 18 -8 18 -9.875 17 C-11.66911318 13.81046546 -10.8753564 11.43890016 -10 8 C-6.77786243 5.85190829 -5.72224599 5.70613847 -2 6 C-1.67 6.33 -1.34 6.66 -1 7 C-0.67 4.69 -0.34 2.38 0 0 Z " fill="#D4C2C3" transform="translate(167,107)"/>
<path d="M0 0 C0.66 0.33 1.32 0.66 2 1 C2 3.31 2 5.62 2 8 C2.804375 7.979375 3.60875 7.95875 4.4375 7.9375 C7 8 7 8 8 9 C8.23287008 10.68183948 8.41264166 12.3712416 8.5625 14.0625 C8.64628906 14.98160156 8.73007813 15.90070313 8.81640625 16.84765625 C8.87699219 17.55792969 8.93757812 18.26820312 9 19 C7.35 19 5.7 19 4 19 C4 16.36 4 13.72 4 11 C3.34 11 2.68 11 2 11 C1.67 13.64 1.34 16.28 1 19 C-0.65 19 -2.3 19 -4 19 C-3.91327254 16.20677782 -3.80644643 13.41687472 -3.6875 10.625 C-3.66494141 9.8309375 -3.64238281 9.036875 -3.61914062 8.21875 C-3.52214925 6.13784419 -3.27005175 4.06558668 -3 2 C-2.01 1.34 -1.02 0.68 0 0 Z " fill="#E21E25" transform="translate(171,105)"/>
<path d="M0 0 C4.03625076 1.34541692 4.85447953 3.85947465 6.6875 7.4375 C7.00783203 8.03626953 7.32816406 8.63503906 7.65820312 9.25195312 C10 13.71085421 10 13.71085421 10 16 C8.35 16 6.7 16 5 16 C4.67 14.35 4.34 12.7 4 11 C1.69 11.33 -0.62 11.66 -3 12 C-3.33 13.32 -3.66 14.64 -4 16 C-5.32 15.67 -6.64 15.34 -8 15 C-5.36 10.05 -2.72 5.1 0 0 Z " fill="#E2272D" transform="translate(136,108)"/>
<path d="M0 0 C3.5 0.1875 3.5 0.1875 7 1 C9 4 9 4 8.6875 7.125 C8 10 8 10 7 11 C1.75949367 11.4556962 1.75949367 11.4556962 -0.875 9.875 C-2.50531294 7.15781176 -2.33015665 5.10347254 -2 2 C-1.34 1.34 -0.68 0.68 0 0 Z " fill="#C7C8C9" transform="translate(95,110)"/>
<path d="M0 0 C2.64 0 5.28 0 8 0 C7.34 0.66 6.68 1.32 6 2 C5.75639927 5.12814514 5.75639927 5.12814514 5.875 8.625 C5.89304687 9.81351563 5.91109375 11.00203125 5.9296875 12.2265625 C5.95289062 13.14179687 5.97609375 14.05703125 6 15 C10.41522109 13.73025028 10.41522109 13.73025028 14 11 C14 12.65 14 14.3 14 16 C9.38 16 4.76 16 0 16 C0 10.72 0 5.44 0 0 Z " fill="#0F0F0F" transform="translate(110,108)"/>
<path d="M0 0 C0.66 0 1.32 0 2 0 C2 3.63 2 7.26 2 11 C3.65 10.67 5.3 10.34 7 10 C7 10.66 7 11.32 7 12 C5.02 12 3.04 12 1 12 C1 11.34 1 10.68 1 10 C0.4225 10.2475 -0.155 10.495 -0.75 10.75 C-3 11 -3 11 -5.25 9.375 C-7.27461204 6.62731223 -7.37010337 5.3309303 -7 2 C-4.03 2.495 -4.03 2.495 -1 3 C-0.67 2.01 -0.34 1.02 0 0 Z " fill="#D5B6B8" transform="translate(193,113)"/>
<path d="M0 0 C0.66 0.33 1.32 0.66 2 1 C2 6.94 2 12.88 2 19 C0.35 19 -1.3 19 -3 19 C-3.08071788 16.20775927 -3.14035408 13.41783434 -3.1875 10.625 C-3.21263672 9.8309375 -3.23777344 9.036875 -3.26367188 8.21875 C-3.29004405 6.14413852 -3.15486462 4.06899135 -3 2 C-2.01 1.34 -1.02 0.68 0 0 Z " fill="#E13137" transform="translate(152,105)"/>
<path d="M0 0 C-0.33 1.32 -0.66 2.64 -1 4 C-4.3 4 -7.6 4 -11 4 C-11 5.65 -11 7.3 -11 9 C-10.01 9.33 -9.02 9.66 -8 10 C-10.375 10.625 -10.375 10.625 -13 11 C-15 9 -15 9 -15.4375 6.625 C-15 4 -15 4 -13.125 1.6875 C-8.7364953 -0.68229254 -4.88510148 -0.34148282 0 0 Z " fill="#232323" transform="translate(86,108)"/>
<path d="M0 0 C7.92 0 15.84 0 24 0 C17.75 3.125 17.75 3.125 13.8671875 3.09765625 C13.06152344 3.09443359 12.25585938 3.09121094 11.42578125 3.08789062 C10.58402344 3.07951172 9.74226562 3.07113281 8.875 3.0625 C8.02550781 3.05798828 7.17601562 3.05347656 6.30078125 3.04882812 C4.20049091 3.03702874 2.1002367 3.01909306 0 3 C0 2.01 0 1.02 0 0 Z " fill="#DFD9A6" transform="translate(186,81)"/>
<path d="M0 0 C4.875 0.875 4.875 0.875 6 2 C6.28918248 4.74723353 6.45553169 6.36822982 4.80859375 8.65234375 C2.37501223 10.46570363 0.81165581 10.30435023 -2.1875 10.1875 C-3.08855469 10.16042969 -3.98960938 10.13335937 -4.91796875 10.10546875 C-5.60503906 10.07066406 -6.29210937 10.03585938 -7 10 C-7 8.68 -7 7.36 -7 6 C-4.03 6.33 -1.06 6.66 2 7 C2.33 5.68 2.66 4.36 3 3 C1.35 3 -0.3 3 -2 3 C-1.34 2.01 -0.68 1.02 0 0 Z " fill="#151515" transform="translate(80,114)"/>
<path d="M0 0 C0 1.32 0 2.64 0 4 C-1.98 3.34 -3.96 2.68 -6 2 C-4.98839152 6.39314793 -4.98839152 6.39314793 -1.875 9.375 C-1.25625 9.58125 -0.6375 9.7875 0 10 C-3 12 -3 12 -5.0625 11.75 C-7 11 -7 11 -9 9 C-8.8125 5.5 -8.8125 5.5 -8 2 C-4.77208445 -0.1519437 -3.71599191 -0.20086443 0 0 Z " fill="#E12F34" transform="translate(165,113)"/>
<path d="M0 0 C1.8125 0.9375 1.8125 0.9375 2.8125 3.9375 C-0.1575 3.4425 -0.1575 3.4425 -3.1875 2.9375 C-2.8575 5.2475 -2.5275 7.5575 -2.1875 9.9375 C-0.8675 10.2675 0.4525 10.5975 1.8125 10.9375 C-0.5 12.0625 -0.5 12.0625 -3.1875 12.9375 C-4.1775 12.2775 -5.1675 11.6175 -6.1875 10.9375 C-6.70723722 6.92809858 -6.78663772 4.79341103 -4.4375 1.4375 C-2.1875 -0.0625 -2.1875 -0.0625 0 0 Z " fill="#E23036" transform="translate(189.1875,112.0625)"/>
<path d="M0 0 C0.99 0.33 1.98 0.66 3 1 C2.67 3.64 2.34 6.28 2 9 C3.65 9 5.3 9 7 9 C7 9.33 7 9.66 7 10 C2.71 10 -1.58 10 -6 10 C-4.68 9.34 -3.36 8.68 -2 8 C-2.061875 6.576875 -2.061875 6.576875 -2.125 5.125 C-2 2 -2 2 0 0 Z " fill="#D6ABAD" transform="translate(208,115)"/>
<path d="M0 0 C3.5625 0.3125 3.5625 0.3125 5.5625 1.375 C7.14745594 4.44585213 6.24286707 7.03436775 5.5625 10.3125 C4.9025 10.3125 4.2425 10.3125 3.5625 10.3125 C3.376875 9.36375 3.19125 8.415 3 7.4375 C1.82849195 3.92878301 1.82849195 3.92878301 -2.0625 2.9375 C-3.17625 2.73125 -4.29 2.525 -5.4375 2.3125 C-3.4375 0.3125 -3.4375 0.3125 0 0 Z " fill="#0C0C0C" transform="translate(100.4375,107.6875)"/>
<path d="M0 0 C3.16596047 0.45228007 6.03470078 1.01203904 9.0625 2.0625 C11.9137905 2.97248633 14.03506817 3.17440775 17 3 C16.67 4.32 16.34 5.64 16 7 C11.13849961 6.52338232 8.09735975 5.58780616 4 3 C1.30745009 2.29329272 1.30745009 2.29329272 -1 2 C-0.67 1.34 -0.34 0.68 0 0 Z " fill="#131313" transform="translate(96,126)"/>
<path d="M0 0 C2 2 2 2 2.8046875 4.046875 C3.85897517 6.23332221 3.85897517 6.23332221 6.3828125 6.828125 C7.28773438 6.96734375 8.19265625 7.1065625 9.125 7.25 C10.03507813 7.39953125 10.94515625 7.5490625 11.8828125 7.703125 C12.58148438 7.80109375 13.28015625 7.8990625 14 8 C14 8.33 14 8.66 14 9 C9.05 9 4.1 9 -1 9 C-1.09765625 2.84765625 -1.09765625 2.84765625 -1 1 C-0.67 0.67 -0.34 0.34 0 0 Z " fill="#3078B3" transform="translate(172,39)"/>
<path d="M0 0 C1.65 0 3.3 0 5 0 C5.33449533 1.64559756 5.66756499 3.29148498 6 4.9375 C6.2784375 6.31228516 6.2784375 6.31228516 6.5625 7.71484375 C7 10 7 10 7 11 C5.35 11 3.7 11 2 11 C2 8.36 2 5.72 2 3 C1.34 2.67 0.68 2.34 0 2 C0 1.34 0 0.68 0 0 Z " fill="#E31920" transform="translate(208,113)"/>
<path d="M0 0 C3.36591427 2.72478774 4.44226276 6.06856792 6 10 C5.01 9.67 4.02 9.34 3 9 C2.67 7.35 2.34 5.7 2 4 C1.34 4 0.68 4 0 4 C0 4.99 0 5.98 0 7 C-1.65 7 -3.3 7 -5 7 C-4.75 4.625 -4.75 4.625 -4 2 C-1.9375 0.6875 -1.9375 0.6875 0 0 Z " fill="#DD6468" transform="translate(139,111)"/>
<path d="M0 0 C1.69141656 0.08963062 3.37959602 0.24577676 5.0625 0.4375 C6.44115234 0.59025391 6.44115234 0.59025391 7.84765625 0.74609375 C8.55792969 0.82988281 9.26820312 0.91367188 10 1 C7.81434857 3.18565143 5.71931095 4.54085754 3 6 C2.01 6 1.02 6 0 6 C-0.38218767 4.34385343 -0.71395102 2.67542976 -1 1 C-0.67 0.67 -0.34 0.34 0 0 Z " fill="#C1C2C3" transform="translate(75,111)"/>
<path d="M0 0 C-0.33 1.65 -0.66 3.3 -1 5 C-7.75 4.25 -7.75 4.25 -10 2 C-6.49223216 0.39644899 -3.85645121 -0.22036864 0 0 Z " fill="#BEBFC0" transform="translate(83,117)"/>
<path d="M0 0 C1.65 0.33 3.3 0.66 5 1 C4.6875 4.375 4.6875 4.375 4 8 C3.01 8.66 2.02 9.32 1 10 C0.34 9.34 -0.32 8.68 -1 8 C-0.34 7.67 0.32 7.34 1 7 C0.67 4.69 0.34 2.38 0 0 Z " fill="#E1333A" transform="translate(224,113)"/>
<path d="M0 0 C0.99 0 1.98 0 3 0 C3 2.97 3 5.94 3 9 C1.35 9 -0.3 9 -2 9 C-1.125 1.125 -1.125 1.125 0 0 Z " fill="#E21B22" transform="translate(204,115)"/>
<path d="M0 0 C0.66 0 1.32 0 2 0 C2.268125 0.78375 2.53625 1.5675 2.8125 2.375 C3.84814432 5.28114923 3.84814432 5.28114923 7 7 C7 7.66 7 8.32 7 9 C5.35 9 3.7 9 2 9 C1.87625 8.195625 1.7525 7.39125 1.625 6.5625 C1.315625 5.2940625 1.315625 5.2940625 1 4 C0.34 3.67 -0.32 3.34 -1 3 C-0.67 2.01 -0.34 1.02 0 0 Z " fill="#E21B22" transform="translate(139,115)"/>
<path d="M0 0 C0.66 0 1.32 0 2 0 C2.33 1.98 2.66 3.96 3 6 C3.99 6.33 4.98 6.66 6 7 C3.625 7.625 3.625 7.625 1 8 C-1 6 -1 6 -1.1875 3.4375 C-1 1 -1 1 0 0 Z " fill="#060606" transform="translate(72,111)"/>
<path d="M0 0 C1.24546405 2.49092811 0.7767578 3.41080733 0 6 C2.31 6.33 4.62 6.66 7 7 C6.01 7.99 5.02 8.98 4 10 C1.525 9.01 1.525 9.01 -1 8 C-1.04241723 5.66705225 -1.04092937 3.33297433 -1 1 C-0.67 0.67 -0.34 0.34 0 0 Z " fill="#E21B22" transform="translate(184,115)"/>
<path d="M0 0 C0 1.32 0 2.64 0 4 C-1.98 3.34 -3.96 2.68 -6 2 C-6 3.32 -6 4.64 -6 6 C-6.66 6 -7.32 6 -8 6 C-7.625 3.5625 -7.625 3.5625 -7 1 C-4.53721199 -0.231394 -2.7204945 -0.07159196 0 0 Z " fill="#E2252B" transform="translate(165,113)"/>
<path d="M0 0 C1.5625 1.1875 1.5625 1.1875 3 3 C2.6875 5.6875 2.6875 5.6875 2 8 C1.34 8 0.68 8 0 8 C-0.66 6.02 -1.32 4.04 -2 2 C-1.34 1.34 -0.68 0.68 0 0 Z " fill="#D4C6C7" transform="translate(223,113)"/>
<path d="M0 0 C1.98 0.495 1.98 0.495 4 1 C3.67 2.65 3.34 4.3 3 6 C1.68 5.67 0.36 5.34 -1 5 C-0.67 3.35 -0.34 1.7 0 0 Z " fill="#DBD8BA" transform="translate(193,87)"/>
<path d="M0 0 C2.475 0.495 2.475 0.495 5 1 C5 2.32 5 3.64 5 5 C3.35 5 1.7 5 0 5 C0 3.35 0 1.7 0 0 Z " fill="#BBC6D1" transform="translate(175,40)"/>
<path d="M0 0 C2.31 0 4.62 0 7 0 C6.67 1.32 6.34 2.64 6 4 C3.69 3.67 1.38 3.34 -1 3 C-0.67 2.01 -0.34 1.02 0 0 Z " fill="#323232" transform="translate(106,129)"/>
<path d="M0 0 C-0.33 0.66 -0.66 1.32 -1 2 C-3.64860427 2.59355614 -6.29197322 2.74209269 -9 3 C-9 2.01 -9 1.02 -9 0 C-5.93109813 -1.53445094 -3.29905734 -0.54984289 0 0 Z " fill="#DF4349" transform="translate(208,114)"/>
<path d="M0 0 C1.65 0 3.3 0 5 0 C5 1.32 5 2.64 5 4 C3.35 4 1.7 4 0 4 C0 2.68 0 1.36 0 0 Z " fill="#CDDCE8" transform="translate(88,43)"/>
<path d="M0 0 C0.94875 0.350625 1.8975 0.70125 2.875 1.0625 C2.545 1.7225 2.215 2.3825 1.875 3.0625 C0.555 2.7325 -0.765 2.4025 -2.125 2.0625 C-2.455 3.3825 -2.785 4.7025 -3.125 6.0625 C-3.785 4.0825 -4.445 2.1025 -5.125 0.0625 C-3.125 -0.9375 -3.125 -0.9375 0 0 Z " fill="#4381B6" transform="translate(177.125,37.9375)"/>
<path d="M0 0 C2.64 0 5.28 0 8 0 C7.67 0.99 7.34 1.98 7 3 C4.36 2.67 1.72 2.34 -1 2 C-0.67 1.34 -0.34 0.68 0 0 Z " fill="#E30E15" transform="translate(221,128)"/>
</svg>
