<?xml version="1.0" encoding="UTF-8"?>
<svg version="1.1" xmlns="http://www.w3.org/2000/svg" width="3840" height="2160">
<path d="M0 0 C0.99026436 -0.00262848 0.99026436 -0.00262848 2.00053406 -0.00531006 C4.19317213 -0.00972826 6.38573018 -0.00679038 8.57836914 -0.00341797 C10.09672562 -0.0040911 11.615082 -0.0050612 13.13343811 -0.00631714 C16.32041446 -0.00779413 19.50736283 -0.00563981 22.69433594 -0.00097656 C26.78467255 0.0047159 30.87494348 0.00144481 34.96527767 -0.00454903 C38.10246782 -0.00815873 41.23964235 -0.00701408 44.37683296 -0.00442123 C45.88515798 -0.00375285 47.39348441 -0.00457732 48.90180779 -0.00690079 C51.0087956 -0.00943347 53.11567642 -0.00557779 55.22265625 0 C57.02348915 0.00119339 57.02348915 0.00119339 58.86070251 0.00241089 C61.67602539 0.12939453 61.67602539 0.12939453 63.67602539 1.12939453 C63.68025733 1.81019042 63.68448927 2.49098631 63.68884945 3.19241238 C63.79315439 19.92780313 63.90191905 36.66315877 64.01536465 53.39848995 C64.07012861 61.49229178 64.12350244 69.58609786 64.17333984 77.67993164 C64.2168934 84.75261811 64.26332347 91.82527952 64.31290394 98.89792639 C64.3389485 102.62636368 64.36376046 106.35479786 64.38509941 110.0832653 C64.50475221 130.77876766 64.95783085 151.44569021 65.67602539 172.12939453 C66.75661602 171.83844784 67.83720665 171.54750114 68.95054245 171.24773788 C70.38513649 170.86174176 71.81973367 170.47575732 73.2543335 170.08978271 C73.96455091 169.89852499 74.67476833 169.70726727 75.40650749 169.51021385 C128.83299739 155.13963112 181.34011006 152.32690888 230.71118164 180.28173828 C243.55389896 187.71443047 255.41634887 196.40748584 264.67602539 208.12939453 C265.40821289 209.00208984 266.14040039 209.87478516 266.89477539 210.77392578 C289.68639353 238.8667589 303.6705606 276.74228785 303.87915039 313.02783203 C303.8861647 313.85230835 303.89317902 314.67678467 303.90040588 315.52624512 C303.91785296 318.18568427 303.92426192 320.84490017 303.92602539 323.50439453 C303.92670013 324.41545959 303.92737488 325.32652466 303.92807007 326.26519775 C303.87313791 373.07663764 293.03902445 416.5480948 259.42602539 450.81689453 C248.84357766 461.31535458 236.85255218 469.21154266 223.67602539 476.12939453 C223.07048828 476.45117676 222.46495117 476.77295898 221.84106445 477.10449219 C212.48617225 482.00107944 202.8014104 485.63784077 192.80102539 489.00439453 C191.67220947 489.38587646 190.54339355 489.7673584 189.38037109 490.16040039 C172.87364029 495.55830155 156.67012089 496.29418051 139.43774414 496.33251953 C138.57062113 496.33534691 137.70349812 496.33817429 136.81009865 496.34108734 C132.21356538 496.35600405 127.61706284 496.36527878 123.02050781 496.36962891 C119.26878048 496.373999 115.517285 496.38784407 111.765625 496.41064453 C70.49202782 496.65586645 70.49202782 496.65586645 53.67602539 493.12939453 C52.8394339 492.95458557 52.00284241 492.77977661 51.14089966 492.59967041 C46.01747043 491.49799899 40.93420715 490.27027628 35.86035156 488.96020508 C33.34875014 488.31308767 30.83239868 487.68785525 28.31469727 487.06494141 C20.16196971 485.020499 12.06512381 482.7783874 4.07055664 480.18017578 C3.35236252 479.96443405 2.6341684 479.74869232 1.89421082 479.52641296 C-0.10205078 478.84545898 -0.10205078 478.84545898 -3.32397461 477.12939453 C-5.04555356 473.13417214 -5.58297532 469.62462906 -5.63389587 465.3019104 C-5.65196981 464.15774784 -5.67004375 463.01358528 -5.68866539 461.83475113 C-5.70331557 459.96893702 -5.70331557 459.96893702 -5.71826172 458.06542969 C-5.73551093 456.72859555 -5.75356735 455.39177162 -5.77236366 454.05495834 C-5.82106446 450.4046794 -5.85739388 446.75436987 -5.89128232 443.10392714 C-5.92176243 439.97900412 -5.95921392 436.85417952 -5.99663085 433.72933304 C-6.11649805 423.6973744 -6.21299536 413.66525892 -6.30177593 403.63298225 C-6.3234877 401.1843091 -6.34564097 398.7356403 -6.36789703 396.28697205 C-6.58780822 371.95012885 -6.74028703 347.61300933 -6.87141895 323.27554369 C-6.88660351 320.48066963 -6.90214719 317.68579779 -6.91780853 314.89092636 C-7.2979643 246.98164352 -7.43148312 179.07259352 -7.44608802 111.16229773 C-7.44773551 103.66982447 -7.45070215 96.17735335 -7.45479017 88.68488103 C-7.46187314 75.66131046 -7.46333598 62.63775499 -7.45835686 49.61418343 C-7.45683277 45.24232737 -7.45751666 40.87048031 -7.46011543 36.4986248 C-7.46296773 31.45343596 -7.46110122 26.40827214 -7.45534027 21.36308599 C-7.45403725 19.52449816 -7.45444337 17.68590824 -7.45664799 15.84732127 C-7.45935174 13.36167015 -7.45598612 10.87610281 -7.45095825 8.39045715 C-7.4531888 7.66016829 -7.45541934 6.92987944 -7.45771748 6.17746061 C-7.43149614 -0.43283097 -6.41289105 0.00425256 0 0 Z M70.44555664 237.71142578 C69.74019775 237.96126221 69.03483887 238.21109863 68.30810547 238.46850586 C66.66506889 239.01034738 66.66506889 239.01034738 65.67602539 240.12939453 C65.57839438 242.48226746 65.54605094 244.80574139 65.55577087 247.15907288 C65.55491645 247.90313383 65.55406202 248.64719478 65.55318171 249.41380304 C65.55152468 251.92587633 65.55705189 254.43788395 65.5625 256.94995117 C65.56278185 258.74317931 65.56262418 260.53640755 65.5620575 262.32963562 C65.56176943 267.21372818 65.56766753 272.09779641 65.57463145 276.98188329 C65.58086358 282.08016033 65.58146868 287.17843787 65.58265686 292.27671814 C65.58577059 301.93816612 65.59398455 311.59960285 65.60400635 321.26104587 C65.61516618 332.25723076 65.62067761 343.25341617 65.62570179 354.2496053 C65.63616713 376.87620796 65.65376738 399.50280062 65.67602539 422.12939453 C68.56608223 422.93490884 71.45632544 423.7397436 74.34667969 424.54418945 C75.1610424 424.77124321 75.97540512 424.99829697 76.8144455 425.23223114 C92.79908785 429.67891909 107.91645254 431.50003592 124.48852539 431.50439453 C125.65105331 431.5072496 125.65105331 431.5072496 126.83706665 431.51016235 C156.14137441 431.50201483 181.37498779 425.70387917 203.06274414 404.83251953 C224.04691222 383.02893572 229.2804689 351.09906411 228.95336914 322.03564453 C228.19988477 295.07514898 218.14342318 265.67172764 198.16821289 246.75439453 C159.57931248 214.81875281 113.81171415 222.3507502 70.44555664 237.71142578 Z " fill="#1F447E" transform="translate(1396.323974609375,1565.87060546875)"/>
<path d="M0 0 C24.75 0 49.5 0 75 0 C75 66.66 75 133.32 75 202 C136.38 202 197.76 202 261 202 C261 226.75 261 251.5 261 277 C199.62 277 138.24 277 75 277 C75 343.33 75 409.66 75 478 C49.92 478 24.84 478 -1 478 C-1.33 411.67 -1.66 345.34 -2 277 C-63.05 277 -124.1 277 -187 277 C-187 252.25 -187 227.5 -187 202 C-125.62 202 -64.24 202 -1 202 C-1.01160156 187.50191406 -1.02320313 173.00382812 -1.03515625 158.06640625 C-1.04026255 148.91080712 -1.04511754 139.75520901 -1.04882812 130.59960938 C-1.05477183 116.05037078 -1.06177549 101.50113796 -1.07543945 86.9519043 C-1.08538419 76.35784032 -1.09185292 65.763781 -1.09408849 55.16971248 C-1.09539596 49.55650597 -1.09848406 43.9433128 -1.10573006 38.33011055 C-1.11248696 33.05333464 -1.11461764 27.77657765 -1.11310768 22.49979782 C-1.11338416 20.55708527 -1.11539123 18.61437212 -1.11920547 16.67166328 C-1.12413758 14.03141574 -1.12300009 11.39124084 -1.12025452 8.75099182 C-1.12462378 7.58224017 -1.12462378 7.58224017 -1.12908131 6.38987738 C-1.11412121 1.11412121 -1.11412121 1.11412121 0 0 Z " fill="#E8762C" transform="translate(1883,455)"/>
<path d="M0 0 C23.43 0 46.86 0 71 0 C71.042727 37.57602513 71.042727 37.57602513 71.05126953 50.80004883 C71.05181595 51.64396545 71.05236237 52.48788207 71.05292535 53.35737193 C71.13344271 181.9112846 71.13344271 181.9112846 70 240 C69.97496525 241.30184864 69.97496525 241.30184864 69.94942474 242.62999725 C69.7010752 255.54232481 69.4263565 268.45385424 69.12346649 281.36501694 C69.06323557 283.96820831 69.00571618 286.57144757 68.9487915 289.17471313 C68.86014715 293.18769134 68.76153161 297.20030229 68.65480232 301.21283913 C68.61714399 302.67885442 68.58259776 304.14495344 68.55138969 305.61112022 C68.50802723 307.61465563 68.45172373 309.61789847 68.39477539 311.62109375 C68.36670303 312.7392749 68.33863068 313.85745605 68.30970764 315.00952148 C67.99379699 318.05989507 67.40196574 320.27865043 66 323 C63.6628418 324.20678711 63.6628418 324.20678711 60.69921875 325.02734375 C59.59126953 325.3416333 58.48332031 325.65592285 57.34179688 325.97973633 C56.13587891 326.29579834 54.92996094 326.61186035 53.6875 326.9375 C52.44162109 327.27740967 51.19574219 327.61731934 49.91210938 327.9675293 C36.411327 331.60152022 22.74328557 334.44989432 9 337 C8.11505859 337.16870605 7.23011719 337.33741211 6.31835938 337.51123047 C-17.63451936 341.98673818 -42.15529606 342.29787961 -66.4375 341.75 C-67.77991257 341.72202332 -67.77991257 341.72202332 -69.14944458 341.69348145 C-85.83133524 341.31821517 -102.14578088 340.26300365 -118.3125 335.875 C-120.03025635 335.41649658 -120.03025635 335.41649658 -121.78271484 334.94873047 C-162.94630981 323.64005053 -198.37116704 300.63574222 -220.11083984 263.08105469 C-244.09007877 219.95165221 -246.92133744 161.37921434 -233.6328125 114.484375 C-222.00387929 74.91579705 -198.09219067 40.54910451 -161.4987793 20.23632812 C-148.00087191 13.11898354 -133.15835583 7.14801586 -118 5 C-116.73671875 4.81050781 -115.4734375 4.62101562 -114.171875 4.42578125 C-73.18053104 -1.16702358 -37.0445292 3.4777354 0 22 C0 14.74 0 7.48 0 0 Z M-127 85 C-127.93199219 85.68964844 -128.86398438 86.37929687 -129.82421875 87.08984375 C-136.22940561 92.06194651 -141.33969677 97.37393101 -146 104 C-146.66773437 104.94230469 -147.33546875 105.88460938 -148.0234375 106.85546875 C-166.27204759 134.43813803 -168.97096213 171.61508496 -162.59082031 203.39990234 C-158.15405355 222.92534285 -149.93401609 236.83014724 -136 251 C-134.83017578 252.22396484 -134.83017578 252.22396484 -133.63671875 253.47265625 C-112.9217315 273.76986224 -82.35439194 276.37564995 -54.95703125 276.15234375 C-38.26326639 275.8700313 -21.02895097 275.07847951 -5 270 C-1.91265554 263.82531108 -2.72094559 254.64019411 -2.47265625 247.82421875 C-2.43133072 246.71100754 -2.39000519 245.59779633 -2.34742737 244.45085144 C-1.80786728 228.7804234 -1.64632289 213.10177256 -1.46757126 197.4239006 C-1.43717628 194.78438775 -1.40541338 192.14489434 -1.37332153 189.50540161 C-0.96880093 156.0028652 -0.87791154 122.50456045 -1 89 C-9.55470205 84.32085692 -18.06234175 79.82361226 -27.125 76.1875 C-28.0636792 75.80787109 -29.0023584 75.42824219 -29.96948242 75.03710938 C-36.89668897 72.2989603 -43.6210472 70.164525 -51 69 C-51.70898438 68.87238281 -52.41796875 68.74476562 -53.1484375 68.61328125 C-78.02010423 64.94447217 -106.69179444 69.68089691 -127 85 Z " fill="#1F447E" transform="translate(3157,1722)"/>
<path d="M0 0 C23.1 0 46.2 0 70 0 C70.0445521 29.92667552 70.08129685 59.85333188 70.10213066 89.78003155 C70.10463043 93.35758619 70.10721924 96.93514077 70.10986328 100.51269531 C70.11065021 101.58050466 70.11065021 101.58050466 70.11145304 102.6698859 C70.1189713 112.62223167 70.13126691 122.57456127 70.14746973 132.52689654 C70.33038122 244.93858973 70.33038122 244.93858973 69.0546875 285.265625 C69.03292151 285.95819743 69.01115552 286.65076986 68.98872995 287.36432934 C68.84852205 291.77234723 68.69484765 296.17972393 68.53076172 300.58691406 C68.49256191 301.62132881 68.45436211 302.65574356 68.41500473 303.72150421 C68.16235466 309.84343011 67.6820741 315.91094855 67 322 C49.53021461 328.98358995 30.5856679 332.93644885 12.125 336.375 C10.85076172 336.61323486 9.57652344 336.85146973 8.26367188 337.09692383 C4.51469665 337.77219751 0.7612533 338.39709612 -3 339 C-4.16337891 339.19722656 -5.32675781 339.39445312 -6.52539062 339.59765625 C-18.64865003 341.40939931 -30.78570153 341.30248777 -43.02197266 341.26074219 C-46.70101883 341.25014114 -50.37956355 341.26062373 -54.05859375 341.2734375 C-66.47351647 341.28106274 -78.81685022 340.96165381 -91.203125 340.08984375 C-92.91094147 339.96968903 -92.91094147 339.96968903 -94.65325928 339.84710693 C-133.77188935 336.81654911 -175.89878476 318.38774459 -202.0625 288.65625 C-218.3943338 269.37561287 -229.4792204 247.36619487 -235.75 222.9375 C-236.04813599 221.78846191 -236.04813599 221.78846191 -236.35229492 220.61621094 C-239.8380123 206.30280655 -240.33573735 192.20342298 -240.25 177.5625 C-240.24723053 176.63890686 -240.24446106 175.71531372 -240.24160767 174.76373291 C-240.19123661 160.4326253 -239.84412763 146.23036972 -238 132 C-237.91411621 131.28457031 -237.82823242 130.56914063 -237.73974609 129.83203125 C-232.98272235 92.20585477 -209.13625408 54.78565233 -179.625 31.6875 C-143.64883251 4.52508066 -97.26589864 -1.96587339 -53.45166016 3.64941406 C-39.25310306 5.67979924 -26.23452764 10.6200438 -13 16 C-11.96166016 16.42176514 -11.96166016 16.42176514 -10.90234375 16.85205078 C-7.58821912 18.20543176 -4.29284888 19.59505115 -1 21 C-0.67 14.07 -0.34 7.14 0 0 Z M-138.53125 94.40625 C-158.39779136 115.36136897 -165.46552142 143.75398228 -165.25 171.875 C-165.24105713 173.19491943 -165.23211426 174.51483887 -165.22290039 175.87475586 C-164.88210752 204.49605938 -157.44363926 230.2577239 -137 251 C-115.94094083 270.60671026 -92.76698095 275.26800577 -65 276 C-63.72125 276.04125 -62.4425 276.0825 -61.125 276.125 C-42.15324962 276.44119584 -23.41935171 274.52251067 -5 270 C-2.30586067 260.60771978 -2.80563955 250.00749232 -2.47094727 240.29907227 C-2.42948609 239.13477723 -2.38802492 237.9704822 -2.34530735 236.77090549 C-1.92667817 224.58779749 -1.67939543 212.40297477 -1.46484375 200.21484375 C-1.42158538 197.84948959 -1.37817039 195.48413829 -1.33460999 193.11878967 C-1.24479148 188.21065011 -1.15675118 183.30248302 -1.07006836 178.39428711 C-0.96025614 172.18384134 -0.8460415 165.97348583 -0.73049068 159.76314449 C-0.6403741 154.89395724 -0.55257362 150.02473018 -0.46542549 145.15548897 C-0.42424756 142.86873712 -0.38241119 140.58199701 -0.33982658 138.29527092 C-0.31984674 137.21588312 -0.29986691 136.13649532 -0.27928162 135.0243988 C-0.25953057 133.95972161 -0.23977953 132.89504442 -0.21942997 131.79810429 C-0.16836951 128.66047854 -0.13886734 125.52311947 -0.10983276 122.38522339 C-0.0592413 117.85749964 0.12886267 113.35388334 0.37619019 108.83279419 C0.46774982 106.47911499 0.55907522 104.12542666 0.65014648 101.77172852 C0.73242272 100.68086158 0.81469896 99.58999464 0.89946842 98.46607113 C0.99132687 95.35058731 0.96087955 92.96858414 0 90 C-2.99969936 87.18161625 -6.25374846 85.6316053 -10 84 C-11.67351919 83.13052447 -13.34343788 82.25404223 -15.0078125 81.3671875 C-55.14868237 61.50462562 -104.81831195 62.3581484 -138.53125 94.40625 Z " fill="#1F447E" transform="translate(978,1722)"/>
<path d="M0 0 C1.26419646 0.42485565 2.52852611 0.8493151 3.79296875 1.2734375 C24.93848989 8.58168997 43.10701907 20.3571232 59 36 C59.76699219 36.7425 60.53398437 37.485 61.32421875 38.25 C95.70194721 73.80039784 104 128.59699617 104 176 C23.81 176 -56.38 176 -139 176 C-134.25652566 199.71737168 -129.50993583 220.87144302 -113 239 C-112.38382813 239.7425 -111.76765625 240.485 -111.1328125 241.25 C-95.53122691 258.73348891 -69.4714985 265.65357366 -47 267 C-41.39519387 267.1618602 -35.79438436 267.19633938 -30.1875 267.1875 C-29.417547 267.18656342 -28.64759399 267.18562683 -27.85430908 267.18466187 C7.21755442 267.09258473 41.07752587 261.47824787 73.27172852 247.16333008 C74.23651123 246.73947021 75.20129395 246.31561035 76.1953125 245.87890625 C77.05141113 245.4929126 77.90750977 245.10691895 78.78955078 244.70922852 C81 244 81 244 84 245 C84.95680419 252.68847187 85.13235738 260.26624531 85.09765625 268.0078125 C85.09553383 269.81776199 85.09553383 269.81776199 85.09336853 271.66427612 C85.08781082 275.48454359 85.07526628 279.30475052 85.0625 283.125 C85.05747953 285.72916581 85.05291758 288.33333256 85.04882812 290.9375 C85.03785527 297.29168701 85.02115974 303.64583918 85 310 C63.27507446 320.02420942 63.27507446 320.02420942 53.0625 323.1875 C52.04164307 323.5086377 51.02078613 323.82977539 49.96899414 324.16064453 C32.26027245 329.53419686 13.48881483 333.63946207 -5 335 C-5.83644043 335.06558105 -6.67288086 335.13116211 -7.53466797 335.19873047 C-55.19941268 338.69744523 -110.28087513 331.0116755 -149 301 C-150.21236328 300.07767578 -150.21236328 300.07767578 -151.44921875 299.13671875 C-162.53714027 290.51277979 -172.45480458 281.17205179 -181 270 C-181.73734375 269.08992188 -182.4746875 268.17984375 -183.234375 267.2421875 C-197.95630758 248.611328 -206.24587444 226.06085695 -211 203 C-211.16516113 202.20883789 -211.33032227 201.41767578 -211.50048828 200.60253906 C-216.29220679 176.49033405 -215.49477567 150.0772252 -211 126 C-210.8443457 125.14116211 -210.68869141 124.28232422 -210.52832031 123.39746094 C-203.07819536 83.91625985 -181.30472954 45.01815906 -148.06103516 21.63623047 C-143.48433104 18.56589776 -138.7681581 15.7600756 -134 13 C-133.39607422 12.63922363 -132.79214844 12.27844727 -132.16992188 11.90673828 C-95.00321084 -10.21581832 -40.48341676 -14.53250858 0 0 Z M-105 80 C-105.84820313 80.66257812 -106.69640625 81.32515625 -107.5703125 82.0078125 C-119.00262372 91.43319761 -127.41519482 105.37155051 -133 119 C-133 119.99 -133 120.98 -133 122 C-126.51188226 122.8093175 -120.13234167 123.19976249 -113.59765625 123.31640625 C-112.05087944 123.34764587 -112.05087944 123.34764587 -110.47285461 123.3795166 C-107.00281658 123.44640092 -103.53270842 123.5051696 -100.0625 123.5625 C-98.25389496 123.59426834 -98.25389496 123.59426834 -96.40875244 123.62667847 C-56.27810977 124.31209845 -16.13475416 124.08923691 24 124 C23.84924138 121.75310405 23.6957156 119.50639365 23.54101562 117.25976562 C23.41321716 115.38303162 23.41321716 115.38303162 23.28283691 113.46838379 C21.96000121 97.24666135 14.30243959 84.12594476 2.58984375 73.1171875 C-28.08012726 48.04460184 -76.57520216 56.18908239 -105 80 Z " fill="#1F447E" transform="translate(2541,1732)"/>
<path d="M0 0 C1.22355698 0.00222061 2.44711395 0.00444122 3.70774841 0.00672913 C4.38089081 0.0065831 5.0540332 0.00643707 5.74757385 0.00628662 C7.98229649 0.00698573 10.21693674 0.01477799 12.4516449 0.02259827 C13.99721226 0.02446245 15.54278022 0.02588635 17.08834839 0.02688599 C21.16380941 0.03071112 25.23923502 0.04054135 29.31468201 0.05158997 C33.47035747 0.0618042 37.62603864 0.06638363 41.78172302 0.07142639 C49.94124452 0.08216363 58.10073718 0.09923998 66.26023865 0.12025452 C67.47784994 3.77308839 67.39518437 7.11962954 67.38049316 10.92193604 C67.3817748 12.12634534 67.3817748 12.12634534 67.38308233 13.35508615 C67.38473375 16.05441929 67.37922125 18.75369074 67.37376404 21.45301819 C67.37348207 23.38447061 67.37364009 25.31592313 67.37420654 27.24737549 C67.37449413 32.49910581 67.36860358 37.75081341 67.36163259 43.00253844 C67.35539268 48.48784632 67.35479474 53.97315469 67.35360718 59.45846558 C67.35049575 69.84941551 67.34228488 80.24035496 67.33225769 90.63130027 C67.31900377 104.66995231 67.31359512 118.7086072 67.30775547 132.74726391 C67.29834488 154.87160197 67.27842469 176.9959179 67.26023865 199.12025452 C160.81523865 199.61525452 160.81523865 199.61525452 256.26023865 200.12025452 C256.26023865 221.57025452 256.26023865 243.02025452 256.26023865 265.12025452 C193.89023865 265.12025452 131.52023865 265.12025452 67.26023865 265.12025452 C67.27184021 280.55677795 67.28344177 295.99330139 67.2953949 311.89759827 C67.30050118 321.64564531 67.30535616 331.39369139 67.30906677 341.14173889 C67.31501055 356.63254628 67.32201441 372.12334824 67.3356781 387.614151 C67.34562263 398.89380525 67.35209152 410.17345511 67.35432714 421.45311362 C67.35563464 427.42961358 67.35872298 433.40610101 67.3659687 439.38259697 C67.37272527 445.00081532 67.37485635 450.6190159 67.37334633 456.23723793 C67.37362282 458.30572989 67.37563009 460.37422241 67.37944412 462.44271088 C67.3843757 465.25374034 67.38323893 468.06470157 67.38049316 470.87573242 C67.38486243 472.12035756 67.38486243 472.12035756 67.38931996 473.39012665 C67.37435986 479.00613331 67.37435986 479.00613331 66.26023865 480.12025452 C43.16023865 480.12025452 20.06023865 480.12025452 -3.73976135 480.12025452 C-3.73976135 409.17025452 -3.73976135 338.22025452 -3.73976135 265.12025452 C-66.10976135 265.12025452 -128.47976135 265.12025452 -192.73976135 265.12025452 C-192.73976135 243.67025452 -192.73976135 222.22025452 -192.73976135 200.12025452 C-130.36976135 200.12025452 -67.99976135 200.12025452 -3.73976135 200.12025452 C-3.75136292 185.76654358 -3.76296448 171.41283264 -3.7749176 156.62416077 C-3.78002391 147.55970746 -3.78487889 138.4952552 -3.78858948 129.43080139 C-3.79453317 115.02641953 -3.8015368 100.62204351 -3.81520081 86.21766663 C-3.82514558 75.72907807 -3.83161429 65.24049423 -3.83384985 54.75190109 C-3.83515731 49.19458587 -3.83824537 43.63728413 -3.84549141 38.07997322 C-3.85224837 32.85572691 -3.85437898 27.63149971 -3.85286903 22.40724945 C-3.85314551 20.48388757 -3.85515254 18.56052509 -3.85896683 16.63716698 C-3.86389902 14.02319356 -3.86276141 11.40929351 -3.86001587 8.7953186 C-3.86438513 7.6382398 -3.86438513 7.6382398 -3.86884266 6.45778567 C-3.85083134 0.16902197 -3.85083134 0.16902197 0 0 Z " fill="#1F447E" transform="translate(225.73976135253906,1587.8797454833984)"/>
<path d="M0 0 C24.09 0 48.18 0 73 0 C72.98839844 8.42144531 72.97679688 16.84289063 72.96484375 25.51953125 C72.85026322 100.78207623 72.85026322 100.78207623 73.34743118 176.04229355 C73.37480443 178.60667901 73.39867747 181.17107537 73.42160034 183.73550415 C73.45786005 187.71484903 73.50385684 191.69396056 73.55800056 195.67310143 C73.57604377 197.08007102 73.59135867 198.48707945 73.60336113 199.89411354 C73.79545504 221.27442613 76.51732239 243.76621515 92 260 C107.63317735 272.93560463 126.24115563 277.60479493 146.3125 277.4375 C147.57489502 277.43137695 148.83729004 277.42525391 150.13793945 277.41894531 C159.92936137 277.25570263 168.72414199 276.08839051 178 273 C178.95390625 272.69964844 179.9078125 272.39929687 180.890625 272.08984375 C187.31985901 269.81200164 192.61387125 266.12785665 198 262 C198.84949219 261.3709375 199.69898437 260.741875 200.57421875 260.09375 C211.68801222 250.50116819 217.03730099 232.85223758 218.19041717 218.65568519 C218.34099379 216.0447227 218.46035338 213.43445371 218.56529236 210.82125854 C218.62661501 209.37604869 218.62661501 209.37604869 218.6891765 207.90164268 C219.08248999 198.01302559 219.17381 188.13013502 219.20532227 178.23486328 C219.21493883 176.27105013 219.22495086 174.30723888 219.23532104 172.34342957 C219.261968 167.09078006 219.28319083 161.83812194 219.30332303 156.58544397 C219.3254357 151.06686558 219.35269873 145.54831249 219.37937927 140.02975464 C219.42896898 129.61466527 219.47403053 119.19956161 219.51740164 108.78444469 C219.56706533 96.91231774 219.62187385 85.04021621 219.67708123 73.16811395 C219.79038248 48.77876534 219.8966523 24.38939296 220 0 C243.76 0 267.52 0 292 0 C292.02265613 26.67079376 292.04104246 53.34157962 292.05181217 80.0123806 C292.05694775 92.3987195 292.06393767 104.78505196 292.07543945 117.17138672 C292.08547058 127.97920601 292.09187329 138.78702064 292.09408849 149.59484446 C292.09538142 155.30665772 292.09837589 161.01845763 292.10573006 166.73026657 C292.21937394 258.66047024 292.21937394 258.66047024 266 288 C265.28650391 288.92619141 265.28650391 288.92619141 264.55859375 289.87109375 C245.45556017 314.56247745 208.92248158 325.07751924 179.4375 329.5390625 C130.76863301 335.32450481 77.64292444 329.87765472 38 299 C37.18015625 298.36578125 36.3603125 297.7315625 35.515625 297.078125 C17.69021757 282.28682948 4.36811371 258.02818008 2 235 C1.7678512 232.04642792 1.6035493 229.09202314 1.45727539 226.13305664 C1.41545419 225.30718835 1.37363298 224.48132006 1.33054447 223.63042545 C0.91889075 215.04566644 0.77392975 206.46429238 0.68359375 197.87109375 C0.6627288 196.12338559 0.64168574 194.37567956 0.6204834 192.62797546 C0.56462919 187.88871966 0.51508564 183.14941839 0.46757126 178.41007233 C0.43729904 175.41763519 0.40544548 172.42521808 0.37332153 169.43280029 C-0.22436991 112.95711284 -0.08491497 56.47789227 0 0 Z " fill="#1F447E" transform="translate(3501,1731)"/>
<path d="M0 0 C21.12 0 42.24 0 64 0 C64 59.07 64 118.14 64 179 C119.44 179 174.88 179 232 179 C232 198.47 232 217.94 232 238 C226.41654812 238.62038354 221.44419303 239.12465673 215.91941833 239.12025452 C214.94240967 239.12153854 214.94240967 239.12153854 213.94566345 239.12284851 C211.78853488 239.12448422 209.63148653 239.11901227 207.47436523 239.11352539 C205.8913247 239.11321862 204.30828404 239.11335328 202.72524357 239.11389065 C198.50744274 239.11411529 194.28967061 239.10834305 190.07187653 239.10128021 C186.10590022 239.09556158 182.13993069 239.0953158 178.1739502 239.09460449 C166.5951297 239.08936886 155.01631448 239.07540761 143.4375 239.0625 C117.553125 239.041875 91.66875 239.02125 65 239 C64.67 298.07 64.34 357.14 64 418 C42.88 418 21.76 418 0 418 C-0.33 358.93 -0.66 299.86 -1 239 C-54.08923845 239.03959933 -54.08923845 239.03959933 -107.1784668 239.09008789 C-117.43908691 239.09460449 -117.43908691 239.09460449 -122.24031067 239.09544373 C-125.59843098 239.09637655 -128.95653552 239.10012874 -132.31465149 239.10557556 C-136.59707911 239.1124297 -140.87948378 239.11449204 -145.16191638 239.11307228 C-146.73422582 239.1133692 -148.30653607 239.11535504 -149.8788408 239.11921513 C-152.00211659 239.12418606 -154.12530312 239.12299095 -156.24858093 239.12025452 C-157.43861567 239.12117631 -158.62865042 239.1220981 -159.85474682 239.12304783 C-163 239 -163 239 -168 238 C-168 218.53 -168 199.06 -168 179 C-112.56 179 -57.12 179 0 179 C0 119.93 0 60.86 0 0 Z " fill="#C72034" transform="translate(1537,807)"/>
<path d="M0 0 C21.12 0 42.24 0 64 0 C64.33 59.07 64.66 118.14 65 179 C120.11 179.33 175.22 179.66 232 180 C232 199.47 232 218.94 232 239 C149.335 239.495 149.335 239.495 65 240 C64.67 299.07 64.34 358.14 64 419 C42.88 419 21.76 419 0 419 C0 359.6 0 300.2 0 239 C-55.44 239 -110.88 239 -168 239 C-168 219.53 -168 200.06 -168 180 C-112.56 180 -57.12 180 0 180 C0 120.6 0 61.2 0 0 Z " fill="#61859C" transform="translate(2239,160)"/>
<path d="M0 0 C21.12 0 42.24 0 64 0 C64 59.07 64 118.14 64 179 C119.44 179 174.88 179 232 179 C232 197.81 232 216.62 232 236 C176.56 236 121.12 236 64 236 C64 296.06 64 356.12 64 418 C42.88 418 21.76 418 0 418 C0 357.94 0 297.88 0 236 C-55.44 236 -110.88 236 -168 236 C-168 217.19 -168 198.38 -168 179 C-112.56 179 -57.12 179 0 179 C0 119.93 0 60.86 0 0 Z " fill="#1F447E" transform="translate(2239,807)"/>
<path d="M0 0 C20.46 0 40.92 0 62 0 C62 59.4 62 118.8 62 180 C118.1 180 174.2 180 232 180 C232 198.48 232 216.96 232 236 C175.9 236 119.8 236 62 236 C62 296.39 62 356.78 62 419 C41.54 419 21.08 419 0 419 C0 358.61 0 298.22 0 236 C-55.44 236 -110.88 236 -168 236 C-168 217.52 -168 199.04 -168 180 C-112.56 180 -57.12 180 0 180 C0 120.6 0 61.2 0 0 Z " fill="#EA902C" transform="translate(1537,160)"/>
<path d="M0 0 C23.1 0 46.2 0 70 0 C70 205.92 70 411.84 70 624 C46.9 624 23.8 624 0 624 C0 418.08 0 212.16 0 0 Z " fill="#1F447E" transform="translate(1972,1501)"/>
<path d="M0 0 C18.81 0 37.62 0 57 0 C57 41.58 57 83.16 57 126 C94.29 126 131.58 126 170 126 C170 142.83 170 159.66 170 177 C132.71 177 95.42 177 57 177 C57 218.58 57 260.16 57 303 C38.52 303 20.04 303 1 303 C0 302 0 302 -0.12304783 299.92478085 C-0.12212604 299.00390965 -0.12120424 298.08303846 -0.12025452 297.13426208 C-0.12231651 295.5545462 -0.12231651 295.5545462 -0.12442017 293.94291687 C-0.11902725 292.19504631 -0.11902725 292.19504631 -0.11352539 290.41186523 C-0.11367142 289.19252289 -0.11381744 287.97318054 -0.1139679 286.71688843 C-0.11338893 283.36372489 -0.10835968 280.01062226 -0.10139394 276.65746951 C-0.09515983 273.15674438 -0.09455656 269.65601852 -0.09336853 266.1552887 C-0.09025538 259.52190344 -0.08204222 252.88853459 -0.07201904 246.25515658 C-0.05976331 237.9650294 -0.05427532 229.67489959 -0.04882812 221.38476562 C-0.03907679 206.58983096 -0.01904654 191.79493211 0 177 C-37.29 177 -74.58 177 -113 177 C-113 160.17 -113 143.34 -113 126 C-75.71 126 -38.42 126 0 126 C0 84.42 0 42.84 0 0 Z " fill="#5A6591" transform="translate(1893,1062)"/>
<path d="M0 0 C18.81 0 37.62 0 57 0 C57 41.58 57 83.16 57 126 C94.29 126 131.58 126 170 126 C171.12528589 133.8770012 171.12528589 133.8770012 171.12939453 137.72607422 C171.13254669 138.58321014 171.13569885 139.44034607 171.13894653 140.32345581 C171.13591019 141.6754155 171.13591019 141.6754155 171.1328125 143.0546875 C171.13424759 144.46791794 171.13424759 144.46791794 171.13571167 145.90969849 C171.13638891 147.88804186 171.13456659 149.86638752 171.13037109 151.84472656 C171.12498029 154.88611758 171.13034987 157.92736332 171.13671875 160.96875 C171.13605859 162.89322949 171.13477872 164.8177089 171.1328125 166.7421875 C171.13483673 167.65563934 171.13686096 168.56909119 171.13894653 169.51022339 C171.11497391 175.88502609 171.11497391 175.88502609 170 177 C168.5325104 177.09565123 167.06043116 177.12188309 165.58982849 177.12025452 C164.63964309 177.12163201 163.68945768 177.12300951 162.71047878 177.12442875 C161.65545194 177.12083064 160.60042509 177.11723253 159.51342773 177.11352539 C158.39323022 177.11364593 157.2730327 177.11376646 156.11888981 177.11389065 C152.47377129 177.11314111 148.82870318 177.10551101 145.18359375 177.09765625 C142.94079615 177.09618696 140.69799821 177.09516617 138.4552002 177.09460449 C130.11596159 177.08935013 121.7767303 177.07538907 113.4375 177.0625 C94.813125 177.041875 76.18875 177.02125 57 177 C57 218.58 57 260.16 57 303 C38.52 303 20.04 303 1 303 C0.25773803 299.28869016 -0.12411281 296.52773312 -0.12025452 292.84306335 C-0.12231651 291.31820564 -0.12231651 291.31820564 -0.12442017 289.76254272 C-0.11902725 288.10637436 -0.11902725 288.10637436 -0.11352539 286.41674805 C-0.11367142 285.24558945 -0.11381744 284.07443085 -0.1139679 282.86778259 C-0.11327157 278.99907576 -0.10549222 275.13041716 -0.09765625 271.26171875 C-0.09579108 268.57843443 -0.09431844 265.89515278 -0.09336853 263.21186829 C-0.0902633 256.87256835 -0.08206082 250.53328571 -0.07201904 244.19399339 C-0.05973498 236.26670204 -0.05426899 228.33940787 -0.04882812 220.41210938 C-0.03909494 206.27472612 -0.01906164 192.13738059 0 178 C-37.29 177.67 -74.58 177.34 -113 177 C-113 160.17 -113 143.34 -113 126 C-75.71 126 -38.42 126 0 126 C0 84.42 0 42.84 0 0 Z " fill="#5B6591" transform="translate(2430,544)"/>
<path d="M0 0 C14.52 0 29.04 0 44 0 C44 39.93 44 79.86 44 121 C81.29 121 118.58 121 157 121 C157 133.87 157 146.74 157 160 C136.62026832 160.74869777 136.62026832 160.74869777 127.74804688 161.06640625 C121.75860244 161.28091119 115.76920408 161.49633913 109.7800293 161.71826172 C104.93661527 161.89766024 100.09304278 162.0720881 95.24933815 162.24345398 C93.426684 162.30873868 91.60408681 162.37564047 89.7815609 162.44441223 C74.50183583 163.01913891 59.31078388 163 44 163 C44 202.93 44 242.86 44 284 C29.48 284 14.96 284 0 284 C-0.33 244.4 -0.66 204.8 -1 164 C-36.97 164 -72.94 164 -110 164 C-110 149.81 -110 135.62 -110 121 C-73.7 121 -37.4 121 0 121 C0 81.07 0 41.14 0 0 Z " fill="#648FA0" transform="translate(1350,552)"/>
<path d="M0 0 C1.36560059 0.00303635 1.36560059 0.00303635 2.75878906 0.00613403 C3.68723633 0.00517731 4.61568359 0.00422058 5.57226562 0.00323486 C7.53938871 0.00255298 9.50651403 0.00440781 11.47363281 0.00857544 C14.49581932 0.01392358 17.51785721 0.00863071 20.54003906 0.00222778 C22.44628939 0.00288856 24.35253963 0.00416972 26.25878906 0.00613403 C27.16918945 0.0041098 28.07958984 0.00208557 29.01757812 0 C35.39383938 0.02399685 35.39383938 0.02399685 36.50878906 1.13894653 C36.6047611 2.73316689 36.63066831 4.33165103 36.62904358 5.92875671 C36.63110558 7.48323013 36.63110558 7.48323013 36.63320923 9.06910706 C36.62961395 10.21565262 36.62601868 11.36219818 36.62231445 12.54348755 C36.62246048 13.74332275 36.62260651 14.94315796 36.62275696 16.17935181 C36.622178 19.47879844 36.61714884 22.77818317 36.610183 26.07761884 C36.60394879 29.5222895 36.60334561 32.96696092 36.60215759 36.41163635 C36.59904448 42.93877383 36.59083135 49.46589464 36.5808081 55.99302477 C36.56855226 64.15038612 36.56306435 72.30775015 36.55761719 80.46511841 C36.54786592 95.02307411 36.52783566 109.58099343 36.50878906 124.13894653 C73.79878906 124.13894653 111.08878906 124.13894653 149.50878906 124.13894653 C149.50878906 137.33894653 149.50878906 150.53894653 149.50878906 164.13894653 C112.21878906 164.13894653 74.92878906 164.13894653 36.50878906 164.13894653 C36.52039062 173.00640747 36.53199219 181.87386841 36.54394531 191.01004028 C36.54970069 197.32265601 36.55482762 203.63526978 36.55904293 209.94788647 C36.56459479 218.13600935 36.57165461 226.32412211 36.58422852 234.51223755 C36.59417547 240.99275995 36.60064252 247.47327473 36.60287756 253.95380455 C36.60418464 257.38725196 36.60727037 260.82067754 36.61451912 264.25411797 C36.62253322 268.08088474 36.62278019 271.90762989 36.62231445 275.73440552 C36.62590973 276.88095108 36.629505 278.02749664 36.63320923 279.20878601 C36.63183456 280.24510162 36.6304599 281.28141724 36.62904358 282.34913635 C36.63042627 283.70832011 36.63042627 283.70832011 36.63183689 285.09496212 C36.50878906 287.13894653 36.50878906 287.13894653 35.50878906 288.13894653 C32.41797441 288.24011574 29.34996351 288.27863211 26.25878906 288.27175903 C25.3303418 288.27271576 24.40189453 288.27367249 23.4453125 288.2746582 C21.47818942 288.27534008 19.5110641 288.27348525 17.54394531 288.26931763 C14.5217588 288.26396948 11.49972092 288.26926236 8.47753906 288.27566528 C6.57128873 288.2750045 4.6650385 288.27372334 2.75878906 288.27175903 C1.39318848 288.27479538 1.39318848 288.27479538 0 288.27789307 C-6.37626125 288.25389622 -6.37626125 288.25389622 -7.49121094 287.13894653 C-7.58718298 285.54472617 -7.61309018 283.94624203 -7.61146545 282.34913635 C-7.61352745 280.79466293 -7.61352745 280.79466293 -7.6156311 279.20878601 C-7.61023819 277.48896767 -7.61023819 277.48896767 -7.60473633 275.73440552 C-7.60488235 274.53457031 -7.60502838 273.33473511 -7.60517883 272.09854126 C-7.60459987 268.79909463 -7.59957071 265.4997099 -7.59260488 262.20027423 C-7.58637066 258.75560356 -7.58576749 255.31093215 -7.58457947 251.86625671 C-7.58146635 245.33911924 -7.57325323 238.81199843 -7.56322998 232.2848683 C-7.55097414 224.12750695 -7.54548623 215.97014291 -7.54003906 207.81277466 C-7.5302878 193.25481895 -7.51025754 178.69689964 -7.49121094 164.13894653 C-43.79121094 164.13894653 -80.09121094 164.13894653 -117.49121094 164.13894653 C-117.49121094 150.93894653 -117.49121094 137.73894653 -117.49121094 124.13894653 C-81.19121094 124.13894653 -44.89121094 124.13894653 -7.49121094 124.13894653 C-7.5028125 115.2714856 -7.51441406 106.40402466 -7.52636719 97.26785278 C-7.53212256 90.95523705 -7.53724949 84.64262328 -7.54146481 78.3300066 C-7.54701667 70.14188371 -7.55407648 61.95377096 -7.56665039 53.76565552 C-7.57659735 47.28513311 -7.58306439 40.80461834 -7.58529943 34.32408851 C-7.58660652 30.89064111 -7.58969224 27.45721553 -7.59694099 24.0237751 C-7.6049551 20.19700833 -7.60520207 16.37026318 -7.60473633 12.54348755 C-7.6083316 11.39694199 -7.61192688 10.25039642 -7.6156311 9.06910706 C-7.61425644 8.03279144 -7.61288177 6.99647583 -7.61146545 5.92875671 C-7.61238725 5.02263421 -7.61330904 4.11651171 -7.61425877 3.18293095 C-7.3408165 -1.35930061 -3.7287794 0.01403314 0 0 Z " fill="#648FA0" transform="translate(1905.4912109375,30.861053466796875)"/>
</svg>
