<?xml version="1.0" standalone="no"?>
<!DOCTYPE svg PUBLIC "-//W3C//DTD SVG 20010904//EN"
 "http://www.w3.org/TR/2001/REC-SVG-20010904/DTD/svg10.dtd">
<svg version="1.0" xmlns="http://www.w3.org/2000/svg"
 width="298.000000pt" height="169.000000pt" viewBox="0 0 298.000000 169.000000"
 preserveAspectRatio="xMidYMid meet">

<g transform="translate(0.000000,169.000000) scale(0.100000,-0.100000)"
fill="#000000" stroke="none">
<path d="M870 1564 c-145 -84 -136 -68 -136 -254 l1 -124 113 -64 112 -64 0
-60 c0 -56 -2 -61 -40 -97 -35 -33 -40 -43 -40 -83 0 -81 70 -133 145 -108 49
16 75 53 75 108 0 40 -5 50 -40 83 -37 36 -40 42 -40 93 l0 55 70 41 c39 23
74 40 79 38 4 -2 65 -36 134 -77 l127 -75 0 -97 0 -98 101 -57 101 -57 -38
-24 c-22 -12 -62 -35 -89 -49 l-51 -27 -77 44 c-59 34 -77 49 -77 66 0 69
-101 102 -147 48 -25 -29 -29 -52 -12 -88 18 -39 90 -62 115 -38 5 6 40 -8 91
-37 81 -46 83 -48 83 -84 l0 -38 -96 0 c-94 0 -97 1 -124 30 -19 21 -38 30
-58 30 -35 0 -80 -35 -83 -65 -11 -84 82 -135 137 -74 15 16 31 19 121 19
l103 0 0 -48 0 -48 -72 -41 c-69 -39 -72 -40 -105 -27 -41 18 -79 4 -102 -37
-27 -49 14 -119 72 -119 31 0 87 47 87 74 0 8 33 33 75 56 l74 41 115 -66 115
-66 128 73 128 74 3 151 3 152 -73 42 c-40 23 -86 49 -101 59 l-29 17 101 58
101 57 0 132 0 131 84 47 c68 39 90 47 114 42 47 -10 80 3 98 37 29 57 -10
119 -73 119 -40 0 -83 -37 -83 -72 0 -19 -16 -33 -81 -71 -45 -26 -85 -47 -88
-45 -4 2 -51 28 -104 58 l-97 55 0 90 0 90 35 28 c84 67 38 197 -70 197 -105
0 -153 -128 -74 -194 17 -14 35 -26 40 -26 5 0 9 -42 9 -92 l0 -93 -72 -41
-71 -41 -129 76 -128 76 0 100 0 100 -83 47 c-45 26 -104 60 -132 76 l-50 29
-125 -73z m173 -26 c16 -12 9 -19 -77 -68 l-96 -54 0 -118 0 -118 -40 20 -40
20 0 114 0 114 103 60 c103 59 109 61 150 30z m681 6 c9 -8 16 -24 16 -35 0
-23 -34 -59 -55 -59 -21 0 -55 36 -55 59 0 27 26 51 55 51 13 0 31 -7 39 -16z
m-558 -75 l34 -21 0 -96 0 -97 158 -96 157 -95 83 48 c46 26 89 48 95 48 7 0
23 -9 36 -19 l24 -18 -96 -57 -97 -57 0 -115 c0 -64 -3 -114 -7 -112 -68 33
-63 23 -63 127 l0 96 -157 95 c-87 52 -160 96 -164 98 -3 1 -43 -19 -88 -44
l-83 -47 -34 16 -35 17 3 122 3 122 90 52 c50 29 94 53 99 54 5 0 24 -9 42
-21z m688 -400 l36 -21 0 -116 -1 -117 -99 -57 -100 -57 -35 20 -35 21 0 117
0 116 98 57 c53 32 98 58 99 58 1 0 18 -9 37 -21z m-826 -211 c19 -19 14 -63
-9 -84 -19 -17 -23 -17 -47 -3 -30 16 -41 61 -21 85 14 17 60 19 77 2z m762
-285 l100 -57 0 -117 0 -117 -100 -57 -101 -57 -99 57 -100 56 0 117 0 118 98
56 c53 31 98 57 100 57 1 1 47 -25 102 -56z"/>
<path d="M1010 1340 c-41 -41 -10 -110 48 -110 36 0 62 28 62 67 0 57 -69 84
-110 43z"/>
<path d="M1604 487 c-64 -58 -55 -152 19 -197 96 -59 216 31 187 139 -15 58
-59 91 -121 91 -42 0 -55 -5 -85 -33z"/>
</g>
</svg>
